<?xml version="1.0" encoding="UTF-8" standalone="no"?>
<!-- Created with Inkscape (http://www.inkscape.org/) -->

<svg
   width="4in"
   height="3in"
   viewBox="0 0 101.6 76.2"
   version="1.1"
   id="svg8"
   inkscape:version="1.2.2 (b0a8486541, 2022-12-01)"
   sodipodi:docname="zazaza.svg"
   xmlns:inkscape="http://www.inkscape.org/namespaces/inkscape"
   xmlns:sodipodi="http://sodipodi.sourceforge.net/DTD/sodipodi-0.dtd"
   xmlns="http://www.w3.org/2000/svg"
   xmlns:svg="http://www.w3.org/2000/svg"
   xmlns:rdf="http://www.w3.org/1999/02/22-rdf-syntax-ns#"
   xmlns:cc="http://creativecommons.org/ns#"
   xmlns:dc="http://purl.org/dc/elements/1.1/">
  <defs
     id="defs2">
    <inkscape:path-effect
       effect="powerstroke"
       id="path-effect533"
       is_visible="true"
       lpeversion="1"
       offset_points="0.30766582,0.19956025"
       not_jump="true"
       sort_points="true"
       interpolator_type="CentripetalCatmullRom"
       interpolator_beta="0.75"
       start_linecap_type="peak"
       linejoin_type="spiro"
       miter_limit="4"
       scale_width="1"
       end_linecap_type="peak" />
    <inkscape:path-effect
       effect="simplify"
       id="path-effect531"
       is_visible="true"
       lpeversion="1"
       steps="1"
       threshold="0.037633136"
       smooth_angles="0"
       helper_size="0"
       simplify_individual_paths="false"
       simplify_just_coalesce="false"
       step="1" />
    <inkscape:path-effect
       effect="powerstroke"
       id="path-effect428"
       is_visible="true"
       lpeversion="1"
       offset_points="0.39079781,0.19956025"
       not_jump="true"
       sort_points="true"
       interpolator_type="CentripetalCatmullRom"
       interpolator_beta="0.75"
       start_linecap_type="peak"
       linejoin_type="spiro"
       miter_limit="4"
       scale_width="1"
       end_linecap_type="peak" />
    <inkscape:path-effect
       effect="simplify"
       id="path-effect426"
       is_visible="true"
       lpeversion="1"
       steps="1"
       threshold="0.037633136"
       smooth_angles="0"
       helper_size="0"
       simplify_individual_paths="false"
       simplify_just_coalesce="false"
       step="1" />
    <inkscape:path-effect
       effect="powerstroke"
       id="path-effect421"
       is_visible="true"
       lpeversion="1"
       offset_points="0.40211667,0.19956025"
       not_jump="true"
       sort_points="true"
       interpolator_type="CentripetalCatmullRom"
       interpolator_beta="0.75"
       start_linecap_type="peak"
       linejoin_type="spiro"
       miter_limit="4"
       scale_width="1"
       end_linecap_type="peak" />
    <inkscape:path-effect
       effect="simplify"
       id="path-effect419"
       is_visible="true"
       lpeversion="1"
       steps="1"
       threshold="0.037633136"
       smooth_angles="0"
       helper_size="0"
       simplify_individual_paths="false"
       simplify_just_coalesce="false"
       step="1" />
  </defs>
  <sodipodi:namedview
     id="base"
     pagecolor="#ffffff"
     bordercolor="#666666"
     borderopacity="1.0"
     inkscape:pageopacity="0.0"
     inkscape:pageshadow="2"
     inkscape:zoom="0.99437388"
     inkscape:cx="556.12885"
     inkscape:cy="190.57218"
     inkscape:document-units="mm"
     inkscape:current-layer="layer1"
     showgrid="false"
     showborder="true"
     width="200mm"
     showguides="true"
     inkscape:guide-bbox="true"
     inkscape:window-width="944"
     inkscape:window-height="1056"
     inkscape:window-x="962"
     inkscape:window-y="10"
     inkscape:window-maximized="1"
     inkscape:showpageshadow="2"
     inkscape:pagecheckerboard="0"
     inkscape:deskcolor="#d1d1d1">
    <inkscape:grid
       type="xygrid"
       id="grid815"
       units="mm"
       spacingx="10"
       spacingy="10"
       empspacing="4"
       dotted="false"
       originx="0"
       originy="0" />
  </sodipodi:namedview>
  <metadata
     id="metadata5">
    <rdf:RDF>
      <cc:Work
         rdf:about="">
        <dc:format>image/svg+xml</dc:format>
        <dc:type
           rdf:resource="http://purl.org/dc/dcmitype/StillImage" />
      </cc:Work>
    </rdf:RDF>
  </metadata>
  <g
     inkscape:label="Layer 1"
     inkscape:groupmode="layer"
     id="layer1"
     transform="translate(0,-177)">
    <path
       style="fill:none;stroke:#000000;stroke-width:0.264583px;stroke-linecap:butt;stroke-linejoin:miter;stroke-opacity:1"
       d="M 6.4160658,240.77342 H 92.689652"
       id="path235" />
    <path
       style="fill:none;stroke:#000000;stroke-width:0.264583px;stroke-linecap:butt;stroke-linejoin:miter;stroke-opacity:1"
       d="m 14.350961,239.85011 v 2.01936"
       id="path237" />
    <path
       style="fill:none;stroke:#000000;stroke-width:0.264583px;stroke-linecap:butt;stroke-linejoin:miter;stroke-opacity:1"
       d="m 29.696804,239.85011 v 2.01936"
       id="path347" />
    <path
       style="fill:none;stroke:#000000;stroke-width:0.264583px;stroke-linecap:butt;stroke-linejoin:miter;stroke-opacity:1"
       d="m 47.159315,239.85011 v 2.01936"
       id="path349" />
    <path
       style="fill:none;stroke:#000000;stroke-width:0.264583px;stroke-linecap:butt;stroke-linejoin:miter;stroke-opacity:1"
       d="m 64.092659,239.85011 v 2.01936"
       id="path351" />
    <path
       style="fill:none;stroke:#000000;stroke-width:0.264583px;stroke-linecap:butt;stroke-linejoin:miter;stroke-opacity:1"
       d="m 81.55517,239.85011 v 2.01936"
       id="path353" />
    <path
       d="m 7.5340387,238.70745 c 1.4299751,-0.1196 3.6889603,-0.4421 6.2218623,-1.50395 1.586425,-0.66506 3.359761,-1.65074 5.192276,-3.15237 0.685231,-0.5615 1.379689,-1.19586 2.077485,-1.9142 1.723141,-1.77387 3.689232,-4.28669 5.658527,-7.95654 1.842962,-3.43443 3.488607,-7.50166 4.995707,-12.37446 1.253036,-4.05135 2.234134,-8.06719 3.190822,-12.2108 0.0029,-0.0128 0.0046,-0.0258 0.005,-0.0389 0.0833,-2.77408 0.592394,-5.10436 1.464195,-6.98985 0.830359,-1.79585 1.982045,-3.1705 3.375008,-4.13233 1.338193,-0.924 2.894567,-1.46305 4.575542,-1.62306 1.625075,-0.15469 3.358594,0.0464 5.085458,0.58999 1.677488,0.52799 3.343782,1.37857 4.865492,2.52368 1.486326,1.11848 2.834371,2.51769 3.90674,4.16095 1.050892,1.61036 1.837895,3.45727 2.220188,5.49636 0.37596,2.0053 0.361485,4.2027 -0.186616,6.54412 -0.004,0.017 -0.0057,0.0344 -0.0052,0.0518 0.11383,3.59662 0.373116,7.74944 1.026806,11.84809 0.643944,4.03753 1.675372,8.05548 3.347722,11.46519 0.831512,1.69535 1.822342,3.2422 3.004412,4.56731 1.18122,1.32416 2.552128,2.42542 4.142857,3.2319 1.592939,0.80759 3.400129,1.31642 5.448205,1.46153 2.048515,0.14514 4.332535,-0.074 6.877876,-0.71625 0.745756,-0.008 1.496603,-0.016 2.166724,-0.0232 0.932136,0.1282 1.700277,0.23385 2.125042,0.29227 l 0.22489,-0.17051 -0.170508,-0.22489 c -0.42698,-0.0587 -1.200925,-0.16517 -2.139635,-0.29428 -0.0097,-0.001 -0.01952,-0.002 -0.02932,-0.002 -0.673839,0.007 -1.430055,0.0153 -2.205201,0.0236 -0.01581,1.7e-4 -0.03154,0.002 -0.04686,0.006 -2.520831,0.63825 -4.769473,0.85296 -6.774778,0.71088 -1.997663,-0.14153 -3.752746,-0.63702 -5.295948,-1.4194 -1.54172,-0.78162 -2.873636,-1.85035 -4.025498,-3.14159 -1.153346,-1.29291 -2.125055,-2.80784 -2.943909,-4.47738 -1.648206,-3.36049 -2.671286,-7.3355 -3.311921,-11.35229 -0.64837,-4.0653 -0.907195,-8.18925 -1.021198,-11.77171 0.554781,-2.38548 0.569177,-4.63019 0.184308,-6.68301 -0.392635,-2.09425 -1.200767,-3.98986 -2.278222,-5.64092 -1.099246,-1.68445 -2.480372,-3.11745 -4.001007,-4.26175 -1.557921,-1.17236 -3.263905,-2.04356 -4.985648,-2.58548 -1.772188,-0.5578 -3.559365,-0.76687 -5.243107,-0.6066 -1.742861,0.1659 -3.36551,0.72597 -4.764491,1.69194 -1.456937,1.006 -2.652974,2.43864 -3.510509,4.29327 -0.897209,1.94044 -1.413924,4.31948 -1.500265,7.12563 -0.95471,4.13432 -1.932107,8.13263 -3.178807,12.16349 -1.501586,4.85498 -3.138156,8.89724 -4.966092,12.30367 -1.952315,3.63821 -3.896646,6.12074 -5.593128,7.86717 -0.687368,0.7076 -1.370713,1.33173 -2.044168,1.88358 -1.800347,1.47527 -3.539893,2.44164 -5.093615,3.093 -2.481512,1.0403 -4.6958752,1.35679 -6.1008181,1.47429 l -0.1822341,0.2155 z"
       id="path-1"
       inkscape:path-effect="#path-effect531;#path-effect533"
       inkscape:original-d="m 7.5174068,238.50858 c 8.1936292,0.39926 10.0105352,-2.23405 14.4225562,-8.57602 1.384577,-1.99023 2.564724,-4.14692 4.036779,-6.08548 1.442171,-1.89921 2.776063,-3.32497 3.668292,-5.55218 1.019165,-2.54407 1.375773,-5.23287 2.166068,-7.84354 1.07982,-3.56709 2.010603,-7.26129 2.865171,-10.90112 0.555276,-2.36507 2.222912,-8.67845 3.740228,-10.56594 2.162223,-2.68973 6.936825,-3.29108 10.159806,-2.97458 4.124789,0.40506 7.141083,3.39824 8.629544,7.00266 0.285883,0.69229 0.759291,1.29072 1.040432,1.9898 1.334858,3.31921 1.686425,7.65157 2.129771,11.16941 0.311951,2.47526 0.726118,4.96848 1.070476,7.41978 0.126532,0.90071 -0.0071,1.86515 0.13304,2.75804 0.113273,0.7219 0.379234,1.41364 0.455101,2.14596 0.16833,1.62484 0.625006,3.23058 0.787929,4.85293 0.415577,4.13823 0.605662,5.58826 2.717213,9.09344 0.246182,0.40867 0.503969,1.02881 0.834709,1.37335 4.598243,4.79004 11.600291,4.02128 17.624071,4.02128 1.343308,0 3.088949,-0.15307 4.344836,0.27072"
       style="fill:#000000;fill-rule:nonzero;stroke:none;stroke-width:8.86299;stroke-linejoin:bevel;paint-order:markers fill stroke" />
  </g>
</svg>
