<?xml version="1.0" encoding="utf-8"?><!DOCTYPE svg PUBLIC "-//W3C//DTD SVG 1.1//EN" "http://www.w3.org/Graphics/SVG/1.1/DTD/svg11.dtd"><svg xmlns="http://www.w3.org/2000/svg" xmlns:xlink="http://www.w3.org/1999/xlink" id="preview" width="600" height="600" viewBox="0 0 600 600" xunitlength="47" yunitlength="47" xmin="-5" xmax="5" ymin="-5" ymax="5" ox="275" oy="275"><defs><style type="text/css">@import url("http://cdnjs.cloudflare.com/ajax/libs/KaTeX/0.2.0/katex.min.css")</style></defs><path d="M 524.4 317.8 L 546 325 L 524.4 332.2 L 528 325 z" stroke-width="1" stroke="black" fill="black"></path><path d="M 267.8 75.6 L 275 54 L 282.2 75.6 L 275 72 z" stroke-width="1" stroke="black" fill="black"></path><path d="M22,325 528,325 M275,72 275,578 M275,326.75 275,323.25 M286.75,326.75 286.75,323.25 M298.5,326.75 298.5,323.25 M310.25,326.75 310.25,323.25 M322,326.75 322,323.25 M333.75,326.75 333.75,323.25 M345.5,326.75 345.5,323.25 M357.25,326.75 357.25,323.25 M369,326.75 369,323.25 M380.75,326.75 380.75,323.25 M392.5,326.75 392.5,323.25 M404.25,326.75 404.25,323.25 M416,326.75 416,323.25 M427.75,326.75 427.75,323.25 M439.5,326.75 439.5,323.25 M451.25,326.75 451.25,323.25 M463,326.75 463,323.25 M474.75,326.75 474.75,323.25 M486.5,326.75 486.5,323.25 M498.25,326.75 498.25,323.25 M510,326.75 510,323.25 M263.25,326.75 263.25,323.25 M251.5,326.75 251.5,323.25 M239.75,326.75 239.75,323.25 M228,326.75 228,323.25 M216.25,326.75 216.25,323.25 M204.5,326.75 204.5,323.25 M192.75,326.75 192.75,323.25 M181,326.75 181,323.25 M169.25,326.75 169.25,323.25 M157.5,326.75 157.5,323.25 M145.75,326.75 145.75,323.25 M134,326.75 134,323.25 M122.25,326.75 122.25,323.25 M110.5,326.75 110.5,323.25 M98.75,326.75 98.75,323.25 M87,326.75 87,323.25 M75.25,326.75 75.25,323.25 M63.5,326.75 63.5,323.25 M51.75,326.75 51.75,323.25 M40,326.75 40,323.25 M276.75,325 273.25,325 M276.75,372 273.25,372 M276.75,419 273.25,419 M276.75,466 273.25,466 M276.75,513 273.25,513 M276.75,560 273.25,560 M276.75,278 273.25,278 M276.75,231 273.25,231 M276.75,184 273.25,184 M276.75,137 273.25,137 M276.75,90 273.25,90" stroke-width="2" stroke="black" fill="none"></path><text id="null" x="286.75" y="334" font-style="" font-family="KaTeX_Main, serif" font-size="7" font-weight="normal" text-anchor="middle" fill="black" stroke-width="0px">0.25</text><text id="null" x="298.5" y="334" font-style="" font-family="KaTeX_Main, serif" font-size="7" font-weight="normal" text-anchor="middle" fill="black" stroke-width="0px">0.5</text><text id="null" x="310.25" y="334" font-style="" font-family="KaTeX_Main, serif" font-size="7" font-weight="normal" text-anchor="middle" fill="black" stroke-width="0px">0.75</text><text id="null" x="322" y="334" font-style="" font-family="KaTeX_Main, serif" font-size="7" font-weight="normal" text-anchor="middle" fill="black" stroke-width="0px">1</text><text id="null" x="333.75" y="334" font-style="" font-family="KaTeX_Main, serif" font-size="7" font-weight="normal" text-anchor="middle" fill="black" stroke-width="0px">1.25</text><text id="null" x="345.5" y="334" font-style="" font-family="KaTeX_Main, serif" font-size="7" font-weight="normal" text-anchor="middle" fill="black" stroke-width="0px">1.5</text><text id="null" x="357.25" y="334" font-style="" font-family="KaTeX_Main, serif" font-size="7" font-weight="normal" text-anchor="middle" fill="black" stroke-width="0px">1.75</text><text id="null" x="369" y="334" font-style="" font-family="KaTeX_Main, serif" font-size="7" font-weight="normal" text-anchor="middle" fill="black" stroke-width="0px">2</text><text id="null" x="380.75" y="334" font-style="" font-family="KaTeX_Main, serif" font-size="7" font-weight="normal" text-anchor="middle" fill="black" stroke-width="0px">2.25</text><text id="null" x="392.5" y="334" font-style="" font-family="KaTeX_Main, serif" font-size="7" font-weight="normal" text-anchor="middle" fill="black" stroke-width="0px">2.5</text><text id="null" x="404.25" y="334" font-style="" font-family="KaTeX_Main, serif" font-size="7" font-weight="normal" text-anchor="middle" fill="black" stroke-width="0px">2.75</text><text id="null" x="416" y="334" font-style="" font-family="KaTeX_Main, serif" font-size="7" font-weight="normal" text-anchor="middle" fill="black" stroke-width="0px">3</text><text id="null" x="427.75" y="334" font-style="" font-family="KaTeX_Main, serif" font-size="7" font-weight="normal" text-anchor="middle" fill="black" stroke-width="0px">3.25</text><text id="null" x="439.5" y="334" font-style="" font-family="KaTeX_Main, serif" font-size="7" font-weight="normal" text-anchor="middle" fill="black" stroke-width="0px">3.5</text><text id="null" x="451.25" y="334" font-style="" font-family="KaTeX_Main, serif" font-size="7" font-weight="normal" text-anchor="middle" fill="black" stroke-width="0px">3.75</text><text id="null" x="463" y="334" font-style="" font-family="KaTeX_Main, serif" font-size="7" font-weight="normal" text-anchor="middle" fill="black" stroke-width="0px">4</text><text id="null" x="474.75" y="334" font-style="" font-family="KaTeX_Main, serif" font-size="7" font-weight="normal" text-anchor="middle" fill="black" stroke-width="0px">4.25</text><text id="null" x="486.5" y="334" font-style="" font-family="KaTeX_Main, serif" font-size="7" font-weight="normal" text-anchor="middle" fill="black" stroke-width="0px">4.5</text><text id="null" x="498.25" y="334" font-style="" font-family="KaTeX_Main, serif" font-size="7" font-weight="normal" text-anchor="middle" fill="black" stroke-width="0px">4.75</text><text id="null" x="510" y="334" font-style="" font-family="KaTeX_Main, serif" font-size="7" font-weight="normal" text-anchor="middle" fill="black" stroke-width="0px">5</text><text id="null" x="263.25" y="334" font-style="" font-family="KaTeX_Main, serif" font-size="7" font-weight="normal" text-anchor="middle" fill="black" stroke-width="0px">-0.25</text><text id="null" x="251.5" y="334" font-style="" font-family="KaTeX_Main, serif" font-size="7" font-weight="normal" text-anchor="middle" fill="black" stroke-width="0px">-0.5</text><text id="null" x="239.75" y="334" font-style="" font-family="KaTeX_Main, serif" font-size="7" font-weight="normal" text-anchor="middle" fill="black" stroke-width="0px">-0.75</text><text id="null" x="228" y="334" font-style="" font-family="KaTeX_Main, serif" font-size="7" font-weight="normal" text-anchor="middle" fill="black" stroke-width="0px">-1</text><text id="null" x="216.25" y="334" font-style="" font-family="KaTeX_Main, serif" font-size="7" font-weight="normal" text-anchor="middle" fill="black" stroke-width="0px">-1.25</text><text id="null" x="204.5" y="334" font-style="" font-family="KaTeX_Main, serif" font-size="7" font-weight="normal" text-anchor="middle" fill="black" stroke-width="0px">-1.5</text><text id="null" x="192.75" y="334" font-style="" font-family="KaTeX_Main, serif" font-size="7" font-weight="normal" text-anchor="middle" fill="black" stroke-width="0px">-1.75</text><text id="null" x="181" y="334" font-style="" font-family="KaTeX_Main, serif" font-size="7" font-weight="normal" text-anchor="middle" fill="black" stroke-width="0px">-2</text><text id="null" x="169.25" y="334" font-style="" font-family="KaTeX_Main, serif" font-size="7" font-weight="normal" text-anchor="middle" fill="black" stroke-width="0px">-2.25</text><text id="null" x="157.5" y="334" font-style="" font-family="KaTeX_Main, serif" font-size="7" font-weight="normal" text-anchor="middle" fill="black" stroke-width="0px">-2.5</text><text id="null" x="145.75" y="334" font-style="" font-family="KaTeX_Main, serif" font-size="7" font-weight="normal" text-anchor="middle" fill="black" stroke-width="0px">-2.75</text><text id="null" x="134" y="334" font-style="" font-family="KaTeX_Main, serif" font-size="7" font-weight="normal" text-anchor="middle" fill="black" stroke-width="0px">-3</text><text id="null" x="122.25" y="334" font-style="" font-family="KaTeX_Main, serif" font-size="7" font-weight="normal" text-anchor="middle" fill="black" stroke-width="0px">-3.25</text><text id="null" x="110.5" y="334" font-style="" font-family="KaTeX_Main, serif" font-size="7" font-weight="normal" text-anchor="middle" fill="black" stroke-width="0px">-3.5</text><text id="null" x="98.75" y="334" font-style="" font-family="KaTeX_Main, serif" font-size="7" font-weight="normal" text-anchor="middle" fill="black" stroke-width="0px">-3.75</text><text id="null" x="87" y="334" font-style="" font-family="KaTeX_Main, serif" font-size="7" font-weight="normal" text-anchor="middle" fill="black" stroke-width="0px">-4</text><text id="null" x="75.25" y="334" font-style="" font-family="KaTeX_Main, serif" font-size="7" font-weight="normal" text-anchor="middle" fill="black" stroke-width="0px">-4.25</text><text id="null" x="63.5" y="334" font-style="" font-family="KaTeX_Main, serif" font-size="7" font-weight="normal" text-anchor="middle" fill="black" stroke-width="0px">-4.5</text><text id="null" x="51.75" y="334" font-style="" font-family="KaTeX_Main, serif" font-size="7" font-weight="normal" text-anchor="middle" fill="black" stroke-width="0px">-4.75</text><text id="null" x="40" y="334" font-style="" font-family="KaTeX_Main, serif" font-size="7" font-weight="normal" text-anchor="middle" fill="black" stroke-width="0px">-5</text><text id="null" x="270.666" y="280.333" font-style="" font-family="KaTeX_Main, serif" font-size="7" font-weight="normal" text-anchor="end" fill="black" stroke-width="0px">1</text><text id="null" x="270.666" y="233.333" font-style="" font-family="KaTeX_Main, serif" font-size="7" font-weight="normal" text-anchor="end" fill="black" stroke-width="0px">2</text><text id="null" x="270.666" y="186.333" font-style="" font-family="KaTeX_Main, serif" font-size="7" font-weight="normal" text-anchor="end" fill="black" stroke-width="0px">3</text><text id="null" x="270.666" y="139.333" font-style="" font-family="KaTeX_Main, serif" font-size="7" font-weight="normal" text-anchor="end" fill="black" stroke-width="0px">4</text><text id="null" x="270.666" y="92.333" font-style="" font-family="KaTeX_Main, serif" font-size="7" font-weight="normal" text-anchor="end" fill="black" stroke-width="0px">5</text><text id="null" x="270.666" y="374.333" font-style="" font-family="KaTeX_Main, serif" font-size="7" font-weight="normal" text-anchor="end" fill="black" stroke-width="0px">-1</text><text id="null" x="270.666" y="421.333" font-style="" font-family="KaTeX_Main, serif" font-size="7" font-weight="normal" text-anchor="end" fill="black" stroke-width="0px">-2</text><text id="null" x="270.666" y="468.333" font-style="" font-family="KaTeX_Main, serif" font-size="7" font-weight="normal" text-anchor="end" fill="black" stroke-width="0px">-3</text><text id="null" x="270.666" y="515.333" font-style="" font-family="KaTeX_Main, serif" font-size="7" font-weight="normal" text-anchor="end" fill="black" stroke-width="0px">-4</text><text id="null" x="270.666" y="562.333" font-style="" font-family="KaTeX_Main, serif" font-size="7" font-weight="normal" text-anchor="end" fill="black" stroke-width="0px">-5</text><text id="null" x="275" y="49.666" font-style="italic" font-family="KaTeX_Main, serif" font-size="7" font-weight="normal" text-anchor="middle" fill="black" stroke-width="0px">y</text><text id="null" x="550.333" y="327.333" font-style="italic" font-family="KaTeX_Main, serif" font-size="7" font-weight="normal" text-anchor="start" fill="black" stroke-width="0px">x</text><path id="null" d="M264.033,365.533 264.816,367.263 265.599,368.409 266.383,369.251 267.166,369.900 267.949,370.412 268.733,370.820 269.516,371.145 270.299,371.402 271.083,371.604 271.866,371.757 272.649,371.869 273.433,371.943 274.216,371.986 274.999,371.999 275.783,371.987 276.566,371.951 277.349,371.892 278.133,371.815 278.916,371.718 279.699,371.605 280.483,371.476 281.266,371.332 282.049,371.175 282.833,371.005 283.616,370.822 284.399,370.628 285.183,370.423 285.966,370.208 286.749,369.984 287.533,369.750 288.316,369.507 289.099,369.256 289.883,368.997 290.666,368.730 291.449,368.456 292.233,368.174 293.016,367.887 293.799,367.592 294.583,367.292 295.366,366.985 296.149,366.673 296.933,366.355 297.716,366.031 298.499,365.703 299.283,365.369 300.066,365.031 300.849,364.688 301.633,364.340 302.416,363.988 303.199,363.631 303.983,363.271 304.766,362.906 305.549,362.538 306.333,362.165 307.116,361.789 307.899,361.410 308.683,361.026 309.466,360.640 310.249,360.250 311.033,359.856 311.816,359.460 312.599,359.060 313.383,358.658 314.166,358.252 314.949,357.844 315.733,357.432 316.516,357.018 317.299,356.602 318.083,356.182 318.866,355.760 319.649,355.336 320.433,354.909 321.216,354.479 321.999,354.047 322.783,353.613 323.566,353.177 324.349,352.738 325.133,352.297 325.916,351.854 326.699,351.409 327.483,350.961 328.266,350.512 329.049,350.061 329.833,349.608 330.616,349.152 331.399,348.695 332.183,348.236 332.966,347.775 333.749,347.313 334.533,346.848 335.316,346.382 336.099,345.914 336.883,345.445 337.666,344.973 338.449,344.501 339.233,344.026 340.016,343.550 340.799,343.072 341.583,342.593 342.366,342.112 343.149,341.630 343.933,341.147 344.716,340.661 345.499,340.175 346.283,339.687 347.066,339.198 347.849,338.707 348.633,338.215 349.416,337.721 350.199,337.227 350.983,336.731 351.766,336.233 352.549,335.735 353.333,335.235 354.116,334.734 354.899,334.232 355.683,333.728 356.466,333.224 357.249,332.718 358.033,332.211 358.816,331.703 359.599,331.193 360.382,330.683 361.166,330.172 361.949,329.659 362.732,329.146 363.516,328.631 364.299,328.115 365.082,327.599 365.866,327.081 366.649,326.562 367.432,326.042 368.216,325.521 368.999,325.000 369.782,324.477 370.566,323.953 371.349,323.429 372.132,322.903 372.916,322.377 373.699,321.849 374.482,321.321 375.266,320.792 376.049,320.262 376.832,319.731 377.616,319.199 378.399,318.666 379.182,318.133 379.966,317.598 380.749,317.063 381.532,316.527 382.316,315.990 383.099,315.453 383.882,314.914 384.666,314.375 385.449,313.835 386.232,313.294 387.016,312.753 387.799,312.210 388.582,311.667 389.366,311.123 390.149,310.579 390.932,310.033 391.716,309.487 392.499,308.940 393.282,308.393 394.066,307.845 394.849,307.296 395.632,306.746 396.416,306.196 397.199,305.645 397.982,305.093 398.766,304.541 399.549,303.988 400.332,303.434 401.116,302.880 401.899,302.325 402.682,301.769 403.466,301.213 404.249,300.656 405.032,300.099 405.816,299.541 406.599,298.982 407.382,298.422 408.166,297.862 408.949,297.302 409.732,296.741 410.516,296.179 411.299,295.617 412.082,295.054 412.866,294.490 413.649,293.926 414.432,293.361 415.216,292.796 415.999,292.230 416.782,291.664 417.566,291.097 418.349,290.530 419.132,289.962 419.916,289.393 420.699,288.824 421.482,288.254 422.266,287.684 423.049,287.114 423.832,286.542 424.616,285.971 425.399,285.398 426.182,284.826 426.966,284.252 427.749,283.679 428.532,283.105 429.316,282.530 430.099,281.955 430.882,281.379 431.666,280.803 432.449,280.226 433.232,279.649 434.016,279.071 434.799,278.493 435.582,277.915 436.366,277.336 437.149,276.756 437.932,276.176 438.716,275.596 439.499,275.015 440.282,274.434 441.066,273.852 441.849,273.270 442.632,272.687 443.416,272.104 444.199,271.520 444.982,270.937 445.766,270.352 446.549,269.767 447.332,269.182 448.116,268.597 448.899,268.010 449.682,267.424 450.466,266.837 451.249,266.250 452.032,265.662 452.816,265.074 453.599,264.485 454.382,263.897 455.166,263.307 455.949,262.718 456.732,262.127 457.516,261.537 458.299,260.946 459.082,260.355 459.866,259.763 460.649,259.171 461.432,258.579 462.216,257.986 462.999,257.393 463.782,256.799 464.566,256.205 465.349,255.611 466.132,255.016 466.916,254.421 467.699,253.826 468.482,253.230 469.266,252.634 470.049,252.038 470.832,251.441 471.616,250.844 472.399,250.246 473.182,249.649 473.966,249.050 474.749,248.452 475.532,247.853 476.316,247.254 477.099,246.654 477.882,246.054 478.666,245.454 479.449,244.854 480.232,244.253 481.016,243.652 481.799,243.050 482.582,242.448 483.366,241.846 484.149,241.243 484.932,240.641 485.716,240.037 486.499,239.434 487.282,238.830 488.066,238.226 488.849,237.622 489.632,237.017 490.416,236.412 491.199,235.807 491.982,235.201 492.766,234.595 493.549,233.989 494.332,233.382 495.116,232.775 495.899,232.168 496.682,231.561 497.466,230.953 498.249,230.345 499.032,229.737 499.816,229.128 500.599,228.519 501.382,227.910 502.166,227.301 502.949,226.691 503.732,226.081 504.516,225.470 505.299,224.860 506.082,224.249 506.866,223.638 507.649,223.026 508.432,222.415 509.216,221.803 509.999,221.190 " stroke-width="5" stroke="blue" fill="none"></path><path d="M 502.729 217.735 L 524.181 210.106 L 511.597 229.080 L 509.999 221.190 z" stroke-width="1" stroke="blue" fill="blue"></path></svg>