<?xml version="1.0" encoding="UTF-8" standalone="no"?>
<!-- Created with Inkscape (http://www.inkscape.org/) -->

<svg
   width="4in"
   height="3in"
   viewBox="0 0 101.6 76.2"
   version="1.1"
   id="svg8"
   inkscape:version="1.3.2 (091e20ef0f, 2023-11-25, custom)"
   sodipodi:docname="fig123.svg"
   xml:space="preserve"
   xmlns:inkscape="http://www.inkscape.org/namespaces/inkscape"
   xmlns:sodipodi="http://sodipodi.sourceforge.net/DTD/sodipodi-0.dtd"
   xmlns="http://www.w3.org/2000/svg"
   xmlns:svg="http://www.w3.org/2000/svg"
   xmlns:rdf="http://www.w3.org/1999/02/22-rdf-syntax-ns#"
   xmlns:cc="http://creativecommons.org/ns#"
   xmlns:dc="http://purl.org/dc/elements/1.1/"><defs
     id="defs2"><style
       type="text/css"
       id="style1">@import url(&quot;http://cdnjs.cloudflare.com/ajax/libs/KaTeX/0.2.0/katex.min.css&quot;)</style><style
       type="text/css"
       id="style1-3">@import url(&quot;http://cdnjs.cloudflare.com/ajax/libs/KaTeX/0.2.0/katex.min.css&quot;)</style></defs><sodipodi:namedview
     id="base"
     pagecolor="#ffffff"
     bordercolor="#666666"
     borderopacity="1.0"
     inkscape:pageopacity="0.0"
     inkscape:pageshadow="2"
     inkscape:zoom="1.2345948"
     inkscape:cx="-12.149735"
     inkscape:cy="-10.934762"
     inkscape:document-units="mm"
     inkscape:current-layer="layer1"
     showgrid="false"
     showborder="true"
     width="200mm"
     showguides="true"
     inkscape:guide-bbox="true"
     inkscape:window-width="1920"
     inkscape:window-height="1080"
     inkscape:window-x="0"
     inkscape:window-y="0"
     inkscape:window-maximized="1"
     inkscape:showpageshadow="2"
     inkscape:pagecheckerboard="0"
     inkscape:deskcolor="#d1d1d1"><inkscape:grid
       type="xygrid"
       id="grid815"
       units="mm"
       spacingx="10"
       spacingy="10"
       empspacing="4"
       dotted="false"
       originx="0"
       originy="0"
       visible="false" /></sodipodi:namedview><metadata
     id="metadata5"><rdf:RDF><cc:Work
         rdf:about=""><dc:format>image/svg+xml</dc:format><dc:type
           rdf:resource="http://purl.org/dc/dcmitype/StillImage" /></cc:Work></rdf:RDF></metadata><g
     inkscape:label="Layer 1"
     inkscape:groupmode="layer"
     id="layer1"
     transform="translate(0,-177)"><g
       id="g1"
       transform="matrix(0.18264813,0,0,0.1376061,-3.4736635,173.0416)"><path
         d="M 526.4,317.8 548,325 526.4,332.2 530,325 Z"
         stroke-width="1"
         stroke="#000000"
         fill="#000000"
         id="path1" /><path
         d="M 209.8,75.6 217,54 224.2,75.6 217,72 Z"
         stroke-width="1"
         stroke="#000000"
         fill="#000000"
         id="path2" /><path
         d="M 22,325 H 530 M 217,72 v 506 m 0,-245.75 v -14.5 m 59,14.5 v -14.5 m 59,14.5 v -14.5 m 59,14.5 v -14.5 m 59,14.5 v -14.5 m 59,14.5 v -14.5 m -354,14.5 v -14.5 m -59,14.5 v -14.5 m -59,14.5 v -14.5 M 224.25,325 h -14.5 m 14.5,47 h -14.5 m 14.5,47 h -14.5 m 14.5,47 h -14.5 m 14.5,47 h -14.5 m 14.5,47 h -14.5 m 14.5,-282 h -14.5 m 14.5,-47 h -14.5 m 14.5,-47 h -14.5 m 14.5,-47 h -14.5 m 14.5,-47 h -14.5"
         stroke-width="2"
         stroke="#000000"
         fill="none"
         id="path3" /><text
         id="null"
         x="276"
         y="356"
         font-style=""
         font-family="KaTeX_Main, serif"
         font-size="29px"
         font-weight="normal"
         text-anchor="middle"
         fill="#000000"
         stroke-width="0px">1</text><text
         id="text3"
         x="335"
         y="356"
         font-style=""
         font-family="KaTeX_Main, serif"
         font-size="29px"
         font-weight="normal"
         text-anchor="middle"
         fill="#000000"
         stroke-width="0px">2</text><text
         id="text4"
         x="394"
         y="356"
         font-style=""
         font-family="KaTeX_Main, serif"
         font-size="29px"
         font-weight="normal"
         text-anchor="middle"
         fill="#000000"
         stroke-width="0px">3</text><text
         id="text5"
         x="453"
         y="356"
         font-style=""
         font-family="KaTeX_Main, serif"
         font-size="29px"
         font-weight="normal"
         text-anchor="middle"
         fill="#000000"
         stroke-width="0px">4</text><text
         id="text6"
         x="512"
         y="356"
         font-style=""
         font-family="KaTeX_Main, serif"
         font-size="29px"
         font-weight="normal"
         text-anchor="middle"
         fill="#000000"
         stroke-width="0px">5</text><text
         id="text7"
         x="158"
         y="356"
         font-style=""
         font-family="KaTeX_Main, serif"
         font-size="29px"
         font-weight="normal"
         text-anchor="middle"
         fill="#000000"
         stroke-width="0px">-1</text><text
         id="text8"
         x="99"
         y="356"
         font-style=""
         font-family="KaTeX_Main, serif"
         font-size="29px"
         font-weight="normal"
         text-anchor="middle"
         fill="#000000"
         stroke-width="0px">-2</text><text
         id="text9"
         x="40"
         y="356"
         font-style=""
         font-family="KaTeX_Main, serif"
         font-size="29px"
         font-weight="normal"
         text-anchor="middle"
         fill="#000000"
         stroke-width="0px">-3</text><text
         id="text10"
         x="205.33299"
         y="287.66599"
         font-style=""
         font-family="KaTeX_Main, serif"
         font-size="29px"
         font-weight="normal"
         text-anchor="end"
         fill="#000000"
         stroke-width="0px">1</text><text
         id="text11"
         x="205.33299"
         y="240.666"
         font-style=""
         font-family="KaTeX_Main, serif"
         font-size="29px"
         font-weight="normal"
         text-anchor="end"
         fill="#000000"
         stroke-width="0px">2</text><text
         id="text12"
         x="205.33299"
         y="193.666"
         font-style=""
         font-family="KaTeX_Main, serif"
         font-size="29px"
         font-weight="normal"
         text-anchor="end"
         fill="#000000"
         stroke-width="0px">3</text><text
         id="text13"
         x="205.33299"
         y="146.666"
         font-style=""
         font-family="KaTeX_Main, serif"
         font-size="29px"
         font-weight="normal"
         text-anchor="end"
         fill="#000000"
         stroke-width="0px">4</text><text
         id="text14"
         x="205.33299"
         y="99.666"
         font-style=""
         font-family="KaTeX_Main, serif"
         font-size="29px"
         font-weight="normal"
         text-anchor="end"
         fill="#000000"
         stroke-width="0px">5</text><text
         id="text15"
         x="205.33299"
         y="381.66599"
         font-style=""
         font-family="KaTeX_Main, serif"
         font-size="29px"
         font-weight="normal"
         text-anchor="end"
         fill="#000000"
         stroke-width="0px">-1</text><text
         id="text16"
         x="205.33299"
         y="428.66599"
         font-style=""
         font-family="KaTeX_Main, serif"
         font-size="29px"
         font-weight="normal"
         text-anchor="end"
         fill="#000000"
         stroke-width="0px">-2</text><text
         id="text17"
         x="205.33299"
         y="475.66599"
         font-style=""
         font-family="KaTeX_Main, serif"
         font-size="29px"
         font-weight="normal"
         text-anchor="end"
         fill="#000000"
         stroke-width="0px">-3</text><text
         id="text18"
         x="205.33299"
         y="522.66602"
         font-style=""
         font-family="KaTeX_Main, serif"
         font-size="29px"
         font-weight="normal"
         text-anchor="end"
         fill="#000000"
         stroke-width="0px">-4</text><text
         id="text19"
         x="205.33299"
         y="569.66602"
         font-style=""
         font-family="KaTeX_Main, serif"
         font-size="29px"
         font-weight="normal"
         text-anchor="end"
         fill="#000000"
         stroke-width="0px">-5</text><text
         id="text20"
         x="217"
         y="42.333"
         font-style="italic"
         font-family="KaTeX_Main, serif"
         font-size="29px"
         font-weight="normal"
         text-anchor="middle"
         fill="#000000"
         stroke-width="0px">y</text><text
         id="text21"
         x="559.66602"
         y="334.66599"
         font-style="italic"
         font-family="KaTeX_Main, serif"
         font-size="29px"
         font-weight="normal"
         text-anchor="start"
         fill="#000000"
         stroke-width="0px">x</text><path
         id="path21"
         d="m 202.446,362.806 0.393,1.673 0.394,1.055 0.393,0.798 0.393,0.648 0.394,0.546 0.393,0.471 0.393,0.412 0.394,0.365 0.393,0.327 0.393,0.293 0.394,0.266 0.393,0.241 0.393,0.218 0.394,0.2 0.393,0.182 0.393,0.167 0.394,0.152 0.393,0.139 0.393,0.127 0.394,0.115 0.393,0.106 0.393,0.095 0.394,0.087 0.393,0.079 0.393,0.07 0.394,0.063 0.393,0.056 0.393,0.049 0.394,0.043 0.393,0.037 0.393,0.032 0.394,0.025 0.393,0.021 0.393,0.016 0.394,0.011 0.393,0.006 0.393,0.002 0.394,-0.002 0.393,-0.006 0.393,-0.01 0.394,-0.013 0.393,-0.018 0.393,-0.02 0.394,-0.024 0.393,-0.028 0.393,-0.03 0.394,-0.033 0.393,-0.037 0.393,-0.039 0.394,-0.042 0.393,-0.045 0.393,-0.047 0.394,-0.05 0.393,-0.052 0.393,-0.054 0.394,-0.057 0.393,-0.06 0.393,-0.061 0.394,-0.064 0.393,-0.065 0.393,-0.068 0.394,-0.069 0.393,-0.072 0.393,-0.074 0.394,-0.075 0.393,-0.077 0.393,-0.079 0.394,-0.081 0.393,-0.082 0.393,-0.084 0.394,-0.086 0.393,-0.087 0.393,-0.088 0.394,-0.091 0.393,-0.092 0.393,-0.093 0.394,-0.094 0.393,-0.096 0.393,-0.098 0.394,-0.099 0.393,-0.1 0.393,-0.101 0.394,-0.103 0.393,-0.104 0.393,-0.105 0.394,-0.107 0.393,-0.107 0.393,-0.109 0.394,-0.11 0.393,-0.111 0.393,-0.112 0.394,-0.114 0.393,-0.114 0.393,-0.115 0.394,-0.117 0.393,-0.117 0.393,-0.119 0.394,-0.119 0.393,-0.121 0.393,-0.121 0.394,-0.123 0.393,-0.123 0.393,-0.124 0.394,-0.126 0.393,-0.126 0.393,-0.127 0.394,-0.127 0.393,-0.129 0.393,-0.13 0.394,-0.13 0.393,-0.131 0.393,-0.132 0.394,-0.133 0.393,-0.134 0.393,-0.134 0.394,-0.135 0.393,-0.136 0.393,-0.137 0.394,-0.137 0.393,-0.139 0.393,-0.138 0.394,-0.14 0.393,-0.14 0.393,-0.141 0.394,-0.142 0.393,-0.143 0.393,-0.143 0.394,-0.143 0.393,-0.145 0.393,-0.145 0.394,-0.145 0.393,-0.147 0.393,-0.147 0.394,-0.147 0.393,-0.148 0.393,-0.149 0.394,-0.15 0.393,-0.15 0.393,-0.15 0.394,-0.151 0.393,-0.152 0.393,-0.153 0.394,-0.152 0.393,-0.154 0.393,-0.154 0.394,-0.154 0.393,-0.155 0.393,-0.156 0.394,-0.156 0.393,-0.157 0.393,-0.157 0.394,-0.158 0.393,-0.158 0.393,-0.159 0.394,-0.159 0.393,-0.16 0.393,-0.16 0.394,-0.16 0.393,-0.162 0.393,-0.161 0.394,-0.162 0.393,-0.163 0.393,-0.163 0.394,-0.163 0.393,-0.164 0.393,-0.165 0.394,-0.165 0.393,-0.165 0.393,-0.166 0.394,-0.166 0.393,-0.167 0.393,-0.167 0.394,-0.167 0.393,-0.168 0.393,-0.168 0.394,-0.169 0.393,-0.169 0.393,-0.169 0.394,-0.17 0.393,-0.171 0.393,-0.17 0.394,-0.172 0.393,-0.171 0.393,-0.172 0.394,-0.172 0.393,-0.173 0.393,-0.173 0.394,-0.173 0.393,-0.174 0.393,-0.174 0.394,-0.175 0.393,-0.174 0.393,-0.176 0.394,-0.175 0.393,-0.176 0.393,-0.176 0.394,-0.177 0.393,-0.177 0.393,-0.177 0.394,-0.178 0.393,-0.178 0.393,-0.178 0.394,-0.179 0.393,-0.179 0.393,-0.179 0.394,-0.18 0.393,-0.18 0.393,-0.18 0.394,-0.181 0.393,-0.181 0.393,-0.181 0.394,-0.182 0.393,-0.181 0.393,-0.183 0.394,-0.182 0.393,-0.183 0.393,-0.183 0.394,-0.183 0.393,-0.184 0.393,-0.184 0.394,-0.184 0.393,-0.185 0.393,-0.185 0.394,-0.185 0.393,-0.185 0.393,-0.186 0.394,-0.186 0.393,-0.186 0.393,-0.187 0.394,-0.186 0.393,-0.188 0.393,-0.187 0.394,-0.188 0.393,-0.187 0.393,-0.189 0.394,-0.188 0.393,-0.189 0.393,-0.189 0.394,-0.189 0.393,-0.189 0.393,-0.19 0.394,-0.19 0.393,-0.19 0.393,-0.191 0.394,-0.191 0.393,-0.191 0.393,-0.191 0.394,-0.191 0.393,-0.192 0.393,-0.192 0.394,-0.192 0.393,-0.193 0.393,-0.192 0.394,-0.193 0.393,-0.194 0.393,-0.193 0.394,-0.194 0.393,-0.193 0.393,-0.195 0.394,-0.194 0.393,-0.194 0.393,-0.195 0.394,-0.195 0.393,-0.195 0.393,-0.196 0.394,-0.196 0.393,-0.196 0.393,-0.196 0.394,-0.196 0.393,-0.197 0.393,-0.196 0.394,-0.197 0.393,-0.198 0.393,-0.197 0.394,-0.198 0.393,-0.197 0.393,-0.198 0.394,-0.199 0.393,-0.198 0.393,-0.199 0.394,-0.199 0.393,-0.199 0.393,-0.199 0.394,-0.2 0.393,-0.199 0.393,-0.2 0.394,-0.2 0.393,-0.2 0.393,-0.201 0.394,-0.201 0.393,-0.2 0.393,-0.201 0.394,-0.202 0.393,-0.201 0.393,-0.202 0.394,-0.202 0.393,-0.202 0.393,-0.202 0.394,-0.202 0.393,-0.203 0.393,-0.202 0.394,-0.203 0.393,-0.203 0.393,-0.204 0.394,-0.203 0.393,-0.204 0.393,-0.204 0.394,-0.204 0.393,-0.204 0.393,-0.204 0.394,-0.205 0.393,-0.204 0.393,-0.205 0.394,-0.205 0.393,-0.206 0.393,-0.205 0.394,-0.206 0.393,-0.205 0.393,-0.206 0.394,-0.206 0.393,-0.206 0.393,-0.207 0.394,-0.206 0.393,-0.207 0.393,-0.207 0.394,-0.207 0.393,-0.207 0.393,-0.208 0.394,-0.207 0.393,-0.208 0.393,-0.208 0.394,-0.208 0.393,-0.208 0.393,-0.208 0.394,-0.209 0.393,-0.209 0.393,-0.208"
         stroke-width="5"
         stroke="#0000ff"
         fill="none" /><path
         d="m 328.443,320.328 22.455,-3.769 -15.702,16.488 -0.197,-8.047 z"
         stroke-width="1"
         stroke="#0000ff"
         fill="#0000ff"
         id="path22" /><path
         id="path23"
         d="m 202.446,362.806 0.393,1.673 0.394,1.055 0.393,0.798 0.393,0.648 0.394,0.546 0.393,0.471 0.393,0.412 0.394,0.365 0.393,0.327 0.393,0.293 0.394,0.266 0.393,0.241 0.393,0.218 0.394,0.2 0.393,0.182 0.393,0.167 0.394,0.152 0.393,0.139 0.393,0.127 0.394,0.115 0.393,0.106 0.393,0.095 0.394,0.087 0.393,0.079 0.393,0.07 0.394,0.063 0.393,0.056 0.393,0.049 0.394,0.043 0.393,0.037 0.393,0.032 0.394,0.025 0.393,0.021 0.393,0.016 0.394,0.011 0.393,0.006 0.393,0.002 0.394,-0.002 0.393,-0.006 0.393,-0.01 0.394,-0.013 0.393,-0.018 0.393,-0.02 0.394,-0.024 0.393,-0.028 0.393,-0.03 0.394,-0.033 0.393,-0.037 0.393,-0.039 0.394,-0.042 0.393,-0.045 0.393,-0.047 0.394,-0.05 0.393,-0.052 0.393,-0.054 0.394,-0.057 0.393,-0.06 0.393,-0.061 0.394,-0.064 0.393,-0.065 0.393,-0.068 0.394,-0.069 0.393,-0.072 0.393,-0.074 0.394,-0.075 0.393,-0.077 0.393,-0.079 0.394,-0.081 0.393,-0.082 0.393,-0.084 0.394,-0.086 0.393,-0.087 0.393,-0.088 0.394,-0.091 0.393,-0.092 0.393,-0.093 0.394,-0.094 0.393,-0.096 0.393,-0.098 0.394,-0.099 0.393,-0.1 0.393,-0.101 0.394,-0.103 0.393,-0.104 0.393,-0.105 0.394,-0.107 0.393,-0.107 0.393,-0.109 0.394,-0.11 0.393,-0.111 0.393,-0.112 0.394,-0.114 0.393,-0.114 0.393,-0.115 0.394,-0.117 0.393,-0.117 0.393,-0.119 0.394,-0.119 0.393,-0.121 0.393,-0.121 0.394,-0.123 0.393,-0.123 0.393,-0.124 0.394,-0.126 0.393,-0.126 0.393,-0.127 0.394,-0.127 0.393,-0.129 0.393,-0.13 0.394,-0.13 0.393,-0.131 0.393,-0.132 0.394,-0.133 0.393,-0.134 0.393,-0.134 0.394,-0.135 0.393,-0.136 0.393,-0.137 0.394,-0.137 0.393,-0.139 0.393,-0.138 0.394,-0.14 0.393,-0.14 0.393,-0.141 0.394,-0.142 0.393,-0.143 0.393,-0.143 0.394,-0.143 0.393,-0.145 0.393,-0.145 0.394,-0.145 0.393,-0.147 0.393,-0.147 0.394,-0.147 0.393,-0.148 0.393,-0.149 0.394,-0.15 0.393,-0.15 0.393,-0.15 0.394,-0.151 0.393,-0.152 0.393,-0.153 0.394,-0.152 0.393,-0.154 0.393,-0.154 0.394,-0.154 0.393,-0.155 0.393,-0.156 0.394,-0.156 0.393,-0.157 0.393,-0.157 0.394,-0.158 0.393,-0.158 0.393,-0.159 0.394,-0.159 0.393,-0.16 0.393,-0.16 0.394,-0.16 0.393,-0.162 0.393,-0.161 0.394,-0.162 0.393,-0.163 0.393,-0.163 0.394,-0.163 0.393,-0.164 0.393,-0.165 0.394,-0.165 0.393,-0.165 0.393,-0.166 0.394,-0.166 0.393,-0.167 0.393,-0.167 0.394,-0.167 0.393,-0.168 0.393,-0.168 0.394,-0.169 0.393,-0.169 0.393,-0.169 0.394,-0.17 0.393,-0.171 0.393,-0.17 0.394,-0.172 0.393,-0.171 0.393,-0.172 0.394,-0.172 0.393,-0.173 0.393,-0.173 0.394,-0.173 0.393,-0.174 0.393,-0.174 0.394,-0.175 0.393,-0.174 0.393,-0.176 0.394,-0.175 0.393,-0.176 0.393,-0.176 0.394,-0.177 0.393,-0.177 0.393,-0.177 0.394,-0.178 0.393,-0.178 0.393,-0.178 0.394,-0.179 0.393,-0.179 0.393,-0.179 0.394,-0.18 0.393,-0.18 0.393,-0.18 0.394,-0.181 0.393,-0.181 0.393,-0.181 0.394,-0.182 0.393,-0.181 0.393,-0.183 0.394,-0.182 0.393,-0.183 0.393,-0.183 0.394,-0.183 0.393,-0.184 0.393,-0.184 0.394,-0.184 0.393,-0.185 0.393,-0.185 0.394,-0.185 0.393,-0.185 0.393,-0.186 0.394,-0.186 0.393,-0.186 0.393,-0.187 0.394,-0.186 0.393,-0.188 0.393,-0.187 0.394,-0.188 0.393,-0.187 0.393,-0.189 0.394,-0.188 0.393,-0.189 0.393,-0.189 0.394,-0.189 0.393,-0.189 0.393,-0.19 0.394,-0.19 0.393,-0.19 0.393,-0.191 0.394,-0.191 0.393,-0.191 0.393,-0.191 0.394,-0.191 0.393,-0.192 0.393,-0.192 0.394,-0.192 0.393,-0.193 0.393,-0.192 0.394,-0.193 0.393,-0.194 0.393,-0.193 0.394,-0.194 0.393,-0.193 0.393,-0.195 0.394,-0.194 0.393,-0.194 0.393,-0.195 0.394,-0.195 0.393,-0.195 0.393,-0.196 0.394,-0.196 0.393,-0.196 0.393,-0.196 0.394,-0.196 0.393,-0.197 0.393,-0.196 0.394,-0.197 0.393,-0.198 0.393,-0.197 0.394,-0.198 0.393,-0.197 0.393,-0.198 0.394,-0.199 0.393,-0.198 0.393,-0.199 0.394,-0.199 0.393,-0.199 0.393,-0.199 0.394,-0.2 0.393,-0.199 0.393,-0.2 0.394,-0.2 0.393,-0.2 0.393,-0.201 0.394,-0.201 0.393,-0.2 0.393,-0.201 0.394,-0.202 0.393,-0.201 0.393,-0.202 0.394,-0.202 0.393,-0.202 0.393,-0.202 0.394,-0.202 0.393,-0.203 0.393,-0.202 0.394,-0.203 0.393,-0.203 0.393,-0.204 0.394,-0.203 0.393,-0.204 0.393,-0.204 0.394,-0.204 0.393,-0.204 0.393,-0.204 0.394,-0.205 0.393,-0.204 0.393,-0.205 0.394,-0.205 0.393,-0.206 0.393,-0.205 0.394,-0.206 0.393,-0.205 0.393,-0.206 0.394,-0.206 0.393,-0.206 0.393,-0.207 0.394,-0.206 0.393,-0.207 0.393,-0.207 0.394,-0.207 0.393,-0.207 0.393,-0.208 0.394,-0.207 0.393,-0.208 0.393,-0.208 0.394,-0.208 0.393,-0.208 0.393,-0.208 0.394,-0.209 0.393,-0.209 0.393,-0.208"
         stroke-width="5"
         stroke="#0000ff"
         fill="none" /><path
         d="m 328.443,320.328 22.455,-3.769 -15.702,16.488 -0.197,-8.047 z"
         stroke-width="1"
         stroke="#0000ff"
         fill="#0000ff"
         id="path24" /><path
         id="path25"
         d="m 202.446,362.806 0.393,1.673 0.394,1.055 0.393,0.798 0.393,0.648 0.394,0.546 0.393,0.471 0.393,0.412 0.394,0.365 0.393,0.327 0.393,0.293 0.394,0.266 0.393,0.241 0.393,0.218 0.394,0.2 0.393,0.182 0.393,0.167 0.394,0.152 0.393,0.139 0.393,0.127 0.394,0.115 0.393,0.106 0.393,0.095 0.394,0.087 0.393,0.079 0.393,0.07 0.394,0.063 0.393,0.056 0.393,0.049 0.394,0.043 0.393,0.037 0.393,0.032 0.394,0.025 0.393,0.021 0.393,0.016 0.394,0.011 0.393,0.006 0.393,0.002 0.394,-0.002 0.393,-0.006 0.393,-0.01 0.394,-0.013 0.393,-0.018 0.393,-0.02 0.394,-0.024 0.393,-0.028 0.393,-0.03 0.394,-0.033 0.393,-0.037 0.393,-0.039 0.394,-0.042 0.393,-0.045 0.393,-0.047 0.394,-0.05 0.393,-0.052 0.393,-0.054 0.394,-0.057 0.393,-0.06 0.393,-0.061 0.394,-0.064 0.393,-0.065 0.393,-0.068 0.394,-0.069 0.393,-0.072 0.393,-0.074 0.394,-0.075 0.393,-0.077 0.393,-0.079 0.394,-0.081 0.393,-0.082 0.393,-0.084 0.394,-0.086 0.393,-0.087 0.393,-0.088 0.394,-0.091 0.393,-0.092 0.393,-0.093 0.394,-0.094 0.393,-0.096 0.393,-0.098 0.394,-0.099 0.393,-0.1 0.393,-0.101 0.394,-0.103 0.393,-0.104 0.393,-0.105 0.394,-0.107 0.393,-0.107 0.393,-0.109 0.394,-0.11 0.393,-0.111 0.393,-0.112 0.394,-0.114 0.393,-0.114 0.393,-0.115 0.394,-0.117 0.393,-0.117 0.393,-0.119 0.394,-0.119 0.393,-0.121 0.393,-0.121 0.394,-0.123 0.393,-0.123 0.393,-0.124 0.394,-0.126 0.393,-0.126 0.393,-0.127 0.394,-0.127 0.393,-0.129 0.393,-0.13 0.394,-0.13 0.393,-0.131 0.393,-0.132 0.394,-0.133 0.393,-0.134 0.393,-0.134 0.394,-0.135 0.393,-0.136 0.393,-0.137 0.394,-0.137 0.393,-0.139 0.393,-0.138 0.394,-0.14 0.393,-0.14 0.393,-0.141 0.394,-0.142 0.393,-0.143 0.393,-0.143 0.394,-0.143 0.393,-0.145 0.393,-0.145 0.394,-0.145 0.393,-0.147 0.393,-0.147 0.394,-0.147 0.393,-0.148 0.393,-0.149 0.394,-0.15 0.393,-0.15 0.393,-0.15 0.394,-0.151 0.393,-0.152 0.393,-0.153 0.394,-0.152 0.393,-0.154 0.393,-0.154 0.394,-0.154 0.393,-0.155 0.393,-0.156 0.394,-0.156 0.393,-0.157 0.393,-0.157 0.394,-0.158 0.393,-0.158 0.393,-0.159 0.394,-0.159 0.393,-0.16 0.393,-0.16 0.394,-0.16 0.393,-0.162 0.393,-0.161 0.394,-0.162 0.393,-0.163 0.393,-0.163 0.394,-0.163 0.393,-0.164 0.393,-0.165 0.394,-0.165 0.393,-0.165 0.393,-0.166 0.394,-0.166 0.393,-0.167 0.393,-0.167 0.394,-0.167 0.393,-0.168 0.393,-0.168 0.394,-0.169 0.393,-0.169 0.393,-0.169 0.394,-0.17 0.393,-0.171 0.393,-0.17 0.394,-0.172 0.393,-0.171 0.393,-0.172 0.394,-0.172 0.393,-0.173 0.393,-0.173 0.394,-0.173 0.393,-0.174 0.393,-0.174 0.394,-0.175 0.393,-0.174 0.393,-0.176 0.394,-0.175 0.393,-0.176 0.393,-0.176 0.394,-0.177 0.393,-0.177 0.393,-0.177 0.394,-0.178 0.393,-0.178 0.393,-0.178 0.394,-0.179 0.393,-0.179 0.393,-0.179 0.394,-0.18 0.393,-0.18 0.393,-0.18 0.394,-0.181 0.393,-0.181 0.393,-0.181 0.394,-0.182 0.393,-0.181 0.393,-0.183 0.394,-0.182 0.393,-0.183 0.393,-0.183 0.394,-0.183 0.393,-0.184 0.393,-0.184 0.394,-0.184 0.393,-0.185 0.393,-0.185 0.394,-0.185 0.393,-0.185 0.393,-0.186 0.394,-0.186 0.393,-0.186 0.393,-0.187 0.394,-0.186 0.393,-0.188 0.393,-0.187 0.394,-0.188 0.393,-0.187 0.393,-0.189 0.394,-0.188 0.393,-0.189 0.393,-0.189 0.394,-0.189 0.393,-0.189 0.393,-0.19 0.394,-0.19 0.393,-0.19 0.393,-0.191 0.394,-0.191 0.393,-0.191 0.393,-0.191 0.394,-0.191 0.393,-0.192 0.393,-0.192 0.394,-0.192 0.393,-0.193 0.393,-0.192 0.394,-0.193 0.393,-0.194 0.393,-0.193 0.394,-0.194 0.393,-0.193 0.393,-0.195 0.394,-0.194 0.393,-0.194 0.393,-0.195 0.394,-0.195 0.393,-0.195 0.393,-0.196 0.394,-0.196 0.393,-0.196 0.393,-0.196 0.394,-0.196 0.393,-0.197 0.393,-0.196 0.394,-0.197 0.393,-0.198 0.393,-0.197 0.394,-0.198 0.393,-0.197 0.393,-0.198 0.394,-0.199 0.393,-0.198 0.393,-0.199 0.394,-0.199 0.393,-0.199 0.393,-0.199 0.394,-0.2 0.393,-0.199 0.393,-0.2 0.394,-0.2 0.393,-0.2 0.393,-0.201 0.394,-0.201 0.393,-0.2 0.393,-0.201 0.394,-0.202 0.393,-0.201 0.393,-0.202 0.394,-0.202 0.393,-0.202 0.393,-0.202 0.394,-0.202 0.393,-0.203 0.393,-0.202 0.394,-0.203 0.393,-0.203 0.393,-0.204 0.394,-0.203 0.393,-0.204 0.393,-0.204 0.394,-0.204 0.393,-0.204 0.393,-0.204 0.394,-0.205 0.393,-0.204 0.393,-0.205 0.394,-0.205 0.393,-0.206 0.393,-0.205 0.394,-0.206 0.393,-0.205 0.393,-0.206 0.394,-0.206 0.393,-0.206 0.393,-0.207 0.394,-0.206 0.393,-0.207 0.393,-0.207 0.394,-0.207 0.393,-0.207 0.393,-0.208 0.394,-0.207 0.393,-0.208 0.393,-0.208 0.394,-0.208 0.393,-0.208 0.393,-0.208 0.394,-0.209 0.393,-0.209 0.393,-0.208"
         stroke-width="5"
         stroke="#0000ff"
         fill="none" /><path
         d="m 328.443,320.328 22.455,-3.769 -15.702,16.488 -0.197,-8.047 z"
         stroke-width="1"
         stroke="#0000ff"
         fill="#0000ff"
         id="path26" /><path
         id="path27"
         d="m 202.938,364.777 0.688,1.555 0.688,1.065 0.689,0.812 0.688,0.65 0.688,0.535 0.689,0.448 0.688,0.38 0.688,0.322 0.689,0.276 0.688,0.235 0.688,0.2 0.689,0.17 0.688,0.143 0.688,0.118 0.689,0.096 0.688,0.077 0.688,0.059 0.689,0.041 0.688,0.027 0.688,0.012 0.689,-10e-4 0.688,-0.013 0.688,-0.024 0.689,-0.036 0.688,-0.046 0.688,-0.055 0.689,-0.064 0.688,-0.073 0.688,-0.081 0.689,-0.089 0.688,-0.096 0.688,-0.103 0.689,-0.11 0.688,-0.116 0.688,-0.122 0.689,-0.128 0.688,-0.134 0.688,-0.139 0.689,-0.145 0.688,-0.149 0.688,-0.154 0.689,-0.159 0.688,-0.164 0.688,-0.168 0.689,-0.172 0.688,-0.176 0.688,-0.18 0.689,-0.184 0.688,-0.187 0.688,-0.191 0.689,-0.195 0.688,-0.198 0.688,-0.201 0.689,-0.205 0.688,-0.207 0.688,-0.211 0.689,-0.214 0.688,-0.216 0.688,-0.219 0.689,-0.222 0.688,-0.225 0.688,-0.227 0.689,-0.23 0.688,-0.232 0.688,-0.235 0.689,-0.237 0.688,-0.24 0.688,-0.241 0.689,-0.244 0.688,-0.246 0.688,-0.248 0.689,-0.25 0.688,-0.253 0.688,-0.254 0.689,-0.256 0.688,-0.258 0.688,-0.26 0.689,-0.262 0.688,-0.264 0.688,-0.265 0.689,-0.267 0.688,-0.269 0.688,-0.271 0.689,-0.272 0.688,-0.274 0.688,-0.275 0.689,-0.277 0.688,-0.279 0.688,-0.28 0.689,-0.281 0.688,-0.283 0.688,-0.285 0.689,-0.285 0.688,-0.288 0.688,-0.288 0.689,-0.29 0.688,-0.292 0.688,-0.292 0.689,-0.294 0.688,-0.295 0.688,-0.296 0.689,-0.298 0.688,-0.299 0.688,-0.3 0.689,-0.301 0.688,-0.303 0.688,-0.303 0.689,-0.305 0.688,-0.305 0.688,-0.307 0.689,-0.308 0.688,-0.309 0.688,-0.31 0.689,-0.311 0.688,-0.313 0.688,-0.313 0.689,-0.314 0.688,-0.315 0.688,-0.316 0.689,-0.317 0.688,-0.318 0.688,-0.319 0.689,-0.32 0.688,-0.321 0.688,-0.322 0.689,-0.323 0.688,-0.323 0.688,-0.325 0.689,-0.325 0.688,-0.326 0.688,-0.327 0.689,-0.328 0.688,-0.328 0.688,-0.33 0.689,-0.33 0.688,-0.331 0.688,-0.332 0.689,-0.333 0.688,-0.333 0.688,-0.334 0.689,-0.335 0.688,-0.336 0.688,-0.336 0.689,-0.338 0.688,-0.338 0.688,-0.338 0.689,-0.339 0.688,-0.341 0.688,-0.34 0.689,-0.342 0.688,-0.342 0.688,-0.343 0.689,-0.343 0.688,-0.344 0.688,-0.345 0.689,-0.345 0.688,-0.346 0.688,-0.347 0.689,-0.348 0.688,-0.347 0.688,-0.349 0.689,-0.349 0.688,-0.35 0.688,-0.351 0.689,-0.351 0.688,-0.351 0.688,-0.352 0.689,-0.353 0.688,-0.354 0.688,-0.353 0.689,-0.355 0.688,-0.355 0.688,-0.356 0.689,-0.356 0.688,-0.357 0.688,-0.357 0.689,-0.358 0.688,-0.358 0.688,-0.359 0.689,-0.359 0.688,-0.36 0.688,-0.361 0.689,-0.361 0.688,-0.361 0.688,-0.362 0.689,-0.363 0.688,-0.362 0.688,-0.364 0.689,-0.364 0.688,-0.364 0.688,-0.365 0.689,-0.366 0.688,-0.365 0.688,-0.367 0.689,-0.367 0.688,-0.367 0.688,-0.368 0.689,-0.368 0.688,-0.368 0.688,-0.369 0.689,-0.37 0.688,-0.37 0.688,-0.37 0.689,-0.371 0.688,-0.371 0.688,-0.372 0.689,-0.372 0.688,-0.373 0.688,-0.373 0.689,-0.373 0.688,-0.374 0.688,-0.374 0.689,-0.375 0.688,-0.375 0.688,-0.375 0.689,-0.376 0.688,-0.376 0.688,-0.377 0.689,-0.377 0.688,-0.377 0.688,-0.378 0.689,-0.378 0.688,-0.379 0.688,-0.379 0.689,-0.379 0.688,-0.38 0.688,-0.38 0.689,-0.38 0.688,-0.381 0.688,-0.381 0.689,-0.382 0.688,-0.381 0.688,-0.383 0.689,-0.382 0.688,-0.383 0.688,-0.383 0.689,-0.384 0.688,-0.384 0.688,-0.384 0.689,-0.385 0.688,-0.385 0.688,-0.385 0.689,-0.386 0.688,-0.386 0.688,-0.386 0.689,-0.387 0.688,-0.387 0.688,-0.387 0.689,-0.388 0.688,-0.388 0.688,-0.388 0.689,-0.389 0.688,-0.389 0.688,-0.389 0.689,-0.389 0.688,-0.39 0.688,-0.39 0.689,-0.391 0.688,-0.391 0.688,-0.391 0.689,-0.391 0.688,-0.392 0.688,-0.392 0.689,-0.392 0.688,-0.392 0.688,-0.393 0.689,-0.393 0.688,-0.394 0.688,-0.394 0.689,-0.394 0.688,-0.394 0.688,-0.394 0.689,-0.395 0.688,-0.395 0.688,-0.396 0.689,-0.396 0.688,-0.395 0.688,-0.397 0.689,-0.396 0.688,-0.397 0.688,-0.397 0.689,-0.397 0.688,-0.398 0.688,-0.398 0.689,-0.398 0.688,-0.398 0.688,-0.399 0.689,-0.399 0.688,-0.399 0.688,-0.399 0.689,-0.4 0.688,-0.4 0.688,-0.4 0.689,-0.401 0.688,-0.4 0.688,-0.401 0.689,-0.401 0.688,-0.402 0.688,-0.401 0.689,-0.402 0.688,-0.402 0.688,-0.403 0.689,-0.402 0.688,-0.403 0.688,-0.403 0.689,-0.404 0.688,-0.403 0.688,-0.404 0.689,-0.404 0.688,-0.405 0.688,-0.404 0.689,-0.405 0.688,-0.405 0.688,-0.405 0.689,-0.405 0.688,-0.406 0.688,-0.406 0.689,-0.406 0.688,-0.406 0.688,-0.407 0.689,-0.407 0.688,-0.407 0.688,-0.407 0.689,-0.407 0.688,-0.408 0.688,-0.408 0.689,-0.408 0.688,-0.408 0.688,-0.409 0.689,-0.408 0.688,-0.409 0.688,-0.409 0.689,-0.41 0.688,-0.409 0.688,-0.41 0.688,-0.41 0.689,-0.41 0.688,-0.411 0.688,-0.41 0.689,-0.411 0.688,-0.411 0.688,-0.411 0.689,-0.411 0.688,-0.412 0.688,-0.412 0.689,-0.412 0.688,-0.412 0.688,-0.412 0.689,-0.413 0.688,-0.413 0.688,-0.413 0.689,-0.413 0.688,-0.413 0.688,-0.414 0.689,-0.413 0.688,-0.414 0.688,-0.414 0.689,-0.414 0.688,-0.415 0.688,-0.415 0.689,-0.414 0.688,-0.415 0.688,-0.416 0.689,-0.415 0.688,-0.416 0.688,-0.415 0.689,-0.416 0.688,-0.416 0.688,-0.417 0.689,-0.416 0.688,-0.417 0.688,-0.417 0.689,-0.417 0.688,-0.417 0.688,-0.417 0.689,-0.418 0.688,-0.417 0.688,-0.418 0.689,-0.418 0.688,-0.418 0.688,-0.419 0.689,-0.418 0.688,-0.419 0.688,-0.419 0.689,-0.419 0.688,-0.419 0.688,-0.42 0.689,-0.419 0.688,-0.42 0.688,-0.42 0.689,-0.42 0.688,-0.42 0.688,-0.42 0.689,-0.421 0.688,-0.421 0.688,-0.42 0.689,-0.421 0.688,-0.422 0.688,-0.421 0.689,-0.421 0.688,-0.422 0.688,-0.422 0.689,-0.422 0.688,-0.422 0.688,-0.422 0.689,-0.423 0.688,-0.422 0.688,-0.423 0.689,-0.423 0.688,-0.423 0.688,-0.423 0.689,-0.424 0.688,-0.423 0.688,-0.424 0.689,-0.424 0.688,-0.424 0.688,-0.424 0.689,-0.424 0.688,-0.424 0.688,-0.425 0.689,-0.425 0.688,-0.424 0.688,-0.425 0.689,-0.426 0.688,-0.425 0.688,-0.425 0.689,-0.426 0.688,-0.426 0.688,-0.425 0.689,-0.426 0.688,-0.427 0.688,-0.426 0.689,-0.426 0.688,-0.427 0.688,-0.426 0.689,-0.427 0.688,-0.427 0.688,-0.427 0.689,-0.428 0.688,-0.427 0.688,-0.428 0.689,-0.427 0.688,-0.428 0.688,-0.428 0.689,-0.428 0.688,-0.428 0.688,-0.429 0.689,-0.428 0.688,-0.429"
         stroke-width="5"
         stroke="#0000ff"
         fill="none" /><path
         d="m 505.137,216.981 22.142,-5.305 -14.53,17.529 -0.75,-8.015 z"
         stroke-width="1"
         stroke="#0000ff"
         fill="#0000ff"
         id="path28" /></g></g></svg>
