<?xml version="1.0" encoding="UTF-8" standalone="no"?>
<!-- Created with Inkscape (http://www.inkscape.org/) -->

<svg
   width="4in"
   height="4in"
   viewBox="0 0 101.6 101.6"
   version="1.1"
   id="svg8"
   inkscape:version="1.3.2 (091e20ef0f, 2023-11-25, custom)"
   sodipodi:docname="figab.svg"
   xml:space="preserve"
   xmlns:inkscape="http://www.inkscape.org/namespaces/inkscape"
   xmlns:sodipodi="http://sodipodi.sourceforge.net/DTD/sodipodi-0.dtd"
   xmlns="http://www.w3.org/2000/svg"
   xmlns:svg="http://www.w3.org/2000/svg"
   xmlns:rdf="http://www.w3.org/1999/02/22-rdf-syntax-ns#"
   xmlns:cc="http://creativecommons.org/ns#"
   xmlns:dc="http://purl.org/dc/elements/1.1/"><defs
     id="defs2"><style
       type="text/css"
       id="style1">@import url(&quot;http://cdnjs.cloudflare.com/ajax/libs/KaTeX/0.2.0/katex.min.css&quot;)</style></defs><sodipodi:namedview
     id="base"
     pagecolor="#ffffff"
     bordercolor="#666666"
     borderopacity="1.0"
     inkscape:pageopacity="0.0"
     inkscape:pageshadow="2"
     inkscape:zoom="0.87299035"
     inkscape:cx="-224.51565"
     inkscape:cy="-67.01105"
     inkscape:document-units="mm"
     inkscape:current-layer="g1"
     showgrid="false"
     showborder="true"
     width="200mm"
     showguides="true"
     inkscape:guide-bbox="true"
     inkscape:window-width="1920"
     inkscape:window-height="1080"
     inkscape:window-x="0"
     inkscape:window-y="0"
     inkscape:window-maximized="1"
     inkscape:showpageshadow="2"
     inkscape:pagecheckerboard="0"
     inkscape:deskcolor="#d1d1d1"><inkscape:grid
       type="xygrid"
       id="grid815"
       units="mm"
       spacingx="10"
       spacingy="10"
       empspacing="4"
       dotted="false"
       originx="0"
       originy="0"
       visible="false" /></sodipodi:namedview><metadata
     id="metadata5"><rdf:RDF><cc:Work
         rdf:about=""><dc:format>image/svg+xml</dc:format><dc:type
           rdf:resource="http://purl.org/dc/dcmitype/StillImage" /></cc:Work></rdf:RDF></metadata><g
     inkscape:label="Layer 1"
     inkscape:groupmode="layer"
     id="layer1"
     transform="translate(0,-177)"><g
       id="g1"
       transform="matrix(0.26458333,0,0,0.26458333,-64.206095,111.00541)"><path
         d="m 619.50324,440.65234 15.87358,5.19946 -15.87358,5.19946 2.64559,-5.19946 z"
         stroke-width="0.72849"
         stroke="#000000"
         fill="#000000"
         id="path1" /><path
         d="m 430.93093,265.74832 5.29118,-15.59837 5.2912,15.59837 -5.2912,-2.59973 z"
         stroke-width="0.72849"
         stroke="#000000"
         fill="#000000"
         id="path2" /><path
         d="M 250.2954,445.8518 H 622.14883 M 436.22211,263.14859 v 365.40642 m 0,-177.46765 v -10.47113 m 34.53975,10.47113 v -10.47113 m 34.53975,10.47113 v -10.47113 m 34.53974,10.47113 v -10.47113 m 34.53975,10.47113 v -10.47113 m 34.53975,10.47113 v -10.47113 m -207.23847,10.47113 v -10.47113 m -34.53975,10.47113 v -10.47113 m -34.53975,10.47113 v -10.47113 m -34.53974,10.47113 v -10.47113 m -34.53975,10.47113 v -10.47113 m 178.02667,5.23557 h -10.65588 m 10.65588,33.94091 h -10.65588 m 10.65588,33.94092 h -10.65588 m 10.65588,33.94091 h -10.65588 m 10.65588,33.94091 h -10.65588 m 10.65588,33.94091 h -10.65588 m 10.65588,-203.64547 h -10.65588 m 10.65588,-33.94091 h -10.65588 m 10.65588,-33.94092 h -10.65588 m 10.65588,-33.94091 h -10.65588 m 10.65588,-33.94091 h -10.65588"
         stroke-width="1.45698"
         stroke="#000000"
         fill="none"
         id="path3" /><text
         id="null"
         x="466.66312"
         y="472.35098"
         font-style=""
         font-family="KaTeX_Main, serif"
         font-size="21.1262px"
         font-weight="normal"
         text-anchor="middle"
         fill="#000000"
         stroke-width="0px"
         transform="scale(1.0087831,0.99129335)">1</text><text
         id="text3"
         x="500.90213"
         y="472.35098"
         font-style=""
         font-family="KaTeX_Main, serif"
         font-size="21.1262px"
         font-weight="normal"
         text-anchor="middle"
         fill="#000000"
         stroke-width="0px"
         transform="scale(1.0087831,0.99129335)">2</text><text
         id="text4"
         x="535.14117"
         y="472.35098"
         font-style=""
         font-family="KaTeX_Main, serif"
         font-size="21.1262px"
         font-weight="normal"
         text-anchor="middle"
         fill="#000000"
         stroke-width="0px"
         transform="scale(1.0087831,0.99129335)">3</text><text
         id="text5"
         x="569.38019"
         y="472.35098"
         font-style=""
         font-family="KaTeX_Main, serif"
         font-size="21.1262px"
         font-weight="normal"
         text-anchor="middle"
         fill="#000000"
         stroke-width="0px"
         transform="scale(1.0087831,0.99129335)">4</text><text
         id="text6"
         x="603.6192"
         y="472.35098"
         font-style=""
         font-family="KaTeX_Main, serif"
         font-size="21.1262px"
         font-weight="normal"
         text-anchor="middle"
         fill="#000000"
         stroke-width="0px"
         transform="scale(1.0087831,0.99129335)">5</text><text
         id="text7"
         x="398.18506"
         y="472.35098"
         font-style=""
         font-family="KaTeX_Main, serif"
         font-size="21.1262px"
         font-weight="normal"
         text-anchor="middle"
         fill="#000000"
         stroke-width="0px"
         transform="scale(1.0087831,0.99129335)">-1</text><text
         id="text8"
         x="363.94604"
         y="472.35098"
         font-style=""
         font-family="KaTeX_Main, serif"
         font-size="21.1262px"
         font-weight="normal"
         text-anchor="middle"
         fill="#000000"
         stroke-width="0px"
         transform="scale(1.0087831,0.99129335)">-2</text><text
         id="text9"
         x="329.70703"
         y="472.35098"
         font-style=""
         font-family="KaTeX_Main, serif"
         font-size="21.1262px"
         font-weight="normal"
         text-anchor="middle"
         fill="#000000"
         stroke-width="0px"
         transform="scale(1.0087831,0.99129335)">-3</text><text
         id="text10"
         x="295.46799"
         y="472.35098"
         font-style=""
         font-family="KaTeX_Main, serif"
         font-size="21.1262px"
         font-weight="normal"
         text-anchor="middle"
         fill="#000000"
         stroke-width="0px"
         transform="scale(1.0087831,0.99129335)">-4</text><text
         id="text11"
         x="261.22894"
         y="472.35098"
         font-style=""
         font-family="KaTeX_Main, serif"
         font-size="21.1262px"
         font-weight="normal"
         text-anchor="middle"
         fill="#000000"
         stroke-width="0px"
         transform="scale(1.0087831,0.99129335)">-5</text><text
         id="text12"
         x="423.92477"
         y="422.57031"
         font-style=""
         font-family="KaTeX_Main, serif"
         font-size="21.1262px"
         font-weight="normal"
         text-anchor="end"
         fill="#000000"
         stroke-width="0px"
         transform="scale(1.0087831,0.99129335)">1</text><text
         id="text13"
         x="423.92477"
         y="388.3313"
         font-style=""
         font-family="KaTeX_Main, serif"
         font-size="21.1262px"
         font-weight="normal"
         text-anchor="end"
         fill="#000000"
         stroke-width="0px"
         transform="scale(1.0087831,0.99129335)">2</text><text
         id="text14"
         x="423.92477"
         y="354.09229"
         font-style=""
         font-family="KaTeX_Main, serif"
         font-size="21.1262px"
         font-weight="normal"
         text-anchor="end"
         fill="#000000"
         stroke-width="0px"
         transform="scale(1.0087831,0.99129335)">3</text><text
         id="text15"
         x="423.92477"
         y="319.85327"
         font-style=""
         font-family="KaTeX_Main, serif"
         font-size="21.1262px"
         font-weight="normal"
         text-anchor="end"
         fill="#000000"
         stroke-width="0px"
         transform="scale(1.0087831,0.99129335)">4</text><text
         id="text16"
         x="423.92477"
         y="285.61426"
         font-style=""
         font-family="KaTeX_Main, serif"
         font-size="21.1262px"
         font-weight="normal"
         text-anchor="end"
         fill="#000000"
         stroke-width="0px"
         transform="scale(1.0087831,0.99129335)">5</text><text
         id="text17"
         x="423.92477"
         y="491.04837"
         font-style=""
         font-family="KaTeX_Main, serif"
         font-size="21.1262px"
         font-weight="normal"
         text-anchor="end"
         fill="#000000"
         stroke-width="0px"
         transform="scale(1.0087831,0.99129335)">-1</text><text
         id="text18"
         x="423.92477"
         y="525.28735"
         font-style=""
         font-family="KaTeX_Main, serif"
         font-size="21.1262px"
         font-weight="normal"
         text-anchor="end"
         fill="#000000"
         stroke-width="0px"
         transform="scale(1.0087831,0.99129335)">-2</text><text
         id="text19"
         x="423.92477"
         y="559.52637"
         font-style=""
         font-family="KaTeX_Main, serif"
         font-size="21.1262px"
         font-weight="normal"
         text-anchor="end"
         fill="#000000"
         stroke-width="0px"
         transform="scale(1.0087831,0.99129335)">-3</text><text
         id="text20"
         x="423.92477"
         y="593.76544"
         font-style=""
         font-family="KaTeX_Main, serif"
         font-size="21.1262px"
         font-weight="normal"
         text-anchor="end"
         fill="#000000"
         stroke-width="0px"
         transform="scale(1.0087831,0.99129335)">-4</text><text
         id="text21"
         x="423.92477"
         y="628.00446"
         font-style=""
         font-family="KaTeX_Main, serif"
         font-size="21.1262px"
         font-weight="normal"
         text-anchor="end"
         fill="#000000"
         stroke-width="0px"
         transform="scale(1.0087831,0.99129335)">-5</text><text
         id="text22"
         x="432.42407"
         y="243.84776"
         font-style="italic"
         font-family="KaTeX_Main, serif"
         font-size="21.1262px"
         font-weight="normal"
         text-anchor="middle"
         fill="#000000"
         stroke-width="0px"
         transform="scale(1.0087831,0.99129335)">y</text><text
         id="text23"
         x="638.34344"
         y="456.80933"
         font-style="italic"
         font-family="KaTeX_Main, serif"
         font-size="21.1262px"
         font-weight="normal"
         text-anchor="start"
         fill="#000000"
         stroke-width="0px"
         transform="scale(1.0087831,0.99129335)">x</text><path
         id="path23"
         d="m 436.79753,445.77814 0.57542,-0.13288 0.57542,-0.17331 0.57615,-0.20436 0.57542,-0.23254 0.57542,-0.25709 0.57615,-0.27874 0.57542,-0.30042 0.57542,-0.31919 0.57615,-0.33723 0.57542,-0.3553 0.57542,-0.37119 0.57614,-0.38706 0.57542,-0.40296 0.57542,-0.41668 0.57615,-0.43112 0.57542,-0.44557 0.57542,-0.45784 0.57615,-0.47156 0.57542,-0.48312 0.57542,-0.49611 0.57614,-0.5084 0.57542,-0.51922 0.57542,-0.53078 0.57615,-0.54233 0.57542,-0.55316 0.57542,-0.564 0.57615,-0.57483 0.57542,-0.58422 0.57542,-0.59505 0.57614,-0.60516 0.57542,-0.61455 0.57542,-0.62465 0.57615,-0.63405 0.57542,-0.64343 0.57542,-0.65282 0.57615,-0.66148 0.57542,-0.67088 0.57542,-0.67954 0.57616,-0.68893 0.5754,-0.69687 0.57542,-0.70554 0.57616,-0.71421 0.57541,-0.72286 0.57542,-0.73081 0.57616,-0.73877 0.57541,-0.74669 0.57542,-0.75537 0.57616,-0.76258 0.57541,-0.77054 0.57542,-0.77847 0.57615,-0.78642 0.57541,-0.79364 0.57542,-0.80086 0.57616,-0.8088 0.57541,-0.81603 0.57542,-0.82398 0.57616,-0.83046 0.57541,-0.83769 0.57542,-0.84491 0.57615,-0.85214 0.57542,-0.85935 0.57541,-0.86585 0.57616,-0.87309 0.57542,-0.87957 0.57541,-0.88607 0.57616,-0.8933 0.57542,-0.90052 0.57541,-0.90629 0.57615,-0.91351 0.57542,-0.9193 0.57541,-0.92651 0.57616,-0.93301 0.57542,-0.9388 0.57541,-0.94529 0.57616,-0.95251 0.57542,-0.95756 0.57541,-0.9648 0.57616,-0.97056 0.57542,-0.97635 0.57542,-0.98283 0.57614,-0.98935 0.57542,-0.99439 0.57542,-1.00162 0.57615,-1.00667 0.57542,-1.01318 0.57542,-1.01822 0.57615,-1.02473 0.57542,-1.0305 0.57542,-1.03628 0.57614,-1.04207 0.57542,-1.04782 0.57542,-1.05362 0.57615,-1.0594 0.57542,-1.06516 0.57542,-1.07022 0.57615,-1.076 0.57542,-1.08178 0.57542,-1.08755 0.57614,-1.09261 0.57542,-1.09766 0.57542,-1.10417 0.57615,-1.1085 0.57542,-1.11499 0.57542,-1.11932 0.57615,-1.12512 0.57542,-1.13087 0.57542,-1.13594 0.57542,-1.14099 0.57614,-1.14604 0.57542,-1.15183 0.57542,-1.15616 0.57615,-1.16193 0.57542,-1.167 0.57542,-1.17276 0.57615,-1.1771 0.57542,-1.18216 0.57542,-1.18721 0.57615,-1.19299 0.57542,-1.19731 0.57541,-1.20238 0.57615,-1.20743 0.57542,-1.21249 0.57542,-1.21753 0.57615,-1.22187 0.57542,-1.22766 0.57542,-1.23198 0.57615,-1.23704 0.57542,-1.24137 0.57542,-1.24643 0.57614,-1.25148 0.57542,-1.25653 0.57542,-1.26087 0.57615,-1.2652 0.57542,-1.27098 0.57542,-1.27459 0.57615,-1.28037 0.57542,-1.28397 0.57542,-1.28975 0.57614,-1.29337 0.57542,-1.29842 0.57542,-1.30348 0.57615,-1.3078 0.57542,-1.31215 0.57542,-1.31647 0.57615,-1.32153 0.57542,-1.32586 0.57542,-1.3302 0.57616,-1.33524 0.5754,-1.33887 0.57542,-1.34391 0.57616,-1.34825 0.57541,-1.35331 0.57542,-1.35691 0.57616,-1.36198 0.57541,-1.36557 0.57542,-1.37063 0.57616,-1.37497 0.5754,-1.37858 0.57542,-1.38364 0.57616,-1.38796 0.57541,-1.39231 0.57542,-1.3959 0.57616,-1.40097 0.57541,-1.40458 0.57542,-1.40963 0.57616,-1.41324 0.57541,-1.41757 0.57542,-1.42264 0.57615,-1.42551 0.57542,-1.43057 0.57541,-1.43491 0.57616,-1.43852 0.57542,-1.44284 0.57541,-1.44719 0.57616,-1.45079 0.57542,-1.45585 0.57541,-1.45946 0.57615,-1.46307 0.57542,-1.46813 0.57541,-1.47173 0.57616,-1.47535 0.22487,-0.57844"
         stroke-width="3.64245"
         stroke="#0000ff"
         fill="none" /><path
         d="m 535.32987,266.53618 10.61032,-12.7134 -0.72534,16.42668 -3.99779,-4.28522 z"
         stroke-width="0.72849"
         stroke="#0000ff"
         fill="#0000ff"
         id="path24" /></g></g></svg>
