<?xml version="1.0" encoding="UTF-8" standalone="no"?>
<!-- Created with Inkscape (http://www.inkscape.org/) -->

<svg
   width="4in"
   height="4in"
   viewBox="0 0 101.6 101.6"
   version="1.1"
   id="svg8"
   inkscape:version="1.3.2 (091e20ef0f, 2023-11-25, custom)"
   sodipodi:docname="figur.svg"
   xml:space="preserve"
   xmlns:inkscape="http://www.inkscape.org/namespaces/inkscape"
   xmlns:sodipodi="http://sodipodi.sourceforge.net/DTD/sodipodi-0.dtd"
   xmlns="http://www.w3.org/2000/svg"
   xmlns:svg="http://www.w3.org/2000/svg"
   xmlns:rdf="http://www.w3.org/1999/02/22-rdf-syntax-ns#"
   xmlns:cc="http://creativecommons.org/ns#"
   xmlns:dc="http://purl.org/dc/elements/1.1/"><defs
     id="defs2"><style
       type="text/css"
       id="style1">@import url(&quot;http://cdnjs.cloudflare.com/ajax/libs/KaTeX/0.2.0/katex.min.css&quot;)</style></defs><sodipodi:namedview
     id="base"
     pagecolor="#ffffff"
     bordercolor="#666666"
     borderopacity="1.0"
     inkscape:pageopacity="0.0"
     inkscape:pageshadow="2"
     inkscape:zoom="0.87299035"
     inkscape:cx="-83.620626"
     inkscape:cy="149.48619"
     inkscape:document-units="mm"
     inkscape:current-layer="layer1"
     showgrid="false"
     showborder="true"
     width="200mm"
     showguides="true"
     inkscape:guide-bbox="true"
     inkscape:window-width="1920"
     inkscape:window-height="1080"
     inkscape:window-x="0"
     inkscape:window-y="0"
     inkscape:window-maximized="1"
     inkscape:showpageshadow="2"
     inkscape:pagecheckerboard="0"
     inkscape:deskcolor="#d1d1d1"><inkscape:grid
       type="xygrid"
       id="grid815"
       units="mm"
       spacingx="10"
       spacingy="10"
       empspacing="4"
       dotted="false"
       originx="0"
       originy="0"
       visible="false" /></sodipodi:namedview><metadata
     id="metadata5"><rdf:RDF><cc:Work
         rdf:about=""><dc:format>image/svg+xml</dc:format><dc:type
           rdf:resource="http://purl.org/dc/dcmitype/StillImage" /></cc:Work></rdf:RDF></metadata><g
     inkscape:label="Layer 1"
     inkscape:groupmode="layer"
     id="layer1"
     transform="translate(0,-177)"><g
       id="g1"
       transform="matrix(0.18014842,0,0,0.17965399,-3.2788796,173.69872)"><path
         d="M 524.4,317.8 546,325 524.4,332.2 528,325 Z"
         stroke-width="1"
         stroke="#000000"
         fill="#000000"
         id="path1" /><path
         d="M 267.8,75.6 275,54 282.2,75.6 275,72 Z"
         stroke-width="1"
         stroke="#000000"
         fill="#000000"
         id="path2" /><path
         d="M 22,325 H 528 M 275,72 v 506 m 0,-245.75 v -14.5 m 47,14.5 v -14.5 m 47,14.5 v -14.5 m 47,14.5 v -14.5 m 47,14.5 v -14.5 m 47,14.5 v -14.5 m -282,14.5 v -14.5 m -47,14.5 v -14.5 m -47,14.5 v -14.5 m -47,14.5 v -14.5 m -47,14.5 v -14.5 M 282.25,325 h -14.5 m 14.5,47 h -14.5 m 14.5,47 h -14.5 m 14.5,47 h -14.5 m 14.5,47 h -14.5 m 14.5,47 h -14.5 m 14.5,-282 h -14.5 m 14.5,-47 h -14.5 m 14.5,-47 h -14.5 m 14.5,-47 h -14.5 m 14.5,-47 h -14.5"
         stroke-width="2"
         stroke="#000000"
         fill="none"
         id="path3" /><text
         id="null"
         x="322"
         y="356"
         font-style=""
         font-family="KaTeX_Main, serif"
         font-size="29px"
         font-weight="normal"
         text-anchor="middle"
         fill="#000000"
         stroke-width="0px">1</text><text
         id="text3"
         x="369"
         y="356"
         font-style=""
         font-family="KaTeX_Main, serif"
         font-size="29px"
         font-weight="normal"
         text-anchor="middle"
         fill="#000000"
         stroke-width="0px">2</text><text
         id="text4"
         x="416"
         y="356"
         font-style=""
         font-family="KaTeX_Main, serif"
         font-size="29px"
         font-weight="normal"
         text-anchor="middle"
         fill="#000000"
         stroke-width="0px">3</text><text
         id="text5"
         x="463"
         y="356"
         font-style=""
         font-family="KaTeX_Main, serif"
         font-size="29px"
         font-weight="normal"
         text-anchor="middle"
         fill="#000000"
         stroke-width="0px">4</text><text
         id="text6"
         x="510"
         y="356"
         font-style=""
         font-family="KaTeX_Main, serif"
         font-size="29px"
         font-weight="normal"
         text-anchor="middle"
         fill="#000000"
         stroke-width="0px">5</text><text
         id="text7"
         x="228"
         y="356"
         font-style=""
         font-family="KaTeX_Main, serif"
         font-size="29px"
         font-weight="normal"
         text-anchor="middle"
         fill="#000000"
         stroke-width="0px">-1</text><text
         id="text8"
         x="181"
         y="356"
         font-style=""
         font-family="KaTeX_Main, serif"
         font-size="29px"
         font-weight="normal"
         text-anchor="middle"
         fill="#000000"
         stroke-width="0px">-2</text><text
         id="text9"
         x="134"
         y="356"
         font-style=""
         font-family="KaTeX_Main, serif"
         font-size="29px"
         font-weight="normal"
         text-anchor="middle"
         fill="#000000"
         stroke-width="0px">-3</text><text
         id="text10"
         x="87"
         y="356"
         font-style=""
         font-family="KaTeX_Main, serif"
         font-size="29px"
         font-weight="normal"
         text-anchor="middle"
         fill="#000000"
         stroke-width="0px">-4</text><text
         id="text11"
         x="40"
         y="356"
         font-style=""
         font-family="KaTeX_Main, serif"
         font-size="29px"
         font-weight="normal"
         text-anchor="middle"
         fill="#000000"
         stroke-width="0px">-5</text><text
         id="text12"
         x="263.33301"
         y="287.66599"
         font-style=""
         font-family="KaTeX_Main, serif"
         font-size="29px"
         font-weight="normal"
         text-anchor="end"
         fill="#000000"
         stroke-width="0px">1</text><text
         id="text13"
         x="263.33301"
         y="240.666"
         font-style=""
         font-family="KaTeX_Main, serif"
         font-size="29px"
         font-weight="normal"
         text-anchor="end"
         fill="#000000"
         stroke-width="0px">2</text><text
         id="text14"
         x="263.33301"
         y="193.666"
         font-style=""
         font-family="KaTeX_Main, serif"
         font-size="29px"
         font-weight="normal"
         text-anchor="end"
         fill="#000000"
         stroke-width="0px">3</text><text
         id="text15"
         x="263.33301"
         y="146.666"
         font-style=""
         font-family="KaTeX_Main, serif"
         font-size="29px"
         font-weight="normal"
         text-anchor="end"
         fill="#000000"
         stroke-width="0px">4</text><text
         id="text16"
         x="263.33301"
         y="99.666"
         font-style=""
         font-family="KaTeX_Main, serif"
         font-size="29px"
         font-weight="normal"
         text-anchor="end"
         fill="#000000"
         stroke-width="0px">5</text><text
         id="text17"
         x="263.33301"
         y="381.66599"
         font-style=""
         font-family="KaTeX_Main, serif"
         font-size="29px"
         font-weight="normal"
         text-anchor="end"
         fill="#000000"
         stroke-width="0px">-1</text><text
         id="text18"
         x="263.33301"
         y="428.66599"
         font-style=""
         font-family="KaTeX_Main, serif"
         font-size="29px"
         font-weight="normal"
         text-anchor="end"
         fill="#000000"
         stroke-width="0px">-2</text><text
         id="text19"
         x="263.33301"
         y="475.66599"
         font-style=""
         font-family="KaTeX_Main, serif"
         font-size="29px"
         font-weight="normal"
         text-anchor="end"
         fill="#000000"
         stroke-width="0px">-3</text><text
         id="text20"
         x="263.33301"
         y="522.66602"
         font-style=""
         font-family="KaTeX_Main, serif"
         font-size="29px"
         font-weight="normal"
         text-anchor="end"
         fill="#000000"
         stroke-width="0px">-4</text><text
         id="text21"
         x="263.33301"
         y="569.66602"
         font-style=""
         font-family="KaTeX_Main, serif"
         font-size="29px"
         font-weight="normal"
         text-anchor="end"
         fill="#000000"
         stroke-width="0px">-5</text><text
         id="text22"
         x="275"
         y="42.333"
         font-style="italic"
         font-family="KaTeX_Main, serif"
         font-size="29px"
         font-weight="normal"
         text-anchor="middle"
         fill="#000000"
         stroke-width="0px">y</text><text
         id="text23"
         x="557.66602"
         y="334.66599"
         font-style="italic"
         font-family="KaTeX_Main, serif"
         font-size="29px"
         font-weight="normal"
         text-anchor="start"
         fill="#000000"
         stroke-width="0px">x</text><path
         id="path23"
         d="m 275.783,324.898 0.783,-0.184 0.783,-0.24 0.784,-0.283 0.783,-0.322 0.783,-0.356 0.784,-0.386 0.783,-0.416 0.783,-0.442 0.784,-0.467 0.783,-0.492 0.783,-0.514 0.784,-0.536 0.783,-0.558 0.783,-0.577 0.784,-0.597 0.783,-0.617 0.783,-0.634 0.784,-0.653 0.783,-0.669 0.783,-0.687 0.784,-0.704 0.783,-0.719 0.783,-0.735 0.784,-0.751 0.783,-0.766 0.783,-0.781 0.784,-0.796 0.783,-0.809 0.783,-0.824 0.784,-0.838 0.783,-0.851 0.783,-0.865 0.784,-0.878 0.783,-0.891 0.783,-0.904 0.784,-0.916 0.783,-0.929 0.783,-0.941 0.784,-0.954 0.783,-0.965 0.783,-0.977 0.784,-0.989 0.783,-1.001 0.783,-1.012 0.784,-1.023 0.783,-1.034 0.783,-1.046 0.784,-1.056 0.783,-1.067 0.783,-1.078 0.784,-1.089 0.783,-1.099 0.783,-1.109 0.784,-1.12 0.783,-1.13 0.783,-1.141 0.784,-1.15 0.783,-1.16 0.783,-1.17 0.784,-1.18 0.783,-1.19 0.783,-1.199 0.784,-1.209 0.783,-1.218 0.783,-1.227 0.784,-1.237 0.783,-1.247 0.783,-1.255 0.784,-1.265 0.783,-1.273 0.783,-1.283 0.784,-1.292 0.783,-1.3 0.783,-1.309 0.784,-1.319 0.783,-1.326 0.783,-1.336 0.784,-1.344 0.783,-1.352 0.783,-1.361 0.784,-1.37 0.783,-1.377 0.783,-1.387 0.784,-1.394 0.783,-1.403 0.783,-1.41 0.784,-1.419 0.783,-1.427 0.783,-1.435 0.784,-1.443 0.783,-1.451 0.783,-1.459 0.784,-1.467 0.783,-1.475 0.783,-1.482 0.784,-1.49 0.783,-1.498 0.783,-1.506 0.784,-1.513 0.783,-1.52 0.783,-1.529 0.784,-1.535 0.783,-1.544 0.783,-1.55 0.784,-1.558 0.783,-1.566 0.783,-1.573 0.783,-1.58 0.784,-1.587 0.783,-1.595 0.783,-1.601 0.784,-1.609 0.783,-1.616 0.783,-1.624 0.784,-1.63 0.783,-1.637 0.783,-1.644 0.784,-1.652 0.783,-1.658 0.783,-1.665 0.784,-1.672 0.783,-1.679 0.783,-1.686 0.784,-1.692 0.783,-1.7 0.783,-1.706 0.784,-1.713 0.783,-1.719 0.783,-1.726 0.784,-1.733 0.783,-1.74 0.783,-1.746 0.784,-1.752 0.783,-1.76 0.783,-1.765 0.784,-1.773 0.783,-1.778 0.783,-1.786 0.784,-1.791 0.783,-1.798 0.783,-1.805 0.784,-1.811 0.783,-1.817 0.783,-1.823 0.784,-1.83 0.783,-1.836 0.783,-1.842 0.784,-1.849 0.783,-1.854 0.783,-1.861 0.784,-1.867 0.783,-1.874 0.783,-1.879 0.784,-1.886 0.783,-1.891 0.783,-1.898 0.784,-1.904 0.783,-1.909 0.783,-1.916 0.784,-1.922 0.783,-1.928 0.783,-1.933 0.784,-1.94 0.783,-1.945 0.783,-1.952 0.784,-1.957 0.783,-1.963 0.783,-1.97 0.784,-1.974 0.783,-1.981 0.783,-1.987 0.784,-1.992 0.783,-1.998 0.783,-2.004 0.784,-2.009 0.783,-2.016 0.783,-2.021 0.784,-2.026 0.783,-2.033 0.783,-2.038 0.784,-2.043 0.306,-0.801"
         stroke-width="5"
         stroke="#0000ff"
         fill="none" /><path
         d="m 409.861,76.691 14.438,-17.605 -0.987,22.747 -5.44,-5.934 z"
         stroke-width="1"
         stroke="#0000ff"
         fill="#0000ff"
         id="path24" /></g></g></svg>
