<?xml version="1.0" encoding="UTF-8" standalone="no"?>
<!-- Created with Inkscape (http://www.inkscape.org/) -->

<svg
   width="4in"
   height="2.5in"
   viewBox="0 0 101.6 63.5"
   version="1.1"
   id="svg8"
   inkscape:version="1.2.2 (b0a8486541, 2022-12-01)"
   sodipodi:docname="exfig.svg"
   xmlns:inkscape="http://www.inkscape.org/namespaces/inkscape"
   xmlns:sodipodi="http://sodipodi.sourceforge.net/DTD/sodipodi-0.dtd"
   xmlns="http://www.w3.org/2000/svg"
   xmlns:svg="http://www.w3.org/2000/svg"
   xmlns:rdf="http://www.w3.org/1999/02/22-rdf-syntax-ns#"
   xmlns:cc="http://creativecommons.org/ns#"
   xmlns:dc="http://purl.org/dc/elements/1.1/">
  <defs
     id="defs2">
    <marker
       id="marker-arrow-0.5308"
       orient="auto-start-reverse"
       refY="0"
       refX="0"
       markerHeight="1.690"
       markerWidth="0.911">
      <g
         transform="scale(2.153529264004019)"
         id="g549">
        <path
           d="M -1.55415,2.0722 C -1.42464,1.29512 0,0.1295 0.38852,0 0,-0.1295 -1.42464,-1.29512 -1.55415,-2.0722"
           style="fill:none;stroke:#000000;stroke-width:0.6;stroke-linecap:round;stroke-linejoin:round;stroke-miterlimit:10;stroke-dasharray:none;stroke-opacity:1"
           inkscape:connector-curvature="0"
           id="path547" />
      </g>
    </marker>
    <marker
       id="marker-arrow-0.5308-3"
       orient="auto-start-reverse"
       refY="0"
       refX="0"
       markerHeight="1.690"
       markerWidth="0.911">
      <g
         transform="scale(2.153529264004019)"
         id="g564">
        <path
           d="M -1.55415,2.0722 C -1.42464,1.29512 0,0.1295 0.38852,0 0,-0.1295 -1.42464,-1.29512 -1.55415,-2.0722"
           style="fill:none;stroke:#000000;stroke-width:0.6;stroke-linecap:round;stroke-linejoin:round;stroke-miterlimit:10;stroke-dasharray:none;stroke-opacity:1"
           inkscape:connector-curvature="0"
           id="path562" />
      </g>
    </marker>
    <marker
       id="marker-arrow-0.5308-6"
       orient="auto-start-reverse"
       refY="0"
       refX="0"
       markerHeight="1.690"
       markerWidth="0.911">
      <g
         transform="scale(2.153529264004019)"
         id="g577">
        <path
           d="M -1.55415,2.0722 C -1.42464,1.29512 0,0.1295 0.38852,0 0,-0.1295 -1.42464,-1.29512 -1.55415,-2.0722"
           style="fill:none;stroke:#000000;stroke-width:0.6;stroke-linecap:round;stroke-linejoin:round;stroke-miterlimit:10;stroke-dasharray:none;stroke-opacity:1"
           inkscape:connector-curvature="0"
           id="path575" />
      </g>
    </marker>
    <marker
       id="marker-arrow-0.5308-7"
       orient="auto-start-reverse"
       refY="0"
       refX="0"
       markerHeight="1.690"
       markerWidth="0.911">
      <g
         transform="scale(2.153529264004019)"
         id="g658">
        <path
           d="M -1.55415,2.0722 C -1.42464,1.29512 0,0.1295 0.38852,0 0,-0.1295 -1.42464,-1.29512 -1.55415,-2.0722"
           style="fill:none;stroke:#000000;stroke-width:0.6;stroke-linecap:round;stroke-linejoin:round;stroke-miterlimit:10;stroke-dasharray:none;stroke-opacity:1"
           inkscape:connector-curvature="0"
           id="path656" />
      </g>
    </marker>
    <marker
       id="marker-arrow-0.5308-5"
       orient="auto-start-reverse"
       refY="0"
       refX="0"
       markerHeight="1.690"
       markerWidth="0.911">
      <g
         transform="scale(2.153529264004019)"
         id="g671">
        <path
           d="M -1.55415,2.0722 C -1.42464,1.29512 0,0.1295 0.38852,0 0,-0.1295 -1.42464,-1.29512 -1.55415,-2.0722"
           style="fill:none;stroke:#000000;stroke-width:0.6;stroke-linecap:round;stroke-linejoin:round;stroke-miterlimit:10;stroke-dasharray:none;stroke-opacity:1"
           inkscape:connector-curvature="0"
           id="path669" />
      </g>
    </marker>
  </defs>
  <sodipodi:namedview
     id="base"
     pagecolor="#ffffff"
     bordercolor="#666666"
     borderopacity="1.0"
     inkscape:pageopacity="0.0"
     inkscape:pageshadow="2"
     inkscape:zoom="2.526044"
     inkscape:cx="141.92152"
     inkscape:cy="107.48031"
     inkscape:document-units="mm"
     inkscape:current-layer="layer1"
     showgrid="false"
     showborder="true"
     width="200mm"
     showguides="true"
     inkscape:guide-bbox="true"
     inkscape:window-width="1549"
     inkscape:window-height="1056"
     inkscape:window-x="159"
     inkscape:window-y="10"
     inkscape:window-maximized="1"
     inkscape:showpageshadow="2"
     inkscape:pagecheckerboard="0"
     inkscape:deskcolor="#d1d1d1">
    <inkscape:grid
       type="xygrid"
       id="grid815"
       units="mm"
       spacingx="10"
       spacingy="10"
       empspacing="4"
       dotted="false"
       originx="0"
       originy="0" />
  </sodipodi:namedview>
  <metadata
     id="metadata5">
    <rdf:RDF>
      <cc:Work
         rdf:about="">
        <dc:format>image/svg+xml</dc:format>
        <dc:type
           rdf:resource="http://purl.org/dc/dcmitype/StillImage" />
      </cc:Work>
    </rdf:RDF>
  </metadata>
  <g
     inkscape:label="Layer 1"
     inkscape:groupmode="layer"
     id="layer1"
     transform="translate(0,-177)">
    <path
       style="fill:#000000;stroke-width:0.264583"
       d="M 5.2278316,192.86912 60.542391,194.5438"
       id="path125" />
    <path
       style="fill:#000000;stroke-width:0.264583"
       d="m 5.4668655,218.47731 c 0.082125,-0.1387 0.1642499,-0.2774 0.2463747,-0.4161"
       id="path129" />
    <path
       style="fill:none;fill-opacity:1;stroke:#000000;stroke-width:0.140441;stroke-linecap:butt;stroke-linejoin:miter;stroke-dasharray:none;stroke-opacity:1;marker-start:url(#marker-arrow-0.5308);marker-end:url(#marker-arrow-0.5308)"
       d="M 14.1246,217.08816 H 78.268808"
       id="path560" />
    <path
       style="fill:none;stroke:#000000;stroke-width:0.264583px;stroke-linecap:butt;stroke-linejoin:miter;stroke-opacity:1"
       d="m 22.851772,215.47958 v 3.72921"
       id="path588" />
    <path
       style="fill:none;stroke:#000000;stroke-width:0.264583px;stroke-linecap:butt;stroke-linejoin:miter;stroke-opacity:1"
       d="m 64.233242,216.27043 v 3.60886"
       id="path590" />
    <text
       xml:space="preserve"
       style="font-size:4.9389px;fill:none;fill-opacity:1;stroke:#000000;stroke-width:0.140441;stroke-dasharray:none;stroke-opacity:1;marker-start:url(#marker-arrow-0.5308);marker-end:url(#marker-arrow-0.5308)"
       x="21.555288"
       y="224.23799"
       id="text594"><tspan
         sodipodi:role="line"
         id="tspan592"
         style="stroke-width:0.140441"
         x="21.555288"
         y="224.23799">3</tspan><tspan
         sodipodi:role="line"
         style="stroke-width:0.140441"
         x="21.555288"
         y="230.41162"
         id="tspan596" /></text>
    <text
       xml:space="preserve"
       style="font-size:4.9389px;fill:none;fill-opacity:1;stroke:#000000;stroke-width:0.140441;stroke-dasharray:none;stroke-opacity:1;marker-start:url(#marker-arrow-0.5308);marker-end:url(#marker-arrow-0.5308)"
       x="62.864002"
       y="224.89627"
       id="text650"><tspan
         sodipodi:role="line"
         id="tspan648"
         style="stroke-width:0.140441"
         x="62.864002"
         y="224.89627">4</tspan><tspan
         sodipodi:role="line"
         style="stroke-width:0.140441"
         x="62.864002"
         y="231.0699"
         id="tspan652" /></text>
    <path
       style="fill:black;fill-opacity:1;stroke:black;stroke-width:0.14044083;stroke-dasharray:none;stroke-opacity:1;marker-start:none;marker-end:none"
       id="path654"
       d="m 16.458252,214.46849 c 0.310057,-0.47403 0.649285,-0.92838 0.959682,-1.40211 0.930003,-1.41937 1.611815,-2.56538 2.51098,-4.04322 4.734601,-7.7817 -1.640626,2.68528 2.831676,-4.65576 0.38942,-0.63809 0.778841,-1.27617 1.168261,-1.91425 0,0 -0.26809,-0.15566 -0.26809,-0.15566 v 0 c -0.389424,0.63809 -0.778848,1.27618 -1.168273,1.91428 -4.490506,7.37093 1.922377,-3.15788 -2.831671,4.65574 -0.899368,1.47818 -1.580023,2.62228 -2.510114,4.04175 -0.310924,0.47452 -0.650827,0.92956 -0.96112,1.40458 0,0 0.268669,0.15465 0.268669,0.15465 z" />
    <path
       style="fill:#000000;fill-opacity:1;stroke:#000000;stroke-width:0.140441;stroke-dasharray:none;stroke-opacity:1;marker-start:none;marker-end:none"
       id="path688"
       d="m 30.862161,202.77883 c 1.3217,1.00777 2.711823,1.92437 4.071546,2.88011 2.565926,1.79574 5.096277,3.64062 7.579675,5.54873 1.238276,0.96543 2.475881,1.93127 3.738779,2.86437 0.437031,0.3178 0.878001,0.63022 1.320332,0.9406 0.168309,0.1173 0.332772,0.23985 0.500748,0.35761 0.100105,0.0668 0.2003,0.13349 0.300884,0.19958 0,0 0.288761,0.11277 0.288761,0.11277 v 0 c -0.100497,-0.0661 -0.200623,-0.13276 -0.301215,-0.19874 -0.168156,-0.11754 -0.33278,-0.23978 -0.500761,-0.35757 -0.442169,-0.31051 -0.883502,-0.6223 -1.320607,-0.9399 -1.263163,-0.93267 -2.501125,-1.89795 -3.738996,-2.86383 -2.483102,-1.90869 -5.013167,-3.75414 -7.579191,-5.54995 -1.359405,-0.95588 -2.747457,-1.8742 -4.07293,-2.87667 0,0 -0.287025,-0.11711 -0.287025,-0.11711 z" />
    <path
       style="fill:#000000;fill-opacity:1;stroke:#000000;stroke-width:0.140441;stroke-dasharray:none;stroke-opacity:1;marker-start:none;marker-end:none"
       id="path690"
       d="m 68.843535,214.86912 c 1.056629,-1.38579 2.196287,-2.70814 3.322261,-4.03775 1.341644,-1.57722 2.728733,-3.11631 4.023736,-4.7328 0.621768,-0.77612 0.708988,-0.9082 1.264693,-1.66088 0.369567,-0.50972 0.719838,-1.03269 1.048186,-1.56975 0,0 -0.268076,-0.15568 -0.268076,-0.15568 v 0 c -0.327906,0.53628 -0.677748,1.05845 -1.046818,1.56742 -0.555361,0.75207 -0.642485,0.88399 -1.263896,1.65955 -1.295014,1.61626 -2.682015,3.1552 -4.023474,4.73236 -1.126826,1.33069 -2.267723,2.65391 -3.324416,4.04139 0,0 0.267804,0.15614 0.267804,0.15614 z" />
  </g>
</svg>
