<?xml version="1.0" encoding="UTF-8" standalone="no"?>
<!-- Created with Inkscape (http://www.inkscape.org/) -->

<svg
   width="3in"
   height="1.5in"
   viewBox="0 0 76.2 38.1"
   version="1.1"
   id="svg8"
   inkscape:version="1.3 (0e150ed6c4, 2023-07-21)"
   sodipodi:docname="aoeu.svg"
   xmlns:inkscape="http://www.inkscape.org/namespaces/inkscape"
   xmlns:sodipodi="http://sodipodi.sourceforge.net/DTD/sodipodi-0.dtd"
   xmlns="http://www.w3.org/2000/svg"
   xmlns:svg="http://www.w3.org/2000/svg"
   xmlns:rdf="http://www.w3.org/1999/02/22-rdf-syntax-ns#"
   xmlns:cc="http://creativecommons.org/ns#"
   xmlns:dc="http://purl.org/dc/elements/1.1/">
  <defs
     id="defs2">
    <inkscape:path-effect
       effect="powerstroke"
       id="path-effect13"
       is_visible="true"
       lpeversion="1.3"
       scale_width="1"
       interpolator_type="CentripetalCatmullRom"
       interpolator_beta="0.75"
       start_linecap_type="peak"
       end_linecap_type="peak"
       offset_points="3.9996607,0.26608033"
       linejoin_type="spiro"
       miter_limit="4"
       not_jump="true"
       sort_points="true"
       message="&lt;b&gt;Ctrl + click&lt;/b&gt; on existing node and move it" />
    <inkscape:path-effect
       effect="simplify"
       id="path-effect11"
       is_visible="true"
       lpeversion="1.3"
       threshold="0.037633136"
       steps="1"
       smooth_angles="0"
       helper_size="0"
       simplify_individual_paths="false"
       simplify_just_coalesce="false"
       step="1" />
    <inkscape:path-effect
       effect="powerstroke"
       id="path-effect9"
       is_visible="true"
       lpeversion="1.3"
       scale_width="1"
       interpolator_type="CentripetalCatmullRom"
       interpolator_beta="0.75"
       start_linecap_type="peak"
       end_linecap_type="peak"
       offset_points="3.9996607,0.26608033"
       linejoin_type="spiro"
       miter_limit="4"
       not_jump="true"
       sort_points="true"
       message="&lt;b&gt;Ctrl + click&lt;/b&gt; on existing node and move it" />
    <inkscape:path-effect
       effect="simplify"
       id="path-effect8"
       is_visible="true"
       lpeversion="1.3"
       threshold="0.037633136"
       steps="1"
       smooth_angles="0"
       helper_size="0"
       simplify_individual_paths="false"
       simplify_just_coalesce="false"
       step="1" />
    <inkscape:path-effect
       effect="powerstroke"
       id="path-effect7"
       is_visible="true"
       lpeversion="1.3"
       scale_width="1"
       interpolator_type="CentripetalCatmullRom"
       interpolator_beta="0.75"
       start_linecap_type="peak"
       end_linecap_type="peak"
       offset_points="5.5577315,0.26608033"
       linejoin_type="spiro"
       miter_limit="4"
       not_jump="true"
       sort_points="true"
       message="&lt;b&gt;Ctrl + click&lt;/b&gt; on existing node and move it" />
    <inkscape:path-effect
       effect="simplify"
       id="path-effect6"
       is_visible="true"
       lpeversion="1.3"
       threshold="0.037633136"
       steps="1"
       smooth_angles="0"
       helper_size="0"
       simplify_individual_paths="false"
       simplify_just_coalesce="false"
       step="1" />
    <inkscape:perspective
       sodipodi:type="inkscape:persp3d"
       inkscape:vp_x="0 : 6.35 : 1"
       inkscape:vp_y="0 : 1000 : 0"
       inkscape:vp_z="63.5 : 6.35 : 1"
       inkscape:persp3d-origin="31.75 : -4.233333 : 1"
       id="perspective1" />
  </defs>
  <sodipodi:namedview
     id="base"
     pagecolor="#ffffff"
     bordercolor="#666666"
     borderopacity="1.0"
     inkscape:pageopacity="0.0"
     inkscape:pageshadow="2"
     inkscape:zoom="13.833333"
     inkscape:cx="23.638554"
     inkscape:cy="51.180723"
     inkscape:document-units="mm"
     inkscape:current-layer="layer1"
     showgrid="false"
     showborder="true"
     width="200mm"
     showguides="true"
     inkscape:guide-bbox="true"
     inkscape:window-width="1896"
     inkscape:window-height="1034"
     inkscape:window-x="10"
     inkscape:window-y="10"
     inkscape:window-maximized="1"
     inkscape:showpageshadow="2"
     inkscape:pagecheckerboard="0"
     inkscape:deskcolor="#d1d1d1">
    <inkscape:grid
       type="xygrid"
       id="grid815"
       units="mm"
       spacingx="10"
       spacingy="10"
       empspacing="4"
       dotted="false"
       originx="0"
       originy="0"
       visible="false" />
  </sodipodi:namedview>
  <metadata
     id="metadata5">
    <rdf:RDF>
      <cc:Work
         rdf:about="">
        <dc:format>image/svg+xml</dc:format>
        <dc:type
           rdf:resource="http://purl.org/dc/dcmitype/StillImage" />
      </cc:Work>
    </rdf:RDF>
  </metadata>
  <g
     inkscape:label="Layer 1"
     inkscape:groupmode="layer"
     id="layer1"
     transform="translate(0,-177)">
    <path
       style="fill:none;stroke:#000000;stroke-width:0.17855px;stroke-linecap:butt;stroke-linejoin:miter;stroke-opacity:1"
       d="M 15.561372,208.75877 H 59.575156"
       id="path6" />
    <path
       d="m 3.9404742,225.7611 c 0.2374222,0.0223 0.5691331,0.0365 0.97996,0.001 0.3223095,-0.0277 0.6743492,-0.0838 1.0714005,-0.17807 0.3883737,-0.0922 0.7773926,-0.21017 1.2131979,-0.35537 0.4322468,-0.14395 0.8837475,-0.30748 1.362058,-0.4598 0.2108789,-0.0671 0.4680764,-0.14481 0.7390082,-0.21184 0.8256422,-0.20414 1.7183602,-0.4782 2.6367272,-0.84923 0.750652,-0.30313 1.528053,-0.67512 2.305523,-1.13017 0.681904,-0.39892 1.365831,-0.86304 2.033506,-1.39798 0.630529,-0.50496 1.244503,-1.07138 1.830555,-1.69978 0.527847,-0.56579 1.031071,-1.17956 1.505085,-1.83954 0.457709,-0.6372 0.885479,-1.31355 1.282501,-2.02656 0.397479,-0.7138 0.761641,-1.45962 1.09421,-2.235 0.332372,-0.77495 0.63131,-1.57487 0.899927,-2.39793 0.294724,-0.90317 0.551005,-1.82809 0.773724,-2.77294 0.07695,-0.32671 0.178279,-0.65152 0.296364,-0.97796 0.151181,-0.41813 0.324913,-0.82698 0.505293,-1.2513 0.172922,-0.40671 0.351497,-0.82705 0.507711,-1.25602 0.06448,-0.17714 0.12629,-0.35798 0.182298,-0.54218 0.113771,-0.37323 0.205449,-0.75119 0.288073,-1.12837 0.115388,-0.52684 0.212695,-1.05267 0.328081,-1.57949 0.127141,-0.58109 0.281788,-1.15689 0.45616,-1.72778 0.21876,-0.71622 0.468038,-1.42361 0.732991,-2.12541 0.357165,-0.94596 0.743652,-1.88375 1.124437,-2.82066 0.125223,-0.30804 0.24909,-0.61442 0.371334,-0.92113 0.111585,-0.27942 0.225177,-0.56185 0.325946,-0.85107 0.0427,-0.12261 0.08282,-0.24575 0.119332,-0.36996 0.115984,-0.39426 0.230589,-0.77882 0.351762,-1.16076 0.116689,-0.36718 0.236533,-0.72258 0.370272,-1.06951 0.113718,-0.29504 0.236367,-0.57903 0.371741,-0.85173 0.126923,-0.25611 0.265012,-0.50203 0.410835,-0.73737 0.184665,-0.29827 0.383896,-0.58423 0.58618,-0.85777 0.102935,-0.13937 0.221981,-0.26308 0.349686,-0.37056 0.154352,-0.13012 0.323824,-0.23937 0.496438,-0.33278 0.214345,-0.11601 0.439118,-0.21122 0.657169,-0.29489 0.3741,-0.14347 0.789389,-0.27401 1.163524,-0.4175 0.246061,-0.094 0.466158,-0.18915 0.673461,-0.29916 0.225818,-0.11988 0.412383,-0.24559 0.56997,-0.37758 l 0.03313,-0.37483 -0.374833,-0.0331 c -0.126146,0.10566 -0.281177,0.21113 -0.477751,0.31549 -0.181819,0.0965 -0.380434,0.18287 -0.613812,0.27206 -0.396543,0.1513 -0.767601,0.26645 -1.164283,0.4178 -0.228624,0.0877 -0.477074,0.19232 -0.719858,0.32372 -0.196371,0.10627 -0.397772,0.23512 -0.58599,0.39379 -0.156541,0.13175 -0.305002,0.28552 -0.434817,0.46128 -0.208062,0.28136 -0.416169,0.57976 -0.610624,0.89385 -0.153945,0.24845 -0.300321,0.50903 -0.435162,0.78112 -0.143762,0.2896 -0.272908,0.58898 -0.391548,0.89679 -0.139066,0.36074 -0.262521,0.72727 -0.380931,1.09986 -0.122978,0.38763 -0.238875,0.77659 -0.3551,1.17167 -0.03364,0.11444 -0.07097,0.22914 -0.111331,0.34504 -0.09607,0.27573 -0.204829,0.54634 -0.317678,0.82893 -0.121685,0.30531 -0.245052,0.61045 -0.370051,0.91795 -0.379324,0.93331 -0.769146,1.87919 -1.129301,2.83307 -0.267635,0.7089 -0.521012,1.42759 -0.744084,2.15793 -0.177866,0.58232 -0.336384,1.17218 -0.467056,1.7694 -0.114757,0.52372 -0.213299,1.05565 -0.328073,1.57945 -0.08106,0.37005 -0.169274,0.73278 -0.277327,1.08725 -0.05261,0.17303 -0.111162,0.34454 -0.173253,0.5151 -0.150623,0.41362 -0.323648,0.82121 -0.497405,1.22988 -0.179426,0.42208 -0.359017,0.84436 -0.515992,1.27853 -0.123243,0.34069 -0.231172,0.68564 -0.313902,1.03689 -0.219591,0.93159 -0.471938,1.84208 -0.76165,2.7299 -0.264042,0.80903 -0.55745,1.59398 -0.883098,2.35325 -0.325831,0.75967 -0.682027,1.48901 -1.070075,2.18587 -0.387578,0.69605 -0.804501,1.35511 -1.249784,1.97501 -0.461119,0.64203 -0.949993,1.23818 -1.462011,1.78701 -0.568439,0.60951 -1.163508,1.15843 -1.774105,1.64742 -0.646716,0.51815 -1.308972,0.96756 -1.969572,1.35402 -0.753233,0.44086 -1.507147,0.80168 -2.236063,1.09604 -0.891903,0.36033 -1.7602924,0.62705 -2.5651894,0.82607 -0.286907,0.071 -0.5564157,0.15255 -0.7721767,0.22119 -0.4926652,0.15688 -0.9450494,0.32087 -1.3692983,0.46216 -0.4282482,0.14267 -0.8008705,0.25531 -1.167996,0.34249 -0.3741141,0.0889 -0.7001977,0.1404 -0.9940455,0.16563 -0.3738338,0.0322 -0.6730839,0.0192 -0.8844919,-7.1e-4 l -0.2898353,0.23999 z"
       id="path-1"
       inkscape:path-effect="#path-effect8;#path-effect9"
       inkscape:original-d="m 3.9653992,225.49619 c 1.8770456,0.17604 3.5836646,-0.77862 5.2767998,-1.19737 3.915753,-0.96844 6.89124,-2.91331 9.131758,-5.50869 0.412913,-0.47831 0.800864,-0.97871 1.165136,-1.49917 0.417853,-0.59701 0.80455,-1.22041 1.162032,-1.86712 0.29837,-0.53977 0.576388,-1.09578 0.835181,-1.66623 0.229537,-0.50597 0.443951,-1.0233 0.644027,-1.55074 0.155082,-0.40884 0.301551,-0.82375 0.439772,-1.24415 0.300697,-0.91458 0.562362,-1.85518 0.788769,-2.81579 0.315421,-1.33829 0.988837,-2.51229 1.424514,-3.81932 0.317193,-0.95158 0.476958,-1.98677 0.695091,-2.96955 0.06116,-0.27554 0.128355,-0.54981 0.200803,-0.82294 0.298945,-1.12705 0.687261,-2.23464 1.109223,-3.33121 0.435678,-1.13221 0.907224,-2.25265 1.353302,-3.3706 0.167757,-0.42043 0.335424,-0.83199 0.458789,-1.2517 0.676597,-2.30189 1.028313,-3.26772 2.132133,-4.76031 0.932232,-1.26057 2.850505,-1.21482 3.953333,-2.13824"
       style="fill:#000000;fill-rule:nonzero;stroke:none;stroke-width:1.39465;stroke-linejoin:bevel;paint-order:markers fill stroke"
       sodipodi:nodetypes="ccssssssssssssssc"
       transform="matrix(0.64638129,0,0,0.70454527,15.276289,49.028668)" />
    <path
       d="m 3.9404742,225.7611 c 0.2374222,0.0223 0.5691331,0.0365 0.97996,0.001 0.3223095,-0.0277 0.6743492,-0.0838 1.0714005,-0.17807 0.3883737,-0.0922 0.7773926,-0.21017 1.2131979,-0.35537 0.4322468,-0.14395 0.8837475,-0.30748 1.362058,-0.4598 0.2108789,-0.0671 0.4680764,-0.14481 0.7390082,-0.21184 0.8256422,-0.20414 1.7183602,-0.4782 2.6367272,-0.84923 0.750652,-0.30313 1.528053,-0.67512 2.305523,-1.13017 0.681904,-0.39892 1.365831,-0.86304 2.033506,-1.39798 0.630529,-0.50496 1.244503,-1.07138 1.830555,-1.69978 0.527847,-0.56579 1.031071,-1.17956 1.505085,-1.83954 0.457709,-0.6372 0.885479,-1.31355 1.282501,-2.02656 0.397479,-0.7138 0.761641,-1.45962 1.09421,-2.235 0.332372,-0.77495 0.63131,-1.57487 0.899927,-2.39793 0.294724,-0.90317 0.551005,-1.82809 0.773724,-2.77294 0.07695,-0.32671 0.178279,-0.65152 0.296364,-0.97796 0.151181,-0.41813 0.324913,-0.82698 0.505293,-1.2513 0.172922,-0.40671 0.351497,-0.82705 0.507711,-1.25602 0.06448,-0.17714 0.12629,-0.35798 0.182298,-0.54218 0.113771,-0.37323 0.205449,-0.75119 0.288073,-1.12837 0.115388,-0.52684 0.212695,-1.05267 0.328081,-1.57949 0.127141,-0.58109 0.281788,-1.15689 0.45616,-1.72778 0.21876,-0.71622 0.468038,-1.42361 0.732991,-2.12541 0.357165,-0.94596 0.743652,-1.88375 1.124437,-2.82066 0.125223,-0.30804 0.24909,-0.61442 0.371334,-0.92113 0.111585,-0.27942 0.225177,-0.56185 0.325946,-0.85107 0.0427,-0.12261 0.08282,-0.24575 0.119332,-0.36996 0.115984,-0.39426 0.230589,-0.77882 0.351762,-1.16076 0.116689,-0.36718 0.236533,-0.72258 0.370272,-1.06951 0.113718,-0.29504 0.236367,-0.57903 0.371741,-0.85173 0.126923,-0.25611 0.265012,-0.50203 0.410835,-0.73737 0.184665,-0.29827 0.383896,-0.58423 0.58618,-0.85777 0.102935,-0.13937 0.221981,-0.26308 0.349686,-0.37056 0.154352,-0.13012 0.323824,-0.23937 0.496438,-0.33278 0.214345,-0.11601 0.439118,-0.21122 0.657169,-0.29489 0.3741,-0.14347 0.789389,-0.27401 1.163524,-0.4175 0.246061,-0.094 0.466158,-0.18915 0.673461,-0.29916 0.225818,-0.11988 0.412383,-0.24559 0.56997,-0.37758 l 0.03313,-0.37483 -0.374833,-0.0331 c -0.126146,0.10566 -0.281177,0.21113 -0.477751,0.31549 -0.181819,0.0965 -0.380434,0.18287 -0.613812,0.27206 -0.396543,0.1513 -0.767601,0.26645 -1.164283,0.4178 -0.228624,0.0877 -0.477074,0.19232 -0.719858,0.32372 -0.196371,0.10627 -0.397772,0.23512 -0.58599,0.39379 -0.156541,0.13175 -0.305002,0.28552 -0.434817,0.46128 -0.208062,0.28136 -0.416169,0.57976 -0.610624,0.89385 -0.153945,0.24845 -0.300321,0.50903 -0.435162,0.78112 -0.143762,0.2896 -0.272908,0.58898 -0.391548,0.89679 -0.139066,0.36074 -0.262521,0.72727 -0.380931,1.09986 -0.122978,0.38763 -0.238875,0.77659 -0.3551,1.17167 -0.03364,0.11444 -0.07097,0.22914 -0.111331,0.34504 -0.09607,0.27573 -0.204829,0.54634 -0.317678,0.82893 -0.121685,0.30531 -0.245052,0.61045 -0.370051,0.91795 -0.379324,0.93331 -0.769146,1.87919 -1.129301,2.83307 -0.267635,0.7089 -0.521012,1.42759 -0.744084,2.15793 -0.177866,0.58232 -0.336384,1.17218 -0.467056,1.7694 -0.114757,0.52372 -0.213299,1.05565 -0.328073,1.57945 -0.08106,0.37005 -0.169274,0.73278 -0.277327,1.08725 -0.05261,0.17303 -0.111162,0.34454 -0.173253,0.5151 -0.150623,0.41362 -0.323648,0.82121 -0.497405,1.22988 -0.179426,0.42208 -0.359017,0.84436 -0.515992,1.27853 -0.123243,0.34069 -0.231172,0.68564 -0.313902,1.03689 -0.219591,0.93159 -0.471938,1.84208 -0.76165,2.7299 -0.264042,0.80903 -0.55745,1.59398 -0.883098,2.35325 -0.325831,0.75967 -0.682027,1.48901 -1.070075,2.18587 -0.387578,0.69605 -0.804501,1.35511 -1.249784,1.97501 -0.461119,0.64203 -0.949993,1.23818 -1.462011,1.78701 -0.568439,0.60951 -1.163508,1.15843 -1.774105,1.64742 -0.646716,0.51815 -1.308972,0.96756 -1.969572,1.35402 -0.753233,0.44086 -1.507147,0.80168 -2.236063,1.09604 -0.891903,0.36033 -1.7602924,0.62705 -2.5651894,0.82607 -0.286907,0.071 -0.5564157,0.15255 -0.7721767,0.22119 -0.4926652,0.15688 -0.9450494,0.32087 -1.3692983,0.46216 -0.4282482,0.14267 -0.8008705,0.25531 -1.167996,0.34249 -0.3741141,0.0889 -0.7001977,0.1404 -0.9940455,0.16563 -0.3738338,0.0322 -0.6730839,0.0192 -0.8844919,-7.1e-4 l -0.2898353,0.23999 z"
       id="path9"
       inkscape:path-effect="#path-effect11;#path-effect13"
       inkscape:original-d="m 3.9653992,225.49619 c 1.8770456,0.17604 3.5836646,-0.77862 5.2767998,-1.19737 3.915753,-0.96844 6.89124,-2.91331 9.131758,-5.50869 0.412913,-0.47831 0.800864,-0.97871 1.165136,-1.49917 0.417853,-0.59701 0.80455,-1.22041 1.162032,-1.86712 0.29837,-0.53977 0.576388,-1.09578 0.835181,-1.66623 0.229537,-0.50597 0.443951,-1.0233 0.644027,-1.55074 0.155082,-0.40884 0.301551,-0.82375 0.439772,-1.24415 0.300697,-0.91458 0.562362,-1.85518 0.788769,-2.81579 0.315421,-1.33829 0.988837,-2.51229 1.424514,-3.81932 0.317193,-0.95158 0.476958,-1.98677 0.695091,-2.96955 0.06116,-0.27554 0.128355,-0.54981 0.200803,-0.82294 0.298945,-1.12705 0.687261,-2.23464 1.109223,-3.33121 0.435678,-1.13221 0.907224,-2.25265 1.353302,-3.3706 0.167757,-0.42043 0.335424,-0.83199 0.458789,-1.2517 0.676597,-2.30189 1.028313,-3.26772 2.132133,-4.76031 0.932232,-1.26057 2.850505,-1.21482 3.953333,-2.13824"
       style="fill:#000000;fill-rule:nonzero;stroke:none;stroke-width:1.39465;stroke-linejoin:bevel;paint-order:markers fill stroke"
       sodipodi:nodetypes="ccssssssssssssssc"
       transform="matrix(-0.64638129,0,0,0.70454527,60.294848,48.935882)" />
    <path
       style="fill:none;stroke:#000000;stroke-width:0.179507;stroke-linecap:butt;stroke-linejoin:miter;stroke-dasharray:0.53852, 0.179507;stroke-dashoffset:0;stroke-opacity:1"
       d="M 31.648401,208.83929 V 191.17445"
       id="path13" />
    <path
       style="fill:none;stroke:#000000;stroke-width:0.17855px;stroke-linecap:butt;stroke-linejoin:miter;stroke-dasharray:0.535651, 0.17855;stroke-dashoffset:0;stroke-opacity:1"
       d="m 37.875704,208.71869 v -28.48"
       id="path14" />
    <text
       style="font-size:1.7855px;font-family:monospace;-inkscape-font-specification:'monospace, Normal';fill:#000000;fill-opacity:1;stroke:none;stroke-width:0.17855"
       xml:space="preserve"
       id="text1"
       y="203.06129"
       x="60.813789"
       transform="scale(0.95783331,1.044023)"><tspan
         sodipodi:role="line"
         id="tspan1"
         x="60.813789"
         y="203.06129"
         style="stroke-width:0.17855">$\hat{p}$</tspan></text>
    <text
       style="font-size:1.7855px;font-family:monospace;-inkscape-font-specification:'monospace, Normal';fill:#000000;fill-opacity:1;stroke:none;stroke-width:0.17855"
       xml:space="preserve"
       id="text1-3"
       y="203.20892"
       x="28.847425"
       transform="scale(0.95783331,1.044023)"><tspan
         sodipodi:role="line"
         id="tspan1-6"
         x="28.847425"
         y="203.20892"
         style="stroke-width:0.17855">$0.367$</tspan></text>
    <text
       style="font-size:1.7855px;font-family:monospace;-inkscape-font-specification:'monospace, Normal';fill:#000000;fill-opacity:1;stroke:none;stroke-width:0.17855"
       xml:space="preserve"
       id="text1-7"
       y="202.99026"
       x="38.08831"
       transform="scale(0.95783331,1.044023)"><tspan
         sodipodi:role="line"
         id="tspan1-5"
         x="38.08831"
         y="202.99026"
         style="stroke-width:0.17855">$0.42$</tspan></text>
    <path
       style="fill:#ff9191;fill-opacity:1;stroke-width:0.031303;stroke-linejoin:bevel;stroke-dasharray:none;stroke-dashoffset:0;paint-order:markers fill stroke"
       d="m 17.870794,208.38157 v -0.26948 h 0.256883 c 0.576289,0 1.035711,-0.10959 2.160651,-0.51537 0.42626,-0.15376 0.939483,-0.32695 1.140496,-0.38486 0.524542,-0.15115 0.831416,-0.25556 1.246922,-0.42427 1.893637,-0.76885 3.465517,-1.97677 4.742037,-3.64401 1.398321,-1.82632 2.431619,-4.19686 3.094662,-7.09959 0.181069,-0.7927 0.214547,-0.89937 0.59576,-1.8981 0.125446,-0.32864 0.274469,-0.73462 0.331167,-0.90217 l 0.103081,-0.30463 7.11e-4,7.85598 7.11e-4,7.85598 h -6.836504 -6.836577 z"
       id="path18" />
    <path
       style="fill:none;stroke:#000000;stroke-width:0.17855px;stroke-linecap:butt;stroke-linejoin:miter;stroke-opacity:1"
       d="M 16.029496,190.84865 C 16.25264,191.147 27.31933,204.7259 27.31933,204.7259"
       id="path19" />
    <text
       style="font-size:1.2452px;font-family:monospace;-inkscape-font-specification:'monospace, Normal';fill:#000000;fill-opacity:1;stroke:none;stroke-width:0.12452"
       xml:space="preserve"
       id="text1-9"
       y="83.89827"
       x="-10.903075"
       transform="scale(0.44284261,2.2581386)"><tspan
         sodipodi:role="line"
         id="tspan1-1"
         x="-10.903075"
         y="83.89827"
         style="stroke-width:0.12452">$P(\hat{p}&lt;0.367) =$ $P$-value \\ $= 0.207$</tspan></text>
  </g>
</svg>
