<?xml version="1.0" encoding="UTF-8" standalone="no"?>
<!-- Created with Inkscape (http://www.inkscape.org/) -->

<svg
   width="3in"
   height="2.5in"
   viewBox="0 0 76.2 63.5"
   version="1.1"
   id="svg8"
   inkscape:version="1.2.2 (b0a8486541, 2022-12-01)"
   sodipodi:docname="figza.svg"
   xmlns:inkscape="http://www.inkscape.org/namespaces/inkscape"
   xmlns:sodipodi="http://sodipodi.sourceforge.net/DTD/sodipodi-0.dtd"
   xmlns="http://www.w3.org/2000/svg"
   xmlns:svg="http://www.w3.org/2000/svg"
   xmlns:rdf="http://www.w3.org/1999/02/22-rdf-syntax-ns#"
   xmlns:cc="http://creativecommons.org/ns#"
   xmlns:dc="http://purl.org/dc/elements/1.1/">
  <defs
     id="defs2">
    <marker
       style="overflow:visible"
       id="Arrow1"
       refX="0"
       refY="0"
       orient="auto-start-reverse"
       inkscape:stockid="Arrow1"
       markerWidth="4.0606604"
       markerHeight="6.7071066"
       viewBox="0 0 4.0606602 6.7071068"
       inkscape:isstock="true"
       inkscape:collect="always"
       preserveAspectRatio="xMidYMid">
      <path
         style="fill:none;stroke:context-stroke;stroke-width:1;stroke-linecap:butt"
         d="M 3,-3 0,0 3,3"
         id="path5057"
         transform="rotate(180,0.125,0)"
         sodipodi:nodetypes="ccc" />
    </marker>
    <inkscape:path-effect
       effect="powerstroke"
       id="path-effect540"
       is_visible="true"
       lpeversion="1"
       offset_points="0.3282142,0.26608033"
       not_jump="true"
       sort_points="true"
       interpolator_type="CentripetalCatmullRom"
       interpolator_beta="0.75"
       start_linecap_type="peak"
       linejoin_type="spiro"
       miter_limit="4"
       scale_width="1"
       end_linecap_type="peak" />
    <inkscape:path-effect
       effect="simplify"
       id="path-effect536"
       is_visible="true"
       lpeversion="1"
       steps="1"
       threshold="0.037633136"
       smooth_angles="0"
       helper_size="0"
       simplify_individual_paths="false"
       simplify_just_coalesce="false"
       step="1" />
    <inkscape:path-effect
       effect="powerstroke"
       id="path-effect528"
       is_visible="true"
       lpeversion="1"
       offset_points="0.3282142,0.26608033"
       not_jump="true"
       sort_points="true"
       interpolator_type="CentripetalCatmullRom"
       interpolator_beta="0.75"
       start_linecap_type="peak"
       linejoin_type="spiro"
       miter_limit="4"
       scale_width="1"
       end_linecap_type="peak" />
    <inkscape:path-effect
       effect="simplify"
       id="path-effect526"
       is_visible="true"
       lpeversion="1"
       steps="1"
       threshold="0.037633136"
       smooth_angles="0"
       helper_size="0"
       simplify_individual_paths="false"
       simplify_just_coalesce="false"
       step="1" />
    <inkscape:path-effect
       effect="powerstroke"
       id="path-effect317"
       is_visible="true"
       lpeversion="1"
       offset_points="0.42068,0.26608033"
       not_jump="true"
       sort_points="true"
       interpolator_type="CentripetalCatmullRom"
       interpolator_beta="0.75"
       start_linecap_type="peak"
       linejoin_type="spiro"
       miter_limit="4"
       scale_width="1"
       end_linecap_type="peak" />
    <inkscape:path-effect
       effect="simplify"
       id="path-effect315"
       is_visible="true"
       lpeversion="1"
       steps="1"
       threshold="0.037633136"
       smooth_angles="0"
       helper_size="0"
       simplify_individual_paths="false"
       simplify_just_coalesce="false"
       step="1" />
    <inkscape:path-effect
       effect="powerstroke"
       id="path-effect310"
       is_visible="true"
       lpeversion="1"
       offset_points="0.28647667,0.26608033"
       not_jump="true"
       sort_points="true"
       interpolator_type="CentripetalCatmullRom"
       interpolator_beta="0.75"
       start_linecap_type="peak"
       linejoin_type="spiro"
       miter_limit="4"
       scale_width="1"
       end_linecap_type="peak" />
    <inkscape:path-effect
       effect="simplify"
       id="path-effect308"
       is_visible="true"
       lpeversion="1"
       steps="1"
       threshold="0.037633136"
       smooth_angles="0"
       helper_size="0"
       simplify_individual_paths="false"
       simplify_just_coalesce="false"
       step="1" />
    <inkscape:path-effect
       effect="powerstroke"
       id="path-effect303"
       is_visible="true"
       lpeversion="1"
       offset_points="0.28715307,0.26608033"
       not_jump="true"
       sort_points="true"
       interpolator_type="CentripetalCatmullRom"
       interpolator_beta="0.75"
       start_linecap_type="peak"
       linejoin_type="spiro"
       miter_limit="4"
       scale_width="1"
       end_linecap_type="peak" />
    <inkscape:path-effect
       effect="simplify"
       id="path-effect301"
       is_visible="true"
       lpeversion="1"
       steps="1"
       threshold="0.037633136"
       smooth_angles="0"
       helper_size="0"
       simplify_individual_paths="false"
       simplify_just_coalesce="false"
       step="1" />
  </defs>
  <sodipodi:namedview
     id="base"
     pagecolor="#ffffff"
     bordercolor="#666666"
     borderopacity="1.0"
     inkscape:pageopacity="0.0"
     inkscape:pageshadow="2"
     inkscape:zoom="1.9887478"
     inkscape:cx="206.66271"
     inkscape:cy="113.89076"
     inkscape:document-units="mm"
     inkscape:current-layer="layer1"
     showgrid="false"
     showborder="true"
     width="200mm"
     showguides="true"
     inkscape:guide-bbox="true"
     inkscape:window-width="1896"
     inkscape:window-height="1034"
     inkscape:window-x="10"
     inkscape:window-y="10"
     inkscape:window-maximized="1"
     inkscape:showpageshadow="2"
     inkscape:pagecheckerboard="0"
     inkscape:deskcolor="#d1d1d1">
    <inkscape:grid
       type="xygrid"
       id="grid815"
       units="mm"
       spacingx="10"
       spacingy="10"
       empspacing="4"
       dotted="false"
       originx="0"
       originy="0" />
  </sodipodi:namedview>
  <metadata
     id="metadata5">
    <rdf:RDF>
      <cc:Work
         rdf:about="">
        <dc:format>image/svg+xml</dc:format>
        <dc:type
           rdf:resource="http://purl.org/dc/dcmitype/StillImage" />
      </cc:Work>
    </rdf:RDF>
  </metadata>
  <g
     inkscape:label="Layer 1"
     inkscape:groupmode="layer"
     id="layer1"
     transform="translate(0,-177)">
    <path
       style="fill:none;stroke:#000000;stroke-width:0.264583px;stroke-linecap:butt;stroke-linejoin:miter;stroke-opacity:1"
       d="M -0.81176518,231.66921 H 73.442839"
       id="path235" />
    <path
       d="m 3.5779075,228.32067 c 1.2544951,0.22759 3.7386484,0.53567 6.7370605,-0.34044 0.618464,-0.18071 1.258898,-0.41139 1.915783,-0.70235 1.091184,-0.48333 2.410261,-1.2139 3.828094,-2.34071 1.516943,-1.20558 3.080355,-2.81415 4.516965,-4.88441 1.197972,-1.72636 2.26589,-3.71741 3.07565,-5.88056 2.093352,-4.72028 3.332771,-9.40078 5.023262,-14.80984 1.567915,-5.01685 3.298519,-9.79827 6.120206,-14.04169 0.577736,-0.38211 1.093303,-0.7231 1.332521,-0.88132 l 0.07515,-0.36871 -0.368714,-0.0752 c -0.245392,0.1623 -0.78158,0.51693 -1.377371,0.91098 -0.01476,0.01 -0.02937,0.02 -0.04191,0.0324 -0.01254,0.0125 -0.0228,0.0271 -0.03263,0.0418 -2.883842,4.32132 -4.63917,9.18015 -6.215183,14.22291 -1.699839,5.43897 -2.92598,10.07403 -5.004982,14.76002 -0.0021,0.005 -0.0041,0.01 -0.006,0.0147 -0.794104,2.12327 -1.842191,4.07777 -3.017202,5.77105 -1.407149,2.0278 -2.934881,3.59815 -4.410859,4.77118 -1.379016,1.09596 -2.658482,1.80388 -3.712515,2.27076 -0.634936,0.28124 -1.253205,0.50387 -1.849512,0.6781 -2.888044,0.84387 -5.2803142,0.54761 -6.4928145,0.32763 l -0.3093042,0.21431 z"
       id="path-1"
       inkscape:path-effect="#path-effect526;#path-effect528"
       inkscape:original-d="m 3.625405,228.05886 c 1.685621,-0.43928 3.850115,0.54975 5.499353,0 3.012409,-1.00413 6.446377,-2.36719 8.785665,-4.7341 0.920027,-0.93088 1.324988,-2.4289 2.029362,-3.49278 0.77322,-1.16786 2.649375,-3.12315 2.996554,-4.39737 0.482487,-1.77084 1.630522,-3.76758 2.294151,-5.51536 0.956819,-2.51993 1.225025,-5.28979 2.051279,-7.76856 0.11961,-0.35883 0.511348,-2.52352 0.825963,-2.70064 0.301714,-0.16986 1.785137,-3.06762 1.937803,-3.66468 1.028002,-4.02042 1.879152,-9.55194 5.935131,-11.56795"
       style="fill:#000000;fill-rule:nonzero;stroke:none;stroke-width:1.43244;stroke-linejoin:bevel;paint-order:markers fill stroke" />
    <path
       d="m 68.615332,227.83861 c -1.2125,0.21998 -3.60477,0.51624 -6.492813,-0.32763 -0.596308,-0.17423 -1.214577,-0.39686 -1.849513,-0.6781 -1.054033,-0.46688 -2.333499,-1.1748 -3.712515,-2.27076 -1.475978,-1.17303 -3.00371,-2.74338 -4.410859,-4.77118 -1.175011,-1.69328 -2.223098,-3.64778 -3.017202,-5.77105 -0.0019,-0.005 -0.0039,-0.01 -0.006,-0.0147 -2.079002,-4.68599 -3.305143,-9.32105 -5.004982,-14.76002 -0.776048,-2.48311 -1.604981,-4.95449 -2.602346,-7.34651 -1.009501,-2.42112 -2.175954,-4.72329 -3.612837,-6.8764 -0.0098,-0.0147 -0.02008,-0.0293 -0.03263,-0.0418 -0.01254,-0.0125 -0.02714,-0.0227 -0.04191,-0.0325 -0.595791,-0.39405 -1.131979,-0.74868 -1.377371,-0.91098 l -0.368714,0.0752 0.07515,0.36871 c 0.239218,0.15822 0.754785,0.49921 1.332521,0.88132 1.399921,2.1053 2.541944,4.36046 3.534615,6.74122 0.988073,2.36974 1.811341,4.82311 2.585591,7.30047 1.690491,5.40906 2.92991,10.08956 5.023262,14.80984 0.80976,2.16315 1.877678,4.1542 3.07565,5.88056 1.43661,2.07026 3.000022,3.67883 4.516965,4.88441 1.417833,1.12681 2.73691,1.85738 3.828094,2.34071 0.656885,0.29096 1.297319,0.52164 1.915782,0.70235 2.998413,0.87611 5.482566,0.56803 6.737062,0.34044 l 0.214309,-0.30931 z"
       id="path532"
       inkscape:path-effect="#path-effect536;#path-effect540"
       inkscape:original-d="m 68.66283,228.10042 c -1.685621,-0.43928 -3.850115,0.54975 -5.499353,0 -3.012409,-1.00413 -6.446377,-2.36719 -8.785665,-4.7341 -0.920027,-0.93088 -1.324988,-2.4289 -2.029362,-3.49278 -0.77322,-1.16786 -2.649375,-3.12315 -2.996554,-4.39737 -0.482487,-1.77084 -1.630522,-3.76758 -2.294151,-5.51536 -0.956819,-2.51993 -1.225025,-5.28979 -2.051279,-7.76856 -0.11961,-0.35883 -0.511348,-2.52352 -0.825963,-2.70064 -0.301714,-0.16986 -1.785137,-3.06762 -1.937803,-3.66468 -1.028002,-4.02042 -1.879152,-9.55194 -5.935131,-11.56795"
       style="fill:#000000;fill-rule:nonzero;stroke:none;stroke-width:1.43244;stroke-linejoin:bevel;paint-order:markers fill stroke" />
    <path
       style="fill:none;stroke:#000000;stroke-width:0.399349px;stroke-linecap:butt;stroke-linejoin:miter;stroke-opacity:1"
       d="m 61.318785,227.73666 c 0,1.36112 0,4.99246 0,4.99246"
       id="path704" />
    <path
       style="fill:none;stroke:#000000;stroke-width:0.402998px;stroke-linecap:butt;stroke-linejoin:miter;stroke-opacity:1"
       d="m 11.473416,227.49944 c 0,1.38611 0,5.08412 0,5.08412"
       id="path706" />
    <text
       style="font-size:2.64583px;font-family:monospace;-inkscape-font-specification:'monospace, Normal';fill:#000000;fill-opacity:1;stroke:none;stroke-width:0.264583"
       xml:space="preserve"
       id="text710"
       y="236.61534"
       x="-8.9767408"><tspan
         sodipodi:role="line"
         id="tspan708"
         x="-8.9767408"
         y="236.61534"
         style="stroke-width:0.264583">$p-1.96\sigma_{\hat{p}}$</tspan></text>
    <text
       style="font-size:2.64583px;font-family:monospace;-inkscape-font-specification:'monospace, Normal';fill:#000000;fill-opacity:1;stroke:none;stroke-width:0.264583"
       xml:space="preserve"
       id="text722"
       y="237.08243"
       x="41.410393"><tspan
         sodipodi:role="line"
         id="tspan720"
         x="41.410393"
         y="237.08243"
         style="stroke-width:0.264583">$p+1.96\sigma_{\hat{p}}$</tspan></text>
    <text
       style="font-size:2.64583px;font-family:monospace;-inkscape-font-specification:'monospace, Normal';fill:#000000;fill-opacity:1;stroke:none;stroke-width:0.264583"
       xml:space="preserve"
       id="text726"
       y="193.47809"
       x="-8.0153198"><tspan
         sodipodi:role="line"
         id="tspan724"
         x="-8.0153198"
         y="193.47809"
         style="stroke-width:0.264583">$2.5\%$ of all sample</tspan></text>
    <text
       style="font-size:2.64583px;font-family:monospace;-inkscape-font-specification:'monospace, Normal';fill:#000000;fill-opacity:1;stroke:none;stroke-width:0.264583"
       xml:space="preserve"
       id="text738"
       y="198.21986"
       x="-6.2855639"><tspan
         sodipodi:role="line"
         id="tspan736"
         x="-6.2855639"
         y="198.21986"
         style="stroke-width:0.264583">proportions will</tspan></text>
    <text
       style="font-size:2.64583px;font-family:monospace;-inkscape-font-specification:'monospace, Normal';fill:#000000;fill-opacity:1;stroke:none;stroke-width:0.264583"
       xml:space="preserve"
       id="text750"
       y="204.33139"
       x="-7.0768943"><tspan
         sodipodi:role="line"
         id="tspan748"
         x="-7.0768943"
         y="204.33139"
         style="stroke-width:0.264583">lie in this tail</tspan></text>
    <text
       style="font-size:2.64583px;font-family:monospace;-inkscape-font-specification:'monospace, Normal';fill:#000000;fill-opacity:1;stroke:none;stroke-width:0.264583"
       xml:space="preserve"
       id="text762"
       y="192.48123"
       x="48.235264"><tspan
         sodipodi:role="line"
         id="tspan760"
         x="48.235264"
         y="192.48123"
         style="stroke-width:0.264583">$2.5\%$ of all sample</tspan></text>
    <text
       style="font-size:2.64583px;font-family:monospace;-inkscape-font-specification:'monospace, Normal';fill:#000000;fill-opacity:1;stroke:none;stroke-width:0.264583"
       xml:space="preserve"
       id="text766"
       y="197.22301"
       x="49.965019"><tspan
         sodipodi:role="line"
         id="tspan764"
         x="49.965019"
         y="197.22301"
         style="stroke-width:0.264583">proportions will</tspan></text>
    <text
       style="font-size:2.64583px;font-family:monospace;-inkscape-font-specification:'monospace, Normal';fill:#000000;fill-opacity:1;stroke:none;stroke-width:0.264583"
       xml:space="preserve"
       id="text770"
       y="203.33453"
       x="49.173691"><tspan
         sodipodi:role="line"
         id="tspan768"
         x="49.173691"
         y="203.33453"
         style="stroke-width:0.264583">lie in this tail</tspan></text>
    <path
       style="fill:none;stroke:#000000;stroke-width:0.350829px;stroke-linecap:butt;stroke-linejoin:miter;stroke-opacity:1"
       d="m 3.674119,228.00212 c 0,1.05047 0,3.85301 0,3.85301"
       id="path772" />
    <path
       style="fill:none;stroke:#000000;stroke-width:0.399349px;stroke-linecap:butt;stroke-linejoin:miter;stroke-opacity:1"
       d="m 68.854388,227.97259 c 0,1.36112 0,4.99246 0,4.99246"
       id="path774" />
    <path
       style="fill:#f5f5ac;fill-opacity:1;stroke:#000000;stroke-width:0.095286;stroke-linejoin:bevel;paint-order:markers fill stroke"
       d="m 3.8868776,229.95731 v -1.55315 l 0.3824904,0.0689 c 0.2103696,0.0379 1.1009074,0.07 1.9789724,0.0713 1.2570584,0.002 1.7379085,-0.0231 2.2616829,-0.1176 0.8013388,-0.14461 1.7863137,-0.38739 2.3219867,-0.57233 0.216097,-0.0746 0.403185,-0.13565 0.41575,-0.13565 0.01257,0 0.02285,0.85312 0.02285,1.89582 v 1.89582 H 7.5787421 3.8868776 Z"
       id="path845" />
    <path
       style="fill:#f5f5ad;fill-opacity:1;stroke:#000000;stroke-width:0.095286;stroke-linejoin:bevel;paint-order:markers fill stroke"
       d="m 61.559788,229.72398 v -1.78647 l 0.648571,0.18207 c 1.512112,0.42448 3.284836,0.59724 4.823759,0.47009 0.557358,-0.0461 1.1406,-0.0993 1.29609,-0.11842 l 0.28271,-0.0347 v 1.53695 1.53695 h -3.525565 -3.525565 z"
       id="path851" />
    <path
       style="fill:#b7efef;fill-opacity:1;stroke:#000000;stroke-width:0.095286;stroke-linejoin:bevel;paint-order:markers fill stroke"
       d="m 11.738237,229.53149 0.002,-1.97897 1.045702,-0.50962 c 1.087342,-0.5299 2.435723,-1.38368 3.407165,-2.15736 0.786648,-0.62652 2.650007,-2.50894 3.352053,-3.38635 1.292976,-1.61595 2.658787,-3.8641 3.479064,-5.7266 1.784149,-4.05103 2.550171,-6.19525 4.643805,-12.9988 2.368577,-7.69701 3.242506,-10.1015 4.861727,-13.37633 0.729401,-1.47519 1.26674,-2.44395 1.905802,-3.43593 0.367895,-0.57107 0.441457,-0.64451 1.038132,-1.03655 l 0.642181,-0.42194 0.677836,0.45331 c 0.578837,0.3871 0.720352,0.51907 0.96892,0.90351 1.211781,1.8742 2.5175,4.46553 3.528391,7.00244 0.973669,2.44349 1.652005,4.47167 3.312927,9.90541 1.947809,6.37229 2.834359,8.86302 4.595527,12.91097 0.87985,2.02229 2.130649,4.0839 3.571721,5.88703 0.807739,1.01068 2.426653,2.64276 3.333962,3.36108 1.369615,1.08433 3.00854,2.05909 4.423587,2.63093 l 0.532159,0.21506 0.01767,1.86884 0.01767,1.86884 H 36.416233 11.736247 Z"
       id="path926" />
  </g>
  <g
     inkscape:groupmode="layer"
     id="layer2"
     inkscape:label="Layer 2">
    <text
       style="font-size:2.64583px;font-family:monospace;-inkscape-font-specification:'monospace, Normal';fill:#000000;fill-opacity:1;stroke:none;stroke-width:0.264583"
       xml:space="preserve"
       id="text544"
       y="16.852238"
       x="26.620634"><tspan
         sodipodi:role="line"
         id="tspan542"
         x="26.620634"
         y="16.852238"
         style="stroke-width:0.264583">$95\%$ of all</tspan></text>
    <text
       style="font-size:2.64583px;font-family:monospace;-inkscape-font-specification:'monospace, Normal';fill:#000000;fill-opacity:1;stroke:none;stroke-width:0.264583"
       xml:space="preserve"
       id="text556"
       y="20.829166"
       x="31.254339"><tspan
         sodipodi:role="line"
         id="tspan554"
         x="31.254339"
         y="20.829166"
         style="stroke-width:0.264583">sample</tspan></text>
    <text
       style="font-size:2.64583px;font-family:monospace;-inkscape-font-specification:'monospace, Normal';fill:#000000;fill-opacity:1;stroke:none;stroke-width:0.264583"
       xml:space="preserve"
       id="text568"
       y="25.156406"
       x="27.16781"><tspan
         sodipodi:role="line"
         id="tspan566"
         x="27.16781"
         y="25.156406"
         style="stroke-width:0.264583">proportions</tspan></text>
    <text
       style="font-size:2.64583px;font-family:monospace;-inkscape-font-specification:'monospace, Normal';fill:#000000;fill-opacity:1;stroke:none;stroke-width:0.264583"
       xml:space="preserve"
       id="text580"
       y="35.644932"
       x="7.2096677"><tspan
         sodipodi:role="line"
         id="tspan578"
         x="7.2096677"
         y="35.644932"
         style="stroke-width:0.264583">are between $p-1.96\sigma_{\hat{p}} $</tspan></text>
    <text
       style="font-size:2.64583px;font-family:monospace;-inkscape-font-specification:'monospace, Normal';fill:#000000;fill-opacity:1;stroke:none;stroke-width:0.264583"
       xml:space="preserve"
       id="text694"
       y="42.719337"
       x="12.727795"><tspan
         sodipodi:role="line"
         id="tspan692"
         x="12.727795"
         y="42.719337"
         style="stroke-width:0.264583">and $p+ 1.96 \sigma_{\hat{p}}$</tspan></text>
    <path
       style="fill:none;stroke:#000000;stroke-width:0.264583px;stroke-linecap:butt;stroke-linejoin:miter;stroke-opacity:1;marker-end:url(#Arrow1)"
       d="M 73.32215,27.762381 66.82824,50.395369"
       id="path1531" />
    <path
       style="fill:none;stroke:#000000;stroke-width:0.264583px;stroke-linecap:butt;stroke-linejoin:miter;stroke-opacity:1;marker-end:url(#Arrow1)"
       d="m -1.397733,27.52991 6.49391,22.632988"
       id="path1750" />
  </g>
</svg>
