<?xml version="1.0" encoding="UTF-8" standalone="no"?>
<!-- Created with Inkscape (http://www.inkscape.org/) -->

<svg
   width="3.5in"
   height="2.3in"
   viewBox="0 0 88.9 58.419999"
   version="1.1"
   id="svg8"
   inkscape:version="1.3 (0e150ed6c4, 2023-07-21)"
   sodipodi:docname="yuyu.svg"
   xmlns:inkscape="http://www.inkscape.org/namespaces/inkscape"
   xmlns:sodipodi="http://sodipodi.sourceforge.net/DTD/sodipodi-0.dtd"
   xmlns="http://www.w3.org/2000/svg"
   xmlns:svg="http://www.w3.org/2000/svg"
   xmlns:rdf="http://www.w3.org/1999/02/22-rdf-syntax-ns#"
   xmlns:cc="http://creativecommons.org/ns#"
   xmlns:dc="http://purl.org/dc/elements/1.1/">
  <defs
     id="defs2">
    <marker
       style="overflow:visible"
       id="marker18"
       refX="0"
       refY="0"
       orient="auto-start-reverse"
       inkscape:stockid="Wide arrow"
       markerWidth="1"
       markerHeight="1"
       viewBox="0 0 1 1"
       inkscape:isstock="true"
       inkscape:collect="always"
       preserveAspectRatio="xMidYMid">
      <path
         style="fill:none;stroke:context-stroke;stroke-width:1;stroke-linecap:butt"
         d="M 3,-3 0,0 3,3"
         transform="rotate(180,0.125,0)"
         sodipodi:nodetypes="ccc"
         id="path18" />
    </marker>
    <marker
       style="overflow:visible"
       id="marker17"
       refX="0"
       refY="0"
       orient="auto-start-reverse"
       inkscape:stockid="Wide arrow"
       markerWidth="1"
       markerHeight="1"
       viewBox="0 0 1 1"
       inkscape:isstock="true"
       inkscape:collect="always"
       preserveAspectRatio="xMidYMid">
      <path
         style="fill:none;stroke:context-stroke;stroke-width:1;stroke-linecap:butt"
         d="M 3,-3 0,0 3,3"
         transform="rotate(180,0.125,0)"
         sodipodi:nodetypes="ccc"
         id="path17" />
    </marker>
    <marker
       style="overflow:visible"
       id="marker16"
       refX="0"
       refY="0"
       orient="auto-start-reverse"
       inkscape:stockid="Wide arrow"
       markerWidth="1"
       markerHeight="1"
       viewBox="0 0 1 1"
       inkscape:isstock="true"
       inkscape:collect="always"
       preserveAspectRatio="xMidYMid">
      <path
         style="fill:none;stroke:context-stroke;stroke-width:1;stroke-linecap:butt"
         d="M 3,-3 0,0 3,3"
         transform="rotate(180,0.125,0)"
         sodipodi:nodetypes="ccc"
         id="path16" />
    </marker>
    <marker
       style="overflow:visible"
       id="marker15"
       refX="0"
       refY="0"
       orient="auto-start-reverse"
       inkscape:stockid="Wide arrow"
       markerWidth="1"
       markerHeight="1"
       viewBox="0 0 1 1"
       inkscape:isstock="true"
       inkscape:collect="always"
       preserveAspectRatio="xMidYMid">
      <path
         style="fill:none;stroke:context-stroke;stroke-width:1;stroke-linecap:butt"
         d="M 3,-3 0,0 3,3"
         transform="rotate(180,0.125,0)"
         sodipodi:nodetypes="ccc"
         id="path15" />
    </marker>
    <marker
       style="overflow:visible"
       id="ArrowWide"
       refX="0"
       refY="0"
       orient="auto-start-reverse"
       inkscape:stockid="Wide arrow"
       markerWidth="1"
       markerHeight="1"
       viewBox="0 0 1 1"
       inkscape:isstock="true"
       inkscape:collect="always"
       preserveAspectRatio="xMidYMid">
      <path
         style="fill:none;stroke:context-stroke;stroke-width:1;stroke-linecap:butt"
         d="M 3,-3 0,0 3,3"
         transform="rotate(180,0.125,0)"
         sodipodi:nodetypes="ccc"
         id="path13" />
    </marker>
  </defs>
  <sodipodi:namedview
     id="base"
     pagecolor="#ffffff"
     bordercolor="#666666"
     borderopacity="1.0"
     inkscape:pageopacity="0.0"
     inkscape:pageshadow="2"
     inkscape:zoom="2.3876209"
     inkscape:cx="173.81319"
     inkscape:cy="134.86228"
     inkscape:document-units="mm"
     inkscape:current-layer="layer1"
     showgrid="false"
     showborder="true"
     width="200mm"
     showguides="true"
     inkscape:guide-bbox="true"
     inkscape:window-width="1896"
     inkscape:window-height="1034"
     inkscape:window-x="10"
     inkscape:window-y="10"
     inkscape:window-maximized="1"
     inkscape:showpageshadow="2"
     inkscape:pagecheckerboard="0"
     inkscape:deskcolor="#d1d1d1">
    <inkscape:grid
       type="xygrid"
       id="grid815"
       units="mm"
       spacingx="10"
       spacingy="10"
       empspacing="4"
       dotted="false"
       originx="0"
       originy="0"
       visible="false" />
  </sodipodi:namedview>
  <metadata
     id="metadata5">
    <rdf:RDF>
      <cc:Work
         rdf:about="">
        <dc:format>image/svg+xml</dc:format>
        <dc:type
           rdf:resource="http://purl.org/dc/dcmitype/StillImage" />
      </cc:Work>
    </rdf:RDF>
  </metadata>
  <g
     inkscape:label="Layer 1"
     inkscape:groupmode="layer"
     id="layer1"
     transform="translate(0,-177)">
    <path
       d="m 5.5835583,176.31546 c -0.6531396,0 -1.1791633,0.34831 -1.1791633,0.78176 v 16.42282 c 0,0.43344 0.5260237,0.78249 1.1791633,0.78249 H 18.590874 c 0.653139,0 1.179163,-0.34905 1.179163,-0.78249 v -16.42282 c 0,-0.43345 -0.526024,-0.78176 -1.179163,-0.78176 z"
       style="fill:none;stroke-width:0.369236;stroke-linejoin:bevel;stroke-dasharray:1.10771, 0.369236;paint-order:markers fill stroke"
       id="path1" />
    <path
       d="m 4.9885168,182.67403 c -0.5963882,0 -1.0767053,0.23031 -1.0767053,0.51692 v 15.59933 c 0,0.28661 0.4803171,0.51694 1.0767053,0.51694 H 34.083289 c 0.596388,0 1.076705,-0.23033 1.076705,-0.51694 v -15.59933 c 0,-0.28661 -0.480317,-0.51692 -1.076705,-0.51692 z"
       style="fill:none;stroke:#000000;stroke-width:0.286908;stroke-linejoin:bevel;stroke-dasharray:none;stroke-opacity:1;paint-order:markers fill stroke"
       id="path2" />
    <path
       d="m 4.2394076,204.5942 c -0.5963882,0 -1.0767053,0.23031 -1.0767053,0.51692 v 15.59933 c 0,0.28661 0.4803171,0.51693 1.0767053,0.51693 H 33.334179 c 0.596389,0 1.076706,-0.23032 1.076706,-0.51693 v -15.59933 c 0,-0.28661 -0.480317,-0.51692 -1.076706,-0.51692 z"
       style="fill:none;stroke:#000000;stroke-width:0.286908;stroke-linejoin:bevel;stroke-dasharray:none;stroke-opacity:1;paint-order:markers fill stroke"
       id="path3" />
    <path
       d="m 41.802389,208.85273 c -0.213497,0 -0.385443,0.12179 -0.385443,0.27341 v 8.25053 c 0,0.15159 0.171946,0.27341 0.385443,0.27341 h 10.415478 c 0.213497,0 0.385443,-0.12179 0.385443,-0.27341 v -8.25053 c 0,-0.15159 -0.171946,-0.27341 -0.385443,-0.27341 z"
       style="fill:none;stroke:#000000;stroke-width:0.124843;stroke-linejoin:bevel;stroke-dasharray:none;stroke-opacity:1;paint-order:markers fill stroke"
       id="path4" />
    <path
       d="m 59.891235,203.15832 c -0.29919,0 -0.540148,0.1215 -0.540148,0.2727 v 8.22871 c 0,0.1512 0.240958,0.27271 0.540148,0.27271 h 14.595964 c 0.299189,0 0.540149,-0.12151 0.540149,-0.27271 v -8.22871 c 0,-0.1512 -0.24096,-0.2727 -0.540149,-0.2727 z"
       style="fill:none;stroke:#000000;stroke-width:0.147594;stroke-linejoin:bevel;stroke-dasharray:none;stroke-opacity:1;paint-order:markers fill stroke"
       id="path5" />
    <path
       d="m 59.891235,215.16248 c -0.29919,0 -0.540148,0.12151 -0.540148,0.2727 v 8.22872 c 0,0.15119 0.240958,0.2727 0.540148,0.2727 h 14.595964 c 0.299189,0 0.540149,-0.12151 0.540149,-0.2727 v -8.22872 c 0,-0.15119 -0.24096,-0.2727 -0.540149,-0.2727 z"
       style="fill:none;stroke:#000000;stroke-width:0.147594;stroke-linejoin:bevel;stroke-dasharray:none;stroke-opacity:1;paint-order:markers fill stroke"
       id="path6" />
    <path
       d="m 41.621211,186.30336 c -0.213498,0 -0.385443,0.12179 -0.385443,0.27341 v 8.25052 c 0,0.15159 0.171945,0.27341 0.385443,0.27341 h 10.415477 c 0.213498,0 0.385443,-0.12179 0.385443,-0.27341 v -8.25052 c 0,-0.15159 -0.171945,-0.27341 -0.385443,-0.27341 z"
       style="fill:none;stroke:#000000;stroke-width:0.124843;stroke-linejoin:bevel;stroke-dasharray:none;stroke-opacity:1;paint-order:markers fill stroke"
       id="path7" />
    <path
       d="m 58.302154,184.51494 c -0.510992,0 -0.922532,0.16562 -0.922532,0.37171 v 11.21571 c 0,0.20609 0.41154,0.37171 0.922532,0.37171 h 24.928785 c 0.510991,0 0.922532,-0.16562 0.922532,-0.37171 v -11.21571 c 0,-0.20609 -0.411541,-0.37171 -0.922532,-0.37171 z"
       style="fill:none;stroke:#000000;stroke-width:0.225191;stroke-linejoin:bevel;stroke-dasharray:none;stroke-opacity:1;paint-order:markers fill stroke"
       id="path8" />
    <path
       style="fill:none;stroke:#000000;stroke-width:0.36727px;stroke-linecap:butt;stroke-linejoin:miter;stroke-opacity:1;marker-end:url(#ArrowWide)"
       d="m 36.006991,190.55726 h 4.406332"
       id="path9" />
    <path
       style="fill:none;stroke:#000000;stroke-width:0.36727px;stroke-linecap:butt;stroke-linejoin:miter;stroke-opacity:1;marker-end:url(#marker15)"
       d="m 53.31583,190.82899 h 3.121004"
       id="path10" />
    <path
       style="fill:none;stroke:#000000;stroke-width:0.36727px;stroke-linecap:butt;stroke-linejoin:miter;stroke-opacity:1;marker-end:url(#marker18)"
       d="m 35.525416,212.98279 c 0.650756,-0.11116 4.460305,0 4.460305,0"
       id="path11" />
    <path
       style="fill:none;stroke:#000000;stroke-width:0.36727px;stroke-linecap:butt;stroke-linejoin:miter;stroke-opacity:1;marker-start:url(#marker17);marker-end:url(#marker16)"
       d="m 58.146218,208.39137 -4.598425,2.76971 4.603384,4.80245"
       id="path12" />
    <text
       style="font-size:3.84667px;font-family:monospace;-inkscape-font-specification:'monospace, Normal';fill:#000000;fill-opacity:1;stroke:none;stroke-width:0.384667"
       xml:space="preserve"
       id="text1"
       y="134.91475"
       x="12.471851"
       transform="scale(0.70861261,1.4112083)"><tspan
         sodipodi:role="line"
         id="tspan1"
         x="12.471851"
         y="134.91475"
         style="stroke-width:0.384667">Qual \\ 2 Outcomes</tspan></text>
    <text
       style="font-size:3.76675px;font-family:monospace;-inkscape-font-specification:'monospace, Normal';fill:#000000;fill-opacity:1;stroke:none;stroke-width:0.376675"
       xml:space="preserve"
       id="text1-3"
       y="191.967"
       x="45.809307"
       transform="scale(1.0041236,0.99589334)"><tspan
         sodipodi:role="line"
         id="tspan1-6"
         x="45.809307"
         y="191.967"
         style="stroke-width:0.376675">$p$</tspan></text>
    <text
       style="font-size:2.60947px;font-family:monospace;-inkscape-font-specification:'monospace, Normal';fill:#000000;fill-opacity:1;stroke:none;stroke-width:0.260948"
       xml:space="preserve"
       id="text1-7"
       y="59.749218"
       x="192.60796"
       transform="scale(0.31115614,3.2138206)"><tspan
         sodipodi:role="line"
         id="tspan1-5"
         x="192.60796"
         y="59.749218"
         style="stroke-width:0.260948">$n\hat{p}(1-\hat{p}) \geq 10$</tspan></text>
    <text
       style="font-size:2.43934px;font-family:monospace;-inkscape-font-specification:'monospace, Normal';fill:#000000;fill-opacity:1;stroke:none;stroke-width:0.243934"
       xml:space="preserve"
       id="text1-35"
       y="151.18768"
       x="85.092247"
       transform="scale(0.72504544,1.3792239)"><tspan
         sodipodi:role="line"
         id="tspan1-62"
         x="85.092247"
         y="151.18768"
         style="stroke-width:0.243934">$n \geq 30$</tspan></text>
    <text
       style="font-size:3.42479px;font-family:monospace;-inkscape-font-specification:'monospace, Normal';fill:#000000;fill-opacity:1;stroke:none;stroke-width:0.342479"
       xml:space="preserve"
       id="text1-9"
       y="176.32056"
       x="77.473801"
       transform="scale(0.7984628,1.2524065)"><tspan
         sodipodi:role="line"
         id="tspan1-1"
         x="77.473801"
         y="176.32056"
         style="stroke-width:0.342479">$n &lt; 30$</tspan></text>
    <text
       style="font-size:3.6727px;font-family:monospace;-inkscape-font-specification:'monospace, Normal';fill:#000000;fill-opacity:1;stroke:none;stroke-width:0.36727"
       xml:space="preserve"
       id="text1-2"
       y="209.47882"
       x="46.866776"
       transform="scale(0.97905479,1.0213933)"><tspan
         sodipodi:role="line"
         id="tspan1-7"
         x="46.866776"
         y="209.47882"
         style="stroke-width:0.36727">$\mu$</tspan></text>
    <text
       style="font-size:3.6727px;font-family:monospace;-inkscape-font-specification:'monospace, Normal';fill:#000000;fill-opacity:1;stroke:none;stroke-width:0.36727"
       xml:space="preserve"
       id="text1-0"
       y="209.20555"
       x="13.501416"
       transform="scale(0.97905479,1.0213933)"><tspan
         sodipodi:role="line"
         id="tspan1-9"
         x="13.501416"
         y="209.20555"
         style="stroke-width:0.36727">Quant</tspan></text>
    <text
       style="font-size:2.64583px;font-family:monospace;-inkscape-font-specification:'monospace, Normal';fill:#000000;fill-opacity:1;stroke:none;stroke-width:0.264583"
       xml:space="preserve"
       id="text1-36"
       y="228.20268"
       x="55.189594"><tspan
         sodipodi:role="line"
         id="tspan1-0"
         x="55.189594"
         y="228.20268"
         style="stroke-width:0.264583">$n \leq 0.05N$</tspan></text>
  </g>
</svg>
