<?xml version="1.0" encoding="UTF-8" standalone="no"?>
<!-- Created with Inkscape (http://www.inkscape.org/) -->

<svg
   width="3in"
   height="2in"
   viewBox="0 0 76.2 50.8"
   version="1.1"
   id="svg8"
   inkscape:version="1.3 (0e150ed6c4, 2023-07-21)"
   sodipodi:docname="circle.svg"
   xml:space="preserve"
   xmlns:inkscape="http://www.inkscape.org/namespaces/inkscape"
   xmlns:sodipodi="http://sodipodi.sourceforge.net/DTD/sodipodi-0.dtd"
   xmlns="http://www.w3.org/2000/svg"
   xmlns:svg="http://www.w3.org/2000/svg"
   xmlns:rdf="http://www.w3.org/1999/02/22-rdf-syntax-ns#"
   xmlns:cc="http://creativecommons.org/ns#"
   xmlns:dc="http://purl.org/dc/elements/1.1/"><defs
     id="defs2"><marker
       style="overflow:visible"
       id="ArrowWide"
       refX="0"
       refY="0"
       orient="auto-start-reverse"
       inkscape:stockid="Wide arrow"
       markerWidth="1"
       markerHeight="1"
       viewBox="0 0 1 1"
       inkscape:isstock="true"
       inkscape:collect="always"
       preserveAspectRatio="xMidYMid"><path
         style="fill:none;stroke:context-stroke;stroke-width:1;stroke-linecap:butt"
         d="M 3,-3 0,0 3,3"
         transform="rotate(180,0.125,0)"
         sodipodi:nodetypes="ccc"
         id="path8" /></marker><style
       type="text/css"
       id="style1">@import url(&quot;http://cdnjs.cloudflare.com/ajax/libs/KaTeX/0.2.0/katex.min.css&quot;)</style></defs><sodipodi:namedview
     id="base"
     pagecolor="#ffffff"
     bordercolor="#666666"
     borderopacity="1.0"
     inkscape:pageopacity="0.0"
     inkscape:pageshadow="2"
     inkscape:zoom="2.4926034"
     inkscape:cx="64.390509"
     inkscape:cy="98.090215"
     inkscape:document-units="mm"
     inkscape:current-layer="g1"
     showgrid="false"
     showborder="true"
     width="200mm"
     showguides="true"
     inkscape:guide-bbox="true"
     inkscape:window-width="1890"
     inkscape:window-height="1022"
     inkscape:window-x="12"
     inkscape:window-y="40"
     inkscape:window-maximized="1"
     inkscape:showpageshadow="2"
     inkscape:pagecheckerboard="0"
     inkscape:deskcolor="#d1d1d1"><inkscape:grid
       type="xygrid"
       id="grid815"
       units="mm"
       spacingx="10"
       spacingy="10"
       empspacing="4"
       dotted="false"
       originx="0"
       originy="0"
       visible="false" /></sodipodi:namedview><metadata
     id="metadata5"><rdf:RDF><cc:Work
         rdf:about=""><dc:format>image/svg+xml</dc:format><dc:type
           rdf:resource="http://purl.org/dc/dcmitype/StillImage" /></cc:Work></rdf:RDF></metadata><g
     inkscape:label="Layer 1"
     inkscape:groupmode="layer"
     id="layer1"
     transform="translate(0,-177)"><g
       id="g1"
       transform="matrix(0.13668974,0,0,0.09076713,-2.5309051,175.15067)"><path
         d="M 524.4,317.8 546,325 524.4,332.2 528,325 Z"
         stroke-width="1"
         stroke="#000000"
         fill="#000000"
         id="path1" /><path
         d="M 267.8,75.6 275,54 282.2,75.6 275,72 Z"
         stroke-width="1"
         stroke="#000000"
         fill="#000000"
         id="path2" /><path
         d="M 22,325 H 528 M 275,72 v 506 m 0,-245.75 v -14.5 m 47,14.5 v -14.5 m 47,14.5 v -14.5 m 47,14.5 v -14.5 m 47,14.5 v -14.5 m 47,14.5 v -14.5 m -282,14.5 v -14.5 m -47,14.5 v -14.5 m -47,14.5 v -14.5 m -47,14.5 v -14.5 m -47,14.5 v -14.5 M 282.25,325 h -14.5 m 14.5,47 h -14.5 m 14.5,47 h -14.5 m 14.5,47 h -14.5 m 14.5,47 h -14.5 m 14.5,47 h -14.5 m 14.5,-282 h -14.5 m 14.5,-47 h -14.5 m 14.5,-47 h -14.5 m 14.5,-47 h -14.5 m 14.5,-47 h -14.5"
         stroke-width="2"
         stroke="#000000"
         fill="none"
         id="path3" /><text
         id="null"
         x="275"
         y="42.333"
         font-style="italic"
         font-family="KaTeX_Main, serif"
         font-size="29px"
         font-weight="normal"
         text-anchor="middle"
         fill="#000000"
         stroke-width="0px">y</text><text
         id="text3"
         x="557.66602"
         y="334.66599"
         font-style="italic"
         font-family="KaTeX_Main, serif"
         font-size="29px"
         font-weight="normal"
         text-anchor="start"
         fill="#000000"
         stroke-width="0px">x</text><path
         id="path4"
         d="m 180.37705,325.25877 1.59426,-16.5944 0.7843,-3.83348 0.7853,-3.21155 0.7843,-2.80974 0.78431,-2.52501 0.7853,-2.30595 0.78431,-2.13127 0.7843,-1.98892 0.7853,-1.86878 0.7843,-1.76378 0.7843,-1.67494 0.78531,-1.59416 0.7843,-1.5235 0.7843,-1.45989 0.78531,-1.40133 0.7843,-1.34782 0.7843,-1.29936 0.7853,-1.25393 0.78431,-1.21254 0.7843,-1.17315 0.78531,-1.13682 0.7843,-1.10148 0.7843,-1.07018 0.7853,-1.0399 0.7843,-1.01061 0.78431,-0.98336 0.7853,-0.9571 0.78431,-0.93187 0.7843,-0.90764 0.78531,-0.88643 0.78429,-0.8632 0.7843,-0.84303 0.78531,-0.82182 0.7843,-0.80364 0.78431,-0.78446 0.7853,-0.76629 0.7843,-0.74812 0.7843,-0.73196 0.7853,-0.71581 0.78431,-0.69966 0.7843,-0.6835 0.78531,-0.66938 0.7843,-0.65422 0.7843,-0.64009 0.7853,-0.62595 0.7843,-0.61284 0.78431,-0.5997 0.7853,-0.58759 0.78431,-0.57345 0.7843,-0.56235 0.7853,-0.54923 0.7843,-0.53811 0.7843,-0.52702 0.78531,-0.5149 0.7843,-0.5038 0.78431,-0.49369 0.7853,-0.48259 0.7843,-0.47149 0.7843,-0.4624 0.7853,-0.45129 0.78431,-0.4412 0.7843,-0.43211 0.78531,-0.42201 0.7843,-0.41293 0.78429,-0.40283 0.78531,-0.39375 0.7843,-0.38466 0.78431,-0.37658 0.7853,-0.36649 0.78431,-0.35841 0.7843,-0.34932 0.7853,-0.34024 0.7843,-0.33317 0.7843,-0.32408 0.78531,-0.31601 0.7843,-0.30692 0.78431,-0.29985 0.78529,-0.29178 0.78431,-0.28268 0.7843,-0.27663 0.78531,-0.26756 0.7843,-0.26047 0.7843,-0.2524 0.78531,-0.24432 0.78429,-0.23727 0.78431,-0.23019 0.7853,-0.22312 0.7843,-0.21504 0.78431,-0.20798 0.7853,-0.19991 0.78431,-0.19384 0.78429,-0.18576 0.78531,-0.17971 0.7843,-0.17163 0.7843,-0.16457 0.78531,-0.15851 0.7843,-0.15043 0.78431,-0.14437 0.78529,-0.13731 0.78431,-0.13024 0.7843,-0.12317 0.78531,-0.1161 0.7843,-0.11006 0.7843,-0.10297 0.7853,-0.0969 0.7843,-0.0888 0.78431,-0.0828 0.7853,-0.0767 0.78431,-0.0696 0.7843,-0.0626 0.78531,-0.0555 0.78429,-0.0494 0.7843,-0.0434 0.78531,-0.0364 0.7843,-0.0293 0.78431,-0.0232 0.7853,-0.0162 0.7843,-0.0101 0.7843,-0.003 0.7853,0.003 0.78431,0.0101 0.7843,0.0162 0.78531,0.0232 0.7843,0.0293 0.7843,0.0364 0.7853,0.0434 0.7843,0.0494 0.78431,0.0555 0.7853,0.0626 0.78431,0.0696 0.7843,0.0767 0.7853,0.0828 0.7843,0.0888 0.7843,0.0969 0.78531,0.10297 0.7843,0.11006 0.78431,0.1161 0.7853,0.12317 0.7843,0.13024 0.7843,0.13731 0.7853,0.14437 0.78431,0.15043 0.7843,0.15851 0.78531,0.16457 0.7843,0.17163 0.78429,0.17971 0.78531,0.18576 0.7843,0.19384 0.78431,0.19991 0.7853,0.20798 0.78431,0.21504 0.7843,0.22312 0.7853,0.22919 0.7843,0.23827 0.7843,0.24432 0.78531,0.2524 0.7843,0.26047 0.78431,0.26756 0.78529,0.27561 0.78431,0.2837 0.7843,0.29178 0.78531,0.29985 0.7843,0.30692 0.7843,0.31601 0.78531,0.32408 0.78429,0.33216 0.78431,0.34125 0.7853,0.34932 0.7843,0.35841 0.78431,0.36649 0.7853,0.37557 0.78431,0.38567 0.78429,0.39375 0.78531,0.40283 0.7843,0.41293 0.7843,0.42201 0.78531,0.4311 0.7843,0.44221 0.78431,0.45129 0.78529,0.46139 0.78431,0.4725 0.7843,0.48259 0.78531,0.49269 0.7843,0.5048 0.7843,0.5149 0.78531,0.526 0.78429,0.53812 0.78431,0.55024 0.7853,0.56134 0.78431,0.57446 0.7843,0.58658 0.78531,0.59971 0.7843,0.61283 0.78429,0.62696 0.78531,0.64009 0.7843,0.65422 0.7843,0.66836 0.78531,0.68452 0.7843,0.69966 0.78431,0.71479 0.78529,0.73196 0.78431,0.74914 0.7843,0.76629 0.78531,0.78446 0.7843,0.80264 0.7843,0.82282 0.7853,0.84201 0.7843,0.86422 0.78431,0.88543 0.7853,0.90864 0.78431,0.93187 0.7843,0.9571 0.78531,0.98336 0.78429,1.00961 0.7843,1.03989 0.78531,1.07018 0.7843,1.10249 0.78431,1.13682 0.7853,1.17315 0.78431,1.21153 0.78429,1.25393 0.7853,1.29937 0.78431,1.34882 0.7843,1.40033 0.78531,1.45988 0.7843,1.5235 0.7843,1.59417 0.7853,1.67493 0.7843,1.76378 0.78431,1.86878 0.7853,1.98892 0.78431,2.13128 0.7843,2.30593 0.7853,2.52402 0.7843,2.81074 0.7843,3.21054 0.78531,3.83246 0.7843,5.02784 0.78431,11.97795"
         stroke-width="5.02813"
         stroke="#0000ff"
         fill="none"
         sodipodi:nodetypes="cccccccccccccccccccccccccccccccccccccccccccccccccccccccccccccccccccccccccccccccccccccccccccccccccccccccccccccccccccccccccccccccccccccccccccccccccccccccccccccccccccccccccccccccccccccccccccccccccccccccccccccccccccccccccccccccccccccccccccccccc" /><path
         style="fill:#ff2a2a;stroke-width:0.142064;paint-order:markers fill stroke"
         d="m 133.11779,96.456535 v -7.583849 l 1.59571,-0.04011 1.59571,-0.0401 0.0449,-0.390063 0.0449,-0.390063 h -1.6406 -1.64059 v -7.375732 -7.375733 l 1.45387,0.0015 c 2.98969,0.003 7.19249,0.482657 11.16998,1.27478 12.43501,2.476455 22.84941,8.278195 28.64435,15.95744 2.77953,3.683345 4.57899,7.908126 4.89355,11.489125 0.048,0.54609 0.12276,1.23224 0.16621,1.52479 l 0.079,0.5319 h -11.07607 -11.07606 v -1.0638 -1.06381 h -0.56737 -0.56736 v 1.06381 1.0638 h -11.56005 -11.56004 z"
         id="path5"
         transform="matrix(1.9356488,0,0,2.9149686,18.515692,20.374446)" /><ellipse
         style="fill:#ffffff;fill-opacity:1;stroke:#000000;stroke-width:2.60419;stroke-opacity:1;paint-order:markers fill stroke"
         id="path6"
         cx="316.91101"
         cy="281.63522"
         rx="12.802989"
         ry="12.699922"
         transform="matrix(0.83866951,-0.54464066,0.03848618,0.99925913,0,0)" /><rect
         style="fill:#ffffff;fill-opacity:1;stroke:none;stroke-width:2.37909;stroke-opacity:1;paint-order:markers fill stroke"
         id="rect6"
         width="2.7179084"
         height="10.476651"
         x="271.27899"
         y="94.430969"
         rx="0.87922895"
         ry="1.324065" /><path
         style="fill:none;stroke:#000000;stroke-width:2.40985px;stroke-linecap:butt;stroke-linejoin:miter;stroke-opacity:1;marker-end:url(#ArrowWide)"
         d="m 269.0717,103.85869 3.41506,-4.289083"
         id="path7" /></g></g></svg>
