<?xml version="1.0" encoding="UTF-8" standalone="no"?>
<!-- Created with Inkscape (http://www.inkscape.org/) -->

<svg
   width="3in"
   height="2.5in"
   viewBox="0 0 76.2 63.5"
   version="1.1"
   id="svg8"
   inkscape:version="1.3 (0e150ed6c4, 2023-07-21)"
   sodipodi:docname="fif30.svg"
   xml:space="preserve"
   xmlns:inkscape="http://www.inkscape.org/namespaces/inkscape"
   xmlns:sodipodi="http://sodipodi.sourceforge.net/DTD/sodipodi-0.dtd"
   xmlns="http://www.w3.org/2000/svg"
   xmlns:svg="http://www.w3.org/2000/svg"
   xmlns:rdf="http://www.w3.org/1999/02/22-rdf-syntax-ns#"
   xmlns:cc="http://creativecommons.org/ns#"
   xmlns:dc="http://purl.org/dc/elements/1.1/"><defs
     id="defs2"><marker
       style="overflow:visible"
       id="ArrowWide"
       refX="0"
       refY="0"
       orient="auto-start-reverse"
       inkscape:stockid="Wide arrow"
       markerWidth="1"
       markerHeight="1"
       viewBox="0 0 1 1"
       inkscape:isstock="true"
       inkscape:collect="always"
       preserveAspectRatio="xMidYMid"><path
         style="fill:none;stroke:context-stroke;stroke-width:1;stroke-linecap:butt"
         d="M 3,-3 0,0 3,3"
         transform="rotate(180,0.125,0)"
         sodipodi:nodetypes="ccc"
         id="path14" /></marker><style
       type="text/css"
       id="style1">@import url(&quot;http://cdnjs.cloudflare.com/ajax/libs/KaTeX/0.2.0/katex.min.css&quot;)</style></defs><sodipodi:namedview
     id="base"
     pagecolor="#ffffff"
     bordercolor="#666666"
     borderopacity="1.0"
     inkscape:pageopacity="0.0"
     inkscape:pageshadow="2"
     inkscape:zoom="3.9774955"
     inkscape:cx="129.85558"
     inkscape:cy="113.01081"
     inkscape:document-units="mm"
     inkscape:current-layer="layer1"
     showgrid="false"
     showborder="true"
     width="200mm"
     showguides="true"
     inkscape:guide-bbox="true"
     inkscape:window-width="1890"
     inkscape:window-height="1022"
     inkscape:window-x="12"
     inkscape:window-y="40"
     inkscape:window-maximized="1"
     inkscape:showpageshadow="2"
     inkscape:pagecheckerboard="0"
     inkscape:deskcolor="#d1d1d1"><inkscape:grid
       type="xygrid"
       id="grid815"
       units="mm"
       spacingx="10"
       spacingy="10"
       empspacing="4"
       dotted="false"
       originx="0"
       originy="0"
       visible="false" /></sodipodi:namedview><metadata
     id="metadata5"><rdf:RDF><cc:Work
         rdf:about=""><dc:format>image/svg+xml</dc:format><dc:type
           rdf:resource="http://purl.org/dc/dcmitype/StillImage" /></cc:Work></rdf:RDF></metadata><g
     inkscape:label="Layer 1"
     inkscape:groupmode="layer"
     id="layer1"
     transform="translate(0,-177)"><g
       id="g1"
       transform="matrix(0.13621306,0,0,0.10905382,-2.1081321,175.09502)"><path
         d="M 524.4,317.8 546,325 524.4,332.2 528,325 Z"
         stroke-width="1"
         stroke="#000000"
         fill="#000000"
         id="path1" /><path
         d="M 267.8,75.6 275,54 282.2,75.6 275,72 Z"
         stroke-width="1"
         stroke="#000000"
         fill="#000000"
         id="path2" /><path
         d="M 22,325 H 528 M 275,72 v 506 m 0,-245.75 v -14.5 m 47,14.5 v -14.5 m 47,14.5 v -14.5 m 47,14.5 V 321.45839 317.75 m 47,14.5 v -14.5 m 47,14.5 v -14.5 m -282,14.5 v -14.5 m -47,14.5 v -14.5 m -47,14.5 v -14.5 m -47,14.5 v -14.5 m -47,14.5 v -14.5 M 282.25,325 h -14.5 m 14.5,47 h -14.5 m 14.5,47 h -14.5 m 14.5,47 h -14.5 m 14.5,47 h -14.5 m 14.5,47 h -14.5 m 14.5,-282 h -14.5 m 14.5,-47 h -14.5 m 14.5,-47 h -14.5 m 14.5,-47 h -14.5 m 14.5,-47 h -14.5"
         stroke-width="2"
         stroke="#000000"
         fill="none"
         id="path3"
         sodipodi:nodetypes="ccccccccccccccccccccccccccccccccccccccccccccccccc" /><text
         id="null"
         x="275"
         y="42.333"
         font-style="italic"
         font-family="KaTeX_Main, serif"
         font-size="29px"
         font-weight="normal"
         text-anchor="middle"
         fill="#000000"
         stroke-width="0px">y</text><text
         id="text3"
         x="557.66602"
         y="334.66599"
         font-style="italic"
         font-family="KaTeX_Main, serif"
         font-size="29px"
         font-weight="normal"
         text-anchor="start"
         fill="#000000"
         stroke-width="0px">x</text><path
         id="path4"
         d="m 131.669,574.1 1.547,-9.387 0.783,-4.713 0.784,-4.687 0.783,-4.661 0.783,-4.634 0.784,-4.609 0.783,-4.583 0.783,-4.556 0.784,-4.53 0.783,-4.504 0.783,-4.478 0.784,-4.452 0.783,-4.426 0.783,-4.4 0.784,-4.374 0.783,-4.347 0.783,-4.321 0.784,-4.296 0.783,-4.269 0.783,-4.243 0.784,-4.217 0.783,-4.191 0.783,-4.164 0.784,-4.139 0.783,-4.113 0.783,-4.086 0.784,-4.06 0.783,-4.034 0.783,-4.008 0.784,-3.982 0.783,-3.956 0.783,-3.93 0.784,-3.904 0.783,-3.877 0.783,-3.851 0.784,-3.826 0.783,-3.799 0.783,-3.773 0.784,-3.747 0.783,-3.721 0.783,-3.694 0.784,-3.669 0.783,-3.643 0.783,-3.616 0.784,-3.59 0.783,-3.564 0.783,-3.538 0.784,-3.512 0.783,-3.486 0.783,-3.46 0.784,-3.434 0.783,-3.407 0.783,-3.381 0.784,-3.356 0.783,-3.329 0.783,-3.303 0.784,-3.277 0.783,-3.251 0.783,-3.224 0.784,-3.199 0.783,-3.173 0.783,-3.146 0.784,-3.12 0.783,-3.094 0.783,-3.068 0.784,-3.042 0.783,-3.016 0.783,-2.99 0.784,-2.964 0.783,-2.937 0.783,-2.911 0.784,-2.886 0.783,-2.859 0.783,-2.833 0.784,-2.807 0.783,-2.781 0.783,-2.754 0.784,-2.729 0.783,-2.703 0.783,-2.676 0.784,-2.65 0.783,-2.624 0.783,-2.598 0.784,-2.572 0.783,-2.546 0.783,-2.52 0.784,-2.494 0.783,-2.467 0.783,-2.441 0.784,-2.416 0.783,-2.389 0.783,-2.363 0.784,-2.337 0.783,-2.311 0.783,-2.285 0.784,-2.258 0.783,-2.233 0.783,-2.206 0.784,-2.18 0.783,-2.154 0.783,-2.129 0.784,-2.101 0.783,-2.076 0.783,-2.05 0.784,-2.024 0.783,-1.997 0.783,-1.972 0.784,-1.945 0.783,-1.919 0.783,-1.893 0.784,-1.867 0.783,-1.841 0.783,-1.815 0.784,-1.788 0.783,-1.763 0.783,-1.736 0.784,-1.71 0.783,-1.685 0.783,-1.658 0.784,-1.632 0.783,-1.605 0.783,-1.58 0.784,-1.554 0.783,-1.527 0.783,-1.502 0.784,-1.475 0.783,-1.449 0.783,-1.423 0.784,-1.397 0.783,-1.371 0.783,-1.345 0.784,-1.318 0.783,-1.293 0.783,-1.266 0.784,-1.24 0.783,-1.215 0.783,-1.188 0.784,-1.162 0.783,-1.135 0.783,-1.11 0.784,-1.084 0.783,-1.057 0.783,-1.032 0.784,-1.005 0.783,-0.979 0.783,-0.953 0.784,-0.927 0.783,-0.901 0.783,-0.875 0.784,-0.848 0.783,-0.823 0.783,-0.796 0.784,-0.771 0.783,-0.744 0.783,-0.718 0.784,-0.692 0.783,-0.666 0.783,-0.639 0.784,-0.614 0.783,-0.587 0.783,-0.562 0.784,-0.535 0.783,-0.509 0.783,-0.483 0.784,-0.457 0.783,-0.431 0.783,-0.405 0.784,-0.379 0.783,-0.352 0.783,-0.326 0.784,-0.301 0.783,-0.274 0.783,-0.248 0.784,-0.222 0.783,-0.196 0.783,-0.169 0.784,-0.144 0.783,-0.118 0.783,-0.091 0.784,-0.065 0.783,-0.039 0.783,-0.013 0.784,0.013 0.783,0.039 0.783,0.065 0.784,0.091 0.783,0.118 0.783,0.143 0.784,0.17 0.783,0.196 0.783,0.222 0.784,0.248 0.783,0.274 0.783,0.3 0.784,0.327 0.783,0.352 0.783,0.379 0.784,0.405 0.783,0.43 0.783,0.457 0.784,0.483 0.783,0.51 0.783,0.535 0.784,0.561 0.783,0.588 0.783,0.613 0.784,0.64 0.783,0.666 0.783,0.692 0.784,0.718 0.783,0.744 0.783,0.77 0.784,0.797 0.783,0.822 0.783,0.849 0.784,0.874 0.783,0.901 0.783,0.927 0.784,0.953 0.783,0.979 0.783,1.006 0.784,1.031 0.783,1.058 0.783,1.083 0.784,1.11 0.783,1.136 0.783,1.162 0.784,1.188 0.783,1.214 0.783,1.24 0.784,1.266 0.783,1.293 0.783,1.319 0.784,1.344 0.783,1.371 0.783,1.397 0.784,1.423 0.783,1.449 0.783,1.475 0.784,1.502 0.783,1.527 0.783,1.554 0.784,1.58 0.783,1.605 0.783,1.632 0.784,1.658 0.783,1.685 0.783,1.71 0.784,1.736 0.783,1.763 0.783,1.788 0.784,1.815 0.783,1.841 0.783,1.867 0.784,1.893 0.783,1.919 0.783,1.945 0.784,1.972 0.783,1.997 0.783,2.024 0.784,2.049 0.783,2.076 0.783,2.102 0.784,2.128 0.783,2.154 0.783,2.181 0.784,2.206 0.783,2.233 0.783,2.258 0.784,2.285 0.783,2.311 0.783,2.337 0.784,2.363 0.783,2.389 0.783,2.415 0.784,2.441 0.783,2.468 0.783,2.494 0.784,2.519 0.783,2.546 0.783,2.572 0.784,2.598 0.783,2.624 0.783,2.65 0.784,2.677 0.783,2.702 0.783,2.729 0.784,2.755 0.783,2.78 0.783,2.807 0.784,2.833 0.783,2.86 0.783,2.885 0.784,2.911 0.783,2.938 0.783,2.963 0.784,2.99 0.783,3.016 0.783,3.042 0.784,3.068 0.783,3.094 0.783,3.12 0.784,3.147 0.783,3.172 0.783,3.199 0.784,3.224 0.783,3.251 0.783,3.277 0.783,3.303 0.784,3.329 0.783,3.356 0.783,3.381 0.784,3.407 0.783,3.434 0.783,3.46 0.784,3.486 0.783,3.511 0.783,3.539 0.784,3.564 0.783,3.59 0.783,3.616 0.784,3.643 0.783,3.668 0.783,3.695 0.784,3.721 0.783,3.747 0.783,3.773 0.784,3.799 0.783,3.825 0.783,3.852 0.784,3.877 0.783,3.904 0.783,3.929 0.784,3.956 0.783,3.982 0.783,4.008 0.784,4.034 0.783,4.061 0.783,4.086 0.784,4.112 0.783,4.139 0.783,4.165 0.784,4.191 0.783,4.217 0.783,4.243 0.784,4.269 0.783,4.295 0.783,4.321 0.784,4.348 0.783,4.373 0.783,4.4 0.784,4.426 0.783,4.452 0.783,4.478 0.784,4.504 0.783,4.53 0.783,4.557 0.784,4.582 0.783,4.609 0.783,4.635 0.784,4.66 0.783,4.687 0.783,4.713 0.784,4.739 0.764,4.651"
         stroke-width="5"
         stroke="#0000ff"
         fill="none" /><path
         d="m 139.358,571.718 -10.617,20.142 -3.591,-22.484 6.519,4.724 z"
         stroke-width="1"
         stroke="#0000ff"
         fill="#0000ff"
         id="path5" /><path
         d="m 424.851,569.379 -3.601,22.482 -10.608,-20.146 7.688,2.385 z"
         stroke-width="1"
         stroke="#0000ff"
         fill="#0000ff"
         id="path6" /><path
         id="path7"
         d="m 119.9,75.899 1.566,1.567 0.783,0.783 0.784,0.784 0.783,0.783 0.783,0.783 0.784,0.784 0.783,0.783 0.783,0.783 0.784,0.784 0.783,0.783 0.783,0.783 0.784,0.784 0.783,0.783 0.783,0.783 0.784,0.784 0.783,0.783 0.783,0.783 0.784,0.784 0.783,0.783 0.783,0.783 0.784,0.784 0.783,0.783 0.783,0.783 0.784,0.784 0.783,0.783 0.783,0.783 0.784,0.784 0.783,0.783 0.783,0.783 0.784,0.784 0.783,0.783 0.783,0.783 0.784,0.784 0.783,0.783 0.783,0.783 0.784,0.784 0.783,0.783 0.783,0.783 0.784,0.784 0.783,0.783 0.783,0.783 0.784,0.784 0.783,0.783 0.783,0.783 0.784,0.784 0.783,0.783 0.783,0.783 0.784,0.784 0.783,0.783 0.783,0.783 0.784,0.784 0.783,0.783 0.783,0.783 0.784,0.784 0.783,0.783 0.783,0.783 0.784,0.784 0.783,0.783 0.783,0.783 0.784,0.784 0.783,0.783 0.783,0.783 0.784,0.784 0.783,0.783 0.783,0.783 0.784,0.784 0.783,0.783 0.783,0.783 0.784,0.784 0.783,0.783 0.783,0.783 0.784,0.784 0.783,0.783 0.783,0.783 0.784,0.784 0.783,0.783 0.783,0.783 0.784,0.784 0.783,0.783 0.783,0.783 0.784,0.784 0.783,0.783 0.783,0.783 0.784,0.784 0.783,0.783 0.783,0.783 0.784,0.784 0.783,0.783 0.783,0.783 0.784,0.784 0.783,0.783 0.783,0.783 0.784,0.784 0.783,0.783 0.783,0.783 0.784,0.784 0.783,0.783 0.783,0.783 0.784,0.784 0.783,0.783 0.783,0.783 0.784,0.784 0.783,0.783 0.783,0.783 0.784,0.784 0.783,0.783 0.783,0.783 0.784,0.784 0.783,0.783 0.783,0.783 0.784,0.784 0.783,0.783 0.783,0.783 0.784,0.784 0.783,0.783 0.783,0.783 0.784,0.784 0.783,0.783 0.783,0.783 0.784,0.784 0.783,0.783 0.783,0.783 0.784,0.784 0.783,0.783 0.783,0.783 0.784,0.784 0.783,0.783 0.783,0.783 0.784,0.784 0.783,0.783 0.783,0.783 0.784,0.784 0.783,0.783 0.783,0.783 0.784,0.784 0.783,0.783 0.783,0.783 0.784,0.784 0.783,0.783 0.783,0.783 0.784,0.784 0.783,0.783 0.783,0.783 0.784,0.784 0.783,0.783 0.783,0.783 0.784,0.784 0.783,0.783 0.783,0.783 0.784,0.784 0.783,0.783 0.783,0.783 0.784,0.784 0.783,0.783 0.783,0.783 0.784,0.784 0.783,0.783 0.783,0.783 0.784,0.784 0.783,0.783 0.783,0.783 0.784,0.784 0.783,0.783 0.783,0.783 0.784,0.784 0.783,0.783 0.783,0.783 0.784,0.784 0.783,0.783 0.783,0.783 0.784,0.784 0.783,0.783 0.783,0.783 0.784,0.784 0.783,0.783 0.783,0.783 0.784,0.784 0.783,0.783 0.783,0.783 0.784,0.784 0.783,0.783 0.783,0.783 0.784,0.784 0.783,0.783 0.783,0.783 0.784,0.784 0.783,0.783 0.783,0.783 0.784,0.784 0.783,0.783 0.783,0.783 0.784,0.784 0.783,0.783 0.783,0.783 0.784,0.784 0.783,0.783 0.783,0.783 0.784,0.784 0.783,0.783 0.783,0.783 0.784,0.784 0.783,0.783 0.783,0.783 0.784,0.784 0.783,0.783 0.783,0.783 0.784,0.784 0.783,0.783 0.783,0.783 0.784,0.784 0.783,0.783 0.783,0.783 0.784,0.784 0.783,0.783 0.783,0.783 0.784,0.784 0.783,0.783 0.783,0.783 0.784,0.784 0.783,0.783 0.783,0.783 0.784,0.784 0.783,0.783 0.783,0.783 0.784,0.784 0.783,0.783 0.783,0.783 0.784,0.784 0.783,0.783 0.783,0.783 0.784,0.784 0.783,0.783 0.783,0.783 0.784,0.784 0.783,0.783 0.783,0.783 0.784,0.784 0.783,0.783 0.783,0.783 0.784,0.784 0.783,0.783 0.783,0.783 0.784,0.784 0.783,0.783 0.783,0.783 0.784,0.784 0.783,0.783 0.783,0.783 0.784,0.784 0.783,0.783 0.783,0.783 0.784,0.784 0.783,0.783 0.783,0.783 0.784,0.784 0.783,0.783 0.783,0.783 0.784,0.784 0.783,0.783 0.783,0.783 0.784,0.784 0.783,0.783 0.783,0.783 0.784,0.784 0.783,0.783 0.783,0.783 0.784,0.784 0.783,0.783 0.783,0.783 0.784,0.784 0.783,0.783 0.783,0.783 0.784,0.784 0.783,0.783 0.783,0.783 0.784,0.784 0.783,0.783 0.783,0.783 0.784,0.784 0.783,0.783 0.783,0.783 0.784,0.784 0.783,0.783 0.783,0.783 0.784,0.784 0.783,0.783 0.783,0.783 0.784,0.784 0.783,0.783 0.783,0.783 0.784,0.784 0.783,0.783 0.783,0.783 0.784,0.784 0.783,0.783 0.783,0.783 0.784,0.784 0.783,0.783 0.783,0.783 0.784,0.784 0.783,0.783 0.783,0.783 0.784,0.784 0.783,0.783 0.783,0.783 0.784,0.784 0.783,0.783 0.783,0.783 0.784,0.784 0.783,0.783 0.783,0.783 0.784,0.784 0.783,0.783 0.783,0.783 0.784,0.784 0.783,0.783 0.783,0.783 0.784,0.784 0.783,0.783 0.783,0.783 0.784,0.784 0.783,0.783 0.783,0.783 0.783,0.783 0.784,0.784 0.783,0.783 0.783,0.783 0.784,0.784 0.783,0.783 0.783,0.783 0.784,0.784 0.783,0.783 0.783,0.783 0.784,0.784 0.783,0.783 0.783,0.783 0.784,0.784 0.783,0.783 0.783,0.783 0.784,0.784 0.783,0.783 0.783,0.783 0.784,0.784 0.783,0.783 0.783,0.783 0.784,0.784 0.783,0.783 0.783,0.783 0.784,0.784 0.783,0.783 0.783,0.783 0.784,0.784 0.783,0.783 0.783,0.783 0.784,0.784 0.783,0.783 0.783,0.783 0.784,0.784 0.783,0.783 0.783,0.783 0.784,0.784 0.783,0.783 0.783,0.783 0.784,0.784 0.783,0.783 0.783,0.783 0.784,0.784 0.783,0.783 0.783,0.783 0.784,0.784 0.783,0.783 0.783,0.783 0.784,0.784 0.783,0.783 0.783,0.783 0.784,0.784 0.783,0.783 0.783,0.783 0.784,0.784 0.783,0.783 0.783,0.783 0.784,0.784 0.783,0.783 0.783,0.783 0.784,0.784 0.783,0.783 0.783,0.783 0.784,0.784 0.783,0.783 0.783,0.783 0.784,0.784 0.783,0.783 0.783,0.783 0.784,0.784 0.783,0.783 0.783,0.783 0.784,0.784 0.783,0.783 0.783,0.783 0.784,0.784 0.783,0.783 0.783,0.783 0.784,0.784 0.783,0.783 0.783,0.783 0.784,0.784 0.783,0.783 0.783,0.783 0.784,0.784 0.783,0.783 0.783,0.783 0.784,0.784 0.783,0.783 0.783,0.783 0.784,0.784 0.783,0.783 0.783,0.783 0.784,0.784 0.783,0.783 0.783,0.783 0.784,0.784 0.783,0.783 0.783,0.783 0.784,0.784 0.783,0.783 0.783,0.783 0.784,0.784 0.783,0.783 0.783,0.783 0.784,0.784 0.783,0.783 0.783,0.783 0.784,0.784 0.783,0.783 0.783,0.783 0.784,0.784 0.783,0.783 0.783,0.783 0.784,0.784 0.783,0.783 0.783,0.783 0.784,0.784 0.783,0.783 0.783,0.783 0.784,0.784 0.783,0.783 0.783,0.783 0.784,0.784 0.783,0.783 0.783,0.783 0.784,0.784 0.783,0.783 0.783,0.783 0.784,0.784 0.783,0.783 0.783,0.783 0.784,0.784 0.783,0.783 0.783,0.783 0.784,0.784 0.783,0.783 0.783,0.783 0.784,0.784 0.783,0.783 0.783,0.783 0.784,0.784 0.783,0.783 0.783,0.783 0.784,0.784 0.783,0.783 0.783,0.783 0.784,0.784 0.783,0.783 0.783,0.783 0.784,0.784 0.783,0.783 0.783,0.783 0.784,0.784 0.783,0.783 0.783,0.783 0.784,0.784 0.783,0.783 0.783,0.783 0.784,0.784 0.783,0.783 0.783,0.783 0.784,0.784 0.783,0.783 0.783,0.783 0.784,0.784 0.783,0.783 0.783,0.783 0.784,0.784 0.783,0.783 0.783,0.783 0.784,0.784 0.783,0.783"
         stroke-width="5"
         stroke="#0000ff"
         fill="none" /><path
         d="M 117.354,83.536 107.172,63.172 127.536,73.354 119.9,75.899 Z"
         stroke-width="1"
         stroke="#0000ff"
         fill="#0000ff"
         id="path8" /><path
         d="m 512.545,458.362 10.182,20.365 -20.365,-10.182 7.637,-2.546 z"
         stroke-width="1"
         stroke="#0000ff"
         fill="#0000ff"
         id="path9" /></g><path
       style="fill:#ff0000;stroke:#000000;stroke-width:0.693666;paint-order:markers fill stroke"
       d="m 158.13971,105.86195 c -16.17915,-12.98293 -20.58336,-16.759581 -20.4644,-17.548403 0.12188,-0.808115 -0.17381,-1.036406 -1.50848,-1.164638 l -1.66008,-0.159496 -0.13731,-8.925214 -0.13731,-8.925215 h 1.77151 c 0.97432,0 1.7715,-0.226273 1.7715,-0.502829 0,-0.276556 -0.79196,-0.502829 -1.7599,-0.502829 h -1.7599 v -8.86236 -8.862361 l 1.6027,0.32054 c 12.81834,2.563668 25.83176,22.450235 39.06688,59.700335 3.7326,10.50539 4.23606,12.01845 3.99037,11.99255 -0.0878,-0.009 -9.43678,-7.46129 -20.77558,-16.56008 z"
       id="path10"
       transform="matrix(0.26458333,0,0,0.26458333,0,177)" /><path
       style="fill:#ff0000;stroke:#000000;stroke-width:0.693666;paint-order:markers fill stroke"
       d="m 122.06173,76.884493 c -5.73853,-4.588439 -10.4337,-8.533751 -10.4337,-8.767359 0,-0.233609 1.36334,-2.234033 3.02965,-4.445387 5.34118,-7.088281 11.46254,-11.882788 16.45498,-12.888226 l 1.63419,-0.329114 v 8.83946 8.839459 h -1.50849 c -0.82966,0 -1.50848,0.226273 -1.50848,0.502829 0,0.276556 0.67882,0.502829 1.50848,0.502829 h 1.50849 v 8.045264 c 0,4.424895 -0.0566,8.044723 -0.12571,8.044063 -0.0691,-6.6e-4 -4.82087,-3.755378 -10.55941,-8.343818 z"
       id="path11"
       transform="matrix(0.26458333,0,0,0.26458333,0,177)" /><ellipse
       style="fill:none;stroke:#000000;stroke-width:0.344051;paint-order:markers fill stroke"
       id="path12"
       cx="66.776291"
       cy="231.05574"
       rx="2.3196075"
       ry="2.639997"
       transform="matrix(0.95158378,-0.30738951,0,1,0,0)" /><rect
       style="fill:#ffffff;fill-opacity:1;stroke:none;stroke-width:0.2878;paint-order:markers fill stroke"
       id="rect12"
       width="1.1988809"
       height="1.4280096"
       x="61.127262"
       y="210.61984"
       rx="0.12018158"
       ry="0.12018158" /><path
       style="fill:none;stroke:#000000;stroke-width:0.365;stroke-linecap:butt;stroke-linejoin:miter;stroke-dasharray:none;stroke-opacity:1;marker-end:url(#ArrowWide)"
       d="m 61.961862,212.29193 -0.403715,-0.92658"
       id="path13" /><ellipse
       style="fill:none;fill-opacity:1;stroke:#000000;stroke-width:0.462478;stroke-dasharray:none;stroke-opacity:1;paint-order:markers fill stroke"
       id="path15"
       cx="39.752636"
       cy="209.7679"
       rx="2.0237007"
       ry="16.124584" /><ellipse
       style="fill:none;fill-opacity:1;stroke:#000000;stroke-width:0.496836;stroke-dasharray:none;stroke-opacity:1;paint-order:markers fill stroke"
       id="path16"
       cx="39.773823"
       cy="211.12277"
       rx="0.98360425"
       ry="6.9470344" /></g></svg>
