<?xml version="1.0" encoding="UTF-8" standalone="no"?>
<!-- Created with Inkscape (http://www.inkscape.org/) -->

<svg
   width="3in"
   height="2.5in"
   viewBox="0 0 76.2 63.5"
   version="1.1"
   id="svg8"
   inkscape:version="1.3 (0e150ed6c4, 2023-07-21)"
   sodipodi:docname="fig10.svg"
   xml:space="preserve"
   xmlns:inkscape="http://www.inkscape.org/namespaces/inkscape"
   xmlns:sodipodi="http://sodipodi.sourceforge.net/DTD/sodipodi-0.dtd"
   xmlns="http://www.w3.org/2000/svg"
   xmlns:svg="http://www.w3.org/2000/svg"
   xmlns:rdf="http://www.w3.org/1999/02/22-rdf-syntax-ns#"
   xmlns:cc="http://creativecommons.org/ns#"
   xmlns:dc="http://purl.org/dc/elements/1.1/"><defs
     id="defs2"><style
       type="text/css"
       id="style1">@import url(&quot;http://cdnjs.cloudflare.com/ajax/libs/KaTeX/0.2.0/katex.min.css&quot;)</style></defs><sodipodi:namedview
     id="base"
     pagecolor="#ffffff"
     bordercolor="#666666"
     borderopacity="1.0"
     inkscape:pageopacity="0.0"
     inkscape:pageshadow="2"
     inkscape:zoom="4.6056919"
     inkscape:cx="150.14031"
     inkscape:cy="105.84729"
     inkscape:document-units="mm"
     inkscape:current-layer="layer1"
     showgrid="false"
     showborder="true"
     width="200mm"
     showguides="true"
     inkscape:guide-bbox="true"
     inkscape:window-width="1890"
     inkscape:window-height="1022"
     inkscape:window-x="12"
     inkscape:window-y="40"
     inkscape:window-maximized="1"
     inkscape:showpageshadow="2"
     inkscape:pagecheckerboard="0"
     inkscape:deskcolor="#d1d1d1"><inkscape:grid
       type="xygrid"
       id="grid815"
       units="mm"
       spacingx="10"
       spacingy="10"
       empspacing="4"
       dotted="false"
       originx="0"
       originy="0"
       visible="false" /></sodipodi:namedview><metadata
     id="metadata5"><rdf:RDF><cc:Work
         rdf:about=""><dc:format>image/svg+xml</dc:format><dc:type
           rdf:resource="http://purl.org/dc/dcmitype/StillImage" /></cc:Work></rdf:RDF></metadata><g
     inkscape:label="Layer 1"
     inkscape:groupmode="layer"
     id="layer1"
     transform="translate(0,-177)"><g
       id="g1"
       transform="matrix(0.13506571,0,0,0.10975172,-1.738945,175.42055)"><path
         d="M 524.4,317.8 546,325 524.4,332.2 528,325 Z"
         stroke-width="1"
         stroke="#000000"
         fill="#000000"
         id="path1" /><path
         d="M 267.8,75.6 275,54 282.2,75.6 275,72 Z"
         stroke-width="1"
         stroke="#000000"
         fill="#000000"
         id="path2" /><path
         d="M 22,325 H 528 M 275,72 v 506 m 0,-245.75 v -14.5 m 47,14.5 v -14.5 m 47,14.5 v -14.5 m 47,14.5 v -14.5 m 47,14.5 v -14.5 m 47,14.5 v -14.5 m -282,14.5 v -14.5 m -47,14.5 v -14.5 m -47,14.5 v -14.5 m -47,14.5 v -14.5 m -47,14.5 v -14.5 M 282.25,325 h -14.5 m 14.5,47 h -14.5 m 14.5,47 h -14.5 m 14.5,47 h -14.5 m 14.5,47 h -14.5 m 14.5,47 h -14.5 m 14.5,-282 h -14.5 m 14.5,-47 h -14.5 m 14.5,-47 h -14.5 m 14.5,-47 h -14.5 m 14.5,-47 h -14.5"
         stroke-width="2"
         stroke="#000000"
         fill="none"
         id="path3" /><text
         id="null"
         x="275"
         y="42.333"
         font-style="italic"
         font-family="KaTeX_Main, serif"
         font-size="29px"
         font-weight="normal"
         text-anchor="middle"
         fill="#000000"
         stroke-width="0px">y</text><text
         id="text3"
         x="557.66602"
         y="334.66599"
         font-style="italic"
         font-family="KaTeX_Main, serif"
         font-size="29px"
         font-weight="normal"
         text-anchor="start"
         fill="#000000"
         stroke-width="0px">x</text><path
         id="path4"
         d="m 275.783,318.933 0.783,-2.514 0.783,-1.928 0.784,-1.626 0.783,-1.433 0.783,-1.295 0.784,-1.191 0.783,-1.108 0.783,-1.041 0.784,-0.985 0.783,-0.936 0.783,-0.895 0.784,-0.859 0.783,-0.825 0.783,-0.797 0.784,-0.771 0.783,-0.747 0.783,-0.725 0.784,-0.706 0.783,-0.687 0.783,-0.67 0.784,-0.654 0.783,-0.64 0.783,-0.626 0.784,-0.613 0.783,-0.6 0.783,-0.59 0.784,-0.578 0.783,-0.569 0.783,-0.558 0.784,-0.55 0.783,-0.54 0.783,-0.532 0.784,-0.525 0.783,-0.516 0.783,-0.509 0.784,-0.503 0.783,-0.495 0.783,-0.489 0.784,-0.483 0.783,-0.476 0.783,-0.471 0.784,-0.466 0.783,-0.46 0.783,-0.455 0.784,-0.449 0.783,-0.445 0.783,-0.44 0.784,-0.436 0.783,-0.431 0.783,-0.427 0.784,-0.423 0.783,-0.419 0.783,-0.414 0.784,-0.411 0.783,-0.408 0.783,-0.403 0.784,-0.4 0.783,-0.397 0.783,-0.393 0.784,-0.39 0.783,-0.387 0.783,-0.384 0.784,-0.381 0.783,-0.378 0.783,-0.374 0.784,-0.372 0.783,-0.37 0.783,-0.366 0.784,-0.364 0.783,-0.361 0.783,-0.359 0.784,-0.357 0.783,-0.353 0.783,-0.352 0.784,-0.349 0.783,-0.347 0.783,-0.345 0.784,-0.342 0.783,-0.34 0.783,-0.338 0.784,-0.336 0.783,-0.335 0.783,-0.332 0.784,-0.33 0.783,-0.328 0.783,-0.326 0.784,-0.324 0.783,-0.323 0.783,-0.32 0.784,-0.319 0.783,-0.317 0.783,-0.316 0.784,-0.314 0.783,-0.312 0.783,-0.31 0.784,-0.309 0.783,-0.307 0.783,-0.306 0.784,-0.304 0.783,-0.303 0.783,-0.301 0.784,-0.3 0.783,-0.298 0.783,-0.297 0.784,-0.295 0.783,-0.294 0.783,-0.292 0.784,-0.292 0.783,-0.29 0.783,-0.288 0.784,-0.288 0.783,-0.286 0.783,-0.284 0.784,-0.284 0.783,-0.282 0.783,-0.281 0.784,-0.28 0.783,-0.279 0.783,-0.277 0.784,-0.277 0.783,-0.275 0.783,-0.274 0.784,-0.273 0.783,-0.272 0.783,-0.271 0.783,-0.27 0.784,-0.268 0.783,-0.268 0.783,-0.267 0.784,-0.265 0.783,-0.265 0.783,-0.263 0.784,-0.263 0.783,-0.261 0.783,-0.261 0.784,-0.26 0.783,-0.258 0.783,-0.258 0.784,-0.257 0.783,-0.256 0.783,-0.255 0.784,-0.254 0.783,-0.253 0.783,-0.253 0.784,-0.251 0.783,-0.251 0.783,-0.25 0.784,-0.249 0.783,-0.248 0.783,-0.247 0.784,-0.247 0.783,-0.245 0.783,-0.245 0.784,-0.244 0.783,-0.244 0.783,-0.242 0.784,-0.242 0.783,-0.241 0.783,-0.24 0.784,-0.24 0.783,-0.238 0.783,-0.238 0.784,-0.238 0.783,-0.236 0.783,-0.236 0.784,-0.235 0.783,-0.234 0.783,-0.234 0.784,-0.233 0.783,-0.233 0.783,-0.231 0.784,-0.231 0.783,-0.231 0.783,-0.229 0.784,-0.229 0.783,-0.229 0.783,-0.227 0.784,-0.227 0.783,-0.227 0.783,-0.226 0.784,-0.225 0.783,-0.224 0.783,-0.224 0.784,-0.224 0.783,-0.222 0.783,-0.223 0.784,-0.221 0.783,-0.221 0.783,-0.221 0.784,-0.219 0.783,-0.22 0.783,-0.218 0.784,-0.218 0.783,-0.218 0.783,-0.217 0.784,-0.216 0.783,-0.216 0.783,-0.215 0.784,-0.215 0.783,-0.215 0.783,-0.213 0.784,-0.213 0.783,-0.213 0.783,-0.212 0.784,-0.212 0.783,-0.211 0.783,-0.211 0.784,-0.21 0.783,-0.209 0.783,-0.209 0.784,-0.209 0.783,-0.208 0.783,-0.208 0.784,-0.207 0.783,-0.207 0.783,-0.206 0.784,-0.206 0.783,-0.205 0.783,-0.205 0.784,-0.204 0.783,-0.204 0.783,-0.203 0.784,-0.203 0.783,-0.203 0.783,-0.202 0.784,-0.201 0.783,-0.201 0.783,-0.201 0.784,-0.2 0.783,-0.2 0.783,-0.199 0.784,-0.199 0.783,-0.199 0.783,-0.198 0.784,-0.198 0.783,-0.197 0.783,-0.197 0.784,-0.196 0.783,-0.196 0.783,-0.196 0.784,-0.195 0.783,-0.195 0.783,-0.194 0.784,-0.195 0.783,-0.193 0.783,-0.193 0.784,-0.193 0.783,-0.193 0.783,-0.192 0.784,-0.191 0.783,-0.192 0.783,-0.191 0.784,-0.19 0.783,-0.19 0.783,-0.19 0.784,-0.19 0.783,-0.189 0.783,-0.188 0.784,-0.189 0.783,-0.188 0.783,-0.187 0.784,-0.188 0.783,-0.186 0.783,-0.187 0.784,-0.186 0.783,-0.186 0.783,-0.185 0.784,-0.186 0.783,-0.184 0.783,-0.185 0.784,-0.184 0.783,-0.184 0.783,-0.183 0.784,-0.183 0.783,-0.183 0.783,-0.183 0.784,-0.182 0.783,-0.182 0.783,-0.181 0.784,-0.181 0.783,-0.181 0.783,-0.18 0.784,-0.181 0.783,-0.18 0.783,-0.179 0.784,-0.179 0.783,-0.179 0.783,-0.179 0.784,-0.178 0.783,-0.178 0.783,-0.178 0.784,-0.177 0.783,-0.177 0.783,-0.177 0.784,-0.177 0.783,-0.176 0.783,-0.176 0.784,-0.175 0.783,-0.176"
         stroke-width="5"
         stroke="#0000ff"
         fill="none" /><path
         d="m 283.728,317.638 -13.301,18.48 -0.447,-22.764 5.803,5.579 z"
         stroke-width="1"
         stroke="#0000ff"
         fill="#0000ff"
         id="path5" /><path
         d="m 504.914,213.664 22.651,2.309 -19.507,11.744 1.941,-7.813 z"
         stroke-width="1"
         stroke="#0000ff"
         fill="#0000ff"
         id="path6" /><path
         id="path7"
         d="m 119.9,574.1 1.566,-1.567 0.783,-0.783 0.784,-0.784 0.783,-0.783 0.783,-0.783 0.784,-0.784 0.783,-0.783 0.783,-0.783 0.784,-0.784 0.783,-0.783 0.783,-0.783 0.784,-0.784 0.783,-0.783 0.783,-0.783 0.784,-0.784 0.783,-0.783 0.783,-0.783 0.784,-0.784 0.783,-0.783 0.783,-0.783 0.784,-0.784 0.783,-0.783 0.783,-0.783 0.784,-0.784 0.783,-0.783 0.783,-0.783 0.784,-0.784 0.783,-0.783 0.783,-0.783 0.784,-0.784 0.783,-0.783 0.783,-0.783 0.784,-0.784 0.783,-0.783 0.783,-0.783 0.784,-0.784 0.783,-0.783 0.783,-0.783 0.784,-0.784 0.783,-0.783 0.783,-0.783 0.784,-0.784 0.783,-0.783 0.783,-0.783 0.784,-0.784 0.783,-0.783 0.783,-0.783 0.784,-0.784 0.783,-0.783 0.783,-0.783 0.784,-0.784 0.783,-0.783 0.783,-0.783 0.784,-0.784 0.783,-0.783 0.783,-0.783 0.784,-0.784 0.783,-0.783 0.783,-0.783 0.784,-0.784 0.783,-0.783 0.783,-0.783 0.784,-0.784 0.783,-0.783 0.783,-0.783 0.784,-0.784 0.783,-0.783 0.783,-0.783 0.784,-0.784 0.783,-0.783 0.783,-0.783 0.784,-0.784 0.783,-0.783 0.783,-0.783 0.784,-0.784 0.783,-0.783 0.783,-0.783 0.784,-0.784 0.783,-0.783 0.783,-0.783 0.784,-0.784 0.783,-0.783 0.783,-0.783 0.784,-0.784 0.783,-0.783 0.783,-0.783 0.784,-0.784 0.783,-0.783 0.783,-0.783 0.784,-0.784 0.783,-0.783 0.783,-0.783 0.784,-0.784 0.783,-0.783 0.783,-0.783 0.784,-0.784 0.783,-0.783 0.783,-0.783 0.784,-0.784 0.783,-0.783 0.783,-0.783 0.784,-0.784 0.783,-0.783 0.783,-0.783 0.784,-0.784 0.783,-0.783 0.783,-0.783 0.784,-0.784 0.783,-0.783 0.783,-0.783 0.784,-0.784 0.783,-0.783 0.783,-0.783 0.784,-0.784 0.783,-0.783 0.783,-0.783 0.784,-0.784 0.783,-0.783 0.783,-0.783 0.784,-0.784 0.783,-0.783 0.783,-0.783 0.784,-0.784 0.783,-0.783 0.783,-0.783 0.784,-0.784 0.783,-0.783 0.783,-0.783 0.784,-0.784 0.783,-0.783 0.783,-0.783 0.784,-0.784 0.783,-0.783 0.783,-0.783 0.784,-0.784 0.783,-0.783 0.783,-0.783 0.784,-0.784 0.783,-0.783 0.783,-0.783 0.784,-0.784 0.783,-0.783 0.783,-0.783 0.784,-0.784 0.783,-0.783 0.783,-0.783 0.784,-0.784 0.783,-0.783 0.783,-0.783 0.784,-0.784 0.783,-0.783 0.783,-0.783 0.784,-0.784 0.783,-0.783 0.783,-0.783 0.784,-0.784 0.783,-0.783 0.783,-0.783 0.784,-0.784 0.783,-0.783 0.783,-0.783 0.784,-0.784 0.783,-0.783 0.783,-0.783 0.784,-0.784 0.783,-0.783 0.783,-0.783 0.784,-0.784 0.783,-0.783 0.783,-0.783 0.784,-0.784 0.783,-0.783 0.783,-0.783 0.784,-0.784 0.783,-0.783 0.783,-0.783 0.784,-0.784 0.783,-0.783 0.783,-0.783 0.784,-0.784 0.783,-0.783 0.783,-0.783 0.784,-0.784 0.783,-0.783 0.783,-0.783 0.784,-0.784 0.783,-0.783 0.783,-0.783 0.784,-0.784 0.783,-0.783 0.783,-0.783 0.784,-0.784 0.783,-0.783 0.783,-0.783 0.784,-0.784 0.783,-0.783 0.783,-0.783 0.784,-0.784 0.783,-0.783 0.783,-0.783 0.784,-0.784 0.783,-0.783 0.783,-0.783 0.784,-0.784 0.783,-0.783 0.783,-0.783 0.784,-0.784 0.783,-0.783 0.783,-0.783 0.784,-0.784 0.783,-0.783 0.783,-0.783 0.784,-0.784 0.783,-0.783 0.783,-0.783 0.784,-0.784 0.783,-0.783 0.783,-0.783 0.784,-0.784 0.783,-0.783 0.783,-0.783 0.784,-0.784 0.783,-0.783 0.783,-0.783 0.784,-0.784 0.783,-0.783 0.783,-0.783 0.784,-0.784 0.783,-0.783 0.783,-0.783 0.784,-0.784 0.783,-0.783 0.783,-0.783 0.784,-0.784 0.783,-0.783 0.783,-0.783 0.784,-0.784 0.783,-0.783 0.783,-0.783 0.784,-0.784 0.783,-0.783 0.783,-0.783 0.784,-0.784 0.783,-0.783 0.783,-0.783 0.784,-0.784 0.783,-0.783 0.783,-0.783 0.784,-0.784 0.783,-0.783 0.783,-0.783 0.784,-0.784 0.783,-0.783 0.783,-0.783 0.784,-0.784 0.783,-0.783 0.783,-0.783 0.784,-0.784 0.783,-0.783 0.783,-0.783 0.784,-0.784 0.783,-0.783 0.783,-0.783 0.784,-0.784 0.783,-0.783 0.783,-0.783 0.784,-0.784 0.783,-0.783 0.783,-0.783 0.784,-0.784 0.783,-0.783 0.783,-0.783 0.784,-0.784 0.783,-0.783 0.783,-0.783 0.784,-0.784 0.783,-0.783 0.783,-0.783 0.784,-0.784 0.783,-0.783 0.783,-0.783 0.784,-0.784 0.783,-0.783 0.783,-0.783 0.784,-0.784 0.783,-0.783 0.783,-0.783 0.784,-0.784 0.783,-0.783 0.783,-0.783 0.784,-0.784 0.783,-0.783 0.783,-0.783 0.784,-0.784 0.783,-0.783 0.783,-0.783 0.784,-0.784 0.783,-0.783 0.783,-0.783 0.784,-0.784 0.783,-0.783 0.783,-0.783 0.784,-0.784 0.783,-0.783 0.783,-0.783 0.784,-0.784 0.783,-0.783 0.783,-0.783 0.784,-0.784 0.783,-0.783 0.783,-0.783 0.784,-0.784 0.783,-0.783 0.783,-0.783 0.784,-0.784 0.783,-0.783 0.783,-0.783 0.784,-0.784 0.783,-0.783 0.783,-0.783 0.784,-0.784 0.783,-0.783 0.783,-0.783 0.783,-0.783 0.784,-0.784 0.783,-0.783 0.783,-0.783 0.784,-0.784 0.783,-0.783 0.783,-0.783 0.784,-0.784 0.783,-0.783 0.783,-0.783 0.784,-0.784 0.783,-0.783 0.783,-0.783 0.784,-0.784 0.783,-0.783 0.783,-0.783 0.784,-0.784 0.783,-0.783 0.783,-0.783 0.784,-0.784 0.783,-0.783 0.783,-0.783 0.784,-0.784 0.783,-0.783 0.783,-0.783 0.784,-0.784 0.783,-0.783 0.783,-0.783 0.784,-0.784 0.783,-0.783 0.783,-0.783 0.784,-0.784 0.783,-0.783 0.783,-0.783 0.784,-0.784 0.783,-0.783 0.783,-0.783 0.784,-0.784 0.783,-0.783 0.783,-0.783 0.784,-0.784 0.783,-0.783 0.783,-0.783 0.784,-0.784 0.783,-0.783 0.783,-0.783 0.784,-0.784 0.783,-0.783 0.783,-0.783 0.784,-0.784 0.783,-0.783 0.783,-0.783 0.784,-0.784 0.783,-0.783 0.783,-0.783 0.784,-0.784 0.783,-0.783 0.783,-0.783 0.784,-0.784 0.783,-0.783 0.783,-0.783 0.784,-0.784 0.783,-0.783 0.783,-0.783 0.784,-0.784 0.783,-0.783 0.783,-0.783 0.784,-0.784 0.783,-0.783 0.783,-0.783 0.784,-0.784 0.783,-0.783 0.783,-0.783 0.784,-0.784 0.783,-0.783 0.783,-0.783 0.784,-0.784 0.783,-0.783 0.783,-0.783 0.784,-0.784 0.783,-0.783 0.783,-0.783 0.784,-0.784 0.783,-0.783 0.783,-0.783 0.784,-0.784 0.783,-0.783 0.783,-0.783 0.784,-0.784 0.783,-0.783 0.783,-0.783 0.784,-0.784 0.783,-0.783 0.783,-0.783 0.784,-0.784 0.783,-0.783 0.783,-0.783 0.784,-0.784 0.783,-0.783 0.783,-0.783 0.784,-0.784 0.783,-0.783 0.783,-0.783 0.784,-0.784 0.783,-0.783 0.783,-0.783 0.784,-0.784 0.783,-0.783 0.783,-0.783 0.784,-0.784 0.783,-0.783 0.783,-0.783 0.784,-0.784 0.783,-0.783 0.783,-0.783 0.784,-0.784 0.783,-0.783 0.783,-0.783 0.784,-0.784 0.783,-0.783 0.783,-0.783 0.784,-0.784 0.783,-0.783 0.783,-0.783 0.784,-0.784 0.783,-0.783 0.783,-0.783 0.784,-0.784 0.783,-0.783 0.783,-0.783 0.784,-0.784 0.783,-0.783 0.783,-0.783 0.784,-0.784 0.783,-0.783 0.783,-0.783 0.784,-0.784 0.783,-0.783 0.783,-0.783 0.784,-0.784 0.783,-0.783 0.783,-0.783 0.784,-0.784 0.783,-0.783 0.783,-0.783 0.784,-0.784 0.783,-0.783 0.783,-0.783 0.784,-0.784 0.783,-0.783 0.783,-0.783 0.784,-0.784 0.783,-0.783 0.783,-0.783 0.784,-0.784 0.783,-0.783 0.783,-0.783 0.784,-0.784 0.783,-0.783 0.783,-0.783 0.784,-0.784 0.783,-0.783 0.783,-0.783 0.784,-0.784 0.783,-0.783 0.783,-0.783 0.784,-0.784 0.783,-0.783 0.783,-0.783 0.784,-0.784 0.783,-0.783 0.783,-0.783 0.784,-0.784 0.783,-0.783"
         stroke-width="5"
         stroke="#0000ff"
         fill="none" /><path
         d="m 127.536,576.645 -20.364,10.182 10.182,-20.364 2.546,7.637 z"
         stroke-width="1"
         stroke="#0000ff"
         fill="#0000ff"
         id="path8" /><path
         d="M 502.362,181.454 522.727,171.272 512.545,191.637 509.999,184 Z"
         stroke-width="1"
         stroke="#0000ff"
         fill="#0000ff"
         id="path9" /></g><path
       style="fill:#ff0000;stroke:#000000;stroke-width:0.361073;paint-order:markers fill stroke"
       d="m 134.39892,157.33901 v -8.39288 h 1.62842 c 1.59223,0 1.62842,-0.0121 1.62842,-0.5428 0,-0.53075 -0.0362,-0.54281 -1.62842,-0.54281 h -1.62842 v -8.61874 -8.61875 l 0.58342,-0.60897 0.58343,-0.60896 h 10.81551 10.81551 v 1.30273 1.30274 h 0.65137 0.65137 v -1.30274 -1.30273 h 10.25301 c 9.99722,0 10.24233,0.0101 9.8248,0.40301 -0.23551,0.22166 -10.10102,8.24752 -21.92335,17.83526 -11.82233,9.58773 -21.66613,17.5799 -21.87511,17.76037 -0.36098,0.31174 -0.37996,-0.0913 -0.37996,-8.06473 z"
       id="path10"
       transform="matrix(0.26458333,0,0,0.26458333,0,177)" /><path
       style="fill:#ff0000;stroke:#000000;stroke-width:0.361073;paint-order:markers fill stroke"
       d="m 137.80024,126.87533 1.26681,-1.44416 -1.58963,0.15609 -1.58963,0.1561 0.26475,-0.5032 c 3.10439,-5.90043 13.51657,-11.992 30.92333,-18.09147 9.78647,-3.42926 24.11066,-7.446983 39.08208,-10.961946 6.15146,-1.444229 18.60426,-4.158845 18.68903,-4.074069 0.0359,0.0359 -9.47937,7.820642 -21.14506,17.299415 -17.73971,14.41414 -21.22169,17.15787 -21.27972,16.76803 -0.0528,-0.35491 -0.22118,-0.46611 -0.70565,-0.46611 -0.61523,0 -0.63627,0.0344 -0.63627,1.04219 0,0.5732 -0.11724,1.15943 -0.26054,1.30274 -0.19581,0.19581 -3.00112,0.26054 -11.29038,0.26054 h -11.02983 v -1.30273 -1.30274 h -0.65137 -0.65137 v 1.30274 1.30273 h -10.33168 -10.33169 z"
       id="path11"
       transform="matrix(0.26458333,0,0,0.26458333,0,177)" /></g></svg>
