<?xml version="1.0" encoding="UTF-8" standalone="no"?>
<!-- Created with Inkscape (http://www.inkscape.org/) -->

<svg
   width="3in"
   height="2.5in"
   viewBox="0 0 76.2 63.5"
   version="1.1"
   id="svg8"
   inkscape:version="1.3 (0e150ed6c4, 2023-07-21)"
   sodipodi:docname="fig12.svg"
   xml:space="preserve"
   xmlns:inkscape="http://www.inkscape.org/namespaces/inkscape"
   xmlns:sodipodi="http://sodipodi.sourceforge.net/DTD/sodipodi-0.dtd"
   xmlns="http://www.w3.org/2000/svg"
   xmlns:svg="http://www.w3.org/2000/svg"
   xmlns:rdf="http://www.w3.org/1999/02/22-rdf-syntax-ns#"
   xmlns:cc="http://creativecommons.org/ns#"
   xmlns:dc="http://purl.org/dc/elements/1.1/"><defs
     id="defs2"><inkscape:path-effect
       effect="powerstroke"
       id="path-effect26"
       is_visible="true"
       lpeversion="1.3"
       scale_width="1"
       interpolator_type="CentripetalCatmullRom"
       interpolator_beta="0.75"
       start_linecap_type="peak"
       end_linecap_type="peak"
       offset_points="1.6298202,0.2136659"
       linejoin_type="spiro"
       miter_limit="4"
       not_jump="true"
       sort_points="true"
       message="&lt;b&gt;Ctrl + click&lt;/b&gt; on existing node and move it" /><inkscape:path-effect
       effect="simplify"
       id="path-effect25"
       is_visible="true"
       lpeversion="1.3"
       threshold="0.6"
       steps="1"
       smooth_angles="0"
       helper_size="0"
       simplify_individual_paths="false"
       simplify_just_coalesce="false"
       step="1" /><inkscape:path-effect
       effect="powerstroke"
       id="path-effect24"
       is_visible="true"
       lpeversion="1.3"
       scale_width="1"
       interpolator_type="CentripetalCatmullRom"
       interpolator_beta="0.75"
       start_linecap_type="peak"
       end_linecap_type="peak"
       offset_points="2.756559,0.18814721"
       linejoin_type="spiro"
       miter_limit="4"
       not_jump="true"
       sort_points="true"
       message="&lt;b&gt;Ctrl + click&lt;/b&gt; on existing node and move it" /><inkscape:path-effect
       effect="simplify"
       id="path-effect23"
       is_visible="true"
       lpeversion="1.3"
       threshold="0.6"
       steps="1"
       smooth_angles="0"
       helper_size="0"
       simplify_individual_paths="false"
       simplify_just_coalesce="false"
       step="1" /><inkscape:path-effect
       effect="powerstroke"
       id="path-effect22"
       is_visible="true"
       lpeversion="1.3"
       scale_width="1"
       interpolator_type="CentripetalCatmullRom"
       interpolator_beta="0.75"
       start_linecap_type="peak"
       end_linecap_type="peak"
       offset_points="9.008743,0.18814721"
       linejoin_type="spiro"
       miter_limit="4"
       not_jump="true"
       sort_points="true"
       message="&lt;b&gt;Ctrl + click&lt;/b&gt; on existing node and move it" /><inkscape:path-effect
       effect="simplify"
       id="path-effect21"
       is_visible="true"
       lpeversion="1.3"
       threshold="0.6"
       steps="1"
       smooth_angles="0"
       helper_size="0"
       simplify_individual_paths="false"
       simplify_just_coalesce="false"
       step="1" /><inkscape:path-effect
       effect="powerstroke"
       id="path-effect20"
       is_visible="true"
       lpeversion="1.3"
       scale_width="1"
       interpolator_type="CentripetalCatmullRom"
       interpolator_beta="0.75"
       start_linecap_type="peak"
       end_linecap_type="peak"
       offset_points="3.0591032,0.18814721"
       linejoin_type="spiro"
       miter_limit="4"
       not_jump="true"
       sort_points="true"
       message="&lt;b&gt;Ctrl + click&lt;/b&gt; on existing node and move it" /><inkscape:path-effect
       effect="simplify"
       id="path-effect19"
       is_visible="true"
       lpeversion="1.3"
       threshold="0.6"
       steps="1"
       smooth_angles="0"
       helper_size="0"
       simplify_individual_paths="false"
       simplify_just_coalesce="false"
       step="1" /><inkscape:path-effect
       effect="powerstroke"
       id="path-effect18"
       is_visible="true"
       lpeversion="1.3"
       scale_width="1"
       interpolator_type="CentripetalCatmullRom"
       interpolator_beta="0.75"
       start_linecap_type="peak"
       end_linecap_type="peak"
       offset_points="2.1211946,0.18814721"
       linejoin_type="spiro"
       miter_limit="4"
       not_jump="true"
       sort_points="true"
       message="&lt;b&gt;Ctrl + click&lt;/b&gt; on existing node and move it" /><inkscape:path-effect
       effect="simplify"
       id="path-effect17"
       is_visible="true"
       lpeversion="1.3"
       threshold="0.6"
       steps="1"
       smooth_angles="0"
       helper_size="0"
       simplify_individual_paths="false"
       simplify_just_coalesce="false"
       step="1" /><inkscape:path-effect
       effect="powerstroke"
       id="path-effect16"
       is_visible="true"
       lpeversion="1.3"
       scale_width="1"
       interpolator_type="CentripetalCatmullRom"
       interpolator_beta="0.75"
       start_linecap_type="peak"
       end_linecap_type="peak"
       offset_points="1.9174234,0.18814721"
       linejoin_type="spiro"
       miter_limit="4"
       not_jump="true"
       sort_points="true"
       message="&lt;b&gt;Ctrl + click&lt;/b&gt; on existing node and move it" /><inkscape:path-effect
       effect="simplify"
       id="path-effect15"
       is_visible="true"
       lpeversion="1.3"
       threshold="0.6"
       steps="1"
       smooth_angles="0"
       helper_size="0"
       simplify_individual_paths="false"
       simplify_just_coalesce="false"
       step="1" /><inkscape:path-effect
       effect="powerstroke"
       id="path-effect14"
       is_visible="true"
       lpeversion="1.3"
       scale_width="1"
       interpolator_type="CentripetalCatmullRom"
       interpolator_beta="0.75"
       start_linecap_type="peak"
       end_linecap_type="peak"
       offset_points="2.9920815,0.18814721"
       linejoin_type="spiro"
       miter_limit="4"
       not_jump="true"
       sort_points="true"
       message="&lt;b&gt;Ctrl + click&lt;/b&gt; on existing node and move it" /><inkscape:path-effect
       effect="simplify"
       id="path-effect13"
       is_visible="true"
       lpeversion="1.3"
       threshold="0.6"
       steps="1"
       smooth_angles="0"
       helper_size="0"
       simplify_individual_paths="false"
       simplify_just_coalesce="false"
       step="1" /><inkscape:path-effect
       effect="powerstroke"
       id="path-effect12"
       is_visible="true"
       lpeversion="1.3"
       scale_width="1"
       interpolator_type="CentripetalCatmullRom"
       interpolator_beta="0.75"
       start_linecap_type="peak"
       end_linecap_type="peak"
       offset_points="3.0491853,0.18814721"
       linejoin_type="spiro"
       miter_limit="4"
       not_jump="true"
       sort_points="true"
       message="&lt;b&gt;Ctrl + click&lt;/b&gt; on existing node and move it" /><inkscape:path-effect
       effect="simplify"
       id="path-effect11"
       is_visible="true"
       lpeversion="1.3"
       threshold="0.11261538"
       steps="1"
       smooth_angles="0"
       helper_size="0"
       simplify_individual_paths="false"
       simplify_just_coalesce="false"
       step="1" /><inkscape:path-effect
       effect="powerstroke"
       id="path-effect10"
       is_visible="true"
       lpeversion="1.3"
       scale_width="1"
       interpolator_type="CentripetalCatmullRom"
       interpolator_beta="0.75"
       start_linecap_type="peak"
       end_linecap_type="peak"
       offset_points="3.4287132,0.18814721"
       linejoin_type="spiro"
       miter_limit="4"
       not_jump="true"
       sort_points="true"
       message="&lt;b&gt;Ctrl + click&lt;/b&gt; on existing node and move it" /><inkscape:path-effect
       effect="simplify"
       id="path-effect9"
       is_visible="true"
       lpeversion="1.3"
       threshold="0.11261538"
       steps="1"
       smooth_angles="0"
       helper_size="0"
       simplify_individual_paths="false"
       simplify_just_coalesce="false"
       step="1" /><inkscape:path-effect
       effect="powerstroke"
       id="path-effect8"
       is_visible="true"
       lpeversion="1.3"
       scale_width="1"
       interpolator_type="CentripetalCatmullRom"
       interpolator_beta="0.75"
       start_linecap_type="peak"
       end_linecap_type="peak"
       offset_points="4.9556806,0.18814721"
       linejoin_type="spiro"
       miter_limit="4"
       not_jump="true"
       sort_points="true"
       message="&lt;b&gt;Ctrl + click&lt;/b&gt; on existing node and move it" /><inkscape:path-effect
       effect="simplify"
       id="path-effect7"
       is_visible="true"
       lpeversion="1.3"
       threshold="0.11261538"
       steps="1"
       smooth_angles="0"
       helper_size="0"
       simplify_individual_paths="false"
       simplify_just_coalesce="false"
       step="1" /><inkscape:path-effect
       effect="powerstroke"
       id="path-effect6"
       is_visible="true"
       lpeversion="1.3"
       scale_width="1"
       interpolator_type="CentripetalCatmullRom"
       interpolator_beta="0.75"
       start_linecap_type="peak"
       end_linecap_type="peak"
       offset_points="3.3029139,0.18814721"
       linejoin_type="spiro"
       miter_limit="4"
       not_jump="true"
       sort_points="true"
       message="&lt;b&gt;Ctrl + click&lt;/b&gt; on existing node and move it" /><inkscape:path-effect
       effect="simplify"
       id="path-effect5"
       is_visible="true"
       lpeversion="1.3"
       threshold="0.11261538"
       steps="1"
       smooth_angles="0"
       helper_size="0"
       simplify_individual_paths="false"
       simplify_just_coalesce="false"
       step="1" /><inkscape:path-effect
       effect="powerstroke"
       id="path-effect4"
       is_visible="true"
       lpeversion="1.3"
       scale_width="1"
       interpolator_type="CentripetalCatmullRom"
       interpolator_beta="0.75"
       start_linecap_type="peak"
       end_linecap_type="peak"
       offset_points="2.3390663,0.18814721"
       linejoin_type="spiro"
       miter_limit="4"
       not_jump="true"
       sort_points="true"
       message="&lt;b&gt;Ctrl + click&lt;/b&gt; on existing node and move it" /><inkscape:path-effect
       effect="simplify"
       id="path-effect3"
       is_visible="true"
       lpeversion="1.3"
       threshold="0.11261538"
       steps="1"
       smooth_angles="0"
       helper_size="0"
       simplify_individual_paths="false"
       simplify_just_coalesce="false"
       step="1" /><inkscape:path-effect
       effect="powerstroke"
       id="path-effect2"
       is_visible="true"
       lpeversion="1.3"
       scale_width="1"
       interpolator_type="CentripetalCatmullRom"
       interpolator_beta="0.75"
       start_linecap_type="peak"
       end_linecap_type="peak"
       offset_points="1.4610059,0.18814721"
       linejoin_type="spiro"
       miter_limit="4"
       not_jump="true"
       sort_points="true"
       message="&lt;b&gt;Ctrl + click&lt;/b&gt; on existing node and move it" /><inkscape:path-effect
       effect="simplify"
       id="path-effect1"
       is_visible="true"
       lpeversion="1.3"
       threshold="0.11261538"
       steps="1"
       smooth_angles="0"
       helper_size="0"
       simplify_individual_paths="false"
       simplify_just_coalesce="false"
       step="1" /><style
       type="text/css"
       id="style1">@import url(&quot;http://cdnjs.cloudflare.com/ajax/libs/KaTeX/0.2.0/katex.min.css&quot;)</style><style
       type="text/css"
       id="style1-3">@import url(&quot;http://cdnjs.cloudflare.com/ajax/libs/KaTeX/0.2.0/katex.min.css&quot;)</style></defs><sodipodi:namedview
     id="base"
     pagecolor="#ffffff"
     bordercolor="#666666"
     borderopacity="1.0"
     inkscape:pageopacity="0.0"
     inkscape:pageshadow="2"
     inkscape:zoom="2.8284271"
     inkscape:cx="82.201163"
     inkscape:cy="63.462834"
     inkscape:document-units="mm"
     inkscape:current-layer="layer1-5"
     showgrid="false"
     showborder="true"
     width="200mm"
     showguides="true"
     inkscape:guide-bbox="true"
     inkscape:window-width="1890"
     inkscape:window-height="1022"
     inkscape:window-x="12"
     inkscape:window-y="40"
     inkscape:window-maximized="1"
     inkscape:showpageshadow="2"
     inkscape:pagecheckerboard="0"
     inkscape:deskcolor="#d1d1d1"><inkscape:grid
       type="xygrid"
       id="grid815"
       units="mm"
       spacingx="10"
       spacingy="10"
       empspacing="4"
       dotted="false"
       originx="0"
       originy="0"
       visible="false" /></sodipodi:namedview><metadata
     id="metadata5"><rdf:RDF><cc:Work
         rdf:about=""><dc:format>image/svg+xml</dc:format><dc:type
           rdf:resource="http://purl.org/dc/dcmitype/StillImage" /></cc:Work></rdf:RDF></metadata><g
     inkscape:label="Layer 1"
     inkscape:groupmode="layer"
     id="layer1"
     transform="translate(0,-177)"><g
       inkscape:label="Layer 1"
       id="layer1-5"
       transform="translate(-1.1295638,-0.32553049)"><g
         id="g1"
         transform="matrix(0.13910913,0,0,0.10998745,-2.2122232,174.72867)"><path
           d="M 524.4,317.8 546,325 524.4,332.2 528,325 Z"
           stroke-width="1"
           stroke="#000000"
           fill="#000000"
           id="path1" /><path
           d="M 267.8,75.6 275,54 282.2,75.6 275,72 Z"
           stroke-width="1"
           stroke="#000000"
           fill="#000000"
           id="path2" /><path
           d="M 22,325 H 528 M 275,72 v 506 m 0,-245.75 v -14.5 m 47,14.5 v -14.5 m 47,14.5 v -14.5 m 47,14.5 v -14.5 m 47,14.5 v -14.5 m 47,14.5 v -14.5 m -282,14.5 v -14.5 m -47,14.5 v -14.5 m -47,14.5 v -14.5 m -47,14.5 v -14.5 m -47,14.5 v -14.5 M 282.25,325 h -14.5 m 14.5,47 h -14.5 m 14.5,47 h -14.5 m 14.5,47 h -14.5 m 14.5,47 h -14.5 m 14.5,47 h -14.5 m 14.5,-282 h -14.5 m 14.5,-47 h -14.5 m 14.5,-47 h -14.5 m 14.5,-47 h -14.5 m 14.5,-47 h -14.5"
           stroke-width="2"
           stroke="#000000"
           fill="none"
           id="path3" /><text
           id="null"
           x="275"
           y="42.333"
           font-style="italic"
           font-family="KaTeX_Main, serif"
           font-size="29px"
           font-weight="normal"
           text-anchor="middle"
           fill="#000000"
           stroke-width="0px">y</text><text
           id="text3"
           x="557.66602"
           y="334.66599"
           font-style="italic"
           font-family="KaTeX_Main, serif"
           font-size="29px"
           font-weight="normal"
           text-anchor="start"
           fill="#000000"
           stroke-width="0px">x</text><path
           id="path4"
           d="m 193.056,574.1 1.26,-11.33 0.783,-6.858 0.784,-6.725 0.783,-6.594 0.783,-6.462 0.784,-6.334 0.783,-6.205 0.783,-6.079 0.784,-5.954 0.783,-5.829 0.783,-5.707 0.784,-5.586 0.783,-5.465 0.783,-5.346 0.784,-5.229 0.783,-5.113 0.783,-4.998 0.784,-4.884 0.783,-4.772 0.783,-4.662 0.784,-4.551 0.783,-4.443 0.783,-4.336 0.784,-4.23 0.783,-4.126 0.783,-4.023 0.784,-3.92 0.783,-3.821 0.783,-3.721 0.784,-3.623 0.783,-3.526 0.783,-3.432 0.784,-3.337 0.783,-3.245 0.783,-3.153 0.784,-3.063 0.783,-2.974 0.783,-2.887 0.784,-2.8 0.783,-2.716 0.783,-2.633 0.784,-2.549 0.783,-2.47 0.783,-2.389 0.784,-2.311 0.783,-2.234 0.783,-2.158 0.784,-2.084 0.783,-2.011 0.783,-1.939 0.784,-1.869 0.783,-1.799 0.783,-1.731 0.784,-1.665 0.783,-1.6 0.783,-1.535 0.784,-1.473 0.783,-1.412 0.783,-1.351 0.784,-1.293 0.783,-1.235 0.783,-1.179 0.784,-1.125 0.783,-1.07 0.783,-1.019 0.784,-0.968 0.783,-0.918 0.783,-0.869 0.784,-0.823 0.783,-0.777 0.783,-0.733 0.784,-0.689 0.783,-0.648 0.783,-0.607 0.784,-0.568 0.783,-0.531 0.783,-0.493 0.784,-0.459 0.783,-0.425 0.783,-0.391 0.784,-0.361 0.783,-0.33 0.783,-0.302 0.784,-0.275 0.783,-0.248 0.783,-0.223 0.784,-0.2 0.783,-0.178 0.783,-0.157 0.784,-0.137 0.783,-0.119 0.783,-0.102 0.784,-0.087 0.783,-0.072 0.783,-0.059 0.784,-0.047 0.783,-0.037 0.783,-0.027 0.784,-0.02 0.783,-0.014 0.783,-0.008 0.784,-0.004 0.783,-10e-4 h 0.783 l 0.784,-10e-4 0.783,-0.001 0.783,-0.004 0.784,-0.008 0.783,-0.014 0.783,-0.019 0.784,-0.028 0.783,-0.037 0.783,-0.047 0.784,-0.059 0.783,-0.072 0.783,-0.086 0.784,-0.103 0.783,-0.119 0.783,-0.137 0.784,-0.157 0.783,-0.177 0.783,-0.2 0.784,-0.224 0.783,-0.248 0.783,-0.275 0.784,-0.301 0.783,-0.331 0.783,-0.36 0.784,-0.392 0.783,-0.425 0.783,-0.458 0.784,-0.494 0.783,-0.53 0.783,-0.568 0.784,-0.608 0.783,-0.647 0.783,-0.69 0.784,-0.733 0.783,-0.777 0.783,-0.822 0.784,-0.87 0.783,-0.918 0.783,-0.968 0.784,-1.018 0.783,-1.071 0.783,-1.124 0.784,-1.179 0.783,-1.235 0.783,-1.293 0.784,-1.352 0.783,-1.411 0.783,-1.473 0.784,-1.536 0.783,-1.599 0.783,-1.665 0.784,-1.731 0.783,-1.799 0.783,-1.869 0.784,-1.939 0.783,-2.011 0.783,-2.083 0.784,-2.159 0.783,-2.234 0.783,-2.311 0.784,-2.389 0.783,-2.469 0.783,-2.55 0.784,-2.632 0.783,-2.716 0.783,-2.8 0.784,-2.887 0.783,-2.974 0.783,-3.063 0.784,-3.154 0.783,-3.244 0.783,-3.337 0.784,-3.431 0.783,-3.527 0.783,-3.623 0.784,-3.721 0.783,-3.82 0.783,-3.921 0.784,-4.023 0.783,-4.125 0.783,-4.23 0.784,-4.336 0.783,-4.443 0.783,-4.552 0.784,-4.661 0.783,-4.772 0.783,-4.884 0.784,-4.998 0.783,-5.113 0.783,-5.228 0.784,-5.347 0.783,-5.465 0.783,-5.585 0.784,-5.707 0.783,-5.83 0.783,-5.953 0.784,-6.079 0.783,-6.205 0.783,-6.334 0.784,-6.462 0.783,-6.594 0.783,-6.725 0.784,-6.858 0.783,-6.993 0.477,-4.341"
           stroke-width="5"
           stroke="#0000ff"
           fill="none" /><path
           d="m 200.61,571.317 -9.543,20.672 -4.769,-22.263 6.758,4.374 z"
           stroke-width="1"
           stroke="#0000ff"
           fill="#0000ff"
           id="path5" /><path
           d="m 349.393,78.692 9.516,-20.685 4.798,22.257 -6.764,-4.365 z"
           stroke-width="1"
           stroke="#0000ff"
           fill="#0000ff"
           id="path6" /><path
           id="path7"
           d="m 204.031,75.899 1.252,6.253 0.783,3.878 0.783,3.851 0.784,3.825 0.783,3.8 0.783,3.773 0.784,3.747 0.783,3.72 0.783,3.695 0.784,3.669 0.783,3.642 0.783,3.617 0.784,3.59 0.783,3.564 0.783,3.538 0.784,3.512 0.783,3.486 0.783,3.46 0.784,3.433 0.783,3.408 0.783,3.381 0.784,3.356 0.783,3.329 0.783,3.303 0.784,3.277 0.783,3.251 0.783,3.224 0.784,3.199 0.783,3.172 0.783,3.147 0.784,3.12 0.783,3.094 0.783,3.068 0.784,3.042 0.783,3.016 0.783,2.99 0.784,2.963 0.783,2.938 0.783,2.911 0.784,2.886 0.783,2.859 0.783,2.833 0.784,2.807 0.783,2.781 0.783,2.754 0.784,2.729 0.783,2.702 0.783,2.677 0.784,2.65 0.783,2.624 0.783,2.598 0.784,2.572 0.783,2.546 0.783,2.52 0.784,2.493 0.783,2.468 0.783,2.441 0.784,2.416 0.783,2.389 0.783,2.363 0.784,2.337 0.783,2.311 0.783,2.284 0.784,2.259 0.783,2.233 0.783,2.206 0.784,2.18 0.783,2.154 0.783,2.128 0.784,2.102 0.783,2.076 0.783,2.05 0.784,2.024 0.783,1.997 0.783,1.971 0.784,1.946 0.783,1.919 0.783,1.893 0.784,1.867 0.783,1.841 0.783,1.814 0.784,1.789 0.783,1.763 0.783,1.736 0.784,1.71 0.783,1.684 0.783,1.659 0.784,1.631 0.783,1.606 0.783,1.58 0.784,1.554 0.783,1.527 0.783,1.502 0.784,1.475 0.783,1.449 0.783,1.423 0.784,1.397 0.783,1.371 0.783,1.345 0.784,1.318 0.783,1.293 0.783,1.266 0.784,1.24 0.783,1.215 0.783,1.188 0.784,1.162 0.783,1.135 0.783,1.11 0.784,1.084 0.783,1.057 0.783,1.032 0.784,1.005 0.783,0.979 0.783,0.953 0.784,0.927 0.783,0.901 0.783,0.875 0.784,0.848 0.783,0.823 0.783,0.796 0.784,0.771 0.783,0.744 0.783,0.718 0.784,0.692 0.783,0.666 0.783,0.639 0.784,0.614 0.783,0.587 0.783,0.562 0.784,0.535 0.783,0.509 0.783,0.483 0.784,0.457 0.783,0.431 0.783,0.405 0.784,0.378 0.783,0.353 0.783,0.326 0.784,0.301 0.783,0.274 0.783,0.248 0.784,0.222 0.783,0.196 0.783,0.169 0.784,0.144 0.783,0.118 0.783,0.091 0.784,0.065 0.783,0.039 0.783,0.013 0.784,-0.013 0.783,-0.039 0.783,-0.065 0.784,-0.091 0.783,-0.118 0.783,-0.143 0.784,-0.17 0.783,-0.196 0.783,-0.222 0.784,-0.248 0.783,-0.274 0.783,-0.3 0.784,-0.327 0.783,-0.352 0.783,-0.379 0.784,-0.405 0.783,-0.43 0.783,-0.457 0.784,-0.483 0.783,-0.51 0.783,-0.535 0.784,-0.561 0.783,-0.588 0.783,-0.613 0.784,-0.64 0.783,-0.666 0.783,-0.692 0.784,-0.718 0.783,-0.744 0.783,-0.77 0.784,-0.797 0.783,-0.822 0.783,-0.849 0.784,-0.874 0.783,-0.901 0.783,-0.927 0.784,-0.953 0.783,-0.979 0.783,-1.006 0.784,-1.031 0.783,-1.057 0.783,-1.084 0.784,-1.11 0.783,-1.136 0.783,-1.162 0.784,-1.188 0.783,-1.214 0.783,-1.24 0.784,-1.266 0.783,-1.293 0.783,-1.318 0.784,-1.345 0.783,-1.371 0.783,-1.397 0.784,-1.423 0.783,-1.449 0.783,-1.475 0.784,-1.502 0.783,-1.527 0.783,-1.554 0.784,-1.58 0.783,-1.605 0.783,-1.632 0.784,-1.658 0.783,-1.685 0.783,-1.71 0.783,-1.736 0.784,-1.763 0.783,-1.788 0.783,-1.815 0.784,-1.841 0.783,-1.867 0.783,-1.893 0.784,-1.919 0.783,-1.945 0.783,-1.972 0.784,-1.997 0.783,-2.024 0.783,-2.049 0.784,-2.076 0.783,-2.102 0.783,-2.128 0.784,-2.154 0.783,-2.181 0.783,-2.206 0.784,-2.232 0.783,-2.259 0.783,-2.285 0.784,-2.311 0.783,-2.336 0.783,-2.363 0.784,-2.39 0.783,-2.415 0.783,-2.441 0.784,-2.468 0.783,-2.493 0.783,-2.52 0.784,-2.546 0.783,-2.572 0.783,-2.598 0.784,-2.624 0.783,-2.65 0.783,-2.677 0.784,-2.702 0.783,-2.729 0.783,-2.754 0.784,-2.781 0.783,-2.807 0.783,-2.833 0.784,-2.859 0.783,-2.886 0.783,-2.911 0.784,-2.937 0.783,-2.964 0.783,-2.99 0.784,-3.016 0.783,-3.042 0.783,-3.068 0.784,-3.094 0.783,-3.12 0.783,-3.146 0.784,-3.173 0.783,-3.198 0.783,-3.225 0.784,-3.251 0.783,-3.277 0.783,-3.303 0.784,-3.329 0.783,-3.355 0.783,-3.382 0.784,-3.407 0.783,-3.434 0.783,-3.46 0.784,-3.485 0.783,-3.512 0.783,-3.538 0.784,-3.564 0.783,-3.591 0.783,-3.616 0.784,-3.643 0.783,-3.668 0.783,-3.695 0.784,-3.721 0.783,-3.747 0.783,-3.773 0.784,-3.799 0.783,-3.825 0.783,-3.851 0.784,-3.878 0.783,-3.904 0.469,-2.352"
           stroke-width="5"
           stroke="#0000ff"
           fill="none"
           style="fill:none;fill-opacity:1" /><path
           d="m 197.678,80.843 2.82,-22.593 11.3,19.766 -7.767,-2.117 z"
           stroke-width="1"
           stroke="#0000ff"
           fill="#0000ff"
           id="path8" /><path
           d="m 432.203,78.023 11.284,-19.776 2.838,22.591 -6.357,-4.939 z"
           stroke-width="1"
           stroke="#0000ff"
           fill="#0000ff"
           id="path9" /></g><path
         style="fill:#ff0000;stroke:#000000;stroke-width:0.474808;paint-order:markers fill stroke"
         d="m 112.22182,100.42963 0.0147,-25.482148 2.23384,6.42407 c 5.99469,17.239474 11.34035,29.738528 17.20169,40.220498 1.08625,1.94255 1.93693,3.56081 1.8904,3.59612 -0.48256,0.36621 -7.14384,0.7236 -13.48708,0.7236 h -7.86832 z"
         id="path11"
         transform="matrix(0.26458333,0,0,0.26458333,0,177)" /><path
         style="fill:#ff0000;stroke:#000000;stroke-width:0.474808;paint-order:markers fill stroke"
         d="m 112.21017,133.97755 -0.003,-6.92372 h 6.19314 6.19313 l -1.69629,1.01576 c -3.15561,1.88962 -6.37437,5.4816 -9.14207,10.20212 l -1.54174,2.62956 z"
         id="path12"
         transform="matrix(0.26458333,0,0,0.26458333,0,177)" /><path
         style="fill:#ff0000;stroke:#000000;stroke-width:0.474808;paint-order:markers fill stroke"
         d="m 156.74731,144.2173 c -5.43207,-1.75623 -10.94297,-6.47776 -16.22975,-13.90506 l -1.81128,-2.54463 1.81128,-0.22904 c 0.9962,-0.12597 5.82632,-0.29625 10.7336,-0.3784 l 8.92232,-0.14936 v 1.30632 c 0,0.97083 0.10998,1.30632 0.42827,1.30632 0.36991,0 0.42827,1.03103 0.42827,7.56613 v 7.56613 l -1.35619,-0.0154 c -0.74591,-0.008 -2.06284,-0.24381 -2.92652,-0.52305 z"
         id="path14"
         transform="matrix(0.26458333,0,0,0.26458333,0,177)" /><path
         style="fill:#ff0000;stroke:#000000;stroke-width:0.059351;paint-order:markers fill stroke"
         d="m 147.14689,126.04531 c 1.55356,-0.69775 2.38824,-1.16215 3.4797,-1.93606 0.99841,-0.70793 1.79329,-1.38967 2.78437,-2.38806 2.77171,-2.79216 5.31902,-6.75397 7.78088,-12.10157 l 0.0822,-0.17845 0.003,7.02186 0.003,7.02187 h -0.44611 -0.44612 v 1.30266 1.30266 l -6.66497,-0.002 c -4.96029,-0.002 -6.64215,-0.0127 -6.57575,-0.0425 z"
         id="path16"
         transform="matrix(0.26458333,0,0,0.26458333,0,177)" /></g></g></svg>
