<?xml version="1.0" encoding="UTF-8" standalone="no"?>
<!-- Created with Inkscape (http://www.inkscape.org/) -->

<svg
   width="3in"
   height="2.5in"
   viewBox="0 0 76.2 63.5"
   version="1.1"
   id="svg8"
   inkscape:version="1.3 (0e150ed6c4, 2023-07-21)"
   sodipodi:docname="fig21.svg"
   xml:space="preserve"
   xmlns:inkscape="http://www.inkscape.org/namespaces/inkscape"
   xmlns:sodipodi="http://sodipodi.sourceforge.net/DTD/sodipodi-0.dtd"
   xmlns="http://www.w3.org/2000/svg"
   xmlns:svg="http://www.w3.org/2000/svg"
   xmlns:rdf="http://www.w3.org/1999/02/22-rdf-syntax-ns#"
   xmlns:cc="http://creativecommons.org/ns#"
   xmlns:dc="http://purl.org/dc/elements/1.1/"><defs
     id="defs2"><marker
       style="overflow:visible"
       id="ArrowWide"
       refX="0"
       refY="0"
       orient="auto-start-reverse"
       inkscape:stockid="Wide arrow"
       markerWidth="1"
       markerHeight="1"
       viewBox="0 0 1 1"
       inkscape:isstock="true"
       inkscape:collect="always"
       preserveAspectRatio="xMidYMid"><path
         style="fill:none;stroke:context-stroke;stroke-width:1;stroke-linecap:butt"
         d="M 3,-3 0,0 3,3"
         transform="rotate(180,0.125,0)"
         sodipodi:nodetypes="ccc"
         id="path33" /></marker><inkscape:path-effect
       effect="powerstroke"
       id="path-effect30"
       is_visible="true"
       lpeversion="1.3"
       scale_width="1"
       interpolator_type="CentripetalCatmullRom"
       interpolator_beta="0.75"
       start_linecap_type="peak"
       end_linecap_type="peak"
       offset_points="1.5848479,0.32152692"
       linejoin_type="spiro"
       miter_limit="4"
       not_jump="true"
       sort_points="true"
       message="&lt;b&gt;Ctrl + click&lt;/b&gt; on existing node and move it" /><inkscape:path-effect
       effect="simplify"
       id="path-effect29"
       is_visible="true"
       lpeversion="1.3"
       threshold="0.6"
       steps="1"
       smooth_angles="0"
       helper_size="0"
       simplify_individual_paths="false"
       simplify_just_coalesce="false"
       step="1" /><inkscape:path-effect
       effect="powerstroke"
       id="path-effect28"
       is_visible="true"
       lpeversion="1.3"
       scale_width="1"
       interpolator_type="CentripetalCatmullRom"
       interpolator_beta="0.75"
       start_linecap_type="peak"
       end_linecap_type="peak"
       offset_points="1.9611028,0.90941546"
       linejoin_type="spiro"
       miter_limit="4"
       not_jump="true"
       sort_points="true"
       message="&lt;b&gt;Ctrl + click&lt;/b&gt; on existing node and move it" /><inkscape:path-effect
       effect="simplify"
       id="path-effect27"
       is_visible="true"
       lpeversion="1.3"
       threshold="0.6"
       steps="1"
       smooth_angles="0"
       helper_size="0"
       simplify_individual_paths="false"
       simplify_just_coalesce="false"
       step="1" /><inkscape:path-effect
       effect="powerstroke"
       id="path-effect26"
       is_visible="true"
       lpeversion="1.3"
       scale_width="1"
       interpolator_type="CentripetalCatmullRom"
       interpolator_beta="0.75"
       start_linecap_type="peak"
       end_linecap_type="peak"
       offset_points="7.7100338,0.77300314"
       linejoin_type="spiro"
       miter_limit="4"
       not_jump="true"
       sort_points="true"
       message="&lt;b&gt;Ctrl + click&lt;/b&gt; on existing node and move it" /><inkscape:path-effect
       effect="simplify"
       id="path-effect25"
       is_visible="true"
       lpeversion="1.3"
       threshold="0.6"
       steps="1"
       smooth_angles="0"
       helper_size="0"
       simplify_individual_paths="false"
       simplify_just_coalesce="false"
       step="1" /><inkscape:path-effect
       effect="powerstroke"
       id="path-effect24"
       is_visible="true"
       lpeversion="1.3"
       scale_width="1"
       interpolator_type="CentripetalCatmullRom"
       interpolator_beta="0.75"
       start_linecap_type="peak"
       end_linecap_type="peak"
       offset_points="6.1206318,0.77300314"
       linejoin_type="spiro"
       miter_limit="4"
       not_jump="true"
       sort_points="true"
       message="&lt;b&gt;Ctrl + click&lt;/b&gt; on existing node and move it" /><inkscape:path-effect
       effect="simplify"
       id="path-effect23"
       is_visible="true"
       lpeversion="1.3"
       threshold="0.6"
       steps="1"
       smooth_angles="0"
       helper_size="0"
       simplify_individual_paths="false"
       simplify_just_coalesce="false"
       step="1" /><inkscape:path-effect
       effect="powerstroke"
       id="path-effect22"
       is_visible="true"
       lpeversion="1.3"
       scale_width="1"
       interpolator_type="CentripetalCatmullRom"
       interpolator_beta="0.75"
       start_linecap_type="peak"
       end_linecap_type="peak"
       offset_points="3.3552584,0.77300314"
       linejoin_type="spiro"
       miter_limit="4"
       not_jump="true"
       sort_points="true"
       message="&lt;b&gt;Ctrl + click&lt;/b&gt; on existing node and move it" /><inkscape:path-effect
       effect="simplify"
       id="path-effect21"
       is_visible="true"
       lpeversion="1.3"
       threshold="0.6"
       steps="1"
       smooth_angles="0"
       helper_size="0"
       simplify_individual_paths="false"
       simplify_just_coalesce="false"
       step="1" /><inkscape:path-effect
       effect="powerstroke"
       id="path-effect20"
       is_visible="true"
       lpeversion="1.3"
       scale_width="1"
       interpolator_type="CentripetalCatmullRom"
       interpolator_beta="0.75"
       start_linecap_type="peak"
       end_linecap_type="peak"
       offset_points="3.6187579,0.40923696"
       linejoin_type="spiro"
       miter_limit="4"
       not_jump="true"
       sort_points="true"
       message="&lt;b&gt;Ctrl + click&lt;/b&gt; on existing node and move it" /><inkscape:path-effect
       effect="simplify"
       id="path-effect19"
       is_visible="true"
       lpeversion="1.3"
       threshold="0.6"
       steps="1"
       smooth_angles="0"
       helper_size="0"
       simplify_individual_paths="false"
       simplify_just_coalesce="false"
       step="1" /><inkscape:path-effect
       effect="powerstroke"
       id="path-effect18"
       is_visible="true"
       lpeversion="1.3"
       scale_width="1"
       interpolator_type="CentripetalCatmullRom"
       interpolator_beta="0.75"
       start_linecap_type="peak"
       end_linecap_type="peak"
       offset_points="5.8996947,0.40923696"
       linejoin_type="spiro"
       miter_limit="4"
       not_jump="true"
       sort_points="true"
       message="&lt;b&gt;Ctrl + click&lt;/b&gt; on existing node and move it" /><inkscape:path-effect
       effect="simplify"
       id="path-effect17"
       is_visible="true"
       lpeversion="1.3"
       threshold="0.6"
       steps="1"
       smooth_angles="0"
       helper_size="0"
       simplify_individual_paths="false"
       simplify_just_coalesce="false"
       step="1" /><inkscape:path-effect
       effect="powerstroke"
       id="path-effect16"
       is_visible="true"
       lpeversion="1.3"
       scale_width="1"
       interpolator_type="CentripetalCatmullRom"
       interpolator_beta="0.75"
       start_linecap_type="peak"
       end_linecap_type="peak"
       offset_points="4.5249229,0.40923696"
       linejoin_type="spiro"
       miter_limit="4"
       not_jump="true"
       sort_points="true"
       message="&lt;b&gt;Ctrl + click&lt;/b&gt; on existing node and move it" /><inkscape:path-effect
       effect="simplify"
       id="path-effect15"
       is_visible="true"
       lpeversion="1.3"
       threshold="0.6"
       steps="1"
       smooth_angles="0"
       helper_size="0"
       simplify_individual_paths="false"
       simplify_just_coalesce="false"
       step="1" /><inkscape:path-effect
       effect="powerstroke"
       id="path-effect14"
       is_visible="true"
       lpeversion="1.3"
       scale_width="1"
       interpolator_type="CentripetalCatmullRom"
       interpolator_beta="0.75"
       start_linecap_type="peak"
       end_linecap_type="peak"
       offset_points="6.3481593,0.18188309"
       linejoin_type="spiro"
       miter_limit="4"
       not_jump="true"
       sort_points="true"
       message="&lt;b&gt;Ctrl + click&lt;/b&gt; on existing node and move it" /><inkscape:path-effect
       effect="simplify"
       id="path-effect13"
       is_visible="true"
       lpeversion="1.3"
       threshold="0.6"
       steps="1"
       smooth_angles="0"
       helper_size="0"
       simplify_individual_paths="false"
       simplify_just_coalesce="false"
       step="1" /><inkscape:path-effect
       effect="powerstroke"
       id="path-effect11"
       is_visible="true"
       lpeversion="1.3"
       scale_width="1"
       interpolator_type="CentripetalCatmullRom"
       interpolator_beta="0.75"
       start_linecap_type="peak"
       end_linecap_type="peak"
       offset_points="3.5438937,-1.3934845"
       linejoin_type="spiro"
       miter_limit="4"
       not_jump="true"
       sort_points="true"
       message="&lt;b&gt;Ctrl + click&lt;/b&gt; on existing node and move it" /><inkscape:path-effect
       effect="simplify"
       id="path-effect10"
       is_visible="true"
       lpeversion="1.3"
       threshold="0.6"
       steps="1"
       smooth_angles="0"
       helper_size="0"
       simplify_individual_paths="false"
       simplify_just_coalesce="false"
       step="1" /><inkscape:path-effect
       effect="powerstroke"
       id="path-effect9"
       is_visible="true"
       lpeversion="1.3"
       scale_width="1"
       interpolator_type="CentripetalCatmullRom"
       interpolator_beta="0.75"
       start_linecap_type="peak"
       end_linecap_type="peak"
       offset_points="1.8235328,0.18188309"
       linejoin_type="spiro"
       miter_limit="4"
       not_jump="true"
       sort_points="true"
       message="&lt;b&gt;Ctrl + click&lt;/b&gt; on existing node and move it" /><inkscape:path-effect
       effect="simplify"
       id="path-effect8"
       is_visible="true"
       lpeversion="1.3"
       threshold="0.6"
       steps="1"
       smooth_angles="0"
       helper_size="0"
       simplify_individual_paths="false"
       simplify_just_coalesce="false"
       step="1" /><style
       type="text/css"
       id="style1">@import url(&quot;http://cdnjs.cloudflare.com/ajax/libs/KaTeX/0.2.0/katex.min.css&quot;)</style></defs><sodipodi:namedview
     id="base"
     pagecolor="#ffffff"
     bordercolor="#666666"
     borderopacity="1.0"
     inkscape:pageopacity="0.0"
     inkscape:pageshadow="2"
     inkscape:zoom="2.0572409"
     inkscape:cx="132.94505"
     inkscape:cy="70.239707"
     inkscape:document-units="mm"
     inkscape:current-layer="g1"
     showgrid="false"
     showborder="true"
     width="200mm"
     showguides="true"
     inkscape:guide-bbox="true"
     inkscape:window-width="1890"
     inkscape:window-height="1022"
     inkscape:window-x="12"
     inkscape:window-y="40"
     inkscape:window-maximized="1"
     inkscape:showpageshadow="2"
     inkscape:pagecheckerboard="0"
     inkscape:deskcolor="#d1d1d1"><inkscape:grid
       type="xygrid"
       id="grid815"
       units="mm"
       spacingx="10"
       spacingy="10"
       empspacing="4"
       dotted="false"
       originx="0"
       originy="0"
       visible="false" /></sodipodi:namedview><metadata
     id="metadata5"><rdf:RDF><cc:Work
         rdf:about=""><dc:format>image/svg+xml</dc:format><dc:type
           rdf:resource="http://purl.org/dc/dcmitype/StillImage" /></cc:Work></rdf:RDF></metadata><g
     inkscape:label="Layer 1"
     inkscape:groupmode="layer"
     id="layer1"
     transform="translate(0,-177)"><g
       id="g1"
       transform="matrix(0.13304013,0,0,0.11212926,-1.3307015,175.09919)"><path
         d="M 524.4,317.8 546,325 524.4,332.2 528,325 Z"
         stroke-width="1"
         stroke="#000000"
         fill="#000000"
         id="path1" /><path
         d="M 267.8,75.6 275,54 282.2,75.6 275,72 Z"
         stroke-width="1"
         stroke="#000000"
         fill="#000000"
         id="path2" /><path
         d="M 22,325 H 528 M 275,72 v 506 m 0,-245.75 v -14.5 m 47,14.5 v -14.5 m 47,14.5 v -14.5 m 47,14.5 v -14.5 m 47,14.5 v -14.5 m 47,14.5 v -14.5 m -282,14.5 v -14.5 m -47,14.5 v -14.5 m -47,14.5 v -14.5 m -47,14.5 v -14.5 m -47,14.5 v -14.5 M 282.25,325 h -14.5 m 14.5,47 h -14.5 m 14.5,47 h -14.5 m 14.5,47 h -14.5 m 14.5,47 h -14.5 m 14.5,47 h -14.5 m 14.5,-282 h -14.5 m 14.5,-47 h -14.5 m 14.5,-47 h -14.5 m 14.5,-47 h -14.5 m 14.5,-47 h -14.5"
         stroke-width="2"
         stroke="#000000"
         fill="none"
         id="path3" /><text
         id="null"
         x="275"
         y="42.333"
         font-style="italic"
         font-family="KaTeX_Main, serif"
         font-size="29px"
         font-weight="normal"
         text-anchor="middle"
         fill="#000000"
         stroke-width="0px">y</text><text
         id="text3"
         x="557.66602"
         y="334.66599"
         font-style="italic"
         font-family="KaTeX_Main, serif"
         font-size="29px"
         font-weight="normal"
         text-anchor="start"
         fill="#000000"
         stroke-width="0px">x</text><path
         id="path4"
         d="m 198.49,75.899 1.309,8.459 0.784,4.988 0.783,4.935 0.783,4.882 0.784,4.831 0.783,4.778 0.783,4.727 0.784,4.673 0.783,4.622 0.783,4.57 0.784,4.517 0.783,4.465 0.783,4.413 0.784,4.36 0.783,4.308 0.783,4.257 0.784,4.203 0.783,4.152 0.783,4.1 0.784,4.047 0.783,3.995 0.783,3.943 0.784,3.89 0.783,3.839 0.783,3.786 0.784,3.734 0.783,3.681 0.783,3.63 0.784,3.577 0.783,3.525 0.783,3.473 0.784,3.42 0.783,3.369 0.783,3.316 0.784,3.264 0.783,3.211 0.783,3.16 0.784,3.107 0.783,3.055 0.783,3.003 0.784,2.95 0.783,2.899 0.783,2.846 0.784,2.794 0.783,2.741 0.783,2.69 0.784,2.637 0.783,2.585 0.783,2.533 0.784,2.48 0.783,2.429 0.783,2.376 0.784,2.324 0.783,2.271 0.783,2.22 0.784,2.167 0.783,2.115 0.783,2.063 0.784,2.011 0.783,1.958 0.783,1.906 0.784,1.854 0.783,1.802 0.783,1.749 0.784,1.697 0.783,1.645 0.783,1.593 0.784,1.541 0.783,1.488 0.783,1.436 0.784,1.384 0.783,1.332 0.783,1.279 0.784,1.227 0.783,1.175 0.783,1.123 0.784,1.071 0.783,1.018 0.783,0.966 0.784,0.914 0.783,0.862 0.783,0.809 0.784,0.758 0.783,0.705 0.783,0.652 0.784,0.601 0.783,0.548 0.783,0.496 0.784,0.444 0.783,0.392 0.783,0.339 0.784,0.288 0.783,0.235 0.783,0.182 0.784,0.131 0.783,0.078 0.783,0.026 0.784,-0.026 0.783,-0.078 0.783,-0.13 0.784,-0.183 0.783,-0.235 0.783,-0.287 0.784,-0.34 0.783,-0.391 0.783,-0.444 0.784,-0.496 0.783,-0.549 0.783,-0.6 0.784,-0.653 0.783,-0.705 0.783,-0.757 0.784,-0.81 0.783,-0.861 0.783,-0.914 0.784,-0.966 0.783,-1.019 0.783,-1.07 0.784,-1.123 0.783,-1.175 0.783,-1.227 0.784,-1.28 0.783,-1.331 0.783,-1.384 0.784,-1.436 0.783,-1.488 0.783,-1.541 0.784,-1.593 0.783,-1.645 0.783,-1.697 0.784,-1.749 0.783,-1.802 0.783,-1.854 0.784,-1.906 0.783,-1.958 0.783,-2.011 0.784,-2.063 0.783,-2.115 0.783,-2.167 0.784,-2.219 0.783,-2.272 0.783,-2.324 0.784,-2.376 0.783,-2.428 0.783,-2.481 0.784,-2.532 0.783,-2.585 0.783,-2.638 0.784,-2.689 0.783,-2.742 0.783,-2.794 0.784,-2.846 0.783,-2.898 0.783,-2.95 0.784,-3.003 0.783,-3.055 0.783,-3.107 0.784,-3.16 0.783,-3.211 0.783,-3.264 0.784,-3.316 0.783,-3.369 0.783,-3.42 0.784,-3.473 0.783,-3.525 0.783,-3.577 0.784,-3.63 0.783,-3.681 0.783,-3.734 0.784,-3.786 0.783,-3.838 0.783,-3.891 0.784,-3.943 0.783,-3.995 0.783,-4.047 0.784,-4.099 0.783,-4.152 0.783,-4.204 0.784,-4.256 0.783,-4.308 0.783,-4.361 0.784,-4.413 0.783,-4.465 0.783,-4.517 0.784,-4.569 0.783,-4.622 0.783,-4.674 0.784,-4.726 0.783,-4.778 0.783,-4.831 0.784,-4.882 0.783,-4.935 0.783,-4.988 0.784,-5.039 0.526,-3.423"
         stroke-width="5"
         stroke="#0000ff"
         fill="none" /><path
         d="m 191.925,80.559 3.811,-22.448 10.42,20.245 -7.666,-2.457 z"
         stroke-width="1"
         stroke="#0000ff"
         fill="#0000ff"
         id="path5" /><path
         d="m 343.845,78.363 10.401,-20.254 3.832,22.443 -6.569,-4.653 z"
         stroke-width="1"
         stroke="#0000ff"
         fill="#0000ff"
         id="path6" /><path
         id="path7"
         d="m 354.58235,62.167419 0.004,0.442395 0.004,0.44239 0.004,0.442395 0.004,0.442955 0.004,0.44239 0.004,0.442395 0.004,0.442955 0.004,0.44239 0.004,0.442395 0.004,0.442955 0.004,0.442395 0.004,0.44239 0.004,0.442955 0.004,0.442394 0.004,0.442391 0.004,0.442954 0.004,0.442395 0.004,0.44239 0.004,0.44296 0.004,0.44239 0.004,0.442395 0.004,0.442955 0.004,0.44239 0.004,0.442395 0.004,0.442955 0.004,0.44239 0.004,0.442395 0.004,0.442954 0.004,0.442395 0.004,0.44239 0.004,0.442955 0.004,0.442395 0.004,0.44239 0.004,0.442955 0.004,0.442395 0.004,0.44239 0.004,0.44296 0.004,0.44239 0.004,0.442395 0.004,0.442955 0.004,0.44239 0.004,0.442395 0.004,0.442955 0.004,0.44239 0.004,0.442395 0.004,0.442955 0.004,0.442394 0.004,0.442391 0.004,0.442954 0.004,0.442395 0.004,0.44239 0.004,0.442955 0.004,0.442395 0.004,0.44239 0.004,0.442955 0.004,0.442395 0.004,0.442395 0.004,0.442955 0.004,0.44239 0.004,0.442395 0.004,0.442954 0.004,0.442395 0.004,0.44239 0.004,0.442955 0.004,0.442395 0.004,0.44239 0.004,0.44296 0.004,0.44239 0.004,0.44239 0.004,0.44296 0.004,0.44239 0.004,0.44239 0.004,0.442959 0.004,0.442391 0.004,0.442394 0.004,0.442955 0.004,0.442391 0.004,0.442394 0.004,0.442955 0.004,0.442395 0.004,0.44239 0.004,0.442955 0.004,0.442395 0.004,0.44239 0.004,0.442959 0.004,0.442387 0.004,0.44239 0.004,0.44296 0.004,0.44239 0.004,0.44239 0.004,0.44296 0.004,0.44239 0.004,0.44239 0.004,0.44296 0.004,0.44239 0.004,0.4424 0.004,0.44295 0.004,0.44239 0.004,0.4424 0.004,0.44295 0.004,0.4424 0.004,0.44239 0.004,0.44295 0.004,0.4424 0.004,0.44239 0.004,0.44296 0.004,0.44239 0.004,0.44239 0.004,0.44296 0.004,0.44239 0.004,0.44239 0.004,0.44296 0.004,0.44239 0.004,0.44239 0.004,0.44296 0.004,0.44239 0.004,0.44239 0.004,0.44296 0.004,0.44239 0.004,0.44239 0.004,0.44296 0.004,0.44239 0.004,0.44239 0.004,0.44296 0.004,0.44239 0.004,0.44239 0.004,0.44296 0.004,0.44239 0.004,0.44239 0.004,0.44296 0.004,0.44239 0.004,0.4424 0.004,0.44295 0.004,0.44239 0.004,0.4424 0.004,0.44295 0.004,0.44239 0.004,0.4424 0.004,0.44295 0.004,0.44239 0.004,0.44239 0.004,0.44296 0.004,0.44239 0.004,0.44239 0.004,0.44296 0.004,0.44239 0.004,0.44239 0.004,0.44296 0.004,0.44239 0.004,0.4424 0.004,0.44295 0.004,0.44239 0.004,0.4424 0.004,0.44295 0.004,0.4424 0.004,0.44239 0.004,0.44295 0.004,0.4424 0.004,0.44239 0.004,0.44296 0.004,0.44239 0.004,0.44239 0.004,0.44296 0.004,0.44239 0.004,0.44239 0.004,0.44296 0.004,0.44239 0.004,0.44239 0.004,0.44296 0.004,0.44239 0.004,0.44239 0.004,0.44296 0.004,0.44239 0.004,0.44239 0.004,0.44296 0.004,0.44239 0.004,0.44239 0.004,0.44296 0.004,0.44239 0.004,0.44239 0.004,0.44296 0.004,0.44239 0.004,0.44239 0.004,0.44296 0.004,0.44239 0.004,0.4424 0.004,0.44295 0.004,0.44239 0.004,0.4424 0.004,0.44295 0.004,0.44239 0.004,0.4424 0.004,0.44295 0.004,0.4424 0.004,0.44239 0.004,0.44295 0.004,0.4424 0.004,0.44239 0.004,0.44296 0.004,0.44239 0.004,0.44239 0.004,0.44296 0.004,0.44239 0.004,0.44239 0.004,0.44296 0.004,0.44239 0.004,0.44239 0.004,0.44295 0.004,0.4424 0.004,0.44239 0.004,0.44295 0.004,0.4424 0.004,0.44239 0.004,0.44295 0.004,0.4424 0.004,0.44239 0.004,0.44296 0.004,0.44239 0.004,0.44239 0.004,0.44296 0.004,0.44239 0.004,0.44239 0.004,0.44296 0.004,0.44239 0.004,0.44239 0.004,0.44296 0.004,0.44239 0.004,0.44239 0.004,0.44296 0.004,0.44239 0.004,0.44239 0.004,0.44296 0.004,0.44239 0.004,0.44239 0.004,0.44296 0.004,0.44239 0.004,0.44239 0.004,0.44296 0.004,0.44239 0.004,0.44239 0.004,0.44296 0.004,0.44239 0.004,0.4424 0.004,0.44295 0.004,0.44239 0.004,0.4424 0.004,0.44295 0.004,0.44239 0.004,0.4424 0.004,0.44295 0.004,0.4424 0.004,0.44239 0.004,0.44295 0.004,0.4424 0.004,0.44239 0.004,0.44296 0.004,0.44239 0.004,0.44239 0.004,0.44296 0.004,0.44239 0.004,0.44239 0.004,0.44296 0.004,0.44239 0.004,0.44239 0.004,0.44296 0.004,0.44239 0.004,0.44239 0.004,0.44296 0.004,0.44239 0.004,0.44239 0.004,0.44296 0.004,0.44239 0.004,0.44239 0.004,0.44296 0.004,0.44239 0.004,0.44239 0.004,0.44296 0.004,0.44239 0.004,0.44239 0.004,0.44296 0.004,0.44239 0.004,0.44239 0.004,0.44296 0.004,0.44239 0.004,0.44239 0.004,0.44296 0.004,0.44239 0.004,0.44239 0.004,0.44296 0.004,0.44239 0.004,0.44239 0.004,0.44296 0.004,0.44239 0.004,0.44239 0.004,0.44296 0.004,0.44239 0.004,0.4424 0.004,0.44295 0.004,0.44239 0.004,0.4424 0.004,0.44295 0.004,0.44239 0.004,0.4424 0.004,0.44295 0.004,0.4424 0.004,0.44239 0.004,0.44295 0.004,0.4424 0.004,0.44239 0.004,0.44295 0.004,0.4424 0.004,0.44239 0.004,0.44296 0.004,0.44239 0.004,0.44239 0.004,0.44296 0.004,0.44239 0.004,0.44239 0.004,0.44296 0.004,0.44239 0.004,0.44239 0.004,0.44296 0.004,0.44239 0.004,0.44239 0.004,0.44296 0.004,0.44239 0.004,0.44239 0.004,0.44296 0.004,0.44239 0.004,0.44239 0.004,0.44296 0.004,0.44239 0.004,0.4424 0.004,0.44295 0.004,0.44239 0.004,0.4424 0.004,0.44295 0.004,0.44239 0.004,0.4424 0.004,0.44295 0.004,0.44239 0.004,0.4424 0.004,0.44295 0.004,0.4424 0.004,0.44239 0.004,0.44295 0.004,0.4424 0.004,0.44239 0.004,0.44295 0.004,0.44239 0.004,0.4424 0.004,0.44295 0.004,0.44239 0.004,0.4424 0.004,0.44295 0.004,0.44239 0.004,0.4424 0.004,0.44295 0.004,0.44239 0.004,0.4424 0.004,0.44295 0.004,0.4424 0.004,0.44239 0.004,0.44295 0.004,0.4424 0.004,0.44239 0.004,0.44295 0.004,0.4424 0.004,0.44239 0.004,0.44296 0.004,0.44239 0.004,0.44239 0.004,0.44296 0.004,0.44239 0.004,0.44239 0.004,0.44296 0.004,0.44239 0.004,0.44239 0.004,0.44296 0.004,0.44239 0.004,0.44239 0.004,0.44296 0.004,0.44239 0.004,0.44239 0.004,0.44296 0.004,0.44239 0.004,0.44239 0.004,0.44296 0.004,0.44239 0.004,0.4424 0.004,0.44295 0.004,0.44239 0.004,0.4424 0.004,0.44295 0.004,0.44239 0.004,0.4424 0.004,0.44295 0.004,0.4424 0.004,0.44239 0.004,0.44295 0.004,0.4424 0.004,0.44239 0.004,0.44295 0.004,0.4424 0.004,0.44239 0.004,0.44296 0.004,0.44239 0.004,0.44239 0.004,0.44296 0.004,0.44239 0.004,0.44239 0.004,0.44296 0.004,0.44239 0.004,0.44239 0.004,0.44296 0.004,0.44239 0.004,0.44239 0.004,0.44296 0.004,0.44239 0.004,0.44239 0.004,0.44296 0.004,0.44239 0.004,0.44239 0.004,0.44296 0.004,0.44239 0.004,0.44239 0.004,0.44239 0.004,0.44296 0.004,0.44239 0.004,0.44239 0.004,0.44296 0.004,0.44239 0.004,0.44239 0.004,0.44296 0.004,0.44239 0.004,0.44239 0.004,0.44296 0.004,0.44239 0.004,0.44239 0.004,0.44296 0.004,0.44239 0.004,0.4424 0.004,0.44295 0.004,0.44239 0.004,0.4424 0.004,0.44295 0.004,0.4424 0.004,0.44239 0.004,0.44295 0.004,0.4424 0.004,0.44239 0.004,0.44296 0.004,0.44239 0.004,0.44239 0.004,0.44296 0.004,0.44239 0.004,0.44239 0.004,0.44296 0.004,0.44239 0.004,0.44239 0.004,0.44296 0.004,0.44239 0.004,0.44239 0.004,0.44296 0.004,0.44239 0.004,0.44239 0.004,0.44296 0.004,0.44239 0.004,0.44239 0.004,0.44296 0.004,0.44239 0.004,0.44239 0.004,0.44296 0.004,0.44239 0.004,0.44239 0.004,0.44296 0.004,0.44239 0.004,0.44239 0.004,0.44296 0.004,0.44239 0.004,0.4424 0.004,0.44295 0.004,0.44239 0.004,0.4424 0.004,0.44295 0.004,0.4424 0.004,0.44239 0.004,0.44295 0.004,0.4424 0.004,0.44239 0.004,0.44295 0.004,0.44239 0.004,0.4424 0.004,0.44295 0.004,0.44239 0.004,0.44239 0.004,0.44296 0.004,0.44239 0.004,0.4424 0.004,0.44295 0.004,0.44239 0.004,0.4424 0.004,0.44295 0.004,0.4424 0.004,0.44239 0.004,0.44295 0.004,0.4424 0.004,0.44239 0.004,0.44296 0.004,0.44239 0.004,0.44239 0.004,0.44296 0.004,0.44239 0.004,0.44239 0.004,0.44296 0.004,0.44239 0.004,0.44239 0.004,0.44296 0.004,0.44239 0.004,0.44239 0.004,0.44296 0.004,0.44239 0.004,0.44239 0.004,0.44296 0.004,0.44239 0.004,0.44239 0.004,0.44296 0.004,0.44239 0.004,0.44239 0.004,0.44296 0.004,0.44239 0.004,0.44239 0.004,0.44296 0.004,0.44239 0.004,0.4424 0.004,0.44295 0.004,0.44239 0.004,0.4424 0.004,0.44295 0.004,0.4424 0.004,0.44239 0.004,0.44295 0.004,0.4424 0.004,0.44239 0.004,0.44296 0.004,0.44239 0.004,0.44239 0.004,0.44296 0.004,0.44239 0.004,0.44239 0.004,0.44296 0.004,0.44239 0.004,0.44239 0.004,0.44296 0.004,0.44239 0.004,0.44239 0.004,0.44296 0.004,0.44239 0.004,0.44239 0.004,0.44296 0.004,0.44239 0.004,0.44239 0.004,0.44296 0.004,0.44239 0.004,0.44239 0.004,0.44296 0.004,0.44239 0.004,0.44239 0.004,0.44296 0.004,0.44239 0.004,0.44239 0.004,0.44296 0.004,0.44239 0.004,0.44239 0.004,0.44296 0.004,0.44239 0.004,0.44239 0.004,0.44296 0.004,0.44239 0.004,0.44239 0.004,0.44296 0.004,0.44239 0.004,0.44239 0.004,0.44296 0.004,0.44239 0.004,0.44239 0.004,0.44296 0.004,0.44239 0.004,0.44239 0.004,0.44296 0.004,0.44239 0.004,0.4424 0.004,0.44295 0.004,0.44239 0.004,0.4424 0.004,0.44295 0.004,0.4424 0.004,0.44239 0.004,0.44295 0.004,0.4424"
         stroke-width="3.41044"
         stroke="#0000ff"
         fill="none" /><path
         id="path10"
         d="m 40,325 h 0.783 0.783 0.783 0.784 0.783 0.783 0.784 0.783 0.783 0.784 0.783 0.783 0.784 0.783 0.783 0.784 0.783 0.783 0.784 0.783 0.783 0.784 0.783 0.783 0.784 0.783 0.783 0.784 0.783 0.783 0.784 0.783 0.783 0.784 0.783 0.783 0.784 0.783 0.783 0.784 0.783 0.783 0.784 0.783 0.783 0.784 0.783 0.783 0.784 0.783 0.783 0.784 0.783 0.783 0.784 0.783 0.783 0.784 0.783 0.783 0.784 0.783 0.783 0.784 0.783 0.783 0.784 0.783 0.783 0.784 0.783 0.783 0.784 0.783 0.783 0.784 0.783 0.783 0.784 0.783 0.783 0.784 0.783 0.783 0.784 0.783 0.783 0.784 0.783 0.783 0.784 0.783 0.783 0.784 0.783 0.783 0.784 0.783 0.783 0.784 0.783 0.783 0.784 0.783 0.783 0.784 0.783 0.783 0.784 0.783 0.783 0.784 0.783 0.783 0.784 0.783 0.783 0.784 0.783 0.783 0.784 0.783 0.783 0.784 0.783 0.783 0.784 0.783 0.783 0.784 0.783 0.783 0.784 0.783 0.783 0.784 0.783 0.783 0.784 0.783 0.783 0.784 0.783 0.783 0.784 0.783 0.783 0.784 0.783 0.783 0.784 0.783 0.783 0.784 0.783 0.783 0.784 0.783 0.783 0.784 0.783 0.783 0.784 0.783 0.783 0.784 0.783 0.783 0.784 0.783 0.783 0.784 0.783 0.783 0.784 0.783 0.783 0.784 0.783 0.783 0.784 0.783 0.783 0.784 0.783 0.783 0.784 0.783 0.783 0.784 0.783 0.783 0.784 0.783 0.783 0.784 0.783 0.783 0.784 0.783 0.783 0.784 0.783 0.783 0.784 0.783 0.783 0.784 0.783 0.783 0.784 0.783 0.783 0.784 0.783 0.783 0.784 0.783 0.783 0.784 0.783 0.783 0.784 0.783 0.783 0.784 0.783 0.783 0.784 0.783 0.783 0.784 0.783 0.783 0.784 0.783 0.783 0.784 0.783 0.783 0.784 0.783 0.783 0.784 0.783 0.783 0.784 0.783 0.783 0.784 0.783 0.783 0.784 0.783 0.783 0.784 0.783 0.783 0.784 0.783 0.783 0.784 0.783 0.783 0.784 0.783 0.783 0.784 0.783 0.783 0.784 0.783 0.783 0.784 0.783 0.783 0.784 0.783 0.783 0.784 0.783 0.783 0.784 0.783 0.783 0.784 0.783 0.783 0.784 0.783 0.783 0.784 0.783 0.783 0.784 0.783 0.783 0.784 0.783 0.783 0.784 0.783 0.783 0.784 0.783 0.783 0.784 0.783 0.783 0.784 0.783 0.783 0.784 0.783 0.783 0.784 0.783 0.783 0.784 0.783 0.783 0.784 0.783 0.783 0.784 0.783 0.783 0.784 0.783 0.783 0.784 0.783 0.783 0.784 0.783 0.783 0.784 0.783 0.783 0.784 0.783 0.783 0.784 0.783 0.783 0.784 0.783 0.783 0.784 0.783 0.783 0.784 0.783 0.783 0.784 0.783 0.783 0.784 0.783 0.783 0.784 0.783 0.783 0.784 0.783 0.783 0.784 0.783 0.783 0.784 0.783 0.783 0.784 0.783 0.783 0.784 0.783 0.783 0.784 0.783 0.783 0.784 0.783 0.783 0.784 0.783 0.783 0.784 0.783 0.783 0.784 0.783 0.783 0.784 0.783 0.783 0.784 0.783 0.783 0.784 0.783 0.783 0.784 0.783 0.783 0.784 0.783 0.783 0.784 0.783 0.783 0.784 0.783 0.783 0.784 0.783 0.783 0.784 0.783 0.783 0.784 0.783 0.783 0.784 0.783 0.783 0.783 0.784 0.783 0.783 0.784 0.783 0.783 0.784 0.783 0.783 0.784 0.783 0.783 0.784 0.783 0.783 0.784 0.783 0.783 0.784 0.783 0.783 0.784 0.783 0.783 0.784 0.783 0.783 0.784 0.783 0.783 0.784 0.783 0.783 0.784 0.783 0.783 0.784 0.783 0.783 0.784 0.783 0.783 0.784 0.783 0.783 0.784 0.783 0.783 0.784 0.783 0.783 0.784 0.783 0.783 0.784 0.783 0.783 0.784 0.783 0.783 0.784 0.783 0.783 0.784 0.783 0.783 0.784 0.783 0.783 0.784 0.783 0.783 0.784 0.783 0.783 0.784 0.783 0.783 0.784 0.783 0.783 0.784 0.783 0.783 0.784 0.783 0.783 0.784 0.783 0.783 0.784 0.783 0.783 0.784 0.783 0.783 0.784 0.783 0.783 0.784 0.783 0.783 0.784 0.783 0.783 0.784 0.783 0.783 0.784 0.783 0.783 0.784 0.783 0.783 0.784 0.783 0.783 0.784 0.783 0.783 0.784 0.783 0.783 0.784 0.783 0.783 0.784 0.783 0.783 0.784 0.783 0.783 0.784 0.783 0.783 0.784 0.783 0.783 0.784 0.783 0.783 0.784 0.783 0.783 0.784 0.783 0.783 0.784 0.783 0.783 0.784 0.783 0.783 0.784 0.783 0.783 0.784 0.783 0.783 0.784 0.783 0.783 0.784 0.783 0.783 0.784 0.783 0.783 0.784 0.783 0.783 0.784 0.783"
         stroke-width="5"
         stroke="#0000ff"
         fill="none" /><path
         d="M 43.6,332.2 22,325 43.6,317.8 40,325 Z"
         stroke-width="1"
         stroke="#0000ff"
         fill="#0000ff"
         id="path11" /><path
         d="m 506.399,317.8 21.6,7.2 -21.6,7.2 3.6,-7.2 z"
         stroke-width="1"
         stroke="#0000ff"
         fill="#0000ff"
         id="path12" /><text
         style="font-size:21.6627px;font-family:monospace;-inkscape-font-specification:'monospace, Normal';fill:#000000;fill-opacity:1;stroke:none;stroke-width:2.16627"
         xml:space="preserve"
         id="text1"
         x="393.11255"
         y="211.83371"
         transform="scale(0.91805386,1.0892607)"><tspan
           sodipodi:role="line"
           id="tspan1"
           x="393.11255"
           y="211.83371"
           style="stroke-width:2.16627">$x=4$</tspan></text><path
         style="fill:#aa0000;stroke:#000000;stroke-width:0.182444;stroke-dasharray:1.03115, 0.343716;paint-order:markers fill stroke"
         d="m 141.59712,127.60459 c 9.50911,-9.84138 18.3763,-36.552042 28.21223,-84.983796 l 2.51297,-12.373779 0.0332,3.437161 c 0.0183,1.890438 0.25841,22.693854 0.53366,46.229812 0.27525,23.535962 0.50386,44.300702 0.50801,46.143882 l 0.008,3.35123 h -7.90547 -7.90547 v -1.03114 c 0,-0.80201 -0.15276,-1.03115 -0.68743,-1.03115 -0.53467,0 -0.68743,0.22914 -0.68743,1.03115 v 1.03114 h -8.18271 -8.18271 z"
         id="path8"
         transform="matrix(1.9887483,0,0,2.3596279,10.002256,16.951953)" /><ellipse
         style="fill:none;stroke:#000000;stroke-width:1.37367;stroke-dasharray:none;stroke-dashoffset:0;paint-order:markers fill stroke"
         id="path30"
         cx="503.60651"
         cy="453.32346"
         rx="14.67406"
         ry="16.838991"
         transform="matrix(0.96716832,-0.25413665,0,1,0,0)" /><rect
         style="fill:#ffffff;fill-opacity:1;stroke:none;stroke-width:1.64035;stroke-dasharray:none;stroke-dashoffset:0;paint-order:markers fill stroke"
         id="rect30"
         width="6.3564105"
         height="4.850966"
         x="470.07056"
         y="327.46771"
         rx="0.90334833"
         ry="1.0718129" /><rect
         style="fill:#0017ff;fill-opacity:1;stroke:none;stroke-width:1.65498;stroke-dasharray:none;stroke-dashoffset:0;paint-order:markers fill stroke"
         id="rect31"
         width="6.3564105"
         height="4.9379148"
         x="469.96185"
         y="322.54269"
         rx="0.90334833"
         ry="1.0718129" /><path
         style="fill:none;stroke:#000000;stroke-width:1.35093;stroke-linecap:butt;stroke-linejoin:miter;stroke-dasharray:none;stroke-opacity:1;marker-end:url(#ArrowWide)"
         d="m 473.34955,333.11688 -1.02063,-3.60063"
         id="path32" /><ellipse
         style="fill:none;fill-opacity:1;stroke:#000000;stroke-width:2.98842291;stroke-dasharray:none;stroke-dashoffset:0;paint-order:markers fill stroke;stroke-opacity:1"
         id="path34"
         cx="336.23624"
         cy="257.05414"
         rx="10.444326"
         ry="65.954247" /></g></g></svg>
