<?xml version="1.0" encoding="UTF-8" standalone="no"?>
<!-- Created with Inkscape (http://www.inkscape.org/) -->

<svg
   width="3in"
   height="2in"
   viewBox="0 0 76.2 50.8"
   version="1.1"
   id="svg8"
   inkscape:version="1.3 (0e150ed6c4, 2023-07-21)"
   sodipodi:docname="fig22.svg"
   xml:space="preserve"
   xmlns:inkscape="http://www.inkscape.org/namespaces/inkscape"
   xmlns:sodipodi="http://sodipodi.sourceforge.net/DTD/sodipodi-0.dtd"
   xmlns="http://www.w3.org/2000/svg"
   xmlns:svg="http://www.w3.org/2000/svg"
   xmlns:rdf="http://www.w3.org/1999/02/22-rdf-syntax-ns#"
   xmlns:cc="http://creativecommons.org/ns#"
   xmlns:dc="http://purl.org/dc/elements/1.1/"><defs
     id="defs2"><marker
       style="overflow:visible"
       id="ArrowWide"
       refX="0"
       refY="0"
       orient="auto-start-reverse"
       inkscape:stockid="Wide arrow"
       markerWidth="1"
       markerHeight="1"
       viewBox="0 0 1 1"
       inkscape:isstock="true"
       inkscape:collect="always"
       preserveAspectRatio="xMidYMid"><path
         style="fill:none;stroke:context-stroke;stroke-width:1;stroke-linecap:butt"
         d="M 3,-3 0,0 3,3"
         transform="rotate(180,0.125,0)"
         sodipodi:nodetypes="ccc"
         id="path12" /></marker><style
       type="text/css"
       id="style1">@import url(&quot;http://cdnjs.cloudflare.com/ajax/libs/KaTeX/0.2.0/katex.min.css&quot;)</style></defs><sodipodi:namedview
     id="base"
     pagecolor="#ffffff"
     bordercolor="#666666"
     borderopacity="1.0"
     inkscape:pageopacity="0.0"
     inkscape:pageshadow="2"
     inkscape:zoom="2.909378"
     inkscape:cx="113.94188"
     inkscape:cy="115.66046"
     inkscape:document-units="mm"
     inkscape:current-layer="g1"
     showgrid="false"
     showborder="true"
     width="200mm"
     showguides="true"
     inkscape:guide-bbox="true"
     inkscape:window-width="1890"
     inkscape:window-height="1022"
     inkscape:window-x="12"
     inkscape:window-y="40"
     inkscape:window-maximized="1"
     inkscape:showpageshadow="2"
     inkscape:pagecheckerboard="0"
     inkscape:deskcolor="#d1d1d1"><inkscape:grid
       type="xygrid"
       id="grid815"
       units="mm"
       spacingx="10"
       spacingy="10"
       empspacing="4"
       dotted="false"
       originx="0"
       originy="0"
       visible="false" /></sodipodi:namedview><metadata
     id="metadata5"><rdf:RDF><cc:Work
         rdf:about=""><dc:format>image/svg+xml</dc:format><dc:type
           rdf:resource="http://purl.org/dc/dcmitype/StillImage" /></cc:Work></rdf:RDF></metadata><g
     inkscape:label="Layer 1"
     inkscape:groupmode="layer"
     id="layer1"
     transform="translate(0,-177)"><g
       id="g1"
       transform="matrix(0.13490902,0,0,0.08712097,-1.7048367,176.11664)"><path
         d="M 524.4,317.8 546,325 524.4,332.2 528,325 Z"
         stroke-width="1"
         stroke="#000000"
         fill="#000000"
         id="path1" /><path
         d="M 267.8,75.6 275,54 282.2,75.6 275,72 Z"
         stroke-width="1"
         stroke="#000000"
         fill="#000000"
         id="path2" /><path
         d="M 22,325 H 528 M 275,72 v 506 m 0,-245.75 v -14.5 m 47,14.5 v -14.5 m 47,14.5 v -14.5 m 47,14.5 v -14.5 m 47,14.5 v -14.5 m 47,14.5 v -14.5 m -282,14.5 v -14.5 m -47,14.5 v -14.5 m -47,14.5 v -14.5 m -47,14.5 v -14.5 m -47,14.5 v -14.5 M 282.25,325 h -14.5 m 14.5,47 h -14.5 m 14.5,47 h -14.5 m 14.5,47 h -14.5 m 14.5,47 h -14.5 m 14.5,47 h -14.5 m 14.5,-282 h -14.5 m 14.5,-47 h -14.5 m 14.5,-47 h -14.5 m 14.5,-47 h -14.5 m 14.5,-47 h -14.5"
         stroke-width="2"
         stroke="#000000"
         fill="none"
         id="path3"
         style="fill:#000080" /><text
         id="null"
         x="275"
         y="42.333"
         font-style="italic"
         font-family="KaTeX_Main, serif"
         font-size="29px"
         font-weight="normal"
         text-anchor="middle"
         fill="#000000"
         stroke-width="0px">y</text><text
         id="text3"
         x="557.66602"
         y="334.66599"
         font-style="italic"
         font-family="KaTeX_Main, serif"
         font-size="29px"
         font-weight="normal"
         text-anchor="start"
         fill="#000000"
         stroke-width="0px">x</text><path
         id="path4"
         d="m 40,277.683 0.783,-0.006 0.783,-0.005 0.783,-0.005 0.784,-0.006 0.783,-0.006 0.783,-0.005 0.784,-0.006 0.783,-0.006 0.783,-0.006 0.784,-0.007 0.783,-0.006 0.783,-0.006 0.784,-0.007 0.783,-0.006 0.783,-0.007 0.784,-0.007 0.783,-0.007 0.783,-0.007 0.784,-0.007 0.783,-0.007 0.783,-0.008 0.784,-0.007 0.783,-0.008 0.783,-0.008 0.784,-0.008 0.783,-0.008 0.783,-0.008 0.784,-0.009 0.783,-0.008 0.783,-0.009 0.784,-0.008 0.783,-0.009 0.783,-0.009 0.784,-0.01 0.783,-0.009 0.783,-0.01 0.784,-0.009 0.783,-0.01 0.783,-0.01 0.784,-0.01 0.783,-0.011 0.783,-0.01 0.784,-0.011 0.783,-0.011 0.783,-0.011 0.784,-0.011 0.783,-0.012 0.783,-0.011 0.784,-0.012 0.783,-0.012 0.783,-0.012 0.784,-0.013 0.783,-0.013 0.783,-0.012 0.784,-0.014 0.783,-0.013 0.783,-0.013 0.784,-0.014 0.783,-0.014 0.783,-0.014 0.784,-0.015 0.783,-0.015 0.783,-0.014 0.784,-0.016 0.783,-0.015 0.783,-0.016 0.784,-0.016 0.783,-0.016 0.783,-0.017 0.784,-0.016 0.783,-0.018 0.783,-0.017 0.784,-0.018 0.783,-0.018 0.783,-0.018 0.784,-0.018 0.783,-0.019 0.783,-0.02 0.784,-0.019 0.783,-0.02 0.783,-0.02 0.784,-0.021 0.783,-0.02 0.783,-0.022 0.784,-0.021 0.783,-0.022 0.783,-0.023 0.784,-0.022 0.783,-0.023 0.783,-0.024 0.784,-0.024 0.783,-0.024 0.783,-0.025 0.784,-0.025 0.783,-0.025 0.783,-0.026 0.784,-0.026 0.783,-0.027 0.783,-0.027 0.784,-0.028 0.783,-0.028 0.783,-0.029 0.784,-0.029 0.783,-0.03 0.783,-0.03 0.784,-0.031 0.783,-0.031 0.783,-0.031 0.784,-0.033 0.783,-0.032 0.783,-0.034 0.784,-0.033 0.783,-0.035 0.783,-0.035 0.784,-0.035 0.783,-0.037 0.783,-0.036 0.784,-0.038 0.783,-0.038 0.783,-0.038 0.784,-0.04 0.783,-0.04 0.783,-0.04 0.784,-0.042 0.783,-0.042 0.783,-0.043 0.784,-0.043 0.783,-0.044 0.783,-0.045 0.784,-0.046 0.783,-0.046 0.783,-0.048 0.784,-0.048 0.783,-0.048 0.783,-0.05 0.784,-0.051 0.783,-0.051 0.783,-0.052 0.784,-0.053 0.783,-0.054 0.783,-0.055 0.784,-0.056 0.783,-0.057 0.783,-0.057 0.784,-0.059 0.783,-0.06 0.783,-0.06 0.784,-0.062 0.783,-0.063 0.783,-0.063 0.784,-0.065 0.783,-0.066 0.783,-0.067 0.784,-0.068 0.783,-0.07 0.783,-0.07 0.784,-0.072 0.783,-0.073 0.783,-0.074 0.784,-0.075 0.783,-0.077 0.783,-0.078 0.784,-0.079 0.783,-0.08 0.783,-0.082 0.784,-0.084 0.783,-0.084 0.783,-0.086 0.784,-0.088 0.783,-0.089 0.783,-0.09 0.784,-0.092 0.783,-0.094 0.783,-0.095 0.784,-0.097 0.783,-0.098 0.783,-0.1 0.784,-0.102 0.783,-0.103 0.783,-0.105 0.784,-0.107 0.783,-0.109 0.783,-0.11 0.784,-0.113 0.783,-0.114 0.783,-0.116 0.784,-0.118 0.783,-0.12 0.783,-0.123 0.784,-0.124 0.783,-0.126 0.783,-0.129 0.784,-0.13 0.783,-0.133 0.783,-0.135 0.784,-0.137 0.783,-0.14 0.783,-0.142 0.784,-0.144 0.783,-0.147 0.783,-0.149 0.784,-0.152 0.783,-0.154 0.783,-0.157 0.784,-0.159 0.783,-0.162 0.783,-0.165 0.784,-0.168 0.783,-0.17 0.783,-0.174 0.784,-0.176 0.783,-0.179 0.783,-0.182 0.784,-0.186 0.783,-0.188 0.783,-0.192 0.784,-0.194 0.783,-0.198 0.783,-0.202 0.784,-0.205 0.783,-0.208 0.783,-0.211 0.784,-0.216 0.783,-0.219 0.783,-0.222 0.784,-0.226 0.783,-0.231 0.783,-0.234 0.784,-0.237 0.783,-0.242 0.783,-0.246 0.784,-0.25 0.783,-0.255 0.783,-0.258 0.784,-0.263 0.783,-0.268 0.783,-0.272 0.784,-0.276 0.783,-0.281 0.783,-0.286 0.784,-0.29 0.783,-0.296 0.783,-0.3 0.784,-0.306 0.783,-0.31 0.783,-0.316 0.784,-0.321 0.783,-0.327 0.783,-0.332 0.784,-0.338 0.783,-0.343 0.783,-0.349 0.784,-0.355 0.783,-0.361 0.783,-0.367 0.784,-0.373 0.783,-0.379 0.783,-0.386 0.784,-0.392 0.783,-0.399 0.783,-0.406 0.784,-0.412 0.783,-0.419 0.783,-0.427 0.784,-0.433 0.783,-0.441 0.783,-0.448 0.784,-0.456 0.783,-0.463 0.783,-0.471 0.784,-0.479 0.783,-0.488 0.783,-0.495 0.784,-0.504 0.783,-0.512 0.783,-0.52 0.784,-0.53 0.783,-0.538 0.783,-0.548 0.784,-0.556 0.783,-0.566 0.783,-0.576 0.784,-0.585 0.783,-0.595 0.783,-0.605 0.784,-0.615 0.783,-0.626 0.783,-0.636 0.784,-0.646 0.783,-0.658 0.783,-0.669 0.784,-0.679 0.783,-0.692 0.783,-0.703 0.784,-0.714 0.783,-0.727 0.783,-0.739 0.784,-0.751 0.783,-0.764 0.783,-0.777 0.784,-0.79 0.783,-0.803 0.783,-0.817 0.784,-0.83 0.783,-0.845 0.783,-0.858 0.784,-0.873 0.783,-0.888 0.783,-0.902 0.784,-0.918 0.783,-0.933 0.783,-0.949 0.784,-0.965 0.783,-0.981 0.783,-0.997 0.784,-1.015 0.783,-1.031 0.783,-1.049 0.784,-1.066 0.783,-1.084 0.783,-1.102 0.784,-1.121 0.783,-1.14 0.783,-1.159 0.784,-1.178 0.783,-1.198 0.783,-1.219 0.784,-1.239 0.783,-1.259 0.783,-1.281 0.784,-1.302 0.783,-1.324 0.783,-1.347 0.784,-1.369 0.783,-1.392 0.783,-1.416 0.784,-1.439 0.783,-1.463 0.783,-1.488 0.784,-1.513 0.783,-1.539 0.783,-1.564 0.784,-1.591 0.783,-1.617 0.783,-1.645 0.784,-1.672 0.783,-1.7 0.783,-1.729 0.784,-1.758 0.783,-1.788 0.783,-1.817 0.784,-1.848 0.783,-1.879 0.783,-1.911 0.784,-1.943 0.783,-1.975 0.783,-2.009 0.784,-2.043 0.783,-2.076 0.783,-2.112 0.784,-2.147 0.783,-2.183 0.783,-2.22 0.784,-2.258 0.783,-2.295 0.783,-2.333 0.784,-2.373 0.783,-2.413 0.783,-2.454 0.784,-2.494 0.783,-2.537 0.783,-2.579 0.784,-2.623 0.783,-2.666 0.783,-2.712 0.784,-2.757 0.783,-2.803 0.783,-2.85 0.784,-2.899 0.783,-2.947 0.783,-2.996 0.784,-3.047 0.783,-3.098 0.783,-3.151 0.784,-3.203 0.783,-3.257 0.783,-3.312 0.404,-1.735"
         stroke-width="5"
         stroke="#0000ff"
         fill="none" /><path
         d="M 43.648,284.858 22,277.805 43.55,270.459 40,277.683 Z"
         stroke-width="1"
         stroke="#0000ff"
         fill="#0000ff"
         id="path5" /><path
         d="m 335.724,77.775 11.907,-19.407 2.119,22.669 -6.197,-5.138 z"
         stroke-width="1"
         stroke="#0000ff"
         fill="#0000ff"
         id="path6" /><path
         id="path7"
         d="m 347.34555,327.73499 -0.002,-0.43634 -0.002,-0.43636 -0.002,-0.43634 -0.002,-0.43691 -0.002,-0.43635 -0.002,-0.43635 -0.002,-0.43691 -0.002,-0.43634 -0.002,-0.43635 -0.002,-0.43691 -0.002,-0.43634 -0.002,-0.43636 -0.002,-0.4369 -0.002,-0.43635 -0.002,-0.43634 -0.002,-0.43692 -0.002,-0.43635 -0.002,-0.43634 -0.002,-0.43691 -0.002,-0.43635 -0.002,-0.43635 -0.002,-0.4369 -0.002,-0.43635 -0.002,-0.43634 -0.002,-0.43692 -0.002,-0.43635 -0.002,-0.43634 -0.002,-0.43691 -0.002,-0.43634 -0.002,-0.43636 -0.002,-0.43691 -0.002,-0.43634 -0.002,-0.43635 -0.002,-0.43691 -0.002,-0.43635 -0.002,-0.43634 -0.002,-0.43691 -0.002,-0.43636 -0.002,-0.43634 -0.002,-0.43691 -0.002,-0.43634 -0.002,-0.43635 -0.002,-0.43691 -0.002,-0.43635 -0.002,-0.43635 -0.002,-0.4369 -0.002,-0.43635 -0.002,-0.43635 -0.002,-0.43691 -0.002,-0.43634 -0.002,-0.43635 -0.002,-0.43692 -0.002,-0.43634 -0.002,-0.43635 -0.002,-0.4369 -0.002,-0.43636 -0.002,-0.43634 -0.002,-0.43691 -0.002,-0.43635 -0.002,-0.43634 -0.002,-0.43692 -0.002,-0.43634 -0.002,-0.43635 -0.002,-0.43691 -0.002,-0.43634 -0.002,-0.43636 -0.002,-0.4369 -0.002,-0.43635 -0.002,-0.43634 -0.002,-0.43692 -0.002,-0.43634 -0.002,-0.43635 -0.002,-0.43691 -0.002,-0.43635 -0.002,-0.43635 -0.002,-0.4369 -0.002,-0.43635 -0.002,-0.43634 -0.002,-0.43692 -0.002,-0.43635 -0.002,-0.43634 -0.002,-0.43692 -0.002,-0.43633 -0.002,-0.43636 -0.002,-0.43691 -0.002,-0.43634 -0.002,-0.43635 -0.002,-0.43691 -0.002,-0.43635 -0.002,-0.43634 -0.002,-0.43691 -0.002,-0.43636 -0.002,-0.43634 -0.002,-0.43691 -0.002,-0.43634 -0.002,-0.43635 -0.002,-0.43691 -0.002,-0.43635 -0.002,-0.43634 -0.002,-0.43692 -0.002,-0.43634 -0.002,-0.43635 -0.002,-0.43691 -0.002,-0.43634 -0.002,-0.43636 -0.002,-0.43691 -0.002,-0.43634 -0.002,-0.43635 -0.002,-0.4369 -0.002,-0.43636 -0.002,-0.43634 -0.002,-0.43691 -0.002,-0.43635 -0.002,-0.43635 -0.002,-0.43691 -0.002,-0.43634 -0.002,-0.43635 -0.002,-0.43691 -0.002,-0.43634 -0.002,-0.43636 -0.002,-0.4369 -0.002,-0.43635 -0.002,-0.43635 -0.002,-0.43691 -0.002,-0.43634 -0.002,-0.43635 -0.002,-0.43691 -0.002,-0.43635 -0.002,-0.43635 -0.002,-0.4369 -0.002,-0.43635 -0.002,-0.43635 -0.002,-0.43691 -0.002,-0.43635 -0.002,-0.43634 -0.002,-0.43692 -0.002,-0.43633 -0.002,-0.43636 -0.002,-0.4369 -0.002,-0.43635 -0.002,-0.43636 -0.002,-0.4369 -0.002,-0.43635 -0.002,-0.43634 -0.002,-0.43691 -0.002,-0.43635 -0.002,-0.43635 -0.002,-0.43691 -0.002,-0.43634 -0.002,-0.43636 -0.002,-0.4369 -0.002,-0.43635 -0.002,-0.43634 -0.002,-0.43692 -0.002,-0.43634 -0.002,-0.43635 -0.002,-0.43691 -0.002,-0.43634 -0.002,-0.43636 -0.002,-0.43691 -0.002,-0.43634 -0.002,-0.43635 -0.002,-0.4369 -0.002,-0.43636 -0.002,-0.43634 -0.002,-0.43691 -0.002,-0.43634 -0.002,-0.43636 -0.002,-0.43691 -0.002,-0.43634 -0.002,-0.43636 -0.002,-0.4369 -0.002,-0.43635 -0.002,-0.43634 -0.002,-0.43691 -0.002,-0.43635 -0.002,-0.43635 -0.002,-0.43691 -0.002,-0.43634 -0.002,-0.43636 -0.002,-0.4369 -0.002,-0.43635 -0.002,-0.43635 -0.002,-0.4369 -0.002,-0.43635 -0.002,-0.43635 -0.002,-0.43691 -0.002,-0.43635 -0.002,-0.43635 -0.002,-0.43691 -0.002,-0.43634 -0.002,-0.43635 -0.002,-0.4369 -0.002,-0.43635 -0.002,-0.43636 -0.002,-0.4369 -0.002,-0.43635 -0.002,-0.43635 -0.002,-0.4369 -0.002,-0.43635 -0.002,-0.43635 -0.002,-0.43691 -0.002,-0.43634 -0.002,-0.43636 -0.002,-0.4369 -0.002,-0.43635 -0.002,-0.43635 -0.002,-0.43691 -0.002,-0.43635 -0.002,-0.43634 -0.002,-0.43691 -0.002,-0.43634 -0.002,-0.43636 -0.002,-0.4369 -0.002,-0.43635 -0.002,-0.43636 -0.002,-0.43689 -0.002,-0.43636 -0.002,-0.43634 -0.002,-0.43691 -0.002,-0.43634 -0.002,-0.43636 -0.002,-0.43691 -0.002,-0.43634 -0.002,-0.43636 -0.002,-0.4369 -0.002,-0.43635 -0.002,-0.43634 -0.002,-0.43691 -0.002,-0.43635 -0.002,-0.43635 -0.002,-0.43691 -0.002,-0.43634 -0.002,-0.43636 -0.002,-0.43689 -0.002,-0.43636 -0.002,-0.43635 -0.002,-0.4369 -0.002,-0.43636 -0.002,-0.43634 -0.002,-0.43691 -0.002,-0.43634 -0.002,-0.43636 -0.002,-0.43691 -0.002,-0.43634 -0.002,-0.43636 -0.002,-0.43689 -0.002,-0.43636 -0.002,-0.43634 -0.002,-0.43691 -0.002,-0.43635 -0.002,-0.43635 -0.002,-0.4369 -0.002,-0.43635 -0.002,-0.43635 -0.002,-0.43691 -0.002,-0.43635 -0.002,-0.43635 -0.002,-0.4369 -0.002,-0.43635 -0.002,-0.43635 -0.002,-0.43691 -0.002,-0.43635 -0.002,-0.43635 -0.002,-0.4369 -0.002,-0.43635 -0.002,-0.43635 -0.002,-0.4369 -0.002,-0.43635 -0.002,-0.43636 -0.002,-0.43689 -0.002,-0.43636 -0.002,-0.43634 -0.002,-0.43691 -0.002,-0.43635 -0.002,-0.43635 -0.002,-0.43691 -0.002,-0.43634 -0.002,-0.43636 -0.002,-0.4369 -0.002,-0.43635 -0.002,-0.43635 -0.002,-0.4369 -0.002,-0.43636 -0.002,-0.43634 -0.002,-0.43691 -0.002,-0.43634 -0.002,-0.43636 -0.002,-0.43689 -0.002,-0.43636 -0.002,-0.43635 -0.002,-0.4369 -0.002,-0.43636 -0.002,-0.43634 -0.002,-0.43691 -0.002,-0.43634 -0.002,-0.43636 -0.002,-0.43691 -0.002,-0.43634 -0.002,-0.43635 -0.002,-0.4369 -0.002,-0.43636 -0.002,-0.43634 -0.002,-0.43691 -0.002,-0.43635 -0.002,-0.43635 -0.002,-0.43691 -0.002,-0.43634 -0.002,-0.43635 -0.002,-0.4369 -0.002,-0.43636 -0.002,-0.43635 -0.002,-0.4369 -0.002,-0.43636 -0.002,-0.43634 -0.002,-0.43691 -0.002,-0.43634 -0.002,-0.43635 -0.002,-0.43691 -0.002,-0.43635 -0.002,-0.43635 -0.002,-0.4369 -0.002,-0.43635 -0.002,-0.43635 -0.002,-0.43691 -0.002,-0.43635 -0.002,-0.43634 -0.002,-0.43691 -0.002,-0.43635 -0.002,-0.43635 -0.002,-0.43691 -0.002,-0.43635 -0.002,-0.43635 -0.002,-0.4369 -0.002,-0.43635 -0.002,-0.43634 -0.002,-0.43691 -0.002,-0.43636 -0.002,-0.43634 -0.002,-0.43691 -0.002,-0.43634 -0.002,-0.43636 -0.002,-0.4369 -0.002,-0.43635 -0.002,-0.43635 -0.002,-0.4369 -0.002,-0.43636 -0.002,-0.43634 -0.002,-0.43691 -0.002,-0.43635 -0.002,-0.43635 -0.002,-0.43691 -0.002,-0.43634 -0.002,-0.43635 -0.002,-0.4369 -0.002,-0.43636 -0.002,-0.43634 -0.002,-0.43691 -0.002,-0.43635 -0.002,-0.43635 -0.002,-0.43691 -0.002,-0.43634 -0.002,-0.43635 -0.002,-0.4369 -0.002,-0.43636 -0.002,-0.43635 -0.002,-0.4369 -0.002,-0.43636 -0.002,-0.43633 -0.002,-0.43692 -0.002,-0.43634 -0.002,-0.43635 -0.002,-0.43692 -0.002,-0.43634 -0.002,-0.43635 -0.002,-0.4369 -0.002,-0.43635 -0.002,-0.43635 -0.002,-0.43691 -0.002,-0.43635 -0.002,-0.43634 -0.002,-0.43692 -0.002,-0.43634 -0.002,-0.43635 -0.002,-0.4369 -0.002,-0.43636 -0.002,-0.43634 -0.002,-0.43691 -0.002,-0.43635 -0.002,-0.43634 -0.002,-0.43692 -0.002,-0.43634 -0.002,-0.43635 -0.002,-0.43691 -0.002,-0.43634 -0.002,-0.43636 -0.002,-0.4369 -0.002,-0.43635 -0.002,-0.43634 -0.002,-0.43692 -0.002,-0.43635 -0.002,-0.43634 -0.002,-0.43691 -0.002,-0.43635 -0.002,-0.43635 -0.002,-0.43691 -0.002,-0.43634 -0.002,-0.43635 -0.002,-0.43691 -0.002,-0.43635 -0.002,-0.43634 -0.002,-0.43691 -0.002,-0.43635 -0.002,-0.43635 -0.002,-0.43691 -0.002,-0.43634 -0.002,-0.43635 -0.002,-0.43691 -0.002,-0.43635 -0.002,-0.43635 -0.002,-0.4369 -0.002,-0.43636 -0.002,-0.43634 -0.002,-0.43691 -0.002,-0.43634 -0.002,-0.43635 -0.002,-0.43636 -0.002,-0.4369 -0.002,-0.43635 -0.002,-0.43635 -0.002,-0.4369 -0.002,-0.43635 -0.002,-0.43635 -0.002,-0.43691 -0.002,-0.43634 -0.002,-0.43636 -0.002,-0.4369 -0.002,-0.43635 -0.002,-0.43635 -0.002,-0.43691 -0.002,-0.43635 -0.002,-0.43634 -0.002,-0.43691 -0.002,-0.43634 -0.002,-0.43636 -0.002,-0.4369 -0.002,-0.43635 -0.002,-0.43636 -0.002,-0.43689 -0.002,-0.43636 -0.002,-0.43634 -0.002,-0.43691 -0.002,-0.43634 -0.002,-0.43636 -0.002,-0.43691 -0.002,-0.43634 -0.002,-0.43636 -0.002,-0.4369 -0.002,-0.43635 -0.002,-0.43634 -0.002,-0.43691 -0.002,-0.43635 -0.002,-0.43635 -0.002,-0.43691 -0.002,-0.43634 -0.002,-0.43636 -0.002,-0.43689 -0.002,-0.43636 -0.002,-0.43635 -0.002,-0.4369 -0.002,-0.43636 -0.002,-0.43634 -0.002,-0.43691 -0.002,-0.43634 -0.002,-0.43636 -0.002,-0.43691 -0.002,-0.43634 -0.002,-0.43636 -0.002,-0.43689 -0.002,-0.43636 -0.002,-0.43634 -0.002,-0.43691 -0.002,-0.43635 -0.002,-0.43635 -0.002,-0.4369 -0.002,-0.43635 -0.002,-0.43635 -0.002,-0.43691 -0.002,-0.43635 -0.002,-0.43635 -0.002,-0.4369 -0.002,-0.43635 -0.002,-0.43635 -0.002,-0.43691 -0.002,-0.43635 -0.002,-0.43635 -0.002,-0.4369 -0.002,-0.43635 -0.002,-0.43635 -0.002,-0.4369 -0.002,-0.43635 -0.002,-0.43636 -0.002,-0.43689 -0.002,-0.43636 -0.002,-0.43635 -0.002,-0.4369 -0.002,-0.43635 -0.002,-0.43635 -0.002,-0.43691 -0.002,-0.43634 -0.002,-0.43636 -0.002,-0.4369 -0.002,-0.43635 -0.002,-0.43635 -0.002,-0.4369 -0.002,-0.43636 -0.002,-0.43634 -0.002,-0.43691 -0.002,-0.43634 -0.002,-0.43636 -0.002,-0.4369 -0.002,-0.436353 -0.002,-0.436349 -0.002,-0.436903 -0.002,-0.436348 -0.002,-0.436349 -0.002,-0.436909 -0.002,-0.436348 -0.002,-0.436349 -0.002,-0.436908 -0.002,-0.436349 -0.002,-0.436348 -0.002,-0.436903 -0.002,-0.436349 -0.002,-0.436349 -0.002,-0.436908 -0.002,-0.436349 -0.002,-0.436348 -0.002,-0.436904 -0.002,-0.436354 -0.002,-0.436349 -0.002,-0.436903 -0.002,-0.436348 -0.002,-0.436349 -0.002,-0.436908 -0.002,-0.436349 -0.002,-0.436348 -0.002,-0.436909 -0.002,-0.436343 -0.002,-0.436354 -0.002,-0.436903 -0.002,-0.436349 -0.002,-0.436348 -0.002,-0.436909 -0.002,-0.436348 -0.002,-0.43635 -0.002,-0.436904 -0.002,-0.436354 -0.002,-0.436349 -0.002,-0.436903 -0.002,-0.436349 -0.002,-0.436348 -0.002,-0.436908 -0.002,-0.436349 -0.002,-0.436348 -0.002,-0.436909 -0.002,-0.436343 -0.002,-0.436355 -0.002,-0.436903 -0.002,-0.436348 -0.002,-0.436349 -0.002,-0.436908 -0.002,-0.436348 -0.002,-0.43635 -0.002,-0.436903 -0.002,-0.436349 -0.002,-0.436348 -0.002,-0.436908 -0.002,-0.436349 -0.002,-0.436348 -0.002,-0.436909 -0.002,-0.436349 -0.002,-0.436349 -0.002,-0.436903 -0.002,-0.436348 -0.002,-0.436349 -0.002,-0.436908 -0.002,-0.436348 -0.002,-0.436349 -0.002,-0.436909 -0.002,-0.436349 -0.002,-0.436348 -0.002,-0.436903 -0.002,-0.436349 -0.002,-0.436348 -0.002,-0.436908 -0.002,-0.43635 -0.002,-0.436348 -0.002,-0.436909 -0.002,-0.436348"
         stroke-width="2.77797"
         stroke="#0000ff"
         fill="none"
         style="fill:#ff0000" /><path
         d="M 43.6,285.2 22,278 43.6,270.8 40,278 Z"
         stroke-width="1"
         stroke="#0000ff"
         fill="#0000ff"
         id="path8" /><text
         style="font-size:24.4051px;font-family:monospace;-inkscape-font-specification:'monospace, Normal';fill:#000000;fill-opacity:1;stroke:none;stroke-width:2.44051"
         xml:space="preserve"
         id="text1"
         x="436.88116"
         y="172.5396"
         transform="scale(0.80360174,1.2443975)"><tspan
           sodipodi:role="line"
           id="tspan1"
           x="436.88116"
           y="172.5396"
           style="stroke-width:2.44051">$x=1$</tspan></text><path
         style="fill:#ff0000;stroke:#000000;stroke-width:0.474166;paint-order:markers fill stroke"
         d="m 134.56484,96.068644 v -7.218038 h 1.54673 c 1.14572,0 1.54672,-0.133667 1.54672,-0.515574 0,-0.381906 -0.401,-0.515574 -1.54672,-0.515574 h -1.54673 v -7.218037 -7.218038 h 1.54673 c 1.14572,0 1.54672,-0.133668 1.54672,-0.515574 0,-0.283566 -0.2472,-0.515574 -0.54933,-0.515574 -0.30213,0 0.81925,-1.058986 2.49194,-2.353304 3.88829,-3.008719 9.87667,-9.251606 13.1809,-13.741074 5.15874,-7.009218 10.52817,-16.954089 14.48441,-26.826973 l 1.8421,-4.597008 0.21008,18.345651 c 0.11555,10.090108 0.23155,27.741989 0.25779,39.226403 l 0.0477,20.88075 h -5.67131 -5.67132 v -1.03115 c 0,-0.802 -0.15276,-1.03114 -0.68743,-1.03114 -0.53467,0 -0.68743,0.22914 -0.68743,1.03114 v 1.03115 h -11.17077 -11.17078 z"
         id="path9"
         transform="matrix(1.9611982,0,0,3.036965,12.636936,10.139465)" /><ellipse
         style="fill:none;stroke:#000000;stroke-width:3.52682;paint-order:markers fill stroke"
         id="path10"
         cx="555.35382"
         cy="591.27502"
         rx="15.493454"
         ry="21.943371"
         transform="matrix(0.87760116,-0.47939149,0,1,0,0)" /><rect
         style="fill:#ffffff;fill-opacity:1;stroke:none;stroke-width:3.58764;paint-order:markers fill stroke"
         id="rect10"
         width="10.48923"
         height="10.466571"
         x="469.16333"
         y="326.08682"
         rx="0.89083427"
         ry="1.3794794" /><path
         style="fill:none;stroke:#000000;stroke-width:3.62502249;stroke-linecap:butt;stroke-linejoin:miter;stroke-opacity:1;stroke-dasharray:none;marker-end:url(#ArrowWide)"
         d="m 477.2119,339.18009 c -0.51743,-0.59949 -2.66111,-6.33495 -2.66111,-6.33495"
         id="path11" /><path
         style="fill:#0000ff;fill-opacity:1;stroke:#001fff;stroke-width:2.43769px;stroke-linecap:butt;stroke-linejoin:miter;stroke-opacity:1"
         d="m 275.05032,73.42195 0.0238,503.84156"
         id="path13"
         sodipodi:nodetypes="cc" /><path
         style="fill:#0000ff;fill-opacity:1;stroke:#001fff;stroke-width:2.02532px;stroke-linecap:butt;stroke-linejoin:miter;stroke-opacity:1"
         d="m 275.32916,324.48827 250.65629,-0.0331"
         id="path14"
         sodipodi:nodetypes="cc" /></g></g></svg>
