<?xml version="1.0" encoding="UTF-8" standalone="no"?>
<!-- Created with Inkscape (http://www.inkscape.org/) -->

<svg
   width="3in"
   height="2in"
   viewBox="0 0 76.2 50.8"
   version="1.1"
   id="svg8"
   inkscape:version="1.3 (0e150ed6c4, 2023-07-21)"
   sodipodi:docname="figher3.svg"
   xml:space="preserve"
   xmlns:inkscape="http://www.inkscape.org/namespaces/inkscape"
   xmlns:sodipodi="http://sodipodi.sourceforge.net/DTD/sodipodi-0.dtd"
   xmlns="http://www.w3.org/2000/svg"
   xmlns:svg="http://www.w3.org/2000/svg"
   xmlns:rdf="http://www.w3.org/1999/02/22-rdf-syntax-ns#"
   xmlns:cc="http://creativecommons.org/ns#"
   xmlns:dc="http://purl.org/dc/elements/1.1/"><defs
     id="defs2"><marker
       style="overflow:visible"
       id="ArrowWide"
       refX="0"
       refY="0"
       orient="auto-start-reverse"
       inkscape:stockid="Wide arrow"
       markerWidth="1"
       markerHeight="1"
       viewBox="0 0 1 1"
       inkscape:isstock="true"
       inkscape:collect="always"
       preserveAspectRatio="xMidYMid"><path
         style="fill:none;stroke:context-stroke;stroke-width:1;stroke-linecap:butt"
         d="M 3,-3 0,0 3,3"
         transform="rotate(180,0.125,0)"
         sodipodi:nodetypes="ccc"
         id="path7" /></marker><style
       type="text/css"
       id="style1">@import url(&quot;http://cdnjs.cloudflare.com/ajax/libs/KaTeX/0.2.0/katex.min.css&quot;)</style></defs><sodipodi:namedview
     id="base"
     pagecolor="#ffffff"
     bordercolor="#666666"
     borderopacity="1.0"
     inkscape:pageopacity="0.0"
     inkscape:pageshadow="2"
     inkscape:zoom="11.250056"
     inkscape:cx="137.99931"
     inkscape:cy="48.755312"
     inkscape:document-units="mm"
     inkscape:current-layer="layer1"
     showgrid="false"
     showborder="true"
     width="200mm"
     showguides="true"
     inkscape:guide-bbox="true"
     inkscape:window-width="1890"
     inkscape:window-height="1022"
     inkscape:window-x="12"
     inkscape:window-y="40"
     inkscape:window-maximized="1"
     inkscape:showpageshadow="2"
     inkscape:pagecheckerboard="0"
     inkscape:deskcolor="#d1d1d1"><inkscape:grid
       type="xygrid"
       id="grid815"
       units="mm"
       spacingx="10"
       spacingy="10"
       empspacing="4"
       dotted="false"
       originx="0"
       originy="0"
       visible="false" /></sodipodi:namedview><metadata
     id="metadata5"><rdf:RDF><cc:Work
         rdf:about=""><dc:format>image/svg+xml</dc:format><dc:type
           rdf:resource="http://purl.org/dc/dcmitype/StillImage" /></cc:Work></rdf:RDF></metadata><g
     inkscape:label="Layer 1"
     inkscape:groupmode="layer"
     id="layer1"
     transform="translate(0,-177)"><g
       id="g1"
       transform="matrix(0.13766287,0,0,0.08651158,-2.4752355,175.21666)"><path
         d="M 524.4,317.8 546,325 524.4,332.2 528,325 Z"
         stroke-width="1"
         stroke="#000000"
         fill="#000000"
         id="path1" /><path
         d="M 267.8,75.6 275,54 282.2,75.6 275,72 Z"
         stroke-width="1"
         stroke="#000000"
         fill="#000000"
         id="path2" /><path
         d="M 22,325 H 528 M 275,72 v 506 m 0,-245.75 v -14.5 m 47,14.5 v -14.5 m 47,14.5 v -14.5 m 47,14.5 v -14.5 m 47,14.5 v -14.5 m 47,14.5 v -14.5 m -282,14.5 v -14.5 m -47,14.5 v -14.5 m -47,14.5 v -14.5 m -47,14.5 v -14.5 m -47,14.5 v -14.5 M 282.25,325 h -14.5 m 14.5,47 h -14.5 m 14.5,47 h -14.5 m 14.5,47 h -14.5 m 14.5,47 h -14.5 m 14.5,47 h -14.5 m 14.5,-282 h -14.5 m 14.5,-47 h -14.5 m 14.5,-47 h -14.5 m 14.5,-47 h -14.5 m 14.5,-47 h -14.5"
         stroke-width="2"
         stroke="#000000"
         fill="none"
         id="path3" /><text
         id="null"
         x="322"
         y="356"
         font-style=""
         font-family="KaTeX_Main, serif"
         font-size="29px"
         font-weight="normal"
         text-anchor="middle"
         fill="#000000"
         stroke-width="0px">1</text><text
         id="text3"
         x="369"
         y="356"
         font-style=""
         font-family="KaTeX_Main, serif"
         font-size="29px"
         font-weight="normal"
         text-anchor="middle"
         fill="#000000"
         stroke-width="0px">2</text><text
         id="text4"
         x="416"
         y="356"
         font-style=""
         font-family="KaTeX_Main, serif"
         font-size="29px"
         font-weight="normal"
         text-anchor="middle"
         fill="#000000"
         stroke-width="0px">3</text><text
         id="text5"
         x="463"
         y="356"
         font-style=""
         font-family="KaTeX_Main, serif"
         font-size="29px"
         font-weight="normal"
         text-anchor="middle"
         fill="#000000"
         stroke-width="0px">4</text><text
         id="text6"
         x="510"
         y="356"
         font-style=""
         font-family="KaTeX_Main, serif"
         font-size="29px"
         font-weight="normal"
         text-anchor="middle"
         fill="#000000"
         stroke-width="0px">5</text><text
         id="text7"
         x="228"
         y="356"
         font-style=""
         font-family="KaTeX_Main, serif"
         font-size="29px"
         font-weight="normal"
         text-anchor="middle"
         fill="#000000"
         stroke-width="0px">-1</text><text
         id="text8"
         x="181"
         y="356"
         font-style=""
         font-family="KaTeX_Main, serif"
         font-size="29px"
         font-weight="normal"
         text-anchor="middle"
         fill="#000000"
         stroke-width="0px">-2</text><text
         id="text9"
         x="134"
         y="356"
         font-style=""
         font-family="KaTeX_Main, serif"
         font-size="29px"
         font-weight="normal"
         text-anchor="middle"
         fill="#000000"
         stroke-width="0px">-3</text><text
         id="text10"
         x="87"
         y="356"
         font-style=""
         font-family="KaTeX_Main, serif"
         font-size="29px"
         font-weight="normal"
         text-anchor="middle"
         fill="#000000"
         stroke-width="0px">-4</text><text
         id="text11"
         x="40"
         y="356"
         font-style=""
         font-family="KaTeX_Main, serif"
         font-size="29px"
         font-weight="normal"
         text-anchor="middle"
         fill="#000000"
         stroke-width="0px">-5</text><text
         id="text12"
         x="263.33301"
         y="287.66599"
         font-style=""
         font-family="KaTeX_Main, serif"
         font-size="29px"
         font-weight="normal"
         text-anchor="end"
         fill="#000000"
         stroke-width="0px">1</text><text
         id="text13"
         x="263.33301"
         y="240.666"
         font-style=""
         font-family="KaTeX_Main, serif"
         font-size="29px"
         font-weight="normal"
         text-anchor="end"
         fill="#000000"
         stroke-width="0px">2</text><text
         id="text14"
         x="263.33301"
         y="193.666"
         font-style=""
         font-family="KaTeX_Main, serif"
         font-size="29px"
         font-weight="normal"
         text-anchor="end"
         fill="#000000"
         stroke-width="0px">3</text><text
         id="text15"
         x="263.33301"
         y="146.666"
         font-style=""
         font-family="KaTeX_Main, serif"
         font-size="29px"
         font-weight="normal"
         text-anchor="end"
         fill="#000000"
         stroke-width="0px">4</text><text
         id="text16"
         x="263.33301"
         y="99.666"
         font-style=""
         font-family="KaTeX_Main, serif"
         font-size="29px"
         font-weight="normal"
         text-anchor="end"
         fill="#000000"
         stroke-width="0px">5</text><text
         id="text17"
         x="263.33301"
         y="381.66599"
         font-style=""
         font-family="KaTeX_Main, serif"
         font-size="29px"
         font-weight="normal"
         text-anchor="end"
         fill="#000000"
         stroke-width="0px">-1</text><text
         id="text18"
         x="263.33301"
         y="428.66599"
         font-style=""
         font-family="KaTeX_Main, serif"
         font-size="29px"
         font-weight="normal"
         text-anchor="end"
         fill="#000000"
         stroke-width="0px">-2</text><text
         id="text19"
         x="263.33301"
         y="475.66599"
         font-style=""
         font-family="KaTeX_Main, serif"
         font-size="29px"
         font-weight="normal"
         text-anchor="end"
         fill="#000000"
         stroke-width="0px">-3</text><text
         id="text20"
         x="263.33301"
         y="522.66602"
         font-style=""
         font-family="KaTeX_Main, serif"
         font-size="29px"
         font-weight="normal"
         text-anchor="end"
         fill="#000000"
         stroke-width="0px">-4</text><text
         id="text21"
         x="263.33301"
         y="569.66602"
         font-style=""
         font-family="KaTeX_Main, serif"
         font-size="29px"
         font-weight="normal"
         text-anchor="end"
         fill="#000000"
         stroke-width="0px">-5</text><text
         id="text22"
         x="275"
         y="42.333"
         font-style="italic"
         font-family="KaTeX_Main, serif"
         font-size="29px"
         font-weight="normal"
         text-anchor="middle"
         fill="#000000"
         stroke-width="0px">y</text><text
         id="text23"
         x="557.66602"
         y="334.66599"
         font-style="italic"
         font-family="KaTeX_Main, serif"
         font-size="29px"
         font-weight="normal"
         text-anchor="start"
         fill="#000000"
         stroke-width="0px">x</text><path
         id="path23"
         d="m 241.461,574.1 1.422,-12.506 0.783,-6.815 0.783,-6.763 0.784,-6.71 0.783,-6.659 0.783,-6.606 0.784,-6.554 0.783,-6.501 0.783,-6.45 0.784,-6.397 0.783,-6.345 0.783,-6.293 0.784,-6.24 0.783,-6.189 0.783,-6.136 0.784,-6.084 0.783,-6.031 0.783,-5.98 0.784,-5.927 0.783,-5.875 0.783,-5.823 0.784,-5.77 0.783,-5.719 0.783,-5.666 0.784,-5.614 0.783,-5.561 0.783,-5.51 0.784,-5.457 0.783,-5.405 0.783,-5.353 0.784,-5.301 0.783,-5.248 0.783,-5.196 0.784,-5.144 0.783,-5.092 0.783,-5.039 0.784,-4.987 0.783,-4.935 0.783,-4.883 0.784,-4.831 0.783,-4.778 0.783,-4.726 0.784,-4.674 0.783,-4.622 0.783,-4.569 0.784,-4.517 0.783,-4.465 0.783,-4.413 0.784,-4.361 0.783,-4.308 0.783,-4.256 0.784,-4.204 0.783,-4.152 0.783,-4.099 0.784,-4.047 0.783,-3.995 0.783,-3.943 0.784,-3.891 0.783,-3.838 0.783,-3.786 0.784,-3.734 0.783,-3.682 0.783,-3.629 0.784,-3.578 0.783,-3.525 0.783,-3.472 0.784,-3.421 0.783,-3.368 0.783,-3.316 0.784,-3.264 0.783,-3.212 0.783,-3.159 0.784,-3.108 0.783,-3.055 0.783,-3.003 0.784,-2.95 0.783,-2.898 0.783,-2.847 0.784,-2.793 0.783,-2.742 0.783,-2.69 0.784,-2.637 0.783,-2.585 0.783,-2.533 0.784,-2.48 0.783,-2.429 0.783,-2.376 0.784,-2.324 0.783,-2.271 0.783,-2.22 0.784,-2.167 0.783,-2.115 0.783,-2.063 0.784,-2.01 0.783,-1.959 0.783,-1.906 0.784,-1.854 0.783,-1.801 0.783,-1.75 0.784,-1.697 0.783,-1.645 0.783,-1.593 0.784,-1.541 0.783,-1.488 0.783,-1.436 0.784,-1.384 0.783,-1.332 0.783,-1.279 0.784,-1.227 0.783,-1.175 0.783,-1.123 0.784,-1.071 0.783,-1.018 0.783,-0.966 0.784,-0.914 0.783,-0.862 0.783,-0.809 0.784,-0.757 0.783,-0.705 0.783,-0.653 0.784,-0.601 0.783,-0.548 0.783,-0.496 0.784,-0.444 0.783,-0.392 0.783,-0.339 0.784,-0.288 0.783,-0.235 0.783,-0.182 0.784,-0.131 0.783,-0.078 0.783,-0.026 0.784,0.026 0.783,0.078 0.783,0.13 0.784,0.183 0.783,0.235 0.783,0.287 0.784,0.34 0.783,0.391 0.783,0.444 0.784,0.496 0.783,0.549 0.783,0.6 0.784,0.653 0.783,0.705 0.783,0.757 0.784,0.81 0.783,0.861 0.783,0.914 0.784,0.966 0.783,1.019 0.783,1.07 0.784,1.123 0.783,1.175 0.783,1.227 0.784,1.279 0.783,1.332 0.783,1.384 0.784,1.436 0.783,1.488 0.783,1.541 0.784,1.593 0.783,1.645 0.783,1.697 0.784,1.749 0.783,1.802 0.783,1.854 0.783,1.906 0.784,1.958 0.783,2.011 0.783,2.062 0.784,2.115 0.783,2.168 0.783,2.219 0.784,2.272 0.783,2.323 0.783,2.377 0.784,2.428 0.783,2.48 0.783,2.533 0.784,2.585 0.783,2.637 0.783,2.69 0.784,2.741 0.783,2.794 0.783,2.846 0.784,2.899 0.783,2.95 0.783,3.003 0.784,3.055 0.783,3.107 0.783,3.16 0.784,3.211 0.783,3.264 0.783,3.316 0.784,3.368 0.783,3.421 0.783,3.473 0.784,3.525 0.783,3.577 0.783,3.629 0.784,3.682 0.783,3.734 0.783,3.786 0.784,3.838 0.783,3.891 0.783,3.942 0.784,3.995 0.783,4.048 0.783,4.099 0.784,4.152 0.783,4.204 0.783,4.256 0.784,4.308 0.783,4.36 0.783,4.413 0.784,4.465 0.783,4.517 0.783,4.57 0.784,4.621 0.783,4.674 0.783,4.726 0.784,4.779 0.783,4.83 0.783,4.883 0.784,4.935 0.783,4.987 0.783,5.039 0.784,5.092 0.783,5.144 0.783,5.196 0.784,5.248 0.783,5.301 0.783,5.353 0.784,5.405 0.783,5.457 0.783,5.509 0.784,5.562 0.783,5.614 0.783,5.666 0.784,5.718 0.783,5.771 0.783,5.822 0.784,5.875 0.783,5.927 0.783,5.98 0.784,6.032 0.783,6.083 0.783,6.136 0.784,6.189 0.783,6.24 0.783,6.293 0.784,6.345 0.783,6.397 0.783,6.45 0.784,6.501 0.783,6.554 0.783,6.606 0.784,6.658 0.783,6.711 0.783,6.763 0.784,6.815 0.783,6.867 0.639,5.644"
         stroke-width="5"
         stroke="#0000ff"
         fill="none" /><path
         d="m 249.022,571.336 -9.594,20.648 -4.714,-22.275 6.747,4.391 z"
         stroke-width="1"
         stroke="#0000ff"
         fill="#0000ff"
         id="path24" /><path
         d="m 456.287,569.712 -4.724,22.273 -9.584,-20.653 7.559,2.768 z"
         stroke-width="1"
         stroke="#0000ff"
         fill="#0000ff"
         id="path25" /><path
         id="path26"
         d="m 166.798,75.899 0.885,4.06 0.783,3.564 0.783,3.538 0.784,3.512 0.783,3.486 0.783,3.46 0.784,3.434 0.783,3.407 0.783,3.381 0.784,3.356 0.783,3.329 0.783,3.303 0.784,3.277 0.783,3.251 0.783,3.224 0.784,3.199 0.783,3.173 0.783,3.146 0.784,3.12 0.783,3.094 0.783,3.068 0.784,3.042 0.783,3.016 0.783,2.99 0.784,2.964 0.783,2.937 0.783,2.911 0.784,2.886 0.783,2.859 0.783,2.833 0.784,2.807 0.783,2.781 0.783,2.754 0.784,2.729 0.783,2.703 0.783,2.676 0.784,2.65 0.783,2.624 0.783,2.598 0.784,2.572 0.783,2.546 0.783,2.52 0.784,2.494 0.783,2.467 0.783,2.441 0.784,2.416 0.783,2.389 0.783,2.363 0.784,2.337 0.783,2.311 0.783,2.285 0.784,2.258 0.783,2.233 0.783,2.206 0.784,2.18 0.783,2.154 0.783,2.129 0.784,2.101 0.783,2.076 0.783,2.05 0.784,2.024 0.783,1.997 0.783,1.972 0.784,1.945 0.783,1.919 0.783,1.893 0.784,1.867 0.783,1.841 0.783,1.815 0.784,1.788 0.783,1.763 0.783,1.736 0.784,1.71 0.783,1.685 0.783,1.658 0.784,1.632 0.783,1.605 0.783,1.58 0.784,1.554 0.783,1.527 0.783,1.502 0.784,1.475 0.783,1.449 0.783,1.423 0.784,1.397 0.783,1.371 0.783,1.345 0.784,1.318 0.783,1.293 0.783,1.266 0.784,1.24 0.783,1.215 0.783,1.188 0.784,1.162 0.783,1.135 0.783,1.11 0.784,1.084 0.783,1.057 0.783,1.032 0.784,1.005 0.783,0.979 0.783,0.953 0.784,0.927 0.783,0.901 0.783,0.875 0.784,0.848 0.783,0.823 0.783,0.796 0.784,0.771 0.783,0.744 0.783,0.718 0.784,0.692 0.783,0.666 0.783,0.639 0.784,0.614 0.783,0.587 0.783,0.562 0.784,0.535 0.783,0.509 0.783,0.483 0.784,0.457 0.783,0.431 0.783,0.405 0.784,0.379 0.783,0.352 0.783,0.326 0.784,0.301 0.783,0.274 0.783,0.248 0.784,0.222 0.783,0.196 0.783,0.169 0.784,0.144 0.783,0.118 0.783,0.091 0.784,0.065 0.783,0.039 0.783,0.013 0.784,-0.013 0.783,-0.039 0.783,-0.065 0.784,-0.091 0.783,-0.118 0.783,-0.143 0.784,-0.17 0.783,-0.196 0.783,-0.222 0.784,-0.248 0.783,-0.274 0.783,-0.3 0.784,-0.327 0.783,-0.352 0.783,-0.379 0.784,-0.405 0.783,-0.43 0.783,-0.457 0.784,-0.483 0.783,-0.51 0.783,-0.535 0.784,-0.561 0.783,-0.588 0.783,-0.613 0.784,-0.64 0.783,-0.666 0.783,-0.692 0.784,-0.718 0.783,-0.744 0.783,-0.77 0.784,-0.797 0.783,-0.822 0.783,-0.849 0.784,-0.874 0.783,-0.901 0.783,-0.927 0.784,-0.953 0.783,-0.979 0.783,-1.006 0.784,-1.031 0.783,-1.058 0.783,-1.083 0.784,-1.11 0.783,-1.136 0.783,-1.162 0.784,-1.188 0.783,-1.214 0.783,-1.24 0.784,-1.266 0.783,-1.293 0.783,-1.319 0.784,-1.344 0.783,-1.371 0.783,-1.397 0.784,-1.423 0.783,-1.449 0.783,-1.475 0.784,-1.502 0.783,-1.527 0.783,-1.554 0.784,-1.58 0.783,-1.605 0.783,-1.632 0.784,-1.658 0.783,-1.685 0.783,-1.71 0.784,-1.736 0.783,-1.763 0.783,-1.788 0.784,-1.815 0.783,-1.841 0.783,-1.867 0.784,-1.893 0.783,-1.919 0.783,-1.945 0.784,-1.972 0.783,-1.997 0.783,-2.024 0.784,-2.049 0.783,-2.076 0.783,-2.102 0.784,-2.128 0.783,-2.154 0.783,-2.181 0.784,-2.206 0.783,-2.233 0.783,-2.258 0.784,-2.285 0.783,-2.311 0.783,-2.337 0.784,-2.363 0.783,-2.389 0.783,-2.415 0.784,-2.441 0.783,-2.468 0.783,-2.494 0.784,-2.519 0.783,-2.546 0.783,-2.572 0.784,-2.598 0.783,-2.624 0.783,-2.65 0.784,-2.677 0.783,-2.702 0.783,-2.729 0.784,-2.755 0.783,-2.78 0.783,-2.807 0.784,-2.833 0.783,-2.86 0.783,-2.885 0.784,-2.911 0.783,-2.938 0.783,-2.963 0.784,-2.99 0.783,-3.016 0.783,-3.042 0.784,-3.068 0.783,-3.094 0.783,-3.12 0.784,-3.147 0.783,-3.172 0.783,-3.199 0.784,-3.224 0.783,-3.251 0.783,-3.277 0.783,-3.303 0.784,-3.329 0.783,-3.356 0.783,-3.381 0.784,-3.407 0.783,-3.434 0.783,-3.46 0.784,-3.486 0.783,-3.511 0.783,-3.539 0.784,-3.564 0.783,-3.59 0.102,-0.472"
         stroke-width="5"
         stroke="#0000ff"
         fill="none" /><path
         d="m 160.53,80.95 2.434,-22.637 11.635,19.57 -7.801,-1.984 z"
         stroke-width="1"
         stroke="#0000ff"
         fill="#0000ff"
         id="path27" /><path
         d="m 375.402,77.894 11.61,-19.587 2.464,22.635 -6.275,-5.043 z"
         stroke-width="1"
         stroke="#0000ff"
         fill="#0000ff"
         id="path28" /></g><path
       style="fill:#ff00ff;fill-opacity:1;stroke-width:0.25181;paint-order:markers fill stroke"
       d="m 135.65918,97.767791 c 0.67384,-2.83406 4.72564,-16.501567 6.41295,-21.632153 8.93158,-27.158039 17.68924,-42.003857 26.23102,-44.466354 3.31796,-0.956529 6.45558,0.243742 10.33689,3.95429 1.30811,1.250569 2.37839,2.390419 2.37839,2.533001 0,0.480894 -4.08031,10.072919 -6.70912,15.771833 -3.99067,8.651265 -8.35457,16.656577 -12.59256,23.100315 -4.18324,6.36048 -10.08804,13.04139 -14.38786,16.278965 -3.42551,2.579259 -7.63196,4.55067 -10.68759,5.00889 l -1.15374,0.173014 z"
       id="path4"
       transform="matrix(0.26458333,0,0,0.26458333,0,177)" /><ellipse
       style="fill:#ffffff;fill-opacity:1;stroke:#000000;stroke-width:0.266619;stroke-opacity:1;paint-order:markers fill stroke"
       id="path5"
       cx="64.540298"
       cy="187.29462"
       rx="1.6483301"
       ry="1.6685392"
       transform="matrix(1,0,-0.15516777,0.98788813,0,0)" /><rect
       style="fill:#ffffff;fill-opacity:1;stroke:none;stroke-width:0.298789;stroke-opacity:1;paint-order:markers fill stroke"
       id="rect5"
       width="0.56245351"
       height="1.0898749"
       x="34.703979"
       y="183.19757"
       rx="0.12018158"
       ry="0.12018158" /><path
       style="fill:none;stroke:#000000;stroke-width:0.265;stroke-linecap:butt;stroke-linejoin:miter;stroke-dasharray:none;stroke-opacity:1;marker-end:url(#ArrowWide)"
       d="m 34.56477,183.84571 c 0.0701,-0.10094 0.444129,-0.3304 0.444129,-0.3304"
       id="path6" /></g></svg>
