<?xml version="1.0" encoding="UTF-8" standalone="no"?>
<!-- Created with Inkscape (http://www.inkscape.org/) -->

<svg
   width="3in"
   height="2in"
   viewBox="0 0 76.2 50.8"
   version="1.1"
   id="svg8"
   inkscape:version="1.3 (0e150ed6c4, 2023-07-21)"
   sodipodi:docname="figher2.svg"
   xml:space="preserve"
   xmlns:inkscape="http://www.inkscape.org/namespaces/inkscape"
   xmlns:sodipodi="http://sodipodi.sourceforge.net/DTD/sodipodi-0.dtd"
   xmlns="http://www.w3.org/2000/svg"
   xmlns:svg="http://www.w3.org/2000/svg"
   xmlns:rdf="http://www.w3.org/1999/02/22-rdf-syntax-ns#"
   xmlns:cc="http://creativecommons.org/ns#"
   xmlns:dc="http://purl.org/dc/elements/1.1/"><defs
     id="defs2"><marker
       style="overflow:visible"
       id="ArrowWide"
       refX="0"
       refY="0"
       orient="auto-start-reverse"
       inkscape:stockid="Wide arrow"
       markerWidth="1"
       markerHeight="1"
       viewBox="0 0 1 1"
       inkscape:isstock="true"
       inkscape:collect="always"
       preserveAspectRatio="xMidYMid"><path
         style="fill:none;stroke:context-stroke;stroke-width:1;stroke-linecap:butt"
         d="M 3,-3 0,0 3,3"
         transform="rotate(180,0.125,0)"
         sodipodi:nodetypes="ccc"
         id="path14" /></marker><style
       type="text/css"
       id="style1">@import url(&quot;http://cdnjs.cloudflare.com/ajax/libs/KaTeX/0.2.0/katex.min.css&quot;)</style></defs><sodipodi:namedview
     id="base"
     pagecolor="#ffffff"
     bordercolor="#666666"
     borderopacity="1.0"
     inkscape:pageopacity="0.0"
     inkscape:pageshadow="2"
     inkscape:zoom="22.500112"
     inkscape:cx="129.17713"
     inkscape:cy="38.288698"
     inkscape:document-units="mm"
     inkscape:current-layer="g1"
     showgrid="false"
     showborder="true"
     width="200mm"
     showguides="true"
     inkscape:guide-bbox="true"
     inkscape:window-width="1890"
     inkscape:window-height="1022"
     inkscape:window-x="12"
     inkscape:window-y="40"
     inkscape:window-maximized="1"
     inkscape:showpageshadow="2"
     inkscape:pagecheckerboard="0"
     inkscape:deskcolor="#d1d1d1"><inkscape:grid
       type="xygrid"
       id="grid815"
       units="mm"
       spacingx="10"
       spacingy="10"
       empspacing="4"
       dotted="false"
       originx="0"
       originy="0"
       visible="false" /></sodipodi:namedview><metadata
     id="metadata5"><rdf:RDF><cc:Work
         rdf:about=""><dc:format>image/svg+xml</dc:format><dc:type
           rdf:resource="http://purl.org/dc/dcmitype/StillImage" /></cc:Work></rdf:RDF></metadata><g
     inkscape:label="Layer 1"
     inkscape:groupmode="layer"
     id="layer1"
     transform="translate(0,-177)"><g
       id="g1"
       transform="matrix(0.13686331,0,0,0.08519834,-2.9000047,175.78284)"><path
         d="M 524.4,317.8 546,325 524.4,332.2 528,325 Z"
         stroke-width="1"
         stroke="#000000"
         fill="#000000"
         id="path1" /><path
         d="M 267.8,75.6 275,54 282.2,75.6 275,72 Z"
         stroke-width="1"
         stroke="#000000"
         fill="#000000"
         id="path2" /><path
         d="M 22,325 H 528 M 275,72 v 506 m 0,-245.75 v -14.5 m 47,14.5 v -14.5 m 47,14.5 v -14.5 m 47,14.5 v -14.5 m 47,14.5 v -14.5 m 47,14.5 v -14.5 m -282,14.5 v -14.5 m -47,14.5 v -14.5 m -47,14.5 v -14.5 m -47,14.5 v -14.5 m -47,14.5 v -14.5 M 282.25,325 h -14.5 m 14.5,47 h -14.5 m 14.5,47 h -14.5 m 14.5,47 h -14.5 m 14.5,47 h -14.5 m 14.5,47 h -14.5 m 14.5,-282 h -14.5 m 14.5,-47 h -14.5 m 14.5,-47 h -14.5 m 14.5,-47 h -14.5 m 14.5,-47 h -14.5"
         stroke-width="2"
         stroke="#000000"
         fill="none"
         id="path3" /><text
         id="null"
         x="275"
         y="42.333"
         font-style="italic"
         font-family="KaTeX_Main, serif"
         font-size="29px"
         font-weight="normal"
         text-anchor="middle"
         fill="#000000"
         stroke-width="0px">y</text><text
         id="text3"
         x="557.66602"
         y="334.66599"
         font-style="italic"
         font-family="KaTeX_Main, serif"
         font-size="29px"
         font-weight="normal"
         text-anchor="start"
         fill="#000000"
         stroke-width="0px">x</text><path
         id="path4"
         d="m 193.18647,574.06871 1.33635,-11.32857 0.83045,-6.85714 0.8315,-6.72416 0.83045,-6.59317 0.83044,-6.46119 0.83151,-6.3332 0.83044,-6.20422 0.83044,-6.07824 0.83151,-5.95325 0.83044,-5.82827 0.83045,-5.70628 0.8315,-5.5853 0.83045,-5.46431 0.83044,-5.34533 0.83151,-5.22835 0.83044,-5.11235 0.83045,-4.99738 0.8315,-4.88338 0.83045,-4.7714 0.83044,-4.66142 0.83151,-4.55043 0.83044,-4.44244 0.83045,-4.33545 0.8315,-4.22947 0.83045,-4.12548 0.83044,-4.0225 0.8315,-3.91951 0.83045,-3.82052 0.83044,-3.72053 0.83151,-3.62254 0.83044,-3.52556 0.83045,-3.43157 0.8315,-3.33658 0.83045,-3.24459 0.83044,-3.15261 0.83151,-3.06261 0.83044,-2.97363 0.83045,-2.88664 0.8315,-2.79965 0.83045,-2.71565 0.83044,-2.63267 0.83151,-2.54868 0.83044,-2.46969 0.83045,-2.3887 0.8315,-2.31071 0.83044,-2.23372 0.83045,-2.15773 0.8315,-2.08374 0.83045,-2.01075 0.83044,-1.93875 0.83151,-1.86877 0.83044,-1.79877 0.83045,-1.73079 0.8315,-1.66479 0.83045,-1.5998 0.83044,-1.5348 0.83151,-1.47282 0.83044,-1.41182 0.83045,-1.35083 0.8315,-1.29284 0.83045,-1.23484 0.83044,-1.17885 0.83151,-1.12486 0.83044,-1.06987 0.83044,-1.01887 0.83151,-0.96788 0.83044,-0.91788 0.83045,-0.86889 0.8315,-0.8229 0.83045,-0.7769 0.83044,-0.73291 0.83151,-0.68892 0.83044,-0.64791 0.83045,-0.60693 0.8315,-0.56793 0.83045,-0.53093 0.83044,-0.49294 0.83151,-0.45894 0.83044,-0.42495 0.83045,-0.39095 0.8315,-0.36095 0.83045,-0.32996 0.83044,-0.30196 0.83151,-0.27497 0.83044,-0.24797 0.83044,-0.22297 0.83151,-0.19997 0.83044,-0.17798 0.83045,-0.15698 0.8315,-0.13698 0.83045,-0.11899 0.83044,-0.10199 0.83151,-0.087 0.83044,-0.072 0.83045,-0.059 0.8315,-0.047 0.83045,-0.037 0.83044,-0.027 0.83151,-0.02 0.83044,-0.014 0.83045,-0.008 0.8315,-0.004 0.83045,-10e-4 h 0.83044 l 0.83151,-0.001 0.83044,-10e-4 0.83044,-0.004 0.83151,-0.008 0.83044,-0.014 0.83045,-0.019 0.8315,-0.028 0.83045,-0.037 0.83044,-0.047 0.83151,-0.059 0.83044,-0.072 0.83045,-0.086 0.8315,-0.10299 0.83045,-0.11898 0.83044,-0.13699 0.83151,-0.15698 0.83044,-0.17698 0.83045,-0.19997 0.8315,-0.22397 0.83045,-0.24797 0.83044,-0.27497 0.8315,-0.30096 0.83045,-0.33096 0.83044,-0.35995 0.83151,-0.39195 0.83044,-0.42495 0.83045,-0.45794 0.8315,-0.49394 0.83045,-0.52993 0.83044,-0.56793 0.83151,-0.60793 0.83044,-0.64691 0.83045,-0.68992 0.8315,-0.73291 0.83045,-0.7769 0.83044,-0.82189 0.83151,-0.8699 0.83044,-0.91788 0.83045,-0.96788 0.8315,-1.01787 0.83044,-1.07087 0.83045,-1.12386 0.8315,-1.17885 0.83045,-1.23484 0.83044,-1.29284 0.83151,-1.35183 0.83044,-1.41082 0.83045,-1.47282 0.8315,-1.5358 0.83045,-1.5988 0.83044,-1.66479 0.83151,-1.73079 0.83044,-1.79877 0.83045,-1.86877 0.8315,-1.93875 0.83045,-2.01075 0.83044,-2.08274 0.83151,-2.15873 0.83044,-2.23372 0.83044,-2.31071 0.83151,-2.3887 0.83044,-2.46869 0.83045,-2.54968 0.8315,-2.63167 0.83045,-2.71565 0.83044,-2.79965 0.83151,-2.88664 0.83044,-2.97363 0.83045,-3.06261 0.8315,-3.15361 0.83045,-3.24359 0.83044,-3.33658 0.83151,-3.43057 0.83044,-3.52656 0.83045,-3.62254 0.8315,-3.72053 0.83045,-3.81952 0.83044,-3.92051 0.83151,-4.0225 0.83044,-4.12448 0.83044,-4.22947 0.83151,-4.33545 0.83044,-4.44244 0.83045,-4.55143 0.8315,-4.66042 0.83045,-4.7714 0.83044,-4.88338 0.83151,-4.99738 0.83044,-5.11235 0.83045,-5.22735 0.8315,-5.34633 0.83045,-5.46431 0.83044,-5.5843 0.83151,-5.70628 0.83044,-5.82927 0.83045,-5.95225 0.8315,-6.07824 0.83045,-6.20422 0.83044,-6.3332 0.83151,-6.46119 0.83044,-6.59317 0.83044,-6.724157 0.83151,-6.857139 0.83044,-6.992122 0.50591,-4.340454"
         stroke-width="5.14893"
         stroke="#0000ff"
         fill="none" /><path
         d="m 200.61,571.317 -9.543,20.672 -4.769,-22.263 6.758,4.374 z"
         stroke-width="1"
         stroke="#0000ff"
         fill="#0000ff"
         id="path5" /><path
         d="m 359.17211,79.522993 9.516,-20.685 4.798,22.257 -6.764,-4.365 z"
         stroke-width="1"
         stroke="#0000ff"
         fill="#0000ff"
         id="path6" /><path
         style="fill:none;stroke:#000000;stroke-width:2.45021px;stroke-linecap:butt;stroke-linejoin:miter;stroke-opacity:1"
         d="m 368.79184,322.45027 c -0.65127,-5.14679 0,-247.51881 0,-247.51881"
         id="path7" /><path
         style="fill:none;stroke:#000000;stroke-width:2.45021px;stroke-linecap:butt;stroke-linejoin:miter;stroke-opacity:1"
         d="M 321.87231,319.89 V 297.01577"
         id="path8" /><path
         style="fill:#ff00ff;fill-opacity:1;stroke-width:0.211652;paint-order:markers fill stroke"
         d="m 156.177,95.990036 v -3.653909 l 0.9515,-1.190511 c 4.19367,-5.247057 8.24202,-13.67566 11.97112,-24.923725 3.0519,-9.205452 6.66826,-23.398848 9.25997,-36.343345 l 0.66174,-3.305107 v 35.957479 c 0,19.776614 0.058,36.217478 0.12889,36.535254 l 0.12888,0.577775 H 167.72805 156.177 Z"
         id="path9"
         transform="matrix(1.933194,0,0,3.1054987,21.189059,14.286194)" /><path
         d="m 279.81149,99.981142 a 10.326968,14.625003 3.6046737 0 0 -14.03913,6.703208 10.326968,14.625003 3.6046737 0 0 4.12363,19.54127 10.326968,14.625003 3.6046737 0 0 14.04111,-6.69532 10.326968,14.625003 3.6046737 0 0 -4.12561,-19.549158 z"
         style="fill:none;stroke:#000000;stroke-width:3.07158;stroke-opacity:1;paint-order:markers fill stroke"
         id="path11" /><path
         d="m 270.96395,93.154943 c -0.60559,0 -1.09516,0.625702 -1.09516,1.407179 v 8.273238 c 0,0.78148 0.48957,1.40718 1.09516,1.40718 h 1.88479 c 0.60559,0 1.09046,-0.6257 1.09046,-1.40718 v -8.273238 c 0,-0.781477 -0.48487,-1.407179 -1.09046,-1.407179 z"
         style="fill:#ffffff;fill-opacity:1;stroke:none;stroke-width:3.25468;paint-order:markers fill stroke"
         id="path12" /><path
         style="fill:none;stroke:#000000;stroke-width:2.45407;stroke-linecap:butt;stroke-linejoin:miter;stroke-dasharray:none;stroke-opacity:1;marker-end:url(#ArrowWide)"
         d="m 267.52107,103.35655 c 0.92576,-0.4783 4.32101,-4.119742 4.32101,-4.119742"
         id="path13" /></g></g></svg>
