<?xml version="1.0" encoding="UTF-8" standalone="no"?>
<!-- Created with Inkscape (http://www.inkscape.org/) -->

<svg
   width="3in"
   height="2in"
   viewBox="0 0 76.2 50.8"
   version="1.1"
   id="svg8"
   inkscape:version="1.3 (0e150ed6c4, 2023-07-21)"
   sodipodi:docname="figher.svg"
   xml:space="preserve"
   xmlns:inkscape="http://www.inkscape.org/namespaces/inkscape"
   xmlns:sodipodi="http://sodipodi.sourceforge.net/DTD/sodipodi-0.dtd"
   xmlns="http://www.w3.org/2000/svg"
   xmlns:svg="http://www.w3.org/2000/svg"
   xmlns:rdf="http://www.w3.org/1999/02/22-rdf-syntax-ns#"
   xmlns:cc="http://creativecommons.org/ns#"
   xmlns:dc="http://purl.org/dc/elements/1.1/"><defs
     id="defs2"><marker
       style="overflow:visible"
       id="ArrowWide"
       refX="0"
       refY="0"
       orient="auto-start-reverse"
       inkscape:stockid="Wide arrow"
       markerWidth="1"
       markerHeight="1"
       viewBox="0 0 1 1"
       inkscape:isstock="true"
       inkscape:collect="always"
       preserveAspectRatio="xMidYMid"><path
         style="fill:none;stroke:context-stroke;stroke-width:1;stroke-linecap:butt"
         d="M 3,-3 0,0 3,3"
         transform="rotate(180,0.125,0)"
         sodipodi:nodetypes="ccc"
         id="path13" /></marker><style
       type="text/css"
       id="style1">@import url(&quot;http://cdnjs.cloudflare.com/ajax/libs/KaTeX/0.2.0/katex.min.css&quot;)</style></defs><sodipodi:namedview
     id="base"
     pagecolor="#ffffff"
     bordercolor="#666666"
     borderopacity="1.0"
     inkscape:pageopacity="0.0"
     inkscape:pageshadow="2"
     inkscape:zoom="12.192127"
     inkscape:cx="127.8284"
     inkscape:cy="61.802179"
     inkscape:document-units="mm"
     inkscape:current-layer="layer1"
     showgrid="false"
     showborder="true"
     width="200mm"
     showguides="true"
     inkscape:guide-bbox="true"
     inkscape:window-width="1890"
     inkscape:window-height="1022"
     inkscape:window-x="12"
     inkscape:window-y="40"
     inkscape:window-maximized="1"
     inkscape:showpageshadow="2"
     inkscape:pagecheckerboard="0"
     inkscape:deskcolor="#d1d1d1"><inkscape:grid
       type="xygrid"
       id="grid815"
       units="mm"
       spacingx="10"
       spacingy="10"
       empspacing="4"
       dotted="false"
       originx="0"
       originy="0"
       visible="false" /></sodipodi:namedview><metadata
     id="metadata5"><rdf:RDF><cc:Work
         rdf:about=""><dc:format>image/svg+xml</dc:format><dc:type
           rdf:resource="http://purl.org/dc/dcmitype/StillImage" /></cc:Work></rdf:RDF></metadata><g
     inkscape:label="Layer 1"
     inkscape:groupmode="layer"
     id="layer1"
     transform="translate(0,-177)"><g
       id="g1"
       transform="matrix(0.13479106,0,0,0.08528614,-1.6974519,176.36422)"><path
         d="M 524.4,317.8 546,325 524.4,332.2 528,325 Z"
         stroke-width="1"
         stroke="#000000"
         fill="#000000"
         id="path1" /><path
         d="M 267.8,75.6 275,54 282.2,75.6 275,72 Z"
         stroke-width="1"
         stroke="#000000"
         fill="#000000"
         id="path2" /><path
         d="M 22,325 H 528 M 275,72 v 506 m 0,-245.75 v -14.5 m 47,14.5 v -14.5 m 47,14.5 v -14.5 m 47,14.5 v -14.5 m 47,14.5 v -14.5 m 47,14.5 v -14.5 m -282,14.5 v -14.5 m -47,14.5 v -14.5 m -47,14.5 v -14.5 m -47,14.5 v -14.5 m -47,14.5 v -14.5 M 282.25,325 h -14.5 m 14.5,47 h -14.5 m 14.5,47 h -14.5 m 14.5,47 h -14.5 m 14.5,47 h -14.5 m 14.5,47 h -14.5 m 14.5,-282 h -14.5 m 14.5,-47 h -14.5 m 14.5,-47 h -14.5 m 14.5,-47 h -14.5 m 14.5,-47 h -14.5"
         stroke-width="2"
         stroke="#000000"
         fill="none"
         id="path3" /><text
         id="null"
         x="275"
         y="42.333"
         font-style="italic"
         font-family="KaTeX_Main, serif"
         font-size="29px"
         font-weight="normal"
         text-anchor="middle"
         fill="#000000"
         stroke-width="0px">y</text><text
         id="text3"
         x="557.66602"
         y="334.66599"
         font-style="italic"
         font-family="KaTeX_Main, serif"
         font-size="29px"
         font-weight="normal"
         text-anchor="start"
         fill="#000000"
         stroke-width="0px">x</text><path
         id="path4"
         d="m 209.96,574.1 0.806,-9.151 0.783,-8.672 0.784,-8.461 0.783,-8.251 0.783,-8.046 0.784,-7.841 0.783,-7.641 0.783,-7.442 0.784,-7.246 0.783,-7.053 0.783,-6.863 0.784,-6.674 0.783,-6.49 0.783,-6.306 0.784,-6.126 0.783,-5.949 0.783,-5.773 0.784,-5.601 0.783,-5.432 0.783,-5.265 0.784,-5.099 0.783,-4.939 0.783,-4.778 0.784,-4.623 0.783,-4.468 0.783,-4.316 0.784,-4.168 0.783,-4.022 0.783,-3.878 0.784,-3.737 0.783,-3.598 0.783,-3.463 0.784,-3.33 0.783,-3.199 0.783,-3.071 0.784,-2.946 0.783,-2.823 0.783,-2.703 0.784,-2.585 0.783,-2.471 0.783,-2.358 0.784,-2.249 0.783,-2.141 0.783,-2.037 0.784,-1.936 0.783,-1.836 0.783,-1.739 0.784,-1.646 0.783,-1.554 0.783,-1.465 0.784,-1.379 0.783,-1.296 0.783,-1.214 0.784,-1.136 0.783,-1.061 0.783,-0.987 0.784,-0.917 0.783,-0.85 0.783,-0.783 0.784,-0.721 0.783,-0.661 0.783,-0.604 0.784,-0.549 0.783,-0.496 0.783,-0.447 0.784,-0.4 0.783,-0.356 0.783,-0.314 0.784,-0.274 0.783,-0.238 0.783,-0.204 0.784,-0.173 0.783,-0.144 0.783,-0.118 0.784,-0.095 0.783,-0.073 0.783,-0.055 0.784,-0.04 0.783,-0.027 0.783,-0.016 0.784,-0.008 0.783,-0.003 h 0.783 l 0.784,-10e-4 0.783,-0.003 0.783,-0.008 0.784,-0.016 0.783,-0.027 0.783,-0.039 0.784,-0.056 0.783,-0.073 0.783,-0.095 0.784,-0.118 0.783,-0.144 0.783,-0.172 0.784,-0.205 0.783,-0.238 0.783,-0.274 0.784,-0.314 0.783,-0.355 0.783,-0.4 0.784,-0.447 0.783,-0.497 0.783,-0.549 0.784,-0.603 0.783,-0.661 0.783,-0.721 0.784,-0.784 0.783,-0.849 0.783,-0.917 0.784,-0.987 0.783,-1.061 0.783,-1.136 0.784,-1.215 0.783,-1.295 0.783,-1.379 0.784,-1.466 0.783,-1.554 0.783,-1.645 0.784,-1.739 0.783,-1.836 0.783,-1.936 0.784,-2.037 0.783,-2.141 0.783,-2.249 0.784,-2.358 0.783,-2.47 0.783,-2.586 0.784,-2.703 0.783,-2.823 0.783,-2.945 0.784,-3.072 0.783,-3.199 0.783,-3.329 0.784,-3.463 0.783,-3.598 0.783,-3.737 0.784,-3.878 0.783,-4.022 0.783,-4.167 0.784,-4.317 0.783,-4.468 0.783,-4.622 0.784,-4.779 0.783,-4.937 0.783,-5.1 0.784,-5.265 0.783,-5.431 0.783,-5.601 0.784,-5.774 0.783,-5.948 0.783,-6.126 0.784,-6.307 0.783,-6.489 0.783,-6.674 0.784,-6.862 0.783,-7.053 0.783,-7.246 0.784,-7.443 0.783,-7.64 0.783,-7.841 0.784,-8.046 0.783,-8.251 0.783,-8.46 0.784,-8.672 0.783,-8.886 0.023,-0.271"
         stroke-width="5"
         stroke="#0000ff"
         fill="none" /><path
         d="m 217.448,571.145 -9.068,20.885 -5.276,-22.148 6.856,4.218 z"
         stroke-width="1"
         stroke="#0000ff"
         fill="#0000ff"
         id="path5" /><path
         d="m 332.557,78.869 9.025,-20.903 5.322,22.138 -6.865,-4.205 z"
         stroke-width="1"
         stroke="#0000ff"
         fill="#0000ff"
         id="path6" /></g><path
       style="fill:none;stroke:#0009ff;stroke-width:0.18947px;stroke-linecap:butt;stroke-linejoin:miter;stroke-opacity:1"
       d="m 34.893754,204.01452 34.659568,-0.0312"
       id="path7" /><path
       style="fill:none;stroke:#0006ff;stroke-width:0.189721px;stroke-linecap:butt;stroke-linejoin:miter;stroke-opacity:1"
       d="m 35.49159,182.68783 -0.01577,22.02581"
       id="path8" /><path
       style="fill:#ff0000;stroke:#0025ff;stroke-width:0.277807px;stroke-linecap:butt;stroke-linejoin:miter;stroke-opacity:1"
       d="m 41.762269,204.04498 v -7.29923"
       id="path9" /><path
       style="fill:#ff0000;stroke:#0025ff;stroke-width:0.120809;stroke-opacity:1;paint-order:markers fill stroke"
       d="m 143.60494,101.3492 c 5.0623,-2.718216 9.13573,-9.311803 12.89317,-20.869943 0.31267,-0.961766 0.61777,-1.895065 0.67802,-2.073998 0.093,-0.276094 0.11052,1.333406 0.11597,10.634323 0.006,9.690549 -0.008,10.959657 -0.11558,10.959657 -0.1007,0 -0.122,0.149111 -0.122,0.854001 v 0.854 l -7.05566,-0.001 -7.05566,-10e-4 z"
       id="path10"
       transform="matrix(0.26458333,0,0,0.26458333,0,177)" /><ellipse
       style="fill:none;stroke:#000000;stroke-width:0.413571;stroke-opacity:1;paint-order:markers fill stroke"
       id="path11"
       cx="138.67305"
       cy="203.59534"
       rx="1.5526426"
       ry="1.7194499"
       transform="matrix(0.99638708,0.08492809,-0.50480253,0.86323485,0,0)" /><rect
       style="fill:#ffffff;fill-opacity:1;stroke:none;stroke-width:0.527142;stroke-opacity:1;paint-order:markers fill stroke"
       id="rect11"
       width="0.42092344"
       height="1.7085143"
       x="34.767578"
       y="185.35451"
       rx="0.12018159"
       ry="0.12018158" /><path
       style="fill:none;stroke:#000000;stroke-width:0.265;stroke-linecap:butt;stroke-linejoin:miter;stroke-dasharray:none;stroke-opacity:1;marker-end:url(#ArrowWide)"
       d="m 34.485611,186.64715 0.483838,-0.29383"
       id="path12" /></g></svg>
