<?xml version="1.0" encoding="UTF-8" standalone="no"?>
<!-- Created with Inkscape (http://www.inkscape.org/) -->

<svg
   width="3in"
   height="2in"
   viewBox="0 0 76.2 50.8"
   version="1.1"
   id="svg8"
   inkscape:version="1.3 (0e150ed6c4, 2023-07-21)"
   sodipodi:docname="sinewave.svg"
   xml:space="preserve"
   xmlns:inkscape="http://www.inkscape.org/namespaces/inkscape"
   xmlns:sodipodi="http://sodipodi.sourceforge.net/DTD/sodipodi-0.dtd"
   xmlns="http://www.w3.org/2000/svg"
   xmlns:svg="http://www.w3.org/2000/svg"
   xmlns:rdf="http://www.w3.org/1999/02/22-rdf-syntax-ns#"
   xmlns:cc="http://creativecommons.org/ns#"
   xmlns:dc="http://purl.org/dc/elements/1.1/"><defs
     id="defs2"><marker
       style="overflow:visible"
       id="ArrowWide"
       refX="0"
       refY="0"
       orient="auto-start-reverse"
       inkscape:stockid="Wide arrow"
       markerWidth="1"
       markerHeight="1"
       viewBox="0 0 1 1"
       inkscape:isstock="true"
       inkscape:collect="always"
       preserveAspectRatio="xMidYMid"><path
         style="fill:none;stroke:context-stroke;stroke-width:1;stroke-linecap:butt"
         d="M 3,-3 0,0 3,3"
         transform="rotate(180,0.125,0)"
         sodipodi:nodetypes="ccc"
         id="path14" /></marker><style
       type="text/css"
       id="style1">@import url(&quot;http://cdnjs.cloudflare.com/ajax/libs/KaTeX/0.2.0/katex.min.css&quot;)</style></defs><sodipodi:namedview
     id="base"
     pagecolor="#ffffff"
     bordercolor="#666666"
     borderopacity="1.0"
     inkscape:pageopacity="0.0"
     inkscape:pageshadow="2"
     inkscape:zoom="5.818756"
     inkscape:cx="186.5519"
     inkscape:cy="100.27917"
     inkscape:document-units="mm"
     inkscape:current-layer="layer1"
     showgrid="false"
     showborder="true"
     width="200mm"
     showguides="true"
     inkscape:guide-bbox="true"
     inkscape:window-width="1890"
     inkscape:window-height="1022"
     inkscape:window-x="12"
     inkscape:window-y="40"
     inkscape:window-maximized="1"
     inkscape:showpageshadow="2"
     inkscape:pagecheckerboard="0"
     inkscape:deskcolor="#d1d1d1"><inkscape:grid
       type="xygrid"
       id="grid815"
       units="mm"
       spacingx="10"
       spacingy="10"
       empspacing="4"
       dotted="false"
       originx="0"
       originy="0"
       visible="false" /></sodipodi:namedview><metadata
     id="metadata5"><rdf:RDF><cc:Work
         rdf:about=""><dc:format>image/svg+xml</dc:format><dc:type
           rdf:resource="http://purl.org/dc/dcmitype/StillImage" /></cc:Work></rdf:RDF></metadata><g
     inkscape:label="Layer 1"
     inkscape:groupmode="layer"
     id="layer1"
     transform="translate(0,-177)"><g
       id="g1"
       transform="matrix(0.13597093,0,0,0.08836166,-1.4069997,175.02926)"><path
         d="M 530.544,320.728 552.359,328 530.544,335.272 534.18,328 Z"
         stroke-width="1"
         stroke="#000000"
         fill="#000000"
         id="path1" /><path
         d="M 270.728,75.455 278,53.639 285.272,75.455 278,71.82 Z"
         stroke-width="1"
         stroke="#000000"
         fill="#000000"
         id="path2" /><path
         d="M 21.82,328 H 534.18 M 278,71.82 v 512.36 m 0,-250.93 v -10.5 m 34,10.5 v -10.5 m 34,10.5 v -10.5 m 34,10.5 v -10.5 m 34,10.5 v -10.5 m 34,10.5 v -10.5 m 34,10.5 v -10.5 m 34,10.5 v -10.5 m -272,10.5 v -10.5 m -34,10.5 v -10.5 m -34,10.5 v -10.5 m -34,10.5 v -10.5 m -34,10.5 v -10.5 m -34,10.5 v -10.5 m -34,10.5 v -10.5 M 283.25,328 h -10.5 m 10.5,34 h -10.5 m 10.5,34 h -10.5 m 10.5,34 h -10.5 m 10.5,34 h -10.5 m 10.5,34 h -10.5 m 10.5,34 h -10.5 m 10.5,34 h -10.5 m 10.5,-272 h -10.5 m 10.5,-34 h -10.5 m 10.5,-34 h -10.5 m 10.5,-34 h -10.5 m 10.5,-34 h -10.5 m 10.5,-34 h -10.5 m 10.5,-34 h -10.5"
         stroke-width="2"
         stroke="#000000"
         fill="none"
         id="path3" /><text
         id="null"
         x="278"
         y="44.639"
         font-style="italic"
         font-family="KaTeX_Main, serif"
         font-size="21px"
         font-weight="normal"
         text-anchor="middle"
         fill="#000000"
         stroke-width="0px">y</text><text
         id="text3"
         x="561.35999"
         y="335"
         font-style="italic"
         font-family="KaTeX_Main, serif"
         font-size="21px"
         font-weight="normal"
         text-anchor="start"
         fill="#000000"
         stroke-width="0px">x</text><path
         id="path4"
         d="m 278,328 0.355,-0.356 0.356,-0.356 0.356,-0.356 0.356,-0.356 0.356,-0.355 0.356,-0.355 0.356,-0.355 0.355,-0.355 0.356,-0.355 0.356,-0.354 0.356,-0.353 0.356,-0.354 0.356,-0.353 0.356,-0.352 0.355,-0.352 0.356,-0.351 0.356,-0.35 0.356,-0.35 0.356,-0.349 0.356,-0.349 0.356,-0.348 0.356,-0.347 0.355,-0.346 0.356,-0.345 0.356,-0.344 0.356,-0.343 0.356,-0.343 0.356,-0.341 0.356,-0.34 0.355,-0.339 0.356,-0.338 0.356,-0.337 0.356,-0.335 0.356,-0.334 0.356,-0.333 0.356,-0.332 0.356,-0.33 0.355,-0.329 0.356,-0.327 0.356,-0.326 0.356,-0.324 0.356,-0.323 0.356,-0.321 0.356,-0.32 0.355,-0.318 0.356,-0.316 0.356,-0.315 0.356,-0.313 0.356,-0.311 0.356,-0.309 0.356,-0.307 0.356,-0.305 0.355,-0.304 0.356,-0.301 0.356,-0.3 0.356,-0.297 0.356,-0.296 0.356,-0.293 0.356,-0.291 0.355,-0.289 0.356,-0.287 0.356,-0.285 0.356,-0.282 0.356,-0.28 0.356,-0.278 0.356,-0.276 0.356,-0.273 0.355,-0.27 0.356,-0.269 0.356,-0.266 0.356,-0.263 0.356,-0.261 0.356,-0.258 0.356,-0.255 0.355,-0.254 0.356,-0.25 0.356,-0.248 0.356,-0.245 0.356,-0.242 0.356,-0.24 0.356,-0.237 0.356,-0.234 0.355,-0.231 0.356,-0.228 0.356,-0.226 0.356,-0.222 0.356,-0.22 0.356,-0.217 0.356,-0.214 0.355,-0.211 0.356,-0.207 0.356,-0.205 0.356,-0.202 0.356,-0.198 0.356,-0.196 0.356,-0.192 0.356,-0.19 0.355,-0.186 0.356,-0.183 0.356,-0.179 0.356,-0.177 0.356,-0.173 0.356,-0.17 0.356,-0.167 0.355,-0.163 0.356,-0.16 0.356,-0.157 0.356,-0.153 0.356,-0.15 0.356,-0.147 0.356,-0.143 0.356,-0.14 0.355,-0.136 0.356,-0.133 0.356,-0.13 0.356,-0.126 0.356,-0.122 0.356,-0.119 0.356,-0.116 0.355,-0.112 0.356,-0.108 0.356,-0.105 0.356,-0.101 0.356,-0.098 0.356,-0.094 0.356,-0.091 0.356,-0.087 0.355,-0.083 0.356,-0.08 0.356,-0.076 0.356,-0.072 0.356,-0.069 0.356,-0.065 0.356,-0.061 0.355,-0.058 0.356,-0.054 0.356,-0.051 0.356,-0.046 0.356,-0.043 0.356,-0.04 0.356,-0.035 0.356,-0.032 0.355,-0.028 0.356,-0.025 0.356,-0.021 0.356,-0.017 0.356,-0.013 0.356,-0.009 0.356,-0.006 0.355,-0.002 0.356,10e-4 0.356,0.005 0.356,0.009 0.356,0.013 0.356,0.017 0.356,0.02 0.356,0.024 0.355,0.027 0.356,0.032 0.356,0.035 0.356,0.038 0.356,0.043 0.356,0.046 0.356,0.05 0.355,0.053 0.356,0.058 0.356,0.061 0.356,0.064 0.356,0.068 0.356,0.072 0.356,0.076 0.356,0.079 0.355,0.082 0.356,0.087 0.356,0.09 0.356,0.093 0.356,0.098 0.356,0.1 0.356,0.105 0.355,0.108 0.356,0.111 0.356,0.115 0.356,0.118 0.356,0.122 0.356,0.126 0.356,0.129 0.356,0.132 0.355,0.136 0.356,0.139 0.356,0.143 0.356,0.146 0.356,0.15 0.356,0.152 0.356,0.157 0.355,0.159 0.356,0.163 0.356,0.166 0.356,0.17 0.356,0.173 0.356,0.176 0.356,0.179 0.355,0.182 0.356,0.186 0.356,0.189 0.356,0.192 0.356,0.195 0.356,0.198 0.356,0.201 0.356,0.204 0.355,0.208 0.356,0.21 0.356,0.213 0.356,0.217 0.356,0.219 0.356,0.222 0.356,0.225 0.355,0.228 0.356,0.231 0.356,0.234 0.356,0.236 0.356,0.239 0.356,0.242 0.356,0.245 0.356,0.247 0.355,0.25 0.356,0.253 0.356,0.255 0.356,0.258 0.356,0.26 0.356,0.263 0.356,0.266 0.355,0.267 0.356,0.271 0.356,0.272 0.356,0.276 0.356,0.277 0.356,0.28 0.356,0.282 0.356,0.284 0.355,0.287 0.356,0.288 0.356,0.291 0.356,0.293 0.356,0.295 0.356,0.298 0.356,0.299 0.355,0.301 0.356,0.303 0.356,0.305 0.356,0.307 0.356,0.309 0.356,0.311 0.356,0.312 0.356,0.315 0.355,0.316 0.356,0.317 0.356,0.32 0.356,0.321 0.356,0.322 0.356,0.325 0.356,0.325 0.355,0.327 0.356,0.329 0.356,0.33 0.356,0.331 0.356,0.333 0.356,0.334 0.356,0.335 0.356,0.337 0.355,0.337 0.356,0.339 0.356,0.34 0.356,0.341 0.356,0.343 0.356,0.343 0.356,0.344 0.355,0.345 0.356,0.346 0.356,0.346 0.356,0.348 0.356,0.348 0.356,0.349 0.356,0.35 0.356,0.351 0.355,0.351 0.356,0.352 0.356,0.352 0.356,0.352 0.356,0.354 0.356,0.353 0.356,0.354 0.355,0.355 0.356,0.355 0.356,0.355 0.356,0.355 0.356,0.355 0.356,0.356 0.356,0.356 0.356,0.355 0.355,0.356 0.356,0.356 0.356,0.356 0.356,0.356 0.356,0.355 0.356,0.356 0.356,0.355 0.355,0.355 0.356,0.355 0.356,0.355 0.356,0.354 0.356,0.353 0.356,0.354 0.356,0.353 0.356,0.352 0.355,0.352 0.356,0.351 0.356,0.351 0.356,0.35 0.356,0.349 0.356,0.349 0.356,0.348 0.355,0.347 0.356,0.346 0.356,0.345 0.356,0.345 0.356,0.343 0.356,0.342 0.356,0.342 0.356,0.34 0.355,0.339 0.356,0.338 0.356,0.337 0.356,0.336 0.356,0.334 0.356,0.333 0.356,0.332 0.355,0.331 0.356,0.329 0.356,0.327 0.356,0.326 0.356,0.325 0.356,0.323 0.356,0.321 0.356,0.32 0.355,0.319 0.356,0.316 0.356,0.315 0.356,0.313 0.356,0.311 0.356,0.31 0.356,0.307 0.355,0.306 0.356,0.304 0.356,0.302 0.356,0.299 0.356,0.298 0.356,0.296 0.356,0.294 0.356,0.291 0.355,0.289 0.356,0.288 0.356,0.285 0.356,0.282 0.356,0.281 0.356,0.278 0.356,0.276 0.355,0.273 0.356,0.271 0.356,0.269 0.356,0.266 0.356,0.264 0.356,0.261 0.356,0.259 0.356,0.256 0.355,0.253 0.356,0.251 0.356,0.248 0.356,0.246 0.356,0.242 0.356,0.24 0.356,0.238 0.355,0.234 0.356,0.232 0.356,0.229 0.356,0.226 0.356,0.223 0.356,0.22 0.356,0.217 0.355,0.214 0.356,0.212 0.356,0.208 0.356,0.205 0.356,0.202 0.356,0.199 0.356,0.196 0.356,0.193 0.355,0.19 0.356,0.187 0.356,0.183 0.356,0.18 0.356,0.177 0.356,0.174 0.356,0.17 0.355,0.168 0.356,0.163 0.356,0.161 0.356,0.157 0.356,0.154 0.356,0.151 0.356,0.147 0.356,0.144 0.355,0.14 0.356,0.137 0.356,0.133 0.356,0.13 0.356,0.127 0.356,0.123 0.356,0.119 0.355,0.116 0.356,0.113 0.356,0.109 0.356,0.105 0.356,0.102 0.356,0.098 0.356,0.095 0.356,0.091 0.355,0.088 0.356,0.083 0.356,0.081 0.356,0.076 0.356,0.073 0.356,0.07 0.356,0.065 0.355,0.062 0.356,0.059 0.356,0.054 0.356,0.051 0.356,0.047 0.356,0.044 0.356,0.04 0.356,0.036 0.355,0.032 0.356,0.029 0.356,0.025 0.356,0.022 0.356,0.017 0.356,0.014 0.356,0.01 0.355,0.007 0.356,0.002 0.356,-0.001 0.356,-0.004 0.356,-0.009 0.356,-0.012 0.356,-0.016 0.356,-0.02 0.355,-0.023 0.356,-0.027 0.356,-0.031 0.356,-0.034 0.356,-0.038 0.356,-0.042 0.356,-0.046 0.355,-0.049 0.356,-0.053 0.356,-0.057 0.356,-0.06 0.356,-0.064 0.356,-0.068 0.356,-0.071 0.356,-0.075 0.355,-0.078 0.356,-0.083 0.356,-0.085 0.356,-0.09 0.356,-0.093 0.356,-0.097 0.356,-0.1 0.355,-0.104 0.356,-0.107 0.356,-0.111 0.356,-0.114 0.356,-0.118 0.356,-0.122 0.356,-0.124 0.356,-0.129 0.355,-0.132 0.356,-0.135 0.356,-0.139 0.356,-0.142 0.356,-0.146 0.356,-0.149 0.356,-0.152 0.355,-0.156 0.356,-0.159 0.356,-0.162 0.356,-0.166 0.356,-0.169 0.356,-0.172 0.356,-0.176 0.356,-0.178 0.355,-0.182 0.356,-0.185 0.356,-0.189 0.356,-0.191 0.356,-0.195 0.356,-0.197 0.356,-0.201 0.355,-0.204 0.356,-0.207 0.356,-0.21 0.356,-0.213 0.356,-0.215 0.356,-0.219 0.356,-0.222 0.356,-0.225 0.355,-0.227 0.356,-0.231 0.356,-0.233 0.356,-0.236 0.356,-0.239 0.356,-0.241 0.356,-0.244 0.355,-0.247 0.356,-0.25 0.356,-0.252 0.356,-0.255 0.356,-0.257 0.356,-0.26 0.356,-0.263 0.356,-0.265 0.355,-0.267 0.356,-0.27 0.356,-0.273 0.356,-0.274 0.356,-0.278 0.356,-0.279 0.356,-0.282 0.355,-0.284 0.356,-0.286 0.356,-0.288 0.356,-0.291 0.356,-0.293 0.356,-0.294 0.356,-0.297 0.356,-0.299 0.355,-0.301 0.356,-0.303 0.356,-0.305 0.356,-0.306 0.356,-0.309 0.356,-0.31 0.356,-0.313 0.355,-0.314 0.356,-0.315 0.356,-0.318 0.356,-0.319 0.356,-0.321 0.356,-0.322 0.356,-0.324 0.356,-0.325 0.355,-0.327 0.356,-0.329 0.356,-0.329 0.356,-0.332 0.356,-0.332 0.356,-0.334 0.356,-0.335 0.355,-0.336 0.356,-0.338 0.356,-0.339 0.356,-0.339 0.356,-0.341 0.356,-0.342 0.356,-0.343 0.355,-0.344 0.356,-0.345 0.356,-0.346 0.356,-0.346 0.356,-0.348 0.356,-0.348 0.356,-0.349 0.356,-0.35 0.355,-0.35 0.356,-0.351 0.356,-0.352 0.356,-0.352 0.356,-0.353 0.356,-0.353 0.356,-0.353 0.355,-0.354 0.356,-0.355 0.356,-0.354 0.356,-0.355 0.356,-0.356 0.356,-0.355 0.356,-0.356 0.356,-0.355 0.355,-0.356 0.356,-0.356"
         stroke-width="5"
         stroke="#0000ff"
         fill="none" /><path
         d="M 285.713,330.571 265.144,340.855 275.429,320.286 278,328 Z"
         stroke-width="1"
         stroke="#0000ff"
         fill="#0000ff"
         id="path5" /><path
         d="m 483.806,325.537 20.569,-10.284 -10.285,20.568 -2.571,-7.713 z"
         stroke-width="1"
         stroke="#0000ff"
         fill="#0000ff"
         id="path6" /><path
         id="path7"
         d="m 278,294 0.355,10e-4 0.356,0.006 0.356,0.009 0.356,0.013 0.356,0.017 0.356,0.021 0.356,0.024 0.355,0.028 0.356,0.031 0.356,0.036 0.356,0.039 0.356,0.042 0.356,0.047 0.356,0.05 0.355,0.054 0.356,0.057 0.356,0.061 0.356,0.065 0.356,0.069 0.356,0.072 0.356,0.076 0.356,0.079 0.355,0.083 0.356,0.087 0.356,0.09 0.356,0.094 0.356,0.097 0.356,0.101 0.356,0.105 0.355,0.108 0.356,0.112 0.356,0.115 0.356,0.119 0.356,0.122 0.356,0.125 0.356,0.13 0.356,0.132 0.355,0.136 0.356,0.14 0.356,0.143 0.356,0.146 0.356,0.15 0.356,0.153 0.356,0.157 0.355,0.16 0.356,0.163 0.356,0.166 0.356,0.17 0.356,0.173 0.356,0.176 0.356,0.18 0.356,0.182 0.355,0.186 0.356,0.189 0.356,0.192 0.356,0.196 0.356,0.198 0.356,0.201 0.356,0.205 0.355,0.208 0.356,0.21 0.356,0.214 0.356,0.216 0.356,0.22 0.356,0.222 0.356,0.225 0.356,0.229 0.355,0.231 0.356,0.233 0.356,0.237 0.356,0.24 0.356,0.242 0.356,0.245 0.356,0.247 0.355,0.25 0.356,0.253 0.356,0.256 0.356,0.258 0.356,0.26 0.356,0.263 0.356,0.266 0.356,0.268 0.355,0.27 0.356,0.273 0.356,0.276 0.356,0.277 0.356,0.28 0.356,0.282 0.356,0.285 0.355,0.287 0.356,0.289 0.356,0.291 0.356,0.293 0.356,0.295 0.356,0.297 0.356,0.3 0.356,0.301 0.355,0.303 0.356,0.306 0.356,0.307 0.356,0.309 0.356,0.311 0.356,0.312 0.356,0.315 0.355,0.316 0.356,0.318 0.356,0.319 0.356,0.321 0.356,0.323 0.356,0.324 0.356,0.326 0.356,0.327 0.355,0.329 0.356,0.33 0.356,0.332 0.356,0.332 0.356,0.335 0.356,0.335 0.356,0.336 0.355,0.338 0.356,0.339 0.356,0.34 0.356,0.341 0.356,0.343 0.356,0.343 0.356,0.344 0.356,0.345 0.355,0.346 0.356,0.347 0.356,0.348 0.356,0.348 0.356,0.349 0.356,0.35 0.356,0.35 0.355,0.352 0.356,0.351 0.356,0.353 0.356,0.352 0.356,0.354 0.356,0.353 0.356,0.354 0.356,0.355 0.355,0.355 0.356,0.355 0.356,0.355 0.356,0.355 0.356,0.356 0.356,0.356 0.356,0.356 0.355,0.355 0.356,0.356 0.356,0.356 0.356,0.356 0.356,0.355 0.356,0.356 0.356,0.355 0.356,0.355 0.355,0.355 0.356,0.355 0.356,0.354 0.356,0.353 0.356,0.354 0.356,0.353 0.356,0.352 0.355,0.352 0.356,0.351 0.356,0.351 0.356,0.35 0.356,0.349 0.356,0.348 0.356,0.348 0.356,0.347 0.355,0.346 0.356,0.345 0.356,0.345 0.356,0.343 0.356,0.342 0.356,0.342 0.356,0.34 0.355,0.339 0.356,0.338 0.356,0.337 0.356,0.335 0.356,0.335 0.356,0.333 0.356,0.331 0.356,0.331 0.355,0.329 0.356,0.327 0.356,0.326 0.356,0.325 0.356,0.323 0.356,0.321 0.356,0.32 0.355,0.318 0.356,0.316 0.356,0.315 0.356,0.313 0.356,0.311 0.356,0.309 0.356,0.308 0.355,0.305 0.356,0.304 0.356,0.301 0.356,0.3 0.356,0.298 0.356,0.295 0.356,0.294 0.356,0.291 0.355,0.289 0.356,0.287 0.356,0.285 0.356,0.283 0.356,0.28 0.356,0.278 0.356,0.276 0.355,0.273 0.356,0.271 0.356,0.268 0.356,0.266 0.356,0.264 0.356,0.261 0.356,0.258 0.356,0.256 0.355,0.253 0.356,0.251 0.356,0.248 0.356,0.245 0.356,0.243 0.356,0.24 0.356,0.237 0.355,0.234 0.356,0.231 0.356,0.229 0.356,0.226 0.356,0.223 0.356,0.219 0.356,0.217 0.356,0.215 0.355,0.211 0.356,0.208 0.356,0.205 0.356,0.202 0.356,0.198 0.356,0.196 0.356,0.193 0.355,0.189 0.356,0.187 0.356,0.183 0.356,0.18 0.356,0.176 0.356,0.174 0.356,0.17 0.356,0.167 0.355,0.164 0.356,0.16 0.356,0.157 0.356,0.154 0.356,0.15 0.356,0.147 0.356,0.143 0.355,0.14 0.356,0.137 0.356,0.133 0.356,0.13 0.356,0.126 0.356,0.123 0.356,0.119 0.356,0.116 0.355,0.112 0.356,0.109 0.356,0.105 0.356,0.102 0.356,0.098 0.356,0.094 0.356,0.091 0.355,0.087 0.356,0.084 0.356,0.08 0.356,0.076 0.356,0.073 0.356,0.069 0.356,0.065 0.356,0.062 0.355,0.058 0.356,0.054 0.356,0.051 0.356,0.047 0.356,0.043 0.356,0.04 0.356,0.036 0.355,0.032 0.356,0.028 0.356,0.025 0.356,0.021 0.356,0.017 0.356,0.014 0.356,0.01 0.356,0.006 0.355,0.002 0.356,-0.001 0.356,-0.005 0.356,-0.009 0.356,-0.012 0.356,-0.016 0.356,-0.02 0.355,-0.024 0.356,-0.027 0.356,-0.031 0.356,-0.035 0.356,-0.038 0.356,-0.043 0.356,-0.045 0.356,-0.05 0.355,-0.053 0.356,-0.057 0.356,-0.061 0.356,-0.064 0.356,-0.068 0.356,-0.071 0.356,-0.076 0.355,-0.079 0.356,-0.082 0.356,-0.086 0.356,-0.09 0.356,-0.093 0.356,-0.097 0.356,-0.101 0.356,-0.104 0.355,-0.107 0.356,-0.111 0.356,-0.115 0.356,-0.118 0.356,-0.122 0.356,-0.125 0.356,-0.129 0.355,-0.132 0.356,-0.136 0.356,-0.139 0.356,-0.142 0.356,-0.146 0.356,-0.149 0.356,-0.153 0.356,-0.156 0.355,-0.159 0.356,-0.163 0.356,-0.166 0.356,-0.169 0.356,-0.172 0.356,-0.176 0.356,-0.179 0.355,-0.182 0.356,-0.186 0.356,-0.188 0.356,-0.192 0.356,-0.195 0.356,-0.198 0.356,-0.201 0.356,-0.204 0.355,-0.207 0.356,-0.21 0.356,-0.213 0.356,-0.216 0.356,-0.219 0.356,-0.222 0.356,-0.225 0.355,-0.228 0.356,-0.23 0.356,-0.234 0.356,-0.236 0.356,-0.239 0.356,-0.242 0.356,-0.244 0.356,-0.247 0.355,-0.25 0.356,-0.252 0.356,-0.255 0.356,-0.258 0.356,-0.26 0.356,-0.263 0.356,-0.265 0.355,-0.268 0.356,-0.27 0.356,-0.273 0.356,-0.275 0.356,-0.277 0.356,-0.279 0.356,-0.282 0.355,-0.284 0.356,-0.287 0.356,-0.288 0.356,-0.291 0.356,-0.293 0.356,-0.295 0.356,-0.297 0.356,-0.299 0.355,-0.301 0.356,-0.303 0.356,-0.305 0.356,-0.307 0.356,-0.309 0.356,-0.31 0.356,-0.313 0.355,-0.314 0.356,-0.316 0.356,-0.317 0.356,-0.319 0.356,-0.321 0.356,-0.323 0.356,-0.324 0.356,-0.325 0.355,-0.327 0.356,-0.329 0.356,-0.33 0.356,-0.331 0.356,-0.333 0.356,-0.333 0.356,-0.336 0.355,-0.336 0.356,-0.338 0.356,-0.338 0.356,-0.34 0.356,-0.341 0.356,-0.342 0.356,-0.343 0.356,-0.344 0.355,-0.345 0.356,-0.346 0.356,-0.347 0.356,-0.347 0.356,-0.349 0.356,-0.349 0.356,-0.35 0.355,-0.35 0.356,-0.351 0.356,-0.352 0.356,-0.352 0.356,-0.353 0.356,-0.353 0.356,-0.353 0.356,-0.354 0.355,-0.355 0.356,-0.355 0.356,-0.354 0.356,-0.356 0.356,-0.355 0.356,-0.356 0.356,-0.355 0.355,-0.356 0.356,-0.356 0.356,-0.356 0.356,-0.356 0.356,-0.356 0.356,-0.355 0.356,-0.356 0.356,-0.355 0.355,-0.355 0.356,-0.355 0.356,-0.355 0.356,-0.354 0.356,-0.354 0.356,-0.353 0.356,-0.353 0.355,-0.352 0.356,-0.352 0.356,-0.352 0.356,-0.35 0.356,-0.35 0.356,-0.35 0.356,-0.348 0.356,-0.348 0.355,-0.347 0.356,-0.347 0.356,-0.345 0.356,-0.344 0.356,-0.344 0.356,-0.342 0.356,-0.342 0.355,-0.34 0.356,-0.339 0.356,-0.339 0.356,-0.337 0.356,-0.335 0.356,-0.335 0.356,-0.333 0.356,-0.332 0.355,-0.33 0.356,-0.33 0.356,-0.327 0.356,-0.327 0.356,-0.324 0.356,-0.323 0.356,-0.322 0.355,-0.32 0.356,-0.318 0.356,-0.317 0.356,-0.315 0.356,-0.313 0.356,-0.312 0.356,-0.309 0.356,-0.308 0.355,-0.306 0.356,-0.304 0.356,-0.302 0.356,-0.3 0.356,-0.298 0.356,-0.295 0.356,-0.294 0.355,-0.292 0.356,-0.29 0.356,-0.287 0.356,-0.285 0.356,-0.283 0.356,-0.281 0.356,-0.278 0.356,-0.276 0.355,-0.274 0.356,-0.271 0.356,-0.269 0.356,-0.266 0.356,-0.264 0.356,-0.261 0.356,-0.259 0.355,-0.256 0.356,-0.254 0.356,-0.251 0.356,-0.248 0.356,-0.246 0.356,-0.243 0.356,-0.24 0.356,-0.238 0.355,-0.234 0.356,-0.232 0.356,-0.229 0.356,-0.226 0.356,-0.224 0.356,-0.22 0.356,-0.218 0.355,-0.214 0.356,-0.212 0.356,-0.208 0.356,-0.206 0.356,-0.202 0.356,-0.199 0.356,-0.196 0.356,-0.194 0.355,-0.19 0.356,-0.186 0.356,-0.184 0.356,-0.181 0.356,-0.177 0.356,-0.174 0.356,-0.17 0.355,-0.168 0.356,-0.164 0.356,-0.161 0.356,-0.157 0.356,-0.155 0.356,-0.15 0.356,-0.148 0.356,-0.144 0.355,-0.14 0.356,-0.137 0.356,-0.134 0.356,-0.13 0.356,-0.127 0.356,-0.124 0.356,-0.119 0.355,-0.117 0.356,-0.112 0.356,-0.11 0.356,-0.105 0.356,-0.102 0.356,-0.099 0.356,-0.095 0.355,-0.091 0.356,-0.088 0.356,-0.084 0.356,-0.081 0.356,-0.077 0.356,-0.073 0.356,-0.069 0.356,-0.066 0.355,-0.063 0.356,-0.058 0.356,-0.055 0.356,-0.051 0.356,-0.048 0.356,-0.044 0.356,-0.04 0.355,-0.036 0.356,-0.033 0.356,-0.029 0.356,-0.025 0.356,-0.022 0.356,-0.018 0.356,-0.014 0.356,-0.011 0.355,-0.006 0.356,-0.003"
         stroke-width="5"
         stroke="#0000ff"
         fill="none" /><path
         d="M 281.597,301.29 259.82,293.904 281.674,286.747 278,294 Z"
         stroke-width="1"
         stroke="#0000ff"
         fill="#0000ff"
         id="path8" /><path
         d="m 487.822,286.759 21.877,7.088 -21.754,7.455 3.574,-7.302 z"
         stroke-width="1"
         stroke="#0000ff"
         fill="#0000ff"
         id="path9" /></g><path
       style="fill:#aa0000;stroke-width:0.178057;paint-order:markers fill stroke"
       d="m 138.13264,96.810008 c 0,-2.736567 0.0517,-3.565043 0.22222,-3.561788 0.12223,0.0023 0.52222,0.07391 0.88889,0.159055 0.36666,0.08515 0.66666,0.09474 0.66666,0.02132 0,-0.07342 -0.28366,-0.504992 -0.63036,-0.959051 -0.3467,-0.454058 -0.5908,-0.82556 -0.54244,-0.82556 0.6638,0 4.42796,0.616248 5.43945,0.890517 1.76179,0.477717 4.44442,1.433285 4.44442,1.583125 0,0.06542 -0.46,0.343217 -1.02222,0.61733 -1.23569,0.602467 -4.60688,2.576907 -7.15552,4.190846 -1.02666,0.650139 -1.96665,1.242408 -2.08888,1.316158 -0.17484,0.10549 -0.22222,-0.626139 -0.22222,-3.431955 z"
       id="path10"
       transform="matrix(0.26458333,0,0,0.26458333,0,177)" /><path
       style="fill:none;stroke:#000000;stroke-width:0.377984px;stroke-linecap:butt;stroke-linejoin:miter;stroke-opacity:1"
       d="M 72.289082,206.93427 H 1.6341106"
       id="path11" /><text
       style="font-size:2.64583px;font-family:monospace;-inkscape-font-specification:'monospace, Normal';fill:#000000;fill-opacity:1;stroke:none;stroke-width:0.264583"
       xml:space="preserve"
       id="text1"
       y="209.79848"
       x="1.3229166"><tspan
         sodipodi:role="line"
         id="tspan1"
         x="1.3229166"
         y="209.79848"
         style="stroke-width:0.264583">$y=-1$</tspan></text><ellipse
       style="fill:none;stroke:#000000;stroke-width:0.372349;stroke-dasharray:none;stroke-opacity:1;paint-order:markers fill stroke"
       id="path12"
       cx="76.76429"
       cy="226.95766"
       transform="matrix(0.96722431,-0.25392349,-0.02377409,0.99971736,0,0)"
       rx="1.9014666"
       ry="1.6901736" /><rect
       style="fill:#ffffff;fill-opacity:1;stroke:none;stroke-width:0.741626;stroke-dasharray:none;stroke-opacity:1;paint-order:markers fill stroke"
       id="rect12"
       width="0.62148702"
       height="0.81910664"
       x="-207.35768"
       y="67.136536"
       rx="0.12018138"
       ry="0.12018044"
       transform="matrix(0.00170063,-0.99999855,0.9999832,0.00579654,0,0)" /><path
       style="fill:none;stroke:#000000;stroke-width:0.315;stroke-linecap:butt;stroke-linejoin:miter;stroke-dasharray:none;stroke-opacity:1;marker-end:url(#ArrowWide)"
       d="m 66.982927,207.948 0.155106,-0.55024"
       id="path13"
       inkscape:transform-center-x="-0.51414719"
       inkscape:transform-center-y="0.18160229" /></g></svg>
