<?xml version="1.0" encoding="UTF-8" standalone="no"?>
<!-- Created with Inkscape (http://www.inkscape.org/) -->

<svg
   width="2.5in"
   height="2.5in"
   viewBox="0 0 63.5 63.5"
   version="1.1"
   id="svg8"
   inkscape:version="1.2.2 (b0a8486541, 2022-12-01)"
   sodipodi:docname="ellipse.svg"
   xmlns:inkscape="http://www.inkscape.org/namespaces/inkscape"
   xmlns:sodipodi="http://sodipodi.sourceforge.net/DTD/sodipodi-0.dtd"
   xmlns="http://www.w3.org/2000/svg"
   xmlns:svg="http://www.w3.org/2000/svg"
   xmlns:rdf="http://www.w3.org/1999/02/22-rdf-syntax-ns#"
   xmlns:cc="http://creativecommons.org/ns#"
   xmlns:dc="http://purl.org/dc/elements/1.1/">
  <defs
     id="defs2">
    <marker
       style="overflow:visible"
       id="marker21316"
       refX="0"
       refY="0"
       orient="auto-start-reverse"
       inkscape:stockid="Arrow1"
       markerWidth="4.0606604"
       markerHeight="6.7071066"
       viewBox="0 0 4.0606602 6.7071068"
       inkscape:isstock="true"
       inkscape:collect="always"
       preserveAspectRatio="xMidYMid">
      <path
         style="fill:none;stroke:context-stroke;stroke-width:1;stroke-linecap:butt"
         d="M 3,-3 0,0 3,3"
         id="path21314"
         transform="rotate(180,0.125,0)"
         sodipodi:nodetypes="ccc" />
    </marker>
    <inkscape:path-effect
       effect="powerstroke"
       id="path-effect21282"
       is_visible="true"
       lpeversion="1"
       offset_points="0.26164274,0.13304017"
       not_jump="true"
       sort_points="true"
       interpolator_type="CentripetalCatmullRom"
       interpolator_beta="0.75"
       start_linecap_type="square"
       linejoin_type="spiro"
       miter_limit="4"
       scale_width="1"
       end_linecap_type="square" />
    <inkscape:path-effect
       effect="simplify"
       id="path-effect21280"
       is_visible="true"
       lpeversion="1"
       steps="1"
       threshold="0.064615385"
       smooth_angles="0"
       helper_size="0"
       simplify_individual_paths="false"
       simplify_just_coalesce="false"
       step="1" />
    <marker
       style="overflow:visible"
       id="marker19580"
       refX="0"
       refY="0"
       orient="auto-start-reverse"
       inkscape:stockid="Arrow1"
       markerWidth="4.0606604"
       markerHeight="6.7071066"
       viewBox="0 0 4.0606602 6.7071068"
       inkscape:isstock="true"
       inkscape:collect="always"
       preserveAspectRatio="xMidYMid">
      <path
         style="fill:none;stroke:context-stroke;stroke-width:1;stroke-linecap:butt"
         d="M 3,-3 0,0 3,3"
         id="path19578"
         transform="rotate(180,0.125,0)"
         sodipodi:nodetypes="ccc" />
    </marker>
    <marker
       style="overflow:visible"
       id="Arrow1"
       refX="0"
       refY="0"
       orient="auto-start-reverse"
       inkscape:stockid="Arrow1"
       markerWidth="4.0606604"
       markerHeight="6.7071066"
       viewBox="0 0 4.0606602 6.7071068"
       inkscape:isstock="true"
       inkscape:collect="always"
       preserveAspectRatio="xMidYMid">
      <path
         style="fill:none;stroke:context-stroke;stroke-width:1;stroke-linecap:butt"
         d="M 3,-3 0,0 3,3"
         id="path5057"
         transform="rotate(180,0.125,0)"
         sodipodi:nodetypes="ccc" />
    </marker>
  </defs>
  <sodipodi:namedview
     id="base"
     pagecolor="#ffffff"
     bordercolor="#666666"
     borderopacity="1.0"
     inkscape:pageopacity="0.0"
     inkscape:pageshadow="2"
     inkscape:zoom="5.6250281"
     inkscape:cx="144.88817"
     inkscape:cy="157.42144"
     inkscape:document-units="mm"
     inkscape:current-layer="layer1"
     showgrid="false"
     showborder="true"
     width="200mm"
     showguides="true"
     inkscape:guide-bbox="true"
     inkscape:window-width="1896"
     inkscape:window-height="1056"
     inkscape:window-x="10"
     inkscape:window-y="10"
     inkscape:window-maximized="1"
     inkscape:showpageshadow="2"
     inkscape:pagecheckerboard="0"
     inkscape:deskcolor="#d1d1d1">
    <inkscape:grid
       type="xygrid"
       id="grid815"
       units="mm"
       spacingx="10"
       spacingy="10"
       empspacing="4"
       dotted="false"
       originx="0"
       originy="0" />
  </sodipodi:namedview>
  <metadata
     id="metadata5">
    <rdf:RDF>
      <cc:Work
         rdf:about="">
        <dc:format>image/svg+xml</dc:format>
        <dc:type
           rdf:resource="http://purl.org/dc/dcmitype/StillImage" />
      </cc:Work>
    </rdf:RDF>
  </metadata>
  <g
     inkscape:label="Layer 1"
     inkscape:groupmode="layer"
     id="layer1"
     transform="translate(0,-177)">
    <ellipse
       style="fill:none;stroke:#000000;stroke-width:0.140441;stroke-linejoin:bevel;paint-order:markers fill stroke"
       id="path233"
       cx="31.677954"
       cy="207.16226"
       rx="24.949022"
       ry="14.546925" />
    <circle
       style="fill:#000000;stroke:#000000;stroke-width:0.140441;stroke-linejoin:bevel;paint-order:markers fill stroke"
       id="path343"
       cx="31.546131"
       cy="206.24504"
       r="0.69532371" />
    <text
       style="font-size:2.64583px;font-family:monospace;-inkscape-font-specification:'monospace, Normal';fill:#000000;fill-opacity:1;stroke:none;stroke-width:0.264583"
       xml:space="preserve"
       id="text347"
       y="204.97821"
       x="32.244129"><tspan
         sodipodi:role="line"
         id="tspan345"
         x="32.244129"
         y="204.97821"
         style="stroke-width:0.264583">$(h,k)$</tspan></text>
    <circle
       style="fill:#000000;stroke:#000000;stroke-width:0.140441;stroke-linejoin:bevel;paint-order:markers fill stroke"
       id="circle357"
       cx="21.491957"
       cy="206.24504"
       r="0.69532371" />
    <circle
       style="fill:#000000;stroke:#000000;stroke-width:0.140441;stroke-linejoin:bevel;paint-order:markers fill stroke"
       id="circle359"
       cx="41.600307"
       cy="206.24504"
       r="0.69532371" />
    <text
       style="font-size:1.54118px;font-family:monospace;-inkscape-font-specification:'monospace, Normal';fill:#000000;fill-opacity:1;stroke:none;stroke-width:0.154118"
       xml:space="preserve"
       id="text363"
       y="132.18231"
       x="66.963562"
       transform="scale(0.64449302,1.5516072)"><tspan
         sodipodi:role="line"
         id="tspan361"
         x="66.963562"
         y="132.18231"
         style="stroke-width:0.154118">$F_{2}$</tspan></text>
    <text
       style="font-size:1.07326px;font-family:monospace;-inkscape-font-specification:'monospace, Normal';fill:#000000;fill-opacity:1;stroke:none;stroke-width:0.107326"
       xml:space="preserve"
       id="text375"
       y="133.85992"
       x="25.975193"
       transform="scale(0.65159306,1.5347002)"><tspan
         sodipodi:role="line"
         id="tspan373"
         x="25.975193"
         y="133.85992"
         style="stroke-width:0.107326">$F_{1}$</tspan></text>
    <path
       style="fill:none;stroke:#000000;stroke-width:0.264583px;stroke-linecap:butt;stroke-linejoin:miter;stroke-opacity:1"
       d="M 21.704693,206.25704 H 31.56477"
       id="path439" />
    <text
       style="font-size:2.64583px;font-family:monospace;-inkscape-font-specification:'monospace, Normal';fill:#000000;fill-opacity:1;stroke:none;stroke-width:0.264583"
       xml:space="preserve"
       id="text443"
       y="205.26694"
       x="26.008877"><tspan
         sodipodi:role="line"
         id="tspan441"
         x="26.008877"
         y="205.26694"
         style="stroke-width:0.264583">$c$</tspan></text>
    <circle
       style="fill:#000000;stroke:#000000;stroke-width:0.140441;stroke-linejoin:bevel;paint-order:markers fill stroke"
       id="circle453"
       cx="56.575497"
       cy="206.24504"
       r="0.69532371" />
    <circle
       style="fill:#000000;stroke:#000000;stroke-width:0.140441;stroke-linejoin:bevel;paint-order:markers fill stroke"
       id="circle455"
       cx="6.946023"
       cy="206.25139"
       r="0.69532371" />
    <path
       style="fill:none;stroke:#000000;stroke-width:0.338057px;stroke-linecap:butt;stroke-linejoin:miter;stroke-opacity:1"
       d="m 7.3595173,207.87819 v 1.07606 H 31.092074 v -1.31979"
       id="path457" />
    <text
       style="font-size:2.64583px;font-family:monospace;-inkscape-font-specification:'monospace, Normal';fill:#000000;fill-opacity:1;stroke:none;stroke-width:0.264583"
       xml:space="preserve"
       id="text461"
       y="212.18521"
       x="12.984891"><tspan
         sodipodi:role="line"
         id="tspan459"
         x="12.984891"
         y="212.18521"
         style="stroke-width:0.264583">$a$</tspan></text>
    <path
       style="fill:none;stroke:#000000;stroke-width:0.264583px;stroke-linecap:butt;stroke-linejoin:miter;stroke-opacity:1"
       d="m 31.657218,192.57178 v 29.01643"
       id="path471" />
    <path
       style="fill:none;stroke:#000000;stroke-width:0.272312px;stroke-linecap:butt;stroke-linejoin:miter;stroke-opacity:1;stroke-dasharray:none;stroke-dashoffset:0"
       d="m 32.976952,221.19282 h 1.115539 v -14.85427 h -1.368208"
       id="path473" />
    <text
       style="font-size:2.64583px;font-family:monospace;-inkscape-font-specification:'monospace, Normal';fill:#000000;fill-opacity:1;stroke:none;stroke-width:0.264583"
       xml:space="preserve"
       id="text477"
       y="216.24426"
       x="35.844234"><tspan
         sodipodi:role="line"
         id="tspan475"
         x="35.844234"
         y="216.24426"
         style="stroke-width:0.264583">$b$</tspan></text>
    <path
       style="fill:#00ff5c;fill-opacity:1;stroke:#000000;stroke-width:0.0166562;stroke-linejoin:bevel;stroke-dasharray:none;stroke-dashoffset:0;stroke-opacity:1;paint-order:markers fill stroke"
       d="m 21.264894,206.82514 c -0.06558,-0.0296 -0.102626,-0.0556 -0.09759,-0.0685 0.0045,-0.0114 1.371985,-3.13765 3.03893,-6.94717 1.666944,-3.80952 3.039303,-6.94621 3.049686,-6.97042 0.01996,-0.0465 0.117415,0.0443 13.341517,12.43292 l 1.016969,0.95271 -0.08684,0.0858 -0.08684,0.0858 -7.03267,-6.58611 c -3.867969,-3.62236 -7.037191,-6.58611 -7.042714,-6.58611 -0.0055,0 -1.352641,3.06882 -2.993594,6.8196 -1.640953,3.75077 -2.987511,6.82177 -2.992353,6.82443 -0.0048,0.003 -0.05637,-0.0166 -0.114511,-0.0429 z"
       id="path16044" />
    <path
       style="fill:#00ff5c;fill-opacity:1;stroke:#000000;stroke-width:0.0629526;stroke-linejoin:bevel;stroke-dasharray:none;stroke-dashoffset:0;stroke-opacity:1;paint-order:markers fill stroke"
       d=""
       id="path16046"
       transform="matrix(0.26458333,0,0,0.26458333,0,177)" />
    <path
       style="fill:#ff00ff;fill-opacity:1;stroke:#000000;stroke-width:0.0175415;stroke-linejoin:bevel;stroke-dasharray:none;stroke-dashoffset:0;stroke-opacity:1;paint-order:markers fill stroke"
       d="m 41.41842,206.50499 c -0.03836,0.10879 -1.188359,3.39853 -2.555547,7.31054 -1.367187,3.91199 -2.49121,7.11922 -2.497831,7.12715 -0.0066,0.008 -3.320051,-3.27815 -7.363177,-7.30243 l -7.351138,-7.31688 -0.08016,0.0985 -0.08016,0.0985 0.06157,0.0664 c 0.144432,0.15561 14.896648,14.82713 14.908269,14.82671 0.009,-2.9e-4 4.677117,-13.32868 5.220105,-14.90429 l 0.03659,-0.10615 -0.08679,-0.0359 c -0.04772,-0.0197 -0.0992,-0.0413 -0.114386,-0.048 -0.0225,-0.01 -0.04049,0.0246 -0.09735,0.18581 z"
       id="path16184" />
    <path
       style="fill:#ff0000;fill-opacity:1;stroke:#000000;stroke-width:0.0166562;stroke-linejoin:bevel;stroke-dasharray:none;stroke-dashoffset:0;stroke-opacity:1;paint-order:markers fill stroke"
       d="m 41.530444,206.35235 c -0.01704,-0.0389 -0.619752,-1.60854 -1.339329,-3.48815 -2.817397,-7.35932 -3.706627,-9.67426 -3.722087,-9.68972 -0.0049,-0.005 -0.02506,0.002 -0.0447,0.0161 -0.05688,0.0398 -3.070567,2.76459 -5.687153,5.1419 -1.068874,0.97112 -8.82016,8.01072 -8.860165,8.04666 l -0.03794,0.0341 -0.06888,-0.0689 c -0.06163,-0.0616 -0.06639,-0.0719 -0.04521,-0.0976 0.03907,-0.0474 3.581611,-3.26842 10.167987,-9.24504 4.544706,-4.12396 4.649806,-4.21906 4.655823,-4.21282 0.0052,0.005 0.324964,0.83602 1.663655,4.3214 1.879354,4.89303 3.533809,9.21988 3.533809,9.24186 0,0.0132 -0.139933,0.0712 -0.171394,0.071 -0.0074,-5e-5 -0.02736,-0.0319 -0.04441,-0.0708 z"
       id="path16186" />
    <path
       style="fill:#0000ff;fill-opacity:1;stroke:#000000;stroke-width:0.0174274;stroke-linejoin:bevel;stroke-dasharray:none;stroke-dashoffset:0;stroke-opacity:1;paint-order:markers fill stroke"
       d="m 21.339314,206.15589 c -0.06558,0.0324 -0.102622,0.0609 -0.09759,0.075 0.0045,0.0125 1.371938,3.43505 3.038825,7.60566 1.666886,4.17061 3.039197,7.60461 3.04958,7.63111 0.01996,0.0509 0.117411,-0.0485 13.341053,-13.61138 l 1.016934,-1.04301 -0.08684,-0.0939 -0.08684,-0.0939 -7.032426,7.21037 c -3.867834,3.96571 -7.036946,7.21038 -7.042469,7.21038 -0.0055,0 -1.352594,-3.3597 -2.99349,-7.466 -1.640896,-4.10629 -2.987407,-7.46837 -2.992249,-7.47128 -0.0048,-0.003 -0.05637,0.0182 -0.114507,0.047 z"
       id="path16257" />
    <path
       style="fill:none;stroke:#000000;stroke-width:0.264583px;stroke-linecap:butt;stroke-linejoin:miter;stroke-opacity:1"
       d="M 7.0304244,206.50322 H 56.036556"
       id="path17087" />
    <path
       style="fill:none;stroke:#000000;stroke-width:0.165;stroke-linecap:butt;stroke-linejoin:miter;stroke-opacity:1;stroke-dasharray:none;marker-end:url(#Arrow1)"
       d="m 43.219827,191.90827 -10.639311,1.25737"
       id="path17827" />
    <text
       style="font-size:2.64583px;font-family:monospace;-inkscape-font-specification:'monospace, Normal';fill:#000000;fill-opacity:1;stroke:none;stroke-width:0.264583"
       xml:space="preserve"
       id="text18816"
       y="201.75023"
       x="2.3518968"><tspan
         sodipodi:role="line"
         id="tspan18814"
         x="2.3518968"
         y="201.75023"
         style="stroke-width:0.264583">Major Axis</tspan></text>
    <text
       style="font-size:2.64583px;font-family:monospace;-inkscape-font-specification:'monospace, Normal';fill:#000000;fill-opacity:1;stroke:none;stroke-width:0.264583"
       xml:space="preserve"
       id="text19566"
       y="191.4095"
       x="28.213387"><tspan
         sodipodi:role="line"
         id="tspan19564"
         x="28.213387"
         y="191.4095"
         style="stroke-width:0.264583">Minor Axis</tspan></text>
    <path
       style="fill:none;stroke:#000000;stroke-width:0.165;stroke-linecap:butt;stroke-linejoin:miter;stroke-opacity:1;stroke-dasharray:none;marker-end:url(#marker19580)"
       d="m 5.159262,202.95053 4.872097,2.90457"
       id="path19576" />
    <path
       style="fill:none;stroke:#000000;stroke-width:0.165;stroke-linecap:butt;stroke-linejoin:miter;stroke-dasharray:none;stroke-opacity:1;marker-end:url(#marker21316)"
       d="m 37.290706,214.18147 c -0.835381,-3.39598 -1.11039,-4.62643 -1.887173,-5.0465 -0.451689,-0.24426 -0.680061,-0.39693 -0.680061,-0.39693"
       id="path21312"
       sodipodi:nodetypes="csc" />
  </g>
</svg>
