<?xml version="1.0" encoding="UTF-8" standalone="no"?>
<!-- Created with Inkscape (http://www.inkscape.org/) -->

<svg
   width="4in"
   height="3in"
   viewBox="0 0 101.6 76.2"
   version="1.1"
   id="svg8"
   inkscape:version="1.2.2 (b0a8486541, 2022-12-01)"
   sodipodi:docname="graph1.svg"
   xmlns:inkscape="http://www.inkscape.org/namespaces/inkscape"
   xmlns:sodipodi="http://sodipodi.sourceforge.net/DTD/sodipodi-0.dtd"
   xmlns="http://www.w3.org/2000/svg"
   xmlns:svg="http://www.w3.org/2000/svg"
   xmlns:rdf="http://www.w3.org/1999/02/22-rdf-syntax-ns#"
   xmlns:cc="http://creativecommons.org/ns#"
   xmlns:dc="http://purl.org/dc/elements/1.1/">
  <defs
     id="defs2">
    <marker
       style="overflow:visible"
       id="Arrow3"
       refX="0"
       refY="0"
       orient="auto-start-reverse"
       inkscape:stockid="Arrow3"
       markerWidth="4.2071066"
       markerHeight="7"
       viewBox="0 0 4.2071068 7"
       inkscape:isstock="true"
       inkscape:collect="always"
       preserveAspectRatio="xMidYMid">
      <path
         style="fill:none;stroke:context-stroke;stroke-width:1;stroke-linecap:round"
         d="M 3,-3 0,0 3,3"
         id="arrow3"
         transform="rotate(180,0.125,0)"
         sodipodi:nodetypes="ccc" />
    </marker>
    <marker
       style="overflow:visible"
       id="Arrow1"
       refX="0"
       refY="0"
       orient="auto-start-reverse"
       inkscape:stockid="Arrow1"
       markerWidth="4.0606604"
       markerHeight="6.7071066"
       viewBox="0 0 4.0606602 6.7071068"
       inkscape:isstock="true"
       inkscape:collect="always"
       preserveAspectRatio="xMidYMid">
      <path
         style="fill:none;stroke:context-stroke;stroke-width:1;stroke-linecap:butt"
         d="M 3,-3 0,0 3,3"
         id="path5057"
         transform="rotate(180,0.125,0)"
         sodipodi:nodetypes="ccc" />
    </marker>
  </defs>
  <sodipodi:namedview
     id="base"
     pagecolor="#ffffff"
     bordercolor="#666666"
     borderopacity="1.0"
     inkscape:pageopacity="0.0"
     inkscape:pageshadow="2"
     inkscape:zoom="1.9568966"
     inkscape:cx="219.22467"
     inkscape:cy="77.929514"
     inkscape:document-units="mm"
     inkscape:current-layer="layer2"
     showgrid="false"
     showborder="true"
     width="200mm"
     showguides="true"
     inkscape:guide-bbox="true"
     inkscape:window-width="1896"
     inkscape:window-height="1056"
     inkscape:window-x="10"
     inkscape:window-y="10"
     inkscape:window-maximized="1"
     inkscape:showpageshadow="2"
     inkscape:pagecheckerboard="0"
     inkscape:deskcolor="#d1d1d1">
    <inkscape:grid
       type="xygrid"
       id="grid815"
       units="mm"
       spacingx="10"
       spacingy="10"
       empspacing="4"
       dotted="false"
       originx="0"
       originy="0" />
  </sodipodi:namedview>
  <metadata
     id="metadata5">
    <rdf:RDF>
      <cc:Work
         rdf:about="">
        <dc:format>image/svg+xml</dc:format>
        <dc:type
           rdf:resource="http://purl.org/dc/dcmitype/StillImage" />
      </cc:Work>
    </rdf:RDF>
  </metadata>
  <g
     inkscape:label="Layer 1"
     inkscape:groupmode="layer"
     id="layer1"
     transform="translate(0,-177)">
    <rect
       style="fill:none;stroke:#000000;stroke-width:0.249211;stroke-linejoin:bevel;paint-order:markers fill stroke"
       id="rect233"
       width="34.359108"
       height="16.09185"
       x="34.402008"
       y="182.29172"
       rx="1.1759646"
       ry="0.73809576" />
    <rect
       style="fill:none;stroke:#000000;stroke-width:0.198493;stroke-linejoin:bevel;paint-order:markers fill stroke"
       id="rect402"
       width="28.275078"
       height="12.405185"
       x="6.9088912"
       y="209.74854"
       rx="0.96773434"
       ry="0.56899697" />
    <rect
       style="fill:none;stroke:#000000;stroke-width:0.198493;stroke-linejoin:bevel;paint-order:markers fill stroke"
       id="rect410"
       width="28.275078"
       height="12.405185"
       x="59.699436"
       y="209.97304"
       rx="0.96773434"
       ry="0.56899697" />
    <rect
       style="fill:none;stroke:#000000;stroke-width:0.198493;stroke-linejoin:bevel;paint-order:markers fill stroke"
       id="rect412"
       width="28.275078"
       height="12.405185"
       x="38.476589"
       y="233.27412"
       rx="0.96773434"
       ry="0.56899697" />
    <rect
       style="fill:none;stroke:#000000;stroke-width:0.198493;stroke-linejoin:bevel;paint-order:markers fill stroke"
       id="rect414"
       width="28.275078"
       height="12.405185"
       x="71.251358"
       y="233.23691"
       rx="0.96773434"
       ry="0.56899697" />
    <path
       style="fill:none;stroke:#000000;stroke-width:0.437303px;stroke-linecap:butt;stroke-linejoin:miter;stroke-opacity:1;marker-end:url(#Arrow3)"
       d="m 36.607701,200.90929 c -0.957906,1.04816 -10.243817,6.92642 -10.243817,6.92642"
       id="path470" />
    <path
       style="fill:none;stroke:#000000;stroke-width:0.437303px;stroke-linecap:butt;stroke-linejoin:miter;stroke-opacity:1;marker-end:url(#Arrow1)"
       d="m 62.056471,200.60536 c 0.957907,1.04817 10.243819,6.92642 10.243819,6.92642"
       id="path474" />
    <path
       style="fill:none;stroke:#000000;stroke-width:0.437303px;stroke-linecap:butt;stroke-linejoin:miter;stroke-opacity:1;marker-end:url(#Arrow3)"
       d="m 66.598928,224.12488 c -0.957909,1.04816 -10.243819,6.92641 -10.243819,6.92641"
       id="path1295" />
    <path
       style="fill:none;stroke:#000000;stroke-width:0.437303px;stroke-linecap:butt;stroke-linejoin:miter;stroke-opacity:1;marker-end:url(#Arrow1)"
       d="m 69.082717,224.20123 c 0.957908,1.04817 10.243819,6.92642 10.243819,6.92642"
       id="path1301" />
    <path
       style="fill:none;stroke:#000000;stroke-width:0.124661;stroke-linejoin:bevel;paint-order:markers fill stroke"
       d="m 35.189161,198.06171 c -0.179895,-0.0696 -0.39917,-0.23638 -0.487281,-0.37054 -0.08811,-0.13416 -0.161703,-3.50833 -0.163539,-7.49813 -0.0032,-6.94692 0.01453,-7.26392 0.418431,-7.48374 0.584116,-0.3179 32.588606,-0.3179 33.172722,0 0.404078,0.21991 0.42177,0.54046 0.42177,7.64224 0,7.10178 -0.0177,7.42233 -0.42177,7.64225 -0.446146,0.24281 -32.318777,0.30852 -32.940333,0.0679 z"
       id="path1516" />
    <path
       style="fill:#008080;stroke:#000000;stroke-width:0.124661;stroke-linejoin:bevel;paint-order:markers fill stroke"
       d="m 7.3291329,221.76537 c -0.2139446,-0.13884 -0.2631722,-1.47738 -0.2180531,-5.92912 l 0.058273,-5.74981 H 21.015718 34.862081 v 5.87612 5.87613 l -13.62831,0.053 c -7.495571,0.0291 -13.7526591,-0.0277 -13.9046381,-0.12628 z"
       id="path1518" />
    <path
       style="fill:#008080;stroke:#000000;stroke-width:0.124661;stroke-linejoin:bevel;paint-order:markers fill stroke"
       d="m 60.101713,222.02531 c -0.208184,-0.0861 -0.272567,-1.46915 -0.272567,-5.85525 v -5.74255 l 0.490621,-0.12093 c 0.26984,-0.0665 6.525231,-0.0934 13.900874,-0.0597 l 13.410255,0.0613 v 5.87612 5.87612 l -13.62831,0.0388 c -7.495568,0.0213 -13.750964,-0.0117 -13.900873,-0.0739 z"
       id="path1520" />
    <path
       style="fill:#008080;stroke:#000000;stroke-width:0.124661;stroke-linejoin:bevel;paint-order:markers fill stroke"
       d="m 71.626904,245.1495 c -0.175156,-0.21463 -0.231335,-1.96622 -0.190238,-5.93156 l 0.05831,-5.627 h 13.846362 13.846364 l 0.05827,5.7498 c 0.04512,4.45211 -0.004,5.79006 -0.218053,5.92816 -0.151977,0.0981 -6.323458,0.17989 -13.714397,0.18176 -11.131765,0.003 -13.48073,-0.0488 -13.686625,-0.30116 z"
       id="path1522" />
    <path
       style="fill:#008080;stroke:#000000;stroke-width:0.124661;stroke-linejoin:bevel;paint-order:markers fill stroke"
       d="m 38.776964,245.17472 c -0.05866,-0.15546 -0.0804,-2.82541 -0.0483,-5.93322 l 0.05836,-5.65056 13.410259,-0.0612 c 7.375642,-0.0337 13.632659,-0.007 13.904486,0.0606 l 0.494229,0.12184 -0.05812,5.81555 -0.05813,5.81554 -13.798068,0.0571 c -11.020674,0.0456 -13.819537,1.9e-4 -13.904727,-0.22556 z"
       id="path1524" />
    <text
       style="font-size:3.08356px;font-family:monospace;-inkscape-font-specification:'monospace, Normal';fill:#000000;fill-opacity:1;stroke:none;stroke-width:0.308356"
       xml:space="preserve"
       id="text1553"
       y="207.6601"
       x="11.904912"
       transform="scale(0.96486241,1.0364172)"><tspan
         sodipodi:role="line"
         id="tspan1551"
         x="11.904912"
         y="207.6601"
         style="stroke-width:0.308356">Qualitative  </tspan><tspan
         sodipodi:role="line"
         x="11.904912"
         y="211.51454"
         style="stroke-width:0.308356"
         id="tspan1665">Variables</tspan></text>
    <text
       style="font-size:3.25948px;font-family:monospace;-inkscape-font-specification:'monospace, Normal';fill:#000000;fill-opacity:1;stroke:none;stroke-width:0.325948"
       xml:space="preserve"
       id="text1669"
       y="121.8"
       x="115.52882"
       transform="scale(0.56699519,1.7636834)"><tspan
         sodipodi:role="line"
         id="tspan1667"
         x="115.52882"
         y="121.8"
         style="stroke-width:0.325948">Quantitative</tspan><tspan
         sodipodi:role="line"
         x="115.52882"
         y="125.87435"
         style="stroke-width:0.325948"
         id="tspan1693">Variables</tspan></text>
    <text
       style="font-size:3.74187px;font-family:monospace;-inkscape-font-specification:'monospace, Normal';fill:#000000;fill-opacity:1;stroke:none;stroke-width:0.374187"
       xml:space="preserve"
       id="text1681"
       y="195.21895"
       x="54.107597"
       transform="scale(0.81833411,1.2219948)"><tspan
         sodipodi:role="line"
         id="tspan1679"
         x="54.107597"
         y="195.21895"
         style="stroke-width:0.374187">Discrete</tspan><tspan
         sodipodi:role="line"
         x="54.107597"
         y="199.89627"
         style="stroke-width:0.374187"
         id="tspan1691">Variables</tspan></text>
    <text
       style="font-size:4.37303px;font-family:monospace;-inkscape-font-specification:'monospace, Normal';fill:#000000;fill-opacity:1;stroke:none;stroke-width:0.437303"
       xml:space="preserve"
       id="text1697"
       y="236.03299"
       x="79.387505"
       transform="scale(0.9916502,1.0084201)"><tspan
         sodipodi:role="line"
         id="tspan1695"
         x="79.387505"
         y="236.03299"
         style="stroke-width:0.437303">Continuous </tspan><tspan
         sodipodi:role="line"
         x="79.387505"
         y="241.49928"
         style="stroke-width:0.437303"
         id="tspan1707">Variables</tspan></text>
    <path
       style="fill:#008080;stroke:#000000;stroke-width:0.289708;stroke-linejoin:bevel;stroke-opacity:1;paint-order:markers fill stroke"
       d="m 132.86343,78.817772 -1.27753,-0.660811 -0.41121,-12.250287 c -0.43244,-12.882862 -0.14075,-41.288429 0.43951,-42.800568 0.18697,-0.487219 0.94695,-1.056336 1.68886,-1.264702 0.74191,-0.208367 28.76296,-0.378849 62.26901,-0.378849 57.80195,0 60.9668,0.04671 61.8326,0.912523 0.85322,0.853237 0.91251,2.685913 0.91251,28.207929 0,21.71068 -0.13589,27.431325 -0.66413,27.959723 -0.98041,0.980695 -122.90585,1.249427 -124.78962,0.275042 z"
       id="path4223"
       transform="matrix(0.26458333,0,0,0.26458333,0,177)" />
  </g>
  <g
     inkscape:groupmode="layer"
     id="layer2"
     inkscape:label="Layer 2">
    <text
       style="font-size:5.22383px;font-family:monospace;-inkscape-font-specification:'monospace, Normal';fill:#000000;fill-opacity:1;stroke:none;stroke-width:0.522384"
       xml:space="preserve"
       id="text4227"
       x="59.589348"
       y="10.169499"
       transform="scale(0.73989102,1.3515504)"><tspan
         sodipodi:role="line"
         id="tspan4225"
         x="59.589348"
         y="10.169499"
         style="stroke-width:0.522384">Variables</tspan></text>
  </g>
</svg>
