<?xml version="1.0" encoding="UTF-8" standalone="no"?>
<!-- Created with Inkscape (http://www.inkscape.org/) -->

<svg
   width="3in"
   height="1.7in"
   viewBox="0 0 76.2 43.180001"
   version="1.1"
   id="svg8"
   inkscape:version="1.3.2 (091e20ef0f, 2023-11-25, custom)"
   sodipodi:docname="fig1.svg"
   xmlns:inkscape="http://www.inkscape.org/namespaces/inkscape"
   xmlns:sodipodi="http://sodipodi.sourceforge.net/DTD/sodipodi-0.dtd"
   xmlns="http://www.w3.org/2000/svg"
   xmlns:svg="http://www.w3.org/2000/svg"
   xmlns:rdf="http://www.w3.org/1999/02/22-rdf-syntax-ns#"
   xmlns:cc="http://creativecommons.org/ns#"
   xmlns:dc="http://purl.org/dc/elements/1.1/">
  <defs
     id="defs2">
    <marker
       style="overflow:visible"
       id="ArrowWide"
       refX="0"
       refY="0"
       orient="auto-start-reverse"
       inkscape:stockid="Wide arrow"
       markerWidth="1"
       markerHeight="1"
       viewBox="0 0 1 1"
       inkscape:isstock="true"
       inkscape:collect="always"
       preserveAspectRatio="xMidYMid">
      <path
         style="fill:none;stroke:context-stroke;stroke-width:1;stroke-linecap:butt"
         d="M 3,-3 0,0 3,3"
         transform="rotate(180,0.125,0)"
         sodipodi:nodetypes="ccc"
         id="path8" />
    </marker>
    <inkscape:path-effect
       effect="powerstroke"
       id="path-effect4"
       is_visible="true"
       lpeversion="1.3"
       scale_width="1"
       interpolator_type="CentripetalCatmullRom"
       interpolator_beta="0.75"
       start_linecap_type="peak"
       end_linecap_type="peak"
       offset_points="66.842734,0.33260042"
       linejoin_type="spiro"
       miter_limit="4"
       not_jump="true"
       sort_points="true"
       message="&lt;b&gt;Ctrl + click&lt;/b&gt; on existing node and move it" />
    <inkscape:path-effect
       effect="simplify"
       id="path-effect3"
       is_visible="true"
       lpeversion="1.3"
       threshold="0.019780219"
       steps="1"
       smooth_angles="0"
       helper_size="0"
       simplify_individual_paths="false"
       simplify_just_coalesce="false"
       step="1" />
  </defs>
  <sodipodi:namedview
     id="base"
     pagecolor="#ffffff"
     bordercolor="#666666"
     borderopacity="1.0"
     inkscape:pageopacity="0.0"
     inkscape:pageshadow="2"
     inkscape:zoom="1.406257"
     inkscape:cx="-114.48832"
     inkscape:cy="29.510964"
     inkscape:document-units="mm"
     inkscape:current-layer="layer1"
     showgrid="false"
     showborder="true"
     width="200mm"
     showguides="true"
     inkscape:guide-bbox="true"
     inkscape:window-width="1854"
     inkscape:window-height="1014"
     inkscape:window-x="30"
     inkscape:window-y="30"
     inkscape:window-maximized="1"
     inkscape:showpageshadow="2"
     inkscape:pagecheckerboard="0"
     inkscape:deskcolor="#d1d1d1">
    <inkscape:grid
       type="xygrid"
       id="grid815"
       units="mm"
       spacingx="10"
       spacingy="10"
       empspacing="4"
       dotted="false"
       originx="0"
       originy="0"
       visible="false" />
  </sodipodi:namedview>
  <metadata
     id="metadata5">
    <rdf:RDF>
      <cc:Work
         rdf:about="">
        <dc:format>image/svg+xml</dc:format>
        <dc:type
           rdf:resource="http://purl.org/dc/dcmitype/StillImage" />
      </cc:Work>
    </rdf:RDF>
  </metadata>
  <g
     inkscape:label="Layer 1"
     inkscape:groupmode="layer"
     id="layer1"
     transform="translate(0,-177)">
    <path
       style="fill:none;stroke:#000000;stroke-width:0.264583px;stroke-linecap:butt;stroke-linejoin:miter;stroke-opacity:1"
       d="m 15.135997,182.57523 v 33.41558 h 55.034284 z"
       id="path1" />
    <path
       style="fill:none;stroke:#000000;stroke-width:0.265;stroke-linecap:butt;stroke-linejoin:miter;stroke-dasharray:0.53, 0.265;stroke-dashoffset:0;stroke-opacity:1"
       d="m 25.343485,188.96348 v 26.99273"
       id="path2" />
    <path
       style="fill:none;stroke:#000000;stroke-width:0.210825;stroke-linecap:butt;stroke-linejoin:miter;stroke-dasharray:0.421649, 0.210825;stroke-dashoffset:0;stroke-opacity:1"
       d="m 41.791136,198.80195 v 17.08432"
       id="path3" />
    <path
       d="m 59.548156,227.01294 c -0.0015,-0.006 -0.0031,-0.0118 -0.0047,-0.018 -0.0012,-0.005 -0.0027,-0.0106 -0.0043,-0.0168 -0.0012,-0.005 -0.0027,-0.0106 -0.0042,-0.0168 -0.0011,-0.005 -0.0026,-0.0106 -0.0041,-0.0167 -0.0011,-0.005 -0.0026,-0.0106 -0.0041,-0.0167 -0.0011,-0.005 -0.0025,-0.0106 -0.004,-0.0166 -0.0011,-0.005 -0.0025,-0.0105 -0.0039,-0.0166 -0.0011,-0.005 -0.0024,-0.0105 -0.0038,-0.0165 -0.001,-0.005 -0.0024,-0.0105 -0.0038,-0.0164 -0.001,-0.005 -0.0023,-0.0105 -0.0037,-0.0164 -0.001,-0.005 -0.0023,-0.0104 -0.0036,-0.0163 -9.82e-4,-0.005 -0.0022,-0.0104 -0.0035,-0.0163 -9.61e-4,-0.005 -0.0022,-0.0104 -0.0035,-0.0162 -9.38e-4,-0.005 -0.0022,-0.0103 -0.0034,-0.0162 -9.18e-4,-0.005 -0.0021,-0.0103 -0.0033,-0.0162 -8.96e-4,-0.004 -0.0021,-0.0103 -0.0032,-0.0161 -8.74e-4,-0.004 -0.002,-0.0102 -0.0032,-0.0161 -8.53e-4,-0.004 -0.002,-0.0102 -0.0031,-0.016 -8.31e-4,-0.004 -0.0019,-0.0102 -0.003,-0.016 -8.1e-4,-0.004 -0.0019,-0.0101 -0.0029,-0.0159 -7.88e-4,-0.004 -0.0018,-0.0101 -0.0029,-0.0159 -7.67e-4,-0.004 -0.0018,-0.0101 -0.0028,-0.0158 -7.46e-4,-0.004 -0.0017,-0.01 -0.0027,-0.0158 -7.24e-4,-0.004 -0.0017,-0.01 -0.0026,-0.0157 -7.04e-4,-0.004 -0.0016,-0.01 -0.0026,-0.0156 -6.82e-4,-0.004 -0.0016,-0.01 -0.0025,-0.0156 -6.62e-4,-0.004 -0.0015,-0.01 -0.0024,-0.0156 -6.41e-4,-0.004 -0.0015,-0.01 -0.0023,-0.0155 -6.2e-4,-0.004 -0.0014,-0.01 -0.0023,-0.0155 -6e-4,-0.004 -0.0014,-0.01 -0.0022,-0.0154 -5.8e-4,-0.004 -0.0014,-0.01 -0.0021,-0.0154 -5.59e-4,-0.004 -0.0013,-0.01 -0.0021,-0.0153 -5.39e-4,-0.004 -0.0013,-0.01 -0.002,-0.0153 -5.2e-4,-0.004 -0.0012,-0.01 -0.0019,-0.0152 -5e-4,-0.004 -0.0012,-0.01 -0.0018,-0.0152 -4.79e-4,-0.004 -0.0011,-0.01 -0.0018,-0.0151 -4.6e-4,-0.004 -0.0011,-0.01 -0.0017,-0.0151 -4.41e-4,-0.004 -0.001,-0.01 -0.0016,-0.015 -4.2e-4,-0.004 -9.94e-4,-0.01 -0.0016,-0.015 -4.02e-4,-0.004 -9.5e-4,-0.009 -0.0015,-0.0149 -3.82e-4,-0.004 -9.05e-4,-0.009 -0.0014,-0.0149 -3.63e-4,-0.004 -8.61e-4,-0.009 -0.0014,-0.0148 -3.44e-4,-0.004 -8.18e-4,-0.009 -0.0013,-0.0148 -3.26e-4,-0.004 -7.74e-4,-0.009 -0.0012,-0.0148 -3.07e-4,-0.004 -7.31e-4,-0.009 -0.0012,-0.0147 -2.87e-4,-0.004 -6.87e-4,-0.009 -0.0011,-0.0147 -2.69e-4,-0.004 -6.44e-4,-0.009 -0.001,-0.0146 -2.51e-4,-0.004 -6.01e-4,-0.009 -9.52e-4,-0.0146 -2.32e-4,-0.004 -5.58e-4,-0.009 -8.84e-4,-0.0145 -2.14e-4,-0.004 -5.16e-4,-0.009 -8.17e-4,-0.0145 -1.97e-4,-0.004 -4.73e-4,-0.009 -7.51e-4,-0.0145 -1.78e-4,-0.004 -4.3e-4,-0.009 -6.83e-4,-0.0144 -1.6e-4,-0.004 -3.88e-4,-0.009 -6.17e-4,-0.0144 -1.42e-4,-0.004 -3.46e-4,-0.009 -5.5e-4,-0.0143 -1.25e-4,-0.004 -3.05e-4,-0.009 -4.85e-4,-0.0143 -1.07e-4,-0.004 -2.62e-4,-0.009 -4.18e-4,-0.0142 -9e-5,-0.004 -2.21e-4,-0.009 -3.52e-4,-0.0142 -7.3e-5,-0.004 -1.8e-4,-0.009 -2.87e-4,-0.0142 -5.6e-5,-0.004 -1.39e-4,-0.009 -2.22e-4,-0.0141 -3.8e-5,-0.004 -9.7e-5,-0.009 -1.57e-4,-0.0141 -2.1e-5,-0.004 -5.6e-5,-0.009 -9.1e-5,-0.014 -4e-6,-0.004 -1.6e-5,-0.009 -2.7e-5,-0.014 1.3e-5,-0.004 2.5e-5,-0.009 3.8e-5,-0.014 2.9e-5,-0.004 6.5e-5,-0.009 1.02e-4,-0.0139 4.6e-5,-0.004 1.06e-4,-0.009 1.66e-4,-0.0139 6.2e-5,-0.004 1.46e-4,-0.009 2.3e-4,-0.0138 6.2e-5,-0.003 1.53e-4,-0.007 2.44e-4,-0.0114 1.44e-4,-0.006 2.75e-4,-0.011 4.08e-4,-0.0162 1.1e-4,-0.003 2.64e-4,-0.009 4.21e-4,-0.0137 1.25e-4,-0.003 3.04e-4,-0.009 4.84e-4,-0.0137 1.41e-4,-0.003 3.43e-4,-0.009 5.47e-4,-0.0137 1.57e-4,-0.003 3.83e-4,-0.009 6.1e-4,-0.0136 1.73e-4,-0.003 4.22e-4,-0.008 6.72e-4,-0.0136 1.89e-4,-0.003 4.61e-4,-0.008 7.35e-4,-0.0135 2.05e-4,-0.003 5e-4,-0.008 7.98e-4,-0.0135 2.2e-4,-0.003 5.38e-4,-0.008 8.59e-4,-0.0135 2.36e-4,-0.003 5.78e-4,-0.008 9.21e-4,-0.0134 2.51e-4,-0.003 6.16e-4,-0.008 9.84e-4,-0.0134 2.66e-4,-0.003 6.54e-4,-0.008 0.001,-0.0134 2.82e-4,-0.003 6.93e-4,-0.008 0.0011,-0.0133 2.97e-4,-0.003 7.31e-4,-0.008 0.0012,-0.0133 3.11e-4,-0.003 7.69e-4,-0.008 0.0012,-0.0132 3.27e-4,-0.003 8.07e-4,-0.008 0.0013,-0.0132 3.41e-4,-0.003 8.44e-4,-0.008 0.0014,-0.0132 3.56e-4,-0.003 8.82e-4,-0.008 0.0014,-0.0131 3.72e-4,-0.003 9.21e-4,-0.008 0.0015,-0.0131 3.86e-4,-0.003 9.58e-4,-0.008 0.0015,-0.0131 4.02e-4,-0.003 9.96e-4,-0.008 0.0016,-0.013 4.16e-4,-0.003 0.001,-0.008 0.0017,-0.013 4.3e-4,-0.003 0.0011,-0.008 0.0017,-0.013 4.46e-4,-0.003 0.0011,-0.008 0.0018,-0.0129 4.6e-4,-0.003 0.0011,-0.008 0.0018,-0.0129 4.74e-4,-0.003 0.0012,-0.008 0.0019,-0.0129 4.89e-4,-0.003 0.0012,-0.008 0.002,-0.0129 5.03e-4,-0.003 0.0013,-0.008 0.002,-0.0128 5.17e-4,-0.003 0.0013,-0.008 0.0021,-0.0128 5.32e-4,-0.003 0.0013,-0.008 0.0021,-0.0128 5.47e-4,-0.003 0.0014,-0.008 0.0022,-0.0127 5.61e-4,-0.003 0.0014,-0.008 0.0022,-0.0127 5.75e-4,-0.003 0.0014,-0.008 0.0023,-0.0127 5.9e-4,-0.003 0.0015,-0.008 0.0024,-0.0126 6.04e-4,-0.003 0.0015,-0.008 0.0024,-0.0126 6.18e-4,-0.003 0.0015,-0.008 0.0025,-0.0126 6.33e-4,-0.003 0.0016,-0.008 0.0025,-0.0126 6.46e-4,-0.003 0.0016,-0.008 0.0026,-0.0125 6.6e-4,-0.003 0.0017,-0.008 0.0027,-0.0125 6.75e-4,-0.003 0.0017,-0.008 0.0027,-0.0125 6.9e-4,-0.003 0.0017,-0.008 0.0028,-0.0125 7.03e-4,-0.003 0.0018,-0.008 0.0028,-0.0124 7.18e-4,-0.003 0.0018,-0.008 0.0029,-0.0124 7.32e-4,-0.003 0.0018,-0.008 0.0029,-0.0124 7.47e-4,-0.003 0.0019,-0.008 0.003,-0.0123 7.6e-4,-0.003 0.0019,-0.008 0.0031,-0.0123 7.75e-4,-0.003 0.0019,-0.008 0.0031,-0.0123 7.89e-4,-0.003 0.002,-0.008 0.0032,-0.0123 8.03e-4,-0.003 0.002,-0.008 0.0032,-0.0122 8.17e-4,-0.003 0.002,-0.008 0.0033,-0.0122 8.32e-4,-0.003 0.0021,-0.008 0.0033,-0.0122 8.46e-4,-0.003 0.0021,-0.008 0.0034,-0.0122 8.61e-4,-0.003 0.0022,-0.008 0.0035,-0.0122 8.75e-4,-0.003 0.0022,-0.008 0.0035,-0.0121 8.89e-4,-0.003 0.0022,-0.008 0.0036,-0.0121 9.03e-4,-0.003 0.0023,-0.008 0.0036,-0.0121 9.19e-4,-0.003 0.0023,-0.008 0.0037,-0.0121 9.33e-4,-0.003 0.0023,-0.008 0.0037,-0.0121 9.47e-4,-0.003 0.0024,-0.008 0.0038,-0.012 9.61e-4,-0.003 0.0024,-0.008 0.0038,-0.012 9.77e-4,-0.003 0.0024,-0.007 0.0039,-0.012 9.91e-4,-0.003 0.0025,-0.007 0.004,-0.012 0.001,-0.003 0.0025,-0.007 0.004,-0.0119 0.001,-0.003 0.0025,-0.007 0.0041,-0.0119 0.001,-0.003 0.0026,-0.007 0.0041,-0.0119 0.001,-0.003 0.0026,-0.007 0.0042,-0.0119 0.0011,-0.003 0.0027,-0.007 0.0042,-0.0119 0.0011,-0.003 0.0027,-0.007 0.0043,-0.0119 0.0011,-0.003 0.0027,-0.007 0.0044,-0.0118 0.0011,-0.003 0.0028,-0.007 0.0044,-0.0118 0.0011,-0.003 0.0028,-0.007 0.0045,-0.0118 0.0011,-0.003 0.0028,-0.007 0.0045,-0.0118 0.0012,-0.003 0.0029,-0.007 0.0046,-0.0118 0.0012,-0.003 0.0029,-0.007 0.0046,-0.0117 0.0012,-0.003 0.0029,-0.007 0.0047,-0.0117 0.0012,-0.003 0.003,-0.007 0.0047,-0.0117 0.0012,-0.003 0.003,-0.007 0.0048,-0.0117 0.0012,-0.003 0.003,-0.007 0.0049,-0.0117 0.0012,-0.003 0.0031,-0.007 0.0049,-0.0117 0.0013,-0.003 0.0031,-0.007 0.005,-0.0116 0.0013,-0.003 0.0031,-0.007 0.005,-0.0116 0.0013,-0.003 0.0032,-0.007 0.0051,-0.0116 0.0013,-0.003 0.0032,-0.007 0.0051,-0.0116 0.0013,-0.003 0.0033,-0.007 0.0052,-0.0116 0.0013,-0.003 0.0033,-0.007 0.0052,-0.0116 0.0014,-0.003 0.0033,-0.007 0.0053,-0.0115 0.0014,-0.003 0.0034,-0.007 0.0053,-0.0115 0.0014,-0.003 0.0034,-0.007 0.0054,-0.0115 0.0014,-0.003 0.0034,-0.007 0.0055,-0.0115 0.0014,-0.003 0.0035,-0.007 0.0055,-0.0115 0.0014,-0.003 0.0035,-0.007 0.0056,-0.0115 0.0015,-0.003 0.0035,-0.007 0.0056,-0.0115 0.0015,-0.003 0.0036,-0.007 0.0057,-0.0114 0.0015,-0.003 0.0036,-0.007 0.0057,-0.0114 0.0015,-0.003 0.0036,-0.007 0.0058,-0.0114 0.0015,-0.003 0.0037,-0.007 0.0058,-0.0114 0.0015,-0.003 0.0037,-0.007 0.0059,-0.0114 0.0016,-0.003 0.0038,-0.007 0.006,-0.0114 0.0016,-0.003 0.0038,-0.007 0.006,-0.0114 0.0016,-0.003 0.0038,-0.007 0.0061,-0.0114 0.0016,-0.003 0.0039,-0.007 0.0061,-0.0114 0.0016,-0.003 0.0039,-0.007 0.0062,-0.0114 0.0016,-0.003 0.0039,-0.007 0.0062,-0.0113 0.0017,-0.003 0.004,-0.007 0.0063,-0.0113 0.0017,-0.003 0.004,-0.007 0.0063,-0.0113 0.0017,-0.003 0.004,-0.007 0.0064,-0.0113 0.0017,-0.003 0.0041,-0.007 0.0064,-0.0113 0.0017,-0.003 0.0041,-0.007 0.0065,-0.0113 0.0017,-0.003 0.0041,-0.007 0.0066,-0.0113 0.0018,-0.003 0.0042,-0.007 0.0066,-0.0113 0.0018,-0.003 0.0042,-0.007 0.0067,-0.0113 0.0018,-0.003 0.0043,-0.007 0.0067,-0.0112 0.0018,-0.003 0.0043,-0.007 0.0068,-0.0112 0.0018,-0.003 0.0043,-0.007 0.0068,-0.0112 0.0018,-0.003 0.0044,-0.007 0.0069,-0.0112 0.0019,-0.003 0.0044,-0.007 0.0069,-0.0112 0.0019,-0.003 0.0044,-0.007 0.007,-0.0112 0.0019,-0.003 0.0045,-0.007 0.007,-0.0112 0.0019,-0.003 0.0045,-0.007 0.0071,-0.0112 0.0019,-0.003 0.0045,-0.007 0.0071,-0.0112 0.002,-0.003 0.0046,-0.007 0.0072,-0.0112 0.002,-0.003 0.0046,-0.007 0.0073,-0.0112 0.002,-0.003 0.0047,-0.007 0.0073,-0.0112 0.002,-0.003 0.0047,-0.007 0.0074,-0.0111 0.002,-0.003 0.0047,-0.007 0.0074,-0.0111 0.002,-0.003 0.0048,-0.007 0.0075,-0.0111 0.0021,-0.003 0.0048,-0.007 0.0075,-0.0111 0.0021,-0.003 0.0048,-0.007 0.0076,-0.0111 0.0021,-0.003 0.0049,-0.007 0.0076,-0.0111 0.0021,-0.003 0.0049,-0.007 0.0077,-0.0111 0.0021,-0.003 0.0049,-0.007 0.0077,-0.0111 0.0022,-0.003 0.005,-0.007 0.0078,-0.0111 0.0022,-0.003 0.005,-0.007 0.0078,-0.0111 0.0022,-0.003 0.0051,-0.007 0.0079,-0.0111 0.0022,-0.003 0.0051,-0.007 0.008,-0.0111 0.0022,-0.003 0.0051,-0.007 0.008,-0.0111 0.0023,-0.003 0.0052,-0.007 0.0081,-0.0111 0.0023,-0.003 0.0052,-0.007 0.0081,-0.0111 0.0023,-0.003 0.0052,-0.007 0.0082,-0.011 0.0023,-0.003 0.0053,-0.007 0.0082,-0.011 0.0023,-0.003 0.0053,-0.007 0.0083,-0.011 0.0023,-0.003 0.0053,-0.007 0.0083,-0.011 0.0024,-0.003 0.0054,-0.007 0.0084,-0.011 0.0024,-0.003 0.0054,-0.007 0.0084,-0.011 0.0024,-0.003 0.0054,-0.007 0.0085,-0.011 0.0024,-0.003 0.0055,-0.007 0.0085,-0.011 0.0024,-0.003 0.0055,-0.007 0.0086,-0.011 0.0025,-0.003 0.0056,-0.007 0.0086,-0.011 0.0025,-0.003 0.0056,-0.007 0.0087,-0.011 0.0025,-0.003 0.0056,-0.007 0.0087,-0.011 0.0025,-0.003 0.0057,-0.007 0.0088,-0.011 0.0025,-0.003 0.0057,-0.007 0.0088,-0.011 0.0026,-0.003 0.0057,-0.007 0.0089,-0.011 0.0026,-0.003 0.0058,-0.007 0.0089,-0.011 0.0026,-0.003 0.0058,-0.007 0.009,-0.011 0.0026,-0.003 0.0058,-0.007 0.009,-0.011 0.0026,-0.003 0.0059,-0.007 0.0091,-0.011 0.0027,-0.003 0.0059,-0.007 0.0092,-0.011 0.0027,-0.003 0.0059,-0.007 0.0092,-0.011 0.0027,-0.003 0.006,-0.007 0.0093,-0.011 0.0027,-0.003 0.006,-0.007 0.0093,-0.011 0.0027,-0.003 0.0061,-0.007 0.0094,-0.011 0.0027,-0.003 0.0061,-0.007 0.0094,-0.0109 0.0028,-0.003 0.0061,-0.007 0.0095,-0.0109 0.0028,-0.003 0.0062,-0.007 0.0095,-0.0109 0.0028,-0.003 0.0062,-0.007 0.0096,-0.0109 0.0028,-0.003 0.0062,-0.007 0.0096,-0.0109 0.0028,-0.003 0.0063,-0.007 0.0097,-0.0109 0.0029,-0.003 0.0063,-0.007 0.0097,-0.0109 0.0029,-0.003 0.0063,-0.007 0.0098,-0.0109 0.0029,-0.003 0.0064,-0.007 0.0098,-0.0109 0.0029,-0.003 0.0064,-0.007 0.0099,-0.0109 0.0029,-0.003 0.0064,-0.007 0.0099,-0.0109 0.003,-0.003 0.0065,-0.007 0.01,-0.0109 0.003,-0.003 0.0065,-0.007 0.01001,-0.0109 0.003,-0.003 0.0065,-0.007 0.01006,-0.0109 0.003,-0.003 0.0066,-0.007 0.01011,-0.0109 0.003,-0.003 0.0066,-0.007 0.01016,-0.0109 0.0031,-0.003 0.0067,-0.007 0.01021,-0.0109 0.0031,-0.003 0.0067,-0.007 0.01026,-0.0109 0.0031,-0.003 0.0067,-0.007 0.0103,-0.0109 0.0031,-0.003 0.0068,-0.007 0.01035,-0.0109 0.0032,-0.003 0.0068,-0.007 0.0104,-0.0109 0.0032,-0.003 0.0068,-0.007 0.01045,-0.0109 0.0032,-0.003 0.0069,-0.007 0.0105,-0.0109 0.0032,-0.003 0.0069,-0.007 0.01055,-0.0109 0.0033,-0.003 0.007,-0.007 0.0106,-0.0109 0.0033,-0.003 0.007,-0.007 0.01064,-0.0109 0.0033,-0.003 0.007,-0.007 0.01069,-0.0109 l -0.0048,-0.47034 -0.470343,0.005 c -0.0036,0.004 -0.0074,0.008 -0.01121,0.0114 -0.0042,0.004 -0.0079,0.008 -0.01169,0.012 -0.0042,0.004 -0.0079,0.008 -0.01165,0.012 -0.0042,0.004 -0.0078,0.008 -0.01161,0.012 -0.0042,0.004 -0.0078,0.008 -0.01157,0.012 -0.0041,0.004 -0.0078,0.008 -0.01153,0.012 -0.0041,0.004 -0.0078,0.008 -0.01149,0.0121 -0.0041,0.004 -0.0078,0.008 -0.01144,0.0121 -0.0041,0.004 -0.0077,0.008 -0.0114,0.0121 -0.0041,0.004 -0.0077,0.008 -0.01136,0.0121 -0.0041,0.004 -0.0077,0.008 -0.01132,0.0121 -0.0041,0.004 -0.0077,0.008 -0.01128,0.0121 -0.0041,0.004 -0.0076,0.008 -0.01123,0.0121 -0.0041,0.004 -0.0076,0.008 -0.01119,0.0121 -0.0041,0.004 -0.0076,0.008 -0.01115,0.0122 -0.0041,0.004 -0.0076,0.008 -0.0111,0.0122 -0.004,0.004 -0.0075,0.008 -0.01106,0.0122 -0.004,0.004 -0.0075,0.008 -0.01102,0.0122 -0.004,0.004 -0.0075,0.008 -0.01097,0.0122 -0.004,0.004 -0.0075,0.008 -0.01093,0.0122 -0.004,0.004 -0.0074,0.008 -0.01089,0.0123 -0.004,0.005 -0.0074,0.008 -0.01084,0.0123 -0.004,0.005 -0.0074,0.008 -0.0108,0.0123 -0.004,0.005 -0.0073,0.008 -0.01075,0.0123 -0.0039,0.005 -0.0073,0.008 -0.01071,0.0123 -0.0039,0.005 -0.0073,0.008 -0.01066,0.0123 -0.0039,0.005 -0.0073,0.008 -0.01062,0.0123 -0.0039,0.005 -0.0072,0.008 -0.01057,0.0124 -0.0039,0.005 -0.0072,0.008 -0.01053,0.0124 -0.0039,0.005 -0.0072,0.008 -0.01048,0.0124 -0.0039,0.005 -0.0071,0.009 -0.01044,0.0124 -0.0039,0.005 -0.0071,0.009 -0.01039,0.0125 -0.0038,0.005 -0.0071,0.009 -0.01035,0.0125 -0.0038,0.005 -0.0071,0.009 -0.0103,0.0125 -0.0038,0.005 -0.007,0.009 -0.01025,0.0125 -0.0038,0.005 -0.007,0.009 -0.01021,0.0125 -0.0038,0.005 -0.007,0.009 -0.01016,0.0126 -0.0038,0.005 -0.0069,0.009 -0.01011,0.0126 -0.0038,0.005 -0.0069,0.009 -0.01006,0.0126 -0.0038,0.005 -0.0069,0.009 -0.01002,0.0126 -0.0037,0.005 -0.0068,0.009 -0.01,0.0126 -0.0037,0.005 -0.0068,0.009 -0.0099,0.0126 -0.0037,0.005 -0.0068,0.009 -0.0099,0.0127 -0.0037,0.005 -0.0068,0.009 -0.0098,0.0127 -0.0037,0.005 -0.0067,0.009 -0.0098,0.0127 -0.0037,0.005 -0.0067,0.009 -0.0097,0.0127 -0.0037,0.005 -0.0067,0.009 -0.0097,0.0127 -0.0036,0.005 -0.0066,0.009 -0.0096,0.0128 -0.0036,0.005 -0.0066,0.009 -0.0096,0.0128 -0.0036,0.005 -0.0066,0.009 -0.0095,0.0128 -0.0036,0.005 -0.0065,0.009 -0.0095,0.0128 -0.0036,0.005 -0.0065,0.009 -0.0094,0.0128 -0.0036,0.005 -0.0065,0.009 -0.0094,0.0129 -0.0035,0.005 -0.0064,0.009 -0.0093,0.0129 -0.0035,0.005 -0.0064,0.009 -0.0093,0.0129 -0.0035,0.005 -0.0064,0.009 -0.0092,0.013 -0.0035,0.005 -0.0063,0.009 -0.0092,0.013 -0.0035,0.005 -0.0063,0.009 -0.0091,0.013 -0.0035,0.005 -0.0063,0.009 -0.0091,0.013 -0.0034,0.005 -0.0062,0.009 -0.009,0.013 -0.0034,0.005 -0.0062,0.009 -0.009,0.0131 -0.0034,0.005 -0.0062,0.009 -0.0089,0.0131 -0.0034,0.005 -0.0061,0.009 -0.0089,0.0131 -0.0034,0.005 -0.0061,0.009 -0.0088,0.0131 -0.0034,0.005 -0.0061,0.009 -0.0088,0.0132 -0.0033,0.005 -0.006,0.009 -0.0087,0.0132 -0.0033,0.005 -0.006,0.009 -0.0087,0.0132 -0.0033,0.005 -0.006,0.009 -0.0086,0.0132 -0.0033,0.005 -0.0059,0.009 -0.0085,0.0132 -0.0033,0.005 -0.0059,0.009 -0.0085,0.0133 -0.0033,0.005 -0.0058,0.009 -0.0084,0.0133 -0.0032,0.005 -0.0058,0.009 -0.0084,0.0133 -0.0032,0.005 -0.0058,0.009 -0.0083,0.0134 -0.0032,0.005 -0.0057,0.009 -0.0083,0.0134 -0.0032,0.005 -0.0057,0.009 -0.0082,0.0134 -0.0032,0.005 -0.0057,0.009 -0.0082,0.0134 -0.0031,0.005 -0.0056,0.009 -0.0081,0.0135 -0.0031,0.005 -0.0056,0.009 -0.0081,0.0135 -0.0031,0.005 -0.0056,0.009 -0.008,0.0135 -0.0031,0.005 -0.0055,0.009 -0.0079,0.0135 -0.0031,0.005 -0.0055,0.009 -0.0079,0.0136 -0.0031,0.005 -0.0054,0.009 -0.0078,0.0136 -0.003,0.005 -0.0054,0.009 -0.0078,0.0136 -0.003,0.005 -0.0054,0.009 -0.0077,0.0137 -0.003,0.005 -0.0053,0.01 -0.0077,0.0137 -0.003,0.005 -0.0053,0.01 -0.0076,0.0137 -0.003,0.005 -0.0052,0.01 -0.0075,0.0137 -0.0029,0.005 -0.0052,0.01 -0.0075,0.0138 -0.0029,0.005 -0.0052,0.01 -0.0074,0.0138 -0.0029,0.005 -0.0051,0.01 -0.0074,0.0138 -0.0029,0.005 -0.0051,0.01 -0.0073,0.0138 -0.0028,0.005 -0.005,0.01 -0.0072,0.0139 -0.0028,0.005 -0.005,0.01 -0.0072,0.0139 -0.0028,0.005 -0.005,0.01 -0.0071,0.0139 -0.0028,0.005 -0.0049,0.01 -0.0071,0.014 -0.0028,0.006 -0.0049,0.01 -0.007,0.014 -0.0027,0.006 -0.0048,0.01 -0.0069,0.014 -0.0027,0.006 -0.0048,0.01 -0.0069,0.014 -0.0027,0.006 -0.0048,0.01 -0.0068,0.0141 -0.0027,0.006 -0.0047,0.01 -0.0068,0.0141 -0.0026,0.006 -0.0047,0.01 -0.0067,0.0141 -0.0026,0.006 -0.0046,0.01 -0.0066,0.0142 -0.0026,0.006 -0.0046,0.01 -0.0066,0.0142 -0.0026,0.006 -0.0046,0.01 -0.0065,0.0142 -0.0026,0.006 -0.0045,0.01 -0.0065,0.0143 -0.0025,0.006 -0.0045,0.01 -0.0064,0.0143 -0.0025,0.006 -0.0044,0.01 -0.0063,0.0143 -0.0025,0.006 -0.0044,0.01 -0.0063,0.0144 -0.0025,0.006 -0.0043,0.01 -0.0062,0.0144 -0.0024,0.006 -0.0043,0.0101 -0.0061,0.0144 -0.0024,0.006 -0.0042,0.0101 -0.0061,0.0144 -0.0024,0.006 -0.0042,0.0101 -0.006,0.0145 -0.0024,0.006 -0.0042,0.0101 -0.0059,0.0145 -0.0023,0.006 -0.0041,0.0102 -0.0059,0.0145 -0.0023,0.006 -0.0041,0.0102 -0.0058,0.0146 -0.0023,0.006 -0.004,0.0102 -0.0058,0.0146 -0.0023,0.006 -0.004,0.0102 -0.0057,0.0146 -0.0022,0.006 -0.0039,0.0102 -0.0056,0.0146 -0.0022,0.006 -0.0039,0.0103 -0.0056,0.0147 -0.0022,0.006 -0.0038,0.0103 -0.0055,0.0147 -0.0022,0.006 -0.0038,0.0103 -0.0054,0.0147 -0.0021,0.006 -0.0037,0.0103 -0.0054,0.0148 -0.0021,0.006 -0.0037,0.0103 -0.0053,0.0148 -0.0021,0.006 -0.0037,0.0104 -0.0052,0.0148 -0.0021,0.006 -0.0036,0.0104 -0.0052,0.0149 -0.002,0.006 -0.0036,0.0104 -0.0051,0.0149 -0.002,0.006 -0.0035,0.0104 -0.005,0.0149 -0.002,0.006 -0.0035,0.0105 -0.0049,0.0149 -0.002,0.006 -0.0034,0.0105 -0.0049,0.015 -0.0019,0.006 -0.0034,0.0105 -0.0048,0.015 -0.0019,0.006 -0.0033,0.0105 -0.0047,0.0151 -0.0019,0.006 -0.0033,0.0106 -0.0047,0.0151 -0.0018,0.006 -0.0032,0.0106 -0.0046,0.0151 -0.0018,0.006 -0.0032,0.0106 -0.0045,0.0152 -0.0018,0.006 -0.0031,0.0106 -0.0045,0.0152 -0.0018,0.006 -0.0031,0.0107 -0.0044,0.0152 -0.0017,0.006 -0.003,0.0107 -0.0043,0.0152 -0.0017,0.006 -0.003,0.0107 -0.0043,0.0153 -0.0017,0.006 -0.0029,0.0107 -0.0042,0.0153 -0.0017,0.006 -0.0029,0.0107 -0.0041,0.0153 -0.0016,0.006 -0.0028,0.0108 -0.004,0.0154 -0.0016,0.006 -0.0028,0.0108 -0.004,0.0154 -0.0016,0.006 -0.0027,0.0108 -0.0039,0.0154 -0.0015,0.006 -0.0027,0.0108 -0.0038,0.0155 -0.0015,0.006 -0.0026,0.0109 -0.0038,0.0155 -0.0015,0.006 -0.0026,0.0109 -0.0037,0.0155 -0.0015,0.006 -0.0025,0.0109 -0.0036,0.0156 -0.0014,0.006 -0.0025,0.0109 -0.0035,0.0156 -0.0014,0.006 -0.0024,0.0109 -0.0035,0.0156 -0.0014,0.006 -0.0024,0.011 -0.0034,0.0156 -0.0013,0.006 -0.0023,0.011 -0.0033,0.0157 -0.0013,0.006 -0.0023,0.011 -0.0032,0.0157 -0.0013,0.006 -0.0022,0.011 -0.0032,0.0157 -0.0012,0.006 -0.0022,0.0111 -0.0031,0.0158 -0.0012,0.006 -0.0021,0.0111 -0.003,0.0158 -0.0012,0.006 -0.0021,0.0111 -0.003,0.0158 -0.0012,0.006 -0.002,0.0111 -0.0029,0.0159 -0.0011,0.006 -0.002,0.0112 -0.0028,0.0159 -0.0011,0.006 -0.0019,0.0112 -0.0027,0.0159 -0.0011,0.006 -0.0019,0.0112 -0.0027,0.016 -0.001,0.006 -0.0018,0.0112 -0.0026,0.016 -0.001,0.006 -0.0018,0.0112 -0.0025,0.016 -9.77e-4,0.006 -0.0017,0.0113 -0.0024,0.0161 -9.47e-4,0.006 -0.0017,0.0113 -0.0024,0.0161 -9.17e-4,0.006 -0.0016,0.0113 -0.0023,0.0161 -8.87e-4,0.006 -0.0015,0.0113 -0.0022,0.0162 -8.56e-4,0.006 -0.0015,0.0113 -0.0021,0.0162 -8.25e-4,0.006 -0.0014,0.0114 -0.0021,0.0162 -7.95e-4,0.006 -0.0014,0.0114 -0.002,0.0163 -7.64e-4,0.007 -0.0013,0.0114 -0.0019,0.0163 -7.33e-4,0.007 -0.0013,0.0114 -0.0018,0.0163 -7.03e-4,0.007 -0.0012,0.0114 -0.0018,0.0163 -6.72e-4,0.007 -0.0012,0.0115 -0.0017,0.0164 -6.41e-4,0.007 -0.0011,0.0115 -0.0016,0.0164 -6.11e-4,0.007 -0.0011,0.0115 -0.0015,0.0164 -5.79e-4,0.007 -0.001,0.0115 -0.0014,0.0165 -5.49e-4,0.007 -9.6e-4,0.0116 -0.0014,0.0165 -5.18e-4,0.007 -9.06e-4,0.0116 -0.0013,0.0165 -4.87e-4,0.007 -8.52e-4,0.0116 -0.0012,0.0165 -4.56e-4,0.007 -7.97e-4,0.0116 -0.0011,0.0166 -4.25e-4,0.007 -7.44e-4,0.0116 -0.0011,0.0166 -3.94e-4,0.007 -6.9e-4,0.0117 -9.83e-4,0.0166 -3.63e-4,0.007 -6.35e-4,0.0117 -9.05e-4,0.0167 -3.32e-4,0.007 -5.81e-4,0.0117 -8.28e-4,0.0167 -3e-4,0.007 -5.26e-4,0.0117 -7.49e-4,0.0168 -2.7e-4,0.007 -4.72e-4,0.0118 -6.72e-4,0.0168 -2.39e-4,0.007 -4.17e-4,0.0118 -5.94e-4,0.0168 -2.07e-4,0.007 -3.62e-4,0.0118 -5.16e-4,0.0168 -1.76e-4,0.007 -3.07e-4,0.0118 -4.37e-4,0.0169 -1.78e-4,0.008 -2.69e-4,0.0126 -3.59e-4,0.0169 -1.13e-4,0.007 -1.97e-4,0.0118 -2.81e-4,0.0169 -8.2e-5,0.007 -1.43e-4,0.0118 -2.03e-4,0.017 -5.1e-5,0.007 -8.7e-5,0.0119 -1.24e-4,0.017 -2e-5,0.007 -3.2e-5,0.0119 -4.5e-5,0.017 1.1e-5,0.007 2.2e-5,0.0119 3.3e-5,0.0171 4.2e-5,0.007 7.8e-5,0.0119 1.13e-4,0.0171 7.3e-5,0.007 1.32e-4,0.0119 1.91e-4,0.0171 1.04e-4,0.007 1.87e-4,0.012 2.7e-4,0.0172 1.35e-4,0.007 2.42e-4,0.012 3.49e-4,0.0172 1.66e-4,0.007 2.97e-4,0.012 4.28e-4,0.0172 1.97e-4,0.007 3.52e-4,0.012 5.08e-4,0.0173 2.27e-4,0.007 4.07e-4,0.012 5.86e-4,0.0173 2.59e-4,0.007 4.63e-4,0.0121 6.66e-4,0.0173 2.9e-4,0.007 5.18e-4,0.0121 7.46e-4,0.0174 3.2e-4,0.007 5.73e-4,0.0121 8.25e-4,0.0174 3.51e-4,0.007 6.28e-4,0.0121 9.05e-4,0.0174 3.82e-4,0.007 6.83e-4,0.0121 9.84e-4,0.0175 4.13e-4,0.007 7.39e-4,0.0122 0.0011,0.0175 4.43e-4,0.007 7.94e-4,0.0122 0.0011,0.0175 4.75e-4,0.007 8.5e-4,0.0122 0.0012,0.0175 5.05e-4,0.007 9.05e-4,0.0122 0.0013,0.0176 5.37e-4,0.007 9.61e-4,0.0122 0.0014,0.0176 5.67e-4,0.007 0.001,0.0123 0.0015,0.0177 5.98e-4,0.007 0.0011,0.0123 0.0015,0.0177 6.28e-4,0.007 0.0011,0.0123 0.0016,0.0177 6.59e-4,0.007 0.0012,0.0123 0.0017,0.0177 6.89e-4,0.007 0.0012,0.0123 0.0018,0.0178 7.2e-4,0.007 0.0013,0.0124 0.0019,0.0178 7.51e-4,0.007 0.0013,0.0124 0.0019,0.0179 7.81e-4,0.007 0.0014,0.0124 0.002,0.0179 8.11e-4,0.007 0.0015,0.0124 0.0021,0.0179 8.42e-4,0.007 0.0015,0.0125 0.0022,0.0179 8.72e-4,0.007 0.0016,0.0125 0.0023,0.018 9.03e-4,0.007 0.0016,0.0125 0.0023,0.018 9.34e-4,0.007 0.0017,0.0125 0.0024,0.0181 9.64e-4,0.007 0.0017,0.0125 0.0025,0.0181 9.95e-4,0.007 0.0018,0.0125 0.0026,0.0181 0.001,0.007 0.0019,0.0126 0.0027,0.0182 0.0011,0.007 0.0019,0.0126 0.0028,0.0182 0.0011,0.007 0.002,0.0126 0.0028,0.0182 0.0011,0.007 0.002,0.0127 0.0029,0.0183 0.0011,0.007 0.0021,0.0127 0.003,0.0183 0.0012,0.007 0.0021,0.0127 0.0031,0.0183 0.0012,0.007 0.0022,0.0127 0.0032,0.0184 0.0012,0.007 0.0022,0.0127 0.0032,0.0184 0.0013,0.007 0.0023,0.0128 0.0033,0.0184 0.0013,0.007 0.0024,0.0128 0.0034,0.0185 0.0013,0.007 0.0024,0.0128 0.0035,0.0185 0.0014,0.007 0.0025,0.0128 0.0036,0.0185 0.0014,0.007 0.0025,0.0129 0.0036,0.0186 0.0014,0.007 0.0026,0.0129 0.0037,0.0186 0.0015,0.007 0.0026,0.0129 0.0038,0.0187 0.0015,0.007 0.0027,0.0129 0.0039,0.0187 0.0015,0.007 0.0028,0.013 0.004,0.0187 0.0015,0.007 0.0028,0.013 0.0041,0.0188 0.0016,0.007 0.0029,0.013 0.0041,0.0188 0.0016,0.007 0.0029,0.013 0.0042,0.0188 0.0016,0.007 0.003,0.0131 0.0043,0.0189 0.0017,0.007 0.003,0.0131 0.0044,0.0189 0.0017,0.007 0.0031,0.0131 0.0045,0.0189 0.0017,0.007 0.0032,0.0132 0.0046,0.019 0.0018,0.007 0.0032,0.0132 0.0046,0.019 0.0018,0.007 0.0033,0.0132 0.0047,0.019 0.0018,0.007 0.0033,0.0133 0.0048,0.0191 0.0019,0.007 0.0034,0.0134 0.0049,0.0191 0.0019,0.007 0.0035,0.0134 0.005,0.0192 l 0.405391,0.23855 z"
       id="path-1"
       inkscape:path-effect="#path-effect3;#path-effect4"
       inkscape:original-d="m 59.226187,227.09636 c -0.401781,-1.5394 0.0741,-2.58128 1.032953,-3.55783"
       style="font-variation-settings:normal;opacity:1;vector-effect:none;fill:#000000;fill-opacity:1;fill-rule:nonzero;stroke:none;stroke-width:1.00157;stroke-linecap:square;stroke-linejoin:bevel;stroke-miterlimit:5.9;stroke-dasharray:none;stroke-dashoffset:0;stroke-opacity:1;-inkscape-stroke:none;marker-start:none;marker-end:none;paint-order:markers stroke fill;stop-color:#000000;stop-opacity:1"
       transform="translate(2.9833898,-11.209183)" />
    <text
       style="font-size:1.60658px;font-family:monospace;-inkscape-font-specification:'monospace, Normal';fill:#000000;fill-opacity:1;stroke:none;stroke-width:0.160658"
       xml:space="preserve"
       id="text1"
       y="80.881836"
       x="154.4642"
       transform="scale(0.37796704,2.6457333)"><tspan
         sodipodi:role="line"
         id="tspan1"
         x="154.4642"
         y="80.881836"
         style="stroke-width:0.160658">$\theta $</tspan></text>
    <path
       style="fill:none;stroke:#000000;stroke-width:0.264583px;stroke-linecap:butt;stroke-linejoin:miter;stroke-opacity:1"
       d="M 25.396298,198.94497 H 41.778403"
       id="path4" />
    <text
       style="font-size:2.0497px;font-family:monospace;-inkscape-font-specification:'monospace, Normal';fill:#000000;fill-opacity:1;stroke:none;stroke-width:0.20497"
       xml:space="preserve"
       id="text1-3"
       y="153.18689"
       x="43.005577"
       transform="scale(0.75443428,1.3254965)"><tspan
         sodipodi:role="line"
         id="tspan1-6"
         x="43.005577"
         y="153.18689"
         style="stroke-width:0.20497">$\ell$</tspan></text>
    <text
       style="font-size:1.57697px;font-family:monospace;-inkscape-font-specification:'monospace, Normal';fill:#000000;fill-opacity:1;stroke:none;stroke-width:0.157697"
       xml:space="preserve"
       id="text1-7"
       y="134.67165"
       x="29.62285"
       transform="scale(0.66414984,1.5056843)"><tspan
         sodipodi:role="line"
         id="tspan1-5"
         x="29.62285"
         y="134.67165"
         style="stroke-width:0.157697">$h_{2}$</tspan></text>
    <text
       style="font-size:1.57697px;font-family:monospace;-inkscape-font-specification:'monospace, Normal';fill:#000000;fill-opacity:1;stroke:none;stroke-width:0.157697"
       xml:space="preserve"
       id="text4"
       y="138.6664"
       x="64.541"
       transform="scale(0.66414984,1.5056843)"><tspan
         sodipodi:role="line"
         x="64.541"
         y="138.6664"
         style="stroke-width:0.157697"
         id="tspan5">$h_{1}$</tspan></text>
    <circle
       style="fill:none;fill-opacity:1;fill-rule:evenodd;stroke:#000000;stroke-width:0.264999;stroke-linecap:round;stroke-linejoin:bevel;stroke-miterlimit:5.9;stroke-dasharray:0.53, 0.264999;stroke-dashoffset:0;stroke-opacity:1;paint-order:markers stroke fill"
       id="path6"
       cx="22.977198"
       cy="182.50502"
       r="3.916784" />
    <path
       style="fill:none;stroke:#000000;stroke-width:0.265;stroke-linecap:butt;stroke-linejoin:miter;stroke-dasharray:none;stroke-opacity:1;marker-end:url(#ArrowWide)"
       d="m 26.202578,185.04523 17.729063,10.23588"
       id="path7" />
  </g>
</svg>
