<?xml version="1.0" encoding="UTF-8" standalone="no"?>
<!-- Created with Inkscape (http://www.inkscape.org/) -->

<svg
   width="3in"
   height="2in"
   viewBox="0 0 76.2 50.8"
   version="1.1"
   id="svg8"
   inkscape:version="1.3 (0e150ed6c4, 2023-07-21)"
   sodipodi:docname="grapher1.svg"
   xmlns:inkscape="http://www.inkscape.org/namespaces/inkscape"
   xmlns:sodipodi="http://sodipodi.sourceforge.net/DTD/sodipodi-0.dtd"
   xmlns="http://www.w3.org/2000/svg"
   xmlns:svg="http://www.w3.org/2000/svg"
   xmlns:rdf="http://www.w3.org/1999/02/22-rdf-syntax-ns#"
   xmlns:cc="http://creativecommons.org/ns#"
   xmlns:dc="http://purl.org/dc/elements/1.1/">
  <defs
     id="defs2">
    <inkscape:path-effect
       effect="powerstroke"
       id="path-effect9"
       is_visible="true"
       lpeversion="1.3"
       scale_width="1"
       interpolator_type="CentripetalCatmullRom"
       interpolator_beta="0.75"
       start_linecap_type="peak"
       end_linecap_type="peak"
       offset_points="4.3413093,0.067408094"
       linejoin_type="spiro"
       miter_limit="4"
       not_jump="true"
       sort_points="true"
       message="&lt;b&gt;Ctrl + click&lt;/b&gt; on existing node and move it" />
    <inkscape:path-effect
       effect="simplify"
       id="path-effect8"
       is_visible="true"
       lpeversion="1.3"
       threshold="0.11261538"
       steps="1"
       smooth_angles="0"
       helper_size="0"
       simplify_individual_paths="false"
       simplify_just_coalesce="false"
       step="1" />
    <inkscape:path-effect
       effect="powerstroke"
       id="path-effect7"
       is_visible="true"
       lpeversion="1.3"
       scale_width="1"
       interpolator_type="CentripetalCatmullRom"
       interpolator_beta="0.75"
       start_linecap_type="peak"
       end_linecap_type="peak"
       offset_points="2.4283592,0.13350963"
       linejoin_type="spiro"
       miter_limit="4"
       not_jump="true"
       sort_points="true"
       message="&lt;b&gt;Ctrl + click&lt;/b&gt; on existing node and move it" />
    <inkscape:path-effect
       effect="simplify"
       id="path-effect6"
       is_visible="true"
       lpeversion="1.3"
       threshold="0.11261538"
       steps="1"
       smooth_angles="0"
       helper_size="0"
       simplify_individual_paths="false"
       simplify_just_coalesce="false"
       step="1" />
    <inkscape:path-effect
       effect="powerstroke"
       id="path-effect5"
       is_visible="true"
       lpeversion="1.3"
       scale_width="1"
       interpolator_type="CentripetalCatmullRom"
       interpolator_beta="0.75"
       start_linecap_type="peak"
       end_linecap_type="peak"
       offset_points="2.5770321,0.26963238"
       linejoin_type="spiro"
       miter_limit="4"
       not_jump="true"
       sort_points="true"
       message="&lt;b&gt;Ctrl + click&lt;/b&gt; on existing node and move it" />
    <inkscape:path-effect
       effect="simplify"
       id="path-effect4"
       is_visible="true"
       lpeversion="1.3"
       threshold="0.11261538"
       steps="1"
       smooth_angles="0"
       helper_size="0"
       simplify_individual_paths="false"
       simplify_just_coalesce="false"
       step="1" />
    <inkscape:path-effect
       effect="powerstroke"
       id="path-effect3"
       is_visible="true"
       lpeversion="1.3"
       scale_width="1"
       interpolator_type="CentripetalCatmullRom"
       interpolator_beta="0.75"
       start_linecap_type="peak"
       end_linecap_type="peak"
       offset_points="33.524947,0.26963238"
       linejoin_type="spiro"
       miter_limit="4"
       not_jump="true"
       sort_points="true"
       message="&lt;b&gt;Ctrl + click&lt;/b&gt; on existing node and move it" />
    <inkscape:path-effect
       effect="simplify"
       id="path-effect2"
       is_visible="true"
       lpeversion="1.3"
       threshold="0.11261538"
       steps="1"
       smooth_angles="0"
       helper_size="0"
       simplify_individual_paths="false"
       simplify_just_coalesce="false"
       step="1" />
  </defs>
  <sodipodi:namedview
     id="base"
     pagecolor="#ffffff"
     bordercolor="#666666"
     borderopacity="1.0"
     inkscape:pageopacity="0.0"
     inkscape:pageshadow="2"
     inkscape:zoom="2.775463"
     inkscape:cx="187.71643"
     inkscape:cy="90.255212"
     inkscape:document-units="mm"
     inkscape:current-layer="layer1"
     showgrid="false"
     showborder="true"
     width="200mm"
     showguides="true"
     inkscape:guide-bbox="true"
     inkscape:window-width="935"
     inkscape:window-height="1022"
     inkscape:window-x="967"
     inkscape:window-y="40"
     inkscape:window-maximized="1"
     inkscape:showpageshadow="2"
     inkscape:pagecheckerboard="0"
     inkscape:deskcolor="#d1d1d1">
    <inkscape:grid
       type="xygrid"
       id="grid815"
       units="mm"
       spacingx="10"
       spacingy="10"
       empspacing="4"
       dotted="false"
       originx="0"
       originy="0"
       visible="false" />
  </sodipodi:namedview>
  <metadata
     id="metadata5">
    <rdf:RDF>
      <cc:Work
         rdf:about="">
        <dc:format>image/svg+xml</dc:format>
        <dc:type
           rdf:resource="http://purl.org/dc/dcmitype/StillImage" />
      </cc:Work>
    </rdf:RDF>
  </metadata>
  <g
     inkscape:label="Layer 1"
     inkscape:groupmode="layer"
     id="layer1"
     transform="translate(0,-177)">
    <path
       style="fill:none;stroke:#000000;stroke-width:0.264583px;stroke-linecap:butt;stroke-linejoin:miter;stroke-opacity:1"
       d="m 17.641567,190.77409 27.050526,2.59001 13.09728,8.17834 -9.110427,17.85819"
       id="path1" />
    <path
       style="fill:none;stroke:#000000;stroke-width:0.269436px;stroke-linecap:butt;stroke-linejoin:miter;stroke-opacity:1"
       d="M 44.741311,193.30387 31.040615,212.10771"
       id="path2" />
    <path
       d="m 30.93292,212.08736 c 0.367997,-0.0617 1.332466,-0.2221 2.213604,-0.40066 0.337845,-0.0686 0.766324,-0.15993 1.217332,-0.27254 0.123805,-0.031 0.254492,-0.0648 0.389011,-0.10153 0.150475,-0.0411 0.326956,-0.0916 0.51607,-0.15105 0.04855,-0.0154 0.119872,-0.0378 0.184078,-0.06 0.183817,-0.064 0.370629,-0.14926 0.562112,-0.25769 0.188052,-0.10652 0.373182,-0.2309 0.559952,-0.37299 0.212812,-0.16202 0.418408,-0.33975 0.62595,-0.53278 0.258343,-0.24032 0.501524,-0.48768 0.759199,-0.74899 0.09466,-0.096 0.192711,-0.19501 0.291855,-0.29349 0.197862,-0.19674 0.400514,-0.39603 0.604445,-0.60014 0.337927,-0.33809 0.679138,-0.68792 1.008074,-1.05183 0.207509,-0.22976 0.412482,-0.46748 0.608164,-0.71512 0.143354,-0.18164 0.2827,-0.36967 0.412267,-0.56592 0.0834,-0.12641 0.162919,-0.25669 0.235607,-0.39159 0.140647,-0.2596 0.269084,-0.52482 0.388891,-0.79192 0.146186,-0.32617 0.279761,-0.65588 0.404404,-0.98546 0.173917,-0.46024 0.331446,-0.92307 0.477755,-1.38249 0.199758,-0.62782 0.3806,-1.2563 0.549051,-1.87487 0.188705,-0.69301 0.365262,-1.38863 0.533355,-2.06053 0.05396,-0.21535 0.07214,-0.28885 0.126119,-0.50425 0.08183,-0.32332 0.172235,-0.64922 0.256775,-0.95343 0.151727,-0.54554 0.289618,-1.03604 0.414004,-1.54735 0.08146,-0.33547 0.149065,-0.64712 0.202375,-0.95243 0.04789,-0.2753 0.08033,-0.52333 0.09828,-0.75936 0.01122,-0.14852 0.01515,-0.27395 0.01516,-0.38097 l -0.133497,-0.13352 -0.133523,0.1335 c -1e-5,0.10034 -0.0037,0.21907 -0.0144,0.36081 -0.01716,0.22575 -0.04835,0.4651 -0.09508,0.73369 -0.05202,0.29793 -0.118271,0.60365 -0.198787,0.93522 -0.123122,0.50612 -0.259686,0.99195 -0.411801,1.53888 -0.08444,0.30387 -0.175663,0.63267 -0.258432,0.95969 -0.03436,0.13687 -0.09193,0.36804 -0.126223,0.50466 -0.168001,0.67154 -0.344016,1.36498 -0.531969,2.05523 -0.167792,0.61616 -0.347569,1.24085 -0.545852,1.86403 -0.14524,0.45607 -0.301231,0.91429 -0.473084,1.36907 -0.123168,0.32568 -0.254728,0.65033 -0.398285,0.97064 -0.117672,0.26233 -0.243184,0.5214 -0.380165,0.77423 -0.06835,0.12686 -0.143593,0.25026 -0.223541,0.37144 -0.124331,0.18831 -0.258956,0.37011 -0.398967,0.54752 -0.191013,0.24173 -0.391954,0.47485 -0.596732,0.70158 -0.324587,0.3591 -0.66225,0.70537 -0.998823,1.0421 -0.202833,0.20301 -0.405302,0.40213 -0.603794,0.59949 -0.100067,0.0994 -0.198868,0.19915 -0.293774,0.29542 -0.258596,0.26224 -0.497589,0.50529 -0.750919,0.74095 -0.2031,0.1889 -0.401867,0.36055 -0.605797,0.51581 -0.178863,0.13607 -0.353955,0.2535 -0.529831,0.35313 -0.1789,0.1013 -0.351097,0.17967 -0.518035,0.23776 -0.05996,0.0207 -0.127213,0.0419 -0.177088,0.0577 -0.184681,0.0581 -0.357768,0.10761 -0.505873,0.14805 -0.132352,0.0361 -0.261163,0.0695 -0.383432,0.10007 -0.445604,0.11126 -0.869829,0.20174 -1.205659,0.2699 -0.875887,0.1775 -1.835805,0.33718 -2.204672,0.39901 l -0.109603,0.15374 z"
       id="path-1"
       inkscape:path-effect="#path-effect6;#path-effect7"
       inkscape:original-d="m 30.91085,211.95569 c 1.419882,-0.23805 3.180866,-0.54605 4.454076,-0.96527 0.380188,-0.12518 0.739599,-0.33515 1.080141,-0.58879 0.601071,-0.4477 1.143352,-1.03149 1.637346,-1.52538 0.700983,-0.70083 1.857905,-1.80039 2.572578,-2.81355 0.128182,-0.18171 0.242138,-0.36065 0.336684,-0.53401 0.08136,-0.14918 0.161059,-0.30507 0.239132,-0.46679 0.215572,-0.44654 0.418735,-0.93749 0.61012,-1.45412 0.677226,-1.82813 1.20696,-3.97775 1.617117,-5.61838 0.357409,-1.42964 0.995257,-3.27953 0.995257,-4.61147"
       style="fill:#000000;fill-rule:nonzero;stroke:none;stroke-width:0;stroke-dasharray:none;paint-order:markers fill stroke"
       transform="translate(0.23949951,0.12293007)"
       sodipodi:nodetypes="cssssssssc" />
    <ellipse
       style="fill:#ffffff;fill-opacity:1;stroke:#000000;stroke-width:0.265;stroke-dasharray:none;stroke-opacity:0.960802;paint-order:markers fill stroke;marker-start:"
       id="path10"
       cx="47.890625"
       cy="221.45891"
       rx="2.4483278"
       ry="2.3855751" />
    <text
       style="font-size:1.72219px;font-family:monospace;-inkscape-font-specification:'monospace, Normal';fill:#000000;fill-opacity:1;stroke:none;stroke-width:0.172219"
       xml:space="preserve"
       id="text1"
       y="167.59142"
       x="61.83852"
       transform="scale(0.75435568,1.3256346)"><tspan
         sodipodi:role="line"
         id="tspan1"
         x="61.83852"
         y="167.59142"
         style="stroke-width:0.172219">$v_{4}$</tspan></text>
    <text
       style="font-size:1.77866px;font-family:monospace;-inkscape-font-specification:'monospace, Normal';fill:#000000;fill-opacity:1;stroke:none;stroke-width:0.177866"
       xml:space="preserve"
       id="text1-6"
       y="152.43875"
       x="38.565994"
       transform="scale(0.70959077,1.409263)"><tspan
         sodipodi:role="line"
         id="tspan1-7"
         x="38.565994"
         y="152.43875"
         style="stroke-width:0.177866">$v_{3}$</tspan></text>
    <text
       style="font-size:2.05674px;font-family:monospace;-inkscape-font-specification:'monospace, Normal';fill:#000000;fill-opacity:1;stroke:none;stroke-width:0.205674"
       xml:space="preserve"
       id="text1-5"
       y="134.74919"
       x="19.518534"
       transform="scale(0.70501308,1.4184134)"><tspan
         sodipodi:role="line"
         id="tspan1-3"
         x="19.518534"
         y="134.74919"
         style="stroke-width:0.205674">$v_{1}$</tspan></text>
    <text
       style="font-size:2.22061px;font-family:monospace;-inkscape-font-specification:'monospace, Normal';fill:#000000;fill-opacity:1;stroke:none;stroke-width:0.222061"
       xml:space="preserve"
       id="text1-56"
       y="142.75826"
       x="58.411415"
       transform="scale(0.74337511,1.3452159)"><tspan
         sodipodi:role="line"
         x="58.411415"
         y="142.75826"
         style="stroke-width:0.222061"
         id="tspan12">$v_{2}$</tspan></text>
    <text
       style="font-size:2.17037px;font-family:monospace;-inkscape-font-specification:'monospace, Normal';fill:#000000;fill-opacity:1;stroke:none;stroke-width:0.217037"
       xml:space="preserve"
       id="text1-9"
       y="165.56584"
       x="71.374252"
       transform="scale(0.81859047,1.2216121)"><tspan
         sodipodi:role="line"
         id="tspan1-1"
         x="71.374252"
         y="165.56584"
         style="stroke-width:0.217037">$v_{5}$</tspan></text>
    <text
       style="font-size:1.91627px;font-family:monospace;-inkscape-font-specification:'monospace, Normal';fill:#000000;fill-opacity:1;stroke:none;stroke-width:0.191627"
       xml:space="preserve"
       id="text1-2"
       y="128.11874"
       x="69.293732"
       transform="scale(0.61604517,1.6232576)"><tspan
         sodipodi:role="line"
         id="tspan1-70"
         x="69.293732"
         y="128.11874"
         style="stroke-width:0.191627">$e_{5}$</tspan></text>
    <text
       style="font-size:1.72759px;font-family:monospace;-inkscape-font-specification:'monospace, Normal';fill:#000000;fill-opacity:1;stroke:none;stroke-width:0.172759"
       xml:space="preserve"
       id="text1-93"
       y="201.80386"
       x="45.108627"
       transform="scale(0.90325751,1.107104)"><tspan
         sodipodi:role="line"
         id="tspan1-6"
         x="45.108627"
         y="201.80386"
         style="stroke-width:0.172759">$e_{6}$</tspan></text>
    <text
       style="font-size:1.87179px;font-family:monospace;-inkscape-font-specification:'monospace, Normal';fill:#000000;fill-opacity:1;stroke:none;stroke-width:0.187179"
       xml:space="preserve"
       id="text1-0"
       y="151.45427"
       x="76.079758"
       transform="scale(0.71480821,1.3989767)"><tspan
         sodipodi:role="line"
         id="tspan1-62"
         x="76.079758"
         y="151.45427"
         style="stroke-width:0.187179">$e_{3}$</tspan></text>
    <text
       style="font-size:2.64583px;font-family:monospace;-inkscape-font-specification:'monospace, Normal';fill:#000000;fill-opacity:1;stroke:none;stroke-width:0.264583"
       xml:space="preserve"
       id="text1-61"
       y="190.21866"
       x="27.944412"><tspan
         sodipodi:role="line"
         id="tspan1-8"
         x="27.944412"
         y="190.21866"
         style="stroke-width:0.264583">$e_{1}$</tspan></text>
    <text
       style="font-size:2.1454px;font-family:monospace;-inkscape-font-specification:'monospace, Normal';fill:#000000;fill-opacity:1;stroke:none;stroke-width:0.21454"
       xml:space="preserve"
       id="text1-7"
       y="133.83601"
       x="48.031639"
       transform="scale(0.66261856,1.5091639)"><tspan
         sodipodi:role="line"
         id="tspan1-9"
         x="48.031639"
         y="133.83601"
         style="stroke-width:0.21454">$e_{4}$</tspan></text>
    <text
       style="font-size:1.98188px;font-family:monospace;-inkscape-font-specification:'monospace, Normal';fill:#000000;fill-opacity:1;stroke:none;stroke-width:0.198188"
       xml:space="preserve"
       id="text1-20"
       y="135.14098"
       x="73.675499"
       transform="scale(0.68869864,1.4520139)"><tspan
         sodipodi:role="line"
         id="tspan1-2"
         x="73.675499"
         y="135.14098"
         style="stroke-width:0.198188">$e_{2}$</tspan></text>
  </g>
</svg>
