<?xml version="1.0" encoding="UTF-8" standalone="no"?>
<!-- Created with Inkscape (http://www.inkscape.org/) -->

<svg
   width="3in"
   height="2in"
   viewBox="0 0 76.2 50.8"
   version="1.1"
   id="svg8"
   inkscape:version="1.3 (0e150ed6c4, 2023-07-21)"
   sodipodi:docname="iso2.svg"
   xmlns:inkscape="http://www.inkscape.org/namespaces/inkscape"
   xmlns:sodipodi="http://sodipodi.sourceforge.net/DTD/sodipodi-0.dtd"
   xmlns="http://www.w3.org/2000/svg"
   xmlns:svg="http://www.w3.org/2000/svg"
   xmlns:rdf="http://www.w3.org/1999/02/22-rdf-syntax-ns#"
   xmlns:cc="http://creativecommons.org/ns#"
   xmlns:dc="http://purl.org/dc/elements/1.1/">
  <defs
     id="defs2">
    <inkscape:path-effect
       effect="powerstroke"
       id="path-effect16"
       is_visible="true"
       lpeversion="1.3"
       scale_width="1"
       interpolator_type="CentripetalCatmullRom"
       interpolator_beta="0.75"
       start_linecap_type="peak"
       end_linecap_type="peak"
       offset_points="4.064121,0.10333925"
       linejoin_type="spiro"
       miter_limit="4"
       not_jump="true"
       sort_points="true"
       message="&lt;b&gt;Ctrl + click&lt;/b&gt; on existing node and move it" />
    <inkscape:path-effect
       effect="simplify"
       id="path-effect14"
       is_visible="true"
       lpeversion="1.3"
       threshold="0.11261538"
       steps="1"
       smooth_angles="0"
       helper_size="0"
       simplify_individual_paths="false"
       simplify_just_coalesce="false"
       step="1" />
    <inkscape:path-effect
       effect="powerstroke"
       id="path-effect12"
       is_visible="true"
       lpeversion="1.3"
       scale_width="1"
       interpolator_type="CentripetalCatmullRom"
       interpolator_beta="0.75"
       start_linecap_type="peak"
       end_linecap_type="peak"
       offset_points="4.064121,0.10333925"
       linejoin_type="spiro"
       miter_limit="4"
       not_jump="true"
       sort_points="true"
       message="&lt;b&gt;Ctrl + click&lt;/b&gt; on existing node and move it" />
    <inkscape:path-effect
       effect="simplify"
       id="path-effect11"
       is_visible="true"
       lpeversion="1.3"
       threshold="0.11261538"
       steps="1"
       smooth_angles="0"
       helper_size="0"
       simplify_individual_paths="false"
       simplify_just_coalesce="false"
       step="1" />
    <inkscape:path-effect
       effect="powerstroke"
       id="path-effect10"
       is_visible="true"
       lpeversion="1.3"
       scale_width="1"
       interpolator_type="CentripetalCatmullRom"
       interpolator_beta="0.75"
       start_linecap_type="peak"
       end_linecap_type="peak"
       offset_points="2.9148811,0.10333925"
       linejoin_type="spiro"
       miter_limit="4"
       not_jump="true"
       sort_points="true"
       message="&lt;b&gt;Ctrl + click&lt;/b&gt; on existing node and move it" />
    <inkscape:path-effect
       effect="simplify"
       id="path-effect9"
       is_visible="true"
       lpeversion="1.3"
       threshold="0.11261538"
       steps="1"
       smooth_angles="0"
       helper_size="0"
       simplify_individual_paths="false"
       simplify_just_coalesce="false"
       step="1" />
    <inkscape:path-effect
       effect="powerstroke"
       id="path-effect8"
       is_visible="true"
       lpeversion="1.3"
       scale_width="1"
       interpolator_type="CentripetalCatmullRom"
       interpolator_beta="0.75"
       start_linecap_type="peak"
       end_linecap_type="peak"
       offset_points="1.8119021,0.29228755"
       linejoin_type="spiro"
       miter_limit="4"
       not_jump="true"
       sort_points="true"
       message="&lt;b&gt;Ctrl + click&lt;/b&gt; on existing node and move it" />
    <inkscape:path-effect
       effect="simplify"
       id="path-effect7"
       is_visible="true"
       lpeversion="1.3"
       threshold="0.11261538"
       steps="1"
       smooth_angles="0"
       helper_size="0"
       simplify_individual_paths="false"
       simplify_just_coalesce="false"
       step="1" />
    <inkscape:path-effect
       effect="powerstroke"
       id="path-effect6"
       is_visible="true"
       lpeversion="1.3"
       scale_width="1"
       interpolator_type="CentripetalCatmullRom"
       interpolator_beta="0.75"
       start_linecap_type="peak"
       end_linecap_type="peak"
       offset_points="1.8499414,0.29228755"
       linejoin_type="spiro"
       miter_limit="4"
       not_jump="true"
       sort_points="true"
       message="&lt;b&gt;Ctrl + click&lt;/b&gt; on existing node and move it" />
    <inkscape:path-effect
       effect="simplify"
       id="path-effect5"
       is_visible="true"
       lpeversion="1.3"
       threshold="0.11261538"
       steps="1"
       smooth_angles="0"
       helper_size="0"
       simplify_individual_paths="false"
       simplify_just_coalesce="false"
       step="1" />
  </defs>
  <sodipodi:namedview
     id="base"
     pagecolor="#ffffff"
     bordercolor="#666666"
     borderopacity="1.0"
     inkscape:pageopacity="0.0"
     inkscape:pageshadow="2"
     inkscape:zoom="2.5603372"
     inkscape:cx="226.33738"
     inkscape:cy="118.1485"
     inkscape:document-units="mm"
     inkscape:current-layer="layer1"
     showgrid="false"
     showborder="true"
     width="200mm"
     showguides="true"
     inkscape:guide-bbox="true"
     inkscape:window-width="1890"
     inkscape:window-height="1022"
     inkscape:window-x="12"
     inkscape:window-y="40"
     inkscape:window-maximized="1"
     inkscape:showpageshadow="2"
     inkscape:pagecheckerboard="0"
     inkscape:deskcolor="#d1d1d1">
    <inkscape:grid
       type="xygrid"
       id="grid815"
       units="mm"
       spacingx="10"
       spacingy="10"
       empspacing="4"
       dotted="false"
       originx="0"
       originy="0"
       visible="false" />
  </sodipodi:namedview>
  <metadata
     id="metadata5">
    <rdf:RDF>
      <cc:Work
         rdf:about="">
        <dc:format>image/svg+xml</dc:format>
        <dc:type
           rdf:resource="http://purl.org/dc/dcmitype/StillImage" />
      </cc:Work>
    </rdf:RDF>
  </metadata>
  <g
     inkscape:label="Layer 1"
     inkscape:groupmode="layer"
     id="layer1"
     transform="translate(0,-177)">
    <text
       style="font-size:2.64583px;font-family:monospace;-inkscape-font-specification:'monospace, Normal';fill:#000000;fill-opacity:1;stroke:none;stroke-width:0.264583"
       xml:space="preserve"
       id="text1"
       y="183.87778"
       x="68.235779"><tspan
         sodipodi:role="line"
         id="tspan1"
         x="68.235779"
         y="183.87778"
         style="stroke-width:0.264583">$G2$</tspan></text>
    <ellipse
       style="fill:#ffffff;stroke:#000000;stroke-width:0.195786;stroke-opacity:0.960802;paint-order:markers fill stroke"
       id="path1"
       cx="13.809098"
       cy="206.31224"
       rx="2.9333713"
       ry="2.8411396" />
    <ellipse
       style="fill:#ffffff;stroke:#000000;stroke-width:0.195786;stroke-opacity:0.960802;paint-order:markers fill stroke"
       id="ellipse2"
       cx="51.661625"
       cy="200.84784"
       rx="2.9333713"
       ry="2.8411396" />
    <ellipse
       style="fill:#ffffff;stroke:#000000;stroke-width:0.195786;stroke-opacity:0.960802;paint-order:markers fill stroke"
       id="ellipse3"
       cx="51.577225"
       cy="209.70993"
       rx="2.9333713"
       ry="2.8411396" />
    <ellipse
       style="fill:#ffffff;stroke:#000000;stroke-width:0.195786;stroke-opacity:0.960802;paint-order:markers fill stroke"
       id="ellipse4"
       cx="63.445503"
       cy="190.2406"
       rx="2.9333713"
       ry="2.8411396" />
    <ellipse
       style="fill:#ffffff;stroke:#000000;stroke-width:0.195786;stroke-opacity:0.960802;paint-order:markers fill stroke"
       id="ellipse5"
       cx="63.51656"
       cy="219.82161"
       rx="2.9333713"
       ry="2.8411396" />
    <path
       d="m 64.693676,185.7324 c 0.07761,0.33631 0.182705,0.72755 0.356421,1.28154 0.163015,0.51993 0.366617,1.1066 0.56185,1.77025 0.05832,0.19822 0.120793,0.42142 0.179079,0.65632 0.0443,0.18114 0.07644,0.36916 0.106509,0.58055 0.0024,0.0169 0.0048,0.034 0.0072,0.0511 0.02437,0.17618 0.06538,0.51621 0.104723,0.75398 0.01062,0.0643 0.02321,0.13431 0.03818,0.20876 0.03432,0.17608 0.05365,0.35923 0.06786,0.56316 0.01719,0.24656 0.02449,0.50826 0.05258,0.7827 0.01668,0.1626 0.04184,0.33541 0.08562,0.50785 0.01971,0.0782 0.03237,0.16043 0.04222,0.24914 0.01398,0.12857 0.02036,0.25999 0.0233,0.39744 0.0041,0.20395 -4.2e-5,0.40991 -0.0079,0.62256 -0.01284,0.34029 -0.03502,0.67923 -0.05885,1.03027 -0.01676,0.24742 -0.03527,0.50615 -0.0494,0.76083 -0.0078,0.14379 -0.01479,0.29161 -0.01653,0.44007 -7.63e-4,0.0998 1.4e-4,0.19874 0.001,0.2984 0.0057,0.53781 0.02692,1.06805 0.04136,1.60833 0.01304,0.48746 0.02079,0.97704 0.0055,1.46571 -0.01263,0.39982 -0.04071,0.79953 -0.0964,1.19545 -0.04539,0.31994 -0.100137,0.63839 -0.154161,0.95983 -0.04397,0.26158 -0.08753,0.52402 -0.124838,0.78773 -0.01934,0.14118 -0.0234,0.28188 -0.02371,0.41772 -4.1e-4,0.18334 0.0059,0.35099 -0.0029,0.52427 -0.0043,0.0844 -0.01233,0.16687 -0.02618,0.24724 -0.08366,0.50422 -0.143234,1.01281 -0.201463,1.50907 -0.05343,0.45552 -0.105453,0.89858 -0.174139,1.34107 -0.01982,0.13083 -0.02246,0.26089 -0.0189,0.38452 0.0063,0.21965 0.03117,0.42858 0.03377,0.629 0.0013,0.0993 -0.0029,0.19439 -0.01588,0.28624 -0.04219,0.30868 -0.109944,0.61031 -0.188445,0.90059 -0.10079,0.37241 -0.223392,0.74088 -0.342351,1.09081 -0.107472,0.31616 -0.206482,0.60068 -0.30217,0.90198 -0.03509,0.11089 -0.05531,0.22285 -0.06996,0.32335 -0.02377,0.16358 -0.03553,0.31572 -0.05423,0.45468 -0.01247,0.0912 -0.02598,0.16679 -0.04615,0.23794 -0.0033,0.0116 -0.0065,0.0218 -0.0093,0.0306 l 0.06635,0.13021 0.130214,-0.0663 c 0.0036,-0.011 0.0075,-0.0236 0.01154,-0.0379 0.02403,-0.0848 0.03909,-0.17122 0.05215,-0.26667 0.01971,-0.14639 0.03158,-0.2987 0.05396,-0.4527 0.014,-0.0961 0.03231,-0.19541 0.06245,-0.29066 0.09483,-0.29859 0.192763,-0.57999 0.300835,-0.89792 0.119036,-0.35016 0.243518,-0.72404 0.346177,-1.10336 0.08003,-0.29594 0.149978,-0.6066 0.193643,-0.92606 0.01484,-0.10475 0.01921,-0.21092 0.01784,-0.31741 -0.0028,-0.21479 -0.02785,-0.4252 -0.03383,-0.63228 -0.0034,-0.11711 -6.04e-4,-0.23366 0.0166,-0.34724 0.06932,-0.44655 0.121761,-0.89342 0.17512,-1.34832 0.05833,-0.4971 0.117368,-1.00078 0.199976,-1.49869 0.01547,-0.0898 0.02419,-0.18068 0.02881,-0.27117 0.0092,-0.17972 0.0028,-0.36171 0.0032,-0.53434 3.01e-4,-0.13282 0.0043,-0.26268 0.02173,-0.38967 0.03683,-0.26032 0.07998,-0.52037 0.123955,-0.78198 0.05382,-0.32021 0.109114,-0.64185 0.154987,-0.96518 0.05702,-0.4054 0.08554,-0.81286 0.09833,-1.21786 0.01551,-0.4948 0.0076,-0.98917 -0.0054,-1.47773 -0.01454,-0.544 -0.03564,-1.06931 -0.0413,-1.60483 -8.96e-4,-0.0998 -0.0018,-0.19698 -0.001,-0.29438 0.0017,-0.14349 0.0085,-0.28775 0.01623,-0.43074 0.01403,-0.25291 0.0324,-0.50967 0.04923,-0.75818 0.02383,-0.35097 0.0462,-0.69272 0.05918,-1.03654 0.0079,-0.21481 0.01219,-0.42505 0.008,-0.63455 -0.003,-0.14092 -0.0096,-0.27882 -0.02449,-0.41573 -0.01042,-0.0939 -0.02437,-0.18627 -0.04729,-0.27725 -0.04047,-0.15942 -0.0643,-0.32144 -0.08038,-0.47824 -0.02703,-0.26407 -0.03444,-0.52413 -0.052,-0.776 -0.01448,-0.20789 -0.03456,-0.40046 -0.0713,-0.58894 -0.01457,-0.0725 -0.02674,-0.14014 -0.03701,-0.20233 -0.03882,-0.23462 -0.07848,-0.56476 -0.103903,-0.74857 -0.0024,-0.0173 -0.0048,-0.0346 -0.0073,-0.0519 -0.03051,-0.21446 -0.06377,-0.41 -0.110449,-0.60089 -0.05929,-0.23894 -0.122615,-0.46512 -0.181481,-0.66521 -0.197235,-0.67045 -0.400919,-1.25707 -0.562915,-1.77376 -0.172443,-0.54992 -0.276045,-0.93597 -0.352247,-1.26618 l -0.12393,-0.0774 z"
       id="path-1"
       inkscape:path-effect="#path-effect11;#path-effect12"
       inkscape:original-d="m 64.794369,185.70916 c 0.29062,1.25876 0.777559,2.42869 1.092467,3.68832 0.128832,0.51532 0.155178,1.08235 0.259237,1.60264 0.122497,0.61249 0.05631,1.26647 0.207744,1.86302 0.189557,0.74675 -0.06427,2.72505 -0.06427,3.57821 0,1.48749 0.156877,3.0871 -0.05167,4.54693 -0.08056,0.56395 -0.193953,1.14912 -0.275308,1.7214 -0.05536,0.38939 0.01194,0.80223 -0.05275,1.19037 -0.157298,0.94379 -0.229252,1.90517 -0.376408,2.85457 -0.06525,0.42095 0.0568,0.86934 0,1.29174 -0.133131,0.99009 -0.536212,1.96995 -0.838364,2.92176 -0.105977,0.33383 -0.08641,0.75958 -0.17986,1.0472"
       style="fill:#000000;fill-rule:nonzero;stroke:none;stroke-width:1.00157;stroke-opacity:0.960802;paint-order:markers fill stroke"
       transform="translate(1.1570855,5.7770453)" />
    <path
       d="m 64.693676,185.7324 c 0.078,0.33798 0.183324,0.72953 0.356421,1.28154 0.162089,0.51698 0.36529,1.10209 0.56185,1.77025 0.05782,0.19652 0.120483,0.42017 0.179079,0.65632 0.04407,0.1802 0.07621,0.3676 0.106509,0.58055 0.0024,0.0169 0.0048,0.034 0.0072,0.0511 0.0243,0.17571 0.0654,0.51631 0.104723,0.75398 0.0106,0.0641 0.02319,0.13421 0.03818,0.20876 0.03428,0.17585 0.05363,0.35886 0.06786,0.56316 0.01716,0.24615 0.02444,0.50778 0.05258,0.7827 0.01664,0.16223 0.04178,0.33516 0.08562,0.50785 0.01968,0.0781 0.03235,0.16024 0.04222,0.24914 0.01395,0.12835 0.02035,0.25967 0.0233,0.39744 0.0041,0.20359 -2.2e-5,0.40936 -0.0079,0.62256 -0.01282,0.33984 -0.03494,0.67811 -0.05885,1.03027 -0.01668,0.24628 -0.03526,0.50604 -0.0494,0.76083 -0.0078,0.14327 -0.01479,0.29135 -0.01653,0.44007 -7.65e-4,0.1003 1.45e-4,0.19948 0.001,0.30016 0.0045,0.43039 0.01832,0.85664 0.03094,1.29221 0.01282,0.4425 0.02501,0.8909 0.02431,1.3381 -6.27e-4,0.30633 -0.0071,0.61462 -0.02689,0.9224 -0.0152,0.23427 -0.03796,0.46867 -0.07523,0.70073 -0.0095,0.0575 -0.03837,0.22937 -0.0479,0.28724 -0.08107,0.48496 -0.162648,0.97446 -0.232501,1.4654 -0.0197,0.13875 -0.02436,0.27756 -0.02495,0.41266 -7.99e-4,0.1854 0.006,0.35745 -0.0028,0.53405 -0.0042,0.0855 -0.01225,0.16955 -0.02641,0.25173 -0.08341,0.50275 -0.142707,1.00834 -0.20146,1.50907 -0.053,0.45184 -0.105439,0.89891 -0.174569,1.34385 -0.01481,0.0985 -0.02486,0.19636 -0.03333,0.2922 -0.01362,0.15649 -0.0229,0.31249 -0.03006,0.4669 -0.0059,0.13034 -0.01044,0.25996 -0.01257,0.38941 -9.43e-4,0.0422 6.33e-4,0.0845 0.0042,0.12614 -0.04353,0.0693 -0.09219,0.1363 -0.142748,0.20297 -0.06872,0.0909 -0.143846,0.18547 -0.207052,0.28936 -0.04653,0.0763 -0.08579,0.1573 -0.114027,0.24247 -0.01725,0.0528 -0.03105,0.10505 -0.0431,0.15463 -0.04027,0.16776 -0.06291,0.33638 -0.0785,0.49743 -0.02916,0.30315 -0.03543,0.61871 -0.06458,0.9218 -0.01546,0.16109 -0.03662,0.31274 -0.071,0.45866 -0.01281,0.0544 -0.02726,0.10634 -0.04316,0.156 -0.03554,0.11492 -0.05555,0.23015 -0.0701,0.33349 -0.02202,0.1568 -0.03366,0.3029 -0.0517,0.43692 -0.01239,0.0906 -0.02588,0.16645 -0.04615,0.23795 -0.0033,0.0114 -0.0064,0.0216 -0.0093,0.0306 l 0.06635,0.13021 0.130214,-0.0663 c 0.0037,-0.0112 0.0075,-0.0238 0.01154,-0.0379 0.02414,-0.0851 0.03918,-0.17191 0.05215,-0.26667 0.01902,-0.14121 0.03076,-0.28773 0.05157,-0.43593 0.01398,-0.0993 0.03216,-0.20187 0.06258,-0.30024 0.01727,-0.0539 0.03316,-0.11111 0.04718,-0.17065 0.0373,-0.15831 0.0596,-0.32003 0.07557,-0.48638 0.02957,-0.31037 0.035,-0.61132 0.06456,-0.92162 0.01512,-0.15616 0.03659,-0.31429 0.07368,-0.46876 0.01137,-0.0468 0.02374,-0.0933 0.03851,-0.13852 0.02244,-0.0677 0.05451,-0.13448 0.09422,-0.19957 0.05631,-0.0926 0.12244,-0.17569 0.195337,-0.27215 0.05896,-0.0778 0.119285,-0.16097 0.172859,-0.25012 0.0061,-0.0101 0.01167,-0.0208 0.01388,-0.0324 0.0022,-0.0116 0.0012,-0.0236 -1.22e-4,-0.0353 -0.0049,-0.044 -0.0072,-0.0881 -0.0062,-0.132 0.0021,-0.12756 0.0065,-0.25511 0.01239,-0.38393 0.0071,-0.15259 0.01621,-0.30564 0.02949,-0.45834 0.0083,-0.094 0.01793,-0.18709 0.03175,-0.27902 0.06974,-0.44889 0.122614,-0.8998 0.175535,-1.351 0.05885,-0.50155 0.117608,-1.00224 0.199973,-1.49868 0.01582,-0.0918 0.02452,-0.18446 0.02905,-0.27599 0.009,-0.18222 0.0023,-0.37013 0.003,-0.54337 5.72e-4,-0.13168 0.0052,-0.25957 0.02289,-0.38446 0.06944,-0.48805 0.150607,-0.97514 0.231736,-1.46046 0.04589,-0.27522 0.0022,-0.0129 0.04805,-0.28809 0.03867,-0.2408 0.062,-0.48203 0.07748,-0.7206 0.02012,-0.31359 0.02669,-0.62647 0.02732,-0.93534 6.99e-4,-0.4508 -0.01158,-0.90211 -0.0244,-1.34445 -0.01265,-0.43663 -0.02637,-0.86042 -0.03086,-1.28823 -8.9e-4,-0.10085 -0.0018,-0.19829 -0.001,-0.29616 0.0017,-0.14375 0.0085,-0.28826 0.01623,-0.43074 0.01404,-0.25302 0.03248,-0.51081 0.04923,-0.75818 0.0239,-0.35211 0.04622,-0.69318 0.05918,-1.03654 0.008,-0.21536 0.01219,-0.42541 0.008,-0.63455 -0.003,-0.14126 -0.0096,-0.27905 -0.02449,-0.41573 -0.01045,-0.0941 -0.0244,-0.18641 -0.04729,-0.27725 -0.04053,-0.15965 -0.06433,-0.32179 -0.08038,-0.47824 -0.02708,-0.26454 -0.03447,-0.52456 -0.052,-0.776 -0.01451,-0.20829 -0.0346,-0.4007 -0.0713,-0.58894 -0.01459,-0.0725 -0.02675,-0.14024 -0.03701,-0.20233 -0.03881,-0.23453 -0.07854,-0.56523 -0.103903,-0.74857 -0.0024,-0.0173 -0.0048,-0.0346 -0.0073,-0.0519 -0.03074,-0.21608 -0.064,-0.41097 -0.110449,-0.60089 -0.0596,-0.2402 -0.123123,-0.46684 -0.181481,-0.66521 -0.198576,-0.67501 -0.401838,-1.26001 -0.562915,-1.77376 -0.171831,-0.54797 -0.275665,-0.93432 -0.352247,-1.26618 l -0.12393,-0.0774 z"
       id="path12"
       inkscape:path-effect="#path-effect14;#path-effect16"
       inkscape:original-d="m 64.794369,185.70916 c 0.29062,1.25876 0.777559,2.42869 1.092467,3.68832 0.128832,0.51532 0.155178,1.08235 0.259237,1.60264 0.122497,0.61249 0.05631,1.26647 0.207744,1.86302 0.189557,0.74675 -0.06427,2.72505 -0.06427,3.57821 0,1.48749 0.156877,3.29607 -0.05167,4.54693 -0.09368,0.56192 -0.193953,1.14912 -0.275308,1.7214 -0.05536,0.38939 0.01194,0.80223 -0.05275,1.19037 -0.157298,0.94379 -0.229245,1.90517 -0.376408,2.85457 -0.05078,0.32758 -0.07268,0.90421 -0.07612,1.15402 -9.8e-4,0.0712 0.0074,0.13685 0.0074,0.13685 -0.17585,0.29192 -0.389433,0.46595 -0.481,0.7712 -0.198912,0.66308 -0.08171,1.49966 -0.288614,2.15143 -0.105975,0.33383 -0.08641,0.75958 -0.17986,1.0472"
       style="fill:#000000;fill-rule:nonzero;stroke:none;stroke-width:1.00157;stroke-opacity:0.960802;paint-order:markers fill stroke"
       transform="matrix(-1,0,0,1,125.78688,5.9053836)"
       sodipodi:nodetypes="cssssssssssssc" />
    <path
       style="fill:none;stroke:#000000;stroke-width:0.264583px;stroke-linecap:butt;stroke-linejoin:miter;stroke-opacity:1"
       d="m 60.454769,190.06502 -44.360298,14.3205"
       id="path16" />
    <path
       style="fill:none;stroke:#000000;stroke-width:0.264583px;stroke-linecap:butt;stroke-linejoin:miter;stroke-opacity:1"
       d="M 60.555977,220.01629 15.786131,208.45855"
       id="path17" />
    <path
       style="fill:none;stroke:#000000;stroke-width:0.264583px;stroke-linecap:butt;stroke-linejoin:miter;stroke-opacity:1"
       d="m 16.586581,205.68572 32.154346,-4.85799"
       id="path18" />
    <path
       style="fill:none;stroke:#000000;stroke-width:0.264583px;stroke-linecap:butt;stroke-linejoin:miter;stroke-opacity:1"
       d="m 16.713176,207.20501 31.989643,2.91257"
       id="path19" />
    <path
       style="fill:none;stroke:#000000;stroke-width:0.264583px;stroke-linecap:butt;stroke-linejoin:miter;stroke-opacity:1"
       d="m 51.768594,203.69368 c 0,0.13581 0,3.17522 0,3.17522"
       id="path20" />
    <text
       style="font-size:2.64583px;font-family:monospace;-inkscape-font-specification:'monospace, Normal';fill:#000000;fill-opacity:1;stroke:none;stroke-width:0.264583"
       xml:space="preserve"
       id="text1-5"
       y="180.80156"
       x="29.704113"><tspan
         sodipodi:role="line"
         id="tspan1-3"
         x="29.704113"
         y="180.80156"
         style="stroke-width:0.264583">$||v|| = 5$</tspan></text>
    <text
       style="font-size:2.64583px;font-family:monospace;-inkscape-font-specification:'monospace, Normal';fill:#000000;fill-opacity:1;stroke:none;stroke-width:0.264583"
       xml:space="preserve"
       id="text1-56"
       y="186.94585"
       x="29.533243"><tspan
         sodipodi:role="line"
         id="tspan1-2"
         x="29.533243"
         y="186.94585"
         style="stroke-width:0.264583">$||e|| = 7$</tspan></text>
  </g>
</svg>
