<?xml version="1.0" encoding="UTF-8" standalone="no"?>
<!-- Created with Inkscape (http://www.inkscape.org/) -->

<svg
   width="3in"
   height="2in"
   viewBox="0 0 76.2 50.8"
   version="1.1"
   id="svg8"
   inkscape:version="1.3.2 (091e20ef0f, 2023-11-25, custom)"
   sodipodi:docname="grapher.svg"
   xml:space="preserve"
   xmlns:inkscape="http://www.inkscape.org/namespaces/inkscape"
   xmlns:sodipodi="http://sodipodi.sourceforge.net/DTD/sodipodi-0.dtd"
   xmlns="http://www.w3.org/2000/svg"
   xmlns:svg="http://www.w3.org/2000/svg"
   xmlns:rdf="http://www.w3.org/1999/02/22-rdf-syntax-ns#"
   xmlns:cc="http://creativecommons.org/ns#"
   xmlns:dc="http://purl.org/dc/elements/1.1/"><defs
     id="defs2"><style
       type="text/css"
       id="style1">@import url(&quot;http://cdnjs.cloudflare.com/ajax/libs/KaTeX/0.2.0/katex.min.css&quot;)</style></defs><sodipodi:namedview
     id="base"
     pagecolor="#ffffff"
     bordercolor="#666666"
     borderopacity="1.0"
     inkscape:pageopacity="0.0"
     inkscape:pageshadow="2"
     inkscape:zoom="2.4691896"
     inkscape:cx="234.89488"
     inkscape:cy="51.636375"
     inkscape:document-units="mm"
     inkscape:current-layer="g1"
     showgrid="false"
     showborder="true"
     width="200mm"
     showguides="true"
     inkscape:guide-bbox="true"
     inkscape:window-width="1920"
     inkscape:window-height="1080"
     inkscape:window-x="0"
     inkscape:window-y="0"
     inkscape:window-maximized="1"
     inkscape:showpageshadow="2"
     inkscape:pagecheckerboard="0"
     inkscape:deskcolor="#d1d1d1"><inkscape:grid
       type="xygrid"
       id="grid815"
       units="mm"
       spacingx="10"
       spacingy="10"
       empspacing="4"
       dotted="false"
       originx="0"
       originy="0"
       visible="false" /></sodipodi:namedview><metadata
     id="metadata5"><rdf:RDF><cc:Work
         rdf:about=""><dc:format>image/svg+xml</dc:format><dc:type
           rdf:resource="http://purl.org/dc/dcmitype/StillImage" /></cc:Work></rdf:RDF></metadata><g
     inkscape:label="Layer 1"
     inkscape:groupmode="layer"
     id="layer1"
     transform="translate(0,-177)"><g
       id="g1"
       transform="matrix(0.13395642,0,0,0.09085166,-1.6856791,174.52787)"><path
         d="M 22.06,324 H 528.34 M 40,72.06 V 575.94 M 40,330 v -12 m 117.226,12 v -12 m 117.227,12 v -12 m 117.226,12 v -12 m 117.227,12 V 318 M 46,324 H 34 m 12,39 H 34 m 12,39 H 34 m 12,39 H 34 m 12,39 H 34 m 12,39 H 34 m 12,39 H 34 M 46,285 H 34 M 46,246 H 34 M 46,207 H 34 M 46,168 H 34 M 46,129 H 34 M 46,90 H 34"
         stroke-width="2"
         stroke="#000000"
         fill="none"
         id="path1" /><text
         id="null"
         x="40"
         y="44.119999"
         font-style="italic"
         font-family="KaTeX_Main, serif"
         font-size="24px"
         font-weight="normal"
         text-anchor="middle"
         fill="#000000"
         stroke-width="0px">r</text><path
         id="path2"
         d="m 40,168 0.783,0.008 0.784,0.026 0.784,0.043 0.784,0.06 0.784,0.077 0.784,0.095 0.784,0.112 0.784,0.129 0.784,0.146 0.784,0.163 0.784,0.18 0.784,0.197 0.784,0.215 0.784,0.231 0.784,0.248 0.784,0.266 0.784,0.282 0.784,0.299 0.784,0.317 0.784,0.333 0.784,0.35 0.784,0.366 0.784,0.384 0.784,0.4 0.784,0.416 0.784,0.434 0.784,0.45 0.784,0.466 0.784,0.483 0.784,0.499 0.784,0.516 0.784,0.532 0.784,0.548 0.784,0.564 0.784,0.581 0.784,0.596 0.784,0.613 0.784,0.628 0.784,0.645 0.784,0.66 0.784,0.675 0.784,0.692 0.784,0.707 0.784,0.722 0.784,0.738 0.784,0.753 0.784,0.768 0.784,0.784 0.784,0.798 0.784,0.814 0.784,0.828 0.784,0.844 0.784,0.857 0.784,0.873 0.784,0.887 0.784,0.901 0.784,0.916 0.784,0.93 0.784,0.944 0.784,0.958 0.784,0.972 0.784,0.986 0.784,0.999 0.784,1.013 0.784,1.027 0.784,1.039 0.784,1.054 0.784,1.066 0.784,1.079 0.784,1.092 0.784,1.105 0.784,1.117 0.784,1.13 0.784,1.142 0.784,1.155 0.784,1.167 0.784,1.178 0.784,1.191 0.784,1.202 0.784,1.214 0.784,1.226 0.784,1.236 0.784,1.248 0.784,1.259 0.784,1.27 0.784,1.281 0.784,1.292 0.784,1.302 0.784,1.312 0.784,1.322 0.784,1.333 0.784,1.343 0.784,1.352 0.784,1.362 0.784,1.371 0.784,1.381 0.784,1.39 0.784,1.399 0.784,1.408 0.784,1.416 0.784,1.425 0.784,1.434 0.784,1.442 0.784,1.449 0.784,1.458 0.784,1.466 0.784,1.473 0.784,1.48 0.784,1.488 0.784,1.495 0.784,1.502 0.784,1.509 0.784,1.515 0.784,1.522 0.784,1.528 0.784,1.534 0.784,1.54 0.784,1.546 0.784,1.551 0.784,1.557 0.784,1.562 0.784,1.567 0.784,1.572 0.784,1.577 0.784,1.582 0.784,1.585 0.784,1.591 0.784,1.594 0.784,1.598 0.784,1.601 0.784,1.605 0.784,1.609 0.784,1.612 0.784,1.614 0.784,1.618 0.784,1.62 0.784,1.622 0.784,1.625 0.784,1.627 0.784,1.629 0.784,1.63 0.784,1.632 0.784,1.634 0.784,1.634 0.784,1.636 0.784,1.636 0.784,1.638 0.784,1.637 0.784,1.638 0.784,1.638 0.784,1.638 0.784,1.638 0.784,1.637 0.784,1.636 0.784,1.636 0.784,1.635 0.784,1.634 0.784,1.632 0.784,1.631 0.784,1.629 0.784,1.627 0.784,1.626 0.784,1.623 0.784,1.62 0.784,1.618 0.784,1.615 0.784,1.613 0.784,1.609 0.784,1.606 0.784,1.602 0.784,1.599 0.784,1.595 0.784,1.59 0.784,1.587 0.784,1.583 0.784,1.577 0.784,1.573 0.784,1.569 0.784,1.563 0.784,1.558 0.784,1.552 0.784,1.547 0.784,1.541 0.784,1.536 0.784,1.529 0.784,1.523 0.784,1.516 0.784,1.51 0.784,1.504 0.784,1.496 0.784,1.489 0.784,1.482 0.784,1.475 0.784,1.467 0.784,1.459 0.784,1.452 0.784,1.443 0.784,1.435 0.784,1.427 0.784,1.418 0.784,1.41 0.784,1.401 0.784,1.391 0.784,1.383 0.784,1.373 0.784,1.364 0.784,1.354 0.784,1.345 0.784,1.334 0.784,1.325 0.784,1.314 0.784,1.304 0.784,1.294 0.784,1.283 0.784,1.272 0.784,1.261 0.784,1.25 0.784,1.239 0.784,1.228 0.784,1.216 0.784,1.205 0.784,1.193 0.784,1.181 0.784,1.169 0.784,1.157 0.784,1.145 0.784,1.132 0.784,1.12 0.784,1.108 0.784,1.094 0.784,1.082 0.784,1.069 0.784,1.055 0.784,1.043 0.784,1.029 0.784,1.016 0.784,1.002 0.784,0.988 0.784,0.975 0.784,0.961 0.784,0.947 0.784,0.932 0.784,0.919 0.784,0.904 0.784,0.89 0.784,0.876 0.784,0.86 0.784,0.847 0.784,0.831 0.784,0.816 0.784,0.802 0.784,0.786 0.784,0.772 0.784,0.756 0.784,0.741 0.784,0.725 0.784,0.71 0.784,0.695 0.784,0.679 0.784,0.663 0.784,0.647 0.784,0.632 0.784,0.616 0.784,0.599 0.784,0.584 0.784,0.568 0.784,0.551 0.784,0.535 0.784,0.519 0.784,0.503 0.784,0.486 0.784,0.47 0.784,0.453 0.784,0.436 0.784,0.421 0.784,0.403 0.784,0.387 0.784,0.37 0.784,0.353 0.784,0.336 0.784,0.32 0.784,0.302 0.784,0.286 0.784,0.269 0.784,0.252 0.784,0.235 0.784,0.217 0.784,0.201 0.784,0.184 0.784,0.166 0.784,0.15 0.784,0.132 0.784,0.115 0.784,0.098 0.784,0.081 0.784,0.063 0.784,0.047 0.784,0.029 0.784,0.012 0.784,-0.005 0.784,-0.022 0.784,-0.04 0.784,-0.057 0.784,-0.074 0.784,-0.091 0.784,-0.108 0.784,-0.125 0.784,-0.143 0.784,-0.16 0.784,-0.177 0.784,-0.193 0.784,-0.211 0.784,-0.228 0.784,-0.245 0.784,-0.262 0.784,-0.279 0.784,-0.296 0.784,-0.313 0.784,-0.33 0.784,-0.346 0.784,-0.364 0.784,-0.38 0.784,-0.396 0.784,-0.414 0.784,-0.43 0.784,-0.447 0.784,-0.463 0.784,-0.479 0.784,-0.496 0.784,-0.513 0.784,-0.528 0.784,-0.545 0.784,-0.561 0.784,-0.578 0.784,-0.593 0.784,-0.609 0.784,-0.626 0.784,-0.641 0.784,-0.657 0.784,-0.672 0.784,-0.688 0.784,-0.704 0.784,-0.72 0.784,-0.734 0.784,-0.75 0.784,-0.766 0.784,-0.78 0.784,-0.796 0.784,-0.81 0.784,-0.826 0.784,-0.84 0.784,-0.855 0.784,-0.87 0.784,-0.884 0.784,-0.898 0.784,-0.913 0.784,-0.927 0.784,-0.942 0.784,-0.955 0.784,-0.969 0.784,-0.983 0.784,-0.997 0.784,-1.01 0.784,-1.024 0.784,-1.037 0.784,-1.05 0.784,-1.064 0.784,-1.076 0.784,-1.09 0.784,-1.102 0.784,-1.115 0.784,-1.127 0.784,-1.14 0.784,-1.152 0.784,-1.165 0.784,-1.176 0.784,-1.188 0.784,-1.2 0.784,-1.212 0.784,-1.223 0.784,-1.235 0.784,-1.245 0.784,-1.257 0.784,-1.268 0.784,-1.279 0.784,-1.289 0.784,-1.3 0.784,-1.31 0.784,-1.321 0.784,-1.33 0.784,-1.341 0.784,-1.35 0.784,-1.36 0.784,-1.37 0.784,-1.379 0.784,-1.388 0.784,-1.397 0.784,-1.406 0.784,-1.415 0.784,-1.423 0.784,-1.432 0.784,-1.44 0.784,-1.448 0.784,-1.457 0.784,-1.464 0.784,-1.471 0.784,-1.479 0.784,-1.487 0.784,-1.493 0.784,-1.501 0.784,-1.507 0.784,-1.514 0.784,-1.52 0.784,-1.527 0.784,-1.533 0.784,-1.539 0.784,-1.545 0.784,-1.55 0.784,-1.556 0.784,-1.561 0.784,-1.566 0.784,-1.571 0.784,-1.576 0.784,-1.581 0.784,-1.585 0.784,-1.589 0.784,-1.593 0.784,-1.597 0.784,-1.601 0.784,-1.605 0.784,-1.608 0.784,-1.611 0.784,-1.614 0.784,-1.617 0.784,-1.619 0.784,-1.622 0.784,-1.625 0.784,-1.626 0.784,-1.628 0.784,-1.631 0.784,-1.631 0.784,-1.634 0.784,-1.634 0.784,-1.635 0.784,-1.637 0.784,-1.637 0.784,-1.637 0.784,-1.638 0.784,-1.638 0.784,-1.638 0.784,-1.638 0.784,-1.637 0.784,-1.637 0.784,-1.636 0.784,-1.635 0.784,-1.634 0.784,-1.632 0.784,-1.632 0.784,-1.629 0.784,-1.628 0.784,-1.625 0.784,-1.624 0.784,-1.621 0.784,-1.618 0.784,-1.616 0.784,-1.613 0.784,-1.61 0.784,-1.606 0.784,-1.604 0.784,-1.599 0.784,-1.596 0.784,-1.591 0.784,-1.588 0.784,-1.583 0.784,-1.579 0.784,-1.574 0.784,-1.569 0.784,-1.564 0.784,-1.559 0.784,-1.554 0.784,-1.548 0.784,-1.542 0.784,-1.537 0.784,-1.53 0.784,-1.524 0.784,-1.518 0.784,-1.512 0.784,-1.504 0.784,-1.498 0.784,-1.491 0.784,-1.483 0.784,-1.476 0.784,-1.469 0.784,-1.461 0.784,-1.453 0.784,-1.445 0.784,-1.436 0.784,-1.429 0.784,-1.42 0.784,-1.411 0.784,-1.403 0.784,-1.393 0.784,-1.385 0.784,-1.375 0.784,-1.366 0.784,-1.356 0.784,-1.346 0.784,-1.337 0.784,-1.326 0.784,-1.317 0.784,-1.306 0.784,-1.295 0.784,-1.286 0.784,-1.274 0.784,-1.263 0.784,-1.253 0.784,-1.241 0.784,-1.23 0.784,-1.219 0.784,-1.207 0.784,-1.195 0.784,-1.183 0.784,-1.172 0.784,-1.159 0.784,-1.148 0.784,-1.134 0.784,-1.123 0.784,-1.11 0.784,-1.097 0.784,-1.084 0.784,-1.071 0.784,-1.059 0.784,-1.045 0.784,-1.032 0.784,-1.018 0.784,-1.005 0.784,-0.991 0.784,-0.978 0.784,-0.963 0.784,-0.95 0.784,-0.935 0.784,-0.922 0.784,-0.907 0.784,-0.893 0.784,-0.878 0.784,-0.864 0.784,-0.849 0.784,-0.834 0.784,-0.82 0.784,-0.804 0.784,-0.79 0.784,-0.774 0.784,-0.759 0.784,-0.744 0.784,-0.729 0.784,-0.713 0.784,-0.698 0.784,-0.682 0.784,-0.666 0.784,-0.65 0.784,-0.635 0.784,-0.619 0.784,-0.603 0.784,-0.587 0.784,-0.571 0.784,-0.554 0.784,-0.539 0.784,-0.522 0.784,-0.506 0.784,-0.489 0.784,-0.473 0.784,-0.457 0.784,-0.44 0.784,-0.423 0.784,-0.407 0.784,-0.39 0.784,-0.373 0.784,-0.357 0.784,-0.339 0.784,-0.323 0.784,-0.306 0.784,-0.29 0.784,-0.272 0.784,-0.255 0.784,-0.238 0.784,-0.221 0.784,-0.204 0.784,-0.187 0.784,-0.17 0.784,-0.153 0.784,-0.136 0.784,-0.118 0.784,-0.102 0.784,-0.084 0.784,-0.067 0.784,-0.05 0.784,-0.033 0.784,-0.015 0.784,0.002 0.784,0.019"
         stroke-width="5"
         stroke="#0000ff"
         fill="none"
         style="stroke:#000000;stroke-opacity:1" /><path
         d="m 506.985,160.761 21.349,7.694 -21.695,6.654 3.76,-7.087 z"
         stroke-width="1"
         stroke="#0000ff"
         fill="#0000ff"
         id="path4"
         style="fill:#000000;fill-opacity:1;stroke:#000000;stroke-opacity:1" /><text
         style="font-size:19.3421px;font-family:monospace;-inkscape-font-specification:'monospace, Normal';fill:#000000;fill-opacity:1;stroke:none;stroke-width:1.93421"
         xml:space="preserve"
         id="text1"
         x="1008.546"
         y="187.5844"
         transform="scale(0.5159692,1.9381002)"><tspan
           sodipodi:role="line"
           id="tspan1"
           x="1008.546"
           y="187.5844"
           style="stroke-width:1.93421">$\theta $</tspan></text><text
         style="font-size:12.1479px;font-family:monospace;-inkscape-font-specification:'monospace, Normal';fill:#000000;fill-opacity:1;stroke:none;stroke-width:1.21479"
         xml:space="preserve"
         id="text1-3"
         x="244.85895"
         y="175.42961"
         transform="scale(0.47457753,2.1071373)"><tspan
           sodipodi:role="line"
           id="tspan1-6"
           x="244.85895"
           y="175.42961"
           style="stroke-width:1.21479">$\frac{\pi}{6}$</tspan></text><text
         style="font-size:12.2144px;font-family:monospace;-inkscape-font-specification:'monospace, Normal';fill:#000000;fill-opacity:1;stroke:none;stroke-width:1.22144"
         xml:space="preserve"
         id="text1-7"
         x="835.42615"
         y="117.12622"
         transform="scale(0.3128576,3.1963423)"><tspan
           sodipodi:role="line"
           id="tspan1-5"
           x="835.42615"
           y="117.12622"
           style="stroke-width:1.22144">$\frac{\pi}{3}$</tspan></text><text
         style="font-size:15.4066px;font-family:monospace;-inkscape-font-specification:'monospace, Normal';fill:#000000;fill-opacity:1;stroke:none;stroke-width:1.54066"
         xml:space="preserve"
         id="text1-35"
         x="971.39429"
         y="148.35136"
         transform="scale(0.40062627,2.4960919)"><tspan
           sodipodi:role="line"
           id="tspan1-62"
           x="971.39429"
           y="148.35136"
           style="stroke-width:1.54066">$\frac{\pi}{2}$</tspan></text><text
         style="font-size:13.4833px;font-family:monospace;-inkscape-font-specification:'monospace, Normal';fill:#000000;fill-opacity:1;stroke:none;stroke-width:1.34833"
         xml:space="preserve"
         id="text1-9"
         x="1269.3832"
         y="138.57552"
         transform="scale(0.37538765,2.6639129)"><tspan
           sodipodi:role="line"
           id="tspan1-1"
           x="1269.3832"
           y="138.57552"
           style="stroke-width:1.34833">$\frac{2\pi}{3}$</tspan></text></g></g></svg>
