<?xml version="1.0" encoding="UTF-8" standalone="no"?>
<!-- Created with Inkscape (http://www.inkscape.org/) -->

<svg
   width="4in"
   height="3in"
   viewBox="0 0 101.6 76.2"
   version="1.1"
   id="svg8"
   inkscape:version="1.3.2 (091e20ef0f, 2023-11-25, custom)"
   sodipodi:docname="maneaan.svg"
   xml:space="preserve"
   xmlns:inkscape="http://www.inkscape.org/namespaces/inkscape"
   xmlns:sodipodi="http://sodipodi.sourceforge.net/DTD/sodipodi-0.dtd"
   xmlns="http://www.w3.org/2000/svg"
   xmlns:svg="http://www.w3.org/2000/svg"
   xmlns:rdf="http://www.w3.org/1999/02/22-rdf-syntax-ns#"
   xmlns:cc="http://creativecommons.org/ns#"
   xmlns:dc="http://purl.org/dc/elements/1.1/"><defs
     id="defs2"><style
       type="text/css"
       id="style1">@import url(&quot;http://cdnjs.cloudflare.com/ajax/libs/KaTeX/0.2.0/katex.min.css&quot;)</style></defs><sodipodi:namedview
     id="base"
     pagecolor="#ffffff"
     bordercolor="#666666"
     borderopacity="1.0"
     inkscape:pageopacity="0.0"
     inkscape:pageshadow="2"
     inkscape:zoom="1.6605267"
     inkscape:cx="188.49441"
     inkscape:cy="32.218693"
     inkscape:document-units="mm"
     inkscape:current-layer="g1"
     showgrid="false"
     showborder="true"
     width="200mm"
     showguides="true"
     inkscape:guide-bbox="true"
     inkscape:window-width="1854"
     inkscape:window-height="1014"
     inkscape:window-x="30"
     inkscape:window-y="30"
     inkscape:window-maximized="1"
     inkscape:showpageshadow="2"
     inkscape:pagecheckerboard="0"
     inkscape:deskcolor="#d1d1d1"><inkscape:grid
       type="xygrid"
       id="grid815"
       units="mm"
       spacingx="10"
       spacingy="10"
       empspacing="4"
       dotted="false"
       originx="0"
       originy="0"
       visible="false" /></sodipodi:namedview><metadata
     id="metadata5"><rdf:RDF><cc:Work
         rdf:about=""><dc:format>image/svg+xml</dc:format><dc:type
           rdf:resource="http://purl.org/dc/dcmitype/StillImage" /></cc:Work></rdf:RDF></metadata><g
     inkscape:label="Layer 1"
     inkscape:groupmode="layer"
     id="layer1"
     transform="translate(0,-177)"><g
       id="g1"
       transform="matrix(0.17930738,0,0,0.18098087,-1.6896743,173.22297)"><path
         d="m 547.14138,241.8339 22.41272,5.29316 -22.41272,5.29317 3.73545,-5.29317 z"
         stroke-width="0.876318"
         stroke="#000000"
         fill="#000000"
         id="path1" /><path
         d="m 33.331333,63.937487 7.470905,-15.879499 7.470905,15.879499 -7.470905,-2.646583 z"
         stroke-width="0.876318"
         stroke="#000000"
         fill="#000000"
         id="path2" /><path
         d="M 22.124975,247.12706 H 550.87683 M 40.802238,61.290904 V 432.96322 m 0,-181.41043 v -8.85145 m 61.424662,8.85145 v -1.35329 -7.49816 m 61.42467,8.85145 v -8.85145 m 61.42467,8.85145 v -8.85145 m 61.42466,8.85145 v -8.85145 m 61.42467,8.85145 v -8.85145 m 61.42467,8.85145 v -8.85145 m 61.42466,8.85145 v -8.85145 m 61.42467,8.85145 v -8.85145 M 47.048815,247.12706 H 34.555662 m 12.493153,28.76721 H 34.555662 m 12.493153,28.76721 H 34.555662 m 12.493153,28.7672 H 34.555662 m 12.493153,28.76721 H 34.555662 M 47.048815,390.9631 H 34.555662 m 12.493153,28.7672 H 34.555662 M 47.048815,218.35985 H 34.555662 m 12.493153,-28.7672 H 34.555662 M 47.048815,160.82544 H 34.555662 M 47.048815,132.05823 H 34.555662 m 12.493153,-28.7672 H 34.555662 M 47.048815,74.523819 H 34.555662"
         stroke-width="1.75264"
         stroke="#000000"
         fill="none"
         id="path3"
         sodipodi:nodetypes="ccccccccccccccccccccccccccccccccccccccccccccccccc" /><text
         id="null"
         x="34.344337"
         y="48.331337"
         font-style="italic"
         font-family="KaTeX_Main, serif"
         font-size="21.0316px"
         font-weight="normal"
         text-anchor="middle"
         fill="#000000"
         stroke-width="0px"
         transform="scale(1.1880339,0.84172679)">r</text><path
         id="path4"
         d="m 41.047335,218.57897 0.445248,-0.004 0.445249,-0.0119 0.445248,-0.0192 0.445895,-0.0274 0.445249,-0.0356 0.445248,-0.0437 0.445896,-0.0504 0.445248,-0.0592 0.445249,-0.0667 0.445896,-0.0748 0.445248,-0.0822 0.445249,-0.0903 0.445895,-0.0977 0.445248,-0.10587 0.445248,-0.11329 0.445896,-0.12069 0.445249,-0.12958 0.445248,-0.13624 0.445895,-0.14438 0.445249,-0.15179 0.445249,-0.15993 0.445895,-0.16734 0.445248,-0.17474 0.445249,-0.18214 0.445896,-0.1903 0.445248,-0.19695 0.445249,-0.20509 0.445895,-0.21251 0.445249,-0.2199 0.445247,-0.22732 0.445896,-0.23471 0.445249,-0.24213 0.445248,-0.24952 0.445896,-0.25693 0.445249,-0.2636 0.445249,-0.27173 0.445895,-0.27767 0.445247,-0.28579 0.445249,-0.29248 0.445896,-0.29988 0.445248,-0.30653 0.445249,-0.31394 0.445895,-0.31987 0.445249,-0.32802 0.445247,-0.33392 0.445896,-0.34134 0.445249,-0.34801 0.445248,-0.35466 0.445896,-0.36059 0.445249,-0.36799 0.445249,-0.37466 0.445895,-0.38058 0.445247,-0.38799 0.445249,-0.39317 0.445896,-0.40056 0.445248,-0.4065 0.445249,-0.41242 0.445896,-0.41908 0.445249,-0.42501 0.445247,-0.43093 0.445895,-0.43686 0.445249,-0.44277 0.445249,-0.44945 0.445895,-0.45462 0.445249,-0.46055 0.445249,-0.46573 0.445895,-0.47239 0.445247,-0.47758 0.445249,-0.48276 0.445896,-0.48794 0.445249,-0.49387 0.445248,-0.49905 0.445896,-0.50497 0.445249,-0.50942 0.445247,-0.5146 0.445895,-0.51978 0.445249,-0.52422 0.445249,-0.52941 0.445896,-0.53459 0.445248,-0.53904 0.445249,-0.54347 0.445896,-0.54866 0.445246,-0.5531 0.445249,-0.55754 0.445896,-0.56125 0.445249,-0.56643 0.445248,-0.57013 0.445896,-0.57457 0.445249,-0.57828 0.445247,-0.58272 0.445895,-0.58642 0.445249,-0.59011 0.445249,-0.59384 0.445896,-0.59752 0.445248,-0.60122 0.445249,-0.60494 0.445896,-0.60864 0.445247,-0.61084 0.445249,-0.61531 0.445895,-0.61752 0.445249,-0.62122 0.445248,-0.62418 0.445896,-0.62714 0.445249,-0.62937 0.445248,-0.63307 0.445894,-0.63528 0.445249,-0.63752 0.445249,-0.64046 0.445896,-0.6427 0.445248,-0.64492 0.445249,-0.64713 0.445896,-0.64936 0.445248,-0.65157 0.445248,-0.65307 0.445895,-0.65527 0.445249,-0.65751 0.445248,-0.65824 0.445896,-0.66047 0.445249,-0.66194 0.445248,-0.66342 0.445896,-0.66491 0.445248,-0.66564 0.445249,-0.66713 0.445895,-0.66786 0.445248,-0.66936 0.445249,-0.67008 0.445896,-0.6701 0.445248,-0.67156 0.445248,-0.67232 0.445895,-0.6723 0.445249,-0.67306 0.445248,-0.67379 0.445906,-0.67305 0.44524,-0.67379 0.44525,-0.6738 0.44589,-0.67379 0.44525,-0.67378 0.44525,-0.67305 0.44589,-0.67379 0.44525,-0.67232 0.44526,-0.67231 0.44589,-0.67157 0.44525,-0.67082 0.44524,-0.6701 0.4459,-0.66934 0.44524,-0.66861 0.44525,-0.66713 0.44591,-0.66639 0.44524,-0.6649 0.44525,-0.66418 0.44589,-0.66193 0.44525,-0.66047 0.44525,-0.65972 0.44589,-0.6575 0.44526,-0.65602 0.44525,-0.6538 0.44588,-0.65159 0.44527,-0.65009 0.44524,-0.64788 0.44589,-0.64565 0.44525,-0.64343 0.44525,-0.64121 0.4459,-0.63825 0.44524,-0.63604 0.44525,-0.63306 0.4459,-0.63084 0.44524,-0.6279 0.44525,-0.62491 0.4459,-0.62196 0.44525,-0.61826 0.44525,-0.61604 0.44589,-0.61234 0.44525,-0.60937 0.44525,-0.60567 0.4459,-0.60198 0.44525,-0.599 0.44524,-0.59457 0.44589,-0.5916 0.44526,-0.58717 0.44524,-0.58345 0.4459,-0.57976 0.44524,-0.57605 0.44526,-0.57087 0.4459,-0.56717 0.44524,-0.56346 0.44525,-0.5583 0.44589,-0.55458 0.44525,-0.54939 0.44525,-0.54496 0.4459,-0.54051 0.44525,-0.53607 0.44524,-0.5309 0.4459,-0.5257 0.44525,-0.52127 0.44524,-0.51607 0.44591,-0.5109 0.44524,-0.50571 0.44525,-0.50053 0.44589,-0.49536 0.44525,-0.49016 0.44525,-0.48424 0.44589,-0.47906 0.44525,-0.47313 0.44526,-0.46795 0.44588,-0.46203 0.44525,-0.45611 0.44525,-0.45092 0.4459,-0.44426 0.44525,-0.43907 0.44524,-0.43241 0.44591,-0.42723 0.44525,-0.42057 0.44524,-0.41388 0.4459,-0.40872 0.44524,-0.40132 0.44525,-0.39613 0.44591,-0.38873 0.44524,-0.3828 0.44525,-0.37614 0.44588,-0.37021 0.44526,-0.36281 0.44525,-0.35615 0.44589,-0.35023 0.44525,-0.34281 0.44526,-0.33615 0.44588,-0.3295 0.44525,-0.32209 0.44525,-0.31615 0.4459,-0.30803 0.44524,-0.3021 0.44525,-0.29394 0.44591,-0.28803 0.44524,-0.27989 0.44525,-0.27321 0.44589,-0.26582 0.44525,-0.25914 0.44525,-0.25102 0.4459,-0.24434 0.44525,-0.23694 0.44525,-0.22952 0.44588,-0.22214 0.44526,-0.21398 0.44524,-0.20732 0.4459,-0.19991 0.44525,-0.19178 0.44525,-0.18437 0.44589,-0.17696 0.44524,-0.16956 0.44526,-0.16215 0.4459,-0.15402 0.44524,-0.14585 0.44525,-0.1392 0.44589,-0.13106 0.44525,-0.12291 0.44525,-0.11625 0.4459,-0.10736 0.44525,-0.1 0.44525,-0.0926 0.4459,-0.0844 0.44525,-0.077 0.44524,-0.0689 0.44589,-0.0607 0.44526,-0.0533 0.44524,-0.0459 0.4459,-0.037 0.44525,-0.0296 0.44525,-0.0222 0.44589,-0.0141 0.44524,-0.006 0.44526,10e-4 0.44589,0.01 0.44525,0.0178 0.44525,0.0251 0.44589,0.0333 0.44525,0.0407 0.44524,0.0488 0.44591,0.057 0.44525,0.0644 0.44524,0.0726 0.44591,0.08 0.44524,0.0881 0.44525,0.0955 0.44589,0.10366 0.44525,0.11106 0.44525,0.11921 0.44589,0.12662 0.44526,0.13401 0.44525,0.14216 0.44588,0.15032 0.44525,0.15697 0.44526,0.16511 0.44589,0.17326 0.44525,0.17992 0.44524,0.18807 0.4459,0.19548 0.44525,0.20287 0.44524,0.21029 0.44591,0.21768 0.44524,0.22584 0.44525,0.23249 0.4459,0.2399 0.44524,0.2473 0.44525,0.25471 0.4459,0.26211 0.44525,0.26878 0.44525,0.27618 0.44589,0.28358 0.44526,0.29099 0.44525,0.29766 0.44588,0.30431 0.44525,0.31173 0.44525,0.31838 0.4459,0.32579 0.44524,0.33245 0.44525,0.33912 0.4459,0.34578 0.44524,0.35318 0.44525,0.35911 0.4459,0.36578 0.44525,0.37317 0.44525,0.3791 0.44589,0.38502 0.44525,0.39243 0.44525,0.39835 0.4459,0.40428 0.44525,0.41094 0.44524,0.4176 0.4459,0.42279 0.44526,0.42945 0.44524,0.43537 0.44589,0.4413 0.44524,0.44722 0.44526,0.45314 0.4459,0.45907 0.44524,0.46499 0.44525,0.47017 0.44589,0.47536 0.44525,0.48201 0.44525,0.48647 0.4459,0.49238 0.44525,0.49757 0.44525,0.50275 0.44589,0.50867 0.44525,0.51312 0.44524,0.51831 0.44591,0.52274 0.44525,0.52866 0.44524,0.53312 0.44589,0.53755 0.44525,0.54199 0.44525,0.54718 0.4459,0.55162 0.44524,0.55681 0.44526,0.56049 0.44589,0.56496 0.44525,0.56865 0.44525,0.57309 0.44589,0.57754 0.44525,0.58124 0.44524,0.58567 0.44591,0.58939 0.44525,0.59234 0.44524,0.59679 0.4459,0.60048 0.44524,0.60345 0.44525,0.60716 0.44591,0.61085 0.44524,0.61381 0.44525,0.61753 0.44588,0.61974 0.44526,0.62344 0.44525,0.6264 0.44589,0.62863 0.44525,0.63159 0.44526,0.63454 0.44589,0.63751 0.44525,0.63973 0.44525,0.64195 0.44589,0.64419 0.44525,0.64638 0.44524,0.64862 0.44591,0.65158 0.44524,0.65232 0.44525,0.65528 0.4459,0.65602 0.44524,0.65825 0.44525,0.66046 0.4459,0.66121 0.44525,0.66268 0.44525,0.66416 0.44588,0.66565 0.44526,0.66712 0.44525,0.66788 0.44589,0.6686 0.44525,0.66935 0.44525,0.67083 0.44589,0.67157 0.44524,0.67157 0.44526,0.67232 0.4459,0.67304 0.44524,0.67305 0.44525,0.67379 0.4459,0.6738 0.44525,0.67379 0.44525,0.67379 0.44589,0.67379 0.44525,0.67305 0.44525,0.67305 0.4459,0.67305 0.44525,0.67231 0.44524,0.67157 0.44589,0.67157 0.44526,0.67009 0.44524,0.67009 0.4459,0.6686 0.44525,0.66713 0.44525,0.66713 0.44589,0.66491 0.44524,0.66416 0.44526,0.66269 0.44589,0.6612 0.44525,0.65973 0.44525,0.65823 0.4459,0.65602 0.44525,0.65455 0.44525,0.65231 0.44589,0.65085 0.44525,0.64861 0.44524,0.64566 0.44591,0.64417 0.44525,0.64195 0.44524,0.63899 0.44589,0.63677 0.44525,0.63382 0.44525,0.63158 0.4459,0.62862 0.44525,0.62567 0.44525,0.6227 0.44588,0.61973 0.44525,0.61679 0.44526,0.61307 0.44589,0.61011 0.44525,0.60642 0.44524,0.60344 0.4459,0.59975 0.44525,0.59606 0.44524,0.59234 0.44591,0.58864 0.44524,0.5842 0.44525,0.58124 0.44591,0.57679 0.44524,0.57235 0.44525,0.56865 0.44589,0.56421 0.44525,0.55976 0.44525,0.55532 0.44589,0.55089 0.44526,0.54644 0.44525,0.54199 0.44588,0.53681 0.44525,0.53237 0.44525,0.52718 0.4459,0.52275 0.44525,0.51682 0.44524,0.51238 0.4459,0.50793 0.44524,0.50201 0.44525,0.49683 0.44591,0.4909 0.44524,0.48647 0.44525,0.48053 0.4459,0.47462 0.44525,0.46943 0.44525,0.46351 0.44589,0.45833 0.44525,0.4524 0.44525,0.44574 0.44589,0.44055 0.44526,0.43464 0.44524,0.42796 0.44589,0.4228 0.44524,0.41611 0.44526,0.40947 0.4459,0.40353 0.44524,0.39761 0.44525,0.39095 0.44526,0.38429 0.44588,0.37834 0.44525,0.3717 0.44525,0.36504 0.4459,0.35837 0.44525,0.35097 0.44524,0.34502 0.4459,0.33838 0.44524,0.33098 0.44525,0.3243 0.44591,0.31765 0.44524,0.31098 0.44525,0.30358 0.4459,0.29617 0.44525,0.28951 0.44525,0.2821 0.44588,0.27544 0.44526,0.26804 0.44525,0.26063 0.44589,0.25323 0.44525,0.24656 0.44525,0.23916 0.44589,0.23101 0.44525,0.22435 0.44525,0.2162 0.4459,0.20955 0.44524,0.2014 0.44525,0.19473 0.4459,0.18659 0.44524,0.17918 0.44525,0.17105 0.4459,0.16362 0.44525,0.15698 0.44525,0.14808 0.4459,0.14143 0.44525,0.13253 0.44524,0.12588 0.44589,0.11772 0.44526,0.11032 0.44524,0.10218 0.4459,0.094 0.44525,0.0866 0.44525,0.0792 0.44589,0.0711 0.44524,0.0629 0.44526,0.0555 0.44589,0.0481 0.44525,0.0392 0.44525,0.0319 0.44589,0.0244 0.44525,0.0163 0.44525,0.008 h 0.4459 l 0.44525,-0.007 0.44524,-0.0148 0.4459,-0.0229 0.44525,-0.031 0.44524,-0.0392 0.4459,-0.0466 0.44525,-0.0541 0.44525,-0.0622 0.4459,-0.0704 0.44525,-0.0778 0.44525,-0.0859 0.44588,-0.094 0.44525,-0.10143 0.44526,-0.10884 0.44589,-0.11699 0.44525,-0.1244 0.44525,-0.13253 0.44589,-0.13994 0.44525,-0.14734 0.44524,-0.1555 0.44591,-0.16289 0.44525,-0.1703 0.44524,-0.17844 0.4459,-0.18584 0.44524,-0.19326 0.44525,-0.20066 0.4459,-0.20881 0.44525,-0.21545 0.44525,-0.22288 0.44588,-0.23101 0.44527,-0.23768 0.44525,-0.24582 0.44588,-0.25249 0.44525,-0.25988 0.44525,-0.2673 0.4459,-0.27396 0.44525,-0.28136 0.44524,-0.28878 0.4459,-0.29542 0.44524,-0.30284 0.44525,-0.3095 0.44591,-0.3169 0.44524,-0.32357 0.44525,-0.33098 0.44589,-0.33689 0.44525,-0.3443 0.44525,-0.35096 0.4459,-0.35689 0.44525,-0.36429 0.44525,-0.37096 0.44588,-0.37761 0.44526,-0.38354 0.44524,-0.39022 0.4459,-0.39612 0.44525,-0.40354 0.44525,-0.40872 0.4459,-0.41538 0.44524,-0.42205 0.44525,-0.42721 0.4459,-0.4339 0.44524,-0.43981"
         stroke-width="3.46113"
         stroke="#0000ff"
         fill="none"
         style="fill:none;fill-opacity:1;stroke:#000000;stroke-opacity:1" /><path
         d="m 44.594951,223.63237 -22.469976,-5.17072 22.354415,-5.41561 -3.677152,5.31381 z"
         stroke-width="0.876318"
         stroke="#0000ff"
         fill="#0000ff"
         id="path5"
         style="fill:#000000;fill-opacity:1;stroke:#000000;stroke-opacity:1" /><path
         d="m 301.08929,202.48461 21.85053,-6.36567 -12.09025,14.38065 -2.052,-5.73647 z"
         stroke-width="0.876318"
         stroke="#0000ff"
         fill="#0000ff"
         id="path6"
         style="fill:#000000;fill-opacity:1;stroke:#000000;stroke-opacity:1" /><text
         style="font-size:12.8709px;font-family:monospace;-inkscape-font-specification:'monospace, Normal';fill:#000000;fill-opacity:1;stroke:none;stroke-width:1.28709"
         xml:space="preserve"
         id="text1"
         x="131.90797"
         y="314.98807"
         transform="scale(1.1935651,0.83782612)"><tspan
           sodipodi:role="line"
           id="tspan1"
           x="131.90797"
           y="314.98807"
           style="stroke-width:1.28709">$\pi$</tspan></text><text
         style="font-size:7.07836px;font-family:monospace;-inkscape-font-specification:'monospace, Normal';fill:#000000;fill-opacity:1;stroke:none;stroke-width:0.707836"
         xml:space="preserve"
         id="text1-3"
         x="175.27313"
         y="141.98242"
         transform="scale(0.53511753,1.8687484)"><tspan
           sodipodi:role="line"
           id="tspan1-6"
           x="175.27313"
           y="141.98242"
           style="stroke-width:0.707836">$\frac{\pi}{2}$</tspan></text><text
         style="font-size:6.82941px;font-family:monospace;-inkscape-font-specification:'monospace, Normal';fill:#000000;fill-opacity:1;stroke:none;stroke-width:0.682941"
         xml:space="preserve"
         id="text1-7"
         x="311.92557"
         y="178.84938"
         transform="scale(0.67353525,1.4847033)"><tspan
           sodipodi:role="line"
           id="tspan1-5"
           x="311.92557"
           y="178.84938"
           style="stroke-width:0.682941">$\frac{3\pi}{2}$</tspan></text><text
         style="font-size:11.4601px;font-family:monospace;-inkscape-font-specification:'monospace, Normal';fill:#000000;fill-opacity:1;stroke:none;stroke-width:1.14601"
         xml:space="preserve"
         id="text1-35"
         x="263.60675"
         y="272.72742"
         transform="scale(1.0329903,0.96806333)"><tspan
           sodipodi:role="line"
           id="tspan1-62"
           x="263.60675"
           y="272.72742"
           style="stroke-width:1.14601">$2\pi$</tspan></text><text
         style="font-size:7.05203px;font-family:monospace;-inkscape-font-specification:'monospace, Normal';fill:#000000;fill-opacity:1;stroke:none;stroke-width:0.705203"
         xml:space="preserve"
         id="text1-9"
         x="1073.5786"
         y="136.16522"
         transform="scale(0.50698149,1.9724586)"><tspan
           sodipodi:role="line"
           id="tspan1-1"
           x="1073.5786"
           y="136.16522"
           style="stroke-width:0.705203">$\theta $</tspan></text></g></g></svg>
