<?xml version="1.0" encoding="UTF-8" standalone="no"?>
<!-- Created with Inkscape (http://www.inkscape.org/) -->

<svg
   width="4in"
   height="3in"
   viewBox="0 0 101.6 76.2"
   version="1.1"
   id="svg8"
   inkscape:version="1.2.2 (b0a8486541, 2022-12-01)"
   sodipodi:docname="normalcurve.svg"
   xmlns:inkscape="http://www.inkscape.org/namespaces/inkscape"
   xmlns:sodipodi="http://sodipodi.sourceforge.net/DTD/sodipodi-0.dtd"
   xmlns="http://www.w3.org/2000/svg"
   xmlns:svg="http://www.w3.org/2000/svg"
   xmlns:rdf="http://www.w3.org/1999/02/22-rdf-syntax-ns#"
   xmlns:cc="http://creativecommons.org/ns#"
   xmlns:dc="http://purl.org/dc/elements/1.1/">
  <defs
     id="defs2">
    <marker
       style="overflow:visible"
       id="marker10151"
       refX="0"
       refY="0"
       orient="auto-start-reverse"
       inkscape:stockid="Arrow1"
       markerWidth="4.0606604"
       markerHeight="6.7071066"
       viewBox="0 0 4.0606602 6.7071068"
       inkscape:isstock="true"
       inkscape:collect="always"
       preserveAspectRatio="xMidYMid">
      <path
         style="fill:none;stroke:context-stroke;stroke-width:1;stroke-linecap:butt"
         d="M 3,-3 0,0 3,3"
         id="path10149"
         transform="rotate(180,0.125,0)"
         sodipodi:nodetypes="ccc" />
    </marker>
    <inkscape:path-effect
       effect="powerstroke"
       id="path-effect1361"
       is_visible="true"
       lpeversion="1"
       offset_points="2.9894044,-0.37516584"
       not_jump="true"
       sort_points="true"
       interpolator_type="CentripetalCatmullRom"
       interpolator_beta="0.75"
       start_linecap_type="peak"
       linejoin_type="spiro"
       miter_limit="4"
       scale_width="1"
       end_linecap_type="peak" />
    <inkscape:path-effect
       effect="simplify"
       id="path-effect1359"
       is_visible="true"
       lpeversion="1"
       steps="1"
       threshold="0.037633136"
       smooth_angles="0"
       helper_size="0"
       simplify_individual_paths="false"
       simplify_just_coalesce="false"
       step="1" />
    <inkscape:path-effect
       effect="powerstroke"
       id="path-effect1330"
       is_visible="true"
       lpeversion="1"
       offset_points="0.10608052,0.13304017"
       not_jump="true"
       sort_points="true"
       interpolator_type="CentripetalCatmullRom"
       interpolator_beta="0.75"
       start_linecap_type="peak"
       linejoin_type="spiro"
       miter_limit="4"
       scale_width="1"
       end_linecap_type="peak" />
    <inkscape:path-effect
       effect="simplify"
       id="path-effect1328"
       is_visible="true"
       lpeversion="1"
       steps="1"
       threshold="0.14307692"
       smooth_angles="0"
       helper_size="0"
       simplify_individual_paths="false"
       simplify_just_coalesce="false"
       step="1" />
    <inkscape:path-effect
       effect="powerstroke"
       id="path-effect1236"
       is_visible="true"
       lpeversion="1"
       offset_points="0.21705619,0.13304017"
       not_jump="true"
       sort_points="true"
       interpolator_type="CentripetalCatmullRom"
       interpolator_beta="0.75"
       start_linecap_type="peak"
       linejoin_type="spiro"
       miter_limit="4"
       scale_width="1"
       end_linecap_type="peak" />
    <inkscape:path-effect
       effect="simplify"
       id="path-effect1234"
       is_visible="true"
       lpeversion="1"
       steps="1"
       threshold="0.14307692"
       smooth_angles="0"
       helper_size="0"
       simplify_individual_paths="false"
       simplify_just_coalesce="false"
       step="1" />
    <marker
       style="overflow:visible"
       id="marker1118"
       refX="0"
       refY="0"
       orient="auto-start-reverse"
       inkscape:stockid="Arrow1"
       markerWidth="4.0606604"
       markerHeight="6.7071066"
       viewBox="0 0 4.0606602 6.7071068"
       inkscape:isstock="true"
       inkscape:collect="always"
       preserveAspectRatio="xMidYMid">
      <path
         style="fill:none;stroke:context-stroke;stroke-width:1;stroke-linecap:butt"
         d="M 3,-3 0,0 3,3"
         id="path1116"
         transform="rotate(180,0.125,0)"
         sodipodi:nodetypes="ccc" />
    </marker>
    <marker
       style="overflow:visible"
       id="Arrow1"
       refX="0"
       refY="0"
       orient="auto-start-reverse"
       inkscape:stockid="Arrow1"
       markerWidth="4.0606604"
       markerHeight="6.7071066"
       viewBox="0 0 4.0606602 6.7071068"
       inkscape:isstock="true"
       inkscape:collect="always"
       preserveAspectRatio="xMidYMid">
      <path
         style="fill:none;stroke:context-stroke;stroke-width:1;stroke-linecap:butt"
         d="M 3,-3 0,0 3,3"
         id="path5057"
         transform="rotate(180,0.125,0)"
         sodipodi:nodetypes="ccc" />
    </marker>
  </defs>
  <sodipodi:namedview
     id="base"
     pagecolor="#ffffff"
     bordercolor="#666666"
     borderopacity="1.0"
     inkscape:pageopacity="0.0"
     inkscape:pageshadow="2"
     inkscape:zoom="1.9887478"
     inkscape:cx="209.9311"
     inkscape:cy="142.04919"
     inkscape:document-units="mm"
     inkscape:current-layer="layer1"
     showgrid="false"
     showborder="true"
     width="200mm"
     showguides="true"
     inkscape:guide-bbox="true"
     inkscape:window-width="1896"
     inkscape:window-height="1034"
     inkscape:window-x="10"
     inkscape:window-y="10"
     inkscape:window-maximized="1"
     inkscape:showpageshadow="2"
     inkscape:pagecheckerboard="0"
     inkscape:deskcolor="#d1d1d1">
    <inkscape:grid
       type="xygrid"
       id="grid815"
       units="mm"
       spacingx="10"
       spacingy="10"
       empspacing="4"
       dotted="false"
       originx="0"
       originy="0" />
  </sodipodi:namedview>
  <metadata
     id="metadata5">
    <rdf:RDF>
      <cc:Work
         rdf:about="">
        <dc:format>image/svg+xml</dc:format>
        <dc:type
           rdf:resource="http://purl.org/dc/dcmitype/StillImage" />
      </cc:Work>
    </rdf:RDF>
  </metadata>
  <g
     inkscape:label="Layer 1"
     inkscape:groupmode="layer"
     id="layer1"
     transform="translate(0,-177)">
    <path
       style="fill:none;stroke:#000000;stroke-width:0.264583px;stroke-linecap:butt;stroke-linejoin:miter;stroke-opacity:1;marker-start:url(#Arrow1);marker-end:url(#marker1118)"
       d="M 7.884737,182.39332 V 246.0015 H 90.851264"
       id="path235" />
    <path
       d="m 14.603293,245.13886 c 1.936778,-0.0138 3.972972,-0.29682 5.949319,-1.06677 1.588112,-0.61869 3.101861,-1.53739 4.500691,-2.83898 1.223517,-1.13846 2.333495,-2.54575 3.326721,-4.25212 0.904331,-1.55366 1.691356,-3.31963 2.378625,-5.29914 1.266192,-3.64697 2.10027,-7.73311 2.793925,-12.15544 0.623486,-3.97497 1.093842,-8.0307 1.716515,-11.53519 0.02255,-2.50585 0.439947,-4.67712 1.184704,-6.51246 0.733998,-1.80883 1.780357,-3.27673 3.054051,-4.40465 1.25608,-1.11233 2.721661,-1.88351 4.297019,-2.32588 1.561406,-0.43845 3.224179,-0.55202 4.885772,-0.35964 3.316304,0.38396 6.613207,1.98466 9.075615,4.62502 1.239132,1.32869 2.261516,2.91464 2.972021,4.73183 0.712255,1.82166 1.106702,3.86411 1.102011,6.10048 0.501672,1.55935 0.834539,3.23209 1.072038,4.9454 0.24529,1.76951 0.392396,3.61119 0.511217,5.42497 0.258735,3.94952 0.382582,7.4781 0.95587,10.89663 0.296778,1.76968 0.698549,3.38469 1.254995,4.84437 0.591408,1.5514 1.344404,2.89153 2.290309,4.02881 1.025768,1.2333 2.263262,2.20917 3.722979,2.94937 1.487953,0.75451 3.182944,1.25159 5.057052,1.52923 0.181346,0.0269 0.365339,0.0518 0.552019,0.0748 0.62701,0.045 1.413778,0.12091 2.240896,0.18253 0.899339,0.067 1.792485,0.11377 2.642868,0.1091 0.978311,-0.005 1.778663,-0.0788 2.417021,-0.21926 0.382047,-0.084 0.680453,-0.18658 0.914438,-0.29671 0.308308,-0.14512 0.492246,-0.29723 0.608255,-0.42279 l 0.530151,-0.0209 0.02096,0.53015 c -0.18374,0.19886 -0.448068,0.40809 -0.839816,0.59248 -0.29348,0.13813 -0.64662,0.25687 -1.072768,0.35063 -0.707958,0.15574 -1.565278,0.23122 -2.574112,0.23677 -0.878799,0.005 -1.79418,-0.0435 -2.702741,-0.11116 -0.841263,-0.0627 -1.635921,-0.13932 -2.248212,-0.18306 -0.0064,-4.5e-4 -0.01269,-0.001 -0.01901,-0.002 -0.195963,-0.0241 -0.389251,-0.0502 -0.579899,-0.0785 -1.936463,-0.28688 -3.712173,-0.80397 -5.28644,-1.60225 -1.547524,-0.78472 -2.866882,-1.82389 -3.96051,-3.13878 -1.007023,-1.21076 -1.798708,-2.62585 -2.414549,-4.24134 -0.57879,-1.51829 -0.991408,-3.18392 -1.293875,-4.98753 -0.581467,-3.4673 -0.707926,-7.05363 -0.964601,-10.97169 -0.118489,-1.80872 -0.264215,-3.62883 -0.505715,-5.37099 -0.236721,-1.7077 -0.567042,-3.35402 -1.060995,-4.87401 -0.01237,-0.0381 -0.01857,-0.0779 -0.01836,-0.11794 0.01151,-2.16896 -0.367487,-4.13742 -1.050278,-5.88373 -0.675194,-1.72687 -1.645938,-3.23231 -2.821938,-4.4933 -2.339748,-2.50884 -5.472189,-4.02777 -8.613183,-4.39143 -1.571965,-0.182 -3.136044,-0.0735 -4.596623,0.33668 -1.472417,0.41346 -2.835796,1.13211 -4.002425,2.16522 -1.182372,1.04706 -2.163304,2.41744 -2.856227,4.12505 -0.706776,1.74174 -1.111241,3.82758 -1.129929,6.26786 -1.62e-4,0.0211 -0.0021,0.0421 -0.0058,0.0629 -0.618963,3.47531 -1.091259,7.5458 -1.719488,11.55101 -0.696155,4.43826 -1.538443,8.5757 -2.826368,12.28526 -0.699863,2.01579 -1.505826,3.82734 -2.438974,5.4305 -1.025395,1.76165 -2.17985,3.22904 -3.464066,4.42398 -1.469736,1.36757 -3.064931,2.33646 -4.739448,2.98882 -2.081011,0.81072 -4.211771,1.10365 -6.216348,1.11794 l -0.377829,-0.37249 z"
       id="path-1"
       inkscape:path-effect="#path-effect1359;#path-effect1361"
       inkscape:original-d="m 14.605966,245.51402 c 0.989363,-0.35462 2.60471,0.47549 3.53433,0 0.37851,-0.19361 1.086235,-0.17978 1.441099,-0.39468 4.678043,-2.83298 7.698911,-1.99556 9.548433,-9.39365 0.436518,-1.74607 1.378849,-3.61575 2.133933,-5.40088 0.425121,-1.00504 0.621975,-2.20634 0.966076,-3.23864 0.600205,-1.80062 1.292704,-3.50435 1.657407,-5.33386 0.350686,-1.75918 0.157772,-3.62907 0.433879,-5.2257 1.119179,-6.47184 1.605079,-17.20232 7.733386,-21.25535 1.118359,-0.73964 5.433107,-1.22916 6.827147,-1.22916 3.177793,0 5.868687,1.55242 7.508447,4.3625 3.507001,6.01 5.831894,12.03381 6.501388,18.9515 0.09238,0.95452 -0.09915,2.00305 0.13304,2.9318 0.601538,2.40615 0.35156,4.94786 0.798241,7.38907 0.27593,1.50802 -0.243494,3.17581 0.13304,4.65641 0.328831,1.29301 0.493124,2.54627 0.797502,3.76378 0.130395,0.52158 0.641266,1.0231 0.827587,1.5526 0.33866,0.96243 1.0859,2.19734 1.857975,2.77374 0.853357,0.63708 1.730989,1.00453 2.729378,1.33532 1.43632,0.47589 3.003203,2.312 4.497316,2.66163 3.183677,0.745 7.440442,1.24705 10.587773,0.18823 0.38546,-0.12967 1.378661,0.48717 1.102449,-0.46168"
       style="fill:#000000;fill-rule:nonzero;stroke:none;stroke-width:2.345;stroke-linejoin:bevel;stroke-dasharray:none;paint-order:markers fill stroke"
       sodipodi:nodetypes="cscssssssssssssssssssc" />
    <path
       style="fill:none;stroke:#000000;stroke-width:0.271945px;stroke-linecap:butt;stroke-linejoin:miter;stroke-opacity:1;stroke-dasharray:0.815835,0.271945;stroke-dashoffset:0"
       d="M 34.276063,217.77003 V 246.1143"
       id="path1497" />
    <path
       style="fill:none;stroke:#000000;stroke-width:0.264583px;stroke-linecap:butt;stroke-linejoin:miter;stroke-opacity:1;stroke-dasharray:0.79374898,0.26458299;stroke-dashoffset:0"
       d="M 62.963285,219.24475 V 246.075"
       id="path1499" />
    <text
       style="font-size:2.64583px;font-family:monospace;-inkscape-font-specification:'monospace, Normal';fill:#000000;fill-opacity:1;stroke:none;stroke-width:0.264583"
       xml:space="preserve"
       id="text2253"
       y="248.83206"
       x="30.076927"><tspan
         sodipodi:role="line"
         id="tspan2251"
         x="30.076927"
         y="248.83206"
         style="stroke-width:0.264583">$\mu - \sigma$</tspan></text>
    <text
       style="font-size:2.64583px;font-family:monospace;-inkscape-font-specification:'monospace, Normal';fill:#000000;fill-opacity:1;stroke:none;stroke-width:0.264583"
       xml:space="preserve"
       id="text3015"
       y="249.0793"
       x="59.85627"><tspan
         sodipodi:role="line"
         id="tspan3013"
         x="59.85627"
         y="249.0793"
         style="stroke-width:0.264583">$\mu + \sigma$</tspan></text>
    <text
       style="font-size:2.64583px;font-family:monospace;-inkscape-font-specification:'monospace, Normal';fill:#000000;fill-opacity:1;stroke:none;stroke-width:0.264583"
       xml:space="preserve"
       id="text4551"
       y="249.5583"
       x="47.056648"><tspan
         sodipodi:role="line"
         id="tspan4549"
         x="47.056648"
         y="249.5583"
         style="stroke-width:0.264583">$\mu$</tspan></text>
    <path
       style="fill:none;stroke:#000000;stroke-width:0.364399px;stroke-linecap:butt;stroke-linejoin:miter;stroke-dasharray:1.0932, 0.364399;stroke-dashoffset:0;stroke-opacity:1"
       d="M 48.277497,195.18224 V 246.075"
       id="path7829" />
    <text
       style="font-size:2.64583px;font-family:monospace;-inkscape-font-specification:'monospace, Normal';fill:#000000;fill-opacity:1;stroke:none;stroke-width:0.264583"
       xml:space="preserve"
       id="text10137"
       y="154.18779"
       x="-152.63359"
       transform="rotate(-48.268265)"><tspan
         sodipodi:role="line"
         id="tspan10135"
         x="-152.63359"
         y="154.18779"
         style="stroke-width:0.264583">Inflection points</tspan></text>
    <path
       style="fill:none;stroke:#000000;stroke-width:0.264583px;stroke-linecap:butt;stroke-linejoin:miter;stroke-opacity:1;marker-end:url(#marker10151)"
       d="m 23.307802,209.4606 8.535781,9.49257"
       id="path10147" />
  </g>
</svg>
