<?xml version="1.0" encoding="UTF-8" standalone="no"?>
<!-- Created with Inkscape (http://www.inkscape.org/) -->

<svg
   width="3in"
   height="3in"
   viewBox="0 0 76.2 76.2"
   version="1.1"
   id="svg8"
   inkscape:version="1.3.2 (091e20ef0f, 2023-11-25, custom)"
   sodipodi:docname="fc1.svg"
   xmlns:inkscape="http://www.inkscape.org/namespaces/inkscape"
   xmlns:sodipodi="http://sodipodi.sourceforge.net/DTD/sodipodi-0.dtd"
   xmlns="http://www.w3.org/2000/svg"
   xmlns:svg="http://www.w3.org/2000/svg"
   xmlns:rdf="http://www.w3.org/1999/02/22-rdf-syntax-ns#"
   xmlns:cc="http://creativecommons.org/ns#"
   xmlns:dc="http://purl.org/dc/elements/1.1/">
  <defs
     id="defs2">
    <marker
       style="overflow:visible"
       id="marker13"
       refX="0"
       refY="0"
       orient="auto-start-reverse"
       inkscape:stockid="Wide arrow"
       markerWidth="1"
       markerHeight="1"
       viewBox="0 0 1 1"
       inkscape:isstock="true"
       inkscape:collect="always"
       preserveAspectRatio="xMidYMid">
      <path
         style="fill:none;stroke:context-stroke;stroke-width:1;stroke-linecap:butt"
         d="M 3,-3 0,0 3,3"
         transform="rotate(180,0.125,0)"
         sodipodi:nodetypes="ccc"
         id="path13" />
    </marker>
    <marker
       style="overflow:visible"
       id="marker12"
       refX="0"
       refY="0"
       orient="auto-start-reverse"
       inkscape:stockid="Wide arrow"
       markerWidth="1"
       markerHeight="1"
       viewBox="0 0 1 1"
       inkscape:isstock="true"
       inkscape:collect="always"
       preserveAspectRatio="xMidYMid">
      <path
         style="fill:none;stroke:context-stroke;stroke-width:1;stroke-linecap:butt"
         d="M 3,-3 0,0 3,3"
         transform="rotate(180,0.125,0)"
         sodipodi:nodetypes="ccc"
         id="path12" />
    </marker>
    <marker
       style="overflow:visible"
       id="ArrowWide"
       refX="0"
       refY="0"
       orient="auto-start-reverse"
       inkscape:stockid="Wide arrow"
       markerWidth="1"
       markerHeight="1"
       viewBox="0 0 1 1"
       inkscape:isstock="true"
       inkscape:collect="always"
       preserveAspectRatio="xMidYMid">
      <path
         style="fill:none;stroke:context-stroke;stroke-width:1;stroke-linecap:butt"
         d="M 3,-3 0,0 3,3"
         transform="rotate(180,0.125,0)"
         sodipodi:nodetypes="ccc"
         id="path10" />
    </marker>
    <inkscape:path-effect
       effect="powerstroke"
       id="path-effect4"
       is_visible="true"
       lpeversion="1.3"
       scale_width="1"
       interpolator_type="CentripetalCatmullRom"
       interpolator_beta="0.75"
       start_linecap_type="peak"
       end_linecap_type="peak"
       offset_points="143.7424,0.21757806"
       linejoin_type="spiro"
       miter_limit="4"
       not_jump="true"
       sort_points="true"
       message="&lt;b&gt;Ctrl + click&lt;/b&gt; on existing node and move it" />
    <inkscape:path-effect
       effect="simplify"
       id="path-effect3"
       is_visible="true"
       lpeversion="1.3"
       threshold="0.019780219"
       steps="1"
       smooth_angles="0"
       helper_size="0"
       simplify_individual_paths="false"
       simplify_just_coalesce="false"
       step="1" />
  </defs>
  <sodipodi:namedview
     id="base"
     pagecolor="#ffffff"
     bordercolor="#666666"
     borderopacity="1.0"
     inkscape:pageopacity="0.0"
     inkscape:pageshadow="2"
     inkscape:zoom="3.0400967"
     inkscape:cx="124.00921"
     inkscape:cy="128.12092"
     inkscape:document-units="mm"
     inkscape:current-layer="layer1"
     showgrid="false"
     showborder="true"
     width="200mm"
     showguides="true"
     inkscape:guide-bbox="true"
     inkscape:window-width="1894"
     inkscape:window-height="1054"
     inkscape:window-x="8"
     inkscape:window-y="8"
     inkscape:window-maximized="1"
     inkscape:showpageshadow="2"
     inkscape:pagecheckerboard="0"
     inkscape:deskcolor="#d1d1d1">
    <inkscape:grid
       type="xygrid"
       id="grid815"
       units="mm"
       spacingx="10"
       spacingy="10"
       empspacing="4"
       dotted="false"
       originx="0"
       originy="0"
       visible="false" />
  </sodipodi:namedview>
  <metadata
     id="metadata5">
    <rdf:RDF>
      <cc:Work
         rdf:about="">
        <dc:format>image/svg+xml</dc:format>
        <dc:type
           rdf:resource="http://purl.org/dc/dcmitype/StillImage" />
      </cc:Work>
    </rdf:RDF>
  </metadata>
  <g
     inkscape:label="Layer 1"
     inkscape:groupmode="layer"
     id="layer1"
     transform="translate(0,-177)">
    <path
       style="fill:none;stroke:#000000;stroke-width:0.264583px;stroke-linecap:butt;stroke-linejoin:miter;stroke-opacity:1"
       d="m 18.067584,187.14142 c 0.843912,-0.087 39.37364,0 39.37364,0"
       id="path1" />
    <path
       style="fill:none;stroke:#000000;stroke-width:0.264583px;stroke-linecap:butt;stroke-linejoin:miter;stroke-opacity:1"
       d="m 39.712442,187.13728 c 1.290206,2.95427 12.800277,47.77128 12.800277,47.77128"
       id="path2" />
    <path
       style="fill:none;stroke:#000000;stroke-width:0.264583px;stroke-linecap:butt;stroke-linejoin:miter;stroke-opacity:1;stroke-dasharray:0.52916598,0.26458299;stroke-dashoffset:0"
       d="m 39.745647,187.19118 c 0,1.25234 0,47.74271 0,47.74271"
       id="path3" />
    <path
       d="m 40.090183,202.29659 c 0.0055,0.001 0.01114,0.003 0.01694,0.005 0.0062,0.002 0.01189,0.003 0.01767,0.005 0.0063,0.002 0.0119,0.003 0.01767,0.005 0.0063,0.002 0.01191,0.003 0.01767,0.005 0.0063,0.002 0.01192,0.003 0.01767,0.004 0.0063,0.002 0.01193,0.003 0.01767,0.004 0.0063,0.002 0.01194,0.003 0.01766,0.004 0.0063,0.002 0.01194,0.003 0.01766,0.004 0.0063,0.002 0.01195,0.003 0.01766,0.004 0.0063,0.001 0.01195,0.003 0.01766,0.004 0.0063,0.001 0.01196,0.003 0.01766,0.004 0.0063,0.001 0.01196,0.003 0.01765,0.004 0.0063,0.001 0.01196,0.003 0.01765,0.004 0.0063,0.001 0.01196,0.003 0.01765,0.004 0.0063,0.001 0.01196,0.003 0.01765,0.004 0.0063,0.001 0.01196,0.003 0.01764,0.004 0.0063,0.001 0.01197,0.002 0.01764,0.004 0.0063,0.001 0.01197,0.002 0.01764,0.004 0.0063,0.001 0.01197,0.002 0.01763,0.004 0.0063,0.001 0.01197,0.002 0.01763,0.003 0.0063,0.001 0.01197,0.002 0.01763,0.003 0.0063,0.001 0.01197,0.002 0.01762,0.003 0.0063,0.001 0.01196,0.002 0.01762,0.003 0.0063,0.001 0.01196,0.002 0.01761,0.003 0.0063,0.001 0.01196,0.002 0.01761,0.003 0.0063,0.001 0.01196,0.002 0.01761,0.003 0.0063,0.001 0.01196,0.002 0.0176,0.003 0.0063,0.001 0.01196,0.002 0.0176,0.003 0.0063,0.001 0.01196,0.002 0.01759,0.003 0.0063,0.001 0.01196,0.002 0.01759,0.003 0.0063,0.001 0.01195,0.002 0.01758,0.003 0.0063,9.8e-4 0.01195,0.002 0.01758,0.003 0.0063,9.6e-4 0.01195,0.002 0.01758,0.003 0.0063,9.3e-4 0.01195,0.002 0.01757,0.003 0.0063,9.1e-4 0.01194,0.002 0.01756,0.003 0.0063,8.8e-4 0.01194,0.002 0.01756,0.002 0.0063,8.6e-4 0.01194,0.002 0.01755,0.002 0.0063,8.5e-4 0.01194,0.002 0.01755,0.002 0.0063,8.2e-4 0.01193,0.002 0.01754,0.002 0.0063,7.9e-4 0.01193,0.001 0.01754,0.002 0.0063,7.7e-4 0.01193,0.001 0.01753,0.002 0.0063,7.5e-4 0.01192,0.001 0.01752,0.002 0.0063,7.3e-4 0.01192,0.001 0.01752,0.002 0.0063,7.1e-4 0.01192,0.001 0.01751,0.002 0.0063,6.8e-4 0.01191,0.001 0.0175,0.002 0.0063,6.6e-4 0.01191,0.001 0.0175,0.002 0.0063,6.3e-4 0.01191,0.001 0.01749,0.002 0.0063,6.1e-4 0.0119,0.001 0.01748,0.002 0.0063,5.9e-4 0.0119,0.001 0.01748,0.002 0.0063,5.6e-4 0.01189,0.001 0.01747,0.002 0.0063,5.4e-4 0.01189,0.001 0.01746,0.001 0.0063,5.2e-4 0.01189,9.7e-4 0.01746,0.001 0.0063,4.9e-4 0.01188,9.2e-4 0.01745,0.001 0.0063,4.7e-4 0.01188,8.8e-4 0.01744,0.001 0.0063,4.5e-4 0.01187,8.4e-4 0.01743,0.001 0.0063,4.3e-4 0.01187,8e-4 0.01742,0.001 0.0063,4e-4 0.01186,7.5e-4 0.01742,0.001 0.0063,3.8e-4 0.01186,7.1e-4 0.01741,0.001 0.0063,3.5e-4 0.01185,6.6e-4 0.0174,9.8e-4 0.0063,3.3e-4 0.01185,6.2e-4 0.01739,9.1e-4 0.0063,3.1e-4 0.01184,5.8e-4 0.01738,8.5e-4 0.0063,2.9e-4 0.01184,5.4e-4 0.01737,7.9e-4 0.0063,2.6e-4 0.01183,4.9e-4 0.01737,7.2e-4 0.0063,2.4e-4 0.01183,4.5e-4 0.01736,6.6e-4 0.0063,2.2e-4 0.01182,4.1e-4 0.01735,6e-4 0.0063,2e-4 0.01181,3.6e-4 0.01734,5.3e-4 0.0063,1.8e-4 0.01181,3.3e-4 0.01733,4.8e-4 0.0063,1.5e-4 0.0118,2.8e-4 0.01732,4e-4 0.0063,1.3e-4 0.0118,2.4e-4 0.01731,3.5e-4 0.0063,1e-4 0.01179,1.9e-4 0.0173,2.8e-4 0.0063,8e-5 0.01179,1.5e-4 0.01729,2.2e-4 0.0063,6e-5 0.01178,1.1e-4 0.01728,1.6e-4 0.0063,4e-5 0.01177,7e-5 0.01727,9e-5 0.0063,2e-5 0.01177,3e-5 0.01726,4e-5 0.0063,-1e-5 0.01176,-2e-5 0.01725,-3e-5 0.0063,-4e-5 0.01175,-7e-5 0.01724,-1e-4 0.0063,-5e-5 0.01175,-1e-4 0.01723,-1.5e-4 0.0063,-8e-5 0.01174,-1.5e-4 0.01722,-2.2e-4 0.0063,-1e-4 0.01173,-1.9e-4 0.01721,-2.8e-4 0.0063,-1.3e-4 0.01173,-2.4e-4 0.0172,-3.4e-4 0.0063,-1.5e-4 0.01172,-2.8e-4 0.01719,-4.1e-4 0.0063,-1.7e-4 0.01171,-3.2e-4 0.01717,-4.7e-4 0.0062,-1.9e-4 0.0117,-3.6e-4 0.01716,-5.3e-4 0.0062,-2.1e-4 0.0117,-4e-4 0.01715,-5.9e-4 0.0062,-2.3e-4 0.01169,-4.4e-4 0.01714,-6.5e-4 0.0062,-2.6e-4 0.01168,-4.9e-4 0.01713,-7.2e-4 0.0062,-2.8e-4 0.01167,-5.3e-4 0.01711,-7.7e-4 0.0062,-3.1e-4 0.01167,-5.8e-4 0.0171,-8.4e-4 0.0062,-3.3e-4 0.01166,-6.2e-4 0.01709,-9e-4 0.0062,-3.5e-4 0.01165,-6.6e-4 0.01708,-9.7e-4 0.0062,-3.7e-4 0.01164,-6.9e-4 0.01707,-0.001 0.0062,-3.9e-4 0.01163,-7.4e-4 0.01705,-0.001 0.0062,-4.1e-4 0.01163,-7.8e-4 0.01704,-0.001 0.0062,-4.4e-4 0.01162,-8.3e-4 0.01703,-0.001 0.0062,-4.6e-4 0.01161,-8.7e-4 0.01702,-0.001 0.0062,-4.9e-4 0.0116,-9.1e-4 0.017,-0.001 0.0062,-5.1e-4 0.01159,-9.5e-4 0.01699,-0.001 0.0062,-5.3e-4 0.01159,-9.9e-4 0.01698,-0.001 0.0062,-5.5e-4 0.01158,-0.001 0.01696,-0.002 0.0062,-5.7e-4 0.01157,-0.001 0.01695,-0.002 0.0062,-6e-4 0.01156,-0.001 0.01694,-0.002 0.0062,-6.2e-4 0.01155,-0.001 0.01692,-0.002 0.0062,-6.4e-4 0.01154,-0.001 0.01691,-0.002 0.0062,-6.6e-4 0.01153,-0.001 0.01689,-0.002 0.0062,-6.8e-4 0.01152,-0.001 0.01688,-0.002 0.0062,-7.1e-4 0.01151,-0.001 0.01687,-0.002 0.0061,-7.3e-4 0.0115,-0.001 0.01685,-0.002 0.0061,-7.5e-4 0.01149,-0.001 0.01684,-0.002 0.0061,-7.8e-4 0.01148,-0.001 0.01682,-0.002 0.0061,-7.9e-4 0.01148,-0.001 0.01681,-0.002 0.0061,-8.2e-4 0.01146,-0.002 0.01679,-0.002 0.0061,-8.4e-4 0.01146,-0.002 0.01678,-0.002 0.0061,-8.6e-4 0.01145,-0.002 0.01676,-0.002 0.0061,-8.8e-4 0.01143,-0.002 0.01675,-0.002 0.0061,-9.1e-4 0.01143,-0.002 0.01673,-0.002 0.0061,-9.3e-4 0.01142,-0.002 0.01672,-0.003 0.0061,-9.5e-4 0.01141,-0.002 0.0167,-0.003 0.0061,-9.7e-4 0.0114,-0.002 0.01668,-0.003 0.0061,-0.001 0.01139,-0.002 0.01667,-0.003 0.0061,-0.001 0.01137,-0.002 0.01665,-0.003 0.0061,-0.001 0.01136,-0.002 0.01664,-0.003 0.0061,-0.001 0.01135,-0.002 0.01662,-0.003 0.0061,-0.001 0.01134,-0.002 0.0166,-0.003 0.0061,-0.001 0.01133,-0.002 0.01659,-0.003 0.0061,-0.001 0.01132,-0.002 0.01657,-0.003 0.0061,-0.001 0.01131,-0.002 0.01656,-0.003 0.006,-0.001 0.0113,-0.002 0.01654,-0.003 0.006,-0.001 0.01129,-0.002 0.01652,-0.003 0.006,-0.001 0.01128,-0.002 0.0165,-0.003 0.006,-0.001 0.01126,-0.002 0.01649,-0.003 0.006,-0.001 0.01125,-0.002 0.01647,-0.003 0.006,-0.001 0.01124,-0.002 0.01645,-0.004 0.006,-0.001 0.01123,-0.002 0.01643,-0.004 0.006,-0.001 0.01122,-0.002 0.01642,-0.004 0.006,-0.001 0.01121,-0.003 0.0164,-0.004 0.006,-0.001 0.0112,-0.003 0.01638,-0.004 0.006,-0.001 0.01118,-0.003 0.01636,-0.004 0.006,-0.001 0.01117,-0.003 0.01634,-0.004 0.006,-0.001 0.01116,-0.003 0.01633,-0.004 0.006,-0.001 0.01115,-0.003 0.01631,-0.004 0.006,-0.001 0.01114,-0.003 0.01629,-0.004 0.006,-0.001 0.01113,-0.003 0.01627,-0.004 0.006,-0.002 0.01111,-0.003 0.01625,-0.004 0.0046,-0.001 0.0084,-0.002 0.01225,-0.003 0.0099,-0.003 0.01503,-0.004 0.0202,-0.005 0.0059,-0.002 0.01104,-0.003 0.01619,-0.004 0.0059,-0.002 0.01102,-0.003 0.01617,-0.004 0.0059,-0.002 0.01101,-0.003 0.01615,-0.004 0.0059,-0.002 0.011,-0.003 0.01613,-0.004 0.0059,-0.002 0.01099,-0.003 0.01611,-0.005 0.0059,-0.002 0.01097,-0.003 0.01609,-0.005 0.0059,-0.002 0.01096,-0.003 0.01607,-0.005 0.0058,-0.002 0.01095,-0.003 0.01605,-0.005 0.0058,-0.002 0.01093,-0.003 0.01603,-0.005 0.0058,-0.002 0.01092,-0.003 0.01601,-0.005 0.0058,-0.002 0.01091,-0.003 0.01599,-0.005 0.0058,-0.002 0.01089,-0.003 0.01597,-0.005 0.0058,-0.002 0.01088,-0.003 0.01595,-0.005 0.0058,-0.002 0.01086,-0.003 0.01593,-0.005 0.0058,-0.002 0.01085,-0.004 0.01591,-0.005 0.0058,-0.002 0.01084,-0.004 0.01589,-0.005 0.0058,-0.002 0.01082,-0.004 0.01587,-0.005 0.0058,-0.002 0.01081,-0.004 0.01584,-0.005 0.0058,-0.002 0.01079,-0.004 0.01582,-0.005 0.0058,-0.002 0.01078,-0.004 0.0158,-0.005 0.0058,-0.002 0.01076,-0.004 0.01578,-0.005 0.0057,-0.002 0.01075,-0.004 0.01576,-0.006 0.0057,-0.002 0.01074,-0.004 0.01574,-0.006 0.0057,-0.002 0.01072,-0.004 0.01571,-0.006 0.0057,-0.002 0.01071,-0.004 0.01569,-0.006 0.0057,-0.002 0.01069,-0.004 0.01567,-0.006 0.0057,-0.002 0.01068,-0.004 0.01565,-0.006 0.0057,-0.002 0.01066,-0.004 0.01562,-0.006 0.0057,-0.002 0.01065,-0.004 0.0156,-0.006 0.0057,-0.002 0.01063,-0.004 0.01558,-0.006 0.0057,-0.002 0.01062,-0.004 0.01555,-0.006 0.0057,-0.002 0.0106,-0.004 0.01553,-0.006 0.0057,-0.002 0.01058,-0.004 0.01551,-0.006 0.0057,-0.002 0.01057,-0.004 0.01548,-0.006 0.0056,-0.002 0.01055,-0.004 0.01546,-0.006 0.0056,-0.002 0.01054,-0.004 0.01544,-0.006 0.0056,-0.002 0.01052,-0.004 0.01541,-0.006 0.0056,-0.002 0.01051,-0.004 0.01539,-0.006 0.0056,-0.002 0.01049,-0.004 0.01537,-0.006 0.0056,-0.002 0.01047,-0.004 0.01534,-0.007 0.0056,-0.002 0.01046,-0.005 0.01532,-0.007 0.0056,-0.002 0.01044,-0.005 0.01529,-0.007 0.0056,-0.002 0.01042,-0.005 0.01527,-0.007 0.0056,-0.002 0.01041,-0.005 0.01524,-0.007 0.0056,-0.002 0.01039,-0.005 0.01522,-0.007 0.0055,-0.003 0.01037,-0.005 0.01519,-0.007 0.0055,-0.003 0.01036,-0.005 0.01517,-0.007 0.0055,-0.003 0.01034,-0.005 0.01514,-0.007 0.0055,-0.003 0.01032,-0.005 0.01512,-0.007 0.0055,-0.003 0.01031,-0.005 0.01509,-0.007 0.0055,-0.003 0.01029,-0.005 0.01507,-0.007 0.0055,-0.003 0.01027,-0.005 0.01504,-0.007 0.0055,-0.003 0.01025,-0.005 0.01502,-0.007 0.0055,-0.003 0.01024,-0.005 0.01499,-0.007 0.0055,-0.003 0.01022,-0.005 0.01496,-0.007 0.0055,-0.003 0.0102,-0.005 0.01494,-0.007 0.0054,-0.003 0.01018,-0.005 0.01491,-0.007 0.0054,-0.003 0.01017,-0.005 0.01489,-0.008 0.0054,-0.003 0.01015,-0.005 0.01486,-0.008 0.0054,-0.003 0.01013,-0.005 0.01483,-0.008 0.0054,-0.003 0.01011,-0.005 0.01481,-0.008 0.0054,-0.003 0.01009,-0.005 0.01478,-0.008 0.0054,-0.003 0.01008,-0.005 0.01475,-0.008 0.0054,-0.003 0.01006,-0.005 0.01473,-0.008 0.0054,-0.003 0.01004,-0.005 0.0147,-0.008 0.0054,-0.003 0.01002,-0.005 0.01467,-0.008 0.0054,-0.003 0.01,-0.005 0.01464,-0.008 0.0053,-0.003 0.01,-0.006 0.01461,-0.008 0.0053,-0.003 0.01,-0.006 0.01459,-0.008 0.0053,-0.003 0.0099,-0.006 0.01456,-0.008 0.0053,-0.003 0.0099,-0.006 0.01453,-0.008 0.0053,-0.003 0.0099,-0.006 0.0145,-0.008 0.0053,-0.003 0.0099,-0.006 0.01448,-0.008 0.0053,-0.003 0.0099,-0.006 0.01445,-0.008 0.0053,-0.003 0.0099,-0.006 0.01442,-0.008 0.0053,-0.003 0.0098,-0.006 0.01439,-0.008 0.0053,-0.003 0.0098,-0.006 0.01436,-0.009 0.0052,-0.003 0.0098,-0.006 0.01433,-0.009 0.0052,-0.003 0.0098,-0.006 0.0143,-0.009 0.0052,-0.003 0.0098,-0.006 0.01428,-0.009 0.0052,-0.003 0.0097,-0.006 0.01425,-0.009 0.0052,-0.003 0.0097,-0.006 0.01422,-0.009 0.0052,-0.003 0.0097,-0.006 0.01419,-0.009 0.0052,-0.003 0.0097,-0.006 0.01416,-0.009 0.0052,-0.003 0.0097,-0.006 0.01413,-0.009 0.0052,-0.003 0.0096,-0.006 0.0141,-0.009 0.0052,-0.003 0.0096,-0.006 0.01407,-0.009 0.0051,-0.003 0.0096,-0.006 0.01404,-0.009 0.0051,-0.003 0.0096,-0.006 0.01401,-0.009 0.0051,-0.003 0.0096,-0.006 0.01398,-0.009 0.0051,-0.003 0.0095,-0.006 0.01395,-0.009 0.0051,-0.003 0.0095,-0.006 0.01392,-0.009 0.0051,-0.003 0.0095,-0.006 0.01389,-0.009 0.0051,-0.003 0.0095,-0.006 0.01385,-0.009 0.0051,-0.003 0.0095,-0.006 0.01383,-0.01 0.0051,-0.004 0.0094,-0.007 0.01379,-0.01 0.0051,-0.004 0.0094,-0.007 0.01376,-0.01 0.005,-0.004 0.0094,-0.007 0.01373,-0.01 0.005,-0.004 0.0094,-0.007 0.0137,-0.01 0.005,-0.004 0.0094,-0.007 0.01367,-0.01 0.005,-0.004 0.0094,-0.007 0.01364,-0.01 0.005,-0.004 0.0093,-0.007 0.0136,-0.01 0.005,-0.004 0.0093,-0.007 0.01357,-0.01 0.005,-0.004 0.0093,-0.007 0.01354,-0.01 0.005,-0.004 0.0093,-0.007 0.01351,-0.01 0.005,-0.004 0.0093,-0.007 0.01348,-0.0101 0.005,-0.004 0.0093,-0.007 0.01345,-0.0101 0.005,-0.004 0.0092,-0.007 0.01341,-0.0102 0.005,-0.004 0.0092,-0.007 0.01338,-0.0102 0.005,-0.004 0.0092,-0.007 0.01335,-0.0103 0.005,-0.004 0.0092,-0.007 0.01331,-0.0103 l 0.03861,-0.30527 -0.30527,-0.0386 c -0.0041,0.003 -0.0083,0.006 -0.0127,0.01 -0.0035,0.003 -0.0078,0.006 -0.01211,0.009 -0.0035,0.003 -0.0078,0.006 -0.01214,0.009 -0.0036,0.003 -0.0078,0.006 -0.01217,0.009 -0.0036,0.003 -0.0078,0.006 -0.0122,0.009 -0.0036,0.003 -0.0079,0.006 -0.01223,0.009 -0.0036,0.003 -0.0079,0.006 -0.01226,0.009 -0.0036,0.003 -0.0079,0.006 -0.01228,0.009 -0.0036,0.003 -0.0079,0.006 -0.01231,0.009 -0.0036,0.003 -0.008,0.006 -0.01234,0.009 -0.0037,0.003 -0.008,0.006 -0.01237,0.009 -0.0037,0.003 -0.008,0.006 -0.0124,0.009 -0.0037,0.003 -0.008,0.006 -0.01242,0.009 -0.0037,0.003 -0.008,0.006 -0.01245,0.009 -0.0037,0.003 -0.0081,0.006 -0.01248,0.009 -0.0037,0.003 -0.0081,0.006 -0.01251,0.009 -0.0037,0.003 -0.0081,0.006 -0.01253,0.009 -0.0037,0.003 -0.0081,0.006 -0.01256,0.009 -0.0037,0.003 -0.0081,0.006 -0.01259,0.009 -0.0037,0.003 -0.0082,0.005 -0.01262,0.008 -0.0038,0.002 -0.0082,0.005 -0.01264,0.008 -0.0038,0.002 -0.0082,0.005 -0.01267,0.008 -0.0038,0.002 -0.0082,0.005 -0.0127,0.008 -0.0038,0.002 -0.0082,0.005 -0.01272,0.008 -0.0038,0.002 -0.0083,0.005 -0.01275,0.008 -0.0038,0.002 -0.0083,0.005 -0.01278,0.008 -0.0038,0.002 -0.0083,0.005 -0.0128,0.008 -0.0038,0.002 -0.0083,0.005 -0.01283,0.008 -0.0038,0.002 -0.0083,0.005 -0.01286,0.008 -0.0038,0.002 -0.0083,0.005 -0.01288,0.008 -0.0038,0.002 -0.0084,0.005 -0.01291,0.008 -0.0038,0.002 -0.0084,0.005 -0.01293,0.008 -0.0039,0.002 -0.0084,0.005 -0.01296,0.008 -0.0039,0.002 -0.0084,0.005 -0.01299,0.008 -0.0039,0.002 -0.0084,0.005 -0.01301,0.008 -0.0039,0.002 -0.0085,0.005 -0.01304,0.008 -0.0039,0.002 -0.0085,0.005 -0.01306,0.008 -0.0039,0.002 -0.0085,0.005 -0.01309,0.008 -0.0039,0.002 -0.0085,0.005 -0.01311,0.008 -0.0039,0.002 -0.0085,0.005 -0.01314,0.008 -0.0039,0.002 -0.0085,0.005 -0.01316,0.007 -0.0039,0.002 -0.0086,0.005 -0.01319,0.007 -0.0039,0.002 -0.0086,0.005 -0.01321,0.007 -0.0039,0.002 -0.0086,0.005 -0.01324,0.007 -0.0039,0.002 -0.0086,0.005 -0.01326,0.007 -0.004,0.002 -0.0086,0.005 -0.01329,0.007 -0.004,0.002 -0.0086,0.005 -0.01331,0.007 -0.004,0.002 -0.0086,0.005 -0.01333,0.007 -0.004,0.002 -0.0087,0.005 -0.01336,0.007 -0.004,0.002 -0.0087,0.005 -0.01338,0.007 -0.004,0.002 -0.0087,0.005 -0.01341,0.007 -0.004,0.002 -0.0087,0.004 -0.01343,0.007 -0.004,0.002 -0.0087,0.004 -0.01345,0.007 -0.004,0.002 -0.0087,0.004 -0.01348,0.007 -0.004,0.002 -0.0088,0.004 -0.0135,0.007 -0.004,0.002 -0.0088,0.004 -0.01352,0.007 -0.004,0.002 -0.0088,0.004 -0.01355,0.007 -0.004,0.002 -0.0088,0.004 -0.01357,0.007 -0.0041,0.002 -0.0088,0.004 -0.01359,0.007 -0.0041,0.002 -0.0088,0.004 -0.01362,0.007 -0.0041,0.002 -0.0089,0.004 -0.01364,0.006 -0.0041,0.002 -0.0089,0.004 -0.01366,0.006 -0.0041,0.002 -0.0089,0.004 -0.01369,0.006 -0.0041,0.002 -0.0089,0.004 -0.01371,0.006 -0.0041,0.002 -0.0089,0.004 -0.01373,0.006 -0.0041,0.002 -0.0089,0.004 -0.01375,0.006 -0.0041,0.002 -0.0089,0.004 -0.01378,0.006 -0.0041,0.002 -0.009,0.004 -0.0138,0.006 -0.0041,0.002 -0.009,0.004 -0.01382,0.006 -0.0041,0.002 -0.009,0.004 -0.01384,0.006 -0.0041,0.002 -0.009,0.004 -0.01386,0.006 -0.0041,0.002 -0.009,0.004 -0.01389,0.006 -0.0041,0.002 -0.009,0.004 -0.01391,0.006 -0.0042,0.002 -0.009,0.004 -0.01393,0.006 -0.0042,0.002 -0.0091,0.004 -0.01395,0.006 -0.0042,0.002 -0.0091,0.004 -0.01397,0.006 -0.0042,0.002 -0.0091,0.004 -0.01399,0.006 -0.0042,0.002 -0.0091,0.004 -0.01401,0.006 -0.0042,0.002 -0.0091,0.004 -0.01403,0.006 -0.0042,0.002 -0.0091,0.004 -0.01406,0.006 -0.0042,0.002 -0.0091,0.004 -0.01408,0.005 -0.0042,0.002 -0.0092,0.004 -0.0141,0.005 -0.0042,0.002 -0.0092,0.003 -0.01412,0.005 -0.0042,0.002 -0.0092,0.003 -0.01414,0.005 -0.0042,0.002 -0.0092,0.003 -0.01416,0.005 -0.0042,0.002 -0.0092,0.003 -0.01418,0.005 -0.0042,0.002 -0.0092,0.003 -0.0142,0.005 -0.0042,0.002 -0.0092,0.003 -0.01422,0.005 -0.0043,0.002 -0.0092,0.003 -0.01424,0.005 -0.0043,0.001 -0.0093,0.003 -0.01426,0.005 -0.0043,0.001 -0.0093,0.003 -0.01428,0.005 -0.0043,0.001 -0.0093,0.003 -0.0143,0.005 -0.0043,0.001 -0.0093,0.003 -0.01432,0.005 -0.0043,0.001 -0.0093,0.003 -0.01434,0.005 -0.0043,0.001 -0.0093,0.003 -0.01436,0.005 -0.0043,0.001 -0.0093,0.003 -0.01438,0.005 -0.0043,0.001 -0.0094,0.003 -0.0144,0.005 -0.0043,0.001 -0.0094,0.003 -0.01442,0.005 -0.0043,0.001 -0.0094,0.003 -0.01444,0.005 -0.0043,0.001 -0.0094,0.003 -0.01445,0.004 -0.0043,0.001 -0.0094,0.003 -0.01447,0.004 -0.0043,0.001 -0.0094,0.003 -0.01449,0.004 -0.0043,0.001 -0.0094,0.003 -0.01451,0.004 -0.0043,0.001 -0.0094,0.003 -0.01453,0.004 -0.0044,0.001 -0.0095,0.003 -0.01455,0.004 -0.0044,0.001 -0.0095,0.003 -0.01457,0.004 -0.0044,0.001 -0.0095,0.003 -0.01458,0.004 -0.0044,0.001 -0.0095,0.003 -0.0146,0.004 -0.0044,0.001 -0.0095,0.003 -0.01462,0.004 -0.0044,0.001 -0.0095,0.003 -0.01464,0.004 -0.0044,0.001 -0.0095,0.003 -0.01466,0.004 -0.0044,0.001 -0.0095,0.002 -0.01467,0.004 -0.007,0.002 -0.01085,0.003 -0.01469,0.004 -0.0044,0.001 -0.0095,0.002 -0.01471,0.004 -0.0044,0.001 -0.0095,0.002 -0.01473,0.004 -0.0044,0.001 -0.0095,0.002 -0.01474,0.004 -0.0044,0.001 -0.0096,0.002 -0.01476,0.004 -0.0044,0.001 -0.0096,0.002 -0.01478,0.004 -0.0044,0.001 -0.0096,0.002 -0.01479,0.003 -0.0044,0.001 -0.0096,0.002 -0.01481,0.003 -0.0044,0.001 -0.0096,0.002 -0.01483,0.003 -0.0044,9.9e-4 -0.0096,0.002 -0.01485,0.003 -0.0044,9.8e-4 -0.0096,0.002 -0.01486,0.003 -0.0044,9.6e-4 -0.0096,0.002 -0.01488,0.003 -0.0044,9.4e-4 -0.0097,0.002 -0.0149,0.003 -0.0044,9.2e-4 -0.0097,0.002 -0.01491,0.003 -0.0044,9.1e-4 -0.0097,0.002 -0.01493,0.003 -0.0044,9e-4 -0.0097,0.002 -0.01494,0.003 -0.0045,8.8e-4 -0.0097,0.002 -0.01496,0.003 -0.0045,8.6e-4 -0.0097,0.002 -0.01498,0.003 -0.0045,8.4e-4 -0.0097,0.002 -0.01499,0.003 -0.0045,8.3e-4 -0.0097,0.002 -0.01501,0.003 -0.0045,8.1e-4 -0.0097,0.002 -0.01502,0.003 -0.0045,7.9e-4 -0.0098,0.002 -0.01504,0.003 -0.0045,7.8e-4 -0.0098,0.002 -0.01506,0.003 -0.0045,7.7e-4 -0.0098,0.002 -0.01507,0.003 -0.0045,7.5e-4 -0.0098,0.002 -0.01509,0.003 -0.0045,7.4e-4 -0.0098,0.002 -0.0151,0.002 -0.0045,7.2e-4 -0.0098,0.002 -0.01511,0.002 -0.0045,7e-4 -0.0098,0.002 -0.01513,0.002 -0.0045,6.8e-4 -0.0098,0.001 -0.01515,0.002 -0.0045,6.7e-4 -0.0098,0.001 -0.01516,0.002 -0.0045,6.5e-4 -0.0098,0.001 -0.01517,0.002 -0.0045,6.4e-4 -0.0099,0.001 -0.01519,0.002 -0.0045,6.2e-4 -0.0099,0.001 -0.0152,0.002 -0.0045,6.1e-4 -0.0099,0.001 -0.01522,0.002 -0.0045,5.9e-4 -0.0099,0.001 -0.01523,0.002 -0.0046,5.7e-4 -0.0099,0.001 -0.01525,0.002 -0.0046,5.6e-4 -0.0099,0.001 -0.01526,0.002 -0.0046,5.4e-4 -0.0099,0.001 -0.01528,0.002 -0.0046,5.2e-4 -0.0099,0.001 -0.01529,0.002 -0.0046,5e-4 -0.0099,0.001 -0.0153,0.002 -0.0046,4.9e-4 -0.0099,0.001 -0.01532,0.002 -0.0046,4.8e-4 -0.01,0.001 -0.01533,0.002 -0.0046,4.5e-4 -0.01,9.9e-4 -0.01534,0.002 -0.0046,4.4e-4 -0.01,9.6e-4 -0.01536,0.001 -0.0046,4.3e-4 -0.01,9.3e-4 -0.01537,0.001 -0.0046,4.1e-4 -0.01,8.9e-4 -0.01538,0.001 -0.0046,4e-4 -0.01,8.6e-4 -0.0154,0.001 -0.0046,3.8e-4 -0.01001,8.2e-4 -0.01541,0.001 -0.0046,3.6e-4 -0.01001,7.9e-4 -0.01542,0.001 -0.0046,3.5e-4 -0.01002,7.5e-4 -0.01544,0.001 -0.0046,3.3e-4 -0.01003,7.2e-4 -0.01545,0.001 -0.0046,3.1e-4 -0.01004,6.8e-4 -0.01546,0.001 -0.0046,2.9e-4 -0.01005,6.4e-4 -0.01547,9.9e-4 -0.0046,2.7e-4 -0.01006,6e-4 -0.01549,9.3e-4 -0.0046,2.6e-4 -0.01007,5.6e-4 -0.0155,8.7e-4 -0.0046,2.4e-4 -0.01008,5.3e-4 -0.01551,8.2e-4 -0.0046,2.2e-4 -0.01008,4.9e-4 -0.01552,7.6e-4 -0.0046,2.1e-4 -0.01009,4.5e-4 -0.01553,7e-4 -0.0047,2e-4 -0.0101,4.2e-4 -0.01555,6.5e-4 -0.0047,1.8e-4 -0.01011,3.9e-4 -0.01556,5.9e-4 -0.0047,1.6e-4 -0.01012,3.5e-4 -0.01557,5.4e-4 -0.0047,1.4e-4 -0.01013,3.1e-4 -0.01558,4.8e-4 -0.0047,1.3e-4 -0.01013,2.8e-4 -0.01559,4.3e-4 -0.0047,1.1e-4 -0.01014,2.3e-4 -0.01561,3.6e-4 -0.0047,10e-5 -0.01015,2.1e-4 -0.01562,3.1e-4 -0.0047,8e-5 -0.01016,1.7e-4 -0.01563,2.6e-4 -0.0047,6e-5 -0.01017,1.3e-4 -0.01564,2e-4 -0.0047,4e-5 -0.01017,9e-5 -0.01565,1.4e-4 -0.0047,2e-5 -0.01018,5e-5 -0.01566,8e-5 -0.0047,1e-5 -0.01019,2e-5 -0.01567,3e-5 -0.0047,-1e-5 -0.0102,-2e-5 -0.01568,-3e-5 -0.0047,-2e-5 -0.0102,-5e-5 -0.01569,-8e-5 -0.0047,-5e-5 -0.01021,-1e-4 -0.0157,-1.5e-4 -0.0047,-6e-5 -0.01022,-1.3e-4 -0.01571,-2e-4 -0.0047,-8e-5 -0.01022,-1.6e-4 -0.01572,-2.5e-4 -0.0047,-1e-4 -0.01023,-2.1e-4 -0.01573,-3.2e-4 -0.0047,-1.1e-4 -0.01024,-2.4e-4 -0.01574,-3.7e-4 -0.0047,-1.3e-4 -0.01025,-2.8e-4 -0.01575,-4.3e-4 -0.0047,-1.5e-4 -0.01025,-3.2e-4 -0.01577,-4.8e-4 -0.0047,-1.7e-4 -0.01026,-3.6e-4 -0.01577,-5.5e-4 -0.0047,-1.8e-4 -0.01027,-3.9e-4 -0.01578,-6e-4 -0.0047,-2e-4 -0.01027,-4.3e-4 -0.01579,-6.6e-4 -0.0048,-2.1e-4 -0.01028,-4.6e-4 -0.0158,-7.1e-4 -0.0048,-2.4e-4 -0.01029,-5.1e-4 -0.01581,-7.8e-4 -0.0048,-2.5e-4 -0.01029,-5.4e-4 -0.01582,-8.3e-4 -0.0048,-2.7e-4 -0.0103,-5.8e-4 -0.01583,-8.9e-4 -0.0048,-2.9e-4 -0.01031,-6.2e-4 -0.01584,-9.5e-4 -0.0048,-3e-4 -0.01031,-6.5e-4 -0.01585,-0.001 -0.0048,-3.2e-4 -0.01032,-7e-4 -0.01586,-0.001 -0.0048,-3.3e-4 -0.01033,-7.3e-4 -0.01587,-0.001 -0.0048,-3.5e-4 -0.01033,-7.7e-4 -0.01588,-0.001 -0.0048,-3.7e-4 -0.01034,-8e-4 -0.01589,-0.001 -0.0048,-4e-4 -0.01035,-8.5e-4 -0.01589,-0.001 -0.0048,-4.1e-4 -0.01035,-8.8e-4 -0.0159,-0.001 -0.0048,-4.2e-4 -0.01036,-9.2e-4 -0.01591,-0.001 -0.0048,-4.4e-4 -0.01037,-9.6e-4 -0.01592,-0.001 -0.0048,-4.6e-4 -0.01037,-0.001 -0.01593,-0.002 -0.0048,-4.8e-4 -0.01038,-0.001 -0.01594,-0.002 -0.0048,-5e-4 -0.01038,-0.001 -0.01594,-0.002 -0.0048,-5.2e-4 -0.01039,-0.001 -0.01595,-0.002 -0.0048,-5.3e-4 -0.0104,-0.001 -0.01596,-0.002 -0.0048,-5.6e-4 -0.0104,-0.001 -0.01597,-0.002 -0.0048,-5.7e-4 -0.01041,-0.001 -0.01597,-0.002 -0.0048,-5.9e-4 -0.01041,-0.001 -0.01598,-0.002 -0.0048,-6.1e-4 -0.01042,-0.001 -0.01599,-0.002 -0.0048,-6.2e-4 -0.01043,-0.001 -0.016,-0.002 -0.0048,-6.4e-4 -0.01043,-0.001 -0.016,-0.002 -0.0048,-6.6e-4 -0.01044,-0.001 -0.01601,-0.002 -0.0048,-6.7e-4 -0.01044,-0.001 -0.01602,-0.002 -0.0048,-7e-4 -0.01045,-0.001 -0.01602,-0.002 -0.0049,-7.1e-4 -0.01045,-0.002 -0.01603,-0.002 -0.0049,-7.3e-4 -0.01046,-0.002 -0.01604,-0.002 -0.0049,-7.5e-4 -0.01047,-0.002 -0.01605,-0.002 -0.0049,-7.7e-4 -0.01047,-0.002 -0.01605,-0.003 -0.0049,-7.9e-4 -0.01048,-0.002 -0.01606,-0.003 -0.0049,-8e-4 -0.01048,-0.002 -0.01607,-0.003 -0.0049,-8.2e-4 -0.01049,-0.002 -0.01607,-0.003 -0.0049,-8.5e-4 -0.01049,-0.002 -0.01608,-0.003 -0.0049,-8.6e-4 -0.0105,-0.002 -0.01608,-0.003 -0.0049,-8.8e-4 -0.0105,-0.002 -0.01609,-0.003 -0.0049,-8.9e-4 -0.01051,-0.002 -0.01609,-0.003 -0.0049,-9.2e-4 -0.01051,-0.002 -0.0161,-0.003 -0.0049,-9.4e-4 -0.01052,-0.002 -0.01611,-0.003 -0.0049,-9.5e-4 -0.01053,-0.002 -0.01611,-0.003 -0.0049,-9.8e-4 -0.01053,-0.002 -0.01612,-0.003 -0.0049,-9.9e-4 -0.01054,-0.002 -0.01612,-0.003 -0.0049,-0.001 -0.01054,-0.002 -0.01613,-0.003 -0.0049,-0.001 -0.01055,-0.002 -0.01613,-0.003 -0.0049,-0.001 -0.01056,-0.002 -0.01614,-0.003 -0.0049,-0.001 -0.01056,-0.002 -0.01614,-0.003 -0.0049,-0.001 -0.01057,-0.002 -0.01615,-0.004 -0.0049,-0.001 -0.01058,-0.002 -0.01615,-0.004 -0.0049,-0.001 -0.01058,-0.002 -0.01616,-0.004 -0.005,-0.001 -0.01059,-0.002 -0.01616,-0.004 -0.005,-0.001 -0.0106,-0.002 -0.01617,-0.004 -0.005,-0.001 -0.0106,-0.003 -0.01617,-0.004 -0.005,-0.001 -0.01061,-0.003 -0.01617,-0.004 -0.005,-0.001 -0.01062,-0.003 -0.01618,-0.004 -0.005,-0.001 -0.01063,-0.003 -0.01618,-0.004 -0.005,-0.001 -0.01065,-0.003 -0.01619,-0.004 -0.005,-0.001 -0.01066,-0.003 -0.01619,-0.004 -0.005,-0.001 -0.01067,-0.003 -0.01619,-0.004 -0.005,-0.001 -0.01069,-0.003 -0.0162,-0.004 -0.0051,-0.001 -0.01071,-0.003 -0.0162,-0.004 L 39.93653,202.03 Z"
       id="path-1"
       inkscape:path-effect="#path-effect3;#path-effect4"
       inkscape:original-d="m 40.146652,202.08647 c 1.44545,0.39117 2.866544,0.0812 3.948776,-0.76112"
       style="font-variation-settings:normal;opacity:1;vector-effect:none;fill:#000000;fill-opacity:1;fill-rule:nonzero;stroke:none;stroke-width:1.00157;stroke-linecap:square;stroke-linejoin:bevel;stroke-miterlimit:5.9;stroke-dasharray:none;stroke-dashoffset:0;stroke-opacity:1;-inkscape-stroke:none;marker-start:none;marker-end:none;paint-order:markers stroke fill;stop-color:#000000;stop-opacity:1"
       transform="translate(-0.38568048,-0.07988663)" />
    <text
       style="font-size:1.62814px;font-family:monospace;-inkscape-font-specification:'monospace, Normal';fill:#000000;fill-opacity:1;stroke:none;stroke-width:0.162814"
       xml:space="preserve"
       id="text1"
       y="149.71419"
       x="56.213097"
       transform="scale(0.72862001,1.3724575)"><tspan
         sodipodi:role="line"
         id="tspan1"
         x="56.213097"
         y="149.71419"
         style="stroke-width:0.162814">$\theta $</tspan></text>
    <text
       style="font-size:2.64583px;font-family:monospace;-inkscape-font-specification:'monospace, Normal';fill:#000000;fill-opacity:1;stroke:none;stroke-width:0.264583"
       xml:space="preserve"
       id="text1-3"
       y="210.45886"
       x="47.794144"><tspan
         sodipodi:role="line"
         id="tspan1-6"
         x="47.794144"
         y="210.45886"
         style="stroke-width:0.264583">$L$</tspan></text>
    <circle
       style="fill:#000000;fill-opacity:1;fill-rule:evenodd;stroke:#000000;stroke-width:0.465;stroke-linecap:round;stroke-linejoin:bevel;stroke-miterlimit:5.9;stroke-dasharray:0.529167, 0.264583;stroke-dashoffset:0;stroke-opacity:1;paint-order:markers stroke fill"
       id="path4"
       cx="52.78912"
       cy="234.89908"
       r="0.92777568" />
    <path
       style="fill:none;stroke:#000000;stroke-width:0.264583px;stroke-linecap:butt;stroke-linejoin:miter;stroke-opacity:1;marker-end:url(#ArrowWide)"
       d="m 52.489745,234.67102 c 0.09958,0.48692 1.395346,5.20751 1.395346,5.20751"
       id="path7" />
    <path
       style="fill:none;stroke:#000000;stroke-width:0.264583px;stroke-linecap:butt;stroke-linejoin:miter;stroke-opacity:1;marker-end:url(#marker12)"
       d="m 52.807734,236.07666 -4.789347,1.2833"
       id="path8" />
    <path
       style="fill:none;stroke:#000000;stroke-width:0.264583px;stroke-linecap:butt;stroke-linejoin:miter;stroke-opacity:1;marker-end:url(#marker13)"
       d="m 52.680671,236.12624 c 0,0.55502 0,5.35557 0,5.35557"
       id="path9" />
    <text
       style="font-size:2.64583px;font-family:monospace;-inkscape-font-specification:'monospace, Normal';fill:#000000;fill-opacity:1;stroke:none;stroke-width:0.264583"
       xml:space="preserve"
       id="text1-7"
       y="234.94154"
       x="54.426369"><tspan
         sodipodi:role="line"
         id="tspan1-5"
         x="54.426369"
         y="234.94154"
         style="stroke-width:0.264583">$m$</tspan></text>
    <text
       style="font-size:1.06776px;font-family:monospace;-inkscape-font-specification:'monospace, Normal';fill:#000000;fill-opacity:1;stroke:none;stroke-width:0.106776"
       xml:space="preserve"
       id="text1-35"
       y="92.44265"
       x="88.482559"
       transform="scale(0.38627403,2.5888357)"><tspan
         sodipodi:role="line"
         id="tspan1-62"
         x="88.482559"
         y="92.44265"
         style="stroke-width:0.106776">$mg\sin{\left(\theta \right)}$</tspan></text>
    <text
       style="font-size:1.30224px;font-family:monospace;-inkscape-font-specification:'monospace, Normal';fill:#000000;fill-opacity:1;stroke:none;stroke-width:0.130224"
       xml:space="preserve"
       id="text1-9"
       y="103.1791"
       x="128.59456"
       transform="scale(0.43232794,2.3130589)"><tspan
         sodipodi:role="line"
         id="tspan1-1"
         x="128.59456"
         y="103.1791"
         style="stroke-width:0.130224">$mg\cos{\left(\theta \right)}$</tspan></text>
    <text
       style="font-size:2.51847px;font-family:monospace;-inkscape-font-specification:'monospace, Normal';fill:#000000;fill-opacity:1;stroke:none;stroke-width:0.251847"
       xml:space="preserve"
       id="text1-2"
       y="256.04858"
       x="45.651703"
       transform="scale(1.0505701,0.95186411)"><tspan
         sodipodi:role="line"
         id="tspan1-7"
         x="45.651703"
         y="256.04858"
         style="stroke-width:0.251847">$mg$</tspan></text>
  </g>
</svg>
