<?xml version="1.0" encoding="UTF-8" standalone="no"?>
<!-- Created with Inkscape (http://www.inkscape.org/) -->

<svg
   width="3.4000001in"
   height="2.5in"
   viewBox="0 0 86.360175 63.500126"
   version="1.1"
   id="svg8"
   inkscape:version="1.3 (0e150ed6c4, 2023-07-21)"
   sodipodi:docname="circuit1.svg"
   xmlns:inkscape="http://www.inkscape.org/namespaces/inkscape"
   xmlns:sodipodi="http://sodipodi.sourceforge.net/DTD/sodipodi-0.dtd"
   xmlns="http://www.w3.org/2000/svg"
   xmlns:svg="http://www.w3.org/2000/svg"
   xmlns:rdf="http://www.w3.org/1999/02/22-rdf-syntax-ns#"
   xmlns:cc="http://creativecommons.org/ns#"
   xmlns:dc="http://purl.org/dc/elements/1.1/">
  <defs
     id="defs2">
    <inkscape:path-effect
       effect="powerstroke"
       id="path-effect13"
       is_visible="true"
       lpeversion="1.3"
       scale_width="1"
       interpolator_type="CentripetalCatmullRom"
       interpolator_beta="0.75"
       start_linecap_type="peak"
       end_linecap_type="peak"
       offset_points="38.897473,0.26755224"
       linejoin_type="spiro"
       miter_limit="4"
       not_jump="true"
       sort_points="true"
       message="stroke-width:2;stroke-opacity:0.2;fill:#6d6a6a;stroke:#929595" />
    <inkscape:path-effect
       effect="simplify"
       id="path-effect12"
       is_visible="true"
       lpeversion="1.3"
       threshold="0.037633136"
       steps="1"
       smooth_angles="0"
       helper_size="0"
       simplify_individual_paths="false"
       simplify_just_coalesce="false"
       step="1" />
    <marker
       style="overflow:visible"
       id="ArrowWide"
       refX="0"
       refY="0"
       orient="auto-start-reverse"
       inkscape:stockid="Wide arrow"
       markerWidth="1"
       markerHeight="1"
       viewBox="0 0 1 1"
       inkscape:isstock="true"
       inkscape:collect="always"
       preserveAspectRatio="xMidYMid">
      <path
         style="fill:none;stroke:context-stroke;stroke-width:1;stroke-linecap:butt"
         d="M 3,-3 0,0 3,3"
         transform="rotate(180,0.125,0)"
         sodipodi:nodetypes="ccc"
         id="path1" />
    </marker>
    <marker
       id="marker-arrow-0.5308"
       orient="auto-start-reverse"
       refY="0"
       refX="0"
       markerHeight="1.6900001"
       markerWidth="0.91100001">
      <g
         transform="scale(2.1535293)"
         id="g1">
        <path
           d="M -1.55415,2.0722 C -1.42464,1.29512 0,0.1295 0.38852,0 0,-0.1295 -1.42464,-1.29512 -1.55415,-2.0722"
           style="fill:none;stroke:#000000;stroke-width:0.6;stroke-linecap:round;stroke-linejoin:round;stroke-miterlimit:10;stroke-dasharray:none;stroke-opacity:1"
           inkscape:connector-curvature="0"
           id="path1-9" />
      </g>
    </marker>
  </defs>
  <sodipodi:namedview
     id="base"
     pagecolor="#ffffff"
     bordercolor="#666666"
     borderopacity="1.0"
     inkscape:pageopacity="0.0"
     inkscape:pageshadow="2"
     inkscape:zoom="3.4892656"
     inkscape:cx="172.52914"
     inkscape:cy="82.825451"
     inkscape:document-units="mm"
     inkscape:current-layer="layer1"
     showgrid="false"
     showborder="true"
     width="200mm"
     showguides="true"
     inkscape:guide-bbox="true"
     inkscape:window-width="1894"
     inkscape:window-height="1054"
     inkscape:window-x="10"
     inkscape:window-y="10"
     inkscape:window-maximized="1"
     inkscape:showpageshadow="2"
     inkscape:pagecheckerboard="0"
     inkscape:deskcolor="#d1d1d1">
    <inkscape:grid
       type="xygrid"
       id="grid815"
       units="mm"
       spacingx="10"
       spacingy="10"
       empspacing="4"
       dotted="false"
       originx="0"
       originy="0"
       visible="false" />
  </sodipodi:namedview>
  <metadata
     id="metadata5">
    <rdf:RDF>
      <cc:Work
         rdf:about="">
        <dc:format>image/svg+xml</dc:format>
        <dc:type
           rdf:resource="http://purl.org/dc/dcmitype/StillImage" />
      </cc:Work>
    </rdf:RDF>
  </metadata>
  <g
     inkscape:label="Layer 1"
     inkscape:groupmode="layer"
     id="layer1"
     transform="translate(0,-177)">
    <path
       id="rect1"
       style="fill:none;stroke:#000000;stroke-width:0.265999;stroke-linejoin:bevel;paint-order:markers fill stroke"
       d="m 20.718115,190.29893 c -0.48059,0 -0.867647,0.24619 -0.867647,0.5519 v 2.36265 h -8.430493 c -0.480591,0 -0.867648,0.24619 -0.867648,0.5519 v 42.54935 c 0,0.30571 0.387057,0.5519 0.867648,0.5519 h 60.803007 c 0.48059,0 0.867647,-0.24619 0.867647,-0.5519 v -42.54935 c 0,-0.30571 -0.387057,-0.5519 -0.867647,-0.5519 H 57.646611 v -2.23449 c 0,-0.30571 -0.38654,-0.5519 -0.867131,-0.5519 h -8.354529 c -0.48059,0 -0.867647,0.24619 -0.867647,0.5519 v 2.23449 H 29.940291 v -2.36265 c 0,-0.30571 -0.387056,-0.5519 -0.867647,-0.5519 z" />
    <rect
       style="fill:#ffffff;fill-opacity:1;stroke:none;stroke-width:0.265999;stroke-linejoin:bevel;paint-order:markers fill stroke"
       id="rect5"
       width="17.080706"
       height="5.5431457"
       x="16.905563"
       y="187.45119"
       rx="0.86749297"
       ry="0.55183315" />
    <rect
       style="fill:#ffffff;fill-opacity:1;stroke:none;stroke-width:0.265999;stroke-linejoin:bevel;paint-order:markers fill stroke"
       id="rect6"
       width="15.991147"
       height="4.3090148"
       x="45.451645"
       y="188.80486"
       rx="0.86749297"
       ry="0.55183315" />
    <path
       style="fill:none;stroke:#000000;stroke-width:0.264583px;stroke-linecap:butt;stroke-linejoin:miter;stroke-opacity:1"
       d="m 19.804779,193.0875 3.19819,-5.53943"
       id="path6" />
    <path
       style="fill:none;stroke:#000000;stroke-width:0.264583px;stroke-linecap:butt;stroke-linejoin:miter;stroke-opacity:1"
       d="m 47.543813,193.26055 3.19819,-5.53943"
       id="path7" />
    <text
       style="font-size:2.64583px;font-family:monospace;-inkscape-font-specification:'monospace, Normal';fill:#000000;fill-opacity:1;stroke:none;stroke-width:0.264583"
       xml:space="preserve"
       id="text1"
       y="185.75661"
       x="24.657213"><tspan
         sodipodi:role="line"
         id="tspan1"
         x="24.657213"
         y="185.75661"
         style="stroke-width:0.264583">$p$</tspan></text>
    <text
       style="font-size:2.64583px;font-family:monospace;-inkscape-font-specification:'monospace, Normal';fill:#000000;fill-opacity:1;stroke:none;stroke-width:0.264583"
       xml:space="preserve"
       id="text1-3"
       y="186.54475"
       x="52.094238"><tspan
         sodipodi:role="line"
         id="tspan1-6"
         x="52.094238"
         y="186.54475"
         style="stroke-width:0.264583">$q$</tspan></text>
    <path
       style="fill:none;stroke:#000000;stroke-width:0.264583px;stroke-linecap:butt;stroke-linejoin:miter;stroke-opacity:1"
       d="M 6.0137615,218.40528 H 15.565342"
       id="path9" />
    <path
       style="fill:none;stroke:#000000;stroke-width:0.180015px;stroke-linecap:butt;stroke-linejoin:miter;stroke-opacity:1"
       d="M 8.1710965,216.05016 H 12.592564"
       id="path10" />
    <path
       style="fill:none;stroke:#000000;stroke-width:0.264583px;stroke-linecap:butt;stroke-linejoin:miter;stroke-opacity:1"
       d="m 6.096199,213.54275 h 9.55158"
       id="path11" />
    <text
       style="font-size:2.64583px;font-family:monospace;-inkscape-font-specification:'monospace, Normal';fill:#000000;fill-opacity:1;stroke:none;stroke-width:0.264583"
       xml:space="preserve"
       id="text1-7"
       y="203.1151"
       x="-4.4112368"><tspan
         sodipodi:role="line"
         id="tspan1-5"
         x="-4.4112368"
         y="203.1151"
         style="stroke-width:0.264583">$battery$</tspan></text>
    <path
       style="fill:none;stroke:#000000;stroke-width:0.264583px;stroke-linecap:butt;stroke-linejoin:miter;stroke-opacity:1;marker-end:url(#ArrowWide)"
       d="m 3.398529,205.4591 4.6699246,6.344"
       id="path12" />
    <text
       style="font-size:2.64583px;font-family:monospace;-inkscape-font-specification:'monospace, Normal';fill:#ffffff;fill-opacity:1;stroke:none;stroke-width:0.264583"
       xml:space="preserve"
       id="text1-35"
       y="215.11111"
       x="33.129009"><tspan
         sodipodi:role="line"
         id="tspan1-62"
         x="33.129009"
         y="215.11111"
         style="fill:#ffffff;stroke-width:0.264583">$series$</tspan></text>
    <rect
       style="fill:#ffffff;fill-opacity:1;stroke:none;stroke-width:0.265999;stroke-linejoin:bevel;paint-order:markers fill stroke"
       id="rect12"
       width="10.226973"
       height="10.422996"
       x="68.847618"
       y="207.94847"
       rx="0.86749297"
       ry="0.55183315" />
    <path
       d="m 73.706434,217.87408 c -0.05651,-0.0677 -0.112967,-0.1406 -0.171484,-0.22075 -0.06878,-0.0943 -0.137251,-0.19441 -0.206513,-0.30166 -0.08231,-0.12755 -0.163616,-0.26198 -0.243968,-0.40396 -0.09155,-0.16184 -0.180847,-0.33173 -0.2664,-0.50947 -0.08062,-0.16757 -0.158124,-0.34257 -0.229851,-0.52411 -0.06276,-0.15893 -0.121528,-0.32396 -0.1732,-0.49395 -0.04192,-0.138 -0.07948,-0.28035 -0.109871,-0.42585 -0.02516,-0.12062 -0.04554,-0.2441 -0.05854,-0.36919 -0.01178,-0.11367 -0.0175,-0.22881 -0.01432,-0.34381 0.0012,-0.0445 0.0038,-0.0896 0.0081,-0.13477 0.002,-0.0214 0.0044,-0.043 0.0073,-0.0649 0.002,-0.0157 0.0043,-0.0315 0.0069,-0.0475 0.0024,-0.0154 0.0051,-0.0308 0.0081,-0.0464 8.92e-4,-0.005 0.0021,-0.0105 0.0032,-0.0166 6.71e-4,-0.003 0.0019,-0.009 0.0031,-0.0151 6.94e-4,-0.003 0.002,-0.009 0.0033,-0.015 7.16e-4,-0.003 0.002,-0.009 0.0034,-0.0149 7.38e-4,-0.003 0.0021,-0.009 0.0035,-0.0148 7.59e-4,-0.003 0.0022,-0.009 0.0037,-0.0147 7.78e-4,-0.003 0.0023,-0.009 0.0038,-0.0145 7.98e-4,-0.003 0.0024,-0.009 0.0039,-0.0144 8.16e-4,-0.003 0.0024,-0.009 0.0041,-0.0143 8.34e-4,-0.003 0.0025,-0.008 0.0042,-0.0142 8.52e-4,-0.003 0.0026,-0.008 0.0043,-0.014 8.69e-4,-0.003 0.0027,-0.008 0.0045,-0.0139 8.85e-4,-0.003 0.0027,-0.008 0.0046,-0.0138 9e-4,-0.003 0.0028,-0.008 0.0048,-0.0137 9.16e-4,-0.002 0.0029,-0.008 0.0049,-0.0135 9.3e-4,-0.002 0.003,-0.008 0.005,-0.0134 9.44e-4,-0.002 0.003,-0.008 0.0052,-0.0133 9.57e-4,-0.002 0.0031,-0.008 0.0053,-0.0132 9.7e-4,-0.002 0.0032,-0.008 0.0054,-0.013 9.82e-4,-0.002 0.0033,-0.008 0.0056,-0.0129 9.95e-4,-0.002 0.0033,-0.007 0.0057,-0.0128 0.001,-0.002 0.0034,-0.007 0.0059,-0.0127 0.001,-0.002 0.0035,-0.007 0.006,-0.0126 0.001,-0.002 0.0036,-0.007 0.0061,-0.0124 0.001,-0.002 0.0036,-0.007 0.0063,-0.0123 7.81e-4,-0.001 0.0032,-0.006 0.0056,-0.0106 0.0019,-0.003 0.0046,-0.008 0.0074,-0.0136 0.001,-0.002 0.0038,-0.007 0.0067,-0.0119 0.0011,-0.002 0.0039,-0.007 0.0068,-0.0118 0.0011,-0.002 0.004,-0.007 0.007,-0.0117 0.0011,-0.002 0.0041,-0.007 0.0071,-0.0116 0.0011,-0.002 0.0042,-0.007 0.0073,-0.0115 0.0011,-0.002 0.0042,-0.006 0.0074,-0.0113 0.0011,-0.002 0.0043,-0.006 0.0076,-0.0112 0.0011,-0.002 0.0044,-0.006 0.0077,-0.0111 0.0012,-0.002 0.0045,-0.006 0.0079,-0.011 0.0012,-0.002 0.0046,-0.006 0.008,-0.0109 0.0012,-0.002 0.0047,-0.006 0.0082,-0.0108 0.0035,-0.004 0.0093,-0.012 0.0152,-0.0195 0.0035,-0.004 0.0094,-0.0118 0.01534,-0.0192 0.0035,-0.004 0.0095,-0.0115 0.01545,-0.0188 0.0035,-0.004 0.0095,-0.0112 0.01556,-0.0183 0.0035,-0.004 0.0096,-0.011 0.01566,-0.0179 0.0035,-0.004 0.0096,-0.0107 0.01576,-0.0176 0.0035,-0.004 0.0097,-0.0105 0.01586,-0.0172 0.0035,-0.004 0.0097,-0.0102 0.01596,-0.0168 0.0035,-0.004 0.0098,-0.01 0.01606,-0.0164 0.0035,-0.003 0.0098,-0.01 0.01615,-0.016 0.0035,-0.003 0.0099,-0.009 0.01625,-0.0156 0.0035,-0.003 0.0099,-0.009 0.01634,-0.0153 0.0035,-0.003 0.0099,-0.009 0.01643,-0.0149 0.0035,-0.003 0.01,-0.009 0.01652,-0.0145 0.0035,-0.003 0.01003,-0.009 0.0166,-0.0142 0.0035,-0.003 0.01008,-0.008 0.01669,-0.0138 0.0035,-0.003 0.01012,-0.008 0.01677,-0.0135 0.0035,-0.003 0.01016,-0.008 0.01686,-0.0131 0.0035,-0.003 0.0102,-0.008 0.01694,-0.0128 0.0035,-0.003 0.01024,-0.007 0.01702,-0.0125 0.0035,-0.002 0.01028,-0.007 0.0171,-0.0121 0.0035,-0.002 0.01032,-0.007 0.01718,-0.0118 0.0035,-0.002 0.01036,-0.007 0.01726,-0.0115 0.0035,-0.002 0.0104,-0.007 0.01733,-0.0112 0.0035,-0.002 0.01044,-0.006 0.01741,-0.0108 0.0035,-0.002 0.01048,-0.006 0.01749,-0.0105 0.0035,-0.002 0.01052,-0.006 0.01756,-0.0102 0.0035,-0.002 0.01057,-0.006 0.01764,-0.01 0.0035,-0.002 0.01061,-0.006 0.01772,-0.01 0.0035,-0.002 0.01065,-0.006 0.01779,-0.009 0.0035,-0.002 0.01069,-0.005 0.01786,-0.009 0.0036,-0.002 0.01074,-0.005 0.01794,-0.009 0.0036,-0.002 0.01078,-0.005 0.01801,-0.008 0.0036,-0.002 0.01082,-0.005 0.01808,-0.008 0.0036,-0.002 0.01087,-0.005 0.01816,-0.008 0.0036,-0.001 0.01091,-0.005 0.01823,-0.008 0.0036,-0.001 0.01096,-0.004 0.0183,-0.007 0.0037,-0.001 0.011,-0.004 0.01837,-0.007 0.0037,-0.001 0.01105,-0.004 0.01844,-0.007 0.0037,-0.001 0.0111,-0.004 0.01851,-0.006 0.0037,-0.001 0.01114,-0.004 0.01858,-0.006 0.0037,-0.001 0.01119,-0.004 0.01865,-0.006 0.0038,-0.001 0.01123,-0.003 0.01872,-0.006 0.0038,-0.001 0.01128,-0.003 0.01879,-0.005 0.0038,-0.001 0.01133,-0.003 0.01885,-0.005 0.0038,-9.5e-4 0.01138,-0.003 0.01892,-0.005 0.0039,-9e-4 0.01142,-0.003 0.01898,-0.005 0.0039,-8.5e-4 0.01147,-0.003 0.01905,-0.004 0.0039,-8e-4 0.01151,-0.002 0.01911,-0.004 0.004,-7.5e-4 0.01156,-0.002 0.01917,-0.004 0.004,-7e-4 0.01161,-0.002 0.01923,-0.003 0.004,-6.5e-4 0.01165,-0.002 0.01929,-0.003 0.0041,-6e-4 0.0117,-0.002 0.01935,-0.003 0.0041,-5.5e-4 0.01174,-0.002 0.01941,-0.003 0.0041,-5e-4 0.01178,-0.001 0.01946,-0.002 0.0042,-4.5e-4 0.01183,-0.001 0.01951,-0.002 0.0042,-3.9e-4 0.01187,-0.001 0.01957,-0.002 0.0042,-3.4e-4 0.01191,-0.001 0.01962,-0.002 0.0043,-2.9e-4 0.01195,-8.6e-4 0.01967,-0.001 0.0043,-2.4e-4 0.01199,-7.1e-4 0.01971,-0.001 0.0043,-1.8e-4 0.01203,-5.6e-4 0.01976,-9.3e-4 0.0043,-1.4e-4 0.01207,-4.1e-4 0.0198,-6.9e-4 0.0044,-8e-5 0.0121,-2.6e-4 0.01984,-4.4e-4 0.0044,-3e-5 0.01214,-1.2e-4 0.01988,-2e-4 0.0044,2e-5 0.01217,3e-5 0.01992,4e-5 0.0045,8e-5 0.0122,1.9e-4 0.01995,2.9e-4 0.0045,1.4e-4 0.01224,3.3e-4 0.01999,5.3e-4 0.0045,1.9e-4 0.01226,4.8e-4 0.02002,7.7e-4 0.0046,2.4e-4 0.01229,6.2e-4 0.02004,10e-4 0.0046,3e-4 0.01232,7.7e-4 0.02007,0.001 0.0046,3.5e-4 0.01235,9.1e-4 0.02009,0.001 0.0046,4.1e-4 0.01237,0.001 0.02011,0.002 0.0047,4.7e-4 0.01239,0.001 0.02013,0.002 0.0047,5.2e-4 0.01241,0.001 0.02015,0.002 0.0047,5.8e-4 0.01243,0.001 0.02016,0.002 0.0047,6.3e-4 0.01245,0.002 0.02017,0.003 0.0048,6.9e-4 0.01246,0.002 0.02018,0.003 0.0048,7.5e-4 0.01248,0.002 0.02019,0.003 0.0048,8e-4 0.01249,0.002 0.02019,0.003 0.0048,8.6e-4 0.0125,0.002 0.02019,0.004 0.0048,9.2e-4 0.01251,0.002 0.02019,0.004 0.0049,9.7e-4 0.01251,0.002 0.02018,0.004 0.0049,0.001 0.01252,0.003 0.02017,0.004 0.0049,0.001 0.01252,0.003 0.02016,0.004 0.0049,0.001 0.01252,0.003 0.02015,0.005 0.0049,0.001 0.01251,0.003 0.02013,0.005 0.0049,0.001 0.01251,0.003 0.02011,0.005 0.0049,0.001 0.01251,0.003 0.02009,0.005 0.0049,0.001 0.0125,0.003 0.02007,0.006 0.0049,0.001 0.01249,0.004 0.02004,0.006 0.005,0.001 0.01247,0.004 0.02001,0.006 0.005,0.002 0.01246,0.004 0.01997,0.006 0.005,0.002 0.01244,0.004 0.01994,0.006 0.005,0.002 0.01243,0.004 0.0199,0.007 0.005,0.002 0.01241,0.004 0.01985,0.007 0.005,0.002 0.01238,0.004 0.01981,0.007 0.005,0.002 0.01236,0.004 0.01976,0.007 0.005,0.002 0.01233,0.005 0.01971,0.007 0.005,0.002 0.0123,0.005 0.01966,0.008 0.005,0.002 0.01227,0.005 0.0196,0.008 0.0049,0.002 0.01224,0.005 0.01954,0.008 0.0049,0.002 0.0122,0.005 0.01947,0.008 0.0049,0.002 0.01216,0.005 0.01941,0.008 0.0049,0.002 0.01212,0.005 0.01934,0.008 0.0049,0.002 0.01208,0.005 0.01926,0.009 0.0049,0.002 0.01204,0.006 0.01919,0.009 0.0049,0.002 0.01199,0.006 0.01911,0.009 0.0049,0.002 0.01195,0.006 0.01903,0.009 0.0048,0.002 0.01189,0.006 0.01895,0.009 0.0048,0.002 0.01184,0.006 0.01886,0.01 0.0048,0.002 0.01179,0.006 0.01877,0.01 0.0048,0.003 0.01173,0.006 0.01868,0.01 0.0048,0.003 0.01167,0.006 0.01858,0.01 0.0047,0.003 0.01161,0.006 0.01848,0.0102 0.0047,0.003 0.01155,0.006 0.01838,0.0103 0.0047,0.003 0.01148,0.007 0.01828,0.0105 0.0047,0.003 0.01142,0.007 0.01817,0.0106 0.0046,0.003 0.01135,0.007 0.01806,0.0108 0.0046,0.003 0.01128,0.007 0.01794,0.011 0.0046,0.003 0.0112,0.007 0.01783,0.0111 0.0045,0.003 0.01113,0.007 0.01771,0.0112 0.0045,0.003 0.01105,0.007 0.01759,0.0114 0.0045,0.003 0.01097,0.007 0.01746,0.0115 0.0044,0.003 0.01089,0.007 0.01733,0.0117 0.0044,0.003 0.0108,0.007 0.0172,0.0118 0.0044,0.003 0.01072,0.007 0.01707,0.0119 0.0043,0.003 0.01063,0.008 0.01693,0.0121 0.0043,0.003 0.01054,0.008 0.01679,0.0122 0.0043,0.003 0.01045,0.008 0.01665,0.0123 0.0042,0.003 0.01036,0.008 0.0165,0.0124 0.0042,0.003 0.01026,0.008 0.01635,0.0126 0.0041,0.003 0.01016,0.008 0.0162,0.0127 0.0041,0.003 0.01006,0.008 0.01605,0.0128 0.004,0.003 0.01,0.008 0.0159,0.0129 0.004,0.003 0.0099,0.008 0.01573,0.013 0.0039,0.003 0.0098,0.008 0.01557,0.0131 0.0039,0.003 0.0096,0.008 0.01541,0.0132 0.0038,0.003 0.0095,0.008 0.01524,0.0134 0.0038,0.003 0.0094,0.008 0.01507,0.0134 0.0037,0.003 0.0093,0.008 0.0149,0.0135 0.0037,0.003 0.0092,0.009 0.01472,0.0136 0.0036,0.003 0.0091,0.009 0.01454,0.0137 0.0036,0.003 0.009,0.009 0.01436,0.0138 0.0035,0.003 0.0088,0.009 0.01418,0.0139 0.0034,0.003 0.0087,0.009 0.01399,0.014 0.0034,0.003 0.0086,0.009 0.01381,0.0141 0.0033,0.003 0.0085,0.009 0.01361,0.0141 0.0033,0.003 0.0083,0.009 0.01342,0.0142 0.0032,0.003 0.0082,0.009 0.01323,0.0143 0.0031,0.003 0.0081,0.009 0.01302,0.0144 0.0031,0.003 0.0079,0.009 0.01282,0.0144 0.003,0.003 0.0078,0.009 0.01262,0.0145 0.003,0.003 0.0077,0.009 0.01241,0.0146 0.0029,0.003 0.0075,0.009 0.01221,0.0146 0.0028,0.003 0.0074,0.009 0.01199,0.0147 0.0028,0.003 0.0073,0.009 0.01178,0.0147 0.0027,0.003 0.0071,0.009 0.01157,0.0148 0.0026,0.003 0.007,0.009 0.01135,0.0148 0.0025,0.003 0.0068,0.009 0.01113,0.0148 0.0025,0.003 0.0067,0.009 0.01091,0.0149 0.0024,0.003 0.0065,0.009 0.01068,0.0149 0.0023,0.003 0.0064,0.009 0.01046,0.015 0.0023,0.003 0.0063,0.009 0.01023,0.015 0.0022,0.003 0.0061,0.009 0.01,0.015 0.0021,0.003 0.0059,0.009 0.0098,0.015 0.0021,0.003 0.0058,0.009 0.0095,0.015 0.002,0.003 0.0056,0.009 0.0093,0.0151 0.0019,0.003 0.0055,0.009 0.0091,0.0151 0.0018,0.003 0.0053,0.009 0.0088,0.0151 0.0018,0.003 0.0052,0.009 0.0086,0.0151 0.0017,0.003 0.005,0.009 0.0083,0.0151 0.0016,0.003 0.0049,0.009 0.0081,0.0151 0.0016,0.003 0.0047,0.009 0.0078,0.0151 0.0015,0.003 0.0045,0.009 0.0076,0.0151 0.0014,0.003 0.0044,0.009 0.0074,0.0151 0.0014,0.003 0.0042,0.009 0.0071,0.0151 0.0013,0.003 0.0041,0.009 0.0069,0.015 0.0012,0.003 0.0039,0.009 0.0066,0.015 0.0012,0.003 0.0038,0.009 0.0064,0.015 0.0011,0.003 0.0036,0.009 0.0061,0.015 0.001,0.003 0.0034,0.009 0.0058,0.0149 9.6e-4,0.003 0.0033,0.009 0.0056,0.0149 8.97e-4,0.003 0.0031,0.009 0.0053,0.0149 8.36e-4,0.003 0.003,0.009 0.0051,0.0148 7.75e-4,0.002 0.0028,0.009 0.0048,0.0148 7.16e-4,0.002 0.0026,0.009 0.0046,0.0148 6.58e-4,0.002 0.0025,0.009 0.0043,0.0147 6.02e-4,0.002 0.0023,0.008 0.0041,0.0147 5.48e-4,0.002 0.0022,0.008 0.0038,0.0146 4.95e-4,0.002 0.002,0.008 0.0035,0.0146 4.43e-4,0.002 0.0019,0.008 0.0033,0.0145 3.95e-4,0.002 0.0017,0.008 0.003,0.0145 3.47e-4,0.002 0.0016,0.008 0.0028,0.0144 3.02e-4,0.002 0.0014,0.008 0.0025,0.0143 2.59e-4,0.002 0.0013,0.008 0.0023,0.0143 2.17e-4,0.002 0.0011,0.008 0.002,0.0142 1.78e-4,0.002 9.64e-4,0.008 0.0018,0.0142 1.4e-4,0.002 8.18e-4,0.008 0.0015,0.0141 1.05e-4,0.002 6.74e-4,0.008 0.0012,0.014 7.1e-5,0.002 5.3e-4,0.008 9.88e-4,0.014 4e-5,0.001 3.87e-4,0.008 7.34e-4,0.0139 1e-5,0.001 2.45e-4,0.008 4.81e-4,0.0138 -1.7e-5,0.001 1.05e-4,0.008 2.27e-4,0.0138 -4.3e-5,0.001 -3.4e-5,0.008 -2.5e-5,0.0137 -6.7e-5,0.001 -1.73e-4,0.007 -2.78e-4,0.0136 -9e-5,0.001 -3.11e-4,0.007 -5.32e-4,0.0136 -1.11e-4,0.001 -4.48e-4,0.007 -7.85e-4,0.0135 -1.3e-4,0.001 -5.84e-4,0.007 -0.001,0.0135 -1.49e-4,0.001 -7.21e-4,0.007 -0.0013,0.0134 -1.67e-4,0.001 -8.57e-4,0.007 -0.0015,0.0134 -1.84e-4,0.001 -9.94e-4,0.007 -0.0018,0.0133 -2.01e-4,9.9e-4 -0.0011,0.007 -0.0021,0.0133 -2.17e-4,9.6e-4 -0.0013,0.007 -0.0023,0.0132 -2.34e-4,9.5e-4 -0.0014,0.007 -0.0026,0.0132 -2.5e-4,9.3e-4 -0.0015,0.007 -0.0028,0.0131 -2.68e-4,9.2e-4 -0.0017,0.007 -0.0031,0.0131 -2.86e-4,9.1e-4 -0.0018,0.007 -0.0034,0.0131 -3.05e-4,9.1e-4 -0.002,0.007 -0.0036,0.013 -3.26e-4,9.1e-4 -0.0021,0.007 -0.0039,0.013 -3.48e-4,9.1e-4 -0.0023,0.007 -0.0042,0.013 -3.73e-4,9.3e-4 -0.0024,0.007 -0.0045,0.013 -4e-4,9.4e-4 -0.0026,0.007 -0.0048,0.0129 -4.3e-4,9.7e-4 -0.0027,0.007 -0.005,0.0129 -4.63e-4,9.9e-4 -0.0029,0.007 -0.0053,0.0129 -4.98e-4,0.001 -0.0031,0.007 -0.0056,0.0129 -5.38e-4,0.001 -0.0032,0.007 -0.0059,0.0129 -5.81e-4,0.001 -0.0034,0.007 -0.0063,0.0129 -6.28e-4,0.001 -0.0036,0.007 -0.0066,0.0129 -6.8e-4,0.001 -0.0038,0.007 -0.0069,0.0129 -7.36e-4,0.001 -0.004,0.007 -0.0072,0.0129 -7.96e-4,0.001 -0.0042,0.007 -0.0075,0.0129 -8.62e-4,0.001 -0.0044,0.007 -0.0079,0.0129 -9.31e-4,0.001 -0.0046,0.007 -0.0082,0.0129 -0.001,0.001 -0.0048,0.007 -0.0086,0.0129 -0.0011,0.001 -0.005,0.007 -0.0089,0.0129 -0.0012,0.002 -0.0052,0.007 -0.0093,0.0129 -0.0013,0.002 -0.0055,0.007 -0.0097,0.0129 -0.0014,0.002 -0.0057,0.007 -0.01007,0.0129 -0.0015,0.002 -0.006,0.007 -0.01045,0.0129 -0.0016,0.002 -0.0062,0.007 -0.01084,0.0129 -0.0017,0.002 -0.0065,0.007 -0.01125,0.0129 -0.0018,0.002 -0.0067,0.007 -0.01165,0.0129 -0.0019,0.002 -0.007,0.007 -0.01207,0.0129 -0.002,0.002 -0.0073,0.007 -0.01249,0.0129 -0.0022,0.002 -0.0075,0.007 -0.01291,0.0129 -0.0023,0.002 -0.0078,0.008 -0.01335,0.0129 -0.0024,0.002 -0.0081,0.008 -0.01378,0.0129 -0.0026,0.002 -0.0084,0.008 -0.01423,0.0128 -0.0027,0.002 -0.0087,0.008 -0.01468,0.0128 -0.0029,0.002 -0.009,0.008 -0.01514,0.0128 -0.003,0.002 -0.0093,0.008 -0.0156,0.0128 -0.0032,0.003 -0.0096,0.008 -0.01606,0.0127 -0.0034,0.003 -0.01,0.008 -0.01654,0.0127 -0.0035,0.003 -0.01028,0.008 -0.01702,0.0127 -0.0037,0.003 -0.0106,0.008 -0.0175,0.0126 -0.0039,0.003 -0.01093,0.008 -0.01799,0.0126 -9.4e-5,2e-5 -0.004,0.003 -0.008,0.005 4.8e-4,-3.8e-4 -0.0035,0.002 -0.0075,0.005 3.81e-4,-3e-4 -0.0037,0.002 -0.0078,0.005 2.77e-4,-2.2e-4 -0.0039,0.002 -0.008,0.005 1.69e-4,-1.5e-4 -0.0041,0.002 -0.0083,0.005 5.6e-5,-8e-5 -0.0043,0.002 -0.0086,0.005 -6e-5,-2e-5 -0.0044,0.002 -0.0088,0.005 -1.78e-4,5e-5 -0.0046,0.002 -0.0091,0.004 -2.99e-4,9e-5 -0.0048,0.002 -0.0093,0.004 -4.22e-4,1.5e-4 -0.005,0.002 -0.0096,0.004 -5.46e-4,1.9e-4 -0.0052,0.002 -0.0099,0.004 -6.71e-4,2.4e-4 -0.0054,0.002 -0.01014,0.004 -7.98e-4,2.8e-4 -0.0056,0.002 -0.0104,0.004 -9.26e-4,3.1e-4 -0.0058,0.002 -0.01067,0.004 -0.0011,3.4e-4 -0.006,0.002 -0.01093,0.004 -0.0012,3.8e-4 -0.0062,0.002 -0.01119,0.004 -0.0013,4e-4 -0.0064,0.002 -0.01145,0.004 -0.0014,4.2e-4 -0.0066,0.002 -0.01171,0.004 -0.0016,4.3e-4 -0.0068,0.002 -0.01196,0.004 -0.0017,4.5e-4 -0.007,0.002 -0.01221,0.003 -0.0018,4.5e-4 -0.0071,0.002 -0.01246,0.003 -0.0019,4.7e-4 -0.0073,0.002 -0.01271,0.003 -0.0021,4.7e-4 -0.0075,0.002 -0.01296,0.003 -0.0022,4.7e-4 -0.0077,0.002 -0.0132,0.003 -0.0023,4.6e-4 -0.0079,0.002 -0.01344,0.003 -0.0024,4.6e-4 -0.0081,0.002 -0.01368,0.003 -0.0025,4.5e-4 -0.0082,0.002 -0.01391,0.003 -0.0027,4.4e-4 -0.0084,0.001 -0.01414,0.002 -0.0028,4.3e-4 -0.0086,0.001 -0.01437,0.002 -0.0029,4.2e-4 -0.0087,0.001 -0.01459,0.002 -0.003,3.9e-4 -0.0089,0.001 -0.01481,0.002 -0.0031,3.8e-4 -0.0091,0.001 -0.01503,0.002 -0.0032,3.7e-4 -0.0092,0.001 -0.01525,0.002 -0.0033,3.3e-4 -0.0094,9.8e-4 -0.01546,0.002 -0.0034,3.1e-4 -0.0095,9e-4 -0.01567,0.001 -0.0035,2.9e-4 -0.0097,8.3e-4 -0.01587,0.001 -0.01488,0.001 -0.03118,0.002 -0.04756,0.003 -0.01678,8.8e-4 -0.03365,0.002 -0.05059,0.002 -0.0232,5.8e-4 -0.04653,7.6e-4 -0.06997,5.5e-4 -0.04264,-3.7e-4 -0.08558,-0.002 -0.128768,-0.005 -0.126761,-0.008 -0.254404,-0.0253 -0.382508,-0.0494 -0.139188,-0.0263 -0.27766,-0.0606 -0.414987,-0.10126 -0.152923,-0.0454 -0.303765,-0.0986 -0.451981,-0.15869 -0.160394,-0.0651 -0.317261,-0.13802 -0.46971,-0.21857 -0.152908,-0.0808 -0.3009,-0.16904 -0.44261,-0.26504 -0.125581,-0.0851 -0.245697,-0.17599 -0.358813,-0.2733 -0.02331,-0.0201 -0.04629,-0.0404 -0.06891,-0.0609 -0.01688,-0.0153 -0.03355,-0.0308 -0.04999,-0.0464 -0.01638,-0.0155 -0.03253,-0.0312 -0.04846,-0.0469 -0.01586,-0.0157 -0.03148,-0.0315 -0.04687,-0.0474 -0.0049,-0.005 -0.01042,-0.0109 -0.01597,-0.0167 -0.0041,-0.004 -0.0096,-0.0102 -0.01508,-0.016 -0.004,-0.004 -0.0095,-0.0102 -0.01489,-0.016 -0.004,-0.004 -0.0093,-0.0102 -0.0147,-0.0161 -0.0039,-0.004 -0.0092,-0.0102 -0.01451,-0.0161 -0.0038,-0.004 -0.0091,-0.0103 -0.01432,-0.0162 -0.0038,-0.004 -0.0089,-0.0103 -0.01412,-0.0162 -0.0037,-0.004 -0.0088,-0.0103 -0.01393,-0.0163 -0.0036,-0.004 -0.0087,-0.0103 -0.01373,-0.0163 -0.0035,-0.004 -0.0085,-0.0103 -0.01353,-0.0164 -0.0035,-0.004 -0.0084,-0.0104 -0.01332,-0.0164 -0.0034,-0.004 -0.0083,-0.0104 -0.01312,-0.0164 -0.0033,-0.004 -0.0081,-0.0104 -0.01291,-0.0165 -0.0033,-0.004 -0.008,-0.0104 -0.01271,-0.0165 -0.0032,-0.004 -0.0079,-0.0104 -0.0125,-0.0166 -0.0031,-0.004 -0.0077,-0.0104 -0.01228,-0.0166 -0.0031,-0.004 -0.0076,-0.0104 -0.01207,-0.0166 -0.003,-0.004 -0.0074,-0.0104 -0.01186,-0.0167 -0.0029,-0.004 -0.0073,-0.0104 -0.01164,-0.0167 -0.0028,-0.004 -0.0071,-0.0104 -0.01142,-0.0167 -0.0028,-0.004 -0.007,-0.0105 -0.0112,-0.0168 -0.0027,-0.004 -0.0068,-0.0105 -0.01098,-0.0168 -0.0026,-0.004 -0.0067,-0.0105 -0.01076,-0.0168 -0.0026,-0.004 -0.0065,-0.0105 -0.01054,-0.0168 -0.0025,-0.004 -0.0064,-0.0105 -0.01031,-0.0169 -0.0024,-0.004 -0.0063,-0.0105 -0.01008,-0.0169 -0.0023,-0.004 -0.0061,-0.0105 -0.0099,-0.0169 -0.0023,-0.004 -0.006,-0.0105 -0.0096,-0.0169 -0.0022,-0.004 -0.0058,-0.0105 -0.0094,-0.0169 -0.0021,-0.004 -0.0057,-0.0105 -0.0092,-0.017 -0.0021,-0.004 -0.0055,-0.0105 -0.0089,-0.017 -0.002,-0.004 -0.0053,-0.0105 -0.0087,-0.017 -0.0019,-0.004 -0.0052,-0.0104 -0.0085,-0.017 -0.0019,-0.004 -0.005,-0.0104 -0.0082,-0.017 -0.0018,-0.004 -0.0049,-0.0104 -0.008,-0.017 -0.0017,-0.004 -0.0047,-0.0104 -0.0078,-0.017 -0.0016,-0.004 -0.0046,-0.0104 -0.0075,-0.0171 -0.0016,-0.004 -0.0044,-0.0104 -0.0073,-0.0171 -0.0015,-0.004 -0.0043,-0.0104 -0.007,-0.0171 -0.0014,-0.004 -0.0041,-0.0104 -0.0068,-0.0171 -0.0014,-0.004 -0.004,-0.0104 -0.0066,-0.0171 -0.0013,-0.004 -0.0038,-0.0104 -0.0063,-0.0171 -0.0013,-0.004 -0.0037,-0.0104 -0.0061,-0.0171 -0.0012,-0.004 -0.0035,-0.0104 -0.0058,-0.0171 -0.0011,-0.004 -0.0034,-0.0104 -0.0056,-0.0171 -0.0011,-0.004 -0.0032,-0.0103 -0.0053,-0.0171 -0.001,-0.003 -0.0031,-0.0103 -0.0051,-0.0171 -9.57e-4,-0.003 -0.0029,-0.0103 -0.0048,-0.0172 -9e-4,-0.003 -0.0028,-0.0103 -0.0046,-0.0171 -8.43e-4,-0.003 -0.0026,-0.0103 -0.0044,-0.0172 -7.87e-4,-0.003 -0.0024,-0.0103 -0.0041,-0.0172 -7.32e-4,-0.003 -0.0023,-0.0103 -0.0039,-0.0172 -6.77e-4,-0.003 -0.0021,-0.0103 -0.0036,-0.0172 -6.24e-4,-0.003 -0.002,-0.0103 -0.0034,-0.0172 -5.71e-4,-0.003 -0.0018,-0.0103 -0.0031,-0.0172 -5.2e-4,-0.003 -0.0017,-0.0103 -0.0029,-0.0172 -4.68e-4,-0.003 -0.0015,-0.0103 -0.0026,-0.0172 -4.18e-4,-0.003 -0.0014,-0.0103 -0.0023,-0.0172 -3.67e-4,-0.003 -0.0012,-0.0103 -0.0021,-0.0173 -3.18e-4,-0.003 -0.0011,-0.0103 -0.0018,-0.0173 -2.69e-4,-0.003 -9.29e-4,-0.0103 -0.0016,-0.0173 -2.21e-4,-0.003 -7.77e-4,-0.0103 -0.0013,-0.0173 -1.72e-4,-0.003 -6.23e-4,-0.0103 -0.0011,-0.0173 -1.24e-4,-0.003 -4.69e-4,-0.0103 -8.12e-4,-0.0173 -7.6e-5,-0.003 -3.14e-4,-0.0103 -5.52e-4,-0.0174 -2.7e-5,-0.003 -1.59e-4,-0.0103 -2.9e-4,-0.0174 2e-5,-0.003 -3e-6,-0.0103 -2.7e-5,-0.0174 6.8e-5,-0.003 1.53e-4,-0.0103 2.38e-4,-0.0174 1.16e-4,-0.003 3.11e-4,-0.0104 5.03e-4,-0.0175 1.66e-4,-0.003 4.7e-4,-0.0104 7.72e-4,-0.0175 2.15e-4,-0.003 6.31e-4,-0.0104 0.001,-0.0175 0.0076,-0.1167 0.02592,-0.23504 0.05264,-0.35159 0.02925,-0.12763 0.06854,-0.25333 0.115123,-0.37643 0.0514,-0.13579 0.111649,-0.26845 0.177823,-0.39789 0.07288,-0.14251 0.152994,-0.28123 0.237513,-0.41641 0.09941,-0.15894 0.205252,-0.31352 0.314287,-0.46421 0.137009,-0.1893 0.280168,-0.37395 0.424698,-0.5546 0.157584,-0.19697 0.320284,-0.39329 0.479125,-0.58564 0.118419,-0.14344 0.234426,-0.28429 0.349101,-0.42762 0.09416,-0.11775 0.185911,-0.23527 0.274696,-0.35496 0.03943,-0.0532 0.07777,-0.10612 0.115071,-0.15925 l -0.06523,-0.37271 -0.372712,0.0652 c -0.0343,0.0488 -0.0699,0.098 -0.10693,0.14796 -0.08363,0.11274 -0.171098,0.22484 -0.262776,0.33949 -0.111778,0.13971 -0.225403,0.27769 -0.343847,0.42116 -0.157745,0.19102 -0.323551,0.39108 -0.484336,0.59205 -0.147777,0.1847 -0.296618,0.37657 -0.440362,0.57518 -0.114427,0.15814 -0.227311,0.32285 -0.334487,0.49421 -0.09111,0.14572 -0.179137,0.2979 -0.26025,0.45651 -0.07364,0.14404 -0.142335,0.29487 -0.201845,0.45208 -0.05396,0.14258 -0.10082,0.29171 -0.136246,0.44631 -0.0324,0.14136 -0.05536,0.28812 -0.06515,0.43834 -5.35e-4,0.009 -9.5e-4,0.0164 -0.0014,0.0236 -5.06e-4,0.0112 -8.1e-4,0.0184 -0.0011,0.0257 -3.34e-4,0.0112 -5.28e-4,0.0184 -7.24e-4,0.0256 -1.64e-4,0.0112 -2.49e-4,0.0183 -3.34e-4,0.0256 6e-6,0.0112 3e-5,0.0183 5.4e-5,0.0255 1.74e-4,0.0111 3.06e-4,0.0183 4.38e-4,0.0255 3.42e-4,0.0111 5.81e-4,0.0182 8.21e-4,0.0254 5.08e-4,0.0111 8.53e-4,0.0182 0.0012,0.0254 6.72e-4,0.011 0.0011,0.0181 0.0016,0.0253 8.34e-4,0.011 0.0014,0.0181 0.0019,0.0252 9.95e-4,0.011 0.0017,0.018 0.0023,0.0251 0.0012,0.0109 0.0019,0.018 0.0027,0.0251 0.0013,0.0109 0.0022,0.0179 0.003,0.025 0.0015,0.0109 0.0024,0.0179 0.0034,0.0249 0.0016,0.0108 0.0027,0.0178 0.0038,0.0249 0.0018,0.0108 0.0029,0.0177 0.0041,0.0248 0.0019,0.0107 0.0032,0.0177 0.0045,0.0247 0.0021,0.0106 0.0034,0.0176 0.0048,0.0246 0.0022,0.0106 0.0037,0.0175 0.0052,0.0245 0.0024,0.0105 0.0039,0.0175 0.0055,0.0244 0.0025,0.0105 0.0042,0.0174 0.0058,0.0243 0.0026,0.0104 0.0044,0.0173 0.0062,0.0242 0.0028,0.0104 0.0046,0.0172 0.0065,0.0241 0.0029,0.0103 0.0048,0.0172 0.0068,0.024 0.003,0.0102 0.0051,0.0171 0.0071,0.0239 0.0032,0.0102 0.0053,0.017 0.0074,0.0238 0.0033,0.0101 0.0055,0.0169 0.0077,0.0237 0.0034,0.01 0.0057,0.0168 0.0081,0.0236 0.0035,0.01 0.0059,0.0167 0.0084,0.0235 0.0037,0.01 0.0061,0.0167 0.0087,0.0234 0.0038,0.01 0.0064,0.0166 0.009,0.0233 0.0039,0.01 0.0066,0.0165 0.0092,0.0232 0.004,0.01 0.0068,0.0164 0.0095,0.0231 0.0041,0.01 0.007,0.0163 0.0098,0.023 0.0042,0.01 0.0071,0.0162 0.0101,0.0229 0.0043,0.01 0.0073,0.0161 0.01038,0.0228 0.0044,0.009 0.0075,0.0161 0.01065,0.0227 0.0045,0.009 0.0077,0.016 0.01092,0.0226 0.0046,0.009 0.0079,0.0159 0.01119,0.0225 0.0047,0.009 0.0081,0.0158 0.01145,0.0223 0.0048,0.009 0.0083,0.0157 0.01171,0.0222 0.0049,0.009 0.0084,0.0156 0.01197,0.0221 0.005,0.009 0.0086,0.0155 0.01222,0.022 0.0051,0.009 0.0088,0.0154 0.01247,0.0219 0.0052,0.009 0.0089,0.0153 0.01272,0.0218 0.0053,0.009 0.0091,0.0152 0.01296,0.0217 0.0054,0.009 0.0093,0.0152 0.0132,0.0216 0.0054,0.009 0.0094,0.0151 0.01344,0.0215 0.0055,0.009 0.0096,0.015 0.01367,0.0213 0.0056,0.009 0.0097,0.0149 0.0139,0.0212 0.0057,0.008 0.0099,0.0148 0.01413,0.0211 0.0058,0.008 0.01005,0.0147 0.01435,0.021 0.0058,0.008 0.0102,0.0146 0.01458,0.0209 0.0059,0.008 0.01034,0.0145 0.0148,0.0208 0.006,0.008 0.01049,0.0145 0.01501,0.0207 0.006,0.008 0.01063,0.0144 0.01522,0.0206 0.0061,0.008 0.01077,0.0143 0.01544,0.0204 0.0062,0.008 0.01091,0.0142 0.01564,0.0203 0.0063,0.008 0.01104,0.0141 0.01585,0.0202 0.0063,0.008 0.01118,0.014 0.01605,0.0201 0.0064,0.008 0.01131,0.0139 0.01625,0.02 0.0064,0.008 0.01144,0.0138 0.01645,0.0199 0.0065,0.008 0.01157,0.0138 0.01664,0.0198 0.0066,0.008 0.0117,0.0137 0.01683,0.0197 0.0066,0.008 0.01182,0.0136 0.01702,0.0196 0.0067,0.008 0.01195,0.0135 0.01721,0.0195 0.0068,0.008 0.01207,0.0134 0.01739,0.0194 0.0068,0.007 0.01219,0.0133 0.01758,0.0192 0.0069,0.007 0.0123,0.0133 0.01775,0.0191 0.0069,0.007 0.01242,0.0132 0.01793,0.019 0.007,0.007 0.01254,0.0131 0.01811,0.0189 0.01894,0.0196 0.03739,0.0383 0.05605,0.0568 0.01874,0.0186 0.03768,0.0369 0.05682,0.055 0.01922,0.0182 0.03864,0.0362 0.05824,0.054 0.02627,0.0239 0.05287,0.0474 0.07977,0.0705 0.13019,0.11199 0.266808,0.2152 0.407621,0.31064 0.158946,0.10768 0.323756,0.20583 0.492759,0.29516 0.168547,0.0891 0.341713,0.16958 0.518629,0.24135 0.163455,0.0663 0.330589,0.12528 0.50094,0.17583 0.152862,0.0453 0.309011,0.0841 0.467965,0.11407 0.145963,0.0275 0.29562,0.048 0.447866,0.0576 0.05217,0.003 0.104822,0.005 0.157907,0.006 0.0292,2.5e-4 0.0586,4e-5 0.08816,-7.1e-4 0.02159,-5.4e-4 0.04329,-0.001 0.06509,-0.003 0.02128,-0.001 0.04268,-0.003 0.06418,-0.004 0.0075,-6.5e-4 0.01367,-0.001 0.01986,-0.002 0.0088,-8.3e-4 0.01492,-0.001 0.02105,-0.002 0.0088,-9.2e-4 0.01486,-0.002 0.02094,-0.002 0.0088,-0.001 0.01481,-0.002 0.02084,-0.002 0.0088,-0.001 0.01475,-0.002 0.02073,-0.003 0.0088,-0.001 0.01469,-0.002 0.02062,-0.003 0.0088,-0.001 0.01464,-0.002 0.0205,-0.003 0.0088,-0.001 0.01458,-0.002 0.02039,-0.003 0.0088,-0.002 0.01453,-0.003 0.02028,-0.004 0.0088,-0.002 0.01447,-0.003 0.02016,-0.004 0.0088,-0.002 0.01441,-0.003 0.02004,-0.004 0.0088,-0.002 0.01435,-0.003 0.01993,-0.004 0.0088,-0.002 0.01429,-0.003 0.01981,-0.004 0.0088,-0.002 0.01423,-0.003 0.01969,-0.005 0.0088,-0.002 0.01417,-0.004 0.01956,-0.005 0.0088,-0.002 0.01411,-0.004 0.01944,-0.005 0.0088,-0.002 0.01404,-0.004 0.01931,-0.005 0.0088,-0.003 0.01398,-0.004 0.01918,-0.006 0.0088,-0.003 0.01391,-0.004 0.01906,-0.006 0.0088,-0.003 0.01385,-0.004 0.01892,-0.006 0.0088,-0.003 0.01378,-0.005 0.01879,-0.006 0.0088,-0.003 0.01371,-0.005 0.01865,-0.007 0.0088,-0.003 0.01363,-0.005 0.01851,-0.007 0.0088,-0.003 0.01356,-0.005 0.01837,-0.007 0.0087,-0.004 0.01348,-0.006 0.01822,-0.008 0.0087,-0.004 0.0134,-0.006 0.01807,-0.008 0.0087,-0.004 0.01332,-0.006 0.01792,-0.008 0.0087,-0.004 0.01323,-0.006 0.01776,-0.008 0.0087,-0.004 0.01314,-0.006 0.0176,-0.009 0.0087,-0.004 0.01304,-0.007 0.01743,-0.009 0.0086,-0.005 0.01294,-0.007 0.01726,-0.009 0.0086,-0.005 0.01284,-0.007 0.01708,-0.01 0.0086,-0.005 0.01273,-0.007 0.01689,-0.01 0.0085,-0.005 0.01261,-0.008 0.0167,-0.0103 0.0085,-0.005 0.01249,-0.008 0.0165,-0.0106 0.0084,-0.006 0.01236,-0.008 0.01629,-0.011 0.0109,-0.008 0.01796,-0.0126 0.02502,-0.0175 0.01009,-0.007 0.01699,-0.0123 0.0239,-0.0173 0.0099,-0.007 0.01669,-0.0125 0.02345,-0.0175 0.0098,-0.008 0.0164,-0.0126 0.02299,-0.0177 0.0097,-0.008 0.0161,-0.0128 0.02254,-0.0179 0.0095,-0.008 0.0158,-0.013 0.02208,-0.0181 0.0094,-0.008 0.0155,-0.0131 0.02163,-0.0183 0.0092,-0.008 0.0152,-0.0133 0.02117,-0.0185 0.0091,-0.008 0.01489,-0.0134 0.02072,-0.0187 0.0089,-0.008 0.01459,-0.0136 0.02026,-0.0189 0.0088,-0.008 0.01428,-0.0138 0.01981,-0.0191 0.0086,-0.009 0.01397,-0.0139 0.01935,-0.0193 0.0084,-0.009 0.01366,-0.0141 0.01889,-0.0195 0.0083,-0.009 0.01335,-0.0143 0.01843,-0.0197 0.0081,-0.009 0.01303,-0.0144 0.01797,-0.0199 0.0079,-0.009 0.01272,-0.0146 0.01751,-0.0201 0.0078,-0.009 0.0124,-0.0147 0.01704,-0.0203 0.0076,-0.009 0.01208,-0.0149 0.01658,-0.0205 0.0074,-0.009 0.01175,-0.0151 0.01611,-0.0207 0.0072,-0.01 0.01143,-0.0152 0.01564,-0.0209 0.007,-0.01 0.01109,-0.0154 0.01517,-0.021 0.0068,-0.01 0.01076,-0.0155 0.0147,-0.0212 0.0066,-0.01 0.01043,-0.0156 0.01422,-0.0214 0.0064,-0.0101 0.01009,-0.0158 0.01374,-0.0215 0.0062,-0.0102 0.0098,-0.0159 0.01327,-0.0217 0.006,-0.0103 0.0094,-0.0161 0.01279,-0.0219 0.0058,-0.0104 0.0091,-0.0162 0.01231,-0.022 0.0056,-0.0105 0.0087,-0.0163 0.01182,-0.0222 0.0054,-0.0105 0.0084,-0.0164 0.01134,-0.0223 0.0052,-0.0106 0.008,-0.0165 0.01086,-0.0224 0.005,-0.0107 0.0077,-0.0166 0.01037,-0.0225 0.0047,-0.0108 0.0073,-0.0167 0.0099,-0.0227 0.0045,-0.0109 0.007,-0.0168 0.0094,-0.0228 0.0043,-0.0109 0.0066,-0.0169 0.0089,-0.0229 0.0041,-0.011 0.0062,-0.017 0.0084,-0.023 0.0038,-0.0111 0.0059,-0.0171 0.0079,-0.0231 0.0036,-0.0111 0.0055,-0.0171 0.0075,-0.0232 0.0034,-0.0112 0.0052,-0.0172 0.007,-0.0232 0.0031,-0.0112 0.0048,-0.0172 0.0065,-0.0233 0.0029,-0.0112 0.0045,-0.0173 0.006,-0.0234 0.0027,-0.0113 0.0041,-0.0173 0.0055,-0.0234 0.0024,-0.0113 0.0037,-0.0174 0.005,-0.0235 0.0022,-0.0113 0.0034,-0.0174 0.0046,-0.0235 0.002,-0.0113 0.003,-0.0174 0.0041,-0.0236 0.0018,-0.0113 0.0027,-0.0174 0.0036,-0.0236 0.0015,-0.0113 0.0024,-0.0174 0.0032,-0.0236 0.0013,-0.0113 0.002,-0.0174 0.0027,-0.0236 0.0011,-0.0113 0.0017,-0.0175 0.0022,-0.0236 8.77e-4,-0.0113 0.0013,-0.0174 0.0018,-0.0236 6.61e-4,-0.0112 9.98e-4,-0.0174 0.0013,-0.0236 4.48e-4,-0.0112 6.69e-4,-0.0174 8.9e-4,-0.0236 2.37e-4,-0.0112 3.43e-4,-0.0174 4.48e-4,-0.0236 3e-5,-0.0111 2.1e-5,-0.0173 1.3e-5,-0.0236 -1.75e-4,-0.0111 -2.97e-4,-0.0173 -4.2e-4,-0.0235 -3.74e-4,-0.0111 -6.1e-4,-0.0173 -8.45e-4,-0.0235 -5.72e-4,-0.011 -9.19e-4,-0.0172 -0.0013,-0.0234 -7.66e-4,-0.011 -0.0012,-0.0172 -0.0017,-0.0234 -9.56e-4,-0.0109 -0.0015,-0.0171 -0.0021,-0.0233 -0.0011,-0.0109 -0.0018,-0.0171 -0.0025,-0.0233 -0.0013,-0.0108 -0.0021,-0.017 -0.0029,-0.0232 -0.0015,-0.0107 -0.0024,-0.017 -0.0033,-0.0232 -0.0017,-0.0107 -0.0027,-0.0169 -0.0037,-0.0231 -0.0019,-0.0106 -0.003,-0.0168 -0.0041,-0.023 -0.002,-0.0105 -0.0032,-0.0168 -0.0044,-0.023 -0.0022,-0.0105 -0.0035,-0.0167 -0.0048,-0.0229 -0.0023,-0.0104 -0.0038,-0.0166 -0.0052,-0.0228 -0.0025,-0.0103 -0.004,-0.0165 -0.0055,-0.0227 -0.0027,-0.0103 -0.0043,-0.0165 -0.0059,-0.0226 -0.0028,-0.0102 -0.0045,-0.0164 -0.0063,-0.0226 -0.0029,-0.0101 -0.0048,-0.0163 -0.0066,-0.0225 -0.0031,-0.01 -0.005,-0.0162 -0.0069,-0.0224 -0.0032,-0.01 -0.0053,-0.0161 -0.0073,-0.0223 -0.0034,-0.01 -0.0055,-0.016 -0.0076,-0.0222 -0.0035,-0.01 -0.0057,-0.016 -0.0079,-0.0221 -0.0036,-0.01 -0.0059,-0.0159 -0.0083,-0.022 -0.0038,-0.01 -0.0062,-0.0158 -0.0086,-0.0219 -0.0039,-0.01 -0.0064,-0.0157 -0.0089,-0.0218 -0.004,-0.01 -0.0066,-0.0156 -0.0092,-0.0217 -0.0041,-0.009 -0.0068,-0.0155 -0.0095,-0.0216 -0.0042,-0.009 -0.007,-0.0154 -0.0098,-0.0215 -0.0044,-0.009 -0.0072,-0.0153 -0.01011,-0.0214 -0.0045,-0.009 -0.0074,-0.0152 -0.0104,-0.0213 -0.0046,-0.009 -0.0076,-0.0152 -0.01069,-0.0212 -0.0047,-0.009 -0.0078,-0.0151 -0.01098,-0.0211 -0.0048,-0.009 -0.008,-0.015 -0.01126,-0.021 -0.0049,-0.009 -0.0082,-0.0149 -0.01153,-0.0209 -0.005,-0.009 -0.0084,-0.0148 -0.01181,-0.0208 -0.0051,-0.009 -0.0086,-0.0147 -0.01208,-0.0207 -0.0052,-0.009 -0.0088,-0.0146 -0.01234,-0.0205 -0.0053,-0.009 -0.009,-0.0145 -0.01261,-0.0204 -0.0054,-0.009 -0.0091,-0.0144 -0.01287,-0.0203 -0.0055,-0.008 -0.0093,-0.0143 -0.01312,-0.0202 -0.0056,-0.008 -0.0095,-0.0142 -0.01338,-0.0201 -0.0057,-0.008 -0.0097,-0.0141 -0.01363,-0.0199 -0.0058,-0.008 -0.0098,-0.014 -0.01387,-0.0198 -0.0058,-0.008 -0.01,-0.0139 -0.01412,-0.0197 -0.0059,-0.008 -0.01015,-0.0138 -0.01436,-0.0196 -0.006,-0.008 -0.01031,-0.0138 -0.0146,-0.0195 -0.0061,-0.008 -0.01047,-0.0137 -0.01483,-0.0193 -0.0062,-0.008 -0.01063,-0.0136 -0.01506,-0.0192 -0.0063,-0.008 -0.01078,-0.0135 -0.01529,-0.0191 -0.0063,-0.008 -0.01094,-0.0134 -0.01552,-0.019 -0.0064,-0.008 -0.01109,-0.0133 -0.01574,-0.0188 -0.0065,-0.008 -0.01124,-0.0132 -0.01596,-0.0187 -0.0066,-0.008 -0.01138,-0.0131 -0.01618,-0.0186 -0.0067,-0.007 -0.01153,-0.013 -0.0164,-0.0185 -0.0067,-0.007 -0.01167,-0.0129 -0.01661,-0.0183 -0.0068,-0.007 -0.01182,-0.0128 -0.01682,-0.0182 -0.0069,-0.007 -0.01196,-0.0127 -0.01703,-0.018 -0.007,-0.007 -0.0121,-0.0126 -0.01724,-0.0179 -0.007,-0.007 -0.01223,-0.0125 -0.01744,-0.0178 -0.0071,-0.007 -0.01237,-0.0124 -0.01764,-0.0176 -0.0072,-0.007 -0.0125,-0.0123 -0.01784,-0.0175 -0.0072,-0.007 -0.01263,-0.0122 -0.01803,-0.0173 -0.0073,-0.007 -0.01276,-0.012 -0.01822,-0.0172 -0.0074,-0.007 -0.01289,-0.012 -0.01842,-0.0171 -0.0074,-0.007 -0.01302,-0.0118 -0.0186,-0.0169 -0.0075,-0.007 -0.01315,-0.0117 -0.01879,-0.0168 -0.0076,-0.007 -0.01327,-0.0116 -0.01897,-0.0166 -0.0076,-0.007 -0.01339,-0.0115 -0.01915,-0.0165 -0.0077,-0.006 -0.01352,-0.0114 -0.01933,-0.0163 -0.0078,-0.006 -0.01364,-0.0113 -0.01951,-0.0161 -0.0078,-0.006 -0.01375,-0.0112 -0.01968,-0.016 -0.0079,-0.006 -0.01387,-0.0111 -0.01985,-0.0158 -0.0079,-0.006 -0.01399,-0.011 -0.02002,-0.0157 -0.008,-0.006 -0.0141,-0.0108 -0.02019,-0.0155 -0.0081,-0.006 -0.01421,-0.0107 -0.02035,-0.0154 -0.0081,-0.006 -0.01433,-0.0106 -0.02052,-0.0152 -0.0082,-0.006 -0.01444,-0.0105 -0.02068,-0.015 -0.0082,-0.006 -0.01454,-0.0104 -0.02084,-0.0149 -0.0083,-0.006 -0.01465,-0.0102 -0.02099,-0.0147 -0.0084,-0.006 -0.01476,-0.0101 -0.02115,-0.0145 -0.0084,-0.006 -0.01486,-0.01 -0.0213,-0.0143 -0.0085,-0.006 -0.01496,-0.01 -0.02145,-0.0142 -0.0085,-0.006 -0.01507,-0.01 -0.02159,-0.014 -0.0086,-0.005 -0.01517,-0.01 -0.02174,-0.0138 -0.0086,-0.005 -0.01527,-0.009 -0.02188,-0.0136 -0.0087,-0.005 -0.01536,-0.009 -0.02202,-0.0134 -0.0088,-0.005 -0.01546,-0.009 -0.02216,-0.0132 -0.0088,-0.005 -0.01556,-0.009 -0.0223,-0.013 -0.0089,-0.005 -0.01565,-0.009 -0.02243,-0.0129 -0.0089,-0.005 -0.01574,-0.009 -0.02256,-0.0127 -0.009,-0.005 -0.01583,-0.009 -0.02269,-0.0125 -0.009,-0.005 -0.01593,-0.009 -0.02282,-0.0123 -0.0091,-0.005 -0.01601,-0.008 -0.02295,-0.0121 -0.0091,-0.005 -0.0161,-0.008 -0.02307,-0.0119 -0.0092,-0.005 -0.01619,-0.008 -0.02319,-0.0117 -0.0092,-0.005 -0.01627,-0.008 -0.02331,-0.0115 -0.0093,-0.004 -0.01636,-0.008 -0.02343,-0.0113 -0.0093,-0.004 -0.01644,-0.008 -0.02355,-0.0111 -0.0094,-0.004 -0.01652,-0.008 -0.02366,-0.0109 -0.0094,-0.004 -0.0166,-0.007 -0.02377,-0.0106 -0.0095,-0.004 -0.01668,-0.007 -0.02388,-0.0104 -0.0095,-0.004 -0.01676,-0.007 -0.02399,-0.0102 -0.0096,-0.004 -0.01684,-0.007 -0.02409,-0.01 -0.0096,-0.004 -0.01691,-0.007 -0.0242,-0.01 -0.0097,-0.004 -0.01698,-0.007 -0.02429,-0.01 -0.0097,-0.004 -0.01706,-0.007 -0.02439,-0.009 -0.0098,-0.004 -0.01713,-0.006 -0.02449,-0.009 -0.0098,-0.004 -0.0172,-0.006 -0.02459,-0.009 -0.0099,-0.003 -0.01727,-0.006 -0.02468,-0.009 -0.0099,-0.003 -0.01734,-0.006 -0.02477,-0.008 -0.0099,-0.003 -0.0174,-0.006 -0.02486,-0.008 -0.01,-0.003 -0.01747,-0.006 -0.02494,-0.008 -0.01003,-0.003 -0.01753,-0.005 -0.02503,-0.008 -0.01007,-0.003 -0.01759,-0.005 -0.02511,-0.007 -0.01011,-0.003 -0.01766,-0.005 -0.02519,-0.007 -0.01016,-0.003 -0.01772,-0.005 -0.02527,-0.007 -0.0102,-0.003 -0.01778,-0.005 -0.02534,-0.007 -0.01024,-0.003 -0.01783,-0.005 -0.02542,-0.006 -0.01028,-0.002 -0.01789,-0.004 -0.02549,-0.006 -0.01032,-0.002 -0.01795,-0.004 -0.02556,-0.006 -0.01036,-0.002 -0.018,-0.004 -0.02562,-0.006 -0.0104,-0.002 -0.01805,-0.004 -0.02569,-0.005 -0.01044,-0.002 -0.0181,-0.004 -0.02575,-0.005 -0.01048,-0.002 -0.01815,-0.003 -0.02581,-0.005 -0.01052,-0.002 -0.0182,-0.003 -0.02587,-0.005 -0.01055,-0.002 -0.01825,-0.003 -0.02592,-0.004 -0.01059,-0.002 -0.01829,-0.003 -0.02598,-0.004 -0.01063,-0.002 -0.01833,-0.003 -0.02603,-0.004 -0.01066,-0.001 -0.01838,-0.002 -0.02608,-0.003 -0.0107,-0.001 -0.01842,-0.002 -0.02612,-0.003 -0.01073,-0.001 -0.01845,-0.002 -0.02617,-0.003 -0.01077,-0.001 -0.01849,-0.002 -0.02621,-0.003 -0.0108,-9.3e-4 -0.01853,-0.002 -0.02625,-0.002 -0.01083,-8.1e-4 -0.01856,-0.001 -0.02628,-0.002 -0.01086,-6.8e-4 -0.01859,-0.001 -0.02632,-0.002 -0.01089,-5.5e-4 -0.01863,-9.4e-4 -0.02635,-0.001 -0.01092,-4.2e-4 -0.01865,-7.1e-4 -0.02638,-0.001 -0.01095,-3e-4 -0.01868,-5e-4 -0.0264,-6.9e-4 -0.01097,-1.7e-4 -0.01871,-2.7e-4 -0.02643,-3.8e-4 -0.011,-3e-5 -0.01873,-4e-5 -0.02645,-5e-5 -0.01102,1e-4 -0.01875,1.9e-4 -0.02646,2.7e-4 -0.01104,2.4e-4 -0.01877,4.2e-4 -0.02648,6e-4 -0.01107,3.8e-4 -0.01878,6.5e-4 -0.02649,9.3e-4 -0.01109,5.1e-4 -0.0188,8.9e-4 -0.0265,0.001 -0.01111,6.6e-4 -0.01881,0.001 -0.0265,0.002 -0.01112,8e-4 -0.01882,0.001 -0.02651,0.002 -0.01114,9.4e-4 -0.01883,0.002 -0.0265,0.002 -0.01115,0.001 -0.01883,0.002 -0.0265,0.003 -0.01117,0.001 -0.01884,0.002 -0.02649,0.003 -0.01118,0.001 -0.01884,0.002 -0.02648,0.003 -0.01119,0.002 -0.01884,0.003 -0.02647,0.004 -0.01119,0.002 -0.01883,0.003 -0.02645,0.004 -0.0112,0.002 -0.01882,0.003 -0.02643,0.004 -0.0112,0.002 -0.01881,0.003 -0.0264,0.005 -0.01121,0.002 -0.0188,0.004 -0.02637,0.005 -0.0112,0.002 -0.01878,0.004 -0.02634,0.006 -0.0112,0.002 -0.01876,0.004 -0.0263,0.006 -0.0112,0.003 -0.01874,0.004 -0.02626,0.006 -0.01119,0.003 -0.01871,0.005 -0.02622,0.007 -0.01118,0.003 -0.01868,0.005 -0.02617,0.007 -0.01117,0.003 -0.01865,0.005 -0.02612,0.007 -0.01115,0.003 -0.01862,0.006 -0.02606,0.008 -0.01113,0.003 -0.01858,0.006 -0.026,0.008 -0.01112,0.004 -0.01853,0.006 -0.02593,0.009 -0.01109,0.004 -0.01849,0.006 -0.02586,0.009 -0.01107,0.004 -0.01844,0.007 -0.02579,0.009 -0.01104,0.004 -0.01839,0.007 -0.02571,0.01 -0.01101,0.004 -0.01833,0.007 -0.02563,0.0102 -0.01098,0.005 -0.01827,0.008 -0.02554,0.0106 -0.01094,0.005 -0.0182,0.008 -0.02545,0.011 -0.0109,0.005 -0.01814,0.008 -0.02535,0.0114 -0.01086,0.005 -0.01806,0.008 -0.02525,0.0118 -0.01081,0.005 -0.01799,0.009 -0.02514,0.0122 -0.01076,0.005 -0.01791,0.009 -0.02503,0.0126 -0.01071,0.006 -0.01783,0.009 -0.02492,0.013 -0.01066,0.006 -0.01774,0.01 -0.02479,0.0135 -0.0106,0.006 -0.01765,0.01 -0.02467,0.0139 -0.01054,0.006 -0.01756,0.0102 -0.02454,0.0143 -0.01048,0.006 -0.01746,0.0105 -0.02441,0.0147 -0.01041,0.006 -0.01736,0.0108 -0.02427,0.0151 -0.01035,0.007 -0.01725,0.0111 -0.02413,0.0156 -0.01027,0.007 -0.01714,0.0114 -0.02398,0.016 -0.0102,0.007 -0.01703,0.0117 -0.02383,0.0164 -0.01013,0.007 -0.01691,0.012 -0.02367,0.0168 -0.01005,0.007 -0.01679,0.0123 -0.02351,0.0172 -0.01,0.008 -0.01667,0.0126 -0.02335,0.0177 -0.0099,0.008 -0.01655,0.0129 -0.02318,0.0181 -0.0098,0.008 -0.01642,0.0132 -0.023,0.0185 -0.0097,0.008 -0.01628,0.0135 -0.02283,0.019 -0.0096,0.008 -0.01615,0.0138 -0.02265,0.0194 -0.0095,0.008 -0.01601,0.0141 -0.02246,0.0198 -0.0094,0.009 -0.01587,0.0144 -0.02228,0.0202 -0.0093,0.009 -0.01572,0.0147 -0.02208,0.0207 -0.0092,0.009 -0.01558,0.015 -0.02189,0.0211 -0.0091,0.009 -0.01543,0.0153 -0.02169,0.0215 -0.009,0.009 -0.01528,0.0156 -0.02149,0.022 -0.0089,0.009 -0.01512,0.0159 -0.02128,0.0224 -0.0088,0.01 -0.01496,0.0162 -0.02107,0.0228 -0.0087,0.01 -0.01481,0.0165 -0.02086,0.0232 -0.0086,0.01 -0.01465,0.0168 -0.02064,0.0237 -0.0085,0.01 -0.01448,0.0171 -0.02042,0.0241 -0.0084,0.0102 -0.01432,0.0174 -0.0202,0.0245 -0.0083,0.0103 -0.01415,0.0177 -0.01998,0.025 -0.0082,0.0105 -0.01398,0.018 -0.01975,0.0254 -0.0058,0.008 -0.0092,0.0122 -0.01267,0.0168 -0.0057,0.008 -0.0091,0.0123 -0.01244,0.0169 -0.0056,0.008 -0.0089,0.0124 -0.01219,0.0171 -0.0054,0.008 -0.0087,0.0126 -0.01193,0.0172 -0.0053,0.008 -0.0085,0.0127 -0.01168,0.0174 -0.0052,0.008 -0.0083,0.0128 -0.01142,0.0175 -0.0051,0.008 -0.0081,0.0128 -0.01117,0.0176 -0.005,0.008 -0.008,0.0129 -0.01092,0.0178 -0.0048,0.008 -0.0078,0.013 -0.01066,0.0179 -0.0047,0.008 -0.0076,0.0131 -0.01041,0.018 -0.0046,0.008 -0.0074,0.0132 -0.01016,0.0182 -0.0045,0.008 -0.0072,0.0133 -0.0099,0.0183 -0.0049,0.009 -0.0073,0.0138 -0.0097,0.0184 -0.0042,0.008 -0.0068,0.0134 -0.0094,0.0185 -0.0041,0.008 -0.0066,0.0135 -0.0092,0.0186 -0.004,0.008 -0.0065,0.0135 -0.0089,0.0187 -0.0039,0.008 -0.0063,0.0136 -0.0087,0.0188 -0.0038,0.008 -0.0061,0.0137 -0.0084,0.0189 -0.0036,0.008 -0.0059,0.0137 -0.0082,0.019 -0.0035,0.008 -0.0058,0.0138 -0.008,0.0191 -0.0034,0.008 -0.0056,0.0139 -0.0077,0.0192 -0.0033,0.008 -0.0054,0.0139 -0.0075,0.0193 -0.0032,0.009 -0.0052,0.014 -0.0073,0.0194 -0.0031,0.009 -0.0051,0.014 -0.007,0.0195 -0.003,0.009 -0.0049,0.0141 -0.0068,0.0196 -0.0029,0.009 -0.0047,0.0141 -0.0066,0.0197 -0.0028,0.009 -0.0046,0.0142 -0.0064,0.0198 -0.0027,0.009 -0.0044,0.0142 -0.0061,0.0198 -0.0026,0.009 -0.0042,0.0143 -0.0059,0.0199 -0.0025,0.009 -0.0041,0.0143 -0.0057,0.02 -0.0024,0.009 -0.0039,0.0144 -0.0055,0.02 -0.0023,0.009 -0.0038,0.0144 -0.0053,0.0201 -0.0022,0.009 -0.0036,0.0145 -0.005,0.0202 -0.0021,0.009 -0.0035,0.0145 -0.0048,0.0203 -0.002,0.009 -0.0033,0.0145 -0.0046,0.0203 -0.0019,0.009 -0.0032,0.0146 -0.0044,0.0204 -0.0018,0.009 -0.003,0.0146 -0.0042,0.0205 -0.0017,0.009 -0.0029,0.0146 -0.004,0.0205 -0.0042,0.0222 -0.0078,0.0429 -0.01104,0.0632 -0.0034,0.0211 -0.0064,0.0419 -0.009,0.0624 -0.0037,0.0285 -0.0068,0.0565 -0.0094,0.0839 -0.0055,0.0579 -0.0087,0.11479 -0.01025,0.17014 -0.0039,0.14236 0.0032,0.28122 0.01698,0.41388 0.01519,0.14615 0.03871,0.28783 0.06696,0.42328 0.03414,0.16346 0.07591,0.32133 0.121697,0.47208 0.05647,0.18576 0.120204,0.36453 0.187502,0.53496 0.07695,0.19476 0.159724,0.38158 0.245363,0.55957 0.09089,0.18882 0.185684,0.36917 0.282853,0.54094 0.08528,0.15068 0.171928,0.294 0.260126,0.43067 0.07416,0.11484 0.148361,0.22341 0.223837,0.32688 0.06407,0.0878 0.127671,0.17004 0.192941,0.24823 l 0.376851,0.0339 z"
       id="path-1"
       inkscape:path-effect="#path-effect12;#path-effect13"
       inkscape:original-d="m 73.501042,218.04554 c -0.780546,-0.9344 -2.138499,-3.54273 -1.241732,-4.71395 1.482859,-1.93669 4.840385,0.73194 3.012886,1.9965 -0.997029,0.6899 -4.533049,-0.7332 -4.412489,-2.58036 0.100453,-1.5391 1.761597,-3.04959 2.588213,-4.22695"
       style="fill:#ffff00;fill-opacity:1;fill-rule:nonzero;stroke:none;stroke-width:1.00535;stroke-linejoin:bevel;paint-order:markers fill stroke" />
    <ellipse
       style="fill:none;fill-opacity:1;stroke:#fff800;stroke-width:0.25235;stroke-linejoin:bevel;stroke-opacity:1;paint-order:markers fill stroke"
       id="path14"
       cx="72.999435"
       cy="213.11905"
       rx="5.4278889"
       ry="5.3866715" />
    <path
       style="fill:none;stroke:#000000;stroke-width:0.264583px;stroke-linecap:butt;stroke-linejoin:miter;stroke-opacity:1;marker-end:url(#ArrowWide)"
       d="m 81.046014,200.05821 -4.669924,6.344"
       id="path15" />
    <text
       xml:space="preserve"
       style="font-size:4.9389px;fill:none;fill-opacity:1;stroke:#fff800;stroke-width:0.265999;stroke-linejoin:bevel;stroke-opacity:1;paint-order:markers fill stroke"
       x="74.698936"
       y="196.80142"
       id="text15"><tspan
         sodipodi:role="line"
         id="tspan15"
         style="stroke-width:0.266"
         x="74.698936"
         y="196.80142" /></text>
    <text
       style="font-size:2.64583px;font-family:monospace;-inkscape-font-specification:'monospace, Normal';fill:#000000;fill-opacity:1;stroke:none;stroke-width:0.264583"
       xml:space="preserve"
       id="text1-2"
       y="196.45763"
       x="75.817398"><tspan
         sodipodi:role="line"
         id="tspan1-7"
         x="75.817398"
         y="196.45763"
         style="stroke-width:0.264583">$light\ bulb$</tspan></text>
    <text
       style="font-size:2.64584px;font-family:monospace;-inkscape-font-specification:'monospace, Normal';fill:#000000;fill-opacity:1;stroke:none;stroke-width:0.264584"
       xml:space="preserve"
       id="text1-36"
       y="215.43747"
       x="34.620422"><tspan
         sodipodi:role="line"
         id="tspan1-75"
         x="34.620422"
         y="215.43747"
         style="stroke-width:0.264584">$series$</tspan></text>
  </g>
</svg>
