<?xml version="1.0" encoding="UTF-8" standalone="no"?>
<!-- Created with Inkscape (http://www.inkscape.org/) -->

<svg
   width="3in"
   height="2in"
   viewBox="0 0 76.2 50.8"
   version="1.1"
   id="svg8"
   inkscape:version="1.3 (0e150ed6c4, 2023-07-21)"
   sodipodi:docname="cirtuit4.svg"
   xml:space="preserve"
   xmlns:inkscape="http://www.inkscape.org/namespaces/inkscape"
   xmlns:sodipodi="http://sodipodi.sourceforge.net/DTD/sodipodi-0.dtd"
   xmlns="http://www.w3.org/2000/svg"
   xmlns:svg="http://www.w3.org/2000/svg"
   xmlns:rdf="http://www.w3.org/1999/02/22-rdf-syntax-ns#"
   xmlns:cc="http://creativecommons.org/ns#"
   xmlns:dc="http://purl.org/dc/elements/1.1/"><defs
     id="defs2"><inkscape:path-effect
       effect="powerstroke"
       id="path-effect13"
       is_visible="true"
       lpeversion="1.3"
       scale_width="1"
       interpolator_type="CentripetalCatmullRom"
       interpolator_beta="0.75"
       start_linecap_type="peak"
       end_linecap_type="peak"
       offset_points="38.897473,0.26755224"
       linejoin_type="spiro"
       miter_limit="4"
       not_jump="true"
       sort_points="true"
       message="&lt;b&gt;Ctrl + click&lt;/b&gt; on existing node and move it" /><inkscape:path-effect
       effect="simplify"
       id="path-effect12"
       is_visible="true"
       lpeversion="1.3"
       threshold="0.037633136"
       steps="1"
       smooth_angles="0"
       helper_size="0"
       simplify_individual_paths="false"
       simplify_just_coalesce="false"
       step="1" /><marker
       style="overflow:visible"
       id="ArrowWide"
       refX="0"
       refY="0"
       orient="auto-start-reverse"
       inkscape:stockid="Wide arrow"
       markerWidth="1"
       markerHeight="1"
       viewBox="0 0 1 1"
       inkscape:isstock="true"
       inkscape:collect="always"
       preserveAspectRatio="xMidYMid"><path
         style="fill:none;stroke:context-stroke;stroke-width:1;stroke-linecap:butt"
         d="M 3,-3 0,0 3,3"
         transform="rotate(180,0.125,0)"
         sodipodi:nodetypes="ccc"
         id="path1" /></marker><marker
       id="marker-arrow-0.5308"
       orient="auto-start-reverse"
       refY="0"
       refX="0"
       markerHeight="1.6900001"
       markerWidth="0.91100001"><g
         transform="scale(2.1535293)"
         id="g1"><path
           d="M -1.55415,2.0722 C -1.42464,1.29512 0,0.1295 0.38852,0 0,-0.1295 -1.42464,-1.29512 -1.55415,-2.0722"
           style="fill:none;stroke:#000000;stroke-width:0.6;stroke-linecap:round;stroke-linejoin:round;stroke-miterlimit:10;stroke-dasharray:none;stroke-opacity:1"
           inkscape:connector-curvature="0"
           id="path1-9" /></g></marker></defs><sodipodi:namedview
     id="base"
     pagecolor="#ffffff"
     bordercolor="#666666"
     borderopacity="1.0"
     inkscape:pageopacity="0.0"
     inkscape:pageshadow="2"
     inkscape:zoom="4.9907557"
     inkscape:cx="119.92172"
     inkscape:cy="40.474832"
     inkscape:document-units="mm"
     inkscape:current-layer="layer1-5"
     showgrid="false"
     showborder="true"
     width="200mm"
     showguides="true"
     inkscape:guide-bbox="true"
     inkscape:window-width="1894"
     inkscape:window-height="1054"
     inkscape:window-x="10"
     inkscape:window-y="10"
     inkscape:window-maximized="1"
     inkscape:showpageshadow="2"
     inkscape:pagecheckerboard="0"
     inkscape:deskcolor="#d1d1d1"><inkscape:grid
       type="xygrid"
       id="grid815"
       units="mm"
       spacingx="10"
       spacingy="10"
       empspacing="4"
       dotted="false"
       originx="0"
       originy="0"
       visible="false" /></sodipodi:namedview><metadata
     id="metadata5"><rdf:RDF><cc:Work
         rdf:about=""><dc:format>image/svg+xml</dc:format><dc:type
           rdf:resource="http://purl.org/dc/dcmitype/StillImage" /></cc:Work></rdf:RDF></metadata><g
     inkscape:label="Layer 1"
     inkscape:groupmode="layer"
     id="layer1"
     transform="translate(0,-177)"><g
       inkscape:label="Layer 1"
       id="layer1-5"
       transform="matrix(0.81769236,0,0,0.96197829,4.0809102,-1.5056576)"><path
         id="rect1"
         style="fill:none;stroke:#000000;stroke-width:0.265999;stroke-linejoin:bevel;paint-order:markers fill stroke"
         d="m 20.718115,190.29893 c -0.48059,0 -0.867647,0.24619 -0.867647,0.5519 v 2.36265 h -8.430493 c -0.480591,0 -0.867648,0.24619 -0.867648,0.5519 v 42.54935 c 0,0.30571 0.387057,0.5519 0.867648,0.5519 h 60.803007 c 0.48059,0 0.867647,-0.24619 0.867647,-0.5519 v -42.54935 c 0,-0.30571 -0.387057,-0.5519 -0.867647,-0.5519 H 57.646611 v -2.23449 c 0,-0.30571 -0.38654,-0.5519 -0.867131,-0.5519 h -8.354529 c -0.48059,0 -0.867647,0.24619 -0.867647,0.5519 v 2.23449 H 29.940291 v -2.36265 c 0,-0.30571 -0.387056,-0.5519 -0.867647,-0.5519 z" /><rect
         style="fill:#ffffff;fill-opacity:1;stroke:none;stroke-width:0.265999;stroke-linejoin:bevel;paint-order:markers fill stroke"
         id="rect5"
         width="17.080706"
         height="5.5431457"
         x="16.905563"
         y="187.45119"
         rx="1.0609039"
         ry="0.5736441" /><rect
         style="fill:#ffffff;fill-opacity:1;stroke:none;stroke-width:0.265999;stroke-linejoin:bevel;paint-order:markers fill stroke"
         id="rect6"
         width="15.991147"
         height="4.3090148"
         x="45.451645"
         y="188.80486"
         rx="1.0609039"
         ry="0.5736441" /><text
         style="font-size:2.64583px;font-family:monospace;-inkscape-font-specification:'monospace, Normal';fill:#000000;fill-opacity:1;stroke:none;stroke-width:0.264583"
         xml:space="preserve"
         id="text1"
         y="187.33784"
         x="34.55891"><tspan
           sodipodi:role="line"
           id="tspan1"
           x="34.55891"
           y="187.33784"
           style="stroke-width:0.264583">$p$</tspan></text><text
         style="font-size:2.64583px;font-family:monospace;-inkscape-font-specification:'monospace, Normal';fill:#000000;fill-opacity:1;stroke:none;stroke-width:0.264583"
         xml:space="preserve"
         id="text1-3"
         y="199.28558"
         x="34.584019"><tspan
           sodipodi:role="line"
           id="tspan1-6"
           x="34.584019"
           y="199.28558"
           style="stroke-width:0.264583">$q$</tspan></text><rect
         style="fill:#ffffff;fill-opacity:1;stroke:none;stroke-width:0.183383;stroke-linejoin:bevel;paint-order:markers fill stroke"
         id="rect7"
         width="13.295936"
         height="5.6919155"
         x="7.2906837"
         y="213.30174"
         rx="1.0609039"
         ry="0.5736441" /><path
         style="fill:none;stroke:#000000;stroke-width:0.264583px;stroke-linecap:butt;stroke-linejoin:miter;stroke-opacity:1"
         d="M 6.0137615,218.40528 H 15.565342"
         id="path9" /><path
         style="fill:none;stroke:#000000;stroke-width:0.180015px;stroke-linecap:butt;stroke-linejoin:miter;stroke-opacity:1"
         d="M 8.1710965,216.05016 H 12.592564"
         id="path10" /><path
         style="fill:none;stroke:#000000;stroke-width:0.264583px;stroke-linecap:butt;stroke-linejoin:miter;stroke-opacity:1"
         d="m 6.096199,213.54275 h 9.55158"
         id="path11" /><text
         style="font-size:2.64583px;font-family:monospace;-inkscape-font-specification:'monospace, Normal';fill:#000000;fill-opacity:1;stroke:none;stroke-width:0.264583"
         xml:space="preserve"
         id="text1-7"
         y="203.1151"
         x="-4.4112368"><tspan
           sodipodi:role="line"
           id="tspan1-5"
           x="-4.4112368"
           y="203.1151"
           style="stroke-width:0.264583">$battery$</tspan></text><path
         style="fill:none;stroke:#000000;stroke-width:0.264583px;stroke-linecap:butt;stroke-linejoin:miter;stroke-opacity:1;marker-end:url(#ArrowWide)"
         d="m 3.398529,205.4591 4.6699246,6.344"
         id="path12" /><text
         style="font-size:2.64583px;font-family:monospace;-inkscape-font-specification:'monospace, Normal';fill:#ffffff;fill-opacity:1;stroke:none;stroke-width:0.264583"
         xml:space="preserve"
         id="text1-35"
         y="215.11111"
         x="33.129009"><tspan
           sodipodi:role="line"
           id="tspan1-62"
           x="33.129009"
           y="215.11111"
           style="fill:#ffffff;stroke-width:0.264583">$series$</tspan></text><rect
         style="fill:#ffffff;fill-opacity:1;stroke:none;stroke-width:0.265999;stroke-linejoin:bevel;paint-order:markers fill stroke"
         id="rect12"
         width="10.226973"
         height="10.422996"
         x="68.847618"
         y="207.94847"
         rx="1.0609039"
         ry="0.5736441" /><path
         d="m 73.706434,217.87408 c -0.05644,-0.0676 -0.112889,-0.1405 -0.171484,-0.22075 -0.06873,-0.0942 -0.137198,-0.19433 -0.206513,-0.30166 -0.08587,-0.13307 -0.170555,-0.27347 -0.254105,-0.42193 -0.0948,-0.16854 -0.187084,-0.34561 -0.275115,-0.53093 -0.08289,-0.17459 -0.162237,-0.35702 -0.235002,-0.54628 -0.06108,-0.15896 -0.117999,-0.324 -0.167505,-0.49388 -0.04189,-0.14387 -0.07877,-0.29222 -0.107324,-0.44367 -0.02362,-0.12547 -0.04164,-0.25369 -0.05101,-0.38319 -0.008,-0.11135 -0.0097,-0.22378 -0.002,-0.33549 0.0055,-0.0803 0.01581,-0.16034 0.03235,-0.2389 0.0041,-0.0196 0.0087,-0.0394 0.01377,-0.0593 0.0036,-0.0143 0.0075,-0.0287 0.01175,-0.0432 0.004,-0.0139 0.0084,-0.028 0.01297,-0.0421 0.0013,-0.004 0.0032,-0.01 0.0051,-0.0152 8.91e-4,-0.003 0.0028,-0.008 0.0048,-0.0137 9.07e-4,-0.002 0.0029,-0.008 0.0049,-0.0135 9.22e-4,-0.002 0.003,-0.008 0.005,-0.0134 9.36e-4,-0.002 0.003,-0.008 0.0052,-0.0133 9.5e-4,-0.002 0.0031,-0.008 0.0053,-0.0132 9.63e-4,-0.002 0.0032,-0.008 0.0054,-0.013 9.76e-4,-0.002 0.0033,-0.008 0.0056,-0.0129 9.88e-4,-0.002 0.0033,-0.007 0.0057,-0.0128 0.001,-0.002 0.0034,-0.007 0.0059,-0.0127 0.001,-0.002 0.0035,-0.007 0.006,-0.0126 0.001,-0.002 0.0036,-0.007 0.0061,-0.0124 0.001,-0.002 0.0036,-0.007 0.0063,-0.0123 0.001,-0.002 0.0037,-0.007 0.0064,-0.0122 0.0011,-0.002 0.0038,-0.007 0.0065,-0.012 0.0011,-0.002 0.0039,-0.007 0.0067,-0.0119 0.0011,-0.002 0.0039,-0.007 0.0068,-0.0118 0.0011,-0.002 0.004,-0.007 0.007,-0.0117 0.0011,-0.002 0.0041,-0.007 0.0071,-0.0116 0.0011,-0.002 0.0042,-0.007 0.0073,-0.0115 0.0011,-0.002 0.0043,-0.006 0.0074,-0.0113 0.0011,-0.002 0.0043,-0.006 0.0076,-0.0112 0.0012,-0.002 0.0044,-0.006 0.0077,-0.0111 0.0012,-0.002 0.0045,-0.006 0.0079,-0.011 0.0012,-0.002 0.0046,-0.006 0.008,-0.0109 8.53e-4,-0.001 0.004,-0.005 0.0071,-0.009 0.0045,-0.006 0.01035,-0.0133 0.01627,-0.0209 0.0035,-0.004 0.0094,-0.0117 0.01534,-0.0192 0.0035,-0.004 0.0094,-0.0114 0.01545,-0.0188 0.0035,-0.004 0.0095,-0.0112 0.01556,-0.0183 0.0035,-0.004 0.0095,-0.0109 0.01566,-0.0179 0.0035,-0.004 0.0096,-0.0107 0.01576,-0.0176 0.0035,-0.004 0.0097,-0.0104 0.01586,-0.0172 0.0035,-0.004 0.0097,-0.0102 0.01596,-0.0168 0.0035,-0.004 0.0097,-0.01 0.01606,-0.0164 0.0035,-0.003 0.0098,-0.01 0.01615,-0.016 0.0035,-0.003 0.0098,-0.009 0.01625,-0.0156 0.0035,-0.003 0.0099,-0.009 0.01634,-0.0153 0.0035,-0.003 0.0099,-0.009 0.01643,-0.0149 0.0035,-0.003 0.01,-0.009 0.01652,-0.0145 0.0035,-0.003 0.01002,-0.009 0.0166,-0.0142 0.0035,-0.003 0.01006,-0.008 0.01669,-0.0138 0.0035,-0.003 0.0101,-0.008 0.01677,-0.0135 0.0035,-0.003 0.01015,-0.008 0.01686,-0.0131 0.0035,-0.003 0.01018,-0.008 0.01694,-0.0128 0.0035,-0.003 0.01023,-0.007 0.01702,-0.0125 0.0035,-0.002 0.01027,-0.007 0.0171,-0.0121 0.0035,-0.002 0.01031,-0.007 0.01718,-0.0118 0.0035,-0.002 0.01035,-0.007 0.01726,-0.0115 0.0035,-0.002 0.01039,-0.007 0.01733,-0.0112 0.0035,-0.002 0.01043,-0.006 0.01741,-0.0108 0.0035,-0.002 0.01047,-0.006 0.01749,-0.0105 0.0035,-0.002 0.01051,-0.006 0.01756,-0.0102 0.0035,-0.002 0.01056,-0.006 0.01764,-0.01 0.0035,-0.002 0.0106,-0.006 0.01772,-0.01 0.0035,-0.002 0.01064,-0.006 0.01779,-0.009 0.0035,-0.002 0.01069,-0.005 0.01786,-0.009 0.0036,-0.002 0.01073,-0.005 0.01794,-0.009 0.0036,-0.002 0.01077,-0.005 0.01801,-0.008 0.0036,-0.002 0.01082,-0.005 0.01808,-0.008 0.0036,-0.002 0.01086,-0.005 0.01816,-0.008 0.0036,-0.001 0.01091,-0.005 0.01823,-0.008 0.0036,-0.001 0.01095,-0.004 0.0183,-0.007 0.0037,-0.001 0.011,-0.004 0.01837,-0.007 0.0037,-0.001 0.01104,-0.004 0.01844,-0.007 0.0037,-0.001 0.01109,-0.004 0.01851,-0.006 0.0037,-0.001 0.01114,-0.004 0.01858,-0.006 0.0037,-0.001 0.01118,-0.004 0.01865,-0.006 0.0038,-0.001 0.01123,-0.003 0.01872,-0.006 0.0038,-0.001 0.01128,-0.003 0.01879,-0.005 0.0038,-0.001 0.01132,-0.003 0.01885,-0.005 0.0038,-9.5e-4 0.01137,-0.003 0.01892,-0.005 0.0039,-9e-4 0.01142,-0.003 0.01898,-0.005 0.0039,-8.5e-4 0.01146,-0.003 0.01905,-0.004 0.0039,-8e-4 0.01151,-0.002 0.01911,-0.004 0.004,-7.5e-4 0.01156,-0.002 0.01917,-0.004 0.004,-7e-4 0.0116,-0.002 0.01923,-0.003 0.004,-6.5e-4 0.01165,-0.002 0.01929,-0.003 0.0041,-6e-4 0.01169,-0.002 0.01935,-0.003 0.0041,-5.5e-4 0.01174,-0.002 0.01941,-0.003 0.0041,-5e-4 0.01178,-0.001 0.01946,-0.002 0.0042,-4.5e-4 0.01182,-0.001 0.01951,-0.002 0.0042,-3.9e-4 0.01187,-0.001 0.01957,-0.002 0.0042,-3.4e-4 0.01191,-0.001 0.01962,-0.002 0.0042,-2.9e-4 0.01195,-8.6e-4 0.01967,-0.001 0.0043,-2.4e-4 0.01199,-7.1e-4 0.01971,-0.001 0.0043,-1.8e-4 0.01203,-5.6e-4 0.01976,-9.3e-4 0.0043,-1.4e-4 0.01206,-4.1e-4 0.0198,-6.9e-4 0.0044,-8e-5 0.0121,-2.6e-4 0.01984,-4.4e-4 0.0044,-3e-5 0.01214,-1.2e-4 0.01988,-2e-4 0.0044,2e-5 0.01217,3e-5 0.01992,4e-5 0.0045,8e-5 0.0122,1.9e-4 0.01995,2.9e-4 0.0045,1.4e-4 0.01223,3.3e-4 0.01999,5.3e-4 0.0045,1.9e-4 0.01226,4.8e-4 0.02002,7.7e-4 0.0046,2.4e-4 0.01229,6.2e-4 0.02004,10e-4 0.0046,3e-4 0.01232,7.7e-4 0.02007,0.001 0.0046,3.5e-4 0.01234,9.1e-4 0.02009,0.001 0.0046,4.1e-4 0.01237,0.001 0.02011,0.002 0.0047,4.7e-4 0.01239,0.001 0.02013,0.002 0.0047,5.2e-4 0.01241,0.001 0.02015,0.002 0.0047,5.8e-4 0.01243,0.001 0.02016,0.002 0.0047,6.3e-4 0.01245,0.002 0.02017,0.003 0.0048,6.9e-4 0.01246,0.002 0.02018,0.003 0.0048,7.5e-4 0.01247,0.002 0.02019,0.003 0.0048,8e-4 0.01249,0.002 0.02019,0.003 0.0048,8.6e-4 0.0125,0.002 0.02019,0.004 0.0048,9.2e-4 0.0125,0.002 0.02019,0.004 0.0048,9.7e-4 0.01251,0.002 0.02018,0.004 0.0049,0.001 0.01251,0.003 0.02017,0.004 0.0049,0.001 0.01252,0.003 0.02016,0.004 0.0049,0.001 0.01252,0.003 0.02015,0.005 0.0049,0.001 0.01251,0.003 0.02013,0.005 0.0049,0.001 0.01251,0.003 0.02011,0.005 0.0049,0.001 0.01251,0.003 0.02009,0.005 0.0049,0.001 0.0125,0.003 0.02007,0.006 0.0049,0.001 0.01249,0.004 0.02004,0.006 0.0049,0.001 0.01247,0.004 0.02001,0.006 0.005,0.002 0.01246,0.004 0.01997,0.006 0.005,0.002 0.01244,0.004 0.01994,0.006 0.005,0.002 0.01242,0.004 0.0199,0.007 0.005,0.002 0.0124,0.004 0.01985,0.007 0.005,0.002 0.01238,0.004 0.01981,0.007 0.005,0.002 0.01236,0.004 0.01976,0.007 0.005,0.002 0.01233,0.005 0.01971,0.007 0.005,0.002 0.0123,0.005 0.01966,0.008 0.0049,0.002 0.01227,0.005 0.0196,0.008 0.0049,0.002 0.01224,0.005 0.01954,0.008 0.0049,0.002 0.0122,0.005 0.01947,0.008 0.0049,0.002 0.01216,0.005 0.01941,0.008 0.0049,0.002 0.01212,0.005 0.01934,0.008 0.0049,0.002 0.01208,0.005 0.01926,0.009 0.0049,0.002 0.01204,0.006 0.01919,0.009 0.0049,0.002 0.01199,0.006 0.01911,0.009 0.0049,0.002 0.01194,0.006 0.01903,0.009 0.0048,0.002 0.01189,0.006 0.01895,0.009 0.0048,0.002 0.01184,0.006 0.01886,0.01 0.0048,0.002 0.01179,0.006 0.01877,0.01 0.0048,0.003 0.01173,0.006 0.01868,0.01 0.0048,0.003 0.01167,0.006 0.01858,0.01 0.0047,0.003 0.01161,0.006 0.01848,0.0102 0.0047,0.003 0.01155,0.006 0.01838,0.0103 0.0047,0.003 0.01148,0.007 0.01828,0.0105 0.0047,0.003 0.01141,0.007 0.01817,0.0106 0.0046,0.003 0.01134,0.007 0.01806,0.0108 0.0046,0.003 0.01128,0.007 0.01794,0.011 0.0046,0.003 0.0112,0.007 0.01783,0.0111 0.0045,0.003 0.01113,0.007 0.01771,0.0112 0.0045,0.003 0.01105,0.007 0.01759,0.0114 0.0045,0.003 0.01097,0.007 0.01746,0.0115 0.0044,0.003 0.01089,0.007 0.01733,0.0117 0.0044,0.003 0.0108,0.007 0.0172,0.0118 0.0044,0.003 0.01072,0.007 0.01707,0.0119 0.0043,0.003 0.01063,0.008 0.01693,0.0121 0.0043,0.003 0.01054,0.008 0.01679,0.0122 0.0043,0.003 0.01045,0.008 0.01665,0.0123 0.0042,0.003 0.01035,0.008 0.0165,0.0124 0.0042,0.003 0.01026,0.008 0.01635,0.0126 0.0041,0.003 0.01016,0.008 0.0162,0.0127 0.0041,0.003 0.01006,0.008 0.01605,0.0128 0.004,0.003 0.01,0.008 0.01589,0.0129 0.004,0.003 0.0099,0.008 0.01573,0.013 0.0039,0.003 0.0098,0.008 0.01557,0.0131 0.0039,0.003 0.0096,0.008 0.01541,0.0132 0.0038,0.003 0.0095,0.008 0.01524,0.0134 0.0038,0.003 0.0094,0.008 0.01507,0.0134 0.0037,0.003 0.0093,0.008 0.0149,0.0135 0.0037,0.003 0.0092,0.009 0.01472,0.0136 0.0036,0.003 0.0091,0.009 0.01454,0.0137 0.0036,0.003 0.009,0.009 0.01436,0.0138 0.0035,0.003 0.0088,0.009 0.01418,0.0139 0.0034,0.003 0.0087,0.009 0.01399,0.014 0.0034,0.003 0.0086,0.009 0.01381,0.0141 0.0033,0.003 0.0085,0.009 0.01361,0.0141 0.0033,0.003 0.0083,0.009 0.01342,0.0142 0.0032,0.003 0.0082,0.009 0.01322,0.0143 0.0031,0.003 0.0081,0.009 0.01303,0.0144 0.0031,0.003 0.008,0.009 0.01282,0.0144 0.003,0.003 0.0078,0.009 0.01262,0.0145 0.003,0.003 0.0077,0.009 0.01241,0.0146 0.0029,0.003 0.0075,0.009 0.01221,0.0146 0.0028,0.003 0.0074,0.009 0.01199,0.0147 0.0028,0.003 0.0073,0.009 0.01178,0.0147 0.0027,0.003 0.0071,0.009 0.01157,0.0148 0.0026,0.003 0.007,0.009 0.01135,0.0148 0.0025,0.003 0.0068,0.009 0.01113,0.0148 0.0025,0.003 0.0067,0.009 0.01091,0.0149 0.0024,0.003 0.0065,0.009 0.01068,0.0149 0.0023,0.003 0.0064,0.009 0.01046,0.015 0.0023,0.003 0.0063,0.009 0.01023,0.015 0.0022,0.003 0.0061,0.009 0.01,0.015 0.0021,0.003 0.0059,0.009 0.0098,0.015 0.0021,0.003 0.0058,0.009 0.0095,0.015 0.002,0.003 0.0056,0.009 0.0093,0.0151 0.0019,0.003 0.0055,0.009 0.0091,0.0151 0.0018,0.003 0.0053,0.009 0.0088,0.0151 0.0018,0.003 0.0052,0.009 0.0086,0.0151 0.0017,0.003 0.005,0.009 0.0083,0.0151 0.0016,0.003 0.0049,0.009 0.0081,0.0151 0.0016,0.003 0.0047,0.009 0.0078,0.0151 0.0015,0.003 0.0045,0.009 0.0076,0.0151 0.0014,0.003 0.0044,0.009 0.0074,0.0151 0.0014,0.003 0.0042,0.009 0.0071,0.0151 0.0013,0.003 0.0041,0.009 0.0069,0.015 0.0012,0.003 0.0039,0.009 0.0066,0.015 0.0012,0.003 0.0038,0.009 0.0064,0.015 0.0011,0.003 0.0036,0.009 0.0061,0.015 0.001,0.003 0.0034,0.009 0.0058,0.0149 9.6e-4,0.003 0.0033,0.009 0.0056,0.0149 8.97e-4,0.003 0.0031,0.009 0.0053,0.0149 8.36e-4,0.003 0.003,0.009 0.0051,0.0148 7.75e-4,0.002 0.0028,0.009 0.0048,0.0148 7.16e-4,0.002 0.0026,0.009 0.0046,0.0148 6.58e-4,0.002 0.0025,0.009 0.0043,0.0147 6.02e-4,0.002 0.0023,0.008 0.0041,0.0147 5.48e-4,0.002 0.0022,0.008 0.0038,0.0146 4.95e-4,0.002 0.002,0.008 0.0035,0.0146 4.44e-4,0.002 0.0019,0.008 0.0033,0.0145 3.95e-4,0.002 0.0017,0.008 0.003,0.0145 3.48e-4,0.002 0.0016,0.008 0.0028,0.0144 3.02e-4,0.002 0.0014,0.008 0.0025,0.0143 2.59e-4,0.002 0.0013,0.008 0.0023,0.0143 2.17e-4,0.002 0.0011,0.008 0.002,0.0142 1.78e-4,0.002 9.64e-4,0.008 0.0018,0.0142 1.4e-4,0.002 8.18e-4,0.008 0.0015,0.0141 1.05e-4,0.002 6.74e-4,0.008 0.0012,0.014 7.1e-5,0.002 5.3e-4,0.008 9.88e-4,0.014 4e-5,0.001 3.87e-4,0.008 7.34e-4,0.0139 1e-5,0.001 2.46e-4,0.008 4.81e-4,0.0138 -1.7e-5,0.001 1.05e-4,0.008 2.27e-4,0.0138 -4.3e-5,0.001 -3.4e-5,0.008 -2.5e-5,0.0137 -6.7e-5,0.001 -1.73e-4,0.007 -2.78e-4,0.0136 -9e-5,0.001 -3.11e-4,0.007 -5.32e-4,0.0136 -1.11e-4,0.001 -4.48e-4,0.007 -7.85e-4,0.0135 -1.3e-4,0.001 -5.84e-4,0.007 -0.001,0.0135 -1.5e-4,0.001 -7.22e-4,0.007 -0.0013,0.0134 -1.67e-4,0.001 -8.57e-4,0.007 -0.0015,0.0134 -1.84e-4,0.001 -9.94e-4,0.007 -0.0018,0.0133 -2.01e-4,9.9e-4 -0.0011,0.007 -0.0021,0.0133 -2.17e-4,9.6e-4 -0.0013,0.007 -0.0023,0.0132 -2.34e-4,9.5e-4 -0.0014,0.007 -0.0026,0.0132 -2.5e-4,9.3e-4 -0.0015,0.007 -0.0028,0.0131 -2.68e-4,9.2e-4 -0.0017,0.007 -0.0031,0.0131 -2.86e-4,9.1e-4 -0.0018,0.007 -0.0034,0.0131 -3.05e-4,9.1e-4 -0.002,0.007 -0.0036,0.013 -3.26e-4,9.1e-4 -0.0021,0.007 -0.0039,0.013 -3.49e-4,9.1e-4 -0.0023,0.007 -0.0042,0.013 -3.74e-4,9.3e-4 -0.0024,0.007 -0.0045,0.013 -4.01e-4,9.4e-4 -0.0026,0.007 -0.0048,0.0129 -4.31e-4,9.7e-4 -0.0027,0.007 -0.005,0.0129 -4.63e-4,9.9e-4 -0.0029,0.007 -0.0053,0.0129 -4.99e-4,0.001 -0.0031,0.007 -0.0056,0.0129 -5.39e-4,0.001 -0.0032,0.007 -0.0059,0.0129 -5.82e-4,0.001 -0.0034,0.007 -0.0063,0.0129 -6.29e-4,0.001 -0.0036,0.007 -0.0066,0.0129 -6.81e-4,0.001 -0.0038,0.007 -0.0069,0.0129 -7.36e-4,0.001 -0.004,0.007 -0.0072,0.0129 -7.97e-4,0.001 -0.0042,0.007 -0.0075,0.0129 -8.62e-4,0.001 -0.0044,0.007 -0.0079,0.0129 -9.32e-4,0.001 -0.0046,0.007 -0.0082,0.0129 -0.001,0.001 -0.0048,0.007 -0.0086,0.0129 -0.0011,0.001 -0.005,0.007 -0.0089,0.0129 -0.0012,0.002 -0.0052,0.007 -0.0093,0.0129 -0.0013,0.002 -0.0055,0.007 -0.0097,0.0129 -0.0014,0.002 -0.0057,0.007 -0.01007,0.0129 -0.0015,0.002 -0.006,0.007 -0.01045,0.0129 -0.0016,0.002 -0.0062,0.007 -0.01084,0.0129 -0.0017,0.002 -0.0065,0.007 -0.01125,0.0129 -0.0018,0.002 -0.0067,0.007 -0.01165,0.0129 -0.0019,0.002 -0.007,0.007 -0.01207,0.0129 -0.002,0.002 -0.0073,0.007 -0.01248,0.0129 -0.0022,0.002 -0.0075,0.007 -0.01291,0.0129 -0.0023,0.002 -0.0078,0.008 -0.01335,0.0129 -0.0024,0.002 -0.0081,0.008 -0.01378,0.0129 -0.0026,0.002 -0.0084,0.008 -0.01423,0.0128 -0.0027,0.002 -0.0087,0.008 -0.01468,0.0128 -0.0029,0.002 -0.009,0.008 -0.01514,0.0128 -0.003,0.002 -0.0093,0.008 -0.0156,0.0128 -0.0032,0.003 -0.0096,0.008 -0.01606,0.0127 -0.0034,0.003 -0.01,0.008 -0.01654,0.0127 -0.0035,0.003 -0.01028,0.008 -0.01702,0.0127 -0.0037,0.003 -0.0106,0.008 -0.0175,0.0126 -0.0039,0.003 -0.01093,0.008 -0.01799,0.0126 -9.5e-5,2e-5 -0.004,0.003 -0.008,0.005 4.79e-4,-3.7e-4 -0.0035,0.002 -0.0075,0.005 3.79e-4,-3e-4 -0.0037,0.002 -0.0078,0.005 2.76e-4,-2.2e-4 -0.0039,0.002 -0.008,0.005 1.66e-4,-1.5e-4 -0.0041,0.002 -0.0083,0.005 5.5e-5,-9e-5 -0.0043,0.002 -0.0086,0.005 -6e-5,-2e-5 -0.0044,0.002 -0.0088,0.005 -1.79e-4,5e-5 -0.0046,0.002 -0.0091,0.004 -3e-4,9e-5 -0.0048,0.002 -0.0093,0.004 -4.23e-4,1.5e-4 -0.005,0.002 -0.0096,0.004 -5.47e-4,2e-4 -0.0052,0.002 -0.0099,0.004 -6.73e-4,2.4e-4 -0.0054,0.002 -0.01014,0.004 -8e-4,2.8e-4 -0.0056,0.002 -0.0104,0.004 -9.27e-4,3.1e-4 -0.0058,0.002 -0.01067,0.004 -0.0011,3.4e-4 -0.006,0.002 -0.01093,0.004 -0.0012,3.8e-4 -0.0062,0.002 -0.01119,0.004 -0.0013,4e-4 -0.0064,0.002 -0.01145,0.004 -0.0014,4.2e-4 -0.0066,0.002 -0.01171,0.004 -0.0016,4.3e-4 -0.0068,0.002 -0.01196,0.004 -0.0017,4.5e-4 -0.007,0.002 -0.01221,0.003 -0.0018,4.5e-4 -0.0071,0.002 -0.01247,0.003 -0.0019,4.7e-4 -0.0073,0.002 -0.01271,0.003 -0.0021,4.7e-4 -0.0075,0.002 -0.01296,0.003 -0.0022,4.7e-4 -0.0077,0.002 -0.0132,0.003 -0.0023,4.6e-4 -0.0079,0.002 -0.01344,0.003 -0.0024,4.6e-4 -0.0081,0.002 -0.01368,0.003 -0.01243,0.002 -0.02661,0.005 -0.04093,0.007 -0.01471,0.002 -0.02955,0.004 -0.04452,0.006 -0.02057,0.003 -0.04136,0.005 -0.06234,0.006 -0.0908,0.007 -0.184077,0.007 -0.279421,0.002 -0.125857,-0.007 -0.252759,-0.0234 -0.380187,-0.0466 -0.138732,-0.0254 -0.276788,-0.0588 -0.41373,-0.0986 -0.160609,-0.0468 -0.318929,-0.10225 -0.474346,-0.16526 -0.168117,-0.0682 -0.332319,-0.14505 -0.491576,-0.23019 -0.152415,-0.0815 -0.299804,-0.17042 -0.440775,-0.26707 -0.124847,-0.0856 -0.244116,-0.17702 -0.35625,-0.27478 -0.06872,-0.0599 -0.134485,-0.12207 -0.196761,-0.18655 -0.02039,-0.0211 -0.04037,-0.0425 -0.05992,-0.064 -0.01457,-0.0161 -0.02889,-0.0322 -0.04294,-0.0485 -0.01399,-0.0162 -0.02772,-0.0325 -0.04117,-0.0489 -0.01339,-0.0163 -0.02651,-0.0328 -0.03935,-0.0493 -0.004,-0.005 -0.0087,-0.0113 -0.01344,-0.0175 -0.0032,-0.004 -0.0079,-0.0104 -0.0125,-0.0166 -0.0031,-0.004 -0.0077,-0.0104 -0.01228,-0.0166 -0.0031,-0.004 -0.0076,-0.0104 -0.01207,-0.0166 -0.003,-0.004 -0.0074,-0.0104 -0.01186,-0.0167 -0.0029,-0.004 -0.0073,-0.0104 -0.01164,-0.0167 -0.0028,-0.004 -0.0071,-0.0104 -0.01142,-0.0167 -0.0028,-0.004 -0.007,-0.0105 -0.0112,-0.0168 -0.0027,-0.004 -0.0068,-0.0105 -0.01098,-0.0168 -0.0026,-0.004 -0.0067,-0.0105 -0.01076,-0.0168 -0.0026,-0.004 -0.0065,-0.0105 -0.01054,-0.0168 -0.0025,-0.004 -0.0064,-0.0105 -0.01031,-0.0169 -0.0024,-0.004 -0.0063,-0.0105 -0.01009,-0.0169 -0.0023,-0.004 -0.0061,-0.0105 -0.0099,-0.0169 -0.0023,-0.004 -0.006,-0.0105 -0.0096,-0.0169 -0.0022,-0.004 -0.0058,-0.0105 -0.0094,-0.0169 -0.0021,-0.004 -0.0057,-0.0105 -0.0092,-0.017 -0.0021,-0.004 -0.0055,-0.0105 -0.0089,-0.017 -0.002,-0.004 -0.0053,-0.0105 -0.0087,-0.017 -0.0019,-0.004 -0.0052,-0.0104 -0.0085,-0.017 -0.0019,-0.004 -0.005,-0.0104 -0.0082,-0.017 -0.0018,-0.004 -0.0049,-0.0104 -0.008,-0.017 -0.0017,-0.004 -0.0047,-0.0104 -0.0078,-0.017 -0.0016,-0.004 -0.0046,-0.0104 -0.0075,-0.0171 -0.0016,-0.004 -0.0044,-0.0104 -0.0073,-0.0171 -0.0015,-0.004 -0.0043,-0.0104 -0.007,-0.0171 -0.0015,-0.004 -0.0041,-0.0104 -0.0068,-0.0171 -0.0014,-0.004 -0.004,-0.0104 -0.0066,-0.0171 -0.0013,-0.004 -0.0038,-0.0104 -0.0063,-0.0171 -0.0013,-0.004 -0.0037,-0.0104 -0.0061,-0.0171 -0.0012,-0.004 -0.0035,-0.0104 -0.0058,-0.0171 -0.0011,-0.004 -0.0034,-0.0104 -0.0056,-0.0171 -0.0011,-0.004 -0.0032,-0.0103 -0.0053,-0.0171 -0.001,-0.003 -0.0031,-0.0103 -0.0051,-0.0171 -9.57e-4,-0.003 -0.0029,-0.0103 -0.0048,-0.0172 -9e-4,-0.003 -0.0028,-0.0103 -0.0046,-0.0171 -8.44e-4,-0.003 -0.0026,-0.0103 -0.0044,-0.0172 -7.87e-4,-0.003 -0.0024,-0.0103 -0.0041,-0.0172 -7.33e-4,-0.003 -0.0023,-0.0103 -0.0039,-0.0172 -6.77e-4,-0.003 -0.0021,-0.0103 -0.0036,-0.0172 -6.24e-4,-0.003 -0.002,-0.0103 -0.0034,-0.0172 -5.71e-4,-0.003 -0.0018,-0.0103 -0.0031,-0.0172 -5.2e-4,-0.003 -0.0017,-0.0103 -0.0029,-0.0172 -4.68e-4,-0.003 -0.0015,-0.0103 -0.0026,-0.0172 -4.18e-4,-0.003 -0.0014,-0.0103 -0.0023,-0.0172 -3.67e-4,-0.003 -0.0012,-0.0103 -0.0021,-0.0173 -3.18e-4,-0.003 -0.0011,-0.0103 -0.0018,-0.0173 -2.69e-4,-0.003 -9.29e-4,-0.0103 -0.0016,-0.0173 -2.21e-4,-0.003 -7.77e-4,-0.0103 -0.0013,-0.0173 -1.72e-4,-0.003 -6.23e-4,-0.0103 -0.0011,-0.0173 -1.24e-4,-0.003 -4.69e-4,-0.0103 -8.12e-4,-0.0173 -7.6e-5,-0.003 -3.14e-4,-0.0103 -5.52e-4,-0.0174 -2.8e-5,-0.003 -1.59e-4,-0.0103 -2.9e-4,-0.0174 2e-5,-0.003 -3e-6,-0.0103 -2.7e-5,-0.0174 6.8e-5,-0.003 1.53e-4,-0.0103 2.38e-4,-0.0174 1.16e-4,-0.003 3.11e-4,-0.0104 5.03e-4,-0.0175 1.66e-4,-0.003 4.71e-4,-0.0104 7.72e-4,-0.0175 2.16e-4,-0.003 6.31e-4,-0.0104 0.001,-0.0175 0.0076,-0.11675 0.02593,-0.23509 0.05264,-0.35159 0.03056,-0.13334 0.07207,-0.26456 0.121416,-0.39293 0.05449,-0.1417 0.11849,-0.27995 0.18872,-0.41468 0.07737,-0.14837 0.162361,-0.29262 0.251845,-0.43304 0.104871,-0.16451 0.216323,-0.3244 0.330819,-0.48017 0.150852,-0.20517 0.308595,-0.40531 0.46715,-0.60113 0.153057,-0.18904 0.312502,-0.38071 0.46519,-0.56606 0.11698,-0.14205 0.231438,-0.28206 0.343824,-0.42453 0.09196,-0.11664 0.181246,-0.23327 0.267121,-0.35232 0.01752,-0.0243 0.03462,-0.0483 0.05136,-0.0721 l -0.06523,-0.37271 -0.372711,0.0652 c -0.01538,0.0219 -0.03117,0.0441 -0.04741,0.0666 -0.08001,0.11092 -0.164362,0.22118 -0.253286,0.33397 -0.108742,0.13785 -0.220295,0.27434 -0.336693,0.41569 -0.150411,0.18258 -0.313077,0.37815 -0.468027,0.56953 -0.161278,0.19918 -0.324713,0.40642 -0.482411,0.62091 -0.119754,0.16292 -0.23824,0.33275 -0.350926,0.50951 -0.09614,0.15087 -0.189243,0.30863 -0.275094,0.47327 -0.07792,0.14948 -0.150724,0.3063 -0.213687,0.47002 -0.05704,0.14838 -0.106531,0.30394 -0.143539,0.46544 -0.03239,0.14129 -0.05535,0.28805 -0.06515,0.43832 -5.36e-4,0.009 -9.51e-4,0.0164 -0.0014,0.0237 -5.06e-4,0.0112 -8.1e-4,0.0184 -0.0011,0.0257 -3.34e-4,0.0112 -5.28e-4,0.0184 -7.24e-4,0.0256 -1.64e-4,0.0112 -2.49e-4,0.0183 -3.34e-4,0.0256 6e-6,0.0112 3e-5,0.0183 5.4e-5,0.0255 1.74e-4,0.0111 3.06e-4,0.0183 4.38e-4,0.0255 3.42e-4,0.0111 5.81e-4,0.0182 8.21e-4,0.0254 5.08e-4,0.0111 8.53e-4,0.0182 0.0012,0.0254 6.72e-4,0.011 0.0011,0.0181 0.0016,0.0253 8.34e-4,0.011 0.0014,0.0181 0.0019,0.0252 9.95e-4,0.011 0.0017,0.018 0.0023,0.0251 0.0012,0.0109 0.0019,0.018 0.0027,0.0251 0.0013,0.0109 0.0022,0.0179 0.003,0.025 0.0015,0.0109 0.0024,0.0179 0.0034,0.0249 0.0016,0.0108 0.0027,0.0178 0.0038,0.0249 0.0018,0.0108 0.0029,0.0177 0.0041,0.0248 0.0019,0.0107 0.0032,0.0177 0.0045,0.0247 0.0021,0.0106 0.0034,0.0176 0.0048,0.0246 0.0022,0.0106 0.0037,0.0175 0.0052,0.0245 0.0024,0.0105 0.0039,0.0175 0.0055,0.0244 0.0025,0.0105 0.0042,0.0174 0.0058,0.0243 0.0026,0.0104 0.0044,0.0173 0.0062,0.0242 0.0028,0.0104 0.0046,0.0172 0.0065,0.0241 0.0029,0.0103 0.0048,0.0172 0.0068,0.024 0.003,0.0102 0.0051,0.0171 0.0071,0.0239 0.0032,0.0102 0.0053,0.017 0.0074,0.0238 0.0033,0.0101 0.0055,0.0169 0.0077,0.0237 0.0034,0.01 0.0057,0.0168 0.0081,0.0236 0.0035,0.01 0.0059,0.0167 0.0084,0.0235 0.0037,0.01 0.0061,0.0167 0.0087,0.0234 0.0038,0.01 0.0064,0.0166 0.009,0.0233 0.0039,0.01 0.0066,0.0165 0.0092,0.0232 0.004,0.01 0.0068,0.0164 0.0095,0.0231 0.0041,0.01 0.007,0.0163 0.0098,0.023 0.0042,0.01 0.0071,0.0162 0.0101,0.0229 0.0043,0.01 0.0073,0.0161 0.01038,0.0228 0.0044,0.009 0.0075,0.0161 0.01065,0.0227 0.0045,0.009 0.0077,0.016 0.01092,0.0226 0.0046,0.009 0.0079,0.0159 0.01119,0.0225 0.0047,0.009 0.0081,0.0158 0.01145,0.0223 0.0048,0.009 0.0083,0.0157 0.01171,0.0222 0.0049,0.009 0.0084,0.0156 0.01197,0.0221 0.005,0.009 0.0086,0.0155 0.01222,0.022 0.0051,0.009 0.0088,0.0154 0.01247,0.0219 0.0052,0.009 0.0089,0.0153 0.01272,0.0218 0.0053,0.009 0.0091,0.0152 0.01296,0.0217 0.0054,0.009 0.0093,0.0152 0.0132,0.0216 0.0054,0.009 0.0094,0.0151 0.01344,0.0215 0.0055,0.009 0.0096,0.015 0.01367,0.0213 0.0056,0.009 0.0097,0.0149 0.0139,0.0212 0.0057,0.008 0.0099,0.0148 0.01413,0.0211 0.0058,0.008 0.01005,0.0147 0.01435,0.021 0.0058,0.008 0.0102,0.0146 0.01458,0.0209 0.0059,0.008 0.01034,0.0145 0.0148,0.0208 0.006,0.008 0.01049,0.0145 0.01501,0.0207 0.006,0.008 0.01063,0.0144 0.01522,0.0206 0.0061,0.008 0.01077,0.0143 0.01544,0.0204 0.0062,0.008 0.01091,0.0142 0.01564,0.0203 0.01652,0.0213 0.03257,0.0414 0.04888,0.0613 0.01639,0.02 0.03303,0.0398 0.04992,0.0593 0.01697,0.0196 0.03418,0.0391 0.05162,0.0583 0.02339,0.0258 0.04719,0.0512 0.07136,0.0762 0.07372,0.0763 0.15067,0.14896 0.23,0.21814 0.129295,0.11273 0.265147,0.21664 0.40529,0.31277 0.158269,0.10852 0.32253,0.20749 0.491067,0.29764 0.176116,0.0942 0.357395,0.17898 0.542815,0.25421 0.171375,0.0695 0.346846,0.13101 0.525879,0.18316 0.152571,0.0444 0.30847,0.0822 0.467202,0.11123 0.145451,0.0265 0.294678,0.046 0.446503,0.0545 0.114835,0.006 0.232888,0.007 0.352437,-0.003 0.02793,-0.002 0.05598,-0.005 0.08418,-0.009 0.02053,-0.003 0.04118,-0.005 0.06193,-0.009 0.0202,-0.003 0.04051,-0.007 0.06092,-0.0106 0.0072,-0.001 0.01284,-0.003 0.01848,-0.004 0.0088,-0.002 0.01435,-0.003 0.01993,-0.004 0.0088,-0.002 0.01429,-0.003 0.01981,-0.004 0.0088,-0.002 0.01423,-0.003 0.01969,-0.005 0.0088,-0.002 0.01417,-0.004 0.01956,-0.005 0.0088,-0.002 0.0141,-0.004 0.01944,-0.005 0.0088,-0.002 0.01404,-0.004 0.01931,-0.005 0.0088,-0.003 0.01398,-0.004 0.01918,-0.006 0.0088,-0.003 0.01391,-0.004 0.01906,-0.006 0.0088,-0.003 0.01384,-0.004 0.01892,-0.006 0.0088,-0.003 0.01377,-0.005 0.01879,-0.006 0.0088,-0.003 0.01371,-0.005 0.01865,-0.007 0.0088,-0.003 0.01363,-0.005 0.01851,-0.007 0.0088,-0.003 0.01356,-0.005 0.01837,-0.007 0.0087,-0.004 0.01348,-0.006 0.01822,-0.008 0.0087,-0.004 0.0134,-0.006 0.01807,-0.008 0.0087,-0.004 0.01332,-0.006 0.01792,-0.008 0.0087,-0.004 0.01323,-0.006 0.01776,-0.008 0.0087,-0.004 0.01314,-0.006 0.0176,-0.009 0.0087,-0.004 0.01304,-0.007 0.01743,-0.009 0.0086,-0.005 0.01294,-0.007 0.01726,-0.009 0.0086,-0.005 0.01284,-0.007 0.01708,-0.01 0.0086,-0.005 0.01273,-0.007 0.01689,-0.01 0.0085,-0.005 0.01261,-0.008 0.0167,-0.0103 0.0085,-0.005 0.01249,-0.008 0.0165,-0.0106 0.0084,-0.006 0.01236,-0.008 0.01629,-0.011 0.0109,-0.008 0.01796,-0.0126 0.02502,-0.0175 0.01009,-0.007 0.01699,-0.0123 0.0239,-0.0173 0.0099,-0.007 0.01669,-0.0125 0.02345,-0.0175 0.0098,-0.008 0.0164,-0.0126 0.02299,-0.0177 0.0097,-0.008 0.0161,-0.0128 0.02254,-0.0179 0.0095,-0.008 0.0158,-0.013 0.02208,-0.0181 0.0094,-0.008 0.0155,-0.0131 0.02163,-0.0183 0.0092,-0.008 0.01519,-0.0133 0.02117,-0.0185 0.0091,-0.008 0.01489,-0.0134 0.02072,-0.0187 0.0089,-0.008 0.01459,-0.0136 0.02026,-0.0189 0.0088,-0.008 0.01428,-0.0138 0.01981,-0.0191 0.0086,-0.009 0.01397,-0.0139 0.01935,-0.0193 0.0084,-0.009 0.01366,-0.0141 0.01889,-0.0195 0.0083,-0.009 0.01335,-0.0143 0.01843,-0.0197 0.0081,-0.009 0.01303,-0.0144 0.01797,-0.0199 0.0079,-0.009 0.01272,-0.0146 0.01751,-0.0201 0.0078,-0.009 0.0124,-0.0147 0.01704,-0.0203 0.0076,-0.009 0.01208,-0.0149 0.01658,-0.0205 0.0074,-0.009 0.01175,-0.0151 0.01611,-0.0207 0.0072,-0.01 0.01142,-0.0152 0.01564,-0.0209 0.007,-0.01 0.01109,-0.0154 0.01517,-0.021 0.0068,-0.01 0.01076,-0.0155 0.0147,-0.0212 0.0066,-0.01 0.01043,-0.0156 0.01422,-0.0214 0.0064,-0.01 0.01009,-0.0158 0.01375,-0.0215 0.0062,-0.0102 0.0097,-0.0159 0.01327,-0.0217 0.006,-0.0103 0.0094,-0.0161 0.01279,-0.0219 0.0058,-0.0104 0.0091,-0.0162 0.01231,-0.022 0.0056,-0.0105 0.0087,-0.0163 0.01182,-0.0222 0.0054,-0.0105 0.0084,-0.0164 0.01134,-0.0223 0.0052,-0.0106 0.008,-0.0165 0.01085,-0.0224 0.005,-0.0107 0.0077,-0.0166 0.01037,-0.0226 0.0047,-0.0108 0.0073,-0.0167 0.0099,-0.0227 0.0045,-0.0109 0.007,-0.0168 0.0094,-0.0228 0.0043,-0.0109 0.0066,-0.0169 0.0089,-0.0229 0.0041,-0.011 0.0062,-0.017 0.0084,-0.023 0.0038,-0.011 0.0059,-0.0171 0.0079,-0.0231 0.0036,-0.0111 0.0055,-0.0171 0.0075,-0.0232 0.0034,-0.0112 0.0052,-0.0172 0.007,-0.0232 0.0031,-0.0112 0.0048,-0.0172 0.0065,-0.0233 0.0029,-0.0112 0.0045,-0.0173 0.006,-0.0234 0.0027,-0.0113 0.0041,-0.0173 0.0055,-0.0234 0.0024,-0.0113 0.0037,-0.0174 0.005,-0.0235 0.0022,-0.0113 0.0034,-0.0174 0.0046,-0.0235 0.002,-0.0113 0.003,-0.0174 0.0041,-0.0236 0.0018,-0.0113 0.0027,-0.0174 0.0036,-0.0236 0.0015,-0.0113 0.0024,-0.0174 0.0032,-0.0236 0.0013,-0.0113 0.002,-0.0174 0.0027,-0.0236 0.0011,-0.0113 0.0017,-0.0175 0.0022,-0.0236 8.77e-4,-0.0113 0.0013,-0.0174 0.0018,-0.0236 6.61e-4,-0.0112 9.98e-4,-0.0174 0.0013,-0.0236 4.48e-4,-0.0112 6.69e-4,-0.0174 8.9e-4,-0.0236 2.37e-4,-0.0112 3.43e-4,-0.0174 4.48e-4,-0.0236 3e-5,-0.0111 2.1e-5,-0.0173 1.3e-5,-0.0236 -1.75e-4,-0.0111 -2.97e-4,-0.0173 -4.2e-4,-0.0235 -3.74e-4,-0.0111 -6.1e-4,-0.0173 -8.45e-4,-0.0235 -5.72e-4,-0.011 -9.19e-4,-0.0172 -0.0013,-0.0234 -7.66e-4,-0.011 -0.0012,-0.0172 -0.0017,-0.0234 -9.56e-4,-0.0109 -0.0015,-0.0171 -0.0021,-0.0233 -0.0011,-0.0109 -0.0018,-0.0171 -0.0025,-0.0233 -0.0013,-0.0108 -0.0021,-0.017 -0.0029,-0.0232 -0.0015,-0.0107 -0.0024,-0.017 -0.0033,-0.0232 -0.0017,-0.0107 -0.0027,-0.0169 -0.0037,-0.0231 -0.0019,-0.0106 -0.003,-0.0168 -0.0041,-0.023 -0.002,-0.0105 -0.0032,-0.0168 -0.0044,-0.023 -0.0022,-0.0105 -0.0035,-0.0167 -0.0048,-0.0229 -0.0023,-0.0104 -0.0038,-0.0166 -0.0052,-0.0228 -0.0025,-0.0103 -0.004,-0.0165 -0.0055,-0.0227 -0.0027,-0.0103 -0.0043,-0.0165 -0.0059,-0.0226 -0.0028,-0.0102 -0.0045,-0.0164 -0.0063,-0.0226 -0.0029,-0.0101 -0.0048,-0.0163 -0.0066,-0.0225 -0.0031,-0.01 -0.005,-0.0162 -0.0069,-0.0224 -0.0032,-0.01 -0.0053,-0.0161 -0.0073,-0.0223 -0.0034,-0.01 -0.0055,-0.016 -0.0076,-0.0222 -0.0035,-0.01 -0.0057,-0.016 -0.0079,-0.0221 -0.0036,-0.01 -0.0059,-0.0159 -0.0083,-0.022 -0.0038,-0.01 -0.0062,-0.0158 -0.0086,-0.0219 -0.0039,-0.01 -0.0064,-0.0157 -0.0089,-0.0218 -0.004,-0.01 -0.0066,-0.0156 -0.0092,-0.0217 -0.0041,-0.009 -0.0068,-0.0155 -0.0095,-0.0216 -0.0042,-0.009 -0.007,-0.0154 -0.0098,-0.0215 -0.0044,-0.009 -0.0072,-0.0153 -0.01011,-0.0214 -0.0045,-0.009 -0.0074,-0.0152 -0.0104,-0.0213 -0.0046,-0.009 -0.0076,-0.0152 -0.01069,-0.0212 -0.0047,-0.009 -0.0078,-0.0151 -0.01097,-0.0211 -0.0048,-0.009 -0.008,-0.015 -0.01126,-0.021 -0.0049,-0.009 -0.0082,-0.0149 -0.01153,-0.0209 -0.005,-0.009 -0.0084,-0.0148 -0.01181,-0.0208 -0.0051,-0.009 -0.0086,-0.0147 -0.01208,-0.0207 -0.0052,-0.009 -0.0088,-0.0146 -0.01234,-0.0205 -0.0053,-0.009 -0.009,-0.0145 -0.01261,-0.0204 -0.0054,-0.009 -0.0091,-0.0144 -0.01287,-0.0203 -0.0055,-0.008 -0.0093,-0.0143 -0.01312,-0.0202 -0.0056,-0.008 -0.0095,-0.0142 -0.01338,-0.0201 -0.0057,-0.008 -0.0097,-0.0141 -0.01363,-0.0199 -0.0058,-0.008 -0.0098,-0.014 -0.01387,-0.0198 -0.0058,-0.008 -0.01,-0.0139 -0.01412,-0.0197 -0.0059,-0.008 -0.01015,-0.0138 -0.01436,-0.0196 -0.006,-0.008 -0.01031,-0.0138 -0.0146,-0.0195 -0.0061,-0.008 -0.01047,-0.0137 -0.01483,-0.0193 -0.0062,-0.008 -0.01063,-0.0136 -0.01506,-0.0192 -0.0063,-0.008 -0.01078,-0.0135 -0.01529,-0.0191 -0.0063,-0.008 -0.01094,-0.0134 -0.01552,-0.019 -0.0064,-0.008 -0.01109,-0.0133 -0.01574,-0.0188 -0.0065,-0.008 -0.01124,-0.0132 -0.01597,-0.0187 -0.0066,-0.008 -0.01138,-0.0131 -0.01618,-0.0186 -0.0067,-0.007 -0.01153,-0.013 -0.0164,-0.0185 -0.0067,-0.007 -0.01167,-0.0129 -0.01661,-0.0183 -0.0068,-0.007 -0.01182,-0.0128 -0.01682,-0.0182 -0.0069,-0.007 -0.01196,-0.0127 -0.01703,-0.018 -0.007,-0.007 -0.0121,-0.0126 -0.01724,-0.0179 -0.007,-0.007 -0.01223,-0.0125 -0.01744,-0.0178 -0.0071,-0.007 -0.01237,-0.0124 -0.01764,-0.0176 -0.0072,-0.007 -0.0125,-0.0123 -0.01784,-0.0175 -0.0072,-0.007 -0.01263,-0.0122 -0.01803,-0.0173 -0.0073,-0.007 -0.01276,-0.012 -0.01822,-0.0172 -0.0074,-0.007 -0.01289,-0.012 -0.01842,-0.0171 -0.0074,-0.007 -0.01302,-0.0118 -0.0186,-0.0169 -0.0075,-0.007 -0.01315,-0.0117 -0.01879,-0.0168 -0.0076,-0.007 -0.01327,-0.0116 -0.01897,-0.0166 -0.0076,-0.007 -0.0134,-0.0115 -0.01915,-0.0165 -0.0077,-0.006 -0.01352,-0.0114 -0.01933,-0.0163 -0.0078,-0.006 -0.01364,-0.0113 -0.01951,-0.0161 -0.0078,-0.006 -0.01375,-0.0112 -0.01968,-0.016 -0.0079,-0.006 -0.01387,-0.0111 -0.01985,-0.0158 -0.0079,-0.006 -0.01399,-0.011 -0.02002,-0.0157 -0.008,-0.006 -0.0141,-0.0108 -0.02019,-0.0155 -0.0081,-0.006 -0.01421,-0.0107 -0.02035,-0.0154 -0.0081,-0.006 -0.01433,-0.0106 -0.02052,-0.0152 -0.0082,-0.006 -0.01444,-0.0105 -0.02068,-0.015 -0.0082,-0.006 -0.01454,-0.0104 -0.02084,-0.0149 -0.0083,-0.006 -0.01465,-0.0102 -0.02099,-0.0147 -0.0084,-0.006 -0.01476,-0.0101 -0.02115,-0.0145 -0.0084,-0.006 -0.01486,-0.01 -0.0213,-0.0143 -0.0085,-0.006 -0.01497,-0.01 -0.02145,-0.0142 -0.0085,-0.006 -0.01507,-0.01 -0.02159,-0.014 -0.0086,-0.005 -0.01517,-0.01 -0.02174,-0.0138 -0.0086,-0.005 -0.01527,-0.009 -0.02188,-0.0136 -0.0087,-0.005 -0.01537,-0.009 -0.02202,-0.0134 -0.0088,-0.005 -0.01546,-0.009 -0.02216,-0.0132 -0.0088,-0.005 -0.01556,-0.009 -0.0223,-0.013 -0.0089,-0.005 -0.01565,-0.009 -0.02243,-0.0129 -0.0089,-0.005 -0.01574,-0.009 -0.02257,-0.0127 -0.009,-0.005 -0.01583,-0.009 -0.02269,-0.0125 -0.009,-0.005 -0.01593,-0.009 -0.02282,-0.0123 -0.0091,-0.005 -0.01601,-0.008 -0.02295,-0.0121 -0.0091,-0.005 -0.0161,-0.008 -0.02307,-0.0119 -0.0092,-0.005 -0.01619,-0.008 -0.02319,-0.0117 -0.0092,-0.005 -0.01627,-0.008 -0.02331,-0.0115 -0.0093,-0.004 -0.01636,-0.008 -0.02343,-0.0113 -0.0093,-0.004 -0.01644,-0.008 -0.02355,-0.0111 -0.0094,-0.004 -0.01652,-0.008 -0.02366,-0.0109 -0.0094,-0.004 -0.0166,-0.007 -0.02377,-0.0106 -0.0095,-0.004 -0.01668,-0.007 -0.02388,-0.0104 -0.0095,-0.004 -0.01676,-0.007 -0.02399,-0.0102 -0.0096,-0.004 -0.01684,-0.007 -0.02409,-0.01 -0.0096,-0.004 -0.01691,-0.007 -0.02419,-0.01 -0.0097,-0.004 -0.01699,-0.007 -0.0243,-0.01 -0.0097,-0.004 -0.01706,-0.007 -0.02439,-0.009 -0.0098,-0.004 -0.01713,-0.006 -0.02449,-0.009 -0.0098,-0.004 -0.0172,-0.006 -0.02459,-0.009 -0.0099,-0.003 -0.01727,-0.006 -0.02468,-0.009 -0.0099,-0.003 -0.01734,-0.006 -0.02477,-0.008 -0.0099,-0.003 -0.0174,-0.006 -0.02486,-0.008 -0.01,-0.003 -0.01747,-0.006 -0.02494,-0.008 -0.01003,-0.003 -0.01753,-0.005 -0.02503,-0.008 -0.01007,-0.003 -0.0176,-0.005 -0.02511,-0.007 -0.01012,-0.003 -0.01766,-0.005 -0.02519,-0.007 -0.01016,-0.003 -0.01772,-0.005 -0.02527,-0.007 -0.0102,-0.003 -0.01778,-0.005 -0.02534,-0.007 -0.01024,-0.003 -0.01783,-0.005 -0.02542,-0.006 -0.01028,-0.002 -0.01789,-0.004 -0.02549,-0.006 -0.01032,-0.002 -0.01795,-0.004 -0.02556,-0.006 -0.01036,-0.002 -0.018,-0.004 -0.02562,-0.006 -0.0104,-0.002 -0.01805,-0.004 -0.02569,-0.005 -0.01044,-0.002 -0.0181,-0.004 -0.02575,-0.005 -0.01048,-0.002 -0.01815,-0.003 -0.02581,-0.005 -0.01052,-0.002 -0.0182,-0.003 -0.02587,-0.005 -0.01056,-0.002 -0.01825,-0.003 -0.02592,-0.004 -0.01059,-0.002 -0.01829,-0.003 -0.02598,-0.004 -0.01063,-0.002 -0.01834,-0.003 -0.02603,-0.004 -0.01067,-0.001 -0.01838,-0.002 -0.02608,-0.003 -0.0107,-0.001 -0.01842,-0.002 -0.02613,-0.003 -0.01073,-0.001 -0.01846,-0.002 -0.02617,-0.003 -0.01077,-0.001 -0.0185,-0.002 -0.02621,-0.003 -0.0108,-9.3e-4 -0.01853,-0.002 -0.02625,-0.002 -0.01083,-8.1e-4 -0.01856,-0.001 -0.02628,-0.002 -0.01086,-6.8e-4 -0.0186,-0.001 -0.02632,-0.002 -0.01089,-5.5e-4 -0.01863,-9.4e-4 -0.02635,-0.001 -0.01092,-4.2e-4 -0.01866,-7.1e-4 -0.02638,-0.001 -0.01095,-3e-4 -0.01868,-5e-4 -0.0264,-6.9e-4 -0.01097,-1.7e-4 -0.01871,-2.7e-4 -0.02643,-3.8e-4 -0.011,-3e-5 -0.01873,-4e-5 -0.02645,-5e-5 -0.01102,1e-4 -0.01875,1.9e-4 -0.02646,2.7e-4 -0.01105,2.4e-4 -0.01877,4.2e-4 -0.02648,6e-4 -0.01107,3.8e-4 -0.01879,6.5e-4 -0.02649,9.3e-4 -0.01109,5.1e-4 -0.0188,8.9e-4 -0.0265,0.001 -0.01111,6.6e-4 -0.01882,0.001 -0.0265,0.002 -0.01113,8e-4 -0.01882,0.001 -0.02651,0.002 -0.01114,9.4e-4 -0.01883,0.002 -0.0265,0.002 -0.01116,0.001 -0.01884,0.002 -0.0265,0.003 -0.01117,0.001 -0.01884,0.002 -0.02649,0.003 -0.01118,0.001 -0.01884,0.002 -0.02648,0.003 -0.01119,0.002 -0.01884,0.003 -0.02647,0.004 -0.0112,0.002 -0.01883,0.003 -0.02645,0.004 -0.0112,0.002 -0.01883,0.003 -0.02643,0.004 -0.01121,0.002 -0.01881,0.003 -0.0264,0.005 -0.01121,0.002 -0.0188,0.004 -0.02637,0.005 -0.01121,0.002 -0.01879,0.004 -0.02634,0.006 -0.01121,0.002 -0.01877,0.004 -0.0263,0.006 -0.0112,0.003 -0.01874,0.004 -0.02626,0.006 -0.01119,0.003 -0.01872,0.005 -0.02622,0.007 -0.01118,0.003 -0.01869,0.005 -0.02617,0.007 -0.01117,0.003 -0.01866,0.005 -0.02612,0.007 -0.01116,0.003 -0.01862,0.006 -0.02606,0.008 -0.01114,0.003 -0.01858,0.006 -0.026,0.008 -0.01112,0.004 -0.01854,0.006 -0.02593,0.009 -0.0111,0.004 -0.01849,0.006 -0.02586,0.009 -0.01107,0.004 -0.01844,0.007 -0.02579,0.009 -0.01105,0.004 -0.01839,0.007 -0.02571,0.01 -0.01102,0.004 -0.01834,0.007 -0.02563,0.0102 -0.01098,0.005 -0.01828,0.008 -0.02554,0.0106 -0.01095,0.005 -0.01821,0.008 -0.02545,0.011 -0.01091,0.005 -0.01814,0.008 -0.02535,0.0114 -0.01086,0.005 -0.01807,0.008 -0.02525,0.0118 -0.01082,0.005 -0.018,0.009 -0.02514,0.0122 -0.01077,0.005 -0.01792,0.009 -0.02503,0.0126 -0.01072,0.006 -0.01784,0.009 -0.02492,0.013 -0.01067,0.006 -0.01775,0.01 -0.02479,0.0135 -0.01061,0.006 -0.01766,0.01 -0.02467,0.0139 -0.01055,0.006 -0.01756,0.0102 -0.02454,0.0143 -0.01049,0.006 -0.01747,0.0105 -0.02441,0.0147 -0.01042,0.006 -0.01737,0.0108 -0.02427,0.0151 -0.01036,0.007 -0.01726,0.0111 -0.02413,0.0156 -0.01029,0.007 -0.01715,0.0114 -0.02398,0.016 -0.01021,0.007 -0.01704,0.0117 -0.02383,0.0164 -0.01014,0.007 -0.01693,0.012 -0.02367,0.0168 -0.01006,0.007 -0.01681,0.0123 -0.02351,0.0172 -0.01,0.008 -0.01669,0.0126 -0.02335,0.0177 -0.0099,0.008 -0.01656,0.0129 -0.02318,0.0181 -0.0098,0.008 -0.01643,0.0132 -0.023,0.0185 -0.0097,0.008 -0.0163,0.0135 -0.02283,0.019 -0.0096,0.008 -0.01616,0.0138 -0.02265,0.0194 -0.0095,0.008 -0.01603,0.0141 -0.02246,0.0198 -0.0094,0.009 -0.01589,0.0144 -0.02228,0.0202 -0.0093,0.009 -0.01574,0.0147 -0.02208,0.0207 -0.0093,0.009 -0.0156,0.015 -0.02189,0.0211 -0.0092,0.009 -0.01545,0.0153 -0.02169,0.0215 -0.0091,0.009 -0.0153,0.0156 -0.02149,0.022 -0.0089,0.009 -0.01515,0.0159 -0.02128,0.0224 -0.0088,0.01 -0.01499,0.0162 -0.02107,0.0228 -0.0087,0.01 -0.01484,0.0165 -0.02086,0.0232 -0.0086,0.01 -0.01468,0.0168 -0.02064,0.0237 -0.0085,0.01 -0.01452,0.0171 -0.02042,0.0241 -0.0084,0.0102 -0.01436,0.0174 -0.0202,0.0245 -0.0083,0.0104 -0.01419,0.0177 -0.01998,0.025 -0.0082,0.0105 -0.01403,0.018 -0.01975,0.0254 -0.0065,0.009 -0.0096,0.0126 -0.01267,0.0168 -0.0057,0.008 -0.0091,0.0123 -0.01244,0.0169 -0.0055,0.008 -0.0089,0.0124 -0.01219,0.0171 -0.0054,0.008 -0.0087,0.0125 -0.01193,0.0172 -0.0053,0.008 -0.0085,0.0126 -0.01168,0.0174 -0.0052,0.008 -0.0083,0.0127 -0.01142,0.0175 -0.0051,0.008 -0.0081,0.0128 -0.01117,0.0176 -0.0049,0.008 -0.0079,0.0129 -0.01092,0.0178 -0.0048,0.008 -0.0078,0.013 -0.01066,0.0179 -0.0047,0.008 -0.0076,0.0131 -0.01041,0.018 -0.0046,0.008 -0.0074,0.0132 -0.01016,0.0182 -0.0045,0.008 -0.0072,0.0132 -0.0099,0.0183 -0.0043,0.008 -0.007,0.0133 -0.0097,0.0184 -0.0042,0.008 -0.0068,0.0134 -0.0094,0.0185 -0.0041,0.008 -0.0067,0.0135 -0.0092,0.0186 -0.004,0.008 -0.0065,0.0136 -0.0089,0.0187 -0.0039,0.008 -0.0063,0.0136 -0.0087,0.0188 -0.0038,0.008 -0.0061,0.0137 -0.0084,0.0189 -0.0037,0.008 -0.0059,0.0138 -0.0082,0.019 -0.0035,0.008 -0.0058,0.0138 -0.008,0.0191 -0.0034,0.008 -0.0056,0.0139 -0.0077,0.0192 -0.0033,0.009 -0.0054,0.0139 -0.0075,0.0193 -0.0032,0.009 -0.0052,0.014 -0.0073,0.0194 -0.0031,0.009 -0.0051,0.0141 -0.007,0.0195 -0.003,0.009 -0.0049,0.0141 -0.0068,0.0196 -0.0029,0.009 -0.0047,0.0142 -0.0066,0.0197 -0.007,0.0215 -0.01314,0.0414 -0.01881,0.0609 -0.0059,0.0203 -0.01133,0.0404 -0.01636,0.0601 -0.007,0.0275 -0.01324,0.0545 -0.01884,0.0811 -0.02234,0.10617 -0.03563,0.21117 -0.04257,0.31262 -0.0096,0.14097 -0.0073,0.27882 0.0022,0.41052 0.01109,0.15325 0.03217,0.30189 0.05887,0.4437 0.03229,0.17128 0.07353,0.33664 0.119429,0.49427 0.05427,0.18623 0.116161,0.36544 0.181775,0.5362 0.07819,0.20338 0.163041,0.39833 0.251113,0.58384 0.09355,0.19696 0.19153,0.38495 0.292133,0.56379 0.08865,0.15752 0.17889,0.30718 0.27089,0.44974 0.07422,0.11494 0.148418,0.2235 0.223839,0.32689 0.06416,0.0879 0.12775,0.17014 0.192941,0.24823 l 0.376851,0.0339 z"
         id="path-1"
         inkscape:path-effect="#path-effect12;#path-effect13"
         inkscape:original-d="m 73.501042,218.04554 c -0.780546,-0.9344 -2.138499,-3.54273 -1.241732,-4.71395 1.482859,-1.93669 4.840385,0.73194 3.012886,1.9965 -0.997029,0.6899 -4.533049,-0.7332 -4.412489,-2.58036 0.100453,-1.5391 1.761597,-3.04959 2.588213,-4.22695"
         style="fill:#ffff00;fill-opacity:1;fill-rule:nonzero;stroke:none;stroke-width:1.00535;stroke-linejoin:bevel;paint-order:markers fill stroke" /><ellipse
         style="fill:none;fill-opacity:1;stroke:#fff800;stroke-width:0.25235;stroke-linejoin:bevel;stroke-opacity:1;paint-order:markers fill stroke"
         id="path14"
         cx="72.999435"
         cy="213.11905"
         rx="5.4278889"
         ry="5.3866715" /><path
         style="fill:none;stroke:#000000;stroke-width:0.264583px;stroke-linecap:butt;stroke-linejoin:miter;stroke-opacity:1;marker-end:url(#ArrowWide)"
         d="m 81.046014,200.05821 -4.669924,6.344"
         id="path15" /><text
         xml:space="preserve"
         style="font-size:4.9389px;fill:none;fill-opacity:1;stroke:#fff800;stroke-width:0.265999;stroke-linejoin:bevel;stroke-opacity:1;paint-order:markers fill stroke"
         x="74.698936"
         y="196.80142"
         id="text15"><tspan
           sodipodi:role="line"
           id="tspan15"
           style="stroke-width:0.266"
           x="74.698936"
           y="196.80142" /></text><text
         style="font-size:2.64583px;font-family:monospace;-inkscape-font-specification:'monospace, Normal';fill:#000000;fill-opacity:1;stroke:none;stroke-width:0.264583"
         xml:space="preserve"
         id="text1-2"
         y="196.45763"
         x="75.817398"><tspan
           sodipodi:role="line"
           id="tspan1-7"
           x="75.817398"
           y="196.45763"
           style="stroke-width:0.264583">$light\ bulb$</tspan></text><path
         style="fill:none;stroke:#000000;stroke-width:0.298322px;stroke-linecap:butt;stroke-linejoin:miter;stroke-opacity:1"
         d="m 19.82953,193.17691 12.908515,0.0159"
         id="path3" /><path
         style="fill:none;stroke:#000000;stroke-width:0.298322;stroke-linecap:butt;stroke-linejoin:miter;stroke-dasharray:none;stroke-opacity:1"
         d="m 47.504256,193.24563 11.187618,-0.0316"
         id="path4"
         sodipodi:nodetypes="cc" /><rect
         style="fill:#ffffff;stroke:none;stroke-width:0.298322;stroke-linejoin:bevel;stroke-dasharray:none;paint-order:markers fill stroke"
         id="rect4"
         width="19.971252"
         height="5.3003917"
         x="31.012453"
         y="191.14235"
         rx="1.0609039"
         ry="0.5736441" /><path
         style="fill:none;stroke:#000000;stroke-width:0.298322px;stroke-linecap:butt;stroke-linejoin:miter;stroke-opacity:1"
         d="m 30.825427,193.15518 v -3.73665 h 6.263756 l 4.527196,-2.32145"
         id="path5"
         sodipodi:nodetypes="cccc" /><path
         style="fill:none;stroke:#000000;stroke-width:0.298322px;stroke-linecap:butt;stroke-linejoin:miter;stroke-opacity:1"
         d="m 30.919084,191.80007 v 3.73665 h 6.263756 l 3.373672,2.92978"
         id="path6"
         sodipodi:nodetypes="cccc" /><path
         style="fill:none;stroke:#000000;stroke-width:0.298322px;stroke-linecap:butt;stroke-linejoin:miter;stroke-opacity:1"
         d="m 51.265353,193.09948 v -3.73665 h -6.263756 l -2.0023,-1.44271"
         id="path7" /><rect
         style="fill:#ffffff;stroke:none;stroke-width:0.298322;stroke-linejoin:bevel;stroke-dasharray:none;paint-order:markers fill stroke"
         id="rect8"
         width="2.9118974"
         height="3.6145413"
         x="42.035881"
         y="187.44621"
         rx="1.0609039"
         ry="0.5736441" /><path
         style="fill:none;stroke:#000000;stroke-width:0.298322px;stroke-linecap:butt;stroke-linejoin:miter;stroke-opacity:1"
         d="m 51.28958,192.78964 v 3.73665 h -6.263756 l -2.0023,1.44271"
         id="path8" /><rect
         style="fill:#ffffff;stroke:none;stroke-width:0.298322;stroke-linejoin:bevel;stroke-dasharray:none;paint-order:markers fill stroke"
         id="rect9"
         width="2.9118974"
         height="3.6145413"
         x="42.01519"
         y="195.97873"
         rx="1.0609039"
         ry="0.5736441" /><text
         style="font-size:2.98322px;font-family:monospace;-inkscape-font-specification:'monospace, Normal';fill:#000000;fill-opacity:1;stroke:none;stroke-width:0.298322"
         xml:space="preserve"
         id="text1-6"
         x="31.879501"
         y="235.81633"
         transform="scale(1.0846451,0.92196055)"><tspan
           sodipodi:role="line"
           id="tspan1-2"
           x="31.879501"
           y="235.81633"
           style="stroke-width:0.298322">$parallel$</tspan></text></g></g></svg>
