<?xml version="1.0" encoding="UTF-8" standalone="no"?>
<!-- Created with Inkscape (http://www.inkscape.org/) -->

<svg
   width="1in"
   height="1in"
   viewBox="0 0 25.4 25.4"
   version="1.1"
   id="svg8"
   inkscape:version="1.3 (0e150ed6c4, 2023-07-21)"
   sodipodi:docname="curcity2.svg"
   xml:space="preserve"
   xmlns:inkscape="http://www.inkscape.org/namespaces/inkscape"
   xmlns:sodipodi="http://sodipodi.sourceforge.net/DTD/sodipodi-0.dtd"
   xmlns="http://www.w3.org/2000/svg"
   xmlns:svg="http://www.w3.org/2000/svg"
   xmlns:rdf="http://www.w3.org/1999/02/22-rdf-syntax-ns#"
   xmlns:cc="http://creativecommons.org/ns#"
   xmlns:dc="http://purl.org/dc/elements/1.1/"><defs
     id="defs2"><inkscape:path-effect
       effect="powerstroke"
       id="path-effect13"
       is_visible="true"
       lpeversion="1.3"
       scale_width="1"
       interpolator_type="CentripetalCatmullRom"
       interpolator_beta="0.75"
       start_linecap_type="peak"
       end_linecap_type="peak"
       offset_points="38.897473,0.26755224"
       linejoin_type="spiro"
       miter_limit="4"
       not_jump="true"
       sort_points="true"
       message="stroke-width:2;stroke-opacity:0.2;fill:#d1cbc9;stroke:#2e3436" /><inkscape:path-effect
       effect="simplify"
       id="path-effect12"
       is_visible="true"
       lpeversion="1.3"
       threshold="0.037633136"
       steps="1"
       smooth_angles="0"
       helper_size="0"
       simplify_individual_paths="false"
       simplify_just_coalesce="false"
       step="1" /><marker
       style="overflow:visible"
       id="ArrowWide"
       refX="0"
       refY="0"
       orient="auto-start-reverse"
       inkscape:stockid="Wide arrow"
       markerWidth="1"
       markerHeight="1"
       viewBox="0 0 1 1"
       inkscape:isstock="true"
       inkscape:collect="always"
       preserveAspectRatio="xMidYMid"><path
         style="fill:none;stroke:context-stroke;stroke-width:1;stroke-linecap:butt"
         d="M 3,-3 0,0 3,3"
         transform="rotate(180,0.125,0)"
         sodipodi:nodetypes="ccc"
         id="path1" /></marker></defs><sodipodi:namedview
     id="base"
     pagecolor="#ffffff"
     bordercolor="#666666"
     borderopacity="1.0"
     inkscape:pageopacity="0.0"
     inkscape:pageshadow="2"
     inkscape:zoom="1"
     inkscape:cx="190"
     inkscape:cy="99"
     inkscape:document-units="mm"
     inkscape:current-layer="layer1"
     showgrid="false"
     showborder="true"
     width="200mm"
     showguides="true"
     inkscape:guide-bbox="true"
     inkscape:window-width="1894"
     inkscape:window-height="1054"
     inkscape:window-x="10"
     inkscape:window-y="10"
     inkscape:window-maximized="1"
     inkscape:showpageshadow="2"
     inkscape:pagecheckerboard="0"
     inkscape:deskcolor="#d1d1d1"><inkscape:grid
       type="xygrid"
       id="grid815"
       units="mm"
       spacingx="10"
       spacingy="10"
       empspacing="4"
       dotted="false"
       originx="0"
       originy="0"
       visible="false" /></sodipodi:namedview><metadata
     id="metadata5"><rdf:RDF><cc:Work
         rdf:about=""><dc:format>image/svg+xml</dc:format><dc:type
           rdf:resource="http://purl.org/dc/dcmitype/StillImage" /></cc:Work></rdf:RDF></metadata><g
     inkscape:label="Layer 1"
     inkscape:groupmode="layer"
     id="layer1"
     transform="translate(0,-177)"><g
       inkscape:label="Layer 1"
       id="layer1-7"
       transform="matrix(0.28832913,0,0,0.32649469,0.53721289,121.84248)"><path
         id="rect1"
         style="fill:none;stroke:#000000;stroke-width:0.265999;stroke-linejoin:bevel;paint-order:markers fill stroke"
         d="m 20.718115,190.29893 c -0.48059,0 -0.867647,0.24619 -0.867647,0.5519 v 2.36265 h -8.430493 c -0.480591,0 -0.867648,0.24619 -0.867648,0.5519 v 42.54935 c 0,0.30571 0.387057,0.5519 0.867648,0.5519 h 60.803007 c 0.48059,0 0.867647,-0.24619 0.867647,-0.5519 v -42.54935 c 0,-0.30571 -0.387057,-0.5519 -0.867647,-0.5519 H 57.646611 v -2.23449 c 0,-0.30571 -0.38654,-0.5519 -0.867131,-0.5519 h -8.354529 c -0.48059,0 -0.867647,0.24619 -0.867647,0.5519 v 2.23449 H 29.940291 v -2.36265 c 0,-0.30571 -0.387056,-0.5519 -0.867647,-0.5519 z" /><rect
         style="fill:#ffffff;fill-opacity:1;stroke:none;stroke-width:0.265999;stroke-linejoin:bevel;paint-order:markers fill stroke"
         id="rect5"
         width="17.080706"
         height="5.5431457"
         x="16.905563"
         y="187.45119"
         rx="3.0086901"
         ry="1.6901749" /><rect
         style="fill:#ffffff;fill-opacity:1;stroke:none;stroke-width:0.265999;stroke-linejoin:bevel;paint-order:markers fill stroke"
         id="rect6"
         width="15.991147"
         height="4.3090148"
         x="45.451645"
         y="188.80486"
         rx="3.0086901"
         ry="1.6901749" /><path
         style="fill:none;stroke:#000000;stroke-width:0.264583px;stroke-linecap:butt;stroke-linejoin:miter;stroke-opacity:1"
         d="m 19.804779,193.0875 3.19819,-5.53943"
         id="path6" /><path
         style="fill:none;stroke:#000000;stroke-width:0.264583px;stroke-linecap:butt;stroke-linejoin:miter;stroke-opacity:1"
         d="m 47.543813,193.26055 3.19819,-5.53943"
         id="path7" /><text
         style="font-size:2.64583px;font-family:monospace;-inkscape-font-specification:'monospace, Normal';fill:#000000;fill-opacity:1;stroke:none;stroke-width:0.264583"
         xml:space="preserve"
         id="text1"
         y="186.65535"
         x="22.624725"><tspan
           sodipodi:role="line"
           id="tspan1"
           x="22.624725"
           y="186.65535"
           style="stroke-width:0.264583">$p$</tspan></text><text
         style="font-size:2.64583px;font-family:monospace;-inkscape-font-specification:'monospace, Normal';fill:#000000;fill-opacity:1;stroke:none;stroke-width:0.264583"
         xml:space="preserve"
         id="text1-3"
         y="186.96294"
         x="50.046436"><tspan
           sodipodi:role="line"
           id="tspan1-6"
           x="50.046436"
           y="186.96294"
           style="stroke-width:0.264583">$q$</tspan></text><rect
         style="fill:#ffffff;fill-opacity:1;stroke:none;stroke-width:0.183383;stroke-linejoin:bevel;paint-order:markers fill stroke"
         id="rect7"
         width="13.295936"
         height="5.6919155"
         x="7.2906837"
         y="213.30174"
         rx="3.0086901"
         ry="1.6901749" /><path
         style="fill:none;stroke:#000000;stroke-width:0.264583px;stroke-linecap:butt;stroke-linejoin:miter;stroke-opacity:1"
         d="M 6.0137615,218.40528 H 15.565342"
         id="path9" /><path
         style="fill:none;stroke:#000000;stroke-width:0.180015px;stroke-linecap:butt;stroke-linejoin:miter;stroke-opacity:1"
         d="M 8.1710965,216.05016 H 12.592564"
         id="path10" /><path
         style="fill:none;stroke:#000000;stroke-width:0.264583px;stroke-linecap:butt;stroke-linejoin:miter;stroke-opacity:1"
         d="m 6.096199,213.54275 h 9.55158"
         id="path11" /><text
         style="font-size:2.64583px;font-family:monospace;-inkscape-font-specification:'monospace, Normal';fill:#000000;fill-opacity:1;stroke:none;stroke-width:0.264583"
         xml:space="preserve"
         id="text1-7"
         y="203.1151"
         x="-4.4112368"><tspan
           sodipodi:role="line"
           id="tspan1-5"
           x="-4.4112368"
           y="203.1151"
           style="stroke-width:0.264583">$battery$</tspan></text><path
         style="fill:none;stroke:#000000;stroke-width:0.264583px;stroke-linecap:butt;stroke-linejoin:miter;stroke-opacity:1;marker-end:url(#ArrowWide)"
         d="m 3.398529,205.4591 4.6699246,6.344"
         id="path12" /><text
         style="font-size:2.64583px;font-family:monospace;-inkscape-font-specification:'monospace, Normal';fill:#ffffff;fill-opacity:1;stroke:none;stroke-width:0.264583"
         xml:space="preserve"
         id="text1-35"
         y="215.11111"
         x="33.129009"><tspan
           sodipodi:role="line"
           id="tspan1-62"
           x="33.129009"
           y="215.11111"
           style="fill:#ffffff;stroke-width:0.264583">$series$</tspan></text><rect
         style="fill:#ffffff;fill-opacity:1;stroke:none;stroke-width:0.265999;stroke-linejoin:bevel;paint-order:markers fill stroke"
         id="rect12"
         width="10.226973"
         height="10.422996"
         x="68.847618"
         y="207.94847"
         rx="3.0086901"
         ry="1.6901749" /><path
         d="m 73.70647,217.87412 c -0.06501,-0.0779 -0.133421,-0.16672 -0.209841,-0.27397 -0.09475,-0.1332 -0.190885,-0.27968 -0.290034,-0.4436 -0.115545,-0.19126 -0.230049,-0.39801 -0.340745,-0.62062 -0.106459,-0.2143 -0.209123,-0.44284 -0.301644,-0.68342 -0.07539,-0.19628 -0.144857,-0.40264 -0.201608,-0.61639 -0.04422,-0.16686 -0.0811,-0.33969 -0.104687,-0.51592 -0.0193,-0.14473 -0.02966,-0.29201 -0.02562,-0.43891 0.0035,-0.12509 0.01753,-0.24925 0.04654,-0.36859 0.02401,-0.0988 0.0585,-0.19402 0.105083,-0.28146 0.02866,-0.054 0.06271,-0.106 0.102043,-0.15532 0.09026,-0.11467 0.193235,-0.21654 0.308616,-0.29996 0.102795,-0.0745 0.216655,-0.13501 0.337601,-0.17799 0.114853,-0.0409 0.237139,-0.0667 0.362946,-0.0767 0.143996,-0.0116 0.292294,-0.003 0.44059,0.0238 0.168722,0.0305 0.335757,0.0839 0.496879,0.15682 0.158538,0.0719 0.30986,0.16189 0.449701,0.26815 0.117461,0.0893 0.225733,0.1894 0.320836,0.2995 0.08069,0.0935 0.150733,0.19306 0.206273,0.29785 0.04885,0.0922 0.08537,0.18692 0.106314,0.28189 0.01981,0.0896 0.02515,0.17896 0.01479,0.26342 -0.0098,0.0814 -0.03472,0.16117 -0.07285,0.23446 -0.04599,0.0888 -0.112024,0.17143 -0.192783,0.24573 -0.0477,0.0439 -0.09947,0.0844 -0.154399,0.1216 -0.04922,0.0325 -0.112473,0.0592 -0.18602,0.0793 -0.08596,0.0234 -0.178773,0.036 -0.27698,0.0413 -0.113039,0.006 -0.228645,0.001 -0.345653,-0.0101 -0.153331,-0.0152 -0.306343,-0.0425 -0.457881,-0.0781 -0.198311,-0.0468 -0.392687,-0.10761 -0.58176,-0.17904 -0.217485,-0.0823 -0.426959,-0.17829 -0.626744,-0.28635 -0.189858,-0.1028 -0.369334,-0.21566 -0.536653,-0.33904 -0.153019,-0.11295 -0.293694,-0.23313 -0.419903,-0.36179 -0.112787,-0.11508 -0.211713,-0.23471 -0.294499,-0.3596 -0.07734,-0.11671 -0.138775,-0.2357 -0.182402,-0.35577 -0.03996,-0.10983 -0.06434,-0.21955 -0.07344,-0.32596 -0.0061,-0.0694 -0.0054,-0.13801 3.8e-4,-0.20471 0.01326,-0.16375 0.04558,-0.32133 0.08864,-0.46966 0.05279,-0.18182 0.122558,-0.3537 0.197438,-0.5114 0.09509,-0.20011 0.20224,-0.38553 0.305381,-0.54946 0.132356,-0.21021 0.269737,-0.40324 0.390036,-0.56501 0.01582,-0.0213 0.03164,-0.0424 0.04743,-0.0634 0.236321,-0.31354 0.495079,-0.62641 0.718777,-0.89717 0.168624,-0.20421 0.306248,-0.37075 0.448193,-0.54975 0.129921,-0.16401 0.23584,-0.3039 0.331904,-0.43987 0.0044,-0.006 0.0076,-0.0108 0.01,-0.0142 l -0.06474,-0.3728 -0.372797,0.0647 c -0.0024,0.003 -0.0056,0.008 -0.0097,0.0138 -0.08856,0.12535 -0.18821,0.25714 -0.313982,0.41591 -0.137997,0.17402 -0.272182,0.33643 -0.441404,0.54136 -0.222164,0.26891 -0.48875,0.59111 -0.733554,0.9159 -0.01647,0.0219 -0.03295,0.0439 -0.04947,0.0661 -0.125179,0.16833 -0.271253,0.37334 -0.41352,0.59929 -0.110729,0.176 -0.229162,0.38037 -0.33586,0.60491 -0.084,0.17691 -0.165341,0.37605 -0.227976,0.5918 -0.0512,0.17638 -0.09145,0.36982 -0.107995,0.57427 -0.008,0.0927 -0.0092,0.19241 -2.54e-4,0.29536 0.01329,0.15549 0.04857,0.31132 0.103662,0.46274 0.05983,0.16467 0.141675,0.32127 0.239264,0.46855 0.104229,0.15722 0.225506,0.30296 0.358454,0.43861 0.148759,0.15164 0.311491,0.29019 0.484292,0.41774 0.189047,0.13941 0.389738,0.2654 0.59966,0.37906 0.220896,0.11948 0.452151,0.22544 0.692182,0.31626 0.208518,0.0788 0.425087,0.14675 0.648403,0.19939 0.170385,0.04 0.346915,0.0718 0.527844,0.0897 0.137672,0.0136 0.280704,0.0195 0.426353,0.0119 0.125391,-0.007 0.257496,-0.0234 0.38968,-0.0594 0.112586,-0.0308 0.231791,-0.0774 0.3428,-0.15084 0.07757,-0.0525 0.150436,-0.10934 0.219145,-0.17254 0.118177,-0.10873 0.226071,-0.23976 0.305437,-0.39303 0.0669,-0.1286 0.111465,-0.27018 0.129094,-0.41635 0.01848,-0.1506 0.008,-0.30133 -0.02345,-0.44342 -0.03287,-0.14906 -0.08822,-0.28906 -0.15599,-0.41703 -0.07695,-0.14518 -0.17098,-0.27752 -0.274062,-0.397 -0.121603,-0.14078 -0.257591,-0.26592 -0.402023,-0.3758 -0.171986,-0.13069 -0.357828,-0.24125 -0.552782,-0.32961 -0.198208,-0.0897 -0.407222,-0.15705 -0.622513,-0.19597 -0.18962,-0.0342 -0.384451,-0.0462 -0.578543,-0.0306 -0.17018,0.0136 -0.338696,0.0487 -0.49956,0.10599 -0.169955,0.0604 -0.329058,0.14512 -0.471924,0.24864 -0.159961,0.11565 -0.298072,0.25347 -0.414302,0.40115 -0.0587,0.0736 -0.110962,0.15328 -0.155066,0.23635 -0.07045,0.13224 -0.119603,0.27056 -0.152601,0.40634 -0.03964,0.16305 -0.05716,0.3256 -0.06147,0.48016 -0.005,0.18151 0.0079,0.35798 0.03013,0.52457 0.02719,0.20313 0.06914,0.39841 0.117861,0.58227 0.06259,0.23575 0.138437,0.46053 0.219345,0.67116 0.09937,0.25838 0.209035,0.50233 0.321943,0.72961 0.117438,0.23617 0.239023,0.45574 0.36199,0.65928 0.105461,0.17436 0.20883,0.33202 0.312058,0.47713 0.08319,0.11675 0.159886,0.21656 0.234899,0.30646 l 0.376844,0.034 z"
         id="path-1"
         style="fill:#ffff00;fill-opacity:1;fill-rule:nonzero;stroke:none;stroke-width:1.00535;stroke-linejoin:bevel;paint-order:markers fill stroke" /><path
         style="fill:#ffff00;fill-opacity:1;stroke:none;stroke-width:1.00535;stroke-linejoin:bevel;paint-order:markers fill stroke"
         d="m 278.55451,119.27989 c -6.68636,-0.40552 -12.48633,-0.0238 -17.02818,5.35384 -9.91639,11.7413 4.99537,29.82439 15.85776,34.03369 3.70198,1.43456 10.20884,0.22744 13.68709,-1.32999 6.48252,-2.90262 12.32524,-16.80174 7.71729,-22.98137 -3.04066,-4.07778 -6.42551,-7.85997 -10.61588,-10.75955 -3.37905,-2.33817 -9.61808,-4.31662 -9.61808,-4.31662 z"
         id="path13" /><ellipse
         style="fill:none;fill-opacity:1;stroke:#fff800;stroke-width:0.25235;stroke-linejoin:bevel;stroke-opacity:1;paint-order:markers fill stroke"
         id="path14"
         cx="72.999435"
         cy="213.11905"
         rx="5.4278889"
         ry="5.3866715" /><text
         style="font-size:2.64583px;font-family:monospace;-inkscape-font-specification:'monospace, Normal';fill:#000000;fill-opacity:1;stroke:none;stroke-width:0.264583"
         xml:space="preserve"
         id="text1-9"
         y="196.85861"
         x="74.509827"><tspan
           sodipodi:role="line"
           id="tspan1-1"
           x="74.509827"
           y="196.85861"
           style="stroke-width:0.264583">Light Bulb</tspan></text><path
         style="fill:none;stroke:#000000;stroke-width:0.264583px;stroke-linecap:butt;stroke-linejoin:miter;stroke-opacity:1;marker-end:url(#ArrowWide)"
         d="m 81.046014,200.05821 -4.669924,6.344"
         id="path15" /></g><text
       style="font-size:2.64583px;font-family:monospace;-inkscape-font-specification:'monospace, Normal';fill:#000000;fill-opacity:1;stroke:none;stroke-width:0.264583"
       xml:space="preserve"
       id="text1-36"
       y="202.15889"
       x="26.282246"><tspan
         sodipodi:role="line"
         id="tspan1-7"
         x="26.282246"
         y="202.15889"
         style="stroke-width:0.264583">$p \land q$</tspan></text><rect
       style="fill:none;stroke:#000000;stroke-width:0.265999;stroke-linejoin:bevel;paint-order:markers fill stroke"
       id="rect2"
       width="124.80779"
       height="19.869347"
       x="-11.482163"
       y="157.4402"
       rx="0.86749297"
       ry="0.55183315" /></g></svg>
