<?xml version="1.0" encoding="UTF-8" standalone="no"?>
<!-- Created with Inkscape (http://www.inkscape.org/) -->

<svg
   width="3in"
   height="2in"
   viewBox="0 0 76.2 50.8"
   version="1.1"
   id="svg8"
   inkscape:version="1.3 (0e150ed6c4, 2023-07-21)"
   sodipodi:docname="icry2.svg"
   xml:space="preserve"
   xmlns:inkscape="http://www.inkscape.org/namespaces/inkscape"
   xmlns:sodipodi="http://sodipodi.sourceforge.net/DTD/sodipodi-0.dtd"
   xmlns="http://www.w3.org/2000/svg"
   xmlns:svg="http://www.w3.org/2000/svg"
   xmlns:rdf="http://www.w3.org/1999/02/22-rdf-syntax-ns#"
   xmlns:cc="http://creativecommons.org/ns#"
   xmlns:dc="http://purl.org/dc/elements/1.1/"><defs
     id="defs2"><inkscape:path-effect
       effect="powerstroke"
       id="path-effect3"
       is_visible="true"
       lpeversion="1.3"
       scale_width="1"
       interpolator_type="CentripetalCatmullRom"
       interpolator_beta="0.75"
       start_linecap_type="peak"
       end_linecap_type="peak"
       offset_points="5.9517453,0.058721177"
       linejoin_type="spiro"
       miter_limit="4"
       not_jump="true"
       sort_points="true"
       message="&lt;b&gt;Ctrl + click&lt;/b&gt; on existing node and move it" /><inkscape:path-effect
       effect="simplify"
       id="path-effect2"
       is_visible="true"
       lpeversion="1.3"
       threshold="0.028846154"
       steps="1"
       smooth_angles="0"
       helper_size="0"
       simplify_individual_paths="false"
       simplify_just_coalesce="false"
       step="1" /></defs><sodipodi:namedview
     id="base"
     pagecolor="#ffffff"
     bordercolor="#666666"
     borderopacity="1.0"
     inkscape:pageopacity="0.0"
     inkscape:pageshadow="2"
     inkscape:zoom="2.3895383"
     inkscape:cx="183.7175"
     inkscape:cy="64.447596"
     inkscape:document-units="mm"
     inkscape:current-layer="layer1-5"
     showgrid="false"
     showborder="true"
     width="200mm"
     showguides="true"
     inkscape:guide-bbox="true"
     inkscape:window-width="1894"
     inkscape:window-height="1054"
     inkscape:window-x="10"
     inkscape:window-y="10"
     inkscape:window-maximized="1"
     inkscape:showpageshadow="2"
     inkscape:pagecheckerboard="0"
     inkscape:deskcolor="#d1d1d1"><inkscape:grid
       type="xygrid"
       id="grid815"
       units="mm"
       spacingx="10"
       spacingy="10"
       empspacing="4"
       dotted="false"
       originx="0"
       originy="0"
       visible="false" /></sodipodi:namedview><metadata
     id="metadata5"><rdf:RDF><cc:Work
         rdf:about=""><dc:format>image/svg+xml</dc:format><dc:type
           rdf:resource="http://purl.org/dc/dcmitype/StillImage" /></cc:Work></rdf:RDF></metadata><g
     inkscape:label="Layer 1"
     inkscape:groupmode="layer"
     id="layer1"
     transform="translate(0,-177)"><g
       inkscape:label="Layer 1"
       id="layer1-5"
       transform="translate(0.60658953,-0.07800049)"><path
         id="rect6"
         style="fill:none;fill-opacity:1;stroke:#000000;stroke-width:0.165;stroke-linejoin:bevel;stroke-dasharray:none;stroke-opacity:1;paint-order:markers fill stroke"
         d="m 8.6369779,179.20362 c -0.4805906,0 -0.8676473,0.24619 -0.8676473,0.5519 v 10.52597 c 0,0.30572 0.3870567,0.55191 0.8676473,0.55191 h 9.8950031 c 0.256223,0 0.461781,-0.003 0.655584,-0.009 0.328036,-0.0101 0.938507,-0.0201 0.984109,-0.0302 3.053442,7e-5 4.761977,-2.59167 4.761984,-5.78879 -7e-6,-3.19712 -2.132035,-5.78886 -4.761984,-5.78879 l -0.907422,0.006 c 0,0 -0.633902,-0.019 -0.732271,-0.019 z"
         sodipodi:nodetypes="sssssscccccs" /><path
         style="fill:none;stroke:#000000;stroke-width:0.165;stroke-linecap:butt;stroke-linejoin:miter;stroke-dasharray:none;stroke-opacity:1"
         d="M 7.7188527,182.37611 H 2.9368916"
         id="path6" /><path
         style="fill:none;stroke:#000000;stroke-width:0.165;stroke-linecap:butt;stroke-linejoin:miter;stroke-dasharray:none;stroke-opacity:1"
         d="M 7.7188527,186.60947 H 2.9368916"
         id="path7" /><path
         style="fill:none;stroke:#000000;stroke-width:0.165;stroke-linecap:butt;stroke-linejoin:miter;stroke-dasharray:none;stroke-opacity:1"
         d="M 29.746678,184.71619 H 24.964717"
         id="path8" /><text
         style="font-size:2.64583px;font-family:monospace;-inkscape-font-specification:'monospace, Normal';fill:#000000;fill-opacity:1;stroke:none;stroke-width:0.264583"
         xml:space="preserve"
         id="text1"
         y="182.89133"
         x="-1.9868739"><tspan
           sodipodi:role="line"
           id="tspan1"
           x="-1.9868739"
           y="182.89133"
           style="stroke-width:0.264583">$A$</tspan></text><text
         style="font-size:2.64583px;font-family:monospace;-inkscape-font-specification:'monospace, Normal';fill:#000000;fill-opacity:1;stroke:none;stroke-width:0.264583"
         xml:space="preserve"
         id="text1-3"
         y="187.65198"
         x="-1.9490405"><tspan
           sodipodi:role="line"
           id="tspan1-6"
           x="-1.9490405"
           y="187.65198"
           style="stroke-width:0.264583">$B$</tspan></text><text
         style="font-size:2.97867px;font-family:monospace;-inkscape-font-specification:'monospace, Normal';fill:#000000;fill-opacity:1;stroke:none;stroke-width:0.297867"
         xml:space="preserve"
         id="text1-7"
         y="195.95882"
         x="31.064823"
         transform="scale(0.96514675,1.0361119)"><tspan
           sodipodi:role="line"
           id="tspan1-5"
           x="31.064823"
           y="195.95882"
           style="stroke-width:0.297867">$C$</tspan></text><text
         style="font-size:2.64583px;font-family:monospace;-inkscape-font-specification:'monospace, Normal';fill:#000000;fill-opacity:1;stroke:none;stroke-width:0.264583"
         xml:space="preserve"
         id="text1-35"
         y="185.66866"
         x="11.506589"><tspan
           sodipodi:role="line"
           id="tspan1-62"
           x="11.506589"
           y="185.66866"
           style="stroke-width:0.264583">$AND$</tspan></text><path
         id="rect1"
         style="fill:none;stroke:#000000;stroke-width:0.185757;stroke-linejoin:bevel;paint-order:markers fill stroke"
         d="m 7.8213555,196.73757 c -0.2891428,0 -0.5438351,0.0899 -0.7164692,0.22906 a 4.1535197,6.5549364 0 0 1 3.0028827,6.29727 4.1535197,6.5549364 0 0 1 -3.0556635,6.31956 c 0.1703892,0.16468 0.4502463,0.27246 0.76925,0.27246 H 18.155698 c 0.522191,0 0.942753,-0.28717 0.942753,-0.64377 v -11.83081 c 0,-0.3566 -0.420562,-0.64377 -0.942753,-0.64377 z" /><path
         style="fill:none;stroke:#000000;stroke-width:0.185757;stroke-linecap:butt;stroke-linejoin:miter;stroke-dasharray:none;stroke-opacity:1"
         d="M 9.7403803,200.54998 H 4.5444828"
         id="path5" /><path
         style="fill:none;stroke:#000000;stroke-width:0.185757;stroke-linecap:butt;stroke-linejoin:miter;stroke-dasharray:none;stroke-opacity:1"
         d="M 9.7403803,204.87075 H 4.5444828"
         id="path9" /><text
         style="font-size:2.97867px;font-family:monospace;-inkscape-font-specification:'monospace, Normal';fill:#000000;fill-opacity:1;stroke:none;stroke-width:0.297867"
         xml:space="preserve"
         id="text9"
         y="193.7245"
         x="-0.57022804"
         transform="scale(0.96514675,1.0361119)"><tspan
           sodipodi:role="line"
           id="tspan9"
           x="-0.57022804"
           y="193.7245"
           style="stroke-width:0.297867">$A$</tspan></text><text
         style="font-size:2.97867px;font-family:monospace;-inkscape-font-specification:'monospace, Normal';fill:#000000;fill-opacity:1;stroke:none;stroke-width:0.297867"
         xml:space="preserve"
         id="text10"
         y="198.63853"
         x="-0.62818915"
         transform="scale(0.96514675,1.0361119)"><tspan
           sodipodi:role="line"
           id="tspan10"
           x="-0.62818915"
           y="198.63853"
           style="stroke-width:0.297867">$B$</tspan></text><path
         style="fill:none;stroke:#000000;stroke-width:0.185757;stroke-linecap:butt;stroke-linejoin:miter;stroke-dasharray:none;stroke-opacity:1"
         d="M 28.850928,202.06044 H 23.655031"
         id="path10" /><text
         style="font-size:2.64583px;font-family:monospace;-inkscape-font-specification:'monospace, Normal';fill:#000000;fill-opacity:1;stroke:none;stroke-width:0.264583"
         xml:space="preserve"
         id="text11"
         y="185.55219"
         x="30.775208"><tspan
           sodipodi:role="line"
           id="tspan11"
           x="30.775208"
           y="185.55219"
           style="stroke-width:0.264583">$C$</tspan></text><text
         style="font-size:2.97867px;font-family:monospace;-inkscape-font-specification:'monospace, Normal';fill:#000000;fill-opacity:1;stroke:none;stroke-width:0.297867"
         xml:space="preserve"
         id="text1-6"
         x="12.421312"
         y="196.91331"
         transform="scale(0.96514675,1.0361119)"><tspan
           sodipodi:role="line"
           id="tspan1-2"
           x="12.421312"
           y="196.91331"
           style="stroke-width:0.297867">$OR$</tspan></text><path
         style="fill:none;stroke:#000000;stroke-width:0.375283px;stroke-linecap:butt;stroke-linejoin:miter;stroke-opacity:1"
         d="m 53.139585,185.77521 v 19.70772 l 13.1327,-10.70218 z"
         id="path11"
         sodipodi:nodetypes="cccc" /><ellipse
         style="fill:none;fill-opacity:1;stroke:#000000;stroke-width:0.234036;stroke-dasharray:none;stroke-opacity:1;paint-order:markers fill stroke"
         id="path12"
         cy="194.77887"
         cx="67.935837"
         rx="1.4621693"
         ry="1.4677083" /><text
         style="font-size:2.64583px;font-family:monospace;-inkscape-font-specification:'monospace, Normal';fill:#000000;fill-opacity:1;stroke:none;stroke-width:0.264583"
         xml:space="preserve"
         id="text1-9"
         x="54.761761"
         y="195.81041"><tspan
           sodipodi:role="line"
           id="tspan1-1"
           x="54.761761"
           y="195.81041"
           style="stroke-width:0.264583">$NOT$</tspan></text><path
         style="fill:none;stroke:#000000;stroke-width:0.234036;stroke-linecap:butt;stroke-linejoin:miter;stroke-dasharray:none;stroke-opacity:1"
         d="M 52.654292,195.00911 H 45.884394"
         id="path13" /><text
         style="font-size:3.75283px;font-family:monospace;-inkscape-font-specification:'monospace, Normal';fill:#000000;fill-opacity:1;stroke:none;stroke-width:0.375283"
         xml:space="preserve"
         id="text13"
         y="195.84142"
         x="39.961838"
         transform="scale(0.99811127,1.0018923)"><tspan
           sodipodi:role="line"
           id="tspan13"
           x="39.961838"
           y="195.84142"
           style="stroke-width:0.375283">$A$</tspan></text><path
         style="fill:none;stroke:#000000;stroke-width:0.165;stroke-linecap:butt;stroke-linejoin:miter;stroke-dasharray:none;stroke-opacity:1"
         d="M 29.746678,184.71619 H 24.964717"
         id="path14" /><path
         style="fill:none;stroke:#000000;stroke-width:0.234036;stroke-linecap:butt;stroke-linejoin:miter;stroke-dasharray:none;stroke-opacity:1"
         d="M 76.425109,194.79945 H 69.655211"
         id="path15" /><text
         style="font-size:3.75283px;font-family:monospace;-inkscape-font-specification:'monospace, Normal';fill:#000000;fill-opacity:1;stroke:none;stroke-width:0.375283"
         xml:space="preserve"
         id="text15"
         y="195.86253"
         x="77.250809"
         transform="scale(0.99811127,1.0018923)"><tspan
           sodipodi:role="line"
           id="tspan15"
           x="77.250809"
           y="195.86253"
           style="stroke-width:0.375283">$C$</tspan></text></g><g
       inkscape:groupmode="layer"
       id="layer2"
       inkscape:label="Layer 2" /></g><g
     inkscape:groupmode="layer"
     id="layer3"
     inkscape:label="Layer 3"><rect
       style="fill:#ffffff;fill-opacity:1;stroke:none;stroke-width:0.18928;stroke-linejoin:bevel;paint-order:markers fill stroke"
       id="rect2"
       width="2.0739436"
       height="13.106256"
       x="18.801785"
       y="19.710484"
       rx="0.86749297"
       ry="0.55183315" /><path
       d="m 20.664137,19.771319 c 0.05756,0.0036 0.133119,0.01146 0.219726,0.02953 0.06268,0.01305 0.132818,0.03177 0.209002,0.0587 0.06552,0.02314 0.134637,0.05201 0.208327,0.08799 0.07414,0.03617 0.149315,0.07771 0.230112,0.125973 0.114284,0.06825 0.232267,0.145971 0.359745,0.224777 0.0726,0.04489 0.1518,0.09208 0.234565,0.135892 0.0041,0.0021 0.0081,0.0043 0.01225,0.0064 0.06458,0.03379 0.139443,0.0697 0.221337,0.101824 0.03232,0.01269 0.06728,0.02538 0.104674,0.03753 0.03411,0.0111 0.06726,0.02113 0.103997,0.03229 0.05773,0.01753 0.119473,0.0363 0.178986,0.05755 0.03489,0.01247 0.07053,0.0263 0.105478,0.04218 0.02624,0.01195 0.05238,0.02518 0.07739,0.04029 0.01545,0.0093 0.03057,0.01948 0.04492,0.03061 0.04791,0.03682 0.098,0.07518 0.14856,0.112799 0.05819,0.0433 0.118825,0.08711 0.181444,0.129523 0.04447,0.0301 0.09079,0.06009 0.13879,0.08873 0.03672,0.02188 0.07511,0.0434 0.115039,0.06333 0.01818,0.0091 0.03603,0.01731 0.05301,0.02553 0.147229,0.07067 0.294215,0.145989 0.439327,0.227163 0.127047,0.07108 0.253163,0.14693 0.37663,0.228533 0.108393,0.07166 0.215079,0.147977 0.318347,0.2298 0.09411,0.07458 0.185582,0.153902 0.272553,0.238664 0.0129,0.01264 0.0253,0.02472 0.03722,0.03705 0.03053,0.03186 0.05861,0.06745 0.0853,0.105632 0.03029,0.04342 0.05808,0.08931 0.08432,0.13708 0.03216,0.05864 0.06154,0.119391 0.089,0.181806 0.03412,0.07762 0.06499,0.157196 0.09338,0.238332 0.03385,0.09681 0.06399,0.195383 0.09091,0.295372 0.02961,0.110092 0.05523,0.221632 0.07676,0.33431 0.02046,0.107191 0.0372,0.215302 0.04948,0.324061 0.0104,0.0923 0.0176,0.184983 0.02053,0.277775 0.0024,0.07558 0.0019,0.151097 -0.0025,0.226222 -0.0035,0.05903 -0.0095,0.1176 -0.0189,0.175341 -0.0085,0.05169 -0.0197,0.102333 -0.03501,0.151231 -0.0036,0.01151 -0.0082,0.02448 -0.01248,0.0392 -0.01484,0.0496 -0.025,0.100209 -0.03214,0.150361 -0.0079,0.05572 -0.01224,0.111361 -0.01503,0.166009 -0.0045,0.08911 -0.0051,0.17666 -0.0089,0.26237 -0.0025,0.05673 -0.0064,0.112297 -0.01349,0.166952 -0.0064,0.04876 -0.01535,0.09634 -0.02821,0.142267 -0.01115,0.03987 -0.02525,0.07836 -0.04266,0.11481 -0.0052,0.0108 -0.01119,0.0225 -0.01727,0.03523 -0.02272,0.04713 -0.04357,0.09496 -0.06333,0.142268 -0.02628,0.06298 -0.05132,0.126806 -0.07585,0.188752 -0.02915,0.07363 -0.05781,0.145405 -0.08879,0.216074 -0.01668,0.03802 -0.03382,0.07521 -0.05187,0.111563 -0.07332,0.147619 -0.154784,0.290393 -0.241648,0.428451 -0.09269,0.147291 -0.191739,0.289582 -0.294572,0.427298 -0.117785,0.15771 -0.241028,0.310091 -0.366811,0.457799 -0.147753,0.173478 -0.30007,0.341729 -0.453115,0.505461 -0.189429,0.202649 -0.383722,0.402232 -0.573879,0.59716 -0.105419,0.108072 -0.207645,0.212766 -0.310251,0.319036 -0.04758,0.04912 -0.09568,0.09735 -0.143305,0.144407 -0.08264,0.0816 -0.165505,0.161183 -0.247687,0.238563 -0.117921,0.110989 -0.235475,0.218357 -0.352621,0.322228 -0.124023,0.109936 -0.246961,0.215397 -0.369907,0.316742 -0.108754,0.08961 -0.216016,0.174792 -0.323372,0.255929 -0.088,0.06647 -0.174326,0.128937 -0.260595,0.187749 -0.07314,0.04983 -0.144426,0.09582 -0.21553,0.138257 -0.0647,0.03857 -0.127122,0.07298 -0.18931,0.103357 -0.05831,0.0284 -0.113474,0.05193 -0.168178,0.07029 -0.04533,0.01512 -0.08668,0.02551 -0.12645,0.03079 -0.01834,0.0024 -0.03473,0.0035 -0.04959,0.0035 l -0.05871,0.05873 0.05873,0.05871 c 0.0204,-3e-6 0.04191,-0.0014 0.06496,-0.0045 0.04919,-0.0065 0.09801,-0.01906 0.148336,-0.03585 0.06087,-0.02043 0.120842,-0.04613 0.182393,-0.07611 0.0658,-0.03214 0.13114,-0.0682 0.197986,-0.108049 0.07352,-0.04388 0.146809,-0.09118 0.221505,-0.142071 0.08813,-0.06008 0.176017,-0.123685 0.265256,-0.191095 0.108884,-0.08229 0.217447,-0.168512 0.327264,-0.259001 0.12416,-0.102345 0.248168,-0.208729 0.373123,-0.319491 0.118032,-0.104657 0.236444,-0.212809 0.355214,-0.324597 0.08276,-0.07792 0.166302,-0.158157 0.249716,-0.240519 0.04804,-0.04746 0.09678,-0.09633 0.1452,-0.146323 0.102413,-0.10607 0.2044,-0.21052 0.309895,-0.318668 0.190094,-0.194865 0.385209,-0.395285 0.575605,-0.598969 0.153881,-0.164625 0.307475,-0.334271 0.45673,-0.509512 0.127068,-0.149217 0.251929,-0.303574 0.371501,-0.463676 0.104394,-0.139807 0.205266,-0.284682 0.299873,-0.435022 0.08866,-0.140918 0.172124,-0.287136 0.247433,-0.438761 0.01906,-0.03839 0.03699,-0.07732 0.05424,-0.116629 0.03194,-0.07285 0.0613,-0.146415 0.09044,-0.22001 0.02474,-0.06248 0.04928,-0.125029 0.07503,-0.18674 0.01931,-0.04622 0.03928,-0.09197 0.06085,-0.136723 0.0052,-0.01098 0.01116,-0.02255 0.01726,-0.03522 0.02073,-0.04338 0.0371,-0.08831 0.04987,-0.133954 0.01469,-0.05246 0.02464,-0.105712 0.03157,-0.158712 0.0077,-0.05928 0.01177,-0.118512 0.01436,-0.176963 0.0039,-0.08862 0.0046,-0.175917 0.0089,-0.261596 0.0027,-0.05268 0.0068,-0.104498 0.01401,-0.155434 0.0065,-0.04575 0.01558,-0.09046 0.02847,-0.133536 0.0033,-0.01122 0.0076,-0.0235 0.01194,-0.03742 0.01733,-0.05536 0.02967,-0.11154 0.03885,-0.167385 0.01022,-0.06248 0.01654,-0.125141 0.02024,-0.187398 0.0047,-0.07927 0.0051,-0.158371 0.0027,-0.236856 -0.003,-0.09639 -0.01051,-0.19225 -0.02121,-0.287251 -0.01265,-0.111967 -0.02986,-0.223031 -0.05083,-0.332922 -0.02208,-0.115528 -0.04834,-0.22989 -0.07871,-0.342799 -0.0276,-0.102537 -0.05858,-0.20387 -0.09346,-0.303632 -0.02925,-0.08358 -0.06121,-0.166027 -0.09674,-0.246839 -0.02858,-0.06495 -0.05944,-0.128836 -0.09355,-0.191027 -0.0278,-0.05061 -0.05777,-0.100199 -0.09098,-0.147813 -0.02917,-0.04172 -0.06102,-0.08233 -0.09697,-0.119836 -0.01346,-0.01393 -0.02721,-0.02731 -0.03975,-0.03961 -0.09032,-0.08803 -0.184871,-0.169982 -0.281699,-0.246719 -0.106257,-0.08419 -0.215717,-0.16247 -0.326526,-0.235725 -0.126222,-0.08343 -0.254852,-0.160766 -0.384051,-0.233054 -0.147577,-0.08255 -0.296774,-0.158995 -0.445683,-0.230469 -0.01814,-0.0088 -0.03548,-0.01678 -0.05151,-0.02479 -0.03671,-0.01832 -0.07247,-0.03834 -0.107376,-0.05914 -0.04558,-0.02719 -0.08996,-0.05591 -0.133092,-0.08511 -0.06071,-0.04112 -0.119859,-0.08384 -0.177176,-0.126492 -0.04978,-0.03704 -0.09924,-0.07491 -0.146904,-0.111545 -0.01836,-0.01424 -0.03734,-0.02692 -0.05596,-0.03817 -0.02994,-0.01809 -0.06033,-0.03339 -0.0895,-0.04667 -0.03889,-0.01768 -0.07776,-0.03271 -0.114598,-0.04588 -0.06263,-0.02236 -0.127077,-0.04193 -0.18436,-0.05932 -0.03703,-0.01126 -0.069,-0.02093 -0.101823,-0.03161 -0.03503,-0.01138 -0.06777,-0.02326 -0.09807,-0.03516 -0.07698,-0.0302 -0.147894,-0.06417 -0.209806,-0.09656 -0.0039,-0.0021 -0.0079,-0.0041 -0.01174,-0.0062 -0.07948,-0.04208 -0.156194,-0.08775 -0.227758,-0.131991 -0.125409,-0.07753 -0.244128,-0.155751 -0.361281,-0.225711 -0.08282,-0.04947 -0.160981,-0.09271 -0.238821,-0.130688 -0.07745,-0.03781 -0.150704,-0.06845 -0.22071,-0.09318 -0.08142,-0.02878 -0.156655,-0.04889 -0.22417,-0.06294 -0.09323,-0.01945 -0.174527,-0.02792 -0.236393,-0.03177 l -0.06225,0.05496 z"
       id="path-1"
       style="fill:#ffffff;fill-opacity:1;fill-rule:nonzero;stroke:none;stroke-width:0.623622;stroke-dasharray:none;paint-order:markers fill stroke"
       inkscape:original-d="m 20.667783,19.712711 c 0.754904,0.0471 1.166713,0.595627 1.800594,0.806921 0.164246,0.05475 0.402362,0.109385 0.540354,0.2154 0.162051,0.124498 0.398065,0.305384 0.597099,0.400002 0.5328,0.253285 1.077255,0.573249 1.4822,0.97822 0.416811,0.416837 0.767297,1.884519 0.551878,2.530774 -0.107993,0.32398 0.0037,0.725199 -0.15659,1.045749 -0.100864,0.201728 -0.18244,0.462821 -0.291976,0.683379 -0.50471,1.016262 -1.447644,1.918376 -2.245414,2.744486 -0.440727,0.456383 -1.909659,1.835101 -2.493991,1.835101"
       inkscape:path-effect="#path-effect2;#path-effect3"
       transform="matrix(1.086562,0,0,1.1664545,-3.0758472,-3.256406)" /><path
       style="fill:none;stroke:#000000;stroke-width:0.194784;stroke-linecap:butt;stroke-linejoin:miter;stroke-dasharray:none;stroke-opacity:1"
       d="m 18.900713,19.690383 c 0,0 4.974742,2.787424 5.239762,5.207888 0.331584,3.028415 -4.996745,7.723461 -4.996745,7.723461"
       id="path4"
       sodipodi:nodetypes="csc" /></g></svg>
